M48
; DRILL file {KiCad 8.0.6} date 2024-12-11T07:14:04+0100
; FORMAT={-:-/ absolute / inch / decimal}
; #@! TF.CreationDate,2024-12-11T07:14:04+01:00
; #@! TF.GenerationSoftware,Kicad,Pcbnew,8.0.6
; #@! TF.FileFunction,Plated,1,2,PTH
FMAT,2
INCH
; #@! TA.AperFunction,Plated,PTH,ViaDrill
T1C0.0157
; #@! TA.AperFunction,Plated,PTH,ComponentDrill
T2C0.0315
; #@! TA.AperFunction,Plated,PTH,ComponentDrill
T3C0.0500
%
G90
G05
T1
X4.7874Y-3.3346
X4.815Y-3.1575
X4.8307Y-2.5709
X4.8307Y-2.626
X4.8307Y-2.6811
X4.8386Y-3.5079
X4.8386Y-3.7795
X4.8386Y-3.8543
X4.8386Y-3.9291
X4.9134Y-3.3622
X4.9724Y-3.5079
X4.9843Y-3.0354
X4.9882Y-3.1339
X4.9882Y-3.2362
X5.0039Y-3.9291
X5.0157Y-3.7126
X5.0197Y-2.5669
X5.0236Y-3.6102
X5.0472Y-2.8858
X5.0728Y-3.7713
X5.0748Y-3.3937
X5.0945Y-3.1024
X5.1024Y-2.7047
X5.1102Y-3.8543
X5.111Y-3.3268
X5.1339Y-3.5827
X5.1373Y-3.2441
X5.1457Y-3.748
X5.1654Y-2.937
X5.1654Y-3.5433
X5.1732Y-2.6969
X5.1732Y-2.7835
X5.1732Y-2.8346
X5.2047Y-3.4213
X5.2244Y-2.7835
X5.2283Y-2.8346
X5.2394Y-2.9286
X5.2638Y-3.7126
X5.2677Y-3.622
X5.2795Y-2.9331
X5.2835Y-3.1024
X5.3031Y-3.8661
X5.311Y-3.5236
X5.3346Y-3.622
X5.3386Y-2.5748
X5.3465Y-2.8976
X5.3701Y-3.4606
X5.3819Y-3.189
X5.3937Y-2.8966
X5.3937Y-3.6299
X5.3957Y-3.7185
X5.4134Y-2.5748
X5.4488Y-2.811
X5.4488Y-3.622
X5.4686Y-3.7988
X5.4764Y-2.5669
X5.4764Y-2.6378
X5.5472Y-3.4961
X5.5571Y-3.9232
X5.5631Y-3.6249
X5.5866Y-2.8351
X5.5866Y-3.815
X5.6011Y-3.6355
X5.6191Y-3.6705
X5.622Y-2.5472
X5.6285Y-3.7091
X5.6285Y-3.7814
X5.6496Y-3.8465
X5.6496Y-3.9291
X5.6772Y-2.5472
T2
X5.1575Y-2.9882
X5.2362Y-2.9882
T3
X4.94Y-2.5858
X4.94Y-2.6858
X4.94Y-2.7858
X4.94Y-2.8858
X4.94Y-2.9858
X4.94Y-3.0858
X4.94Y-3.1858
X4.94Y-3.2858
X5.54Y-2.5858
X5.54Y-2.6858
X5.54Y-2.7858
X5.54Y-2.8858
X5.54Y-2.9858
X5.54Y-3.0858
X5.54Y-3.1858
X5.54Y-3.2858
M30
