%TF.GenerationSoftware,KiCad,Pcbnew,8.0.6*%
%TF.CreationDate,2024-12-11T07:14:04+01:00*%
%TF.ProjectId,unfancyRemote,756e6661-6e63-4795-9265-6d6f74652e6b,rev?*%
%TF.SameCoordinates,Original*%
%TF.FileFunction,Legend,Bot*%
%TF.FilePolarity,Positive*%
%FSLAX46Y46*%
G04 Gerber Fmt 4.6, Leading zero omitted, Abs format (unit mm)*
G04 Created by KiCad (PCBNEW 8.0.6) date 2024-12-11 07:14:04*
%MOMM*%
%LPD*%
G01*
G04 APERTURE LIST*
%ADD10C,0.500000*%
%ADD11C,0.100000*%
%ADD12C,0.120000*%
%ADD13C,0.127000*%
%ADD14R,1.350000X1.350000*%
%ADD15O,1.350000X1.350000*%
%ADD16R,1.200000X0.800000*%
%ADD17C,2.109000*%
G04 APERTURE END LIST*
D10*
X124376142Y-89998809D02*
X124519000Y-90076190D01*
X124519000Y-90076190D02*
X124661857Y-89963095D01*
X124661857Y-89963095D02*
X124519000Y-89885714D01*
X124519000Y-89885714D02*
X124376142Y-89998809D01*
X124376142Y-89998809D02*
X124661857Y-89963095D01*
X123519000Y-90105952D02*
X121804714Y-90225000D01*
X121804714Y-90225000D02*
X121661857Y-90338095D01*
X121661857Y-90338095D02*
X121804714Y-90415476D01*
X121804714Y-90415476D02*
X123519000Y-90105952D01*
X123519000Y-90105952D02*
X121661857Y-90338095D01*
X123090428Y-91778571D02*
X123090428Y-91111904D01*
X124661857Y-90915476D02*
X121661857Y-91290476D01*
X121661857Y-91290476D02*
X121661857Y-92242857D01*
X123804714Y-92641667D02*
X123804714Y-93594048D01*
X124661857Y-92344048D02*
X121661857Y-93385714D01*
X121661857Y-93385714D02*
X124661857Y-93677381D01*
X124661857Y-94344048D02*
X121661857Y-94719048D01*
X121661857Y-94719048D02*
X124661857Y-95486905D01*
X124661857Y-95486905D02*
X121661857Y-95861905D01*
X124376142Y-97617857D02*
X124519000Y-97504762D01*
X124519000Y-97504762D02*
X124661857Y-97201191D01*
X124661857Y-97201191D02*
X124661857Y-97010714D01*
X124661857Y-97010714D02*
X124519000Y-96742857D01*
X124519000Y-96742857D02*
X124233285Y-96588095D01*
X124233285Y-96588095D02*
X123947571Y-96528572D01*
X123947571Y-96528572D02*
X123376142Y-96504762D01*
X123376142Y-96504762D02*
X122947571Y-96558333D01*
X122947571Y-96558333D02*
X122376142Y-96725000D01*
X122376142Y-96725000D02*
X122090428Y-96855953D01*
X122090428Y-96855953D02*
X121804714Y-97082143D01*
X121804714Y-97082143D02*
X121661857Y-97385714D01*
X121661857Y-97385714D02*
X121661857Y-97576191D01*
X121661857Y-97576191D02*
X121804714Y-97844048D01*
X121804714Y-97844048D02*
X121947571Y-97921429D01*
X123233285Y-98998810D02*
X124661857Y-98820238D01*
X121661857Y-98528572D02*
X123233285Y-98998810D01*
X123233285Y-98998810D02*
X121661857Y-99861905D01*
X142465904Y-86816666D02*
X143799238Y-86649999D01*
X142465904Y-85959523D02*
X143513523Y-85828571D01*
X143513523Y-85828571D02*
X143704000Y-85899999D01*
X143704000Y-85899999D02*
X143799238Y-86078571D01*
X143799238Y-86078571D02*
X143799238Y-86364285D01*
X143799238Y-86364285D02*
X143704000Y-86566666D01*
X143704000Y-86566666D02*
X143608761Y-86673809D01*
X141704000Y-89292856D02*
X144275428Y-87257142D01*
X142465904Y-89578571D02*
X142465904Y-90340475D01*
X141799238Y-89947618D02*
X143513523Y-89733333D01*
X143513523Y-89733333D02*
X143704000Y-89804761D01*
X143704000Y-89804761D02*
X143799238Y-89983333D01*
X143799238Y-89983333D02*
X143799238Y-90173809D01*
X143799238Y-90840475D02*
X141799238Y-91090475D01*
X143799238Y-91697618D02*
X142751619Y-91828570D01*
X142751619Y-91828570D02*
X142561142Y-91757142D01*
X142561142Y-91757142D02*
X142465904Y-91578570D01*
X142465904Y-91578570D02*
X142465904Y-91292856D01*
X142465904Y-91292856D02*
X142561142Y-91090475D01*
X142561142Y-91090475D02*
X142656380Y-90983332D01*
X142465904Y-93673809D02*
X143799238Y-93507142D01*
X142465904Y-92816666D02*
X143513523Y-92685714D01*
X143513523Y-92685714D02*
X143704000Y-92757142D01*
X143704000Y-92757142D02*
X143799238Y-92935714D01*
X143799238Y-92935714D02*
X143799238Y-93221428D01*
X143799238Y-93221428D02*
X143704000Y-93423809D01*
X143704000Y-93423809D02*
X143608761Y-93530952D01*
X142465904Y-94626190D02*
X143799238Y-94459523D01*
X142656380Y-94602380D02*
X142561142Y-94709523D01*
X142561142Y-94709523D02*
X142465904Y-94911904D01*
X142465904Y-94911904D02*
X142465904Y-95197618D01*
X142465904Y-95197618D02*
X142561142Y-95376190D01*
X142561142Y-95376190D02*
X142751619Y-95447618D01*
X142751619Y-95447618D02*
X143799238Y-95316666D01*
X143799238Y-96269047D02*
X141799238Y-96519047D01*
X143037333Y-96554762D02*
X143799238Y-97030952D01*
X142465904Y-97197619D02*
X143227809Y-96340476D01*
X143799238Y-98745238D02*
X142751619Y-98876190D01*
X142751619Y-98876190D02*
X142561142Y-98804762D01*
X142561142Y-98804762D02*
X142465904Y-98626190D01*
X142465904Y-98626190D02*
X142465904Y-98245238D01*
X142465904Y-98245238D02*
X142561142Y-98042857D01*
X143704000Y-98757143D02*
X143799238Y-98554762D01*
X143799238Y-98554762D02*
X143799238Y-98078571D01*
X143799238Y-98078571D02*
X143704000Y-97900000D01*
X143704000Y-97900000D02*
X143513523Y-97828571D01*
X143513523Y-97828571D02*
X143323047Y-97852381D01*
X143323047Y-97852381D02*
X143132571Y-97971429D01*
X143132571Y-97971429D02*
X143037333Y-98173810D01*
X143037333Y-98173810D02*
X143037333Y-98650000D01*
X143037333Y-98650000D02*
X142942095Y-98852381D01*
X143799238Y-99697619D02*
X142465904Y-99864286D01*
X142846857Y-99816667D02*
X142656380Y-99935714D01*
X142656380Y-99935714D02*
X142561142Y-100042857D01*
X142561142Y-100042857D02*
X142465904Y-100245238D01*
X142465904Y-100245238D02*
X142465904Y-100435714D01*
D11*
X131328571Y-74091764D02*
X131328571Y-74698907D01*
X131328571Y-74698907D02*
X131364285Y-74770335D01*
X131364285Y-74770335D02*
X131400000Y-74806050D01*
X131400000Y-74806050D02*
X131471428Y-74841764D01*
X131471428Y-74841764D02*
X131614285Y-74841764D01*
X131614285Y-74841764D02*
X131685714Y-74806050D01*
X131685714Y-74806050D02*
X131721428Y-74770335D01*
X131721428Y-74770335D02*
X131757142Y-74698907D01*
X131757142Y-74698907D02*
X131757142Y-74091764D01*
X132042856Y-74091764D02*
X132507142Y-74091764D01*
X132507142Y-74091764D02*
X132257142Y-74377478D01*
X132257142Y-74377478D02*
X132364285Y-74377478D01*
X132364285Y-74377478D02*
X132435714Y-74413192D01*
X132435714Y-74413192D02*
X132471428Y-74448907D01*
X132471428Y-74448907D02*
X132507142Y-74520335D01*
X132507142Y-74520335D02*
X132507142Y-74698907D01*
X132507142Y-74698907D02*
X132471428Y-74770335D01*
X132471428Y-74770335D02*
X132435714Y-74806050D01*
X132435714Y-74806050D02*
X132364285Y-74841764D01*
X132364285Y-74841764D02*
X132149999Y-74841764D01*
X132149999Y-74841764D02*
X132078571Y-74806050D01*
X132078571Y-74806050D02*
X132042856Y-74770335D01*
D12*
%TO.C,U1*%
X125496000Y-88060000D02*
X125496000Y-88695000D01*
X125496000Y-99490000D02*
X125496000Y-111555000D01*
X125496000Y-105205000D02*
X140496000Y-105205000D01*
X125496000Y-111555000D02*
X140496000Y-111555000D01*
X126496000Y-88060000D02*
X125496000Y-88060000D01*
X127996000Y-111555000D02*
X125496000Y-107745000D01*
X129495999Y-111555000D02*
X125496000Y-105205000D01*
X130996001Y-111555000D02*
X126996000Y-105204999D01*
X132496000Y-111555000D02*
X128496001Y-105205000D01*
X133996000Y-111555000D02*
X129996000Y-105205000D01*
X135496000Y-111555000D02*
X131496000Y-105205000D01*
X136996000Y-111555000D02*
X132996000Y-105205000D01*
X138495999Y-111555000D02*
X134496000Y-105205000D01*
X139496000Y-88060000D02*
X140496000Y-88060000D01*
X139996001Y-111555000D02*
X135996000Y-105204999D01*
X140496000Y-88060000D02*
X140496000Y-88695000D01*
X140496000Y-99490000D02*
X140496000Y-111555000D01*
X140496000Y-107110000D02*
X138996000Y-105205000D01*
X140496000Y-109650001D02*
X137496001Y-105205000D01*
D13*
%TO.C,U3*%
X124096000Y-64230000D02*
X124096000Y-86930000D01*
X128596000Y-64230000D02*
X124096000Y-64230000D01*
X128596000Y-64230000D02*
X128596000Y-62930000D01*
X137596000Y-62930000D02*
X128596000Y-62930000D01*
X137596000Y-64230000D02*
X137596000Y-62930000D01*
X142096000Y-64230000D02*
X137596000Y-64230000D01*
X142096000Y-64230000D02*
X142096000Y-86930000D01*
X142096000Y-86930000D02*
X124096000Y-86930000D01*
%TD*%
%LPC*%
D14*
%TO.C,J1*%
X131000000Y-75900000D03*
D15*
X133000000Y-75900000D03*
%TD*%
D16*
%TO.C,U1*%
X140100000Y-90600000D03*
X140100000Y-91870000D03*
X140100000Y-93140000D03*
X140100000Y-94410000D03*
X140100000Y-95680000D03*
X140100000Y-96950000D03*
X140100000Y-98220000D03*
X125876000Y-98220000D03*
X125876000Y-96950000D03*
X125876000Y-95680000D03*
X125876000Y-94410000D03*
X125876000Y-93140000D03*
X125876000Y-91870000D03*
X125876000Y-90600000D03*
%TD*%
D17*
%TO.C,U3*%
X125476000Y-83460000D03*
X125476000Y-80920000D03*
X125476000Y-78380000D03*
X125476000Y-75840000D03*
X125476000Y-70760000D03*
X125476000Y-73300000D03*
X140716000Y-65680000D03*
X125476000Y-65680000D03*
X140716000Y-68220000D03*
X140716000Y-70760000D03*
X140716000Y-73300000D03*
X140716000Y-75840000D03*
X140716000Y-78380000D03*
X140716000Y-80920000D03*
X140716000Y-83460000D03*
X125476000Y-68220000D03*
%TD*%
%LPD*%
M02*
