%TF.GenerationSoftware,KiCad,Pcbnew,(6.0.2)*%
%TF.CreationDate,2022-05-15T19:04:19+02:00*%
%TF.ProjectId,unfancyRemote,756e6661-6e63-4795-9265-6d6f74652e6b,rev?*%
%TF.SameCoordinates,Original*%
%TF.FileFunction,Legend,Top*%
%TF.FilePolarity,Positive*%
%FSLAX46Y46*%
G04 Gerber Fmt 4.6, Leading zero omitted, Abs format (unit mm)*
G04 Created by KiCad (PCBNEW (6.0.2)) date 2022-05-15 19:04:19*
%MOMM*%
%LPD*%
G01*
G04 APERTURE LIST*
G04 Aperture macros list*
%AMRoundRect*
0 Rectangle with rounded corners*
0 $1 Rounding radius*
0 $2 $3 $4 $5 $6 $7 $8 $9 X,Y pos of 4 corners*
0 Add a 4 corners polygon primitive as box body*
4,1,4,$2,$3,$4,$5,$6,$7,$8,$9,$2,$3,0*
0 Add four circle primitives for the rounded corners*
1,1,$1+$1,$2,$3*
1,1,$1+$1,$4,$5*
1,1,$1+$1,$6,$7*
1,1,$1+$1,$8,$9*
0 Add four rect primitives between the rounded corners*
20,1,$1+$1,$2,$3,$4,$5,0*
20,1,$1+$1,$4,$5,$6,$7,0*
20,1,$1+$1,$6,$7,$8,$9,0*
20,1,$1+$1,$8,$9,$2,$3,0*%
G04 Aperture macros list end*
%ADD10C,0.150000*%
%ADD11C,0.500000*%
%ADD12C,0.120000*%
%ADD13RoundRect,0.200000X-0.200000X-0.275000X0.200000X-0.275000X0.200000X0.275000X-0.200000X0.275000X0*%
%ADD14RoundRect,0.225000X-0.225000X-0.250000X0.225000X-0.250000X0.225000X0.250000X-0.225000X0.250000X0*%
%ADD15RoundRect,0.243750X0.243750X0.456250X-0.243750X0.456250X-0.243750X-0.456250X0.243750X-0.456250X0*%
%ADD16RoundRect,0.225000X-0.250000X0.225000X-0.250000X-0.225000X0.250000X-0.225000X0.250000X0.225000X0*%
%ADD17R,1.700000X1.700000*%
%ADD18O,1.700000X1.700000*%
%ADD19RoundRect,0.200000X0.200000X0.275000X-0.200000X0.275000X-0.200000X-0.275000X0.200000X-0.275000X0*%
%ADD20R,0.800000X1.200000*%
%ADD21C,3.200000*%
%ADD22R,0.900000X1.200000*%
%ADD23RoundRect,0.250000X0.250000X0.750000X-0.250000X0.750000X-0.250000X-0.750000X0.250000X-0.750000X0*%
%ADD24RoundRect,0.200000X0.275000X-0.200000X0.275000X0.200000X-0.275000X0.200000X-0.275000X-0.200000X0*%
%ADD25RoundRect,0.150000X0.150000X-0.587500X0.150000X0.587500X-0.150000X0.587500X-0.150000X-0.587500X0*%
%ADD26RoundRect,0.250000X-0.250000X-0.750000X0.250000X-0.750000X0.250000X0.750000X-0.250000X0.750000X0*%
%ADD27RoundRect,0.150000X0.587500X0.150000X-0.587500X0.150000X-0.587500X-0.150000X0.587500X-0.150000X0*%
%ADD28RoundRect,0.200000X-0.275000X0.200000X-0.275000X-0.200000X0.275000X-0.200000X0.275000X0.200000X0*%
%ADD29RoundRect,0.225000X0.250000X-0.225000X0.250000X0.225000X-0.250000X0.225000X-0.250000X-0.225000X0*%
%ADD30R,1.300000X1.550000*%
G04 APERTURE END LIST*
D10*
X142454380Y-115506476D02*
X142454380Y-115982666D01*
X142930571Y-116030285D01*
X142882952Y-115982666D01*
X142835333Y-115887428D01*
X142835333Y-115649333D01*
X142882952Y-115554095D01*
X142930571Y-115506476D01*
X143025809Y-115458857D01*
X143263904Y-115458857D01*
X143359142Y-115506476D01*
X143406761Y-115554095D01*
X143454380Y-115649333D01*
X143454380Y-115887428D01*
X143406761Y-115982666D01*
X143359142Y-116030285D01*
X142454380Y-115173142D02*
X143454380Y-114839809D01*
X142454380Y-114506476D01*
D11*
X124672648Y-108513428D02*
X124750029Y-108656285D01*
X124636934Y-108799142D01*
X124559553Y-108656285D01*
X124672648Y-108513428D01*
X124636934Y-108799142D01*
X124779791Y-107656285D02*
X124898839Y-105942000D01*
X125011934Y-105799142D01*
X125089315Y-105942000D01*
X124779791Y-107656285D01*
X125011934Y-105799142D01*
X126452410Y-107227714D02*
X125785744Y-107227714D01*
X125589315Y-108799142D02*
X125964315Y-105799142D01*
X126916696Y-105799142D01*
X127315505Y-107942000D02*
X128267886Y-107942000D01*
X127017886Y-108799142D02*
X128059553Y-105799142D01*
X128351220Y-108799142D01*
X129017886Y-108799142D02*
X129392886Y-105799142D01*
X130160744Y-108799142D01*
X130535744Y-105799142D01*
X132291696Y-108513428D02*
X132178601Y-108656285D01*
X131875029Y-108799142D01*
X131684553Y-108799142D01*
X131416696Y-108656285D01*
X131261934Y-108370571D01*
X131202410Y-108084857D01*
X131178601Y-107513428D01*
X131232172Y-107084857D01*
X131398839Y-106513428D01*
X131529791Y-106227714D01*
X131755982Y-105942000D01*
X132059553Y-105799142D01*
X132250029Y-105799142D01*
X132517886Y-105942000D01*
X132595267Y-106084857D01*
X133672648Y-107370571D02*
X133494077Y-108799142D01*
X133202410Y-105799142D02*
X133672648Y-107370571D01*
X134535744Y-105799142D01*
D10*
X141173238Y-117151142D02*
X141782761Y-117151142D01*
X141478000Y-117455904D02*
X141478000Y-116846380D01*
X130759238Y-65589142D02*
X131368761Y-65589142D01*
X142951238Y-65589142D02*
X143560761Y-65589142D01*
X143256000Y-65893904D02*
X143256000Y-65284380D01*
X125679238Y-65589142D02*
X126288761Y-65589142D01*
X121945428Y-65855809D02*
X122059714Y-65893904D01*
X122250190Y-65893904D01*
X122326380Y-65855809D01*
X122364476Y-65817714D01*
X122402571Y-65741523D01*
X122402571Y-65665333D01*
X122364476Y-65589142D01*
X122326380Y-65551047D01*
X122250190Y-65512952D01*
X122097809Y-65474857D01*
X122021619Y-65436761D01*
X121983523Y-65398666D01*
X121945428Y-65322476D01*
X121945428Y-65246285D01*
X121983523Y-65170095D01*
X122021619Y-65132000D01*
X122097809Y-65093904D01*
X122288285Y-65093904D01*
X122402571Y-65132000D01*
X137485523Y-70556380D02*
X137152190Y-70080190D01*
X136914095Y-70556380D02*
X136914095Y-69556380D01*
X137295047Y-69556380D01*
X137390285Y-69604000D01*
X137437904Y-69651619D01*
X137485523Y-69746857D01*
X137485523Y-69889714D01*
X137437904Y-69984952D01*
X137390285Y-70032571D01*
X137295047Y-70080190D01*
X136914095Y-70080190D01*
X137866476Y-70270666D02*
X138342666Y-70270666D01*
X137771238Y-70556380D02*
X138104571Y-69556380D01*
X138437904Y-70556380D01*
X138676000Y-69556380D02*
X138914095Y-70556380D01*
X139104571Y-69842095D01*
X139295047Y-70556380D01*
X139533142Y-69556380D01*
X144983238Y-65589142D02*
X145592761Y-65589142D01*
X120834095Y-70859809D02*
X120186476Y-70859809D01*
X120110285Y-70897904D01*
X120072190Y-70936000D01*
X120034095Y-71012190D01*
X120034095Y-71164571D01*
X120072190Y-71240761D01*
X120110285Y-71278857D01*
X120186476Y-71316952D01*
X120834095Y-71316952D01*
X120262666Y-71659809D02*
X120262666Y-72040761D01*
X120034095Y-71583619D02*
X120834095Y-71850285D01*
X120034095Y-72116952D01*
X120034095Y-72840761D02*
X120415047Y-72574095D01*
X120034095Y-72383619D02*
X120834095Y-72383619D01*
X120834095Y-72688380D01*
X120796000Y-72764571D01*
X120757904Y-72802666D01*
X120681714Y-72840761D01*
X120567428Y-72840761D01*
X120491238Y-72802666D01*
X120453142Y-72764571D01*
X120415047Y-72688380D01*
X120415047Y-72383619D01*
X120834095Y-73069333D02*
X120834095Y-73526476D01*
X120034095Y-73297904D02*
X120834095Y-73297904D01*
X135839238Y-65589142D02*
X136448761Y-65589142D01*
X136144000Y-65893904D02*
X136144000Y-65284380D01*
X120197619Y-65976666D02*
X121197619Y-65976666D01*
X121197619Y-66357619D01*
X121150000Y-66452857D01*
X121102380Y-66500476D01*
X121007142Y-66548095D01*
X120864285Y-66548095D01*
X120769047Y-66500476D01*
X120721428Y-66452857D01*
X120673809Y-66357619D01*
X120673809Y-65976666D01*
X120197619Y-66976666D02*
X121197619Y-66976666D01*
X121197619Y-67357619D01*
X121150000Y-67452857D01*
X121102380Y-67500476D01*
X121007142Y-67548095D01*
X120864285Y-67548095D01*
X120769047Y-67500476D01*
X120721428Y-67452857D01*
X120673809Y-67357619D01*
X120673809Y-66976666D01*
X120197619Y-67976666D02*
X121197619Y-67976666D01*
X120483333Y-68310000D01*
X121197619Y-68643333D01*
X120197619Y-68643333D01*
X127055619Y-66071904D02*
X128055619Y-66071904D01*
X127341333Y-66405238D01*
X128055619Y-66738571D01*
X127055619Y-66738571D01*
X128055619Y-67405238D02*
X128055619Y-67595714D01*
X128008000Y-67690952D01*
X127912761Y-67786190D01*
X127722285Y-67833809D01*
X127388952Y-67833809D01*
X127198476Y-67786190D01*
X127103238Y-67690952D01*
X127055619Y-67595714D01*
X127055619Y-67405238D01*
X127103238Y-67310000D01*
X127198476Y-67214761D01*
X127388952Y-67167142D01*
X127722285Y-67167142D01*
X127912761Y-67214761D01*
X128008000Y-67310000D01*
X128055619Y-67405238D01*
X128055619Y-68119523D02*
X128055619Y-68690952D01*
X127055619Y-68405238D02*
X128055619Y-68405238D01*
X145248380Y-116958857D02*
X146248380Y-116625523D01*
X145248380Y-116292190D01*
X145724571Y-115625523D02*
X145772190Y-115482666D01*
X145819809Y-115435047D01*
X145915047Y-115387428D01*
X146057904Y-115387428D01*
X146153142Y-115435047D01*
X146200761Y-115482666D01*
X146248380Y-115577904D01*
X146248380Y-115958857D01*
X145248380Y-115958857D01*
X145248380Y-115625523D01*
X145296000Y-115530285D01*
X145343619Y-115482666D01*
X145438857Y-115435047D01*
X145534095Y-115435047D01*
X145629333Y-115482666D01*
X145676952Y-115530285D01*
X145724571Y-115625523D01*
X145724571Y-115958857D01*
X145962666Y-115006476D02*
X145962666Y-114530285D01*
X146248380Y-115101714D02*
X145248380Y-114768380D01*
X146248380Y-114435047D01*
X145248380Y-114244571D02*
X145248380Y-113673142D01*
X146248380Y-113958857D02*
X145248380Y-113958857D01*
X128727238Y-65589142D02*
X129336761Y-65589142D01*
X129032000Y-65893904D02*
X129032000Y-65284380D01*
X139141238Y-117151142D02*
X139750761Y-117151142D01*
X140247619Y-65524285D02*
X140247619Y-66095714D01*
X139247619Y-65810000D02*
X140247619Y-65810000D01*
X139247619Y-66429047D02*
X140247619Y-66429047D01*
X139771428Y-66429047D02*
X139771428Y-67000476D01*
X139247619Y-67000476D02*
X140247619Y-67000476D01*
X139247619Y-68048095D02*
X139723809Y-67714761D01*
X139247619Y-67476666D02*
X140247619Y-67476666D01*
X140247619Y-67857619D01*
X140200000Y-67952857D01*
X140152380Y-68000476D01*
X140057142Y-68048095D01*
X139914285Y-68048095D01*
X139819047Y-68000476D01*
X139771428Y-67952857D01*
X139723809Y-67857619D01*
X139723809Y-67476666D01*
X140152380Y-68429047D02*
X140200000Y-68476666D01*
X140247619Y-68571904D01*
X140247619Y-68810000D01*
X140200000Y-68905238D01*
X140152380Y-68952857D01*
X140057142Y-69000476D01*
X139961904Y-69000476D01*
X139819047Y-68952857D01*
X139247619Y-68381428D01*
X139247619Y-69000476D01*
X137871238Y-65589142D02*
X138480761Y-65589142D01*
X133135619Y-65524285D02*
X133135619Y-66095714D01*
X132135619Y-65810000D02*
X133135619Y-65810000D01*
X132135619Y-66429047D02*
X133135619Y-66429047D01*
X132659428Y-66429047D02*
X132659428Y-67000476D01*
X132135619Y-67000476D02*
X133135619Y-67000476D01*
X132135619Y-68048095D02*
X132611809Y-67714761D01*
X132135619Y-67476666D02*
X133135619Y-67476666D01*
X133135619Y-67857619D01*
X133088000Y-67952857D01*
X133040380Y-68000476D01*
X132945142Y-68048095D01*
X132802285Y-68048095D01*
X132707047Y-68000476D01*
X132659428Y-67952857D01*
X132611809Y-67857619D01*
X132611809Y-67476666D01*
X132135619Y-69000476D02*
X132135619Y-68429047D01*
X132135619Y-68714761D02*
X133135619Y-68714761D01*
X132992761Y-68619523D01*
X132897523Y-68524285D01*
X132849904Y-68429047D01*
X140995428Y-65855809D02*
X141109714Y-65893904D01*
X141300190Y-65893904D01*
X141376380Y-65855809D01*
X141414476Y-65817714D01*
X141452571Y-65741523D01*
X141452571Y-65665333D01*
X141414476Y-65589142D01*
X141376380Y-65551047D01*
X141300190Y-65512952D01*
X141147809Y-65474857D01*
X141071619Y-65436761D01*
X141033523Y-65398666D01*
X140995428Y-65322476D01*
X140995428Y-65246285D01*
X141033523Y-65170095D01*
X141071619Y-65132000D01*
X141147809Y-65093904D01*
X141338285Y-65093904D01*
X141452571Y-65132000D01*
X133883428Y-65855809D02*
X133997714Y-65893904D01*
X134188190Y-65893904D01*
X134264380Y-65855809D01*
X134302476Y-65817714D01*
X134340571Y-65741523D01*
X134340571Y-65665333D01*
X134302476Y-65589142D01*
X134264380Y-65551047D01*
X134188190Y-65512952D01*
X134035809Y-65474857D01*
X133959619Y-65436761D01*
X133921523Y-65398666D01*
X133883428Y-65322476D01*
X133883428Y-65246285D01*
X133921523Y-65170095D01*
X133959619Y-65132000D01*
X134035809Y-65093904D01*
X134226285Y-65093904D01*
X134340571Y-65132000D01*
X123647238Y-65589142D02*
X124256761Y-65589142D01*
X123952000Y-65893904D02*
X123952000Y-65284380D01*
D11*
X122771226Y-110823428D02*
X122604559Y-112156761D01*
X121914083Y-110823428D02*
X121783130Y-111871047D01*
X121854559Y-112061523D01*
X122033130Y-112156761D01*
X122318845Y-112156761D01*
X122521226Y-112061523D01*
X122628369Y-111966285D01*
X125247416Y-110061523D02*
X123211702Y-112632952D01*
X125533130Y-110823428D02*
X126295035Y-110823428D01*
X125902178Y-110156761D02*
X125687892Y-111871047D01*
X125759321Y-112061523D01*
X125937892Y-112156761D01*
X126128369Y-112156761D01*
X126795035Y-112156761D02*
X127045035Y-110156761D01*
X127652178Y-112156761D02*
X127783130Y-111109142D01*
X127711702Y-110918666D01*
X127533130Y-110823428D01*
X127247416Y-110823428D01*
X127045035Y-110918666D01*
X126937892Y-111013904D01*
X129628369Y-110823428D02*
X129461702Y-112156761D01*
X128771226Y-110823428D02*
X128640273Y-111871047D01*
X128711702Y-112061523D01*
X128890273Y-112156761D01*
X129175988Y-112156761D01*
X129378369Y-112061523D01*
X129485511Y-111966285D01*
X130580750Y-110823428D02*
X130414083Y-112156761D01*
X130556940Y-111013904D02*
X130664083Y-110918666D01*
X130866464Y-110823428D01*
X131152178Y-110823428D01*
X131330750Y-110918666D01*
X131402178Y-111109142D01*
X131271226Y-112156761D01*
X132223607Y-112156761D02*
X132473607Y-110156761D01*
X132509321Y-111394857D02*
X132985511Y-112156761D01*
X133152178Y-110823428D02*
X132295035Y-111585333D01*
X134699797Y-112156761D02*
X134830750Y-111109142D01*
X134759321Y-110918666D01*
X134580750Y-110823428D01*
X134199797Y-110823428D01*
X133997416Y-110918666D01*
X134711702Y-112061523D02*
X134509321Y-112156761D01*
X134033130Y-112156761D01*
X133854559Y-112061523D01*
X133783130Y-111871047D01*
X133806940Y-111680571D01*
X133925988Y-111490095D01*
X134128369Y-111394857D01*
X134604559Y-111394857D01*
X134806940Y-111299619D01*
X135652178Y-112156761D02*
X135818845Y-110823428D01*
X135771226Y-111204380D02*
X135890273Y-111013904D01*
X135997416Y-110918666D01*
X136199797Y-110823428D01*
X136390273Y-110823428D01*
D10*
%TO.C,R1*%
X138263333Y-92146380D02*
X137930000Y-91670190D01*
X137691904Y-92146380D02*
X137691904Y-91146380D01*
X138072857Y-91146380D01*
X138168095Y-91194000D01*
X138215714Y-91241619D01*
X138263333Y-91336857D01*
X138263333Y-91479714D01*
X138215714Y-91574952D01*
X138168095Y-91622571D01*
X138072857Y-91670190D01*
X137691904Y-91670190D01*
X139215714Y-92146380D02*
X138644285Y-92146380D01*
X138930000Y-92146380D02*
X138930000Y-91146380D01*
X138834761Y-91289238D01*
X138739523Y-91384476D01*
X138644285Y-91432095D01*
%TO.C,C2*%
X144867333Y-70207142D02*
X144819714Y-70254761D01*
X144676857Y-70302380D01*
X144581619Y-70302380D01*
X144438761Y-70254761D01*
X144343523Y-70159523D01*
X144295904Y-70064285D01*
X144248285Y-69873809D01*
X144248285Y-69730952D01*
X144295904Y-69540476D01*
X144343523Y-69445238D01*
X144438761Y-69350000D01*
X144581619Y-69302380D01*
X144676857Y-69302380D01*
X144819714Y-69350000D01*
X144867333Y-69397619D01*
X145248285Y-69397619D02*
X145295904Y-69350000D01*
X145391142Y-69302380D01*
X145629238Y-69302380D01*
X145724476Y-69350000D01*
X145772095Y-69397619D01*
X145819714Y-69492857D01*
X145819714Y-69588095D01*
X145772095Y-69730952D01*
X145200666Y-70302380D01*
X145819714Y-70302380D01*
%TO.C,C5*%
X120516666Y-69881714D02*
X120478571Y-69919809D01*
X120364285Y-69957904D01*
X120288095Y-69957904D01*
X120173809Y-69919809D01*
X120097619Y-69843619D01*
X120059523Y-69767428D01*
X120021428Y-69615047D01*
X120021428Y-69500761D01*
X120059523Y-69348380D01*
X120097619Y-69272190D01*
X120173809Y-69196000D01*
X120288095Y-69157904D01*
X120364285Y-69157904D01*
X120478571Y-69196000D01*
X120516666Y-69234095D01*
X121240476Y-69157904D02*
X120859523Y-69157904D01*
X120821428Y-69538857D01*
X120859523Y-69500761D01*
X120935714Y-69462666D01*
X121126190Y-69462666D01*
X121202380Y-69500761D01*
X121240476Y-69538857D01*
X121278571Y-69615047D01*
X121278571Y-69805523D01*
X121240476Y-69881714D01*
X121202380Y-69919809D01*
X121126190Y-69957904D01*
X120935714Y-69957904D01*
X120859523Y-69919809D01*
X120821428Y-69881714D01*
%TO.C,R9*%
X122007333Y-88336380D02*
X121674000Y-87860190D01*
X121435904Y-88336380D02*
X121435904Y-87336380D01*
X121816857Y-87336380D01*
X121912095Y-87384000D01*
X121959714Y-87431619D01*
X122007333Y-87526857D01*
X122007333Y-87669714D01*
X121959714Y-87764952D01*
X121912095Y-87812571D01*
X121816857Y-87860190D01*
X121435904Y-87860190D01*
X122483523Y-88336380D02*
X122674000Y-88336380D01*
X122769238Y-88288761D01*
X122816857Y-88241142D01*
X122912095Y-88098285D01*
X122959714Y-87907809D01*
X122959714Y-87526857D01*
X122912095Y-87431619D01*
X122864476Y-87384000D01*
X122769238Y-87336380D01*
X122578761Y-87336380D01*
X122483523Y-87384000D01*
X122435904Y-87431619D01*
X122388285Y-87526857D01*
X122388285Y-87764952D01*
X122435904Y-87860190D01*
X122483523Y-87907809D01*
X122578761Y-87955428D01*
X122769238Y-87955428D01*
X122864476Y-87907809D01*
X122912095Y-87860190D01*
X122959714Y-87764952D01*
%TO.C,D3*%
X121435904Y-79826380D02*
X121435904Y-78826380D01*
X121674000Y-78826380D01*
X121816857Y-78874000D01*
X121912095Y-78969238D01*
X121959714Y-79064476D01*
X122007333Y-79254952D01*
X122007333Y-79397809D01*
X121959714Y-79588285D01*
X121912095Y-79683523D01*
X121816857Y-79778761D01*
X121674000Y-79826380D01*
X121435904Y-79826380D01*
X122340666Y-78826380D02*
X122959714Y-78826380D01*
X122626380Y-79207333D01*
X122769238Y-79207333D01*
X122864476Y-79254952D01*
X122912095Y-79302571D01*
X122959714Y-79397809D01*
X122959714Y-79635904D01*
X122912095Y-79731142D01*
X122864476Y-79778761D01*
X122769238Y-79826380D01*
X122483523Y-79826380D01*
X122388285Y-79778761D01*
X122340666Y-79731142D01*
%TO.C,C1*%
X134977142Y-70524666D02*
X135024761Y-70572285D01*
X135072380Y-70715142D01*
X135072380Y-70810380D01*
X135024761Y-70953238D01*
X134929523Y-71048476D01*
X134834285Y-71096095D01*
X134643809Y-71143714D01*
X134500952Y-71143714D01*
X134310476Y-71096095D01*
X134215238Y-71048476D01*
X134120000Y-70953238D01*
X134072380Y-70810380D01*
X134072380Y-70715142D01*
X134120000Y-70572285D01*
X134167619Y-70524666D01*
X135072380Y-69572285D02*
X135072380Y-70143714D01*
X135072380Y-69858000D02*
X134072380Y-69858000D01*
X134215238Y-69953238D01*
X134310476Y-70048476D01*
X134358095Y-70143714D01*
%TO.C,R3*%
X135913333Y-94338380D02*
X135580000Y-93862190D01*
X135341904Y-94338380D02*
X135341904Y-93338380D01*
X135722857Y-93338380D01*
X135818095Y-93386000D01*
X135865714Y-93433619D01*
X135913333Y-93528857D01*
X135913333Y-93671714D01*
X135865714Y-93766952D01*
X135818095Y-93814571D01*
X135722857Y-93862190D01*
X135341904Y-93862190D01*
X136246666Y-93338380D02*
X136865714Y-93338380D01*
X136532380Y-93719333D01*
X136675238Y-93719333D01*
X136770476Y-93766952D01*
X136818095Y-93814571D01*
X136865714Y-93909809D01*
X136865714Y-94147904D01*
X136818095Y-94243142D01*
X136770476Y-94290761D01*
X136675238Y-94338380D01*
X136389523Y-94338380D01*
X136294285Y-94290761D01*
X136246666Y-94243142D01*
%TO.C,U1*%
X135421619Y-114046095D02*
X134612095Y-114046095D01*
X134516857Y-114093714D01*
X134469238Y-114141333D01*
X134421619Y-114236571D01*
X134421619Y-114427047D01*
X134469238Y-114522285D01*
X134516857Y-114569904D01*
X134612095Y-114617523D01*
X135421619Y-114617523D01*
X134421619Y-115617523D02*
X134421619Y-115046095D01*
X134421619Y-115331809D02*
X135421619Y-115331809D01*
X135278761Y-115236571D01*
X135183523Y-115141333D01*
X135135904Y-115046095D01*
%TO.C,C4*%
X146153142Y-74334666D02*
X146200761Y-74382285D01*
X146248380Y-74525142D01*
X146248380Y-74620380D01*
X146200761Y-74763238D01*
X146105523Y-74858476D01*
X146010285Y-74906095D01*
X145819809Y-74953714D01*
X145676952Y-74953714D01*
X145486476Y-74906095D01*
X145391238Y-74858476D01*
X145296000Y-74763238D01*
X145248380Y-74620380D01*
X145248380Y-74525142D01*
X145296000Y-74382285D01*
X145343619Y-74334666D01*
X145581714Y-73477523D02*
X146248380Y-73477523D01*
X145200761Y-73715619D02*
X145915047Y-73953714D01*
X145915047Y-73334666D01*
%TO.C, *%
%TO.C,C8*%
X146059142Y-98972666D02*
X146106761Y-99020285D01*
X146154380Y-99163142D01*
X146154380Y-99258380D01*
X146106761Y-99401238D01*
X146011523Y-99496476D01*
X145916285Y-99544095D01*
X145725809Y-99591714D01*
X145582952Y-99591714D01*
X145392476Y-99544095D01*
X145297238Y-99496476D01*
X145202000Y-99401238D01*
X145154380Y-99258380D01*
X145154380Y-99163142D01*
X145202000Y-99020285D01*
X145249619Y-98972666D01*
X145582952Y-98401238D02*
X145535333Y-98496476D01*
X145487714Y-98544095D01*
X145392476Y-98591714D01*
X145344857Y-98591714D01*
X145249619Y-98544095D01*
X145202000Y-98496476D01*
X145154380Y-98401238D01*
X145154380Y-98210761D01*
X145202000Y-98115523D01*
X145249619Y-98067904D01*
X145344857Y-98020285D01*
X145392476Y-98020285D01*
X145487714Y-98067904D01*
X145535333Y-98115523D01*
X145582952Y-98210761D01*
X145582952Y-98401238D01*
X145630571Y-98496476D01*
X145678190Y-98544095D01*
X145773428Y-98591714D01*
X145963904Y-98591714D01*
X146059142Y-98544095D01*
X146106761Y-98496476D01*
X146154380Y-98401238D01*
X146154380Y-98210761D01*
X146106761Y-98115523D01*
X146059142Y-98067904D01*
X145963904Y-98020285D01*
X145773428Y-98020285D01*
X145678190Y-98067904D01*
X145630571Y-98115523D01*
X145582952Y-98210761D01*
%TO.C,R2*%
X134453333Y-89098380D02*
X134120000Y-88622190D01*
X133881904Y-89098380D02*
X133881904Y-88098380D01*
X134262857Y-88098380D01*
X134358095Y-88146000D01*
X134405714Y-88193619D01*
X134453333Y-88288857D01*
X134453333Y-88431714D01*
X134405714Y-88526952D01*
X134358095Y-88574571D01*
X134262857Y-88622190D01*
X133881904Y-88622190D01*
X134834285Y-88193619D02*
X134881904Y-88146000D01*
X134977142Y-88098380D01*
X135215238Y-88098380D01*
X135310476Y-88146000D01*
X135358095Y-88193619D01*
X135405714Y-88288857D01*
X135405714Y-88384095D01*
X135358095Y-88526952D01*
X134786666Y-89098380D01*
X135405714Y-89098380D01*
%TO.C,D1*%
X130833904Y-94813380D02*
X130833904Y-93813380D01*
X131072000Y-93813380D01*
X131214857Y-93861000D01*
X131310095Y-93956238D01*
X131357714Y-94051476D01*
X131405333Y-94241952D01*
X131405333Y-94384809D01*
X131357714Y-94575285D01*
X131310095Y-94670523D01*
X131214857Y-94765761D01*
X131072000Y-94813380D01*
X130833904Y-94813380D01*
X132357714Y-94813380D02*
X131786285Y-94813380D01*
X132072000Y-94813380D02*
X132072000Y-93813380D01*
X131976761Y-93956238D01*
X131881523Y-94051476D01*
X131786285Y-94099095D01*
%TO.C,C3*%
X146153142Y-79922666D02*
X146200761Y-79970285D01*
X146248380Y-80113142D01*
X146248380Y-80208380D01*
X146200761Y-80351238D01*
X146105523Y-80446476D01*
X146010285Y-80494095D01*
X145819809Y-80541714D01*
X145676952Y-80541714D01*
X145486476Y-80494095D01*
X145391238Y-80446476D01*
X145296000Y-80351238D01*
X145248380Y-80208380D01*
X145248380Y-80113142D01*
X145296000Y-79970285D01*
X145343619Y-79922666D01*
X145248380Y-79589333D02*
X145248380Y-78970285D01*
X145629333Y-79303619D01*
X145629333Y-79160761D01*
X145676952Y-79065523D01*
X145724571Y-79017904D01*
X145819809Y-78970285D01*
X146057904Y-78970285D01*
X146153142Y-79017904D01*
X146200761Y-79065523D01*
X146248380Y-79160761D01*
X146248380Y-79446476D01*
X146200761Y-79541714D01*
X146153142Y-79589333D01*
%TO.C,J6*%
X137588666Y-114768380D02*
X137588666Y-115482666D01*
X137541047Y-115625523D01*
X137445809Y-115720761D01*
X137302952Y-115768380D01*
X137207714Y-115768380D01*
X138493428Y-114768380D02*
X138302952Y-114768380D01*
X138207714Y-114816000D01*
X138160095Y-114863619D01*
X138064857Y-115006476D01*
X138017238Y-115196952D01*
X138017238Y-115577904D01*
X138064857Y-115673142D01*
X138112476Y-115720761D01*
X138207714Y-115768380D01*
X138398190Y-115768380D01*
X138493428Y-115720761D01*
X138541047Y-115673142D01*
X138588666Y-115577904D01*
X138588666Y-115339809D01*
X138541047Y-115244571D01*
X138493428Y-115196952D01*
X138398190Y-115149333D01*
X138207714Y-115149333D01*
X138112476Y-115196952D01*
X138064857Y-115244571D01*
X138017238Y-115339809D01*
%TO.C,R5*%
X131151333Y-89098380D02*
X130818000Y-88622190D01*
X130579904Y-89098380D02*
X130579904Y-88098380D01*
X130960857Y-88098380D01*
X131056095Y-88146000D01*
X131103714Y-88193619D01*
X131151333Y-88288857D01*
X131151333Y-88431714D01*
X131103714Y-88526952D01*
X131056095Y-88574571D01*
X130960857Y-88622190D01*
X130579904Y-88622190D01*
X132056095Y-88098380D02*
X131579904Y-88098380D01*
X131532285Y-88574571D01*
X131579904Y-88526952D01*
X131675142Y-88479333D01*
X131913238Y-88479333D01*
X132008476Y-88526952D01*
X132056095Y-88574571D01*
X132103714Y-88669809D01*
X132103714Y-88907904D01*
X132056095Y-89003142D01*
X132008476Y-89050761D01*
X131913238Y-89098380D01*
X131675142Y-89098380D01*
X131579904Y-89050761D01*
X131532285Y-89003142D01*
%TO.C,J9*%
X139924666Y-76922380D02*
X139924666Y-77636666D01*
X139877047Y-77779523D01*
X139781809Y-77874761D01*
X139638952Y-77922380D01*
X139543714Y-77922380D01*
X140448476Y-77922380D02*
X140638952Y-77922380D01*
X140734190Y-77874761D01*
X140781809Y-77827142D01*
X140877047Y-77684285D01*
X140924666Y-77493809D01*
X140924666Y-77112857D01*
X140877047Y-77017619D01*
X140829428Y-76970000D01*
X140734190Y-76922380D01*
X140543714Y-76922380D01*
X140448476Y-76970000D01*
X140400857Y-77017619D01*
X140353238Y-77112857D01*
X140353238Y-77350952D01*
X140400857Y-77446190D01*
X140448476Y-77493809D01*
X140543714Y-77541428D01*
X140734190Y-77541428D01*
X140829428Y-77493809D01*
X140877047Y-77446190D01*
X140924666Y-77350952D01*
%TO.C,D4*%
X121435904Y-86685380D02*
X121435904Y-85685380D01*
X121674000Y-85685380D01*
X121816857Y-85733000D01*
X121912095Y-85828238D01*
X121959714Y-85923476D01*
X122007333Y-86113952D01*
X122007333Y-86256809D01*
X121959714Y-86447285D01*
X121912095Y-86542523D01*
X121816857Y-86637761D01*
X121674000Y-86685380D01*
X121435904Y-86685380D01*
X122864476Y-86018714D02*
X122864476Y-86685380D01*
X122626380Y-85637761D02*
X122388285Y-86352047D01*
X123007333Y-86352047D01*
%TO.C,R10*%
X121531142Y-95034380D02*
X121197809Y-94558190D01*
X120959714Y-95034380D02*
X120959714Y-94034380D01*
X121340666Y-94034380D01*
X121435904Y-94082000D01*
X121483523Y-94129619D01*
X121531142Y-94224857D01*
X121531142Y-94367714D01*
X121483523Y-94462952D01*
X121435904Y-94510571D01*
X121340666Y-94558190D01*
X120959714Y-94558190D01*
X122483523Y-95034380D02*
X121912095Y-95034380D01*
X122197809Y-95034380D02*
X122197809Y-94034380D01*
X122102571Y-94177238D01*
X122007333Y-94272476D01*
X121912095Y-94320095D01*
X123102571Y-94034380D02*
X123197809Y-94034380D01*
X123293047Y-94082000D01*
X123340666Y-94129619D01*
X123388285Y-94224857D01*
X123435904Y-94415333D01*
X123435904Y-94653428D01*
X123388285Y-94843904D01*
X123340666Y-94939142D01*
X123293047Y-94986761D01*
X123197809Y-95034380D01*
X123102571Y-95034380D01*
X123007333Y-94986761D01*
X122959714Y-94939142D01*
X122912095Y-94843904D01*
X122864476Y-94653428D01*
X122864476Y-94415333D01*
X122912095Y-94224857D01*
X122959714Y-94129619D01*
X123007333Y-94082000D01*
X123102571Y-94034380D01*
%TO.C,C6*%
X140549333Y-102211142D02*
X140501714Y-102258761D01*
X140358857Y-102306380D01*
X140263619Y-102306380D01*
X140120761Y-102258761D01*
X140025523Y-102163523D01*
X139977904Y-102068285D01*
X139930285Y-101877809D01*
X139930285Y-101734952D01*
X139977904Y-101544476D01*
X140025523Y-101449238D01*
X140120761Y-101354000D01*
X140263619Y-101306380D01*
X140358857Y-101306380D01*
X140501714Y-101354000D01*
X140549333Y-101401619D01*
X141406476Y-101306380D02*
X141216000Y-101306380D01*
X141120761Y-101354000D01*
X141073142Y-101401619D01*
X140977904Y-101544476D01*
X140930285Y-101734952D01*
X140930285Y-102115904D01*
X140977904Y-102211142D01*
X141025523Y-102258761D01*
X141120761Y-102306380D01*
X141311238Y-102306380D01*
X141406476Y-102258761D01*
X141454095Y-102211142D01*
X141501714Y-102115904D01*
X141501714Y-101877809D01*
X141454095Y-101782571D01*
X141406476Y-101734952D01*
X141311238Y-101687333D01*
X141120761Y-101687333D01*
X141025523Y-101734952D01*
X140977904Y-101782571D01*
X140930285Y-101877809D01*
%TO.C,R11*%
X138120380Y-73794857D02*
X137644190Y-74128190D01*
X138120380Y-74366285D02*
X137120380Y-74366285D01*
X137120380Y-73985333D01*
X137168000Y-73890095D01*
X137215619Y-73842476D01*
X137310857Y-73794857D01*
X137453714Y-73794857D01*
X137548952Y-73842476D01*
X137596571Y-73890095D01*
X137644190Y-73985333D01*
X137644190Y-74366285D01*
X138120380Y-72842476D02*
X138120380Y-73413904D01*
X138120380Y-73128190D02*
X137120380Y-73128190D01*
X137263238Y-73223428D01*
X137358476Y-73318666D01*
X137406095Y-73413904D01*
X138120380Y-71890095D02*
X138120380Y-72461523D01*
X138120380Y-72175809D02*
X137120380Y-72175809D01*
X137263238Y-72271047D01*
X137358476Y-72366285D01*
X137406095Y-72461523D01*
%TO.C,Q1*%
X133254761Y-83732619D02*
X133159523Y-83685000D01*
X133064285Y-83589761D01*
X132921428Y-83446904D01*
X132826190Y-83399285D01*
X132730952Y-83399285D01*
X132778571Y-83637380D02*
X132683333Y-83589761D01*
X132588095Y-83494523D01*
X132540476Y-83304047D01*
X132540476Y-82970714D01*
X132588095Y-82780238D01*
X132683333Y-82685000D01*
X132778571Y-82637380D01*
X132969047Y-82637380D01*
X133064285Y-82685000D01*
X133159523Y-82780238D01*
X133207142Y-82970714D01*
X133207142Y-83304047D01*
X133159523Y-83494523D01*
X133064285Y-83589761D01*
X132969047Y-83637380D01*
X132778571Y-83637380D01*
X134159523Y-83637380D02*
X133588095Y-83637380D01*
X133873809Y-83637380D02*
X133873809Y-82637380D01*
X133778571Y-82780238D01*
X133683333Y-82875476D01*
X133588095Y-82923095D01*
%TO.C,D2*%
X133881904Y-98242380D02*
X133881904Y-97242380D01*
X134120000Y-97242380D01*
X134262857Y-97290000D01*
X134358095Y-97385238D01*
X134405714Y-97480476D01*
X134453333Y-97670952D01*
X134453333Y-97813809D01*
X134405714Y-98004285D01*
X134358095Y-98099523D01*
X134262857Y-98194761D01*
X134120000Y-98242380D01*
X133881904Y-98242380D01*
X134834285Y-97337619D02*
X134881904Y-97290000D01*
X134977142Y-97242380D01*
X135215238Y-97242380D01*
X135310476Y-97290000D01*
X135358095Y-97337619D01*
X135405714Y-97432857D01*
X135405714Y-97528095D01*
X135358095Y-97670952D01*
X134786666Y-98242380D01*
X135405714Y-98242380D01*
%TO.C,Q3*%
X134270761Y-76607619D02*
X134175523Y-76560000D01*
X134080285Y-76464761D01*
X133937428Y-76321904D01*
X133842190Y-76274285D01*
X133746952Y-76274285D01*
X133794571Y-76512380D02*
X133699333Y-76464761D01*
X133604095Y-76369523D01*
X133556476Y-76179047D01*
X133556476Y-75845714D01*
X133604095Y-75655238D01*
X133699333Y-75560000D01*
X133794571Y-75512380D01*
X133985047Y-75512380D01*
X134080285Y-75560000D01*
X134175523Y-75655238D01*
X134223142Y-75845714D01*
X134223142Y-76179047D01*
X134175523Y-76369523D01*
X134080285Y-76464761D01*
X133985047Y-76512380D01*
X133794571Y-76512380D01*
X134556476Y-75512380D02*
X135175523Y-75512380D01*
X134842190Y-75893333D01*
X134985047Y-75893333D01*
X135080285Y-75940952D01*
X135127904Y-75988571D01*
X135175523Y-76083809D01*
X135175523Y-76321904D01*
X135127904Y-76417142D01*
X135080285Y-76464761D01*
X134985047Y-76512380D01*
X134699333Y-76512380D01*
X134604095Y-76464761D01*
X134556476Y-76417142D01*
%TO.C,R13*%
X146248380Y-83700857D02*
X145772190Y-84034190D01*
X146248380Y-84272285D02*
X145248380Y-84272285D01*
X145248380Y-83891333D01*
X145296000Y-83796095D01*
X145343619Y-83748476D01*
X145438857Y-83700857D01*
X145581714Y-83700857D01*
X145676952Y-83748476D01*
X145724571Y-83796095D01*
X145772190Y-83891333D01*
X145772190Y-84272285D01*
X146248380Y-82748476D02*
X146248380Y-83319904D01*
X146248380Y-83034190D02*
X145248380Y-83034190D01*
X145391238Y-83129428D01*
X145486476Y-83224666D01*
X145534095Y-83319904D01*
X145248380Y-82415142D02*
X145248380Y-81796095D01*
X145629333Y-82129428D01*
X145629333Y-81986571D01*
X145676952Y-81891333D01*
X145724571Y-81843714D01*
X145819809Y-81796095D01*
X146057904Y-81796095D01*
X146153142Y-81843714D01*
X146200761Y-81891333D01*
X146248380Y-81986571D01*
X146248380Y-82272285D01*
X146200761Y-82367523D01*
X146153142Y-82415142D01*
%TO.C,D6*%
X121357404Y-100274380D02*
X121357404Y-99274380D01*
X121595500Y-99274380D01*
X121738357Y-99322000D01*
X121833595Y-99417238D01*
X121881214Y-99512476D01*
X121928833Y-99702952D01*
X121928833Y-99845809D01*
X121881214Y-100036285D01*
X121833595Y-100131523D01*
X121738357Y-100226761D01*
X121595500Y-100274380D01*
X121357404Y-100274380D01*
X122785976Y-99274380D02*
X122595500Y-99274380D01*
X122500261Y-99322000D01*
X122452642Y-99369619D01*
X122357404Y-99512476D01*
X122309785Y-99702952D01*
X122309785Y-100083904D01*
X122357404Y-100179142D01*
X122405023Y-100226761D01*
X122500261Y-100274380D01*
X122690738Y-100274380D01*
X122785976Y-100226761D01*
X122833595Y-100179142D01*
X122881214Y-100083904D01*
X122881214Y-99845809D01*
X122833595Y-99750571D01*
X122785976Y-99702952D01*
X122690738Y-99655333D01*
X122500261Y-99655333D01*
X122405023Y-99702952D01*
X122357404Y-99750571D01*
X122309785Y-99845809D01*
%TO.C,Q2*%
X129571761Y-83605619D02*
X129476523Y-83558000D01*
X129381285Y-83462761D01*
X129238428Y-83319904D01*
X129143190Y-83272285D01*
X129047952Y-83272285D01*
X129095571Y-83510380D02*
X129000333Y-83462761D01*
X128905095Y-83367523D01*
X128857476Y-83177047D01*
X128857476Y-82843714D01*
X128905095Y-82653238D01*
X129000333Y-82558000D01*
X129095571Y-82510380D01*
X129286047Y-82510380D01*
X129381285Y-82558000D01*
X129476523Y-82653238D01*
X129524142Y-82843714D01*
X129524142Y-83177047D01*
X129476523Y-83367523D01*
X129381285Y-83462761D01*
X129286047Y-83510380D01*
X129095571Y-83510380D01*
X129905095Y-82605619D02*
X129952714Y-82558000D01*
X130047952Y-82510380D01*
X130286047Y-82510380D01*
X130381285Y-82558000D01*
X130428904Y-82605619D01*
X130476523Y-82700857D01*
X130476523Y-82796095D01*
X130428904Y-82938952D01*
X129857476Y-83510380D01*
X130476523Y-83510380D01*
%TO.C,R7*%
X122007333Y-74714380D02*
X121674000Y-74238190D01*
X121435904Y-74714380D02*
X121435904Y-73714380D01*
X121816857Y-73714380D01*
X121912095Y-73762000D01*
X121959714Y-73809619D01*
X122007333Y-73904857D01*
X122007333Y-74047714D01*
X121959714Y-74142952D01*
X121912095Y-74190571D01*
X121816857Y-74238190D01*
X121435904Y-74238190D01*
X122340666Y-73714380D02*
X123007333Y-73714380D01*
X122578761Y-74714380D01*
%TO.C,D5*%
X121435904Y-93288380D02*
X121435904Y-92288380D01*
X121674000Y-92288380D01*
X121816857Y-92336000D01*
X121912095Y-92431238D01*
X121959714Y-92526476D01*
X122007333Y-92716952D01*
X122007333Y-92859809D01*
X121959714Y-93050285D01*
X121912095Y-93145523D01*
X121816857Y-93240761D01*
X121674000Y-93288380D01*
X121435904Y-93288380D01*
X122912095Y-92288380D02*
X122435904Y-92288380D01*
X122388285Y-92764571D01*
X122435904Y-92716952D01*
X122531142Y-92669333D01*
X122769238Y-92669333D01*
X122864476Y-92716952D01*
X122912095Y-92764571D01*
X122959714Y-92859809D01*
X122959714Y-93097904D01*
X122912095Y-93193142D01*
X122864476Y-93240761D01*
X122769238Y-93288380D01*
X122531142Y-93288380D01*
X122435904Y-93240761D01*
X122388285Y-93193142D01*
%TO.C,R14*%
X146248380Y-93352857D02*
X145772190Y-93686190D01*
X146248380Y-93924285D02*
X145248380Y-93924285D01*
X145248380Y-93543333D01*
X145296000Y-93448095D01*
X145343619Y-93400476D01*
X145438857Y-93352857D01*
X145581714Y-93352857D01*
X145676952Y-93400476D01*
X145724571Y-93448095D01*
X145772190Y-93543333D01*
X145772190Y-93924285D01*
X146248380Y-92400476D02*
X146248380Y-92971904D01*
X146248380Y-92686190D02*
X145248380Y-92686190D01*
X145391238Y-92781428D01*
X145486476Y-92876666D01*
X145534095Y-92971904D01*
X145581714Y-91543333D02*
X146248380Y-91543333D01*
X145200761Y-91781428D02*
X145915047Y-92019523D01*
X145915047Y-91400476D01*
%TO.C,C7*%
X137517142Y-87034666D02*
X137564761Y-87082285D01*
X137612380Y-87225142D01*
X137612380Y-87320380D01*
X137564761Y-87463238D01*
X137469523Y-87558476D01*
X137374285Y-87606095D01*
X137183809Y-87653714D01*
X137040952Y-87653714D01*
X136850476Y-87606095D01*
X136755238Y-87558476D01*
X136660000Y-87463238D01*
X136612380Y-87320380D01*
X136612380Y-87225142D01*
X136660000Y-87082285D01*
X136707619Y-87034666D01*
X136612380Y-86701333D02*
X136612380Y-86034666D01*
X137612380Y-86463238D01*
%TO.C,R8*%
X122007333Y-81318380D02*
X121674000Y-80842190D01*
X121435904Y-81318380D02*
X121435904Y-80318380D01*
X121816857Y-80318380D01*
X121912095Y-80366000D01*
X121959714Y-80413619D01*
X122007333Y-80508857D01*
X122007333Y-80651714D01*
X121959714Y-80746952D01*
X121912095Y-80794571D01*
X121816857Y-80842190D01*
X121435904Y-80842190D01*
X122578761Y-80746952D02*
X122483523Y-80699333D01*
X122435904Y-80651714D01*
X122388285Y-80556476D01*
X122388285Y-80508857D01*
X122435904Y-80413619D01*
X122483523Y-80366000D01*
X122578761Y-80318380D01*
X122769238Y-80318380D01*
X122864476Y-80366000D01*
X122912095Y-80413619D01*
X122959714Y-80508857D01*
X122959714Y-80556476D01*
X122912095Y-80651714D01*
X122864476Y-80699333D01*
X122769238Y-80746952D01*
X122578761Y-80746952D01*
X122483523Y-80794571D01*
X122435904Y-80842190D01*
X122388285Y-80937428D01*
X122388285Y-81127904D01*
X122435904Y-81223142D01*
X122483523Y-81270761D01*
X122578761Y-81318380D01*
X122769238Y-81318380D01*
X122864476Y-81270761D01*
X122912095Y-81223142D01*
X122959714Y-81127904D01*
X122959714Y-80937428D01*
X122912095Y-80842190D01*
X122864476Y-80794571D01*
X122769238Y-80746952D01*
%TO.C,R6*%
X130897333Y-97734380D02*
X130564000Y-97258190D01*
X130325904Y-97734380D02*
X130325904Y-96734380D01*
X130706857Y-96734380D01*
X130802095Y-96782000D01*
X130849714Y-96829619D01*
X130897333Y-96924857D01*
X130897333Y-97067714D01*
X130849714Y-97162952D01*
X130802095Y-97210571D01*
X130706857Y-97258190D01*
X130325904Y-97258190D01*
X131754476Y-96734380D02*
X131564000Y-96734380D01*
X131468761Y-96782000D01*
X131421142Y-96829619D01*
X131325904Y-96972476D01*
X131278285Y-97162952D01*
X131278285Y-97543904D01*
X131325904Y-97639142D01*
X131373523Y-97686761D01*
X131468761Y-97734380D01*
X131659238Y-97734380D01*
X131754476Y-97686761D01*
X131802095Y-97639142D01*
X131849714Y-97543904D01*
X131849714Y-97305809D01*
X131802095Y-97210571D01*
X131754476Y-97162952D01*
X131659238Y-97115333D01*
X131468761Y-97115333D01*
X131373523Y-97162952D01*
X131325904Y-97210571D01*
X131278285Y-97305809D01*
%TO.C,R12*%
X146248380Y-87002857D02*
X145772190Y-87336190D01*
X146248380Y-87574285D02*
X145248380Y-87574285D01*
X145248380Y-87193333D01*
X145296000Y-87098095D01*
X145343619Y-87050476D01*
X145438857Y-87002857D01*
X145581714Y-87002857D01*
X145676952Y-87050476D01*
X145724571Y-87098095D01*
X145772190Y-87193333D01*
X145772190Y-87574285D01*
X146248380Y-86050476D02*
X146248380Y-86621904D01*
X146248380Y-86336190D02*
X145248380Y-86336190D01*
X145391238Y-86431428D01*
X145486476Y-86526666D01*
X145534095Y-86621904D01*
X145343619Y-85669523D02*
X145296000Y-85621904D01*
X145248380Y-85526666D01*
X145248380Y-85288571D01*
X145296000Y-85193333D01*
X145343619Y-85145714D01*
X145438857Y-85098095D01*
X145534095Y-85098095D01*
X145676952Y-85145714D01*
X146248380Y-85717142D01*
X146248380Y-85098095D01*
%TO.C,SW1*%
X145946761Y-109283333D02*
X145994380Y-109140476D01*
X145994380Y-108902380D01*
X145946761Y-108807142D01*
X145899142Y-108759523D01*
X145803904Y-108711904D01*
X145708666Y-108711904D01*
X145613428Y-108759523D01*
X145565809Y-108807142D01*
X145518190Y-108902380D01*
X145470571Y-109092857D01*
X145422952Y-109188095D01*
X145375333Y-109235714D01*
X145280095Y-109283333D01*
X145184857Y-109283333D01*
X145089619Y-109235714D01*
X145042000Y-109188095D01*
X144994380Y-109092857D01*
X144994380Y-108854761D01*
X145042000Y-108711904D01*
X144994380Y-108378571D02*
X145994380Y-108140476D01*
X145280095Y-107950000D01*
X145994380Y-107759523D01*
X144994380Y-107521428D01*
X145994380Y-106616666D02*
X145994380Y-107188095D01*
X145994380Y-106902380D02*
X144994380Y-106902380D01*
X145137238Y-106997619D01*
X145232476Y-107092857D01*
X145280095Y-107188095D01*
D12*
%TO.C,R1*%
X137557742Y-90692500D02*
X138032258Y-90692500D01*
X137557742Y-89647500D02*
X138032258Y-89647500D01*
%TO.C,C2*%
X144893420Y-70864000D02*
X145174580Y-70864000D01*
X144893420Y-71884000D02*
X145174580Y-71884000D01*
%TO.C,C5*%
X122795420Y-69086000D02*
X123076580Y-69086000D01*
X122795420Y-70106000D02*
X123076580Y-70106000D01*
%TO.C,R9*%
X121936742Y-89676500D02*
X122411258Y-89676500D01*
X121936742Y-88631500D02*
X122411258Y-88631500D01*
%TO.C,D3*%
X123859000Y-76764000D02*
X121174000Y-76764000D01*
X123859000Y-78684000D02*
X123859000Y-76764000D01*
X121174000Y-78684000D02*
X123859000Y-78684000D01*
%TO.C,C1*%
X136654000Y-70217420D02*
X136654000Y-70498580D01*
X135634000Y-70217420D02*
X135634000Y-70498580D01*
%TO.C,J2*%
X125060000Y-72410000D02*
X125060000Y-100410000D01*
X125060000Y-100410000D02*
X127720000Y-100410000D01*
X127720000Y-72410000D02*
X127720000Y-100410000D01*
X125060000Y-72410000D02*
X127720000Y-72410000D01*
X126390000Y-69810000D02*
X127720000Y-69810000D01*
X127720000Y-69810000D02*
X127720000Y-71140000D01*
%TO.C,R3*%
X136317258Y-91933500D02*
X135842742Y-91933500D01*
X136317258Y-92978500D02*
X135842742Y-92978500D01*
%TO.C,U1*%
X112966500Y-102228000D02*
X125031500Y-102228000D01*
X119316500Y-102228000D02*
X119316500Y-117228000D01*
X136461500Y-117228000D02*
X136461500Y-116228000D01*
X119316500Y-108228000D02*
X112966500Y-104228000D01*
X119316500Y-112728000D02*
X112966500Y-108728000D01*
X136461500Y-102228000D02*
X136461500Y-103228000D01*
X119316500Y-114228000D02*
X112966500Y-110228000D01*
X119316500Y-105228000D02*
X114871500Y-102228000D01*
X135826500Y-102228000D02*
X136461500Y-102228000D01*
X119316500Y-111228000D02*
X112966500Y-107228000D01*
X119316500Y-106728000D02*
X112966500Y-102728000D01*
X135826500Y-117228000D02*
X136461500Y-117228000D01*
X119316500Y-115728000D02*
X112966500Y-111728000D01*
X116776500Y-117228000D02*
X112966500Y-114728000D01*
X112966500Y-102228000D02*
X112966500Y-117228000D01*
X119316500Y-109728000D02*
X112966500Y-105728000D01*
X119316500Y-117228000D02*
X112966500Y-113228000D01*
X119316500Y-103728000D02*
X117411500Y-102228000D01*
X112966500Y-117228000D02*
X125031500Y-117228000D01*
%TO.C,C4*%
X144782000Y-74027420D02*
X144782000Y-74308580D01*
X143762000Y-74027420D02*
X143762000Y-74308580D01*
%TO.C,J1*%
X142960000Y-72390000D02*
X142960000Y-100390000D01*
X141630000Y-69790000D02*
X142960000Y-69790000D01*
X142960000Y-69790000D02*
X142960000Y-71120000D01*
X140300000Y-72390000D02*
X140300000Y-100390000D01*
X140300000Y-100390000D02*
X142960000Y-100390000D01*
X140300000Y-72390000D02*
X142960000Y-72390000D01*
%TO.C,C8*%
X143762000Y-98665420D02*
X143762000Y-98946580D01*
X144782000Y-98665420D02*
X144782000Y-98946580D01*
%TO.C,R2*%
X134857258Y-90692500D02*
X134382742Y-90692500D01*
X134857258Y-89647500D02*
X134382742Y-89647500D01*
%TO.C,D1*%
X129576000Y-91456000D02*
X133476000Y-91456000D01*
X129576000Y-91456000D02*
X129576000Y-93456000D01*
X129576000Y-93456000D02*
X133476000Y-93456000D01*
%TO.C,C3*%
X143762000Y-79615420D02*
X143762000Y-79896580D01*
X144782000Y-79615420D02*
X144782000Y-79896580D01*
%TO.C,R5*%
X131080742Y-90692500D02*
X131555258Y-90692500D01*
X131080742Y-89647500D02*
X131555258Y-89647500D01*
%TO.C,J9*%
X137633000Y-83860000D02*
X137633000Y-82530000D01*
X138963000Y-83860000D02*
X137633000Y-83860000D01*
X140293000Y-81260000D02*
X140293000Y-78660000D01*
X140293000Y-78660000D02*
X137633000Y-78660000D01*
X140293000Y-81260000D02*
X137633000Y-81260000D01*
X137633000Y-81260000D02*
X137633000Y-78660000D01*
%TO.C,D4*%
X123859000Y-83368000D02*
X121174000Y-83368000D01*
X123859000Y-85288000D02*
X123859000Y-83368000D01*
X121174000Y-85288000D02*
X123859000Y-85288000D01*
%TO.C,R10*%
X121936742Y-96534500D02*
X122411258Y-96534500D01*
X121936742Y-95489500D02*
X122411258Y-95489500D01*
%TO.C,C6*%
X143115420Y-102364000D02*
X143396580Y-102364000D01*
X143115420Y-101344000D02*
X143396580Y-101344000D01*
%TO.C,R11*%
X138317500Y-76437258D02*
X138317500Y-75962742D01*
X137272500Y-76437258D02*
X137272500Y-75962742D01*
%TO.C,Q1*%
X135672000Y-85725000D02*
X135672000Y-86375000D01*
X132552000Y-85725000D02*
X132552000Y-87400000D01*
X135672000Y-85725000D02*
X135672000Y-85075000D01*
X132552000Y-85725000D02*
X132552000Y-85075000D01*
%TO.C,D2*%
X133005000Y-94885000D02*
X136905000Y-94885000D01*
X133005000Y-94885000D02*
X133005000Y-96885000D01*
X133005000Y-96885000D02*
X136905000Y-96885000D01*
%TO.C,Q3*%
X134874000Y-75220000D02*
X136549000Y-75220000D01*
X134874000Y-72100000D02*
X135524000Y-72100000D01*
X134874000Y-75220000D02*
X134224000Y-75220000D01*
X134874000Y-72100000D02*
X134224000Y-72100000D01*
%TO.C,R13*%
X144794500Y-83422258D02*
X144794500Y-82947742D01*
X143749500Y-83422258D02*
X143749500Y-82947742D01*
%TO.C,D6*%
X123859000Y-99004000D02*
X123859000Y-97084000D01*
X123859000Y-97084000D02*
X121174000Y-97084000D01*
X121174000Y-99004000D02*
X123859000Y-99004000D01*
%TO.C,Q2*%
X131862000Y-85725000D02*
X131862000Y-85075000D01*
X128742000Y-85725000D02*
X128742000Y-85075000D01*
X131862000Y-85725000D02*
X131862000Y-86375000D01*
X128742000Y-85725000D02*
X128742000Y-87400000D01*
%TO.C,R7*%
X121936742Y-75169500D02*
X122411258Y-75169500D01*
X121936742Y-76214500D02*
X122411258Y-76214500D01*
%TO.C,D5*%
X123859000Y-92146000D02*
X123859000Y-90226000D01*
X123859000Y-90226000D02*
X121174000Y-90226000D01*
X121174000Y-92146000D02*
X123859000Y-92146000D01*
%TO.C,R14*%
X144794500Y-92472742D02*
X144794500Y-92947258D01*
X143749500Y-92472742D02*
X143749500Y-92947258D01*
%TO.C,C7*%
X139194000Y-86754580D02*
X139194000Y-86473420D01*
X138174000Y-86754580D02*
X138174000Y-86473420D01*
%TO.C,R8*%
X121936742Y-81773500D02*
X122411258Y-81773500D01*
X121936742Y-82818500D02*
X122411258Y-82818500D01*
%TO.C,R6*%
X130826742Y-95362500D02*
X131301258Y-95362500D01*
X130826742Y-96407500D02*
X131301258Y-96407500D01*
%TO.C,R12*%
X144794500Y-86597258D02*
X144794500Y-86122742D01*
X143749500Y-86597258D02*
X143749500Y-86122742D01*
%TO.C,SW1*%
X137740000Y-111180000D02*
X137740000Y-104720000D01*
X137770000Y-111180000D02*
X137740000Y-111180000D01*
X139670000Y-111180000D02*
X142270000Y-111180000D01*
X144200000Y-104720000D02*
X144170000Y-104720000D01*
X137740000Y-104720000D02*
X137770000Y-104720000D01*
X139670000Y-104720000D02*
X142270000Y-104720000D01*
X144200000Y-111180000D02*
X144200000Y-104720000D01*
X144200000Y-111180000D02*
X144170000Y-111180000D01*
%TD*%
%LPC*%
D13*
%TO.C,R1*%
X136970000Y-90170000D03*
X138620000Y-90170000D03*
%TD*%
D14*
%TO.C,C2*%
X144259000Y-71374000D03*
X145809000Y-71374000D03*
%TD*%
%TO.C,C5*%
X122161000Y-69596000D03*
X123711000Y-69596000D03*
%TD*%
D13*
%TO.C,R9*%
X121349000Y-89154000D03*
X122999000Y-89154000D03*
%TD*%
D15*
%TO.C,D3*%
X123111500Y-77724000D03*
X121236500Y-77724000D03*
%TD*%
D16*
%TO.C,C1*%
X136144000Y-69583000D03*
X136144000Y-71133000D03*
%TD*%
D17*
%TO.C,J2*%
X126390000Y-71140000D03*
D18*
X126390000Y-73680000D03*
X126390000Y-76220000D03*
X126390000Y-78760000D03*
X126390000Y-81300000D03*
X126390000Y-83840000D03*
X126390000Y-86380000D03*
X126390000Y-88920000D03*
X126390000Y-91460000D03*
X126390000Y-94000000D03*
X126390000Y-96540000D03*
X126390000Y-99080000D03*
%TD*%
D19*
%TO.C,R3*%
X136905000Y-92456000D03*
X135255000Y-92456000D03*
%TD*%
D20*
%TO.C,U1*%
X133921500Y-102624000D03*
X132651500Y-102624000D03*
X131381500Y-102624000D03*
X130111500Y-102624000D03*
X128841500Y-102624000D03*
X127571500Y-102624000D03*
X126301500Y-102624000D03*
X126301500Y-116848000D03*
X127571500Y-116848000D03*
X128841500Y-116848000D03*
X130111500Y-116848000D03*
X131381500Y-116848000D03*
X132651500Y-116848000D03*
X133921500Y-116848000D03*
%TD*%
D16*
%TO.C,C4*%
X144272000Y-73393000D03*
X144272000Y-74943000D03*
%TD*%
D17*
%TO.C,J1*%
X141630000Y-71120000D03*
D18*
X141630000Y-73660000D03*
X141630000Y-76200000D03*
X141630000Y-78740000D03*
X141630000Y-81280000D03*
X141630000Y-83820000D03*
X141630000Y-86360000D03*
X141630000Y-88900000D03*
X141630000Y-91440000D03*
X141630000Y-93980000D03*
X141630000Y-96520000D03*
X141630000Y-99060000D03*
%TD*%
D21*
%TO.C, *%
X132080000Y-79375000D03*
%TD*%
D16*
%TO.C,C8*%
X144272000Y-98031000D03*
X144272000Y-99581000D03*
%TD*%
D19*
%TO.C,R2*%
X135445000Y-90170000D03*
X133795000Y-90170000D03*
%TD*%
D22*
%TO.C,D1*%
X130176000Y-92456000D03*
X133476000Y-92456000D03*
%TD*%
D16*
%TO.C,C3*%
X144272000Y-78981000D03*
X144272000Y-80531000D03*
%TD*%
D23*
%TO.C,J6*%
X141462000Y-115316000D03*
X139462000Y-115316000D03*
%TD*%
D13*
%TO.C,R5*%
X130493000Y-90170000D03*
X132143000Y-90170000D03*
%TD*%
D18*
%TO.C,J9*%
X138963000Y-79990000D03*
D17*
X138963000Y-82530000D03*
%TD*%
D15*
%TO.C,D4*%
X123111500Y-84328000D03*
X121236500Y-84328000D03*
%TD*%
D13*
%TO.C,R10*%
X121349000Y-96012000D03*
X122999000Y-96012000D03*
%TD*%
D14*
%TO.C,C6*%
X142481000Y-101854000D03*
X144031000Y-101854000D03*
%TD*%
D24*
%TO.C,R11*%
X137795000Y-77025000D03*
X137795000Y-75375000D03*
%TD*%
D25*
%TO.C,Q1*%
X133162000Y-86662500D03*
X135062000Y-86662500D03*
X134112000Y-84787500D03*
%TD*%
D26*
%TO.C,J3*%
X134250000Y-67310000D03*
X136250000Y-67310000D03*
X138176000Y-67310000D03*
%TD*%
D22*
%TO.C,D2*%
X133605000Y-95885000D03*
X136905000Y-95885000D03*
%TD*%
D27*
%TO.C,Q3*%
X135811500Y-74610000D03*
X135811500Y-72710000D03*
X133936500Y-73660000D03*
%TD*%
D24*
%TO.C,R13*%
X144272000Y-84010000D03*
X144272000Y-82360000D03*
%TD*%
D15*
%TO.C,D6*%
X123111500Y-98044000D03*
X121236500Y-98044000D03*
%TD*%
D26*
%TO.C,J8*%
X129048000Y-67310000D03*
X131048000Y-67310000D03*
%TD*%
%TO.C,J4*%
X141362000Y-67310000D03*
X143362000Y-67310000D03*
X145288000Y-67310000D03*
%TD*%
D25*
%TO.C,Q2*%
X129352000Y-86662500D03*
X131252000Y-86662500D03*
X130302000Y-84787500D03*
%TD*%
D13*
%TO.C,R7*%
X121349000Y-75692000D03*
X122999000Y-75692000D03*
%TD*%
D15*
%TO.C,D5*%
X123111500Y-91186000D03*
X121236500Y-91186000D03*
%TD*%
D28*
%TO.C,R14*%
X144272000Y-91885000D03*
X144272000Y-93535000D03*
%TD*%
D23*
%TO.C,J7*%
X144272000Y-115316000D03*
%TD*%
D29*
%TO.C,C7*%
X138684000Y-87389000D03*
X138684000Y-85839000D03*
%TD*%
D26*
%TO.C,J5*%
X122058000Y-67310000D03*
X124058000Y-67310000D03*
X125984000Y-67310000D03*
%TD*%
D13*
%TO.C,R8*%
X121349000Y-82296000D03*
X122999000Y-82296000D03*
%TD*%
%TO.C,R6*%
X130239000Y-95885000D03*
X131889000Y-95885000D03*
%TD*%
D26*
%TO.C,J10*%
X121682000Y-72136000D03*
X123682000Y-72136000D03*
%TD*%
D24*
%TO.C,R12*%
X144272000Y-87185000D03*
X144272000Y-85535000D03*
%TD*%
D30*
%TO.C,SW1*%
X138720000Y-111930000D03*
X138720000Y-103970000D03*
X143220000Y-111930000D03*
X143220000Y-103970000D03*
%TD*%
M02*
