%TF.GenerationSoftware,KiCad,Pcbnew,6.0.2-378541a8eb~116~ubuntu20.04.1*%
%TF.CreationDate,2022-02-27T19:25:48+01:00*%
%TF.ProjectId,unfancyRemote,756e6661-6e63-4795-9265-6d6f74652e6b,rev?*%
%TF.SameCoordinates,Original*%
%TF.FileFunction,Copper,L1,Top*%
%TF.FilePolarity,Positive*%
%FSLAX46Y46*%
G04 Gerber Fmt 4.6, Leading zero omitted, Abs format (unit mm)*
G04 Created by KiCad (PCBNEW 6.0.2-378541a8eb~116~ubuntu20.04.1) date 2022-02-27 19:25:48*
%MOMM*%
%LPD*%
G01*
G04 APERTURE LIST*
G04 Aperture macros list*
%AMRoundRect*
0 Rectangle with rounded corners*
0 $1 Rounding radius*
0 $2 $3 $4 $5 $6 $7 $8 $9 X,Y pos of 4 corners*
0 Add a 4 corners polygon primitive as box body*
4,1,4,$2,$3,$4,$5,$6,$7,$8,$9,$2,$3,0*
0 Add four circle primitives for the rounded corners*
1,1,$1+$1,$2,$3*
1,1,$1+$1,$4,$5*
1,1,$1+$1,$6,$7*
1,1,$1+$1,$8,$9*
0 Add four rect primitives between the rounded corners*
20,1,$1+$1,$2,$3,$4,$5,0*
20,1,$1+$1,$4,$5,$6,$7,0*
20,1,$1+$1,$6,$7,$8,$9,0*
20,1,$1+$1,$8,$9,$2,$3,0*%
G04 Aperture macros list end*
%TA.AperFunction,SMDPad,CuDef*%
%ADD10RoundRect,0.200000X-0.200000X-0.275000X0.200000X-0.275000X0.200000X0.275000X-0.200000X0.275000X0*%
%TD*%
%TA.AperFunction,SMDPad,CuDef*%
%ADD11RoundRect,0.200000X-0.275000X0.200000X-0.275000X-0.200000X0.275000X-0.200000X0.275000X0.200000X0*%
%TD*%
%TA.AperFunction,SMDPad,CuDef*%
%ADD12RoundRect,0.200000X0.200000X0.275000X-0.200000X0.275000X-0.200000X-0.275000X0.200000X-0.275000X0*%
%TD*%
%TA.AperFunction,SMDPad,CuDef*%
%ADD13RoundRect,0.225000X0.250000X-0.225000X0.250000X0.225000X-0.250000X0.225000X-0.250000X-0.225000X0*%
%TD*%
%TA.AperFunction,SMDPad,CuDef*%
%ADD14RoundRect,0.225000X-0.250000X0.225000X-0.250000X-0.225000X0.250000X-0.225000X0.250000X0.225000X0*%
%TD*%
%TA.AperFunction,SMDPad,CuDef*%
%ADD15RoundRect,0.225000X-0.225000X-0.250000X0.225000X-0.250000X0.225000X0.250000X-0.225000X0.250000X0*%
%TD*%
%TA.AperFunction,SMDPad,CuDef*%
%ADD16RoundRect,0.243750X0.243750X0.456250X-0.243750X0.456250X-0.243750X-0.456250X0.243750X-0.456250X0*%
%TD*%
%TA.AperFunction,ComponentPad*%
%ADD17R,1.700000X1.700000*%
%TD*%
%TA.AperFunction,ComponentPad*%
%ADD18O,1.700000X1.700000*%
%TD*%
%TA.AperFunction,SMDPad,CuDef*%
%ADD19R,0.800000X1.000000*%
%TD*%
%TA.AperFunction,SMDPad,CuDef*%
%ADD20R,0.900000X1.200000*%
%TD*%
%TA.AperFunction,ComponentPad*%
%ADD21RoundRect,0.250000X0.350000X0.625000X-0.350000X0.625000X-0.350000X-0.625000X0.350000X-0.625000X0*%
%TD*%
%TA.AperFunction,ComponentPad*%
%ADD22O,1.200000X1.750000*%
%TD*%
%TA.AperFunction,SMDPad,CuDef*%
%ADD23RoundRect,0.150000X0.150000X-0.587500X0.150000X0.587500X-0.150000X0.587500X-0.150000X-0.587500X0*%
%TD*%
%TA.AperFunction,ComponentPad*%
%ADD24RoundRect,0.250000X-0.350000X-0.625000X0.350000X-0.625000X0.350000X0.625000X-0.350000X0.625000X0*%
%TD*%
%TA.AperFunction,SMDPad,CuDef*%
%ADD25R,1.550000X1.300000*%
%TD*%
%TA.AperFunction,ViaPad*%
%ADD26C,0.800000*%
%TD*%
%TA.AperFunction,Conductor*%
%ADD27C,0.250000*%
%TD*%
G04 APERTURE END LIST*
D10*
%TO.P,R10,1*%
%TO.N,Net-(D6-Pad2)*%
X119825000Y-94615000D03*
%TO.P,R10,2*%
%TO.N,L4*%
X121475000Y-94615000D03*
%TD*%
%TO.P,R9,1*%
%TO.N,Net-(D5-Pad2)*%
X119825000Y-87630000D03*
%TO.P,R9,2*%
%TO.N,L3*%
X121475000Y-87630000D03*
%TD*%
%TO.P,R8,1*%
%TO.N,Net-(D4-Pad2)*%
X119825000Y-81280000D03*
%TO.P,R8,2*%
%TO.N,L2*%
X121475000Y-81280000D03*
%TD*%
%TO.P,R7,1*%
%TO.N,Net-(D3-Pad2)*%
X119825000Y-74930000D03*
%TO.P,R7,2*%
%TO.N,PPM*%
X121475000Y-74930000D03*
%TD*%
D11*
%TO.P,R6,1*%
%TO.N,Net-(D1-Pad1)*%
X128731250Y-95060000D03*
%TO.P,R6,2*%
%TO.N,Net-(D2-Pad1)*%
X128731250Y-96710000D03*
%TD*%
D10*
%TO.P,R5,1*%
%TO.N,Net-(D1-Pad1)*%
X129350000Y-91440000D03*
%TO.P,R5,2*%
%TO.N,GND*%
X131000000Y-91440000D03*
%TD*%
D12*
%TO.P,R3,1*%
%TO.N,BSENSE*%
X137176250Y-93980000D03*
%TO.P,R3,2*%
%TO.N,Net-(D1-Pad2)*%
X135526250Y-93980000D03*
%TD*%
%TO.P,R2,2*%
%TO.N,Net-(Q1-Pad1)*%
X135065000Y-91440000D03*
%TO.P,R2,1*%
%TO.N,VBAT*%
X136715000Y-91440000D03*
%TD*%
%TO.P,R1,1*%
%TO.N,BSENSE*%
X139890000Y-90805000D03*
%TO.P,R1,2*%
%TO.N,GND*%
X138240000Y-90805000D03*
%TD*%
D13*
%TO.P,C7,1*%
%TO.N,VBAT*%
X139065000Y-89040000D03*
%TO.P,C7,2*%
%TO.N,GND*%
X139065000Y-87490000D03*
%TD*%
D14*
%TO.P,C6,1*%
%TO.N,VBAT*%
X146685000Y-117335000D03*
%TO.P,C6,2*%
%TO.N,GND*%
X146685000Y-118885000D03*
%TD*%
%TO.P,C5,1*%
%TO.N,+5V*%
X123190000Y-67170000D03*
%TO.P,C5,2*%
%TO.N,GND*%
X123190000Y-68720000D03*
%TD*%
D15*
%TO.P,C4,1*%
%TO.N,+5V*%
X145275000Y-72390000D03*
%TO.P,C4,2*%
%TO.N,GND*%
X146825000Y-72390000D03*
%TD*%
%TO.P,C3,1*%
%TO.N,+3V3*%
X145275000Y-80010000D03*
%TO.P,C3,2*%
%TO.N,GND*%
X146825000Y-80010000D03*
%TD*%
D14*
%TO.P,C2,1*%
%TO.N,+3V3*%
X143510000Y-67170000D03*
%TO.P,C2,2*%
%TO.N,GND*%
X143510000Y-68720000D03*
%TD*%
%TO.P,C1,1*%
%TO.N,+3V3*%
X133350000Y-67170000D03*
%TO.P,C1,2*%
%TO.N,GND*%
X133350000Y-68720000D03*
%TD*%
D16*
%TO.P,D3,1,K*%
%TO.N,GND*%
X121587500Y-76835000D03*
%TO.P,D3,2,A*%
%TO.N,Net-(D3-Pad2)*%
X119712500Y-76835000D03*
%TD*%
D17*
%TO.P,J2,1,TX0*%
%TO.N,unconnected-(J2-Pad1)*%
X124946250Y-72410000D03*
D18*
%TO.P,J2,2,RX0*%
%TO.N,unconnected-(J2-Pad2)*%
X124946250Y-74950000D03*
%TO.P,J2,3,RST*%
%TO.N,unconnected-(J2-Pad3)*%
X124946250Y-77490000D03*
%TO.P,J2,4,GND*%
%TO.N,GND*%
X124946250Y-80030000D03*
%TO.P,J2,5,2*%
%TO.N,PPM*%
X124946250Y-82570000D03*
%TO.P,J2,6,3*%
%TO.N,L2*%
X124946250Y-85110000D03*
%TO.P,J2,7,4*%
%TO.N,L3*%
X124946250Y-87650000D03*
%TO.P,J2,8,5*%
%TO.N,L4*%
X124946250Y-90190000D03*
%TO.P,J2,9,6*%
%TO.N,/DIO1*%
X124946250Y-92730000D03*
%TO.P,J2,10,7*%
%TO.N,/NSS*%
X124946250Y-95270000D03*
%TO.P,J2,11,8*%
%TO.N,/NRESET*%
X124946250Y-97810000D03*
%TO.P,J2,12,9*%
%TO.N,/RFBUSY*%
X124946250Y-100350000D03*
%TD*%
D19*
%TO.P,U1,1,VCC*%
%TO.N,+3V3*%
X132397500Y-104760000D03*
%TO.P,U1,2,GND*%
%TO.N,GND*%
X131127500Y-104760000D03*
%TO.P,U1,3,MISO_TX*%
%TO.N,/MISO*%
X129857500Y-104760000D03*
%TO.P,U1,4,MOSI_RX*%
%TO.N,/MOSI*%
X128587500Y-104760000D03*
%TO.P,U1,5,SCK_RTSN*%
%TO.N,/SCK*%
X127317500Y-104760000D03*
%TO.P,U1,6,NSS_CTS*%
%TO.N,/NSS*%
X126047500Y-104760000D03*
%TO.P,U1,7,GND*%
%TO.N,GND*%
X124777500Y-104760000D03*
%TO.P,U1,8,GND*%
X124777500Y-118760000D03*
%TO.P,U1,9,NRESET*%
%TO.N,/NRESET*%
X126047500Y-118760000D03*
%TO.P,U1,10,BUSY*%
%TO.N,/RFBUSY*%
X127317500Y-118760000D03*
%TO.P,U1,11,DIO1*%
%TO.N,/DIO1*%
X128587500Y-118760000D03*
%TO.P,U1,12,DIO2*%
%TO.N,unconnected-(U1-Pad12)*%
X129857500Y-118760000D03*
%TO.P,U1,13,DIO3*%
%TO.N,unconnected-(U1-Pad13)*%
X131127500Y-118760000D03*
%TO.P,U1,14,GND*%
%TO.N,GND*%
X132397500Y-118760000D03*
%TD*%
D17*
%TO.P,J1,1,RAW*%
%TO.N,+5V*%
X142726250Y-72410000D03*
D18*
%TO.P,J1,2,GND*%
%TO.N,GND*%
X142726250Y-74950000D03*
%TO.P,J1,3,RST*%
%TO.N,unconnected-(J1-Pad3)*%
X142726250Y-77490000D03*
%TO.P,J1,4,VCC*%
%TO.N,+3V3*%
X142726250Y-80030000D03*
%TO.P,J1,5,A3*%
%TO.N,HALL2*%
X142726250Y-82570000D03*
%TO.P,J1,6,A2*%
%TO.N,HALL1*%
X142726250Y-85110000D03*
%TO.P,J1,7,A1*%
%TO.N,VBAT*%
X142726250Y-87650000D03*
%TO.P,J1,8,A0*%
%TO.N,BSENSE*%
X142726250Y-90190000D03*
%TO.P,J1,9,13*%
%TO.N,/SCK*%
X142726250Y-92730000D03*
%TO.P,J1,10,12*%
%TO.N,/MISO*%
X142726250Y-95270000D03*
%TO.P,J1,11,11*%
%TO.N,/MOSI*%
X142726250Y-97810000D03*
%TO.P,J1,12,10*%
%TO.N,ON*%
X142726250Y-100350000D03*
%TD*%
D20*
%TO.P,D1,1,K*%
%TO.N,Net-(D1-Pad1)*%
X130430000Y-93980000D03*
%TO.P,D1,2,A*%
%TO.N,Net-(D1-Pad2)*%
X133730000Y-93980000D03*
%TD*%
D21*
%TO.P,J6,1,Pin_1*%
%TO.N,VBAT*%
X143240000Y-117475000D03*
D22*
%TO.P,J6,2,Pin_2*%
%TO.N,GND*%
X141240000Y-117475000D03*
%TD*%
D16*
%TO.P,D4,1,K*%
%TO.N,GND*%
X121587500Y-83185000D03*
%TO.P,D4,2,A*%
%TO.N,Net-(D4-Pad2)*%
X119712500Y-83185000D03*
%TD*%
D23*
%TO.P,Q1,1,G*%
%TO.N,Net-(Q1-Pad1)*%
X134305000Y-88567500D03*
%TO.P,Q1,2,S*%
%TO.N,VBAT*%
X136205000Y-88567500D03*
%TO.P,Q1,3,D*%
%TO.N,+5V*%
X135255000Y-86692500D03*
%TD*%
D24*
%TO.P,J3,1,Pin_1*%
%TO.N,HALL1*%
X131350000Y-62950000D03*
D22*
%TO.P,J3,2,Pin_2*%
%TO.N,+3V3*%
X133350000Y-62950000D03*
%TO.P,J3,3,Pin_3*%
%TO.N,GND*%
X135350000Y-62950000D03*
%TD*%
D20*
%TO.P,D2,1,K*%
%TO.N,Net-(D2-Pad1)*%
X130430000Y-97790000D03*
%TO.P,D2,2,A*%
%TO.N,ON*%
X133730000Y-97790000D03*
%TD*%
D16*
%TO.P,D6,1,K*%
%TO.N,GND*%
X121587500Y-96520000D03*
%TO.P,D6,2,A*%
%TO.N,Net-(D6-Pad2)*%
X119712500Y-96520000D03*
%TD*%
D24*
%TO.P,J4,1,Pin_1*%
%TO.N,HALL2*%
X141510000Y-62950000D03*
D22*
%TO.P,J4,2,Pin_2*%
%TO.N,+3V3*%
X143510000Y-62950000D03*
%TO.P,J4,3,Pin_3*%
%TO.N,GND*%
X145510000Y-62950000D03*
%TD*%
D23*
%TO.P,Q2,1,B*%
%TO.N,Net-(D1-Pad1)*%
X129225000Y-88567500D03*
%TO.P,Q2,2,E*%
%TO.N,GND*%
X131125000Y-88567500D03*
%TO.P,Q2,3,C*%
%TO.N,Net-(Q1-Pad1)*%
X130175000Y-86692500D03*
%TD*%
D16*
%TO.P,D5,1,K*%
%TO.N,GND*%
X121587500Y-89535000D03*
%TO.P,D5,2,A*%
%TO.N,Net-(D5-Pad2)*%
X119712500Y-89535000D03*
%TD*%
D24*
%TO.P,J5,1,Pin_1*%
%TO.N,PPM*%
X121190000Y-62950000D03*
D22*
%TO.P,J5,2,Pin_2*%
%TO.N,+5V*%
X123190000Y-62950000D03*
%TO.P,J5,3,Pin_3*%
%TO.N,GND*%
X125190000Y-62950000D03*
%TD*%
D25*
%TO.P,SW1,1,1*%
%TO.N,BSENSE*%
X138895000Y-107605000D03*
X146855000Y-107605000D03*
%TO.P,SW1,2,2*%
%TO.N,VBAT*%
X138895000Y-112105000D03*
X146855000Y-112105000D03*
%TD*%
D26*
%TO.N,GND*%
X127635000Y-87630000D03*
X132715000Y-89535000D03*
X135890000Y-95885000D03*
X133985000Y-95885000D03*
%TO.N,+5V*%
X138891250Y-85725000D03*
X140161250Y-78740000D03*
%TO.N,GND*%
X132715000Y-91440000D03*
X119380000Y-72390000D03*
X131445000Y-85090000D03*
X132080000Y-113030000D03*
X120650000Y-117475000D03*
X128270000Y-110490000D03*
X128905000Y-72390000D03*
X144145000Y-68580000D03*
X137795000Y-68580000D03*
X133985000Y-85090000D03*
X135255000Y-68580000D03*
X120650000Y-114935000D03*
X146685000Y-95885000D03*
X137160000Y-83820000D03*
X146685000Y-104140000D03*
X128905000Y-80645000D03*
X128270000Y-107950000D03*
X146685000Y-85090000D03*
X120650000Y-100965000D03*
X140970000Y-68580000D03*
X146685000Y-88265000D03*
X128905000Y-76835000D03*
X146685000Y-81915000D03*
X128905000Y-85090000D03*
X132080000Y-107950000D03*
X121285000Y-92075000D03*
X125095000Y-68580000D03*
X119380000Y-68580000D03*
X146685000Y-100330000D03*
X119380000Y-92075000D03*
X132080000Y-110490000D03*
X120650000Y-105410000D03*
X132080000Y-114935000D03*
X120650000Y-111760000D03*
X123190000Y-114935000D03*
X127000000Y-68580000D03*
X123190000Y-117475000D03*
X146685000Y-78740000D03*
X137160000Y-71120000D03*
X146685000Y-68580000D03*
X127635000Y-90170000D03*
X120650000Y-108585000D03*
X119380000Y-79375000D03*
X146685000Y-92075000D03*
X121285000Y-85725000D03*
X139065000Y-92075000D03*
X146685000Y-75565000D03*
X119380000Y-85725000D03*
%TO.N,+3V3*%
X140161250Y-103594500D03*
%TO.N,/NSS*%
X128731250Y-97790000D03*
%TO.N,ON*%
X136986250Y-100330000D03*
X135716250Y-97790000D03*
%TO.N,VBAT*%
X138891250Y-93345000D03*
X142240000Y-112395000D03*
%TO.N,BSENSE*%
X137795000Y-106045000D03*
X137795000Y-95250000D03*
%TD*%
D27*
%TO.N,+5V*%
X142726250Y-72410000D02*
X144935000Y-72410000D01*
X144935000Y-72410000D02*
X144955000Y-72390000D01*
%TO.N,BSENSE*%
X139890000Y-90805000D02*
X139890000Y-93370864D01*
X139890000Y-93370864D02*
X138010864Y-95250000D01*
%TO.N,Net-(D1-Pad2)*%
X135526250Y-93980000D02*
X133730000Y-93980000D01*
%TO.N,BSENSE*%
X137795000Y-95250000D02*
X137795000Y-94598750D01*
X137795000Y-94598750D02*
X137176250Y-93980000D01*
%TO.N,PPM*%
X121475000Y-74930000D02*
X121190000Y-74645000D01*
X121190000Y-74645000D02*
X121190000Y-62950000D01*
X122555000Y-75565000D02*
X121920000Y-74930000D01*
X121920000Y-74930000D02*
X121475000Y-74930000D01*
%TO.N,L4*%
X121475000Y-94615000D02*
X121475000Y-93661250D01*
X121475000Y-93661250D02*
X124946250Y-90190000D01*
%TO.N,Net-(D4-Pad2)*%
X119825000Y-81280000D02*
X119825000Y-83072500D01*
X119825000Y-83072500D02*
X119712500Y-83185000D01*
%TO.N,Net-(D5-Pad2)*%
X119825000Y-87630000D02*
X119825000Y-89422500D01*
X119825000Y-89422500D02*
X119712500Y-89535000D01*
%TO.N,L3*%
X121475000Y-87630000D02*
X121495000Y-87650000D01*
X121495000Y-87650000D02*
X124946250Y-87650000D01*
%TO.N,L2*%
X123190000Y-82550000D02*
X121920000Y-81280000D01*
X121920000Y-81280000D02*
X121475000Y-81280000D01*
%TO.N,+3V3*%
X142726250Y-80030000D02*
X145255000Y-80030000D01*
X145255000Y-80030000D02*
X145275000Y-80010000D01*
%TO.N,VBAT*%
X139065000Y-89040000D02*
X141336250Y-89040000D01*
X141336250Y-89040000D02*
X142726250Y-87650000D01*
%TO.N,BSENSE*%
X139890000Y-90805000D02*
X140505000Y-90190000D01*
X140505000Y-90190000D02*
X142726250Y-90190000D01*
%TO.N,VBAT*%
X136205000Y-88567500D02*
X136205000Y-90930000D01*
X136205000Y-90930000D02*
X136715000Y-91440000D01*
X136205000Y-88567500D02*
X137462500Y-88567500D01*
X137462500Y-88567500D02*
X137935000Y-89040000D01*
X137935000Y-89040000D02*
X139065000Y-89040000D01*
%TO.N,Net-(Q1-Pad1)*%
X134305000Y-88567500D02*
X134305000Y-90680000D01*
X134305000Y-90680000D02*
X135065000Y-91440000D01*
%TO.N,+5V*%
X135255000Y-86692500D02*
X137923750Y-86692500D01*
X137923750Y-86692500D02*
X138891250Y-85725000D01*
%TO.N,Net-(Q1-Pad1)*%
X130175000Y-86692500D02*
X132430000Y-86692500D01*
X132430000Y-86692500D02*
X134305000Y-88567500D01*
%TO.N,Net-(D1-Pad1)*%
X129350000Y-91440000D02*
X129350000Y-88692500D01*
X129350000Y-88692500D02*
X129225000Y-88567500D01*
X130430000Y-93980000D02*
X130430000Y-92520000D01*
X130430000Y-92520000D02*
X129350000Y-91440000D01*
X128731250Y-95060000D02*
X129350000Y-95060000D01*
X129350000Y-95060000D02*
X130430000Y-93980000D01*
%TO.N,Net-(D2-Pad1)*%
X130430000Y-97790000D02*
X129811250Y-97790000D01*
X129811250Y-97790000D02*
X128731250Y-96710000D01*
%TO.N,ON*%
X133730000Y-97790000D02*
X135716250Y-97790000D01*
%TO.N,VBAT*%
X143240000Y-117475000D02*
X146545000Y-117475000D01*
X146545000Y-117475000D02*
X146685000Y-117335000D01*
X142240000Y-112395000D02*
X142240000Y-116475000D01*
X142240000Y-116475000D02*
X143240000Y-117475000D01*
%TO.N,+5V*%
X123190000Y-66990000D02*
X123190000Y-62950000D01*
X140796250Y-78105000D02*
X140796250Y-73660000D01*
X140796250Y-73660000D02*
X142046250Y-72410000D01*
X140161250Y-78740000D02*
X140796250Y-78105000D01*
X142046250Y-72410000D02*
X142726250Y-72410000D01*
%TO.N,+3V3*%
X132397500Y-104760000D02*
X138995750Y-104760000D01*
X143510000Y-66990000D02*
X143510000Y-62950000D01*
X138995750Y-104760000D02*
X140161250Y-103594500D01*
X133350000Y-66990000D02*
X133350000Y-62950000D01*
%TO.N,/MISO*%
X145241250Y-97785000D02*
X145241250Y-101600000D01*
X142726250Y-95270000D02*
X145241250Y-97785000D01*
X143971250Y-102870000D02*
X131468478Y-102870000D01*
X131468478Y-102870000D02*
X129857500Y-104480978D01*
X145241250Y-101600000D02*
X143971250Y-102870000D01*
X129857500Y-104480978D02*
X129857500Y-104760000D01*
%TO.N,/MOSI*%
X142726250Y-97810000D02*
X141876250Y-98660000D01*
X137560000Y-98660000D02*
X135890000Y-100330000D01*
X135890000Y-100330000D02*
X132715000Y-100330000D01*
X132715000Y-100330000D02*
X128587500Y-104457500D01*
X128587500Y-104457500D02*
X128587500Y-104760000D01*
X141876250Y-98660000D02*
X137560000Y-98660000D01*
%TO.N,/NRESET*%
X126047500Y-114617500D02*
X126047500Y-118760000D01*
X122555000Y-111125000D02*
X126047500Y-114617500D01*
X124946250Y-97810000D02*
X122555000Y-100201250D01*
X122555000Y-100201250D02*
X122555000Y-111125000D01*
%TO.N,/DIO1*%
X124946250Y-92730000D02*
X126211250Y-92730000D01*
X127635000Y-101600000D02*
X125730000Y-103505000D01*
X126211250Y-92730000D02*
X127635000Y-94153750D01*
X124460000Y-103505000D02*
X123825000Y-104140000D01*
X127635000Y-94153750D02*
X127635000Y-101600000D01*
X125730000Y-103505000D02*
X124460000Y-103505000D01*
X123825000Y-109855000D02*
X128587500Y-114617500D01*
X123825000Y-104140000D02*
X123825000Y-109855000D01*
X128587500Y-114617500D02*
X128587500Y-118760000D01*
%TO.N,/RFBUSY*%
X127317500Y-118760000D02*
X127317500Y-114617500D01*
X127317500Y-114617500D02*
X123190000Y-110490000D01*
X123190000Y-102106250D02*
X124946250Y-100350000D01*
X123190000Y-110490000D02*
X123190000Y-102106250D01*
%TO.N,/SCK*%
X135255000Y-99695000D02*
X142220000Y-92730000D01*
X142220000Y-92730000D02*
X142726250Y-92730000D01*
X127317500Y-104760000D02*
X127317500Y-104660000D01*
X127317500Y-104660000D02*
X132282500Y-99695000D01*
X132282500Y-99695000D02*
X135255000Y-99695000D01*
X142069728Y-92730000D02*
X142726250Y-92730000D01*
%TO.N,/NSS*%
X128731250Y-101774468D02*
X126047500Y-104458218D01*
X126047500Y-104458218D02*
X126047500Y-104760000D01*
X128731250Y-97790000D02*
X128731250Y-101774468D01*
%TO.N,HALL2*%
X139065000Y-65395000D02*
X141510000Y-62950000D01*
X142726250Y-82570000D02*
X139065000Y-78908750D01*
X139065000Y-78908750D02*
X139065000Y-65395000D01*
%TO.N,HALL1*%
X131350000Y-73733750D02*
X131350000Y-62950000D01*
X142726250Y-85110000D02*
X131350000Y-73733750D01*
%TO.N,PPM*%
X124291250Y-81915000D02*
X124946250Y-82570000D01*
X122555000Y-80645000D02*
X123825000Y-81915000D01*
X123825000Y-81915000D02*
X124291250Y-81915000D01*
X122555000Y-75565000D02*
X122555000Y-80645000D01*
%TO.N,ON*%
X136986250Y-100965000D02*
X137621250Y-101600000D01*
X141476250Y-101600000D02*
X142726250Y-100350000D01*
X136986250Y-100330000D02*
X136986250Y-100965000D01*
X137621250Y-101600000D02*
X141476250Y-101600000D01*
%TO.N,VBAT*%
X138891250Y-93345000D02*
X138430000Y-93345000D01*
X136671250Y-91586250D02*
X136671250Y-91440000D01*
X141950000Y-112105000D02*
X138895000Y-112105000D01*
X142240000Y-112395000D02*
X141950000Y-112105000D01*
X138430000Y-93345000D02*
X136671250Y-91586250D01*
X142240000Y-112395000D02*
X142530000Y-112105000D01*
X142530000Y-112105000D02*
X146855000Y-112105000D01*
%TO.N,Net-(D6-Pad2)*%
X119712500Y-94917500D02*
X120015000Y-94615000D01*
X119712500Y-97155000D02*
X119712500Y-94917500D01*
%TO.N,L2*%
X123190000Y-83353750D02*
X124946250Y-85110000D01*
X123190000Y-82550000D02*
X123190000Y-83353750D01*
%TO.N,BSENSE*%
X137795000Y-106505000D02*
X138895000Y-107605000D01*
X138895000Y-107605000D02*
X146855000Y-107605000D01*
X142070533Y-90170000D02*
X142408392Y-90507859D01*
X137795000Y-95250000D02*
X138010864Y-95250000D01*
X137795000Y-106045000D02*
X137795000Y-106505000D01*
%TO.N,Net-(D3-Pad2)*%
X119712500Y-75232500D02*
X120015000Y-74930000D01*
X119712500Y-76835000D02*
X119712500Y-75232500D01*
%TD*%
%TA.AperFunction,Conductor*%
%TO.N,GND*%
G36*
X123504396Y-92631924D02*
G01*
X123561232Y-92674471D01*
X123586155Y-92742727D01*
X123593580Y-92871500D01*
X123596360Y-92919715D01*
X123597497Y-92924761D01*
X123597498Y-92924767D01*
X123615636Y-93005248D01*
X123645472Y-93137639D01*
X123729516Y-93344616D01*
X123757892Y-93390921D01*
X123802991Y-93464516D01*
X123846237Y-93535088D01*
X123992500Y-93703938D01*
X124164376Y-93846632D01*
X124219661Y-93878938D01*
X124237695Y-93889476D01*
X124286419Y-93941114D01*
X124299490Y-94010897D01*
X124272759Y-94076669D01*
X124232305Y-94110027D01*
X124224877Y-94113894D01*
X124219857Y-94116507D01*
X124215724Y-94119610D01*
X124215721Y-94119612D01*
X124103921Y-94203554D01*
X124041215Y-94250635D01*
X123886879Y-94412138D01*
X123760993Y-94596680D01*
X123666938Y-94799305D01*
X123607239Y-95014570D01*
X123583501Y-95236695D01*
X123583798Y-95241848D01*
X123583798Y-95241851D01*
X123590881Y-95364689D01*
X123596360Y-95459715D01*
X123597497Y-95464761D01*
X123597498Y-95464767D01*
X123615176Y-95543207D01*
X123645472Y-95677639D01*
X123703944Y-95821639D01*
X123711793Y-95840968D01*
X123729516Y-95884616D01*
X123746164Y-95911783D01*
X123842886Y-96069619D01*
X123846237Y-96075088D01*
X123992500Y-96243938D01*
X124164376Y-96386632D01*
X124234845Y-96427811D01*
X124237695Y-96429476D01*
X124286419Y-96481114D01*
X124299490Y-96550897D01*
X124272759Y-96616669D01*
X124232305Y-96650027D01*
X124219857Y-96656507D01*
X124215724Y-96659610D01*
X124215721Y-96659612D01*
X124055559Y-96779865D01*
X124041215Y-96790635D01*
X124037643Y-96794373D01*
X123895330Y-96943295D01*
X123886879Y-96952138D01*
X123760993Y-97136680D01*
X123745253Y-97170590D01*
X123677792Y-97315923D01*
X123666938Y-97339305D01*
X123607239Y-97554570D01*
X123583501Y-97776695D01*
X123583798Y-97781848D01*
X123583798Y-97781851D01*
X123589261Y-97876590D01*
X123596360Y-97999715D01*
X123597497Y-98004761D01*
X123597498Y-98004767D01*
X123629703Y-98147668D01*
X123625167Y-98218520D01*
X123595881Y-98264464D01*
X122162747Y-99697598D01*
X122154461Y-99705138D01*
X122147982Y-99709250D01*
X122142557Y-99715027D01*
X122101357Y-99758901D01*
X122098602Y-99761743D01*
X122078865Y-99781480D01*
X122076385Y-99784677D01*
X122068682Y-99793697D01*
X122038414Y-99825929D01*
X122034595Y-99832875D01*
X122034593Y-99832878D01*
X122028652Y-99843684D01*
X122017801Y-99860203D01*
X122005386Y-99876209D01*
X122002241Y-99883478D01*
X122002238Y-99883482D01*
X121987826Y-99916787D01*
X121982609Y-99927437D01*
X121961305Y-99966190D01*
X121959334Y-99973865D01*
X121959334Y-99973866D01*
X121956267Y-99985812D01*
X121949863Y-100004516D01*
X121941819Y-100023105D01*
X121940580Y-100030928D01*
X121940577Y-100030938D01*
X121934901Y-100066774D01*
X121932495Y-100078394D01*
X121921500Y-100121220D01*
X121921500Y-100141474D01*
X121919949Y-100161184D01*
X121916780Y-100181193D01*
X121917526Y-100189085D01*
X121920941Y-100225211D01*
X121921500Y-100237069D01*
X121921500Y-111046233D01*
X121920973Y-111057416D01*
X121919298Y-111064909D01*
X121919547Y-111072835D01*
X121919547Y-111072836D01*
X121921438Y-111132986D01*
X121921500Y-111136945D01*
X121921500Y-111164856D01*
X121921997Y-111168790D01*
X121921997Y-111168791D01*
X121922005Y-111168856D01*
X121922938Y-111180693D01*
X121924327Y-111224889D01*
X121929978Y-111244339D01*
X121933987Y-111263700D01*
X121936526Y-111283797D01*
X121939445Y-111291168D01*
X121939445Y-111291170D01*
X121952804Y-111324912D01*
X121956649Y-111336142D01*
X121968982Y-111378593D01*
X121973015Y-111385412D01*
X121973017Y-111385417D01*
X121979293Y-111396028D01*
X121987988Y-111413776D01*
X121995448Y-111432617D01*
X122000110Y-111439033D01*
X122000110Y-111439034D01*
X122021436Y-111468387D01*
X122027952Y-111478307D01*
X122050458Y-111516362D01*
X122064779Y-111530683D01*
X122077619Y-111545716D01*
X122089528Y-111562107D01*
X122095634Y-111567158D01*
X122123605Y-111590298D01*
X122132384Y-111598288D01*
X125377095Y-114843000D01*
X125411121Y-114905312D01*
X125414000Y-114932095D01*
X125414000Y-117632039D01*
X125393998Y-117700160D01*
X125340342Y-117746653D01*
X125274391Y-117757302D01*
X125228983Y-117752369D01*
X125222172Y-117752000D01*
X125049615Y-117752000D01*
X125034376Y-117756475D01*
X125033171Y-117757865D01*
X125031500Y-117765548D01*
X125031500Y-119749884D01*
X125035975Y-119765123D01*
X125037365Y-119766328D01*
X125045048Y-119767999D01*
X125222169Y-119767999D01*
X125228990Y-119767629D01*
X125279852Y-119762105D01*
X125295104Y-119758479D01*
X125367558Y-119731317D01*
X125438365Y-119726134D01*
X125456016Y-119731316D01*
X125537184Y-119761745D01*
X125599366Y-119768500D01*
X126495634Y-119768500D01*
X126557816Y-119761745D01*
X126638270Y-119731584D01*
X126709077Y-119726401D01*
X126726729Y-119731584D01*
X126807184Y-119761745D01*
X126869366Y-119768500D01*
X127765634Y-119768500D01*
X127827816Y-119761745D01*
X127908270Y-119731584D01*
X127979077Y-119726401D01*
X127996729Y-119731584D01*
X128077184Y-119761745D01*
X128139366Y-119768500D01*
X129035634Y-119768500D01*
X129097816Y-119761745D01*
X129178270Y-119731584D01*
X129249077Y-119726401D01*
X129266729Y-119731584D01*
X129347184Y-119761745D01*
X129409366Y-119768500D01*
X130305634Y-119768500D01*
X130367816Y-119761745D01*
X130448270Y-119731584D01*
X130519077Y-119726401D01*
X130536729Y-119731584D01*
X130617184Y-119761745D01*
X130679366Y-119768500D01*
X131575634Y-119768500D01*
X131637816Y-119761745D01*
X131718983Y-119731317D01*
X131789789Y-119726134D01*
X131807442Y-119731317D01*
X131879894Y-119758478D01*
X131895149Y-119762105D01*
X131946014Y-119767631D01*
X131952828Y-119768000D01*
X132125385Y-119768000D01*
X132140624Y-119763525D01*
X132141829Y-119762135D01*
X132143500Y-119754452D01*
X132143500Y-119749884D01*
X132651500Y-119749884D01*
X132655975Y-119765123D01*
X132657365Y-119766328D01*
X132665048Y-119767999D01*
X132842169Y-119767999D01*
X132848990Y-119767629D01*
X132899852Y-119762105D01*
X132915104Y-119758479D01*
X133035554Y-119713324D01*
X133051149Y-119704786D01*
X133153224Y-119628285D01*
X133165785Y-119615724D01*
X133242286Y-119513649D01*
X133250824Y-119498054D01*
X133295978Y-119377606D01*
X133299605Y-119362351D01*
X133305131Y-119311486D01*
X133305500Y-119304672D01*
X133305500Y-119155438D01*
X145702000Y-119155438D01*
X145702337Y-119161953D01*
X145711894Y-119254057D01*
X145714788Y-119267456D01*
X145764381Y-119416107D01*
X145770555Y-119429286D01*
X145852788Y-119562173D01*
X145861824Y-119573574D01*
X145972429Y-119683986D01*
X145983840Y-119692998D01*
X146116880Y-119775004D01*
X146130061Y-119781151D01*
X146278814Y-119830491D01*
X146292190Y-119833358D01*
X146383097Y-119842672D01*
X146389513Y-119843000D01*
X146412885Y-119843000D01*
X146428124Y-119838525D01*
X146429329Y-119837135D01*
X146431000Y-119829452D01*
X146431000Y-119824885D01*
X146939000Y-119824885D01*
X146943475Y-119840124D01*
X146944865Y-119841329D01*
X146952548Y-119843000D01*
X146980438Y-119843000D01*
X146986953Y-119842663D01*
X147079057Y-119833106D01*
X147092456Y-119830212D01*
X147241107Y-119780619D01*
X147254286Y-119774445D01*
X147387173Y-119692212D01*
X147398574Y-119683176D01*
X147508986Y-119572571D01*
X147517998Y-119561160D01*
X147600004Y-119428120D01*
X147606151Y-119414939D01*
X147655491Y-119266186D01*
X147658358Y-119252810D01*
X147667672Y-119161903D01*
X147667929Y-119156874D01*
X147663525Y-119141876D01*
X147662135Y-119140671D01*
X147654452Y-119139000D01*
X146957115Y-119139000D01*
X146941876Y-119143475D01*
X146940671Y-119144865D01*
X146939000Y-119152548D01*
X146939000Y-119824885D01*
X146431000Y-119824885D01*
X146431000Y-119157115D01*
X146426525Y-119141876D01*
X146425135Y-119140671D01*
X146417452Y-119139000D01*
X145720115Y-119139000D01*
X145704876Y-119143475D01*
X145703671Y-119144865D01*
X145702000Y-119152548D01*
X145702000Y-119155438D01*
X133305500Y-119155438D01*
X133305500Y-119032115D01*
X133301025Y-119016876D01*
X133299635Y-119015671D01*
X133291952Y-119014000D01*
X132669615Y-119014000D01*
X132654376Y-119018475D01*
X132653171Y-119019865D01*
X132651500Y-119027548D01*
X132651500Y-119749884D01*
X132143500Y-119749884D01*
X132143500Y-118487885D01*
X132651500Y-118487885D01*
X132655975Y-118503124D01*
X132657365Y-118504329D01*
X132665048Y-118506000D01*
X133287384Y-118506000D01*
X133302623Y-118501525D01*
X133303828Y-118500135D01*
X133305499Y-118492452D01*
X133305499Y-118215331D01*
X133305129Y-118208510D01*
X133299605Y-118157648D01*
X133295979Y-118142396D01*
X133250824Y-118021946D01*
X133242286Y-118006351D01*
X133165785Y-117904276D01*
X133153224Y-117891715D01*
X133051149Y-117815214D01*
X133035554Y-117806676D01*
X133017298Y-117799832D01*
X140132000Y-117799832D01*
X140132285Y-117805808D01*
X140146471Y-117954494D01*
X140148730Y-117966228D01*
X140204872Y-118157599D01*
X140209302Y-118168675D01*
X140300619Y-118345978D01*
X140307069Y-118356024D01*
X140430262Y-118512857D01*
X140438499Y-118521506D01*
X140589123Y-118652212D01*
X140598847Y-118659147D01*
X140771467Y-118759010D01*
X140782331Y-118763984D01*
X140970727Y-118829407D01*
X140971716Y-118829648D01*
X140982008Y-118828180D01*
X140986000Y-118814615D01*
X140986000Y-117747115D01*
X140981525Y-117731876D01*
X140980135Y-117730671D01*
X140972452Y-117729000D01*
X140150115Y-117729000D01*
X140134876Y-117733475D01*
X140133671Y-117734865D01*
X140132000Y-117742548D01*
X140132000Y-117799832D01*
X133017298Y-117799832D01*
X132915106Y-117761522D01*
X132899851Y-117757895D01*
X132848986Y-117752369D01*
X132842172Y-117752000D01*
X132669615Y-117752000D01*
X132654376Y-117756475D01*
X132653171Y-117757865D01*
X132651500Y-117765548D01*
X132651500Y-118487885D01*
X132143500Y-118487885D01*
X132143500Y-117770116D01*
X132139025Y-117754877D01*
X132137635Y-117753672D01*
X132129952Y-117752001D01*
X131952831Y-117752001D01*
X131946010Y-117752371D01*
X131895148Y-117757895D01*
X131879896Y-117761521D01*
X131807442Y-117788683D01*
X131736635Y-117793866D01*
X131718984Y-117788684D01*
X131637816Y-117758255D01*
X131575634Y-117751500D01*
X130679366Y-117751500D01*
X130617184Y-117758255D01*
X130585545Y-117770116D01*
X130536730Y-117788416D01*
X130465923Y-117793599D01*
X130448270Y-117788416D01*
X130399455Y-117770116D01*
X130367816Y-117758255D01*
X130305634Y-117751500D01*
X129409366Y-117751500D01*
X129360607Y-117756797D01*
X129290726Y-117744269D01*
X129238710Y-117695949D01*
X129221000Y-117631534D01*
X129221000Y-117202885D01*
X140132000Y-117202885D01*
X140136475Y-117218124D01*
X140137865Y-117219329D01*
X140145548Y-117221000D01*
X140967885Y-117221000D01*
X140983124Y-117216525D01*
X140984329Y-117215135D01*
X140986000Y-117207452D01*
X140986000Y-116139598D01*
X140982027Y-116126067D01*
X140972601Y-116124712D01*
X140883463Y-116146194D01*
X140872168Y-116150083D01*
X140690618Y-116232629D01*
X140680276Y-116238576D01*
X140517603Y-116353968D01*
X140508575Y-116361761D01*
X140370658Y-116505831D01*
X140363262Y-116515196D01*
X140255079Y-116682741D01*
X140249583Y-116693345D01*
X140175039Y-116878312D01*
X140171645Y-116889770D01*
X140133143Y-117086928D01*
X140132066Y-117095791D01*
X140132000Y-117098500D01*
X140132000Y-117202885D01*
X129221000Y-117202885D01*
X129221000Y-114696267D01*
X129221527Y-114685084D01*
X129223202Y-114677591D01*
X129221062Y-114609514D01*
X129221000Y-114605555D01*
X129221000Y-114577644D01*
X129220495Y-114573644D01*
X129219562Y-114561801D01*
X129218422Y-114525529D01*
X129218173Y-114517610D01*
X129212522Y-114498158D01*
X129208514Y-114478806D01*
X129206967Y-114466563D01*
X129205974Y-114458703D01*
X129203056Y-114451332D01*
X129189700Y-114417597D01*
X129185855Y-114406370D01*
X129185221Y-114404187D01*
X129173518Y-114363907D01*
X129163207Y-114346472D01*
X129154512Y-114328724D01*
X129147052Y-114309883D01*
X129121064Y-114274113D01*
X129114548Y-114264193D01*
X129096080Y-114232965D01*
X129096078Y-114232962D01*
X129092042Y-114226138D01*
X129077721Y-114211817D01*
X129064880Y-114196783D01*
X129057631Y-114186806D01*
X129052972Y-114180393D01*
X129018895Y-114152202D01*
X129010116Y-114144212D01*
X124495405Y-109629500D01*
X124461379Y-109567188D01*
X124458500Y-109540405D01*
X124458500Y-105876089D01*
X124478502Y-105807968D01*
X124496960Y-105791974D01*
X124496396Y-105791486D01*
X124521829Y-105762135D01*
X124523500Y-105754452D01*
X124523500Y-104632000D01*
X124543502Y-104563879D01*
X124597158Y-104517386D01*
X124649500Y-104506000D01*
X124905500Y-104506000D01*
X124973621Y-104526002D01*
X125020114Y-104579658D01*
X125031500Y-104632000D01*
X125031500Y-105749884D01*
X125035975Y-105765123D01*
X125037365Y-105766328D01*
X125045048Y-105767999D01*
X125222169Y-105767999D01*
X125228990Y-105767629D01*
X125279852Y-105762105D01*
X125295104Y-105758479D01*
X125367558Y-105731317D01*
X125438365Y-105726134D01*
X125456016Y-105731316D01*
X125537184Y-105761745D01*
X125599366Y-105768500D01*
X126495634Y-105768500D01*
X126557816Y-105761745D01*
X126638270Y-105731584D01*
X126709077Y-105726401D01*
X126726729Y-105731584D01*
X126807184Y-105761745D01*
X126869366Y-105768500D01*
X127765634Y-105768500D01*
X127827816Y-105761745D01*
X127908270Y-105731584D01*
X127979077Y-105726401D01*
X127996729Y-105731584D01*
X128077184Y-105761745D01*
X128139366Y-105768500D01*
X129035634Y-105768500D01*
X129097816Y-105761745D01*
X129178270Y-105731584D01*
X129249077Y-105726401D01*
X129266729Y-105731584D01*
X129347184Y-105761745D01*
X129409366Y-105768500D01*
X130305634Y-105768500D01*
X130367816Y-105761745D01*
X130448983Y-105731317D01*
X130519789Y-105726134D01*
X130537442Y-105731317D01*
X130609894Y-105758478D01*
X130625149Y-105762105D01*
X130676014Y-105767631D01*
X130682828Y-105768000D01*
X130855385Y-105768000D01*
X130870624Y-105763525D01*
X130871829Y-105762135D01*
X130873500Y-105754452D01*
X130873500Y-104632000D01*
X130893502Y-104563879D01*
X130947158Y-104517386D01*
X130999500Y-104506000D01*
X131255500Y-104506000D01*
X131323621Y-104526002D01*
X131370114Y-104579658D01*
X131381500Y-104632000D01*
X131381500Y-105749884D01*
X131385975Y-105765123D01*
X131387365Y-105766328D01*
X131395048Y-105767999D01*
X131572169Y-105767999D01*
X131578990Y-105767629D01*
X131629852Y-105762105D01*
X131645104Y-105758479D01*
X131717558Y-105731317D01*
X131788365Y-105726134D01*
X131806016Y-105731316D01*
X131887184Y-105761745D01*
X131949366Y-105768500D01*
X132845634Y-105768500D01*
X132907816Y-105761745D01*
X133044205Y-105710615D01*
X133160761Y-105623261D01*
X133248115Y-105506705D01*
X133251269Y-105498293D01*
X133259901Y-105475269D01*
X133302543Y-105418505D01*
X133369105Y-105393806D01*
X133377882Y-105393500D01*
X136903861Y-105393500D01*
X136971982Y-105413502D01*
X137018475Y-105467158D01*
X137028579Y-105537432D01*
X137012981Y-105582498D01*
X136960473Y-105673444D01*
X136901458Y-105855072D01*
X136881496Y-106045000D01*
X136901458Y-106234928D01*
X136960473Y-106416556D01*
X137055960Y-106581944D01*
X137060378Y-106586851D01*
X137060379Y-106586852D01*
X137163257Y-106701109D01*
X137182549Y-106722535D01*
X137182550Y-106722537D01*
X137183747Y-106723866D01*
X137183600Y-106723998D01*
X137208614Y-106758809D01*
X137208981Y-106758592D01*
X137211415Y-106762708D01*
X137211419Y-106762713D01*
X137213015Y-106765412D01*
X137213017Y-106765417D01*
X137219293Y-106776028D01*
X137227988Y-106793776D01*
X137235448Y-106812617D01*
X137240110Y-106819033D01*
X137240110Y-106819034D01*
X137261436Y-106848387D01*
X137267952Y-106858307D01*
X137290458Y-106896362D01*
X137304779Y-106910683D01*
X137317619Y-106925716D01*
X137329528Y-106942107D01*
X137335634Y-106947158D01*
X137363605Y-106970298D01*
X137372384Y-106978288D01*
X137574595Y-107180499D01*
X137608621Y-107242811D01*
X137611500Y-107269594D01*
X137611500Y-108303134D01*
X137618255Y-108365316D01*
X137669385Y-108501705D01*
X137756739Y-108618261D01*
X137873295Y-108705615D01*
X138009684Y-108756745D01*
X138071866Y-108763500D01*
X139718134Y-108763500D01*
X139780316Y-108756745D01*
X139916705Y-108705615D01*
X140033261Y-108618261D01*
X140120615Y-108501705D01*
X140171745Y-108365316D01*
X140173312Y-108350892D01*
X140200554Y-108285330D01*
X140258917Y-108244904D01*
X140298575Y-108238500D01*
X145451425Y-108238500D01*
X145519546Y-108258502D01*
X145566039Y-108312158D01*
X145576688Y-108350892D01*
X145578255Y-108365316D01*
X145629385Y-108501705D01*
X145716739Y-108618261D01*
X145833295Y-108705615D01*
X145969684Y-108756745D01*
X146031866Y-108763500D01*
X147678134Y-108763500D01*
X147740316Y-108756745D01*
X147876705Y-108705615D01*
X147883892Y-108700229D01*
X147891760Y-108695921D01*
X147892972Y-108698134D01*
X147946952Y-108677971D01*
X148016333Y-108693030D01*
X148066559Y-108743208D01*
X148082000Y-108803646D01*
X148082000Y-110906354D01*
X148061998Y-110974475D01*
X148008342Y-111020968D01*
X147938068Y-111031072D01*
X147892743Y-111012284D01*
X147891760Y-111014079D01*
X147883892Y-111009771D01*
X147876705Y-111004385D01*
X147740316Y-110953255D01*
X147678134Y-110946500D01*
X146031866Y-110946500D01*
X145969684Y-110953255D01*
X145833295Y-111004385D01*
X145716739Y-111091739D01*
X145629385Y-111208295D01*
X145578255Y-111344684D01*
X145577402Y-111352540D01*
X145576688Y-111359108D01*
X145549446Y-111424670D01*
X145491083Y-111465096D01*
X145451425Y-111471500D01*
X142608767Y-111471500D01*
X142597584Y-111470973D01*
X142590091Y-111469298D01*
X142582165Y-111469547D01*
X142582164Y-111469547D01*
X142522001Y-111471438D01*
X142518043Y-111471500D01*
X142490144Y-111471500D01*
X142486154Y-111472004D01*
X142474320Y-111472936D01*
X142430111Y-111474326D01*
X142422497Y-111476538D01*
X142422492Y-111476539D01*
X142410659Y-111479977D01*
X142391296Y-111483988D01*
X142371203Y-111486526D01*
X142371043Y-111485259D01*
X142340276Y-111487518D01*
X142335487Y-111486500D01*
X142144513Y-111486500D01*
X142138052Y-111487873D01*
X142133620Y-111488339D01*
X142100734Y-111487477D01*
X142084474Y-111484901D01*
X142072857Y-111482495D01*
X142037711Y-111473472D01*
X142037710Y-111473472D01*
X142030030Y-111471500D01*
X142009776Y-111471500D01*
X141990065Y-111469949D01*
X141977886Y-111468020D01*
X141970057Y-111466780D01*
X141940786Y-111469547D01*
X141926039Y-111470941D01*
X141914181Y-111471500D01*
X140298575Y-111471500D01*
X140230454Y-111451498D01*
X140183961Y-111397842D01*
X140173312Y-111359108D01*
X140172598Y-111352540D01*
X140171745Y-111344684D01*
X140120615Y-111208295D01*
X140033261Y-111091739D01*
X139916705Y-111004385D01*
X139780316Y-110953255D01*
X139718134Y-110946500D01*
X138071866Y-110946500D01*
X138009684Y-110953255D01*
X137873295Y-111004385D01*
X137756739Y-111091739D01*
X137669385Y-111208295D01*
X137618255Y-111344684D01*
X137611500Y-111406866D01*
X137611500Y-112803134D01*
X137618255Y-112865316D01*
X137669385Y-113001705D01*
X137756739Y-113118261D01*
X137873295Y-113205615D01*
X138009684Y-113256745D01*
X138071866Y-113263500D01*
X139718134Y-113263500D01*
X139780316Y-113256745D01*
X139916705Y-113205615D01*
X140033261Y-113118261D01*
X140120615Y-113001705D01*
X140171745Y-112865316D01*
X140173312Y-112850892D01*
X140200554Y-112785330D01*
X140258917Y-112744904D01*
X140298575Y-112738500D01*
X141316529Y-112738500D01*
X141384650Y-112758502D01*
X141425648Y-112801500D01*
X141500960Y-112931944D01*
X141574137Y-113013215D01*
X141604853Y-113077221D01*
X141606500Y-113097524D01*
X141606500Y-115997040D01*
X141586498Y-116065161D01*
X141532842Y-116111654D01*
X141498288Y-116121778D01*
X141497992Y-116121820D01*
X141494000Y-116135385D01*
X141494000Y-118810402D01*
X141497973Y-118823933D01*
X141507399Y-118825288D01*
X141596537Y-118803806D01*
X141607832Y-118799917D01*
X141789382Y-118717371D01*
X141799724Y-118711424D01*
X141962397Y-118596032D01*
X141971425Y-118588239D01*
X142058535Y-118497243D01*
X142120090Y-118461867D01*
X142191000Y-118465386D01*
X142248750Y-118506683D01*
X142256685Y-118518053D01*
X142291522Y-118574348D01*
X142416697Y-118699305D01*
X142422927Y-118703145D01*
X142422928Y-118703146D01*
X142560090Y-118787694D01*
X142567262Y-118792115D01*
X142622396Y-118810402D01*
X142728611Y-118845632D01*
X142728613Y-118845632D01*
X142735139Y-118847797D01*
X142741975Y-118848497D01*
X142741978Y-118848498D01*
X142785031Y-118852909D01*
X142839600Y-118858500D01*
X143640400Y-118858500D01*
X143643646Y-118858163D01*
X143643650Y-118858163D01*
X143739308Y-118848238D01*
X143739312Y-118848237D01*
X143746166Y-118847526D01*
X143752702Y-118845345D01*
X143752704Y-118845345D01*
X143888867Y-118799917D01*
X143913946Y-118791550D01*
X144064348Y-118698478D01*
X144189305Y-118573303D01*
X144223894Y-118517190D01*
X144278275Y-118428968D01*
X144278276Y-118428966D01*
X144282115Y-118422738D01*
X144324981Y-118293500D01*
X144335632Y-118261389D01*
X144335632Y-118261387D01*
X144337797Y-118254861D01*
X144341199Y-118221658D01*
X144368040Y-118155930D01*
X144426155Y-118115148D01*
X144466543Y-118108500D01*
X145688171Y-118108500D01*
X145756292Y-118128502D01*
X145802785Y-118182158D01*
X145812889Y-118252432D01*
X145795431Y-118300616D01*
X145769996Y-118341880D01*
X145763849Y-118355061D01*
X145714509Y-118503814D01*
X145711642Y-118517190D01*
X145702328Y-118608097D01*
X145702071Y-118613126D01*
X145706475Y-118628124D01*
X145707865Y-118629329D01*
X145715548Y-118631000D01*
X147649885Y-118631000D01*
X147665124Y-118626525D01*
X147666329Y-118625135D01*
X147668000Y-118617452D01*
X147668000Y-118614562D01*
X147667663Y-118608047D01*
X147658106Y-118515943D01*
X147655212Y-118502544D01*
X147605619Y-118353893D01*
X147599445Y-118340714D01*
X147517212Y-118207827D01*
X147503629Y-118190689D01*
X147505559Y-118189159D01*
X147477097Y-118137120D01*
X147482113Y-118066301D01*
X147505799Y-118029383D01*
X147504843Y-118028628D01*
X147509381Y-118022882D01*
X147514552Y-118017702D01*
X147604302Y-117872101D01*
X147658149Y-117709757D01*
X147659133Y-117700160D01*
X147668172Y-117611930D01*
X147668500Y-117608732D01*
X147668500Y-117061268D01*
X147657887Y-116958981D01*
X147634105Y-116887697D01*
X147606073Y-116803676D01*
X147606072Y-116803674D01*
X147603756Y-116796732D01*
X147595022Y-116782617D01*
X147517606Y-116657515D01*
X147513752Y-116651287D01*
X147392702Y-116530448D01*
X147385574Y-116526054D01*
X147253331Y-116444538D01*
X147253329Y-116444537D01*
X147247101Y-116440698D01*
X147084757Y-116386851D01*
X147077920Y-116386151D01*
X147077918Y-116386150D01*
X147036240Y-116381880D01*
X146983732Y-116376500D01*
X146386268Y-116376500D01*
X146383022Y-116376837D01*
X146383018Y-116376837D01*
X146348917Y-116380375D01*
X146283981Y-116387113D01*
X146277440Y-116389295D01*
X146277441Y-116389295D01*
X146128676Y-116438927D01*
X146128674Y-116438928D01*
X146121732Y-116441244D01*
X146115508Y-116445096D01*
X146115507Y-116445096D01*
X145984680Y-116526054D01*
X145976287Y-116531248D01*
X145855448Y-116652298D01*
X145851608Y-116658528D01*
X145851607Y-116658529D01*
X145775735Y-116781616D01*
X145722963Y-116829109D01*
X145668475Y-116841500D01*
X144466450Y-116841500D01*
X144398329Y-116821498D01*
X144351836Y-116767842D01*
X144341123Y-116728503D01*
X144338238Y-116700692D01*
X144338237Y-116700688D01*
X144337526Y-116693834D01*
X144333055Y-116680431D01*
X144283868Y-116533002D01*
X144281550Y-116526054D01*
X144188478Y-116375652D01*
X144063303Y-116250695D01*
X144057072Y-116246854D01*
X143918968Y-116161725D01*
X143918966Y-116161724D01*
X143912738Y-116157885D01*
X143803878Y-116121778D01*
X143751389Y-116104368D01*
X143751387Y-116104368D01*
X143744861Y-116102203D01*
X143738025Y-116101503D01*
X143738022Y-116101502D01*
X143694969Y-116097091D01*
X143640400Y-116091500D01*
X142999500Y-116091500D01*
X142931379Y-116071498D01*
X142884886Y-116017842D01*
X142873500Y-115965500D01*
X142873500Y-113097524D01*
X142893502Y-113029403D01*
X142905858Y-113013221D01*
X142979040Y-112931944D01*
X143054352Y-112801500D01*
X143105735Y-112752507D01*
X143163471Y-112738500D01*
X145451425Y-112738500D01*
X145519546Y-112758502D01*
X145566039Y-112812158D01*
X145576688Y-112850892D01*
X145578255Y-112865316D01*
X145629385Y-113001705D01*
X145716739Y-113118261D01*
X145833295Y-113205615D01*
X145969684Y-113256745D01*
X146031866Y-113263500D01*
X147678134Y-113263500D01*
X147740316Y-113256745D01*
X147876705Y-113205615D01*
X147883892Y-113200229D01*
X147891760Y-113195921D01*
X147892972Y-113198134D01*
X147946952Y-113177971D01*
X148016333Y-113193030D01*
X148066559Y-113243208D01*
X148082000Y-113303646D01*
X148082000Y-120016000D01*
X148061998Y-120084121D01*
X148008342Y-120130614D01*
X147956000Y-120142000D01*
X118744000Y-120142000D01*
X118675879Y-120121998D01*
X118629386Y-120068342D01*
X118618000Y-120016000D01*
X118618000Y-119304669D01*
X123869501Y-119304669D01*
X123869871Y-119311490D01*
X123875395Y-119362352D01*
X123879021Y-119377604D01*
X123924176Y-119498054D01*
X123932714Y-119513649D01*
X124009215Y-119615724D01*
X124021776Y-119628285D01*
X124123851Y-119704786D01*
X124139446Y-119713324D01*
X124259894Y-119758478D01*
X124275149Y-119762105D01*
X124326014Y-119767631D01*
X124332828Y-119768000D01*
X124505385Y-119768000D01*
X124520624Y-119763525D01*
X124521829Y-119762135D01*
X124523500Y-119754452D01*
X124523500Y-119032115D01*
X124519025Y-119016876D01*
X124517635Y-119015671D01*
X124509952Y-119014000D01*
X123887616Y-119014000D01*
X123872377Y-119018475D01*
X123871172Y-119019865D01*
X123869501Y-119027548D01*
X123869501Y-119304669D01*
X118618000Y-119304669D01*
X118618000Y-118487885D01*
X123869500Y-118487885D01*
X123873975Y-118503124D01*
X123875365Y-118504329D01*
X123883048Y-118506000D01*
X124505385Y-118506000D01*
X124520624Y-118501525D01*
X124521829Y-118500135D01*
X124523500Y-118492452D01*
X124523500Y-117770116D01*
X124519025Y-117754877D01*
X124517635Y-117753672D01*
X124509952Y-117752001D01*
X124332831Y-117752001D01*
X124326010Y-117752371D01*
X124275148Y-117757895D01*
X124259896Y-117761521D01*
X124139446Y-117806676D01*
X124123851Y-117815214D01*
X124021776Y-117891715D01*
X124009215Y-117904276D01*
X123932714Y-118006351D01*
X123924176Y-118021946D01*
X123879022Y-118142394D01*
X123875395Y-118157649D01*
X123869869Y-118208514D01*
X123869500Y-118215328D01*
X123869500Y-118487885D01*
X118618000Y-118487885D01*
X118618000Y-97474113D01*
X118638002Y-97405992D01*
X118691658Y-97359499D01*
X118761932Y-97349395D01*
X118826512Y-97378889D01*
X118851144Y-97407810D01*
X118875203Y-97446689D01*
X118999347Y-97570617D01*
X119005577Y-97574457D01*
X119005578Y-97574458D01*
X119022838Y-97585097D01*
X119148671Y-97662661D01*
X119155619Y-97664966D01*
X119155620Y-97664966D01*
X119308634Y-97715719D01*
X119308636Y-97715719D01*
X119315165Y-97717885D01*
X119418769Y-97728500D01*
X119421379Y-97728500D01*
X119468442Y-97740289D01*
X119515182Y-97762283D01*
X119672406Y-97792275D01*
X119760900Y-97786708D01*
X119824238Y-97782723D01*
X119824240Y-97782723D01*
X119832150Y-97782225D01*
X119839686Y-97779776D01*
X119839688Y-97779776D01*
X119980732Y-97733948D01*
X120006665Y-97728454D01*
X120036734Y-97725334D01*
X120111129Y-97717616D01*
X120117660Y-97715437D01*
X120117665Y-97715436D01*
X120270578Y-97664420D01*
X120277526Y-97662102D01*
X120426689Y-97569797D01*
X120550617Y-97445653D01*
X120552614Y-97442413D01*
X120609352Y-97402186D01*
X120680275Y-97398953D01*
X120741687Y-97434578D01*
X120749066Y-97443078D01*
X120755782Y-97451552D01*
X120869479Y-97565051D01*
X120880890Y-97574063D01*
X121017654Y-97658365D01*
X121030832Y-97664509D01*
X121183740Y-97715227D01*
X121197106Y-97718093D01*
X121290601Y-97727672D01*
X121297016Y-97728000D01*
X121315385Y-97728000D01*
X121330624Y-97723525D01*
X121331829Y-97722135D01*
X121333500Y-97714452D01*
X121333500Y-97709884D01*
X121841500Y-97709884D01*
X121845975Y-97725123D01*
X121847365Y-97726328D01*
X121855048Y-97727999D01*
X121877933Y-97727999D01*
X121884452Y-97727662D01*
X121979170Y-97717834D01*
X121992564Y-97714942D01*
X122145365Y-97663964D01*
X122158543Y-97657790D01*
X122295149Y-97573256D01*
X122306550Y-97564220D01*
X122420051Y-97450521D01*
X122429063Y-97439110D01*
X122513365Y-97302346D01*
X122519509Y-97289168D01*
X122570227Y-97136260D01*
X122573093Y-97122894D01*
X122582672Y-97029399D01*
X122583000Y-97022984D01*
X122583000Y-96792115D01*
X122578525Y-96776876D01*
X122577135Y-96775671D01*
X122569452Y-96774000D01*
X121859615Y-96774000D01*
X121844376Y-96778475D01*
X121843171Y-96779865D01*
X121841500Y-96787548D01*
X121841500Y-97709884D01*
X121333500Y-97709884D01*
X121333500Y-96392000D01*
X121353502Y-96323879D01*
X121407158Y-96277386D01*
X121459500Y-96266000D01*
X122564884Y-96266000D01*
X122580123Y-96261525D01*
X122581328Y-96260135D01*
X122582999Y-96252452D01*
X122582999Y-96017067D01*
X122582662Y-96010548D01*
X122572834Y-95915830D01*
X122569942Y-95902436D01*
X122518964Y-95749635D01*
X122512790Y-95736457D01*
X122428256Y-95599851D01*
X122419220Y-95588450D01*
X122305520Y-95474948D01*
X122288366Y-95461401D01*
X122290142Y-95459152D01*
X122251420Y-95416142D01*
X122239982Y-95346073D01*
X122257242Y-95296361D01*
X122321537Y-95190196D01*
X122325472Y-95183699D01*
X122376753Y-95020062D01*
X122383500Y-94946635D01*
X122383499Y-94283366D01*
X122383234Y-94280474D01*
X122377364Y-94216592D01*
X122376753Y-94209938D01*
X122351600Y-94129674D01*
X122327744Y-94053550D01*
X122327743Y-94053548D01*
X122325472Y-94046301D01*
X122291621Y-93990405D01*
X122248551Y-93919288D01*
X122230372Y-93850658D01*
X122252183Y-93783095D01*
X122267232Y-93764922D01*
X123371269Y-92660885D01*
X123433581Y-92626859D01*
X123504396Y-92631924D01*
G37*
%TD.AperFunction*%
%TA.AperFunction,Conductor*%
G36*
X148024121Y-60218002D02*
G01*
X148070614Y-60271658D01*
X148082000Y-60324000D01*
X148082000Y-106406354D01*
X148061998Y-106474475D01*
X148008342Y-106520968D01*
X147938068Y-106531072D01*
X147892743Y-106512284D01*
X147891760Y-106514079D01*
X147883892Y-106509771D01*
X147876705Y-106504385D01*
X147740316Y-106453255D01*
X147678134Y-106446500D01*
X146031866Y-106446500D01*
X145969684Y-106453255D01*
X145833295Y-106504385D01*
X145716739Y-106591739D01*
X145629385Y-106708295D01*
X145578255Y-106844684D01*
X145577402Y-106852540D01*
X145576688Y-106859108D01*
X145549446Y-106924670D01*
X145491083Y-106965096D01*
X145451425Y-106971500D01*
X140298575Y-106971500D01*
X140230454Y-106951498D01*
X140183961Y-106897842D01*
X140173312Y-106859108D01*
X140172598Y-106852540D01*
X140171745Y-106844684D01*
X140120615Y-106708295D01*
X140033261Y-106591739D01*
X139916705Y-106504385D01*
X139780316Y-106453255D01*
X139718134Y-106446500D01*
X138793222Y-106446500D01*
X138725101Y-106426498D01*
X138678608Y-106372842D01*
X138668504Y-106302568D01*
X138673389Y-106281564D01*
X138686502Y-106241206D01*
X138688542Y-106234928D01*
X138708504Y-106045000D01*
X138688542Y-105855072D01*
X138629527Y-105673444D01*
X138577020Y-105582499D01*
X138560282Y-105513505D01*
X138583502Y-105446413D01*
X138639309Y-105402526D01*
X138686139Y-105393500D01*
X138916983Y-105393500D01*
X138928166Y-105394027D01*
X138935659Y-105395702D01*
X138943585Y-105395453D01*
X138943586Y-105395453D01*
X139003736Y-105393562D01*
X139007695Y-105393500D01*
X139035606Y-105393500D01*
X139039541Y-105393003D01*
X139039606Y-105392995D01*
X139051443Y-105392062D01*
X139083701Y-105391048D01*
X139087720Y-105390922D01*
X139095639Y-105390673D01*
X139115093Y-105385021D01*
X139134450Y-105381013D01*
X139146680Y-105379468D01*
X139146681Y-105379468D01*
X139154547Y-105378474D01*
X139161918Y-105375555D01*
X139161920Y-105375555D01*
X139195662Y-105362196D01*
X139206892Y-105358351D01*
X139241733Y-105348229D01*
X139241734Y-105348229D01*
X139249343Y-105346018D01*
X139256162Y-105341985D01*
X139256167Y-105341983D01*
X139266778Y-105335707D01*
X139284526Y-105327012D01*
X139303367Y-105319552D01*
X139339137Y-105293564D01*
X139349057Y-105287048D01*
X139380285Y-105268580D01*
X139380288Y-105268578D01*
X139387112Y-105264542D01*
X139401433Y-105250221D01*
X139416467Y-105237380D01*
X139426444Y-105230131D01*
X139432857Y-105225472D01*
X139437907Y-105219368D01*
X139437912Y-105219363D01*
X139461043Y-105191402D01*
X139469033Y-105182621D01*
X140111751Y-104539904D01*
X140174063Y-104505879D01*
X140200846Y-104503000D01*
X140256737Y-104503000D01*
X140263189Y-104501628D01*
X140263194Y-104501628D01*
X140350138Y-104483147D01*
X140443538Y-104463294D01*
X140580300Y-104402404D01*
X140611972Y-104388303D01*
X140611974Y-104388302D01*
X140618002Y-104385618D01*
X140772503Y-104273366D01*
X140900290Y-104131444D01*
X140963647Y-104021707D01*
X140992473Y-103971779D01*
X140992474Y-103971778D01*
X140995777Y-103966056D01*
X141054792Y-103784428D01*
X141055482Y-103777865D01*
X141072460Y-103616329D01*
X141099473Y-103550673D01*
X141157695Y-103510043D01*
X141197770Y-103503500D01*
X143892483Y-103503500D01*
X143903666Y-103504027D01*
X143911159Y-103505702D01*
X143919085Y-103505453D01*
X143919086Y-103505453D01*
X143979236Y-103503562D01*
X143983195Y-103503500D01*
X144011106Y-103503500D01*
X144015041Y-103503003D01*
X144015106Y-103502995D01*
X144026943Y-103502062D01*
X144059201Y-103501048D01*
X144063220Y-103500922D01*
X144071139Y-103500673D01*
X144090593Y-103495021D01*
X144109950Y-103491013D01*
X144122180Y-103489468D01*
X144122181Y-103489468D01*
X144130047Y-103488474D01*
X144137418Y-103485555D01*
X144137420Y-103485555D01*
X144171162Y-103472196D01*
X144182392Y-103468351D01*
X144217233Y-103458229D01*
X144217234Y-103458229D01*
X144224843Y-103456018D01*
X144231662Y-103451985D01*
X144231667Y-103451983D01*
X144242278Y-103445707D01*
X144260026Y-103437012D01*
X144278867Y-103429552D01*
X144314637Y-103403564D01*
X144324557Y-103397048D01*
X144355785Y-103378580D01*
X144355788Y-103378578D01*
X144362612Y-103374542D01*
X144376933Y-103360221D01*
X144391967Y-103347380D01*
X144401944Y-103340131D01*
X144408357Y-103335472D01*
X144436548Y-103301395D01*
X144444538Y-103292616D01*
X145633497Y-102103657D01*
X145641787Y-102096113D01*
X145648268Y-102092000D01*
X145694909Y-102042332D01*
X145697663Y-102039491D01*
X145717384Y-102019770D01*
X145719862Y-102016575D01*
X145727568Y-102007553D01*
X145752408Y-101981101D01*
X145757836Y-101975321D01*
X145767596Y-101957568D01*
X145778449Y-101941045D01*
X145786003Y-101931306D01*
X145790863Y-101925041D01*
X145808426Y-101884457D01*
X145813633Y-101873827D01*
X145834945Y-101835060D01*
X145836916Y-101827383D01*
X145836918Y-101827378D01*
X145839982Y-101815442D01*
X145846388Y-101796730D01*
X145851283Y-101785419D01*
X145854431Y-101778145D01*
X145855671Y-101770317D01*
X145855673Y-101770310D01*
X145861349Y-101734476D01*
X145863755Y-101722856D01*
X145872778Y-101687711D01*
X145872778Y-101687710D01*
X145874750Y-101680030D01*
X145874750Y-101659776D01*
X145876301Y-101640065D01*
X145878230Y-101627886D01*
X145879470Y-101620057D01*
X145875309Y-101576038D01*
X145874750Y-101564181D01*
X145874750Y-97863767D01*
X145875277Y-97852584D01*
X145876952Y-97845091D01*
X145875744Y-97806646D01*
X145874812Y-97777014D01*
X145874750Y-97773055D01*
X145874750Y-97745144D01*
X145874245Y-97741144D01*
X145873312Y-97729301D01*
X145873286Y-97728454D01*
X145871923Y-97685110D01*
X145866272Y-97665658D01*
X145862264Y-97646306D01*
X145860717Y-97634063D01*
X145859724Y-97626203D01*
X145856806Y-97618832D01*
X145843450Y-97585097D01*
X145839605Y-97573870D01*
X145835490Y-97559707D01*
X145827268Y-97531407D01*
X145816957Y-97513972D01*
X145808262Y-97496224D01*
X145800802Y-97477383D01*
X145774814Y-97441613D01*
X145768298Y-97431693D01*
X145749830Y-97400465D01*
X145749828Y-97400462D01*
X145745792Y-97393638D01*
X145731471Y-97379317D01*
X145718630Y-97364283D01*
X145715154Y-97359499D01*
X145706722Y-97347893D01*
X145672645Y-97319702D01*
X145663866Y-97311712D01*
X144077468Y-95725313D01*
X144043442Y-95663001D01*
X144046005Y-95599589D01*
X144047913Y-95593311D01*
X144058620Y-95558069D01*
X144087779Y-95336590D01*
X144089406Y-95270000D01*
X144071102Y-95047361D01*
X144016681Y-94830702D01*
X143927604Y-94625840D01*
X143862953Y-94525905D01*
X143809072Y-94442617D01*
X143809070Y-94442614D01*
X143806264Y-94438277D01*
X143655920Y-94273051D01*
X143651869Y-94269852D01*
X143651865Y-94269848D01*
X143484664Y-94137800D01*
X143484660Y-94137798D01*
X143480609Y-94134598D01*
X143439303Y-94111796D01*
X143389334Y-94061364D01*
X143374562Y-93991921D01*
X143399678Y-93925516D01*
X143427030Y-93898909D01*
X143471934Y-93866879D01*
X143606110Y-93771173D01*
X143620555Y-93756779D01*
X143760685Y-93617137D01*
X143764346Y-93613489D01*
X143769725Y-93606004D01*
X143891685Y-93436277D01*
X143894703Y-93432077D01*
X143915044Y-93390921D01*
X143991386Y-93236453D01*
X143991387Y-93236451D01*
X143993680Y-93231811D01*
X144058620Y-93018069D01*
X144087779Y-92796590D01*
X144089406Y-92730000D01*
X144071102Y-92507361D01*
X144016681Y-92290702D01*
X143927604Y-92085840D01*
X143806264Y-91898277D01*
X143655920Y-91733051D01*
X143651869Y-91729852D01*
X143651865Y-91729848D01*
X143484664Y-91597800D01*
X143484660Y-91597798D01*
X143480609Y-91594598D01*
X143439303Y-91571796D01*
X143389334Y-91521364D01*
X143374562Y-91451921D01*
X143399678Y-91385516D01*
X143427030Y-91358909D01*
X143470853Y-91327650D01*
X143606110Y-91231173D01*
X143764346Y-91073489D01*
X143894703Y-90892077D01*
X143898861Y-90883665D01*
X143991386Y-90696453D01*
X143991387Y-90696451D01*
X143993680Y-90691811D01*
X144036462Y-90551000D01*
X144057115Y-90483023D01*
X144057115Y-90483021D01*
X144058620Y-90478069D01*
X144087779Y-90256590D01*
X144088275Y-90236301D01*
X144089324Y-90193365D01*
X144089324Y-90193361D01*
X144089406Y-90190000D01*
X144071102Y-89967361D01*
X144016681Y-89750702D01*
X143927604Y-89545840D01*
X143858161Y-89438498D01*
X143809072Y-89362617D01*
X143809070Y-89362614D01*
X143806264Y-89358277D01*
X143655920Y-89193051D01*
X143651869Y-89189852D01*
X143651865Y-89189848D01*
X143484664Y-89057800D01*
X143484660Y-89057798D01*
X143480609Y-89054598D01*
X143439303Y-89031796D01*
X143389334Y-88981364D01*
X143374562Y-88911921D01*
X143399678Y-88845516D01*
X143427030Y-88818909D01*
X143470853Y-88787650D01*
X143606110Y-88691173D01*
X143764346Y-88533489D01*
X143826313Y-88447253D01*
X143891685Y-88356277D01*
X143894703Y-88352077D01*
X143898013Y-88345381D01*
X143991386Y-88156453D01*
X143991387Y-88156451D01*
X143993680Y-88151811D01*
X144049293Y-87968767D01*
X144057115Y-87943023D01*
X144057115Y-87943021D01*
X144058620Y-87938069D01*
X144087779Y-87716590D01*
X144087861Y-87713240D01*
X144089324Y-87653365D01*
X144089324Y-87653361D01*
X144089406Y-87650000D01*
X144071102Y-87427361D01*
X144016681Y-87210702D01*
X143927604Y-87005840D01*
X143870678Y-86917846D01*
X143809072Y-86822617D01*
X143809070Y-86822614D01*
X143806264Y-86818277D01*
X143655920Y-86653051D01*
X143651869Y-86649852D01*
X143651865Y-86649848D01*
X143484664Y-86517800D01*
X143484660Y-86517798D01*
X143480609Y-86514598D01*
X143439303Y-86491796D01*
X143389334Y-86441364D01*
X143374562Y-86371921D01*
X143399678Y-86305516D01*
X143427030Y-86278909D01*
X143487043Y-86236102D01*
X143606110Y-86151173D01*
X143632048Y-86125326D01*
X143735639Y-86022096D01*
X143764346Y-85993489D01*
X143782553Y-85968152D01*
X143891685Y-85816277D01*
X143894703Y-85812077D01*
X143934495Y-85731565D01*
X143991386Y-85616453D01*
X143991387Y-85616451D01*
X143993680Y-85611811D01*
X144029582Y-85493643D01*
X144057115Y-85403023D01*
X144057115Y-85403021D01*
X144058620Y-85398069D01*
X144087779Y-85176590D01*
X144089406Y-85110000D01*
X144071102Y-84887361D01*
X144016681Y-84670702D01*
X143927604Y-84465840D01*
X143880805Y-84393500D01*
X143809072Y-84282617D01*
X143809070Y-84282614D01*
X143806264Y-84278277D01*
X143655920Y-84113051D01*
X143651869Y-84109852D01*
X143651865Y-84109848D01*
X143484664Y-83977800D01*
X143484660Y-83977798D01*
X143480609Y-83974598D01*
X143439303Y-83951796D01*
X143389334Y-83901364D01*
X143374562Y-83831921D01*
X143399678Y-83765516D01*
X143427030Y-83738909D01*
X143493872Y-83691231D01*
X143606110Y-83611173D01*
X143609954Y-83607343D01*
X143760685Y-83457137D01*
X143764346Y-83453489D01*
X143894703Y-83272077D01*
X143924303Y-83212187D01*
X143991386Y-83076453D01*
X143991387Y-83076451D01*
X143993680Y-83071811D01*
X144044218Y-82905473D01*
X144057115Y-82863023D01*
X144057115Y-82863021D01*
X144058620Y-82858069D01*
X144087779Y-82636590D01*
X144089280Y-82575165D01*
X144089324Y-82573365D01*
X144089324Y-82573361D01*
X144089406Y-82570000D01*
X144071102Y-82347361D01*
X144016681Y-82130702D01*
X143927604Y-81925840D01*
X143806264Y-81738277D01*
X143655920Y-81573051D01*
X143651869Y-81569852D01*
X143651865Y-81569848D01*
X143484664Y-81437800D01*
X143484660Y-81437798D01*
X143480609Y-81434598D01*
X143439303Y-81411796D01*
X143389334Y-81361364D01*
X143374562Y-81291921D01*
X143399678Y-81225516D01*
X143427030Y-81198909D01*
X143536305Y-81120964D01*
X143606110Y-81071173D01*
X143764346Y-80913489D01*
X143815564Y-80842212D01*
X143891685Y-80736277D01*
X143894703Y-80732077D01*
X143896996Y-80727437D01*
X143898696Y-80724608D01*
X143950924Y-80676518D01*
X144006701Y-80663500D01*
X144367658Y-80663500D01*
X144435779Y-80683502D01*
X144466405Y-80711237D01*
X144467394Y-80712484D01*
X144471248Y-80718713D01*
X144592298Y-80839552D01*
X144598528Y-80843392D01*
X144598529Y-80843393D01*
X144730020Y-80924445D01*
X144737899Y-80929302D01*
X144900243Y-80983149D01*
X144907080Y-80983849D01*
X144907082Y-80983850D01*
X144948401Y-80988083D01*
X145001268Y-80993500D01*
X145548732Y-80993500D01*
X145551978Y-80993163D01*
X145551982Y-80993163D01*
X145586083Y-80989625D01*
X145651019Y-80982887D01*
X145745807Y-80951263D01*
X145806324Y-80931073D01*
X145806326Y-80931072D01*
X145813268Y-80928756D01*
X145832570Y-80916812D01*
X145952485Y-80842606D01*
X145958713Y-80838752D01*
X145963886Y-80833570D01*
X145969623Y-80829023D01*
X145971055Y-80830830D01*
X146023575Y-80802098D01*
X146094395Y-80807108D01*
X146130853Y-80830499D01*
X146131683Y-80829448D01*
X146148840Y-80842998D01*
X146281880Y-80925004D01*
X146295061Y-80931151D01*
X146443814Y-80980491D01*
X146457190Y-80983358D01*
X146548097Y-80992672D01*
X146553126Y-80992929D01*
X146568124Y-80988525D01*
X146569329Y-80987135D01*
X146571000Y-80979452D01*
X146571000Y-80974885D01*
X147079000Y-80974885D01*
X147083475Y-80990124D01*
X147084865Y-80991329D01*
X147092548Y-80993000D01*
X147095438Y-80993000D01*
X147101953Y-80992663D01*
X147194057Y-80983106D01*
X147207456Y-80980212D01*
X147356107Y-80930619D01*
X147369286Y-80924445D01*
X147502173Y-80842212D01*
X147513574Y-80833176D01*
X147623986Y-80722571D01*
X147632998Y-80711160D01*
X147715004Y-80578120D01*
X147721151Y-80564939D01*
X147770491Y-80416186D01*
X147773358Y-80402810D01*
X147782672Y-80311903D01*
X147783000Y-80305487D01*
X147783000Y-80282115D01*
X147778525Y-80266876D01*
X147777135Y-80265671D01*
X147769452Y-80264000D01*
X147097115Y-80264000D01*
X147081876Y-80268475D01*
X147080671Y-80269865D01*
X147079000Y-80277548D01*
X147079000Y-80974885D01*
X146571000Y-80974885D01*
X146571000Y-79737885D01*
X147079000Y-79737885D01*
X147083475Y-79753124D01*
X147084865Y-79754329D01*
X147092548Y-79756000D01*
X147764885Y-79756000D01*
X147780124Y-79751525D01*
X147781329Y-79750135D01*
X147783000Y-79742452D01*
X147783000Y-79714562D01*
X147782663Y-79708047D01*
X147773106Y-79615943D01*
X147770212Y-79602544D01*
X147720619Y-79453893D01*
X147714445Y-79440714D01*
X147632212Y-79307827D01*
X147623176Y-79296426D01*
X147512571Y-79186014D01*
X147501160Y-79177002D01*
X147368120Y-79094996D01*
X147354939Y-79088849D01*
X147206186Y-79039509D01*
X147192810Y-79036642D01*
X147101903Y-79027328D01*
X147096874Y-79027071D01*
X147081876Y-79031475D01*
X147080671Y-79032865D01*
X147079000Y-79040548D01*
X147079000Y-79737885D01*
X146571000Y-79737885D01*
X146571000Y-79045115D01*
X146566525Y-79029876D01*
X146565135Y-79028671D01*
X146557452Y-79027000D01*
X146554562Y-79027000D01*
X146548047Y-79027337D01*
X146455943Y-79036894D01*
X146442544Y-79039788D01*
X146293893Y-79089381D01*
X146280714Y-79095555D01*
X146147827Y-79177788D01*
X146130689Y-79191371D01*
X146129159Y-79189441D01*
X146077120Y-79217903D01*
X146006301Y-79212887D01*
X145969383Y-79189201D01*
X145968628Y-79190157D01*
X145962882Y-79185619D01*
X145957702Y-79180448D01*
X145938158Y-79168401D01*
X145818331Y-79094538D01*
X145818329Y-79094537D01*
X145812101Y-79090698D01*
X145649757Y-79036851D01*
X145642920Y-79036151D01*
X145642918Y-79036150D01*
X145601599Y-79031917D01*
X145548732Y-79026500D01*
X145001268Y-79026500D01*
X144998022Y-79026837D01*
X144998018Y-79026837D01*
X144969000Y-79029848D01*
X144898981Y-79037113D01*
X144864263Y-79048696D01*
X144743676Y-79088927D01*
X144743674Y-79088928D01*
X144736732Y-79091244D01*
X144730508Y-79095096D01*
X144730507Y-79095096D01*
X144708585Y-79108662D01*
X144591287Y-79181248D01*
X144586114Y-79186430D01*
X144582393Y-79190158D01*
X144470448Y-79302298D01*
X144466608Y-79308528D01*
X144466607Y-79308529D01*
X144449294Y-79336616D01*
X144396522Y-79384109D01*
X144342034Y-79396500D01*
X144003055Y-79396500D01*
X143934934Y-79376498D01*
X143897263Y-79338940D01*
X143809072Y-79202617D01*
X143809070Y-79202614D01*
X143806264Y-79198277D01*
X143655920Y-79033051D01*
X143651869Y-79029852D01*
X143651865Y-79029848D01*
X143484664Y-78897800D01*
X143484660Y-78897798D01*
X143480609Y-78894598D01*
X143439303Y-78871796D01*
X143389334Y-78821364D01*
X143374562Y-78751921D01*
X143399678Y-78685516D01*
X143427030Y-78658909D01*
X143470853Y-78627650D01*
X143606110Y-78531173D01*
X143612537Y-78524769D01*
X143760685Y-78377137D01*
X143764346Y-78373489D01*
X143823844Y-78290689D01*
X143891685Y-78196277D01*
X143894703Y-78192077D01*
X143924288Y-78132217D01*
X143991386Y-77996453D01*
X143991387Y-77996451D01*
X143993680Y-77991811D01*
X144058620Y-77778069D01*
X144087779Y-77556590D01*
X144089406Y-77490000D01*
X144071102Y-77267361D01*
X144016681Y-77050702D01*
X143927604Y-76845840D01*
X143888156Y-76784862D01*
X143809072Y-76662617D01*
X143809070Y-76662614D01*
X143806264Y-76658277D01*
X143655920Y-76493051D01*
X143651869Y-76489852D01*
X143651865Y-76489848D01*
X143484664Y-76357800D01*
X143484660Y-76357798D01*
X143480609Y-76354598D01*
X143438819Y-76331529D01*
X143388848Y-76281097D01*
X143374076Y-76211654D01*
X143399192Y-76145248D01*
X143426544Y-76118641D01*
X143601578Y-75993792D01*
X143609450Y-75987139D01*
X143760302Y-75836812D01*
X143766980Y-75828965D01*
X143891253Y-75656020D01*
X143896563Y-75647183D01*
X143990920Y-75456267D01*
X143994719Y-75446672D01*
X144056627Y-75242910D01*
X144058805Y-75232837D01*
X144060236Y-75221962D01*
X144058025Y-75207778D01*
X144044867Y-75204000D01*
X142598250Y-75204000D01*
X142530129Y-75183998D01*
X142483636Y-75130342D01*
X142472250Y-75078000D01*
X142472250Y-74822000D01*
X142492252Y-74753879D01*
X142545908Y-74707386D01*
X142598250Y-74696000D01*
X144044594Y-74696000D01*
X144058125Y-74692027D01*
X144059430Y-74682947D01*
X144017464Y-74515875D01*
X144014144Y-74506124D01*
X143929222Y-74310814D01*
X143924355Y-74301739D01*
X143808676Y-74122926D01*
X143802386Y-74114757D01*
X143658543Y-73956677D01*
X143627491Y-73892831D01*
X143635885Y-73822333D01*
X143681062Y-73767564D01*
X143707506Y-73753895D01*
X143814547Y-73713767D01*
X143822955Y-73710615D01*
X143939511Y-73623261D01*
X144026865Y-73506705D01*
X144077995Y-73370316D01*
X144084750Y-73308134D01*
X144084750Y-73169500D01*
X144104752Y-73101379D01*
X144158408Y-73054886D01*
X144210750Y-73043500D01*
X144367658Y-73043500D01*
X144435779Y-73063502D01*
X144466405Y-73091237D01*
X144467394Y-73092484D01*
X144471248Y-73098713D01*
X144592298Y-73219552D01*
X144598528Y-73223392D01*
X144598529Y-73223393D01*
X144730461Y-73304717D01*
X144737899Y-73309302D01*
X144900243Y-73363149D01*
X144907080Y-73363849D01*
X144907082Y-73363850D01*
X144948401Y-73368083D01*
X145001268Y-73373500D01*
X145548732Y-73373500D01*
X145551978Y-73373163D01*
X145551982Y-73373163D01*
X145586083Y-73369625D01*
X145651019Y-73362887D01*
X145734729Y-73334959D01*
X145806324Y-73311073D01*
X145806326Y-73311072D01*
X145813268Y-73308756D01*
X145958713Y-73218752D01*
X145963886Y-73213570D01*
X145969623Y-73209023D01*
X145971055Y-73210830D01*
X146023575Y-73182098D01*
X146094395Y-73187108D01*
X146130853Y-73210499D01*
X146131683Y-73209448D01*
X146148840Y-73222998D01*
X146281880Y-73305004D01*
X146295061Y-73311151D01*
X146443814Y-73360491D01*
X146457190Y-73363358D01*
X146548097Y-73372672D01*
X146553126Y-73372929D01*
X146568124Y-73368525D01*
X146569329Y-73367135D01*
X146571000Y-73359452D01*
X146571000Y-73354885D01*
X147079000Y-73354885D01*
X147083475Y-73370124D01*
X147084865Y-73371329D01*
X147092548Y-73373000D01*
X147095438Y-73373000D01*
X147101953Y-73372663D01*
X147194057Y-73363106D01*
X147207456Y-73360212D01*
X147356107Y-73310619D01*
X147369286Y-73304445D01*
X147502173Y-73222212D01*
X147513574Y-73213176D01*
X147623986Y-73102571D01*
X147632998Y-73091160D01*
X147715004Y-72958120D01*
X147721151Y-72944939D01*
X147770491Y-72796186D01*
X147773358Y-72782810D01*
X147782672Y-72691903D01*
X147783000Y-72685487D01*
X147783000Y-72662115D01*
X147778525Y-72646876D01*
X147777135Y-72645671D01*
X147769452Y-72644000D01*
X147097115Y-72644000D01*
X147081876Y-72648475D01*
X147080671Y-72649865D01*
X147079000Y-72657548D01*
X147079000Y-73354885D01*
X146571000Y-73354885D01*
X146571000Y-72117885D01*
X147079000Y-72117885D01*
X147083475Y-72133124D01*
X147084865Y-72134329D01*
X147092548Y-72136000D01*
X147764885Y-72136000D01*
X147780124Y-72131525D01*
X147781329Y-72130135D01*
X147783000Y-72122452D01*
X147783000Y-72094562D01*
X147782663Y-72088047D01*
X147773106Y-71995943D01*
X147770212Y-71982544D01*
X147720619Y-71833893D01*
X147714445Y-71820714D01*
X147632212Y-71687827D01*
X147623176Y-71676426D01*
X147512571Y-71566014D01*
X147501160Y-71557002D01*
X147368120Y-71474996D01*
X147354939Y-71468849D01*
X147206186Y-71419509D01*
X147192810Y-71416642D01*
X147101903Y-71407328D01*
X147096874Y-71407071D01*
X147081876Y-71411475D01*
X147080671Y-71412865D01*
X147079000Y-71420548D01*
X147079000Y-72117885D01*
X146571000Y-72117885D01*
X146571000Y-71425115D01*
X146566525Y-71409876D01*
X146565135Y-71408671D01*
X146557452Y-71407000D01*
X146554562Y-71407000D01*
X146548047Y-71407337D01*
X146455943Y-71416894D01*
X146442544Y-71419788D01*
X146293893Y-71469381D01*
X146280714Y-71475555D01*
X146147827Y-71557788D01*
X146130689Y-71571371D01*
X146129159Y-71569441D01*
X146077120Y-71597903D01*
X146006301Y-71592887D01*
X145969383Y-71569201D01*
X145968628Y-71570157D01*
X145962882Y-71565619D01*
X145957702Y-71560448D01*
X145873377Y-71508469D01*
X145818331Y-71474538D01*
X145818329Y-71474537D01*
X145812101Y-71470698D01*
X145649757Y-71416851D01*
X145642920Y-71416151D01*
X145642918Y-71416150D01*
X145601599Y-71411917D01*
X145548732Y-71406500D01*
X145001268Y-71406500D01*
X144998022Y-71406837D01*
X144998018Y-71406837D01*
X144968730Y-71409876D01*
X144898981Y-71417113D01*
X144890963Y-71419788D01*
X144743676Y-71468927D01*
X144743674Y-71468928D01*
X144736732Y-71471244D01*
X144730508Y-71475096D01*
X144730507Y-71475096D01*
X144665566Y-71515283D01*
X144591287Y-71561248D01*
X144586114Y-71566430D01*
X144581182Y-71571371D01*
X144470448Y-71682298D01*
X144466608Y-71688528D01*
X144466607Y-71688529D01*
X144449294Y-71716616D01*
X144396522Y-71764109D01*
X144342034Y-71776500D01*
X144210750Y-71776500D01*
X144142629Y-71756498D01*
X144096136Y-71702842D01*
X144084750Y-71650500D01*
X144084750Y-71511866D01*
X144077995Y-71449684D01*
X144026865Y-71313295D01*
X143939511Y-71196739D01*
X143822955Y-71109385D01*
X143686566Y-71058255D01*
X143624384Y-71051500D01*
X141828116Y-71051500D01*
X141765934Y-71058255D01*
X141629545Y-71109385D01*
X141512989Y-71196739D01*
X141425635Y-71313295D01*
X141374505Y-71449684D01*
X141367750Y-71511866D01*
X141367750Y-72140405D01*
X141347748Y-72208526D01*
X141330845Y-72229501D01*
X140777535Y-72782810D01*
X140403992Y-73156353D01*
X140395713Y-73163887D01*
X140389232Y-73168000D01*
X140371289Y-73187108D01*
X140342607Y-73217651D01*
X140339852Y-73220493D01*
X140320115Y-73240230D01*
X140317635Y-73243427D01*
X140309932Y-73252447D01*
X140279664Y-73284679D01*
X140275845Y-73291625D01*
X140275843Y-73291628D01*
X140269902Y-73302434D01*
X140259051Y-73318953D01*
X140246636Y-73334959D01*
X140243491Y-73342228D01*
X140243488Y-73342232D01*
X140229076Y-73375537D01*
X140223859Y-73386187D01*
X140202555Y-73424940D01*
X140200584Y-73432615D01*
X140200584Y-73432616D01*
X140197517Y-73444562D01*
X140191113Y-73463266D01*
X140183069Y-73481855D01*
X140181830Y-73489678D01*
X140181827Y-73489688D01*
X140176151Y-73525524D01*
X140173745Y-73537144D01*
X140162750Y-73579970D01*
X140162750Y-73600224D01*
X140161199Y-73619934D01*
X140158030Y-73639943D01*
X140158776Y-73647835D01*
X140162191Y-73683961D01*
X140162750Y-73695819D01*
X140162750Y-77708852D01*
X140142748Y-77776973D01*
X140089092Y-77823466D01*
X140062951Y-77832098D01*
X139878962Y-77871206D01*
X139872930Y-77873892D01*
X139866650Y-77875932D01*
X139866003Y-77873940D01*
X139805397Y-77882074D01*
X139741097Y-77851975D01*
X139703276Y-77791891D01*
X139698500Y-77757530D01*
X139698500Y-68990438D01*
X142527000Y-68990438D01*
X142527337Y-68996953D01*
X142536894Y-69089057D01*
X142539788Y-69102456D01*
X142589381Y-69251107D01*
X142595555Y-69264286D01*
X142677788Y-69397173D01*
X142686824Y-69408574D01*
X142797429Y-69518986D01*
X142808840Y-69527998D01*
X142941880Y-69610004D01*
X142955061Y-69616151D01*
X143103814Y-69665491D01*
X143117190Y-69668358D01*
X143208097Y-69677672D01*
X143214513Y-69678000D01*
X143237885Y-69678000D01*
X143253124Y-69673525D01*
X143254329Y-69672135D01*
X143256000Y-69664452D01*
X143256000Y-69659885D01*
X143764000Y-69659885D01*
X143768475Y-69675124D01*
X143769865Y-69676329D01*
X143777548Y-69678000D01*
X143805438Y-69678000D01*
X143811953Y-69677663D01*
X143904057Y-69668106D01*
X143917456Y-69665212D01*
X144066107Y-69615619D01*
X144079286Y-69609445D01*
X144212173Y-69527212D01*
X144223574Y-69518176D01*
X144333986Y-69407571D01*
X144342998Y-69396160D01*
X144425004Y-69263120D01*
X144431151Y-69249939D01*
X144480491Y-69101186D01*
X144483358Y-69087810D01*
X144492672Y-68996903D01*
X144492929Y-68991874D01*
X144488525Y-68976876D01*
X144487135Y-68975671D01*
X144479452Y-68974000D01*
X143782115Y-68974000D01*
X143766876Y-68978475D01*
X143765671Y-68979865D01*
X143764000Y-68987548D01*
X143764000Y-69659885D01*
X143256000Y-69659885D01*
X143256000Y-68992115D01*
X143251525Y-68976876D01*
X143250135Y-68975671D01*
X143242452Y-68974000D01*
X142545115Y-68974000D01*
X142529876Y-68978475D01*
X142528671Y-68979865D01*
X142527000Y-68987548D01*
X142527000Y-68990438D01*
X139698500Y-68990438D01*
X139698500Y-65709594D01*
X139718502Y-65641473D01*
X139735405Y-65620499D01*
X140988154Y-64367750D01*
X141050466Y-64333724D01*
X141090091Y-64331501D01*
X141109600Y-64333500D01*
X141910400Y-64333500D01*
X141913646Y-64333163D01*
X141913650Y-64333163D01*
X142009308Y-64323238D01*
X142009312Y-64323237D01*
X142016166Y-64322526D01*
X142022702Y-64320345D01*
X142022704Y-64320345D01*
X142176998Y-64268868D01*
X142183946Y-64266550D01*
X142334348Y-64173478D01*
X142459305Y-64048303D01*
X142491075Y-63996764D01*
X142543846Y-63949271D01*
X142613918Y-63937847D01*
X142679042Y-63966121D01*
X142697418Y-63985045D01*
X142703604Y-63992920D01*
X142833082Y-64105275D01*
X142871421Y-64165027D01*
X142876500Y-64200439D01*
X142876500Y-66249501D01*
X142856498Y-66317622D01*
X142816805Y-66356644D01*
X142807512Y-66362395D01*
X142807507Y-66362399D01*
X142801287Y-66366248D01*
X142680448Y-66487298D01*
X142676608Y-66493528D01*
X142676607Y-66493529D01*
X142595255Y-66625507D01*
X142590698Y-66632899D01*
X142536851Y-66795243D01*
X142526500Y-66896268D01*
X142526500Y-67443732D01*
X142537113Y-67546019D01*
X142539295Y-67552559D01*
X142588537Y-67700153D01*
X142591244Y-67708268D01*
X142681248Y-67853713D01*
X142686430Y-67858886D01*
X142690977Y-67864623D01*
X142689170Y-67866055D01*
X142717902Y-67918575D01*
X142712892Y-67989395D01*
X142689501Y-68025853D01*
X142690552Y-68026683D01*
X142677002Y-68043840D01*
X142594996Y-68176880D01*
X142588849Y-68190061D01*
X142539509Y-68338814D01*
X142536642Y-68352190D01*
X142527328Y-68443097D01*
X142527071Y-68448126D01*
X142531475Y-68463124D01*
X142532865Y-68464329D01*
X142540548Y-68466000D01*
X144474885Y-68466000D01*
X144490124Y-68461525D01*
X144491329Y-68460135D01*
X144493000Y-68452452D01*
X144493000Y-68449562D01*
X144492663Y-68443047D01*
X144483106Y-68350943D01*
X144480212Y-68337544D01*
X144430619Y-68188893D01*
X144424445Y-68175714D01*
X144342212Y-68042827D01*
X144328629Y-68025689D01*
X144330559Y-68024159D01*
X144302097Y-67972120D01*
X144307113Y-67901301D01*
X144330799Y-67864383D01*
X144329843Y-67863628D01*
X144334381Y-67857882D01*
X144339552Y-67852702D01*
X144343393Y-67846471D01*
X144425462Y-67713331D01*
X144425463Y-67713329D01*
X144429302Y-67707101D01*
X144483149Y-67544757D01*
X144493500Y-67443732D01*
X144493500Y-66896268D01*
X144482887Y-66793981D01*
X144471304Y-66759263D01*
X144431073Y-66638676D01*
X144431072Y-66638674D01*
X144428756Y-66631732D01*
X144338752Y-66486287D01*
X144217702Y-66365448D01*
X144211468Y-66361605D01*
X144203383Y-66356621D01*
X144155890Y-66303848D01*
X144143500Y-66249362D01*
X144143500Y-64199807D01*
X144163502Y-64131686D01*
X144196601Y-64097037D01*
X144232720Y-64071416D01*
X144232724Y-64071413D01*
X144237611Y-64067946D01*
X144383881Y-63915150D01*
X144387130Y-63910119D01*
X144387135Y-63910112D01*
X144405033Y-63882393D01*
X144458789Y-63836016D01*
X144529085Y-63826063D01*
X144593602Y-63855696D01*
X144609970Y-63872909D01*
X144700262Y-63987857D01*
X144708499Y-63996506D01*
X144859123Y-64127212D01*
X144868847Y-64134147D01*
X145041467Y-64234010D01*
X145052331Y-64238984D01*
X145240727Y-64304407D01*
X145241716Y-64304648D01*
X145252008Y-64303180D01*
X145256000Y-64289615D01*
X145256000Y-64285402D01*
X145764000Y-64285402D01*
X145767973Y-64298933D01*
X145777399Y-64300288D01*
X145866537Y-64278806D01*
X145877832Y-64274917D01*
X146059382Y-64192371D01*
X146069724Y-64186424D01*
X146232397Y-64071032D01*
X146241425Y-64063239D01*
X146379342Y-63919169D01*
X146386738Y-63909804D01*
X146494921Y-63742259D01*
X146500417Y-63731655D01*
X146574961Y-63546688D01*
X146578355Y-63535230D01*
X146616857Y-63338072D01*
X146617934Y-63329209D01*
X146618000Y-63326500D01*
X146618000Y-63222115D01*
X146613525Y-63206876D01*
X146612135Y-63205671D01*
X146604452Y-63204000D01*
X145782115Y-63204000D01*
X145766876Y-63208475D01*
X145765671Y-63209865D01*
X145764000Y-63217548D01*
X145764000Y-64285402D01*
X145256000Y-64285402D01*
X145256000Y-62677885D01*
X145764000Y-62677885D01*
X145768475Y-62693124D01*
X145769865Y-62694329D01*
X145777548Y-62696000D01*
X146599885Y-62696000D01*
X146615124Y-62691525D01*
X146616329Y-62690135D01*
X146618000Y-62682452D01*
X146618000Y-62625168D01*
X146617715Y-62619192D01*
X146603529Y-62470506D01*
X146601270Y-62458772D01*
X146545128Y-62267401D01*
X146540698Y-62256325D01*
X146449381Y-62079022D01*
X146442931Y-62068976D01*
X146319738Y-61912143D01*
X146311501Y-61903494D01*
X146160877Y-61772788D01*
X146151153Y-61765853D01*
X145978533Y-61665990D01*
X145967669Y-61661016D01*
X145779273Y-61595593D01*
X145778284Y-61595352D01*
X145767992Y-61596820D01*
X145764000Y-61610385D01*
X145764000Y-62677885D01*
X145256000Y-62677885D01*
X145256000Y-61614598D01*
X145252027Y-61601067D01*
X145242601Y-61599712D01*
X145153463Y-61621194D01*
X145142168Y-61625083D01*
X144960618Y-61707629D01*
X144950276Y-61713576D01*
X144787603Y-61828968D01*
X144778575Y-61836761D01*
X144640658Y-61980831D01*
X144633259Y-61990200D01*
X144615582Y-62017577D01*
X144561828Y-62063955D01*
X144491532Y-62073909D01*
X144427015Y-62044278D01*
X144410644Y-62027063D01*
X144403193Y-62017577D01*
X144316396Y-61907080D01*
X144311865Y-61903148D01*
X144311862Y-61903145D01*
X144161167Y-61772379D01*
X144156637Y-61768448D01*
X144151451Y-61765448D01*
X144151447Y-61765445D01*
X143978742Y-61665533D01*
X143973546Y-61662527D01*
X143773729Y-61593139D01*
X143767794Y-61592278D01*
X143767792Y-61592278D01*
X143570336Y-61563648D01*
X143570333Y-61563648D01*
X143564396Y-61562787D01*
X143353101Y-61572567D01*
X143240466Y-61599712D01*
X143153299Y-61620719D01*
X143153297Y-61620720D01*
X143147466Y-61622125D01*
X143142008Y-61624607D01*
X143142004Y-61624608D01*
X143050990Y-61665990D01*
X142954913Y-61709674D01*
X142782389Y-61832054D01*
X142778247Y-61836381D01*
X142778241Y-61836386D01*
X142691194Y-61927317D01*
X142629639Y-61962694D01*
X142558730Y-61959175D01*
X142500979Y-61917879D01*
X142493032Y-61906491D01*
X142458478Y-61850652D01*
X142333303Y-61725695D01*
X142327072Y-61721854D01*
X142188968Y-61636725D01*
X142188966Y-61636724D01*
X142182738Y-61632885D01*
X142074005Y-61596820D01*
X142021389Y-61579368D01*
X142021387Y-61579368D01*
X142014861Y-61577203D01*
X142008025Y-61576503D01*
X142008022Y-61576502D01*
X141964969Y-61572091D01*
X141910400Y-61566500D01*
X141109600Y-61566500D01*
X141106354Y-61566837D01*
X141106350Y-61566837D01*
X141010692Y-61576762D01*
X141010688Y-61576763D01*
X141003834Y-61577474D01*
X140997298Y-61579655D01*
X140997296Y-61579655D01*
X140933117Y-61601067D01*
X140836054Y-61633450D01*
X140685652Y-61726522D01*
X140560695Y-61851697D01*
X140556855Y-61857927D01*
X140556854Y-61857928D01*
X140519900Y-61917879D01*
X140467885Y-62002262D01*
X140412203Y-62170139D01*
X140401500Y-62274600D01*
X140401500Y-63110405D01*
X140381498Y-63178526D01*
X140364595Y-63199500D01*
X138672747Y-64891348D01*
X138664461Y-64898888D01*
X138657982Y-64903000D01*
X138652557Y-64908777D01*
X138611357Y-64952651D01*
X138608602Y-64955493D01*
X138588865Y-64975230D01*
X138586385Y-64978427D01*
X138578682Y-64987447D01*
X138548414Y-65019679D01*
X138544595Y-65026625D01*
X138544593Y-65026628D01*
X138538652Y-65037434D01*
X138527801Y-65053953D01*
X138515386Y-65069959D01*
X138512241Y-65077228D01*
X138512238Y-65077232D01*
X138497826Y-65110537D01*
X138492609Y-65121187D01*
X138471305Y-65159940D01*
X138469334Y-65167615D01*
X138469334Y-65167616D01*
X138466267Y-65179562D01*
X138459863Y-65198266D01*
X138451819Y-65216855D01*
X138450580Y-65224678D01*
X138450577Y-65224688D01*
X138444901Y-65260524D01*
X138442495Y-65272144D01*
X138431500Y-65314970D01*
X138431500Y-65335224D01*
X138429949Y-65354934D01*
X138426780Y-65374943D01*
X138427526Y-65382835D01*
X138430941Y-65418961D01*
X138431500Y-65430819D01*
X138431500Y-78829983D01*
X138430973Y-78841166D01*
X138429298Y-78848659D01*
X138429547Y-78856585D01*
X138429547Y-78856586D01*
X138431438Y-78916736D01*
X138431500Y-78920695D01*
X138431500Y-78948606D01*
X138431997Y-78952540D01*
X138431997Y-78952541D01*
X138432005Y-78952606D01*
X138432938Y-78964443D01*
X138434327Y-79008639D01*
X138439978Y-79028089D01*
X138443987Y-79047450D01*
X138446526Y-79067547D01*
X138449445Y-79074918D01*
X138449445Y-79074920D01*
X138462804Y-79108662D01*
X138466649Y-79119892D01*
X138478982Y-79162343D01*
X138483015Y-79169162D01*
X138483017Y-79169167D01*
X138489293Y-79179778D01*
X138497988Y-79197526D01*
X138505448Y-79216367D01*
X138510110Y-79222783D01*
X138510110Y-79222784D01*
X138531436Y-79252137D01*
X138537952Y-79262057D01*
X138543375Y-79271226D01*
X138560458Y-79300112D01*
X138574779Y-79314433D01*
X138587619Y-79329466D01*
X138599528Y-79345857D01*
X138607738Y-79352649D01*
X138633605Y-79374048D01*
X138642384Y-79382038D01*
X141376028Y-82115682D01*
X141410054Y-82177994D01*
X141408350Y-82238448D01*
X141387239Y-82314570D01*
X141386691Y-82319700D01*
X141386690Y-82319704D01*
X141383183Y-82352522D01*
X141363501Y-82536695D01*
X141363798Y-82541853D01*
X141363672Y-82547024D01*
X141362164Y-82546987D01*
X141347660Y-82609485D01*
X141296768Y-82658988D01*
X141227192Y-82673118D01*
X141161021Y-82647389D01*
X141148824Y-82636670D01*
X136671148Y-78158993D01*
X132020405Y-73508250D01*
X131986379Y-73445938D01*
X131983500Y-73419155D01*
X131983500Y-68990438D01*
X132367000Y-68990438D01*
X132367337Y-68996953D01*
X132376894Y-69089057D01*
X132379788Y-69102456D01*
X132429381Y-69251107D01*
X132435555Y-69264286D01*
X132517788Y-69397173D01*
X132526824Y-69408574D01*
X132637429Y-69518986D01*
X132648840Y-69527998D01*
X132781880Y-69610004D01*
X132795061Y-69616151D01*
X132943814Y-69665491D01*
X132957190Y-69668358D01*
X133048097Y-69677672D01*
X133054513Y-69678000D01*
X133077885Y-69678000D01*
X133093124Y-69673525D01*
X133094329Y-69672135D01*
X133096000Y-69664452D01*
X133096000Y-69659885D01*
X133604000Y-69659885D01*
X133608475Y-69675124D01*
X133609865Y-69676329D01*
X133617548Y-69678000D01*
X133645438Y-69678000D01*
X133651953Y-69677663D01*
X133744057Y-69668106D01*
X133757456Y-69665212D01*
X133906107Y-69615619D01*
X133919286Y-69609445D01*
X134052173Y-69527212D01*
X134063574Y-69518176D01*
X134173986Y-69407571D01*
X134182998Y-69396160D01*
X134265004Y-69263120D01*
X134271151Y-69249939D01*
X134320491Y-69101186D01*
X134323358Y-69087810D01*
X134332672Y-68996903D01*
X134332929Y-68991874D01*
X134328525Y-68976876D01*
X134327135Y-68975671D01*
X134319452Y-68974000D01*
X133622115Y-68974000D01*
X133606876Y-68978475D01*
X133605671Y-68979865D01*
X133604000Y-68987548D01*
X133604000Y-69659885D01*
X133096000Y-69659885D01*
X133096000Y-68992115D01*
X133091525Y-68976876D01*
X133090135Y-68975671D01*
X133082452Y-68974000D01*
X132385115Y-68974000D01*
X132369876Y-68978475D01*
X132368671Y-68979865D01*
X132367000Y-68987548D01*
X132367000Y-68990438D01*
X131983500Y-68990438D01*
X131983500Y-64361781D01*
X132003502Y-64293660D01*
X132043197Y-64254637D01*
X132168120Y-64177332D01*
X132174348Y-64173478D01*
X132299305Y-64048303D01*
X132331075Y-63996764D01*
X132383846Y-63949271D01*
X132453918Y-63937847D01*
X132519042Y-63966121D01*
X132537418Y-63985045D01*
X132543604Y-63992920D01*
X132673082Y-64105275D01*
X132711421Y-64165027D01*
X132716500Y-64200439D01*
X132716500Y-66249501D01*
X132696498Y-66317622D01*
X132656805Y-66356644D01*
X132647512Y-66362395D01*
X132647507Y-66362399D01*
X132641287Y-66366248D01*
X132520448Y-66487298D01*
X132516608Y-66493528D01*
X132516607Y-66493529D01*
X132435255Y-66625507D01*
X132430698Y-66632899D01*
X132376851Y-66795243D01*
X132366500Y-66896268D01*
X132366500Y-67443732D01*
X132377113Y-67546019D01*
X132379295Y-67552559D01*
X132428537Y-67700153D01*
X132431244Y-67708268D01*
X132521248Y-67853713D01*
X132526430Y-67858886D01*
X132530977Y-67864623D01*
X132529170Y-67866055D01*
X132557902Y-67918575D01*
X132552892Y-67989395D01*
X132529501Y-68025853D01*
X132530552Y-68026683D01*
X132517002Y-68043840D01*
X132434996Y-68176880D01*
X132428849Y-68190061D01*
X132379509Y-68338814D01*
X132376642Y-68352190D01*
X132367328Y-68443097D01*
X132367071Y-68448126D01*
X132371475Y-68463124D01*
X132372865Y-68464329D01*
X132380548Y-68466000D01*
X134314885Y-68466000D01*
X134330124Y-68461525D01*
X134331329Y-68460135D01*
X134333000Y-68452452D01*
X134333000Y-68449562D01*
X134332663Y-68443047D01*
X134323106Y-68350943D01*
X134320212Y-68337544D01*
X134270619Y-68188893D01*
X134264445Y-68175714D01*
X134182212Y-68042827D01*
X134168629Y-68025689D01*
X134170559Y-68024159D01*
X134142097Y-67972120D01*
X134147113Y-67901301D01*
X134170799Y-67864383D01*
X134169843Y-67863628D01*
X134174381Y-67857882D01*
X134179552Y-67852702D01*
X134183393Y-67846471D01*
X134265462Y-67713331D01*
X134265463Y-67713329D01*
X134269302Y-67707101D01*
X134323149Y-67544757D01*
X134333500Y-67443732D01*
X134333500Y-66896268D01*
X134322887Y-66793981D01*
X134311304Y-66759263D01*
X134271073Y-66638676D01*
X134271072Y-66638674D01*
X134268756Y-66631732D01*
X134178752Y-66486287D01*
X134057702Y-66365448D01*
X134051468Y-66361605D01*
X134043383Y-66356621D01*
X133995890Y-66303848D01*
X133983500Y-66249362D01*
X133983500Y-64199807D01*
X134003502Y-64131686D01*
X134036601Y-64097037D01*
X134072720Y-64071416D01*
X134072724Y-64071413D01*
X134077611Y-64067946D01*
X134223881Y-63915150D01*
X134227130Y-63910119D01*
X134227135Y-63910112D01*
X134245033Y-63882393D01*
X134298789Y-63836016D01*
X134369085Y-63826063D01*
X134433602Y-63855696D01*
X134449970Y-63872909D01*
X134540262Y-63987857D01*
X134548499Y-63996506D01*
X134699123Y-64127212D01*
X134708847Y-64134147D01*
X134881467Y-64234010D01*
X134892331Y-64238984D01*
X135080727Y-64304407D01*
X135081716Y-64304648D01*
X135092008Y-64303180D01*
X135096000Y-64289615D01*
X135096000Y-64285402D01*
X135604000Y-64285402D01*
X135607973Y-64298933D01*
X135617399Y-64300288D01*
X135706537Y-64278806D01*
X135717832Y-64274917D01*
X135899382Y-64192371D01*
X135909724Y-64186424D01*
X136072397Y-64071032D01*
X136081425Y-64063239D01*
X136219342Y-63919169D01*
X136226738Y-63909804D01*
X136334921Y-63742259D01*
X136340417Y-63731655D01*
X136414961Y-63546688D01*
X136418355Y-63535230D01*
X136456857Y-63338072D01*
X136457934Y-63329209D01*
X136458000Y-63326500D01*
X136458000Y-63222115D01*
X136453525Y-63206876D01*
X136452135Y-63205671D01*
X136444452Y-63204000D01*
X135622115Y-63204000D01*
X135606876Y-63208475D01*
X135605671Y-63209865D01*
X135604000Y-63217548D01*
X135604000Y-64285402D01*
X135096000Y-64285402D01*
X135096000Y-62677885D01*
X135604000Y-62677885D01*
X135608475Y-62693124D01*
X135609865Y-62694329D01*
X135617548Y-62696000D01*
X136439885Y-62696000D01*
X136455124Y-62691525D01*
X136456329Y-62690135D01*
X136458000Y-62682452D01*
X136458000Y-62625168D01*
X136457715Y-62619192D01*
X136443529Y-62470506D01*
X136441270Y-62458772D01*
X136385128Y-62267401D01*
X136380698Y-62256325D01*
X136289381Y-62079022D01*
X136282931Y-62068976D01*
X136159738Y-61912143D01*
X136151501Y-61903494D01*
X136000877Y-61772788D01*
X135991153Y-61765853D01*
X135818533Y-61665990D01*
X135807669Y-61661016D01*
X135619273Y-61595593D01*
X135618284Y-61595352D01*
X135607992Y-61596820D01*
X135604000Y-61610385D01*
X135604000Y-62677885D01*
X135096000Y-62677885D01*
X135096000Y-61614598D01*
X135092027Y-61601067D01*
X135082601Y-61599712D01*
X134993463Y-61621194D01*
X134982168Y-61625083D01*
X134800618Y-61707629D01*
X134790276Y-61713576D01*
X134627603Y-61828968D01*
X134618575Y-61836761D01*
X134480658Y-61980831D01*
X134473259Y-61990200D01*
X134455582Y-62017577D01*
X134401828Y-62063955D01*
X134331532Y-62073909D01*
X134267015Y-62044278D01*
X134250644Y-62027063D01*
X134243193Y-62017577D01*
X134156396Y-61907080D01*
X134151865Y-61903148D01*
X134151862Y-61903145D01*
X134001167Y-61772379D01*
X133996637Y-61768448D01*
X133991451Y-61765448D01*
X133991447Y-61765445D01*
X133818742Y-61665533D01*
X133813546Y-61662527D01*
X133613729Y-61593139D01*
X133607794Y-61592278D01*
X133607792Y-61592278D01*
X133410336Y-61563648D01*
X133410333Y-61563648D01*
X133404396Y-61562787D01*
X133193101Y-61572567D01*
X133080466Y-61599712D01*
X132993299Y-61620719D01*
X132993297Y-61620720D01*
X132987466Y-61622125D01*
X132982008Y-61624607D01*
X132982004Y-61624608D01*
X132890990Y-61665990D01*
X132794913Y-61709674D01*
X132622389Y-61832054D01*
X132618247Y-61836381D01*
X132618241Y-61836386D01*
X132531194Y-61927317D01*
X132469639Y-61962694D01*
X132398730Y-61959175D01*
X132340979Y-61917879D01*
X132333032Y-61906491D01*
X132298478Y-61850652D01*
X132173303Y-61725695D01*
X132167072Y-61721854D01*
X132028968Y-61636725D01*
X132028966Y-61636724D01*
X132022738Y-61632885D01*
X131914005Y-61596820D01*
X131861389Y-61579368D01*
X131861387Y-61579368D01*
X131854861Y-61577203D01*
X131848025Y-61576503D01*
X131848022Y-61576502D01*
X131804969Y-61572091D01*
X131750400Y-61566500D01*
X130949600Y-61566500D01*
X130946354Y-61566837D01*
X130946350Y-61566837D01*
X130850692Y-61576762D01*
X130850688Y-61576763D01*
X130843834Y-61577474D01*
X130837298Y-61579655D01*
X130837296Y-61579655D01*
X130773117Y-61601067D01*
X130676054Y-61633450D01*
X130525652Y-61726522D01*
X130400695Y-61851697D01*
X130396855Y-61857927D01*
X130396854Y-61857928D01*
X130359900Y-61917879D01*
X130307885Y-62002262D01*
X130252203Y-62170139D01*
X130241500Y-62274600D01*
X130241500Y-63625400D01*
X130252474Y-63731166D01*
X130308450Y-63898946D01*
X130401522Y-64049348D01*
X130526697Y-64174305D01*
X130532927Y-64178145D01*
X130532928Y-64178146D01*
X130656616Y-64254389D01*
X130704110Y-64307162D01*
X130716500Y-64361649D01*
X130716500Y-73654983D01*
X130715973Y-73666166D01*
X130714298Y-73673659D01*
X130714547Y-73681585D01*
X130714547Y-73681586D01*
X130716438Y-73741736D01*
X130716500Y-73745695D01*
X130716500Y-73773606D01*
X130716997Y-73777540D01*
X130716997Y-73777541D01*
X130717005Y-73777606D01*
X130717938Y-73789443D01*
X130719327Y-73833639D01*
X130724978Y-73853089D01*
X130728987Y-73872450D01*
X130731526Y-73892547D01*
X130734445Y-73899918D01*
X130734445Y-73899920D01*
X130747804Y-73933662D01*
X130751649Y-73944892D01*
X130754076Y-73953247D01*
X130763982Y-73987343D01*
X130768015Y-73994162D01*
X130768017Y-73994167D01*
X130774293Y-74004778D01*
X130782988Y-74022526D01*
X130790448Y-74041367D01*
X130795110Y-74047783D01*
X130795110Y-74047784D01*
X130816436Y-74077137D01*
X130822952Y-74087057D01*
X130841416Y-74118277D01*
X130845458Y-74125112D01*
X130859779Y-74139433D01*
X130872619Y-74154466D01*
X130884528Y-74170857D01*
X130918605Y-74199048D01*
X130927384Y-74207038D01*
X141376027Y-84655682D01*
X141410053Y-84717994D01*
X141408350Y-84778446D01*
X141387239Y-84854570D01*
X141363501Y-85076695D01*
X141363798Y-85081848D01*
X141363798Y-85081851D01*
X141376062Y-85294547D01*
X141376360Y-85299715D01*
X141377497Y-85304761D01*
X141377498Y-85304767D01*
X141389885Y-85359729D01*
X141425472Y-85517639D01*
X141509516Y-85724616D01*
X141519511Y-85740926D01*
X141576898Y-85834573D01*
X141626237Y-85915088D01*
X141772500Y-86083938D01*
X141944376Y-86226632D01*
X142013205Y-86266852D01*
X142017695Y-86269476D01*
X142066419Y-86321114D01*
X142079490Y-86390897D01*
X142052759Y-86456669D01*
X142012305Y-86490027D01*
X141999857Y-86496507D01*
X141995724Y-86499610D01*
X141995721Y-86499612D01*
X141862022Y-86599996D01*
X141821215Y-86630635D01*
X141666879Y-86792138D01*
X141540993Y-86976680D01*
X141527148Y-87006507D01*
X141474029Y-87120943D01*
X141446938Y-87179305D01*
X141387239Y-87394570D01*
X141363501Y-87616695D01*
X141363798Y-87621848D01*
X141363798Y-87621851D01*
X141371007Y-87746876D01*
X141376360Y-87839715D01*
X141377497Y-87844761D01*
X141377498Y-87844767D01*
X141409703Y-87987668D01*
X141405167Y-88058520D01*
X141375881Y-88104464D01*
X141110750Y-88369595D01*
X141048438Y-88403621D01*
X141021655Y-88406500D01*
X139993379Y-88406500D01*
X139925258Y-88386498D01*
X139896116Y-88360106D01*
X139893752Y-88356287D01*
X139888568Y-88351112D01*
X139884022Y-88345376D01*
X139885829Y-88343944D01*
X139857098Y-88291425D01*
X139862108Y-88220605D01*
X139885499Y-88184147D01*
X139884448Y-88183317D01*
X139897998Y-88166160D01*
X139980004Y-88033120D01*
X139986151Y-88019939D01*
X140035491Y-87871186D01*
X140038358Y-87857810D01*
X140047672Y-87766903D01*
X140047929Y-87761874D01*
X140043525Y-87746876D01*
X140042135Y-87745671D01*
X140034452Y-87744000D01*
X138100115Y-87744000D01*
X138084876Y-87748475D01*
X138083671Y-87749865D01*
X138082000Y-87757548D01*
X138082000Y-87760438D01*
X138082337Y-87766953D01*
X138091894Y-87859057D01*
X138094788Y-87872456D01*
X138140845Y-88010508D01*
X138143429Y-88081458D01*
X138107245Y-88142542D01*
X138043781Y-88174366D01*
X137973186Y-88166827D01*
X137935069Y-88142235D01*
X137904850Y-88113858D01*
X137902007Y-88111102D01*
X137882270Y-88091365D01*
X137879073Y-88088885D01*
X137870051Y-88081180D01*
X137852289Y-88064500D01*
X137837821Y-88050914D01*
X137830875Y-88047095D01*
X137830872Y-88047093D01*
X137820066Y-88041152D01*
X137803547Y-88030301D01*
X137801106Y-88028408D01*
X137787541Y-88017886D01*
X137780272Y-88014741D01*
X137780268Y-88014738D01*
X137746963Y-88000326D01*
X137736313Y-87995109D01*
X137697560Y-87973805D01*
X137677937Y-87968767D01*
X137659234Y-87962363D01*
X137647920Y-87957467D01*
X137647919Y-87957467D01*
X137640645Y-87954319D01*
X137632822Y-87953080D01*
X137632812Y-87953077D01*
X137596976Y-87947401D01*
X137585356Y-87944995D01*
X137550211Y-87935972D01*
X137550210Y-87935972D01*
X137542530Y-87934000D01*
X137522276Y-87934000D01*
X137502565Y-87932449D01*
X137490386Y-87930520D01*
X137482557Y-87929280D01*
X137474665Y-87930026D01*
X137438539Y-87933441D01*
X137426681Y-87934000D01*
X137121967Y-87934000D01*
X137053846Y-87913998D01*
X137007353Y-87860342D01*
X137000970Y-87843152D01*
X136966358Y-87724014D01*
X136966356Y-87724009D01*
X136964145Y-87716399D01*
X136922893Y-87646646D01*
X136883491Y-87580020D01*
X136883489Y-87580017D01*
X136879453Y-87573193D01*
X136847355Y-87541095D01*
X136813329Y-87478783D01*
X136818394Y-87407968D01*
X136860941Y-87351132D01*
X136927461Y-87326321D01*
X136936450Y-87326000D01*
X137844983Y-87326000D01*
X137856166Y-87326527D01*
X137863659Y-87328202D01*
X137871585Y-87327953D01*
X137871586Y-87327953D01*
X137931736Y-87326062D01*
X137935695Y-87326000D01*
X137963606Y-87326000D01*
X137967541Y-87325503D01*
X137967606Y-87325495D01*
X137979443Y-87324562D01*
X138011701Y-87323548D01*
X138015720Y-87323422D01*
X138023639Y-87323173D01*
X138043093Y-87317521D01*
X138062450Y-87313513D01*
X138074680Y-87311968D01*
X138074681Y-87311968D01*
X138082547Y-87310974D01*
X138089918Y-87308055D01*
X138089920Y-87308055D01*
X138123662Y-87294696D01*
X138134892Y-87290851D01*
X138169733Y-87280729D01*
X138169734Y-87280729D01*
X138177343Y-87278518D01*
X138184162Y-87274485D01*
X138184167Y-87274483D01*
X138194778Y-87268207D01*
X138212526Y-87259512D01*
X138231367Y-87252052D01*
X138233027Y-87250846D01*
X138290854Y-87236000D01*
X140029885Y-87236000D01*
X140045124Y-87231525D01*
X140046329Y-87230135D01*
X140048000Y-87222452D01*
X140048000Y-87219562D01*
X140047663Y-87213047D01*
X140038106Y-87120943D01*
X140035212Y-87107544D01*
X139985619Y-86958893D01*
X139979445Y-86945714D01*
X139897212Y-86812827D01*
X139888176Y-86801426D01*
X139777571Y-86691014D01*
X139766160Y-86682002D01*
X139633120Y-86599996D01*
X139619937Y-86593848D01*
X139580719Y-86580840D01*
X139522359Y-86540409D01*
X139495122Y-86474845D01*
X139507656Y-86404963D01*
X139526750Y-86376937D01*
X139625871Y-86266852D01*
X139625872Y-86266851D01*
X139630290Y-86261944D01*
X139688564Y-86161010D01*
X139722473Y-86102279D01*
X139722474Y-86102278D01*
X139725777Y-86096556D01*
X139784792Y-85914928D01*
X139804754Y-85725000D01*
X139801347Y-85692584D01*
X139785482Y-85541635D01*
X139785482Y-85541633D01*
X139784792Y-85535072D01*
X139725777Y-85353444D01*
X139694757Y-85299715D01*
X139633591Y-85193774D01*
X139630290Y-85188056D01*
X139525399Y-85071562D01*
X139506925Y-85051045D01*
X139506924Y-85051044D01*
X139502503Y-85046134D01*
X139348002Y-84933882D01*
X139341974Y-84931198D01*
X139341972Y-84931197D01*
X139179569Y-84858891D01*
X139179568Y-84858891D01*
X139173538Y-84856206D01*
X139080138Y-84836353D01*
X138993194Y-84817872D01*
X138993189Y-84817872D01*
X138986737Y-84816500D01*
X138795763Y-84816500D01*
X138789311Y-84817872D01*
X138789306Y-84817872D01*
X138702362Y-84836353D01*
X138608962Y-84856206D01*
X138602932Y-84858891D01*
X138602931Y-84858891D01*
X138440528Y-84931197D01*
X138440526Y-84931198D01*
X138434498Y-84933882D01*
X138279997Y-85046134D01*
X138275576Y-85051044D01*
X138275575Y-85051045D01*
X138257102Y-85071562D01*
X138152210Y-85188056D01*
X138148909Y-85193774D01*
X138087744Y-85299715D01*
X138056723Y-85353444D01*
X137997708Y-85535072D01*
X137997018Y-85541633D01*
X137997018Y-85541635D01*
X137989155Y-85616453D01*
X137980564Y-85698193D01*
X137980343Y-85700292D01*
X137953330Y-85765949D01*
X137944128Y-85776218D01*
X137698249Y-86022096D01*
X137635937Y-86056121D01*
X137609154Y-86059000D01*
X136171967Y-86059000D01*
X136103846Y-86038998D01*
X136057353Y-85985342D01*
X136050970Y-85968152D01*
X136016358Y-85849014D01*
X136016356Y-85849009D01*
X136014145Y-85841399D01*
X135969524Y-85765949D01*
X135933491Y-85705020D01*
X135933489Y-85705017D01*
X135929453Y-85698193D01*
X135811807Y-85580547D01*
X135804983Y-85576511D01*
X135804980Y-85576509D01*
X135675427Y-85499892D01*
X135675428Y-85499892D01*
X135668601Y-85495855D01*
X135660990Y-85493644D01*
X135660988Y-85493643D01*
X135608769Y-85478472D01*
X135508831Y-85449438D01*
X135502426Y-85448934D01*
X135502421Y-85448933D01*
X135473958Y-85446693D01*
X135473950Y-85446693D01*
X135471502Y-85446500D01*
X135038498Y-85446500D01*
X135036050Y-85446693D01*
X135036042Y-85446693D01*
X135007579Y-85448933D01*
X135007574Y-85448934D01*
X135001169Y-85449438D01*
X134901231Y-85478472D01*
X134849012Y-85493643D01*
X134849010Y-85493644D01*
X134841399Y-85495855D01*
X134834572Y-85499892D01*
X134834573Y-85499892D01*
X134705020Y-85576509D01*
X134705017Y-85576511D01*
X134698193Y-85580547D01*
X134580547Y-85698193D01*
X134576511Y-85705017D01*
X134576509Y-85705020D01*
X134540476Y-85765949D01*
X134495855Y-85841399D01*
X134493644Y-85849010D01*
X134493643Y-85849012D01*
X134478472Y-85901231D01*
X134449438Y-86001169D01*
X134446500Y-86038498D01*
X134446500Y-87195500D01*
X134426498Y-87263621D01*
X134372842Y-87310114D01*
X134320500Y-87321500D01*
X134088498Y-87321500D01*
X134086050Y-87321693D01*
X134086042Y-87321693D01*
X134057579Y-87323933D01*
X134057574Y-87323934D01*
X134051169Y-87324438D01*
X134044994Y-87326232D01*
X134038655Y-87327390D01*
X134038147Y-87324610D01*
X133979485Y-87324478D01*
X133926162Y-87292757D01*
X132933652Y-86300247D01*
X132926112Y-86291961D01*
X132922000Y-86285482D01*
X132872348Y-86238856D01*
X132869507Y-86236102D01*
X132849770Y-86216365D01*
X132846573Y-86213885D01*
X132837551Y-86206180D01*
X132811100Y-86181341D01*
X132805321Y-86175914D01*
X132798375Y-86172095D01*
X132798372Y-86172093D01*
X132787566Y-86166152D01*
X132771047Y-86155301D01*
X132765725Y-86151173D01*
X132755041Y-86142886D01*
X132747772Y-86139741D01*
X132747768Y-86139738D01*
X132714463Y-86125326D01*
X132703813Y-86120109D01*
X132665060Y-86098805D01*
X132645437Y-86093767D01*
X132626734Y-86087363D01*
X132615420Y-86082467D01*
X132615419Y-86082467D01*
X132608145Y-86079319D01*
X132600322Y-86078080D01*
X132600312Y-86078077D01*
X132564476Y-86072401D01*
X132552856Y-86069995D01*
X132517711Y-86060972D01*
X132517710Y-86060972D01*
X132510030Y-86059000D01*
X132489776Y-86059000D01*
X132470065Y-86057449D01*
X132461681Y-86056121D01*
X132450057Y-86054280D01*
X132442165Y-86055026D01*
X132406039Y-86058441D01*
X132394181Y-86059000D01*
X131091967Y-86059000D01*
X131023846Y-86038998D01*
X130977353Y-85985342D01*
X130970970Y-85968152D01*
X130936358Y-85849014D01*
X130936356Y-85849009D01*
X130934145Y-85841399D01*
X130889524Y-85765949D01*
X130853491Y-85705020D01*
X130853489Y-85705017D01*
X130849453Y-85698193D01*
X130731807Y-85580547D01*
X130724983Y-85576511D01*
X130724980Y-85576509D01*
X130595427Y-85499892D01*
X130595428Y-85499892D01*
X130588601Y-85495855D01*
X130580990Y-85493644D01*
X130580988Y-85493643D01*
X130528769Y-85478472D01*
X130428831Y-85449438D01*
X130422426Y-85448934D01*
X130422421Y-85448933D01*
X130393958Y-85446693D01*
X130393950Y-85446693D01*
X130391502Y-85446500D01*
X129958498Y-85446500D01*
X129956050Y-85446693D01*
X129956042Y-85446693D01*
X129927579Y-85448933D01*
X129927574Y-85448934D01*
X129921169Y-85449438D01*
X129821231Y-85478472D01*
X129769012Y-85493643D01*
X129769010Y-85493644D01*
X129761399Y-85495855D01*
X129754572Y-85499892D01*
X129754573Y-85499892D01*
X129625020Y-85576509D01*
X129625017Y-85576511D01*
X129618193Y-85580547D01*
X129500547Y-85698193D01*
X129496511Y-85705017D01*
X129496509Y-85705020D01*
X129460476Y-85765949D01*
X129415855Y-85841399D01*
X129413644Y-85849010D01*
X129413643Y-85849012D01*
X129398472Y-85901231D01*
X129369438Y-86001169D01*
X129366500Y-86038498D01*
X129366500Y-87195500D01*
X129346498Y-87263621D01*
X129292842Y-87310114D01*
X129240500Y-87321500D01*
X129008498Y-87321500D01*
X129006050Y-87321693D01*
X129006042Y-87321693D01*
X128977579Y-87323933D01*
X128977574Y-87323934D01*
X128971169Y-87324438D01*
X128879287Y-87351132D01*
X128819012Y-87368643D01*
X128819010Y-87368644D01*
X128811399Y-87370855D01*
X128804572Y-87374892D01*
X128804573Y-87374892D01*
X128675020Y-87451509D01*
X128675017Y-87451511D01*
X128668193Y-87455547D01*
X128550547Y-87573193D01*
X128546511Y-87580017D01*
X128546509Y-87580020D01*
X128507107Y-87646646D01*
X128465855Y-87716399D01*
X128463644Y-87724010D01*
X128463643Y-87724012D01*
X128457836Y-87744000D01*
X128419438Y-87876169D01*
X128418934Y-87882574D01*
X128418933Y-87882579D01*
X128416693Y-87911042D01*
X128416500Y-87913498D01*
X128416500Y-89221502D01*
X128416693Y-89223950D01*
X128416693Y-89223958D01*
X128418927Y-89252336D01*
X128419438Y-89258831D01*
X128441977Y-89336411D01*
X128463643Y-89410986D01*
X128465855Y-89418601D01*
X128479123Y-89441036D01*
X128546509Y-89554980D01*
X128546511Y-89554983D01*
X128550547Y-89561807D01*
X128668193Y-89679453D01*
X128669423Y-89680180D01*
X128709294Y-89735394D01*
X128716500Y-89777393D01*
X128716500Y-90544290D01*
X128696498Y-90612411D01*
X128679595Y-90633385D01*
X128588361Y-90724619D01*
X128499528Y-90871301D01*
X128497257Y-90878548D01*
X128497256Y-90878550D01*
X128495653Y-90883665D01*
X128448247Y-91034938D01*
X128441500Y-91108365D01*
X128441501Y-91771634D01*
X128441764Y-91774492D01*
X128441764Y-91774501D01*
X128442740Y-91785123D01*
X128448247Y-91845062D01*
X128450246Y-91851440D01*
X128450246Y-91851441D01*
X128491577Y-91983326D01*
X128499528Y-92008699D01*
X128588361Y-92155381D01*
X128709619Y-92276639D01*
X128856301Y-92365472D01*
X128863548Y-92367743D01*
X128863550Y-92367744D01*
X128929836Y-92388517D01*
X129019938Y-92416753D01*
X129093365Y-92423500D01*
X129111474Y-92423500D01*
X129385406Y-92423499D01*
X129453525Y-92443501D01*
X129474500Y-92460404D01*
X129751177Y-92737081D01*
X129785203Y-92799393D01*
X129780138Y-92870208D01*
X129737591Y-92927044D01*
X129734873Y-92928794D01*
X129733295Y-92929385D01*
X129616739Y-93016739D01*
X129529385Y-93133295D01*
X129478255Y-93269684D01*
X129471500Y-93331866D01*
X129471500Y-93990405D01*
X129451498Y-94058526D01*
X129434595Y-94079500D01*
X129357423Y-94156672D01*
X129295111Y-94190698D01*
X129230651Y-94187811D01*
X129136312Y-94158247D01*
X129062885Y-94151500D01*
X129059987Y-94151500D01*
X128730390Y-94151501D01*
X128399616Y-94151501D01*
X128396749Y-94151764D01*
X128393854Y-94151897D01*
X128393789Y-94150480D01*
X128329511Y-94137741D01*
X128278386Y-94088479D01*
X128266178Y-94053714D01*
X128265674Y-94053860D01*
X128260021Y-94034402D01*
X128256012Y-94015043D01*
X128254647Y-94004241D01*
X128253474Y-93994953D01*
X128250558Y-93987587D01*
X128250556Y-93987581D01*
X128237200Y-93953848D01*
X128233355Y-93942618D01*
X128223230Y-93907767D01*
X128223230Y-93907766D01*
X128221019Y-93900157D01*
X128210705Y-93882716D01*
X128202008Y-93864963D01*
X128197472Y-93853508D01*
X128194552Y-93846133D01*
X128168563Y-93810362D01*
X128162047Y-93800442D01*
X128139542Y-93762388D01*
X128125221Y-93748067D01*
X128112380Y-93733033D01*
X128105131Y-93723056D01*
X128100472Y-93716643D01*
X128066395Y-93688452D01*
X128057616Y-93680462D01*
X126714902Y-92337747D01*
X126707362Y-92329461D01*
X126703250Y-92322982D01*
X126653598Y-92276356D01*
X126650757Y-92273602D01*
X126631020Y-92253865D01*
X126627823Y-92251385D01*
X126618801Y-92243680D01*
X126592350Y-92218841D01*
X126586571Y-92213414D01*
X126579625Y-92209595D01*
X126579622Y-92209593D01*
X126568816Y-92203652D01*
X126552297Y-92192801D01*
X126551833Y-92192441D01*
X126536291Y-92180386D01*
X126529022Y-92177241D01*
X126529018Y-92177238D01*
X126495713Y-92162826D01*
X126485063Y-92157609D01*
X126446310Y-92136305D01*
X126426687Y-92131267D01*
X126407984Y-92124863D01*
X126396670Y-92119967D01*
X126396669Y-92119967D01*
X126389395Y-92116819D01*
X126381572Y-92115580D01*
X126381562Y-92115577D01*
X126345726Y-92109901D01*
X126334106Y-92107495D01*
X126298961Y-92098472D01*
X126298960Y-92098472D01*
X126291280Y-92096500D01*
X126271026Y-92096500D01*
X126251315Y-92094949D01*
X126239136Y-92093020D01*
X126231307Y-92091780D01*
X126223417Y-92092526D01*
X126216423Y-92092306D01*
X126148965Y-92070173D01*
X126114590Y-92034808D01*
X126029069Y-91902613D01*
X126026264Y-91898277D01*
X125875920Y-91733051D01*
X125871869Y-91729852D01*
X125871865Y-91729848D01*
X125704664Y-91597800D01*
X125704660Y-91597798D01*
X125700609Y-91594598D01*
X125659303Y-91571796D01*
X125609334Y-91521364D01*
X125594562Y-91451921D01*
X125619678Y-91385516D01*
X125647030Y-91358909D01*
X125690853Y-91327650D01*
X125826110Y-91231173D01*
X125984346Y-91073489D01*
X126114703Y-90892077D01*
X126118861Y-90883665D01*
X126211386Y-90696453D01*
X126211387Y-90696451D01*
X126213680Y-90691811D01*
X126256462Y-90551000D01*
X126277115Y-90483023D01*
X126277115Y-90483021D01*
X126278620Y-90478069D01*
X126307779Y-90256590D01*
X126308275Y-90236301D01*
X126309324Y-90193365D01*
X126309324Y-90193361D01*
X126309406Y-90190000D01*
X126291102Y-89967361D01*
X126236681Y-89750702D01*
X126147604Y-89545840D01*
X126078161Y-89438498D01*
X126029072Y-89362617D01*
X126029070Y-89362614D01*
X126026264Y-89358277D01*
X125875920Y-89193051D01*
X125871869Y-89189852D01*
X125871865Y-89189848D01*
X125704664Y-89057800D01*
X125704660Y-89057798D01*
X125700609Y-89054598D01*
X125659303Y-89031796D01*
X125609334Y-88981364D01*
X125594562Y-88911921D01*
X125619678Y-88845516D01*
X125647030Y-88818909D01*
X125690853Y-88787650D01*
X125826110Y-88691173D01*
X125984346Y-88533489D01*
X126046313Y-88447253D01*
X126111685Y-88356277D01*
X126114703Y-88352077D01*
X126118013Y-88345381D01*
X126211386Y-88156453D01*
X126211387Y-88156451D01*
X126213680Y-88151811D01*
X126269293Y-87968767D01*
X126277115Y-87943023D01*
X126277115Y-87943021D01*
X126278620Y-87938069D01*
X126307779Y-87716590D01*
X126307861Y-87713240D01*
X126309324Y-87653365D01*
X126309324Y-87653361D01*
X126309406Y-87650000D01*
X126291102Y-87427361D01*
X126236681Y-87210702D01*
X126147604Y-87005840D01*
X126090678Y-86917846D01*
X126029072Y-86822617D01*
X126029070Y-86822614D01*
X126026264Y-86818277D01*
X125875920Y-86653051D01*
X125871869Y-86649852D01*
X125871865Y-86649848D01*
X125704664Y-86517800D01*
X125704660Y-86517798D01*
X125700609Y-86514598D01*
X125659303Y-86491796D01*
X125609334Y-86441364D01*
X125594562Y-86371921D01*
X125619678Y-86305516D01*
X125647030Y-86278909D01*
X125707043Y-86236102D01*
X125826110Y-86151173D01*
X125852048Y-86125326D01*
X125955639Y-86022096D01*
X125984346Y-85993489D01*
X126002553Y-85968152D01*
X126111685Y-85816277D01*
X126114703Y-85812077D01*
X126154495Y-85731565D01*
X126211386Y-85616453D01*
X126211387Y-85616451D01*
X126213680Y-85611811D01*
X126249582Y-85493643D01*
X126277115Y-85403023D01*
X126277115Y-85403021D01*
X126278620Y-85398069D01*
X126307779Y-85176590D01*
X126309406Y-85110000D01*
X126291102Y-84887361D01*
X126236681Y-84670702D01*
X126147604Y-84465840D01*
X126100805Y-84393500D01*
X126029072Y-84282617D01*
X126029070Y-84282614D01*
X126026264Y-84278277D01*
X125875920Y-84113051D01*
X125871869Y-84109852D01*
X125871865Y-84109848D01*
X125704664Y-83977800D01*
X125704660Y-83977798D01*
X125700609Y-83974598D01*
X125659303Y-83951796D01*
X125609334Y-83901364D01*
X125594562Y-83831921D01*
X125619678Y-83765516D01*
X125647030Y-83738909D01*
X125713872Y-83691231D01*
X125826110Y-83611173D01*
X125829954Y-83607343D01*
X125980685Y-83457137D01*
X125984346Y-83453489D01*
X126114703Y-83272077D01*
X126144303Y-83212187D01*
X126211386Y-83076453D01*
X126211387Y-83076451D01*
X126213680Y-83071811D01*
X126264218Y-82905473D01*
X126277115Y-82863023D01*
X126277115Y-82863021D01*
X126278620Y-82858069D01*
X126307779Y-82636590D01*
X126309280Y-82575165D01*
X126309324Y-82573365D01*
X126309324Y-82573361D01*
X126309406Y-82570000D01*
X126291102Y-82347361D01*
X126236681Y-82130702D01*
X126147604Y-81925840D01*
X126026264Y-81738277D01*
X125875920Y-81573051D01*
X125871869Y-81569852D01*
X125871865Y-81569848D01*
X125704664Y-81437800D01*
X125704660Y-81437798D01*
X125700609Y-81434598D01*
X125660946Y-81412703D01*
X131240743Y-81412703D01*
X131241302Y-81416947D01*
X131241302Y-81416951D01*
X131243650Y-81434784D01*
X131278268Y-81697734D01*
X131354129Y-81975036D01*
X131362807Y-81995381D01*
X131464896Y-82234723D01*
X131466923Y-82239476D01*
X131614561Y-82486161D01*
X131794313Y-82710528D01*
X132002851Y-82908423D01*
X132062106Y-82951002D01*
X132230229Y-83071811D01*
X132236317Y-83076186D01*
X132240112Y-83078195D01*
X132240113Y-83078196D01*
X132261869Y-83089715D01*
X132490392Y-83210712D01*
X132760373Y-83309511D01*
X133041264Y-83370755D01*
X133069841Y-83373004D01*
X133264282Y-83388307D01*
X133264291Y-83388307D01*
X133266739Y-83388500D01*
X133422271Y-83388500D01*
X133424407Y-83388354D01*
X133424418Y-83388354D01*
X133632548Y-83374165D01*
X133632554Y-83374164D01*
X133636825Y-83373873D01*
X133641020Y-83373004D01*
X133641022Y-83373004D01*
X133777584Y-83344723D01*
X133918342Y-83315574D01*
X134189343Y-83219607D01*
X134444812Y-83087750D01*
X134448313Y-83085289D01*
X134448317Y-83085287D01*
X134585491Y-82988879D01*
X134680023Y-82922441D01*
X134890622Y-82726740D01*
X135072713Y-82504268D01*
X135222927Y-82259142D01*
X135246487Y-82205472D01*
X135336757Y-81999830D01*
X135338483Y-81995898D01*
X135417244Y-81719406D01*
X135457751Y-81434784D01*
X135457845Y-81416951D01*
X135459235Y-81151583D01*
X135459235Y-81151576D01*
X135459257Y-81147297D01*
X135421732Y-80862266D01*
X135345871Y-80584964D01*
X135285009Y-80442275D01*
X135234763Y-80324476D01*
X135234761Y-80324472D01*
X135233077Y-80320524D01*
X135112459Y-80118986D01*
X135087643Y-80077521D01*
X135087640Y-80077517D01*
X135085439Y-80073839D01*
X134905687Y-79849472D01*
X134697149Y-79651577D01*
X134463683Y-79483814D01*
X134441843Y-79472250D01*
X134348359Y-79422753D01*
X134209608Y-79349288D01*
X134056573Y-79293285D01*
X133943658Y-79251964D01*
X133943656Y-79251963D01*
X133939627Y-79250489D01*
X133658736Y-79189245D01*
X133627685Y-79186801D01*
X133435718Y-79171693D01*
X133435709Y-79171693D01*
X133433261Y-79171500D01*
X133277729Y-79171500D01*
X133275593Y-79171646D01*
X133275582Y-79171646D01*
X133067452Y-79185835D01*
X133067446Y-79185836D01*
X133063175Y-79186127D01*
X133058980Y-79186996D01*
X133058978Y-79186996D01*
X133004504Y-79198277D01*
X132781658Y-79244426D01*
X132510657Y-79340393D01*
X132506848Y-79342359D01*
X132280825Y-79459018D01*
X132255188Y-79472250D01*
X132251687Y-79474711D01*
X132251683Y-79474713D01*
X132241594Y-79481804D01*
X132019977Y-79637559D01*
X132006536Y-79650049D01*
X131883714Y-79764183D01*
X131809378Y-79833260D01*
X131627287Y-80055732D01*
X131477073Y-80300858D01*
X131475347Y-80304791D01*
X131475346Y-80304792D01*
X131424993Y-80419500D01*
X131361517Y-80564102D01*
X131282756Y-80840594D01*
X131242249Y-81125216D01*
X131242227Y-81129505D01*
X131242226Y-81129512D01*
X131240765Y-81408417D01*
X131240743Y-81412703D01*
X125660946Y-81412703D01*
X125658819Y-81411529D01*
X125608848Y-81361097D01*
X125594076Y-81291654D01*
X125619192Y-81225248D01*
X125646544Y-81198641D01*
X125821578Y-81073792D01*
X125829450Y-81067139D01*
X125980302Y-80916812D01*
X125986980Y-80908965D01*
X126111253Y-80736020D01*
X126116563Y-80727183D01*
X126210920Y-80536267D01*
X126214719Y-80526672D01*
X126276627Y-80322910D01*
X126278805Y-80312837D01*
X126280236Y-80301962D01*
X126278025Y-80287778D01*
X126264867Y-80284000D01*
X123629475Y-80284000D01*
X123615944Y-80287973D01*
X123614507Y-80297966D01*
X123644815Y-80432446D01*
X123647894Y-80442275D01*
X123687121Y-80538879D01*
X123694217Y-80609520D01*
X123661995Y-80672784D01*
X123600685Y-80708584D01*
X123529753Y-80705554D01*
X123481283Y-80675378D01*
X123225405Y-80419500D01*
X123191379Y-80357188D01*
X123188500Y-80330405D01*
X123188500Y-77456695D01*
X123583501Y-77456695D01*
X123583798Y-77461848D01*
X123583798Y-77461851D01*
X123589261Y-77556590D01*
X123596360Y-77679715D01*
X123597497Y-77684761D01*
X123597498Y-77684767D01*
X123614600Y-77760653D01*
X123645472Y-77897639D01*
X123729516Y-78104616D01*
X123732215Y-78109020D01*
X123843541Y-78290689D01*
X123843543Y-78290692D01*
X123846237Y-78295088D01*
X123992500Y-78463938D01*
X124164376Y-78606632D01*
X124237695Y-78649476D01*
X124238205Y-78649774D01*
X124286929Y-78701412D01*
X124300000Y-78771195D01*
X124273269Y-78836967D01*
X124232812Y-78870327D01*
X124224707Y-78874546D01*
X124215988Y-78880036D01*
X124045683Y-79007905D01*
X124037976Y-79014748D01*
X123890840Y-79168717D01*
X123884354Y-79176727D01*
X123764348Y-79352649D01*
X123759250Y-79361623D01*
X123669588Y-79554783D01*
X123666025Y-79564470D01*
X123610639Y-79764183D01*
X123612162Y-79772607D01*
X123624542Y-79776000D01*
X126264594Y-79776000D01*
X126278125Y-79772027D01*
X126279430Y-79762947D01*
X126237464Y-79595875D01*
X126234144Y-79586124D01*
X126149222Y-79390814D01*
X126144355Y-79381739D01*
X126028676Y-79202926D01*
X126022386Y-79194757D01*
X125879056Y-79037240D01*
X125871523Y-79030215D01*
X125704389Y-78898222D01*
X125695806Y-78892520D01*
X125658852Y-78872120D01*
X125608881Y-78821687D01*
X125594109Y-78752245D01*
X125619225Y-78685839D01*
X125646577Y-78659232D01*
X125670047Y-78642491D01*
X125826110Y-78531173D01*
X125832537Y-78524769D01*
X125980685Y-78377137D01*
X125984346Y-78373489D01*
X126043844Y-78290689D01*
X126111685Y-78196277D01*
X126114703Y-78192077D01*
X126144288Y-78132217D01*
X126211386Y-77996453D01*
X126211387Y-77996451D01*
X126213680Y-77991811D01*
X126278620Y-77778069D01*
X126307779Y-77556590D01*
X126309406Y-77490000D01*
X126291102Y-77267361D01*
X126236681Y-77050702D01*
X126147604Y-76845840D01*
X126108156Y-76784862D01*
X126029072Y-76662617D01*
X126029070Y-76662614D01*
X126026264Y-76658277D01*
X125875920Y-76493051D01*
X125871869Y-76489852D01*
X125871865Y-76489848D01*
X125704664Y-76357800D01*
X125704660Y-76357798D01*
X125700609Y-76354598D01*
X125659303Y-76331796D01*
X125609334Y-76281364D01*
X125594562Y-76211921D01*
X125619678Y-76145516D01*
X125647030Y-76118909D01*
X125690853Y-76087650D01*
X125826110Y-75991173D01*
X125984346Y-75833489D01*
X126010371Y-75797272D01*
X126111685Y-75656277D01*
X126114703Y-75652077D01*
X126118013Y-75645381D01*
X126211386Y-75456453D01*
X126211387Y-75456451D01*
X126213680Y-75451811D01*
X126270589Y-75264501D01*
X126277115Y-75243023D01*
X126277115Y-75243021D01*
X126278620Y-75238069D01*
X126307779Y-75016590D01*
X126309406Y-74950000D01*
X126291102Y-74727361D01*
X126236681Y-74510702D01*
X126147604Y-74305840D01*
X126092796Y-74221120D01*
X126029072Y-74122617D01*
X126029070Y-74122614D01*
X126026264Y-74118277D01*
X126008484Y-74098737D01*
X125879048Y-73956488D01*
X125847996Y-73892642D01*
X125856391Y-73822143D01*
X125901567Y-73767375D01*
X125928011Y-73753706D01*
X126034547Y-73713767D01*
X126042955Y-73710615D01*
X126159511Y-73623261D01*
X126246865Y-73506705D01*
X126297995Y-73370316D01*
X126304750Y-73308134D01*
X126304750Y-71511866D01*
X126297995Y-71449684D01*
X126246865Y-71313295D01*
X126159511Y-71196739D01*
X126042955Y-71109385D01*
X125906566Y-71058255D01*
X125844384Y-71051500D01*
X124048116Y-71051500D01*
X123985934Y-71058255D01*
X123849545Y-71109385D01*
X123732989Y-71196739D01*
X123645635Y-71313295D01*
X123594505Y-71449684D01*
X123587750Y-71511866D01*
X123587750Y-73308134D01*
X123594505Y-73370316D01*
X123645635Y-73506705D01*
X123732989Y-73623261D01*
X123849545Y-73710615D01*
X123857954Y-73713767D01*
X123857955Y-73713768D01*
X123966701Y-73754535D01*
X124023466Y-73797176D01*
X124048166Y-73863738D01*
X124032959Y-73933087D01*
X124013566Y-73959568D01*
X123891735Y-74087057D01*
X123886879Y-74092138D01*
X123883965Y-74096410D01*
X123883964Y-74096411D01*
X123829735Y-74175908D01*
X123760993Y-74276680D01*
X123666938Y-74479305D01*
X123607239Y-74694570D01*
X123583501Y-74916695D01*
X123583798Y-74921848D01*
X123583798Y-74921851D01*
X123589261Y-75016590D01*
X123596360Y-75139715D01*
X123597497Y-75144761D01*
X123597498Y-75144767D01*
X123614895Y-75221962D01*
X123645472Y-75357639D01*
X123729516Y-75564616D01*
X123772612Y-75634943D01*
X123841436Y-75747253D01*
X123846237Y-75755088D01*
X123992500Y-75923938D01*
X124164376Y-76066632D01*
X124234845Y-76107811D01*
X124237695Y-76109476D01*
X124286419Y-76161114D01*
X124299490Y-76230897D01*
X124272759Y-76296669D01*
X124232305Y-76330027D01*
X124219857Y-76336507D01*
X124215724Y-76339610D01*
X124215721Y-76339612D01*
X124191497Y-76357800D01*
X124041215Y-76470635D01*
X123886879Y-76632138D01*
X123883966Y-76636408D01*
X123883964Y-76636411D01*
X123843564Y-76695635D01*
X123760993Y-76816680D01*
X123666938Y-77019305D01*
X123607239Y-77234570D01*
X123583501Y-77456695D01*
X123188500Y-77456695D01*
X123188500Y-75643768D01*
X123189027Y-75632585D01*
X123190702Y-75625092D01*
X123188562Y-75557001D01*
X123188500Y-75553044D01*
X123188500Y-75525144D01*
X123187996Y-75521153D01*
X123187063Y-75509311D01*
X123185923Y-75473036D01*
X123185674Y-75465111D01*
X123180021Y-75445652D01*
X123176012Y-75426293D01*
X123175846Y-75424983D01*
X123173474Y-75406203D01*
X123170558Y-75398837D01*
X123170556Y-75398831D01*
X123157200Y-75365098D01*
X123153355Y-75353868D01*
X123143230Y-75319017D01*
X123143230Y-75319016D01*
X123141019Y-75311407D01*
X123130705Y-75293966D01*
X123122008Y-75276213D01*
X123117472Y-75264758D01*
X123114552Y-75257383D01*
X123088563Y-75221612D01*
X123082047Y-75211692D01*
X123063578Y-75180463D01*
X123059542Y-75173638D01*
X123045221Y-75159317D01*
X123032380Y-75144283D01*
X123025132Y-75134307D01*
X123020472Y-75127893D01*
X122986407Y-75099712D01*
X122977626Y-75091722D01*
X122423646Y-74537741D01*
X122416113Y-74529463D01*
X122412000Y-74522982D01*
X122385282Y-74497892D01*
X122351301Y-74443721D01*
X122327744Y-74368550D01*
X122327743Y-74368548D01*
X122325472Y-74361301D01*
X122236639Y-74214619D01*
X122115381Y-74093361D01*
X121968699Y-74004528D01*
X121911820Y-73986703D01*
X121852798Y-73947245D01*
X121824478Y-73882141D01*
X121823500Y-73866469D01*
X121823500Y-68990438D01*
X122207000Y-68990438D01*
X122207337Y-68996953D01*
X122216894Y-69089057D01*
X122219788Y-69102456D01*
X122269381Y-69251107D01*
X122275555Y-69264286D01*
X122357788Y-69397173D01*
X122366824Y-69408574D01*
X122477429Y-69518986D01*
X122488840Y-69527998D01*
X122621880Y-69610004D01*
X122635061Y-69616151D01*
X122783814Y-69665491D01*
X122797190Y-69668358D01*
X122888097Y-69677672D01*
X122894513Y-69678000D01*
X122917885Y-69678000D01*
X122933124Y-69673525D01*
X122934329Y-69672135D01*
X122936000Y-69664452D01*
X122936000Y-69659885D01*
X123444000Y-69659885D01*
X123448475Y-69675124D01*
X123449865Y-69676329D01*
X123457548Y-69678000D01*
X123485438Y-69678000D01*
X123491953Y-69677663D01*
X123584057Y-69668106D01*
X123597456Y-69665212D01*
X123746107Y-69615619D01*
X123759286Y-69609445D01*
X123892173Y-69527212D01*
X123903574Y-69518176D01*
X124013986Y-69407571D01*
X124022998Y-69396160D01*
X124105004Y-69263120D01*
X124111151Y-69249939D01*
X124160491Y-69101186D01*
X124163358Y-69087810D01*
X124172672Y-68996903D01*
X124172929Y-68991874D01*
X124168525Y-68976876D01*
X124167135Y-68975671D01*
X124159452Y-68974000D01*
X123462115Y-68974000D01*
X123446876Y-68978475D01*
X123445671Y-68979865D01*
X123444000Y-68987548D01*
X123444000Y-69659885D01*
X122936000Y-69659885D01*
X122936000Y-68992115D01*
X122931525Y-68976876D01*
X122930135Y-68975671D01*
X122922452Y-68974000D01*
X122225115Y-68974000D01*
X122209876Y-68978475D01*
X122208671Y-68979865D01*
X122207000Y-68987548D01*
X122207000Y-68990438D01*
X121823500Y-68990438D01*
X121823500Y-64361781D01*
X121843502Y-64293660D01*
X121883197Y-64254637D01*
X122008120Y-64177332D01*
X122014348Y-64173478D01*
X122139305Y-64048303D01*
X122171075Y-63996764D01*
X122223846Y-63949271D01*
X122293918Y-63937847D01*
X122359042Y-63966121D01*
X122377418Y-63985045D01*
X122383604Y-63992920D01*
X122513082Y-64105275D01*
X122551421Y-64165027D01*
X122556500Y-64200439D01*
X122556500Y-66249501D01*
X122536498Y-66317622D01*
X122496805Y-66356644D01*
X122487512Y-66362395D01*
X122487507Y-66362399D01*
X122481287Y-66366248D01*
X122360448Y-66487298D01*
X122356608Y-66493528D01*
X122356607Y-66493529D01*
X122275255Y-66625507D01*
X122270698Y-66632899D01*
X122216851Y-66795243D01*
X122206500Y-66896268D01*
X122206500Y-67443732D01*
X122217113Y-67546019D01*
X122219295Y-67552559D01*
X122268537Y-67700153D01*
X122271244Y-67708268D01*
X122361248Y-67853713D01*
X122366430Y-67858886D01*
X122370977Y-67864623D01*
X122369170Y-67866055D01*
X122397902Y-67918575D01*
X122392892Y-67989395D01*
X122369501Y-68025853D01*
X122370552Y-68026683D01*
X122357002Y-68043840D01*
X122274996Y-68176880D01*
X122268849Y-68190061D01*
X122219509Y-68338814D01*
X122216642Y-68352190D01*
X122207328Y-68443097D01*
X122207071Y-68448126D01*
X122211475Y-68463124D01*
X122212865Y-68464329D01*
X122220548Y-68466000D01*
X124154885Y-68466000D01*
X124170124Y-68461525D01*
X124171329Y-68460135D01*
X124173000Y-68452452D01*
X124173000Y-68449562D01*
X124172663Y-68443047D01*
X124163106Y-68350943D01*
X124160212Y-68337544D01*
X124110619Y-68188893D01*
X124104445Y-68175714D01*
X124022212Y-68042827D01*
X124008629Y-68025689D01*
X124010559Y-68024159D01*
X123982097Y-67972120D01*
X123987113Y-67901301D01*
X124010799Y-67864383D01*
X124009843Y-67863628D01*
X124014381Y-67857882D01*
X124019552Y-67852702D01*
X124023393Y-67846471D01*
X124105462Y-67713331D01*
X124105463Y-67713329D01*
X124109302Y-67707101D01*
X124163149Y-67544757D01*
X124173500Y-67443732D01*
X124173500Y-66896268D01*
X124162887Y-66793981D01*
X124151304Y-66759263D01*
X124111073Y-66638676D01*
X124111072Y-66638674D01*
X124108756Y-66631732D01*
X124018752Y-66486287D01*
X123897702Y-66365448D01*
X123891468Y-66361605D01*
X123883383Y-66356621D01*
X123835890Y-66303848D01*
X123823500Y-66249362D01*
X123823500Y-64199807D01*
X123843502Y-64131686D01*
X123876601Y-64097037D01*
X123912720Y-64071416D01*
X123912724Y-64071413D01*
X123917611Y-64067946D01*
X124063881Y-63915150D01*
X124067130Y-63910119D01*
X124067135Y-63910112D01*
X124085033Y-63882393D01*
X124138789Y-63836016D01*
X124209085Y-63826063D01*
X124273602Y-63855696D01*
X124289970Y-63872909D01*
X124380262Y-63987857D01*
X124388499Y-63996506D01*
X124539123Y-64127212D01*
X124548847Y-64134147D01*
X124721467Y-64234010D01*
X124732331Y-64238984D01*
X124920727Y-64304407D01*
X124921716Y-64304648D01*
X124932008Y-64303180D01*
X124936000Y-64289615D01*
X124936000Y-64285402D01*
X125444000Y-64285402D01*
X125447973Y-64298933D01*
X125457399Y-64300288D01*
X125546537Y-64278806D01*
X125557832Y-64274917D01*
X125739382Y-64192371D01*
X125749724Y-64186424D01*
X125912397Y-64071032D01*
X125921425Y-64063239D01*
X126059342Y-63919169D01*
X126066738Y-63909804D01*
X126174921Y-63742259D01*
X126180417Y-63731655D01*
X126254961Y-63546688D01*
X126258355Y-63535230D01*
X126296857Y-63338072D01*
X126297934Y-63329209D01*
X126298000Y-63326500D01*
X126298000Y-63222115D01*
X126293525Y-63206876D01*
X126292135Y-63205671D01*
X126284452Y-63204000D01*
X125462115Y-63204000D01*
X125446876Y-63208475D01*
X125445671Y-63209865D01*
X125444000Y-63217548D01*
X125444000Y-64285402D01*
X124936000Y-64285402D01*
X124936000Y-62677885D01*
X125444000Y-62677885D01*
X125448475Y-62693124D01*
X125449865Y-62694329D01*
X125457548Y-62696000D01*
X126279885Y-62696000D01*
X126295124Y-62691525D01*
X126296329Y-62690135D01*
X126298000Y-62682452D01*
X126298000Y-62625168D01*
X126297715Y-62619192D01*
X126283529Y-62470506D01*
X126281270Y-62458772D01*
X126225128Y-62267401D01*
X126220698Y-62256325D01*
X126129381Y-62079022D01*
X126122931Y-62068976D01*
X125999738Y-61912143D01*
X125991501Y-61903494D01*
X125840877Y-61772788D01*
X125831153Y-61765853D01*
X125658533Y-61665990D01*
X125647669Y-61661016D01*
X125459273Y-61595593D01*
X125458284Y-61595352D01*
X125447992Y-61596820D01*
X125444000Y-61610385D01*
X125444000Y-62677885D01*
X124936000Y-62677885D01*
X124936000Y-61614598D01*
X124932027Y-61601067D01*
X124922601Y-61599712D01*
X124833463Y-61621194D01*
X124822168Y-61625083D01*
X124640618Y-61707629D01*
X124630276Y-61713576D01*
X124467603Y-61828968D01*
X124458575Y-61836761D01*
X124320658Y-61980831D01*
X124313259Y-61990200D01*
X124295582Y-62017577D01*
X124241828Y-62063955D01*
X124171532Y-62073909D01*
X124107015Y-62044278D01*
X124090644Y-62027063D01*
X124083193Y-62017577D01*
X123996396Y-61907080D01*
X123991865Y-61903148D01*
X123991862Y-61903145D01*
X123841167Y-61772379D01*
X123836637Y-61768448D01*
X123831451Y-61765448D01*
X123831447Y-61765445D01*
X123658742Y-61665533D01*
X123653546Y-61662527D01*
X123453729Y-61593139D01*
X123447794Y-61592278D01*
X123447792Y-61592278D01*
X123250336Y-61563648D01*
X123250333Y-61563648D01*
X123244396Y-61562787D01*
X123033101Y-61572567D01*
X122920466Y-61599712D01*
X122833299Y-61620719D01*
X122833297Y-61620720D01*
X122827466Y-61622125D01*
X122822008Y-61624607D01*
X122822004Y-61624608D01*
X122730990Y-61665990D01*
X122634913Y-61709674D01*
X122462389Y-61832054D01*
X122458247Y-61836381D01*
X122458241Y-61836386D01*
X122371194Y-61927317D01*
X122309639Y-61962694D01*
X122238730Y-61959175D01*
X122180979Y-61917879D01*
X122173032Y-61906491D01*
X122138478Y-61850652D01*
X122013303Y-61725695D01*
X122007072Y-61721854D01*
X121868968Y-61636725D01*
X121868966Y-61636724D01*
X121862738Y-61632885D01*
X121754005Y-61596820D01*
X121701389Y-61579368D01*
X121701387Y-61579368D01*
X121694861Y-61577203D01*
X121688025Y-61576503D01*
X121688022Y-61576502D01*
X121644969Y-61572091D01*
X121590400Y-61566500D01*
X120789600Y-61566500D01*
X120786354Y-61566837D01*
X120786350Y-61566837D01*
X120690692Y-61576762D01*
X120690688Y-61576763D01*
X120683834Y-61577474D01*
X120677298Y-61579655D01*
X120677296Y-61579655D01*
X120613117Y-61601067D01*
X120516054Y-61633450D01*
X120365652Y-61726522D01*
X120240695Y-61851697D01*
X120236855Y-61857927D01*
X120236854Y-61857928D01*
X120199900Y-61917879D01*
X120147885Y-62002262D01*
X120092203Y-62170139D01*
X120081500Y-62274600D01*
X120081500Y-63625400D01*
X120092474Y-63731166D01*
X120148450Y-63898946D01*
X120241522Y-64049348D01*
X120366697Y-64174305D01*
X120372927Y-64178145D01*
X120372928Y-64178146D01*
X120496616Y-64254389D01*
X120544110Y-64307162D01*
X120556500Y-64361649D01*
X120556500Y-73924931D01*
X120536498Y-73993052D01*
X120482842Y-74039545D01*
X120412568Y-74049649D01*
X120365230Y-74032707D01*
X120325201Y-74008465D01*
X120325196Y-74008463D01*
X120318699Y-74004528D01*
X120311452Y-74002257D01*
X120311450Y-74002256D01*
X120223180Y-73974594D01*
X120155062Y-73953247D01*
X120081635Y-73946500D01*
X120078737Y-73946500D01*
X119824335Y-73946501D01*
X119568366Y-73946501D01*
X119565508Y-73946764D01*
X119565499Y-73946764D01*
X119529996Y-73950026D01*
X119494938Y-73953247D01*
X119488560Y-73955246D01*
X119488559Y-73955246D01*
X119338550Y-74002256D01*
X119338548Y-74002257D01*
X119331301Y-74004528D01*
X119184619Y-74093361D01*
X119063361Y-74214619D01*
X118974528Y-74361301D01*
X118923247Y-74524938D01*
X118916500Y-74598365D01*
X118916501Y-75261634D01*
X118923247Y-75335062D01*
X118925246Y-75341440D01*
X118925246Y-75341441D01*
X118966486Y-75473036D01*
X118974528Y-75498699D01*
X119014449Y-75564616D01*
X119042576Y-75611060D01*
X119060755Y-75679689D01*
X119038945Y-75747253D01*
X119009323Y-75775609D01*
X119010271Y-75776806D01*
X119004539Y-75781349D01*
X118998311Y-75785203D01*
X118874383Y-75909347D01*
X118870542Y-75915579D01*
X118870540Y-75915581D01*
X118851260Y-75946859D01*
X118798489Y-75994353D01*
X118728417Y-76005777D01*
X118663293Y-75977503D01*
X118623793Y-75918510D01*
X118618000Y-75880744D01*
X118618000Y-60324000D01*
X118638002Y-60255879D01*
X118691658Y-60209386D01*
X118744000Y-60198000D01*
X147956000Y-60198000D01*
X148024121Y-60218002D01*
G37*
%TD.AperFunction*%
%TA.AperFunction,Conductor*%
G36*
X132183527Y-87346002D02*
G01*
X132204501Y-87362905D01*
X133459595Y-88617999D01*
X133493621Y-88680311D01*
X133496500Y-88707094D01*
X133496500Y-89221502D01*
X133496693Y-89223950D01*
X133496693Y-89223958D01*
X133498927Y-89252336D01*
X133499438Y-89258831D01*
X133521977Y-89336411D01*
X133543643Y-89410986D01*
X133545855Y-89418601D01*
X133559123Y-89441036D01*
X133626509Y-89554980D01*
X133626511Y-89554983D01*
X133630547Y-89561807D01*
X133636155Y-89567415D01*
X133641011Y-89573675D01*
X133639504Y-89574844D01*
X133668621Y-89628167D01*
X133671500Y-89654950D01*
X133671500Y-90601233D01*
X133670973Y-90612416D01*
X133669298Y-90619909D01*
X133669547Y-90627835D01*
X133669547Y-90627836D01*
X133670070Y-90644464D01*
X133671114Y-90677661D01*
X133671438Y-90687982D01*
X133671500Y-90691941D01*
X133671500Y-90719856D01*
X133671997Y-90723790D01*
X133671997Y-90723791D01*
X133672005Y-90723856D01*
X133672938Y-90735693D01*
X133674327Y-90779889D01*
X133679978Y-90799339D01*
X133683987Y-90818700D01*
X133686526Y-90838797D01*
X133689445Y-90846168D01*
X133689445Y-90846170D01*
X133702804Y-90879912D01*
X133706649Y-90891142D01*
X133718982Y-90933593D01*
X133723015Y-90940412D01*
X133723017Y-90940417D01*
X133729293Y-90951028D01*
X133737988Y-90968776D01*
X133745448Y-90987617D01*
X133750110Y-90994033D01*
X133750110Y-90994034D01*
X133771436Y-91023387D01*
X133777952Y-91033307D01*
X133800458Y-91071362D01*
X133814779Y-91085683D01*
X133827619Y-91100716D01*
X133839528Y-91117107D01*
X133845634Y-91122158D01*
X133873605Y-91145298D01*
X133882384Y-91153288D01*
X134119595Y-91390499D01*
X134153621Y-91452811D01*
X134156500Y-91479594D01*
X134156501Y-91632589D01*
X134156501Y-91771634D01*
X134156764Y-91774492D01*
X134156764Y-91774501D01*
X134157740Y-91785123D01*
X134163247Y-91845062D01*
X134165246Y-91851440D01*
X134165246Y-91851441D01*
X134206577Y-91983326D01*
X134214528Y-92008699D01*
X134303361Y-92155381D01*
X134424619Y-92276639D01*
X134571301Y-92365472D01*
X134578548Y-92367743D01*
X134578550Y-92367744D01*
X134644836Y-92388517D01*
X134734938Y-92416753D01*
X134808365Y-92423500D01*
X134811263Y-92423500D01*
X135065665Y-92423499D01*
X135321634Y-92423499D01*
X135324492Y-92423236D01*
X135324501Y-92423236D01*
X135360004Y-92419974D01*
X135395062Y-92416753D01*
X135403027Y-92414257D01*
X135551450Y-92367744D01*
X135551452Y-92367743D01*
X135558699Y-92365472D01*
X135705381Y-92276639D01*
X135800905Y-92181115D01*
X135863217Y-92147089D01*
X135934032Y-92152154D01*
X135979095Y-92181115D01*
X136074619Y-92276639D01*
X136221301Y-92365472D01*
X136228548Y-92367743D01*
X136228550Y-92367744D01*
X136294836Y-92388517D01*
X136384938Y-92416753D01*
X136458365Y-92423500D01*
X136560404Y-92423500D01*
X136628525Y-92443502D01*
X136649499Y-92460405D01*
X136973229Y-92784135D01*
X137007255Y-92846447D01*
X137002190Y-92917262D01*
X136959643Y-92974098D01*
X136895662Y-92998702D01*
X136846188Y-93003247D01*
X136839810Y-93005246D01*
X136839809Y-93005246D01*
X136689800Y-93052256D01*
X136689798Y-93052257D01*
X136682551Y-93054528D01*
X136535869Y-93143361D01*
X136440345Y-93238885D01*
X136378033Y-93272911D01*
X136307218Y-93267846D01*
X136262155Y-93238885D01*
X136166631Y-93143361D01*
X136019949Y-93054528D01*
X136012702Y-93052257D01*
X136012700Y-93052256D01*
X135919417Y-93023023D01*
X135856312Y-93003247D01*
X135782885Y-92996500D01*
X135779987Y-92996500D01*
X135525585Y-92996501D01*
X135269616Y-92996501D01*
X135266758Y-92996764D01*
X135266749Y-92996764D01*
X135231246Y-93000026D01*
X135196188Y-93003247D01*
X135189810Y-93005246D01*
X135189809Y-93005246D01*
X135039800Y-93052256D01*
X135039798Y-93052257D01*
X135032551Y-93054528D01*
X134885869Y-93143361D01*
X134841340Y-93187890D01*
X134779028Y-93221916D01*
X134708213Y-93216851D01*
X134651377Y-93174304D01*
X134634265Y-93143029D01*
X134633770Y-93141708D01*
X134633766Y-93141702D01*
X134630615Y-93133295D01*
X134543261Y-93016739D01*
X134426705Y-92929385D01*
X134290316Y-92878255D01*
X134228134Y-92871500D01*
X133231866Y-92871500D01*
X133169684Y-92878255D01*
X133033295Y-92929385D01*
X132916739Y-93016739D01*
X132829385Y-93133295D01*
X132778255Y-93269684D01*
X132771500Y-93331866D01*
X132771500Y-94628134D01*
X132778255Y-94690316D01*
X132829385Y-94826705D01*
X132916739Y-94943261D01*
X133033295Y-95030615D01*
X133169684Y-95081745D01*
X133231866Y-95088500D01*
X134228134Y-95088500D01*
X134290316Y-95081745D01*
X134426705Y-95030615D01*
X134543261Y-94943261D01*
X134630615Y-94826705D01*
X134633767Y-94818297D01*
X134633770Y-94818292D01*
X134634265Y-94816971D01*
X134635106Y-94815852D01*
X134638077Y-94810425D01*
X134638860Y-94810854D01*
X134676908Y-94760208D01*
X134743470Y-94735511D01*
X134812819Y-94750720D01*
X134841340Y-94772110D01*
X134885869Y-94816639D01*
X135032551Y-94905472D01*
X135039798Y-94907743D01*
X135039800Y-94907744D01*
X135106086Y-94928517D01*
X135196188Y-94956753D01*
X135269615Y-94963500D01*
X135272513Y-94963500D01*
X135526915Y-94963499D01*
X135782884Y-94963499D01*
X135785742Y-94963236D01*
X135785751Y-94963236D01*
X135821254Y-94959974D01*
X135856312Y-94956753D01*
X135862697Y-94954752D01*
X136012700Y-94907744D01*
X136012702Y-94907743D01*
X136019949Y-94905472D01*
X136166631Y-94816639D01*
X136262155Y-94721115D01*
X136324467Y-94687089D01*
X136395282Y-94692154D01*
X136440345Y-94721115D01*
X136535869Y-94816639D01*
X136682551Y-94905472D01*
X136689799Y-94907743D01*
X136689798Y-94907743D01*
X136811799Y-94945976D01*
X136870821Y-94985434D01*
X136899140Y-95050537D01*
X136899429Y-95079377D01*
X136881496Y-95250000D01*
X136882186Y-95256565D01*
X136891594Y-95346073D01*
X136901458Y-95439928D01*
X136960473Y-95621556D01*
X136963776Y-95627278D01*
X136963777Y-95627279D01*
X136989941Y-95672596D01*
X137055960Y-95786944D01*
X137060378Y-95791851D01*
X137060379Y-95791852D01*
X137168365Y-95911783D01*
X137183747Y-95928866D01*
X137338248Y-96041118D01*
X137344276Y-96043802D01*
X137344278Y-96043803D01*
X137414546Y-96075088D01*
X137512712Y-96118794D01*
X137601260Y-96137616D01*
X137634231Y-96144624D01*
X137696705Y-96178353D01*
X137731026Y-96240502D01*
X137726298Y-96311341D01*
X137697129Y-96356966D01*
X136697954Y-97356141D01*
X136635642Y-97390167D01*
X136564827Y-97385102D01*
X136507991Y-97342555D01*
X136499740Y-97330046D01*
X136489155Y-97311712D01*
X136455290Y-97253056D01*
X136381038Y-97170590D01*
X136331925Y-97116045D01*
X136331924Y-97116044D01*
X136327503Y-97111134D01*
X136210643Y-97026230D01*
X136178344Y-97002763D01*
X136178343Y-97002762D01*
X136173002Y-96998882D01*
X136166974Y-96996198D01*
X136166972Y-96996197D01*
X136004569Y-96923891D01*
X136004568Y-96923891D01*
X135998538Y-96921206D01*
X135905138Y-96901353D01*
X135818194Y-96882872D01*
X135818189Y-96882872D01*
X135811737Y-96881500D01*
X135620763Y-96881500D01*
X135614311Y-96882872D01*
X135614306Y-96882872D01*
X135527362Y-96901353D01*
X135433962Y-96921206D01*
X135427932Y-96923891D01*
X135427931Y-96923891D01*
X135265528Y-96996197D01*
X135265526Y-96996198D01*
X135259498Y-96998882D01*
X135254157Y-97002762D01*
X135254156Y-97002763D01*
X135221857Y-97026230D01*
X135104997Y-97111134D01*
X135100582Y-97116037D01*
X135095670Y-97120460D01*
X135094545Y-97119211D01*
X135041236Y-97152051D01*
X135008050Y-97156500D01*
X134797870Y-97156500D01*
X134729749Y-97136498D01*
X134683256Y-97082842D01*
X134679888Y-97074730D01*
X134633767Y-96951703D01*
X134630615Y-96943295D01*
X134543261Y-96826739D01*
X134426705Y-96739385D01*
X134290316Y-96688255D01*
X134228134Y-96681500D01*
X133231866Y-96681500D01*
X133169684Y-96688255D01*
X133033295Y-96739385D01*
X132916739Y-96826739D01*
X132829385Y-96943295D01*
X132778255Y-97079684D01*
X132771500Y-97141866D01*
X132771500Y-98438134D01*
X132778255Y-98500316D01*
X132829385Y-98636705D01*
X132916739Y-98753261D01*
X132972766Y-98795251D01*
X133025368Y-98834674D01*
X133067883Y-98891533D01*
X133072909Y-98962352D01*
X133038849Y-99024645D01*
X132976518Y-99058635D01*
X132949803Y-99061500D01*
X132361263Y-99061500D01*
X132350079Y-99060973D01*
X132342591Y-99059299D01*
X132334668Y-99059548D01*
X132274533Y-99061438D01*
X132270575Y-99061500D01*
X132242644Y-99061500D01*
X132238729Y-99061995D01*
X132238725Y-99061995D01*
X132238667Y-99062003D01*
X132238638Y-99062006D01*
X132226796Y-99062939D01*
X132182610Y-99064327D01*
X132165244Y-99069372D01*
X132163158Y-99069978D01*
X132143806Y-99073986D01*
X132136735Y-99074880D01*
X132123703Y-99076526D01*
X132116334Y-99079443D01*
X132116332Y-99079444D01*
X132082597Y-99092800D01*
X132071369Y-99096645D01*
X132028907Y-99108982D01*
X132022085Y-99113016D01*
X132022079Y-99113019D01*
X132011468Y-99119294D01*
X131993718Y-99127990D01*
X131982256Y-99132528D01*
X131982251Y-99132531D01*
X131974883Y-99135448D01*
X131957470Y-99148099D01*
X131939125Y-99161427D01*
X131929207Y-99167943D01*
X131910519Y-99178995D01*
X131891137Y-99190458D01*
X131876813Y-99204782D01*
X131861781Y-99217621D01*
X131845393Y-99229528D01*
X131817212Y-99263593D01*
X131809222Y-99272373D01*
X129579845Y-101501750D01*
X129517533Y-101535776D01*
X129446718Y-101530711D01*
X129389882Y-101488164D01*
X129365071Y-101421644D01*
X129364750Y-101412655D01*
X129364750Y-98795251D01*
X129384752Y-98727130D01*
X129438408Y-98680637D01*
X129508682Y-98670533D01*
X129573262Y-98700027D01*
X129591575Y-98719685D01*
X129616739Y-98753261D01*
X129733295Y-98840615D01*
X129869684Y-98891745D01*
X129931866Y-98898500D01*
X130928134Y-98898500D01*
X130990316Y-98891745D01*
X131126705Y-98840615D01*
X131243261Y-98753261D01*
X131330615Y-98636705D01*
X131381745Y-98500316D01*
X131388500Y-98438134D01*
X131388500Y-97141866D01*
X131381745Y-97079684D01*
X131330615Y-96943295D01*
X131243261Y-96826739D01*
X131126705Y-96739385D01*
X130990316Y-96688255D01*
X130928134Y-96681500D01*
X129931866Y-96681500D01*
X129928469Y-96681869D01*
X129877535Y-96687402D01*
X129877534Y-96687402D01*
X129869684Y-96688255D01*
X129867453Y-96689092D01*
X129798993Y-96685516D01*
X129741350Y-96644069D01*
X129715266Y-96578038D01*
X129714749Y-96566636D01*
X129714749Y-96453366D01*
X129713604Y-96440896D01*
X129709111Y-96392000D01*
X129708003Y-96379938D01*
X129672297Y-96266000D01*
X129658994Y-96223550D01*
X129658993Y-96223548D01*
X129656722Y-96216301D01*
X129567889Y-96069619D01*
X129472365Y-95974095D01*
X129438339Y-95911783D01*
X129443404Y-95840968D01*
X129472365Y-95795905D01*
X129567889Y-95700381D01*
X129573706Y-95690777D01*
X129582012Y-95677061D01*
X129634408Y-95629153D01*
X129643398Y-95625181D01*
X129657617Y-95619552D01*
X129693387Y-95593564D01*
X129703307Y-95587048D01*
X129734535Y-95568580D01*
X129734538Y-95568578D01*
X129741362Y-95564542D01*
X129755683Y-95550221D01*
X129770717Y-95537380D01*
X129780694Y-95530131D01*
X129787107Y-95525472D01*
X129815298Y-95491395D01*
X129823288Y-95482616D01*
X130180499Y-95125405D01*
X130242811Y-95091379D01*
X130269594Y-95088500D01*
X130928134Y-95088500D01*
X130990316Y-95081745D01*
X131126705Y-95030615D01*
X131243261Y-94943261D01*
X131330615Y-94826705D01*
X131381745Y-94690316D01*
X131388500Y-94628134D01*
X131388500Y-93331866D01*
X131381745Y-93269684D01*
X131330615Y-93133295D01*
X131243261Y-93016739D01*
X131126705Y-92929385D01*
X131126049Y-92929139D01*
X131078843Y-92881825D01*
X131063500Y-92821567D01*
X131063500Y-92598768D01*
X131064027Y-92587585D01*
X131065702Y-92580092D01*
X131064849Y-92552957D01*
X131082701Y-92484242D01*
X131134869Y-92436087D01*
X131190787Y-92422999D01*
X131253705Y-92422999D01*
X131259454Y-92422736D01*
X131323315Y-92416868D01*
X131336351Y-92414257D01*
X131486243Y-92367285D01*
X131499988Y-92361079D01*
X131633574Y-92280176D01*
X131645443Y-92270869D01*
X131755869Y-92160443D01*
X131765176Y-92148574D01*
X131846079Y-92014988D01*
X131852285Y-92001243D01*
X131899256Y-91851356D01*
X131901869Y-91838306D01*
X131907734Y-91774479D01*
X131908000Y-91768691D01*
X131908000Y-91712115D01*
X131903525Y-91696876D01*
X131902135Y-91695671D01*
X131894452Y-91694000D01*
X130872000Y-91694000D01*
X130803879Y-91673998D01*
X130757386Y-91620342D01*
X130746000Y-91568000D01*
X130746000Y-91167885D01*
X131254000Y-91167885D01*
X131258475Y-91183124D01*
X131259865Y-91184329D01*
X131267548Y-91186000D01*
X131889884Y-91186000D01*
X131905123Y-91181525D01*
X131906328Y-91180135D01*
X131907999Y-91172452D01*
X131907999Y-91111295D01*
X131907736Y-91105546D01*
X131901868Y-91041685D01*
X131899257Y-91028649D01*
X131852285Y-90878757D01*
X131846079Y-90865012D01*
X131765176Y-90731426D01*
X131755869Y-90719557D01*
X131645443Y-90609131D01*
X131633574Y-90599824D01*
X131499988Y-90518921D01*
X131486243Y-90512715D01*
X131336356Y-90465744D01*
X131323306Y-90463131D01*
X131268414Y-90458087D01*
X131256876Y-90461475D01*
X131255671Y-90462865D01*
X131254000Y-90470548D01*
X131254000Y-91167885D01*
X130746000Y-91167885D01*
X130746000Y-90475116D01*
X130741525Y-90459877D01*
X130740135Y-90458672D01*
X130735706Y-90457709D01*
X130676685Y-90463132D01*
X130663649Y-90465743D01*
X130513757Y-90512715D01*
X130500012Y-90518921D01*
X130366426Y-90599824D01*
X130354557Y-90609131D01*
X130264449Y-90699239D01*
X130202137Y-90733265D01*
X130131322Y-90728200D01*
X130086259Y-90699239D01*
X130020405Y-90633385D01*
X129986379Y-90571073D01*
X129983500Y-90544290D01*
X129983500Y-89438754D01*
X129988503Y-89403602D01*
X130028767Y-89265011D01*
X130028768Y-89265007D01*
X130030562Y-89258831D01*
X130031074Y-89252336D01*
X130033307Y-89223958D01*
X130033307Y-89223950D01*
X130033500Y-89221502D01*
X130033500Y-89218984D01*
X130317001Y-89218984D01*
X130317195Y-89223920D01*
X130319430Y-89252336D01*
X130321730Y-89264931D01*
X130364107Y-89410790D01*
X130370352Y-89425221D01*
X130446911Y-89554678D01*
X130456551Y-89567104D01*
X130562896Y-89673449D01*
X130575322Y-89683089D01*
X130704779Y-89759648D01*
X130719210Y-89765893D01*
X130853605Y-89804939D01*
X130867706Y-89804899D01*
X130871000Y-89797630D01*
X130871000Y-89791878D01*
X131379000Y-89791878D01*
X131382973Y-89805409D01*
X131390871Y-89806544D01*
X131530790Y-89765893D01*
X131545221Y-89759648D01*
X131674678Y-89683089D01*
X131687104Y-89673449D01*
X131793449Y-89567104D01*
X131803089Y-89554678D01*
X131879648Y-89425221D01*
X131885893Y-89410790D01*
X131928269Y-89264935D01*
X131930570Y-89252333D01*
X131932807Y-89223916D01*
X131933000Y-89218986D01*
X131933000Y-88839615D01*
X131928525Y-88824376D01*
X131927135Y-88823171D01*
X131919452Y-88821500D01*
X131397115Y-88821500D01*
X131381876Y-88825975D01*
X131380671Y-88827365D01*
X131379000Y-88835048D01*
X131379000Y-89791878D01*
X130871000Y-89791878D01*
X130871000Y-88839615D01*
X130866525Y-88824376D01*
X130865135Y-88823171D01*
X130857452Y-88821500D01*
X130335116Y-88821500D01*
X130319877Y-88825975D01*
X130318672Y-88827365D01*
X130317001Y-88835048D01*
X130317001Y-89218984D01*
X130033500Y-89218984D01*
X130033500Y-88064500D01*
X130053502Y-87996379D01*
X130107158Y-87949886D01*
X130159500Y-87938500D01*
X130191000Y-87938500D01*
X130259121Y-87958502D01*
X130305614Y-88012158D01*
X130317000Y-88064500D01*
X130317000Y-88295385D01*
X130321475Y-88310624D01*
X130322865Y-88311829D01*
X130330548Y-88313500D01*
X131914884Y-88313500D01*
X131930123Y-88309025D01*
X131931328Y-88307635D01*
X131932999Y-88299952D01*
X131932999Y-87916017D01*
X131932805Y-87911080D01*
X131930570Y-87882664D01*
X131928270Y-87870069D01*
X131885893Y-87724210D01*
X131879648Y-87709779D01*
X131803089Y-87580322D01*
X131793449Y-87567896D01*
X131766648Y-87541095D01*
X131732622Y-87478783D01*
X131737687Y-87407968D01*
X131780234Y-87351132D01*
X131846754Y-87326321D01*
X131855743Y-87326000D01*
X132115406Y-87326000D01*
X132183527Y-87346002D01*
G37*
%TD.AperFunction*%
%TA.AperFunction,Conductor*%
G36*
X123738645Y-88303502D02*
G01*
X123777957Y-88343665D01*
X123846237Y-88455088D01*
X123992500Y-88623938D01*
X124164376Y-88766632D01*
X124234845Y-88807811D01*
X124237695Y-88809476D01*
X124286419Y-88861114D01*
X124299490Y-88930897D01*
X124272759Y-88996669D01*
X124232305Y-89030027D01*
X124219857Y-89036507D01*
X124215724Y-89039610D01*
X124215721Y-89039612D01*
X124191497Y-89057800D01*
X124041215Y-89170635D01*
X124037643Y-89174373D01*
X123963143Y-89252333D01*
X123886879Y-89332138D01*
X123883965Y-89336410D01*
X123883964Y-89336411D01*
X123812594Y-89441036D01*
X123760993Y-89516680D01*
X123734537Y-89573675D01*
X123685437Y-89679453D01*
X123666938Y-89719305D01*
X123607239Y-89934570D01*
X123583501Y-90156695D01*
X123583798Y-90161848D01*
X123583798Y-90161851D01*
X123589261Y-90256590D01*
X123596360Y-90379715D01*
X123597497Y-90384761D01*
X123597498Y-90384767D01*
X123629703Y-90527668D01*
X123625167Y-90598520D01*
X123595881Y-90644464D01*
X121082747Y-93157598D01*
X121074461Y-93165138D01*
X121067982Y-93169250D01*
X121062557Y-93175027D01*
X121021357Y-93218901D01*
X121018602Y-93221743D01*
X120998865Y-93241480D01*
X120996385Y-93244677D01*
X120988682Y-93253697D01*
X120958414Y-93285929D01*
X120954595Y-93292875D01*
X120954593Y-93292878D01*
X120948652Y-93303684D01*
X120937801Y-93320203D01*
X120925386Y-93336209D01*
X120922241Y-93343478D01*
X120922238Y-93343482D01*
X120907826Y-93376787D01*
X120902609Y-93387437D01*
X120881305Y-93426190D01*
X120879334Y-93433865D01*
X120879334Y-93433866D01*
X120876267Y-93445812D01*
X120869863Y-93464516D01*
X120861819Y-93483105D01*
X120860580Y-93490928D01*
X120860577Y-93490938D01*
X120854901Y-93526774D01*
X120852495Y-93538394D01*
X120845543Y-93565473D01*
X120841500Y-93581220D01*
X120841500Y-93601474D01*
X120839949Y-93621184D01*
X120836780Y-93641193D01*
X120837526Y-93649085D01*
X120840941Y-93685211D01*
X120841500Y-93697069D01*
X120841500Y-93719290D01*
X120821498Y-93787411D01*
X120804595Y-93808385D01*
X120739095Y-93873885D01*
X120676783Y-93907911D01*
X120605968Y-93902846D01*
X120560905Y-93873885D01*
X120465381Y-93778361D01*
X120318699Y-93689528D01*
X120311452Y-93687257D01*
X120311450Y-93687256D01*
X120245164Y-93666483D01*
X120155062Y-93638247D01*
X120081635Y-93631500D01*
X120078737Y-93631500D01*
X119824335Y-93631501D01*
X119568366Y-93631501D01*
X119565508Y-93631764D01*
X119565499Y-93631764D01*
X119529996Y-93635026D01*
X119494938Y-93638247D01*
X119488560Y-93640246D01*
X119488559Y-93640246D01*
X119338550Y-93687256D01*
X119338548Y-93687257D01*
X119331301Y-93689528D01*
X119184619Y-93778361D01*
X119063361Y-93899619D01*
X118974528Y-94046301D01*
X118972257Y-94053548D01*
X118972256Y-94053550D01*
X118953275Y-94114118D01*
X118923247Y-94209938D01*
X118916500Y-94283365D01*
X118916501Y-94946634D01*
X118916764Y-94949492D01*
X118916764Y-94949501D01*
X118920026Y-94985004D01*
X118923247Y-95020062D01*
X118925246Y-95026440D01*
X118925246Y-95026441D01*
X118956260Y-95125405D01*
X118974528Y-95183699D01*
X119028832Y-95273365D01*
X119042576Y-95296060D01*
X119060755Y-95364689D01*
X119038945Y-95432253D01*
X119009323Y-95460609D01*
X119010271Y-95461806D01*
X119004539Y-95466349D01*
X118998311Y-95470203D01*
X118874383Y-95594347D01*
X118870542Y-95600579D01*
X118870540Y-95600581D01*
X118851260Y-95631859D01*
X118798489Y-95679353D01*
X118728417Y-95690777D01*
X118663293Y-95662503D01*
X118623793Y-95603510D01*
X118618000Y-95565744D01*
X118618000Y-90489113D01*
X118638002Y-90420992D01*
X118691658Y-90374499D01*
X118761932Y-90364395D01*
X118826512Y-90393889D01*
X118851144Y-90422810D01*
X118875203Y-90461689D01*
X118999347Y-90585617D01*
X119148671Y-90677661D01*
X119155619Y-90679966D01*
X119155620Y-90679966D01*
X119308634Y-90730719D01*
X119308636Y-90730719D01*
X119315165Y-90732885D01*
X119418769Y-90743500D01*
X119710234Y-90743500D01*
X120006230Y-90743499D01*
X120111129Y-90732616D01*
X120117660Y-90730437D01*
X120117665Y-90730436D01*
X120270578Y-90679420D01*
X120277526Y-90677102D01*
X120426689Y-90584797D01*
X120550617Y-90460653D01*
X120552614Y-90457413D01*
X120609352Y-90417186D01*
X120680275Y-90413953D01*
X120741687Y-90449578D01*
X120749066Y-90458078D01*
X120755782Y-90466552D01*
X120869479Y-90580051D01*
X120880890Y-90589063D01*
X121017654Y-90673365D01*
X121030832Y-90679509D01*
X121183740Y-90730227D01*
X121197106Y-90733093D01*
X121290601Y-90742672D01*
X121297016Y-90743000D01*
X121315385Y-90743000D01*
X121330624Y-90738525D01*
X121331829Y-90737135D01*
X121333500Y-90729452D01*
X121333500Y-90724884D01*
X121841500Y-90724884D01*
X121845975Y-90740123D01*
X121847365Y-90741328D01*
X121855048Y-90742999D01*
X121877933Y-90742999D01*
X121884452Y-90742662D01*
X121979170Y-90732834D01*
X121992564Y-90729942D01*
X122145365Y-90678964D01*
X122158543Y-90672790D01*
X122295149Y-90588256D01*
X122306550Y-90579220D01*
X122420051Y-90465521D01*
X122429063Y-90454110D01*
X122513365Y-90317346D01*
X122519509Y-90304168D01*
X122570227Y-90151260D01*
X122573093Y-90137894D01*
X122582672Y-90044399D01*
X122583000Y-90037984D01*
X122583000Y-89807115D01*
X122578525Y-89791876D01*
X122577135Y-89790671D01*
X122569452Y-89789000D01*
X121859615Y-89789000D01*
X121844376Y-89793475D01*
X121843171Y-89794865D01*
X121841500Y-89802548D01*
X121841500Y-90724884D01*
X121333500Y-90724884D01*
X121333500Y-89407000D01*
X121353502Y-89338879D01*
X121407158Y-89292386D01*
X121459500Y-89281000D01*
X122564884Y-89281000D01*
X122580123Y-89276525D01*
X122581328Y-89275135D01*
X122582999Y-89267452D01*
X122582999Y-89032067D01*
X122582662Y-89025548D01*
X122572834Y-88930830D01*
X122569942Y-88917436D01*
X122518964Y-88764635D01*
X122512790Y-88751457D01*
X122428256Y-88614851D01*
X122419220Y-88603450D01*
X122314260Y-88498673D01*
X122280181Y-88436391D01*
X122285184Y-88365571D01*
X122327681Y-88308698D01*
X122394180Y-88283829D01*
X122403278Y-88283500D01*
X123670524Y-88283500D01*
X123738645Y-88303502D01*
G37*
%TD.AperFunction*%
%TA.AperFunction,Conductor*%
G36*
X138436121Y-90571002D02*
G01*
X138482614Y-90624658D01*
X138494000Y-90677000D01*
X138494000Y-91769884D01*
X138498475Y-91785123D01*
X138499865Y-91786328D01*
X138504294Y-91787291D01*
X138563315Y-91781868D01*
X138576351Y-91779257D01*
X138726243Y-91732285D01*
X138739988Y-91726079D01*
X138873574Y-91645176D01*
X138885443Y-91635869D01*
X138975551Y-91545761D01*
X139037863Y-91511735D01*
X139108678Y-91516800D01*
X139153741Y-91545761D01*
X139219595Y-91611615D01*
X139253621Y-91673927D01*
X139256500Y-91700710D01*
X139256500Y-92338243D01*
X139236498Y-92406364D01*
X139182842Y-92452857D01*
X139112568Y-92462961D01*
X139104303Y-92461489D01*
X138993203Y-92437873D01*
X138993190Y-92437872D01*
X138986737Y-92436500D01*
X138795763Y-92436500D01*
X138789311Y-92437872D01*
X138789306Y-92437872D01*
X138702362Y-92456353D01*
X138608962Y-92476206D01*
X138602935Y-92478889D01*
X138602927Y-92478892D01*
X138583001Y-92487764D01*
X138512634Y-92497198D01*
X138448337Y-92467091D01*
X138442658Y-92461752D01*
X137964232Y-91983326D01*
X137930206Y-91921014D01*
X137935271Y-91850199D01*
X137962144Y-91814301D01*
X137958896Y-91811486D01*
X137984329Y-91782135D01*
X137986000Y-91774452D01*
X137986000Y-90677000D01*
X138006002Y-90608879D01*
X138059658Y-90562386D01*
X138112000Y-90551000D01*
X138368000Y-90551000D01*
X138436121Y-90571002D01*
G37*
%TD.AperFunction*%
%TA.AperFunction,Conductor*%
G36*
X121783621Y-82951002D02*
G01*
X121830114Y-83004658D01*
X121841500Y-83057000D01*
X121841500Y-84374884D01*
X121845975Y-84390123D01*
X121847365Y-84391328D01*
X121855048Y-84392999D01*
X121877933Y-84392999D01*
X121884452Y-84392662D01*
X121979170Y-84382834D01*
X121992564Y-84379942D01*
X122145365Y-84328964D01*
X122158543Y-84322790D01*
X122295149Y-84238256D01*
X122306550Y-84229220D01*
X122420051Y-84115521D01*
X122429063Y-84104110D01*
X122513365Y-83967346D01*
X122519509Y-83954169D01*
X122548170Y-83867758D01*
X122588600Y-83809398D01*
X122654164Y-83782161D01*
X122724046Y-83794694D01*
X122748079Y-83810341D01*
X122758605Y-83819049D01*
X122767384Y-83827038D01*
X123596028Y-84655682D01*
X123630054Y-84717994D01*
X123628350Y-84778448D01*
X123607239Y-84854570D01*
X123606691Y-84859700D01*
X123606690Y-84859704D01*
X123603183Y-84892522D01*
X123583501Y-85076695D01*
X123583798Y-85081848D01*
X123583798Y-85081851D01*
X123596062Y-85294547D01*
X123596360Y-85299715D01*
X123597497Y-85304761D01*
X123597498Y-85304767D01*
X123609885Y-85359729D01*
X123645472Y-85517639D01*
X123729516Y-85724616D01*
X123739511Y-85740926D01*
X123796898Y-85834573D01*
X123846237Y-85915088D01*
X123992500Y-86083938D01*
X124164376Y-86226632D01*
X124233205Y-86266852D01*
X124237695Y-86269476D01*
X124286419Y-86321114D01*
X124299490Y-86390897D01*
X124272759Y-86456669D01*
X124232305Y-86490027D01*
X124219857Y-86496507D01*
X124215724Y-86499610D01*
X124215721Y-86499612D01*
X124082022Y-86599996D01*
X124041215Y-86630635D01*
X123886879Y-86792138D01*
X123883965Y-86796410D01*
X123883964Y-86796411D01*
X123771345Y-86961504D01*
X123716434Y-87006507D01*
X123667257Y-87016500D01*
X122369337Y-87016500D01*
X122301216Y-86996498D01*
X122261562Y-86955772D01*
X122236639Y-86914619D01*
X122115381Y-86793361D01*
X121968699Y-86704528D01*
X121961452Y-86702257D01*
X121961450Y-86702256D01*
X121895164Y-86681483D01*
X121805062Y-86653247D01*
X121731635Y-86646500D01*
X121728737Y-86646500D01*
X121474335Y-86646501D01*
X121218366Y-86646501D01*
X121215508Y-86646764D01*
X121215499Y-86646764D01*
X121181935Y-86649848D01*
X121144938Y-86653247D01*
X121138560Y-86655246D01*
X121138559Y-86655246D01*
X120988550Y-86702256D01*
X120988548Y-86702257D01*
X120981301Y-86704528D01*
X120834619Y-86793361D01*
X120739095Y-86888885D01*
X120676783Y-86922911D01*
X120605968Y-86917846D01*
X120560905Y-86888885D01*
X120465381Y-86793361D01*
X120318699Y-86704528D01*
X120311452Y-86702257D01*
X120311450Y-86702256D01*
X120245164Y-86681483D01*
X120155062Y-86653247D01*
X120081635Y-86646500D01*
X120078737Y-86646500D01*
X119824335Y-86646501D01*
X119568366Y-86646501D01*
X119565508Y-86646764D01*
X119565499Y-86646764D01*
X119531935Y-86649848D01*
X119494938Y-86653247D01*
X119488560Y-86655246D01*
X119488559Y-86655246D01*
X119338550Y-86702256D01*
X119338548Y-86702257D01*
X119331301Y-86704528D01*
X119184619Y-86793361D01*
X119063361Y-86914619D01*
X118974528Y-87061301D01*
X118923247Y-87224938D01*
X118916500Y-87298365D01*
X118916501Y-87961634D01*
X118916764Y-87964492D01*
X118916764Y-87964501D01*
X118917156Y-87968767D01*
X118923247Y-88035062D01*
X118925246Y-88041440D01*
X118925246Y-88041441D01*
X118969968Y-88184147D01*
X118974528Y-88198699D01*
X119041344Y-88309025D01*
X119042576Y-88311060D01*
X119060755Y-88379689D01*
X119038945Y-88447253D01*
X119009323Y-88475609D01*
X119010271Y-88476806D01*
X119004539Y-88481349D01*
X118998311Y-88485203D01*
X118874383Y-88609347D01*
X118870542Y-88615579D01*
X118870540Y-88615581D01*
X118851260Y-88646859D01*
X118798489Y-88694353D01*
X118728417Y-88705777D01*
X118663293Y-88677503D01*
X118623793Y-88618510D01*
X118618000Y-88580744D01*
X118618000Y-84139113D01*
X118638002Y-84070992D01*
X118691658Y-84024499D01*
X118761932Y-84014395D01*
X118826512Y-84043889D01*
X118851144Y-84072810D01*
X118875203Y-84111689D01*
X118999347Y-84235617D01*
X119148671Y-84327661D01*
X119155619Y-84329966D01*
X119155620Y-84329966D01*
X119308634Y-84380719D01*
X119308636Y-84380719D01*
X119315165Y-84382885D01*
X119418769Y-84393500D01*
X119710234Y-84393500D01*
X120006230Y-84393499D01*
X120111129Y-84382616D01*
X120117660Y-84380437D01*
X120117665Y-84380436D01*
X120270578Y-84329420D01*
X120277526Y-84327102D01*
X120426689Y-84234797D01*
X120550617Y-84110653D01*
X120552614Y-84107413D01*
X120609352Y-84067186D01*
X120680275Y-84063953D01*
X120741687Y-84099578D01*
X120749066Y-84108078D01*
X120755782Y-84116552D01*
X120869479Y-84230051D01*
X120880890Y-84239063D01*
X121017654Y-84323365D01*
X121030832Y-84329509D01*
X121183740Y-84380227D01*
X121197106Y-84383093D01*
X121290601Y-84392672D01*
X121297016Y-84393000D01*
X121315385Y-84393000D01*
X121330624Y-84388525D01*
X121331829Y-84387135D01*
X121333500Y-84379452D01*
X121333500Y-83057000D01*
X121353502Y-82988879D01*
X121407158Y-82942386D01*
X121459500Y-82931000D01*
X121715500Y-82931000D01*
X121783621Y-82951002D01*
G37*
%TD.AperFunction*%
%TA.AperFunction,Conductor*%
G36*
X121783621Y-76601002D02*
G01*
X121830114Y-76654658D01*
X121841500Y-76707000D01*
X121841500Y-78024884D01*
X121845975Y-78040123D01*
X121871670Y-78062388D01*
X121871403Y-78062696D01*
X121884601Y-78069903D01*
X121918622Y-78132217D01*
X121921500Y-78158993D01*
X121921500Y-80175838D01*
X121901498Y-80243959D01*
X121847842Y-80290452D01*
X121783971Y-80301309D01*
X121731635Y-80296500D01*
X121728737Y-80296500D01*
X121474335Y-80296501D01*
X121218366Y-80296501D01*
X121215508Y-80296764D01*
X121215499Y-80296764D01*
X121179996Y-80300026D01*
X121144938Y-80303247D01*
X121138560Y-80305246D01*
X121138559Y-80305246D01*
X120988550Y-80352256D01*
X120988548Y-80352257D01*
X120981301Y-80354528D01*
X120834619Y-80443361D01*
X120739095Y-80538885D01*
X120676783Y-80572911D01*
X120605968Y-80567846D01*
X120560905Y-80538885D01*
X120465381Y-80443361D01*
X120318699Y-80354528D01*
X120311452Y-80352257D01*
X120311450Y-80352256D01*
X120217806Y-80322910D01*
X120155062Y-80303247D01*
X120081635Y-80296500D01*
X120078737Y-80296500D01*
X119824335Y-80296501D01*
X119568366Y-80296501D01*
X119565508Y-80296764D01*
X119565499Y-80296764D01*
X119529996Y-80300026D01*
X119494938Y-80303247D01*
X119488560Y-80305246D01*
X119488559Y-80305246D01*
X119338550Y-80352256D01*
X119338548Y-80352257D01*
X119331301Y-80354528D01*
X119184619Y-80443361D01*
X119063361Y-80564619D01*
X118974528Y-80711301D01*
X118923247Y-80874938D01*
X118916500Y-80948365D01*
X118916501Y-81611634D01*
X118923247Y-81685062D01*
X118925246Y-81691440D01*
X118925246Y-81691441D01*
X118938727Y-81734457D01*
X118974528Y-81848699D01*
X119000001Y-81890759D01*
X119042576Y-81961060D01*
X119060755Y-82029689D01*
X119038945Y-82097253D01*
X119009323Y-82125609D01*
X119010271Y-82126806D01*
X119004539Y-82131349D01*
X118998311Y-82135203D01*
X118874383Y-82259347D01*
X118870542Y-82265579D01*
X118870540Y-82265581D01*
X118851260Y-82296859D01*
X118798489Y-82344353D01*
X118728417Y-82355777D01*
X118663293Y-82327503D01*
X118623793Y-82268510D01*
X118618000Y-82230744D01*
X118618000Y-77789113D01*
X118638002Y-77720992D01*
X118691658Y-77674499D01*
X118761932Y-77664395D01*
X118826512Y-77693889D01*
X118851144Y-77722810D01*
X118875203Y-77761689D01*
X118999347Y-77885617D01*
X119148671Y-77977661D01*
X119155619Y-77979966D01*
X119155620Y-77979966D01*
X119308634Y-78030719D01*
X119308636Y-78030719D01*
X119315165Y-78032885D01*
X119418769Y-78043500D01*
X119710234Y-78043500D01*
X120006230Y-78043499D01*
X120111129Y-78032616D01*
X120117660Y-78030437D01*
X120117665Y-78030436D01*
X120270578Y-77979420D01*
X120277526Y-77977102D01*
X120426689Y-77884797D01*
X120550617Y-77760653D01*
X120552614Y-77757413D01*
X120609352Y-77717186D01*
X120680275Y-77713953D01*
X120741687Y-77749578D01*
X120749066Y-77758078D01*
X120755782Y-77766552D01*
X120869479Y-77880051D01*
X120880890Y-77889063D01*
X121017654Y-77973365D01*
X121030832Y-77979509D01*
X121183740Y-78030227D01*
X121197106Y-78033093D01*
X121290601Y-78042672D01*
X121297016Y-78043000D01*
X121315385Y-78043000D01*
X121330624Y-78038525D01*
X121331829Y-78037135D01*
X121333500Y-78029452D01*
X121333500Y-76707000D01*
X121353502Y-76638879D01*
X121407158Y-76592386D01*
X121459500Y-76581000D01*
X121715500Y-76581000D01*
X121783621Y-76601002D01*
G37*
%TD.AperFunction*%
%TD*%
M02*
