%TF.GenerationSoftware,KiCad,Pcbnew,(6.0.2)*%
%TF.CreationDate,2022-05-15T19:04:19+02:00*%
%TF.ProjectId,unfancyRemote,756e6661-6e63-4795-9265-6d6f74652e6b,rev?*%
%TF.SameCoordinates,Original*%
%TF.FileFunction,Paste,Top*%
%TF.FilePolarity,Positive*%
%FSLAX46Y46*%
G04 Gerber Fmt 4.6, Leading zero omitted, Abs format (unit mm)*
G04 Created by KiCad (PCBNEW (6.0.2)) date 2022-05-15 19:04:19*
%MOMM*%
%LPD*%
G01*
G04 APERTURE LIST*
G04 Aperture macros list*
%AMRoundRect*
0 Rectangle with rounded corners*
0 $1 Rounding radius*
0 $2 $3 $4 $5 $6 $7 $8 $9 X,Y pos of 4 corners*
0 Add a 4 corners polygon primitive as box body*
4,1,4,$2,$3,$4,$5,$6,$7,$8,$9,$2,$3,0*
0 Add four circle primitives for the rounded corners*
1,1,$1+$1,$2,$3*
1,1,$1+$1,$4,$5*
1,1,$1+$1,$6,$7*
1,1,$1+$1,$8,$9*
0 Add four rect primitives between the rounded corners*
20,1,$1+$1,$2,$3,$4,$5,0*
20,1,$1+$1,$4,$5,$6,$7,0*
20,1,$1+$1,$6,$7,$8,$9,0*
20,1,$1+$1,$8,$9,$2,$3,0*%
G04 Aperture macros list end*
%ADD10RoundRect,0.200000X-0.200000X-0.275000X0.200000X-0.275000X0.200000X0.275000X-0.200000X0.275000X0*%
%ADD11RoundRect,0.225000X-0.225000X-0.250000X0.225000X-0.250000X0.225000X0.250000X-0.225000X0.250000X0*%
%ADD12RoundRect,0.243750X0.243750X0.456250X-0.243750X0.456250X-0.243750X-0.456250X0.243750X-0.456250X0*%
%ADD13RoundRect,0.225000X-0.250000X0.225000X-0.250000X-0.225000X0.250000X-0.225000X0.250000X0.225000X0*%
%ADD14RoundRect,0.200000X0.200000X0.275000X-0.200000X0.275000X-0.200000X-0.275000X0.200000X-0.275000X0*%
%ADD15R,0.800000X1.200000*%
%ADD16R,0.900000X1.200000*%
%ADD17RoundRect,0.250000X0.250000X0.750000X-0.250000X0.750000X-0.250000X-0.750000X0.250000X-0.750000X0*%
%ADD18RoundRect,0.200000X0.275000X-0.200000X0.275000X0.200000X-0.275000X0.200000X-0.275000X-0.200000X0*%
%ADD19RoundRect,0.150000X0.150000X-0.587500X0.150000X0.587500X-0.150000X0.587500X-0.150000X-0.587500X0*%
%ADD20RoundRect,0.250000X-0.250000X-0.750000X0.250000X-0.750000X0.250000X0.750000X-0.250000X0.750000X0*%
%ADD21RoundRect,0.150000X0.587500X0.150000X-0.587500X0.150000X-0.587500X-0.150000X0.587500X-0.150000X0*%
%ADD22RoundRect,0.200000X-0.275000X0.200000X-0.275000X-0.200000X0.275000X-0.200000X0.275000X0.200000X0*%
%ADD23RoundRect,0.225000X0.250000X-0.225000X0.250000X0.225000X-0.250000X0.225000X-0.250000X-0.225000X0*%
%ADD24R,1.300000X1.550000*%
G04 APERTURE END LIST*
D10*
%TO.C,R1*%
X136970000Y-90170000D03*
X138620000Y-90170000D03*
%TD*%
D11*
%TO.C,C2*%
X144259000Y-71374000D03*
X145809000Y-71374000D03*
%TD*%
%TO.C,C5*%
X122161000Y-69596000D03*
X123711000Y-69596000D03*
%TD*%
D10*
%TO.C,R9*%
X121349000Y-89154000D03*
X122999000Y-89154000D03*
%TD*%
D12*
%TO.C,D3*%
X123111500Y-77724000D03*
X121236500Y-77724000D03*
%TD*%
D13*
%TO.C,C1*%
X136144000Y-69583000D03*
X136144000Y-71133000D03*
%TD*%
D14*
%TO.C,R3*%
X136905000Y-92456000D03*
X135255000Y-92456000D03*
%TD*%
D15*
%TO.C,U1*%
X133921500Y-102624000D03*
X132651500Y-102624000D03*
X131381500Y-102624000D03*
X130111500Y-102624000D03*
X128841500Y-102624000D03*
X127571500Y-102624000D03*
X126301500Y-102624000D03*
X126301500Y-116848000D03*
X127571500Y-116848000D03*
X128841500Y-116848000D03*
X130111500Y-116848000D03*
X131381500Y-116848000D03*
X132651500Y-116848000D03*
X133921500Y-116848000D03*
%TD*%
D13*
%TO.C,C4*%
X144272000Y-73393000D03*
X144272000Y-74943000D03*
%TD*%
%TO.C,C8*%
X144272000Y-98031000D03*
X144272000Y-99581000D03*
%TD*%
D14*
%TO.C,R2*%
X135445000Y-90170000D03*
X133795000Y-90170000D03*
%TD*%
D16*
%TO.C,D1*%
X130176000Y-92456000D03*
X133476000Y-92456000D03*
%TD*%
D13*
%TO.C,C3*%
X144272000Y-78981000D03*
X144272000Y-80531000D03*
%TD*%
D17*
%TO.C,J6*%
X141462000Y-115316000D03*
X139462000Y-115316000D03*
%TD*%
D10*
%TO.C,R5*%
X130493000Y-90170000D03*
X132143000Y-90170000D03*
%TD*%
D12*
%TO.C,D4*%
X123111500Y-84328000D03*
X121236500Y-84328000D03*
%TD*%
D10*
%TO.C,R10*%
X121349000Y-96012000D03*
X122999000Y-96012000D03*
%TD*%
D11*
%TO.C,C6*%
X142481000Y-101854000D03*
X144031000Y-101854000D03*
%TD*%
D18*
%TO.C,R11*%
X137795000Y-77025000D03*
X137795000Y-75375000D03*
%TD*%
D19*
%TO.C,Q1*%
X133162000Y-86662500D03*
X135062000Y-86662500D03*
X134112000Y-84787500D03*
%TD*%
D20*
%TO.C,J3*%
X134250000Y-67310000D03*
X136250000Y-67310000D03*
X138176000Y-67310000D03*
%TD*%
D16*
%TO.C,D2*%
X133605000Y-95885000D03*
X136905000Y-95885000D03*
%TD*%
D21*
%TO.C,Q3*%
X135811500Y-74610000D03*
X135811500Y-72710000D03*
X133936500Y-73660000D03*
%TD*%
D18*
%TO.C,R13*%
X144272000Y-84010000D03*
X144272000Y-82360000D03*
%TD*%
D12*
%TO.C,D6*%
X123111500Y-98044000D03*
X121236500Y-98044000D03*
%TD*%
D20*
%TO.C,J8*%
X129048000Y-67310000D03*
X131048000Y-67310000D03*
%TD*%
%TO.C,J4*%
X141362000Y-67310000D03*
X143362000Y-67310000D03*
X145288000Y-67310000D03*
%TD*%
D19*
%TO.C,Q2*%
X129352000Y-86662500D03*
X131252000Y-86662500D03*
X130302000Y-84787500D03*
%TD*%
D10*
%TO.C,R7*%
X121349000Y-75692000D03*
X122999000Y-75692000D03*
%TD*%
D12*
%TO.C,D5*%
X123111500Y-91186000D03*
X121236500Y-91186000D03*
%TD*%
D22*
%TO.C,R14*%
X144272000Y-91885000D03*
X144272000Y-93535000D03*
%TD*%
D17*
%TO.C,J7*%
X144272000Y-115316000D03*
%TD*%
D23*
%TO.C,C7*%
X138684000Y-87389000D03*
X138684000Y-85839000D03*
%TD*%
D20*
%TO.C,J5*%
X122058000Y-67310000D03*
X124058000Y-67310000D03*
X125984000Y-67310000D03*
%TD*%
D10*
%TO.C,R8*%
X121349000Y-82296000D03*
X122999000Y-82296000D03*
%TD*%
%TO.C,R6*%
X130239000Y-95885000D03*
X131889000Y-95885000D03*
%TD*%
D20*
%TO.C,J10*%
X121682000Y-72136000D03*
X123682000Y-72136000D03*
%TD*%
D18*
%TO.C,R12*%
X144272000Y-87185000D03*
X144272000Y-85535000D03*
%TD*%
D24*
%TO.C,SW1*%
X138720000Y-111930000D03*
X138720000Y-103970000D03*
X143220000Y-111930000D03*
X143220000Y-103970000D03*
%TD*%
M02*
