%TF.GenerationSoftware,KiCad,Pcbnew,6.0.2-378541a8eb~116~ubuntu20.04.1*%
%TF.CreationDate,2022-02-27T19:25:48+01:00*%
%TF.ProjectId,unfancyRemote,756e6661-6e63-4795-9265-6d6f74652e6b,rev?*%
%TF.SameCoordinates,Original*%
%TF.FileFunction,Legend,Top*%
%TF.FilePolarity,Positive*%
%FSLAX46Y46*%
G04 Gerber Fmt 4.6, Leading zero omitted, Abs format (unit mm)*
G04 Created by KiCad (PCBNEW 6.0.2-378541a8eb~116~ubuntu20.04.1) date 2022-02-27 19:25:48*
%MOMM*%
%LPD*%
G01*
G04 APERTURE LIST*
%ADD10C,0.150000*%
%ADD11C,0.500000*%
%ADD12C,0.120000*%
G04 APERTURE END LIST*
D10*
X136421904Y-116768571D02*
X136564761Y-116816190D01*
X136612380Y-116863809D01*
X136660000Y-116959047D01*
X136660000Y-117101904D01*
X136612380Y-117197142D01*
X136564761Y-117244761D01*
X136469523Y-117292380D01*
X136088571Y-117292380D01*
X136088571Y-116292380D01*
X136421904Y-116292380D01*
X136517142Y-116340000D01*
X136564761Y-116387619D01*
X136612380Y-116482857D01*
X136612380Y-116578095D01*
X136564761Y-116673333D01*
X136517142Y-116720952D01*
X136421904Y-116768571D01*
X136088571Y-116768571D01*
X137040952Y-117006666D02*
X137517142Y-117006666D01*
X136945714Y-117292380D02*
X137279047Y-116292380D01*
X137612380Y-117292380D01*
X137802857Y-116292380D02*
X138374285Y-116292380D01*
X138088571Y-117292380D02*
X138088571Y-116292380D01*
D11*
X129117648Y-72826428D02*
X129195029Y-72969285D01*
X129081934Y-73112142D01*
X129004553Y-72969285D01*
X129117648Y-72826428D01*
X129081934Y-73112142D01*
X129224791Y-71969285D02*
X129343839Y-70255000D01*
X129456934Y-70112142D01*
X129534315Y-70255000D01*
X129224791Y-71969285D01*
X129456934Y-70112142D01*
X130897410Y-71540714D02*
X130230744Y-71540714D01*
X130034315Y-73112142D02*
X130409315Y-70112142D01*
X131361696Y-70112142D01*
X131760505Y-72255000D02*
X132712886Y-72255000D01*
X131462886Y-73112142D02*
X132504553Y-70112142D01*
X132796220Y-73112142D01*
X133462886Y-73112142D02*
X133837886Y-70112142D01*
X134605744Y-73112142D01*
X134980744Y-70112142D01*
X136736696Y-72826428D02*
X136623601Y-72969285D01*
X136320029Y-73112142D01*
X136129553Y-73112142D01*
X135861696Y-72969285D01*
X135706934Y-72683571D01*
X135647410Y-72397857D01*
X135623601Y-71826428D01*
X135677172Y-71397857D01*
X135843839Y-70826428D01*
X135974791Y-70540714D01*
X136200982Y-70255000D01*
X136504553Y-70112142D01*
X136695029Y-70112142D01*
X136962886Y-70255000D01*
X137040267Y-70397857D01*
X138117648Y-71683571D02*
X137939077Y-73112142D01*
X137647410Y-70112142D02*
X138117648Y-71683571D01*
X138980744Y-70112142D01*
D10*
X145359523Y-70937380D02*
X145026190Y-70461190D01*
X144788095Y-70937380D02*
X144788095Y-69937380D01*
X145169047Y-69937380D01*
X145264285Y-69985000D01*
X145311904Y-70032619D01*
X145359523Y-70127857D01*
X145359523Y-70270714D01*
X145311904Y-70365952D01*
X145264285Y-70413571D01*
X145169047Y-70461190D01*
X144788095Y-70461190D01*
X145740476Y-70651666D02*
X146216666Y-70651666D01*
X145645238Y-70937380D02*
X145978571Y-69937380D01*
X146311904Y-70937380D01*
X146550000Y-69937380D02*
X146788095Y-70937380D01*
X146978571Y-70223095D01*
X147169047Y-70937380D01*
X147407142Y-69937380D01*
X125031666Y-67762380D02*
X125031666Y-66762380D01*
X125412619Y-66762380D01*
X125507857Y-66810000D01*
X125555476Y-66857619D01*
X125603095Y-66952857D01*
X125603095Y-67095714D01*
X125555476Y-67190952D01*
X125507857Y-67238571D01*
X125412619Y-67286190D01*
X125031666Y-67286190D01*
X126031666Y-67762380D02*
X126031666Y-66762380D01*
X126412619Y-66762380D01*
X126507857Y-66810000D01*
X126555476Y-66857619D01*
X126603095Y-66952857D01*
X126603095Y-67095714D01*
X126555476Y-67190952D01*
X126507857Y-67238571D01*
X126412619Y-67286190D01*
X126031666Y-67286190D01*
X127031666Y-67762380D02*
X127031666Y-66762380D01*
X127365000Y-67476666D01*
X127698333Y-66762380D01*
X127698333Y-67762380D01*
X144264285Y-66762380D02*
X144835714Y-66762380D01*
X144550000Y-67762380D02*
X144550000Y-66762380D01*
X145169047Y-67762380D02*
X145169047Y-66762380D01*
X145169047Y-67238571D02*
X145740476Y-67238571D01*
X145740476Y-67762380D02*
X145740476Y-66762380D01*
X146788095Y-67762380D02*
X146454761Y-67286190D01*
X146216666Y-67762380D02*
X146216666Y-66762380D01*
X146597619Y-66762380D01*
X146692857Y-66810000D01*
X146740476Y-66857619D01*
X146788095Y-66952857D01*
X146788095Y-67095714D01*
X146740476Y-67190952D01*
X146692857Y-67238571D01*
X146597619Y-67286190D01*
X146216666Y-67286190D01*
X147169047Y-66857619D02*
X147216666Y-66810000D01*
X147311904Y-66762380D01*
X147550000Y-66762380D01*
X147645238Y-66810000D01*
X147692857Y-66857619D01*
X147740476Y-66952857D01*
X147740476Y-67048095D01*
X147692857Y-67190952D01*
X147121428Y-67762380D01*
X147740476Y-67762380D01*
X134739285Y-66762380D02*
X135310714Y-66762380D01*
X135025000Y-67762380D02*
X135025000Y-66762380D01*
X135644047Y-67762380D02*
X135644047Y-66762380D01*
X135644047Y-67238571D02*
X136215476Y-67238571D01*
X136215476Y-67762380D02*
X136215476Y-66762380D01*
X137263095Y-67762380D02*
X136929761Y-67286190D01*
X136691666Y-67762380D02*
X136691666Y-66762380D01*
X137072619Y-66762380D01*
X137167857Y-66810000D01*
X137215476Y-66857619D01*
X137263095Y-66952857D01*
X137263095Y-67095714D01*
X137215476Y-67190952D01*
X137167857Y-67238571D01*
X137072619Y-67286190D01*
X136691666Y-67286190D01*
X138215476Y-67762380D02*
X137644047Y-67762380D01*
X137929761Y-67762380D02*
X137929761Y-66762380D01*
X137834523Y-66905238D01*
X137739285Y-67000476D01*
X137644047Y-67048095D01*
D11*
X120739226Y-110696428D02*
X120572559Y-112029761D01*
X119882083Y-110696428D02*
X119751130Y-111744047D01*
X119822559Y-111934523D01*
X120001130Y-112029761D01*
X120286845Y-112029761D01*
X120489226Y-111934523D01*
X120596369Y-111839285D01*
X123215416Y-109934523D02*
X121179702Y-112505952D01*
X123501130Y-110696428D02*
X124263035Y-110696428D01*
X123870178Y-110029761D02*
X123655892Y-111744047D01*
X123727321Y-111934523D01*
X123905892Y-112029761D01*
X124096369Y-112029761D01*
X124763035Y-112029761D02*
X125013035Y-110029761D01*
X125620178Y-112029761D02*
X125751130Y-110982142D01*
X125679702Y-110791666D01*
X125501130Y-110696428D01*
X125215416Y-110696428D01*
X125013035Y-110791666D01*
X124905892Y-110886904D01*
X127596369Y-110696428D02*
X127429702Y-112029761D01*
X126739226Y-110696428D02*
X126608273Y-111744047D01*
X126679702Y-111934523D01*
X126858273Y-112029761D01*
X127143988Y-112029761D01*
X127346369Y-111934523D01*
X127453511Y-111839285D01*
X128548750Y-110696428D02*
X128382083Y-112029761D01*
X128524940Y-110886904D02*
X128632083Y-110791666D01*
X128834464Y-110696428D01*
X129120178Y-110696428D01*
X129298750Y-110791666D01*
X129370178Y-110982142D01*
X129239226Y-112029761D01*
X130191607Y-112029761D02*
X130441607Y-110029761D01*
X130477321Y-111267857D02*
X130953511Y-112029761D01*
X131120178Y-110696428D02*
X130263035Y-111458333D01*
X132667797Y-112029761D02*
X132798750Y-110982142D01*
X132727321Y-110791666D01*
X132548750Y-110696428D01*
X132167797Y-110696428D01*
X131965416Y-110791666D01*
X132679702Y-111934523D02*
X132477321Y-112029761D01*
X132001130Y-112029761D01*
X131822559Y-111934523D01*
X131751130Y-111744047D01*
X131774940Y-111553571D01*
X131893988Y-111363095D01*
X132096369Y-111267857D01*
X132572559Y-111267857D01*
X132774940Y-111172619D01*
X133620178Y-112029761D02*
X133786845Y-110696428D01*
X133739226Y-111077380D02*
X133858273Y-110886904D01*
X133965416Y-110791666D01*
X134167797Y-110696428D01*
X134358273Y-110696428D01*
D10*
%TO.C,R10*%
X120007142Y-93637380D02*
X119673809Y-93161190D01*
X119435714Y-93637380D02*
X119435714Y-92637380D01*
X119816666Y-92637380D01*
X119911904Y-92685000D01*
X119959523Y-92732619D01*
X120007142Y-92827857D01*
X120007142Y-92970714D01*
X119959523Y-93065952D01*
X119911904Y-93113571D01*
X119816666Y-93161190D01*
X119435714Y-93161190D01*
X120959523Y-93637380D02*
X120388095Y-93637380D01*
X120673809Y-93637380D02*
X120673809Y-92637380D01*
X120578571Y-92780238D01*
X120483333Y-92875476D01*
X120388095Y-92923095D01*
X121578571Y-92637380D02*
X121673809Y-92637380D01*
X121769047Y-92685000D01*
X121816666Y-92732619D01*
X121864285Y-92827857D01*
X121911904Y-93018333D01*
X121911904Y-93256428D01*
X121864285Y-93446904D01*
X121816666Y-93542142D01*
X121769047Y-93589761D01*
X121673809Y-93637380D01*
X121578571Y-93637380D01*
X121483333Y-93589761D01*
X121435714Y-93542142D01*
X121388095Y-93446904D01*
X121340476Y-93256428D01*
X121340476Y-93018333D01*
X121388095Y-92827857D01*
X121435714Y-92732619D01*
X121483333Y-92685000D01*
X121578571Y-92637380D01*
%TO.C,R9*%
X120483333Y-86812380D02*
X120150000Y-86336190D01*
X119911904Y-86812380D02*
X119911904Y-85812380D01*
X120292857Y-85812380D01*
X120388095Y-85860000D01*
X120435714Y-85907619D01*
X120483333Y-86002857D01*
X120483333Y-86145714D01*
X120435714Y-86240952D01*
X120388095Y-86288571D01*
X120292857Y-86336190D01*
X119911904Y-86336190D01*
X120959523Y-86812380D02*
X121150000Y-86812380D01*
X121245238Y-86764761D01*
X121292857Y-86717142D01*
X121388095Y-86574285D01*
X121435714Y-86383809D01*
X121435714Y-86002857D01*
X121388095Y-85907619D01*
X121340476Y-85860000D01*
X121245238Y-85812380D01*
X121054761Y-85812380D01*
X120959523Y-85860000D01*
X120911904Y-85907619D01*
X120864285Y-86002857D01*
X120864285Y-86240952D01*
X120911904Y-86336190D01*
X120959523Y-86383809D01*
X121054761Y-86431428D01*
X121245238Y-86431428D01*
X121340476Y-86383809D01*
X121388095Y-86336190D01*
X121435714Y-86240952D01*
%TO.C,R8*%
X120483333Y-80302380D02*
X120150000Y-79826190D01*
X119911904Y-80302380D02*
X119911904Y-79302380D01*
X120292857Y-79302380D01*
X120388095Y-79350000D01*
X120435714Y-79397619D01*
X120483333Y-79492857D01*
X120483333Y-79635714D01*
X120435714Y-79730952D01*
X120388095Y-79778571D01*
X120292857Y-79826190D01*
X119911904Y-79826190D01*
X121054761Y-79730952D02*
X120959523Y-79683333D01*
X120911904Y-79635714D01*
X120864285Y-79540476D01*
X120864285Y-79492857D01*
X120911904Y-79397619D01*
X120959523Y-79350000D01*
X121054761Y-79302380D01*
X121245238Y-79302380D01*
X121340476Y-79350000D01*
X121388095Y-79397619D01*
X121435714Y-79492857D01*
X121435714Y-79540476D01*
X121388095Y-79635714D01*
X121340476Y-79683333D01*
X121245238Y-79730952D01*
X121054761Y-79730952D01*
X120959523Y-79778571D01*
X120911904Y-79826190D01*
X120864285Y-79921428D01*
X120864285Y-80111904D01*
X120911904Y-80207142D01*
X120959523Y-80254761D01*
X121054761Y-80302380D01*
X121245238Y-80302380D01*
X121340476Y-80254761D01*
X121388095Y-80207142D01*
X121435714Y-80111904D01*
X121435714Y-79921428D01*
X121388095Y-79826190D01*
X121340476Y-79778571D01*
X121245238Y-79730952D01*
%TO.C,R7*%
X120483333Y-73952380D02*
X120150000Y-73476190D01*
X119911904Y-73952380D02*
X119911904Y-72952380D01*
X120292857Y-72952380D01*
X120388095Y-73000000D01*
X120435714Y-73047619D01*
X120483333Y-73142857D01*
X120483333Y-73285714D01*
X120435714Y-73380952D01*
X120388095Y-73428571D01*
X120292857Y-73476190D01*
X119911904Y-73476190D01*
X120816666Y-72952380D02*
X121483333Y-72952380D01*
X121054761Y-73952380D01*
%TO.C,R6*%
X128722380Y-93511666D02*
X128246190Y-93845000D01*
X128722380Y-94083095D02*
X127722380Y-94083095D01*
X127722380Y-93702142D01*
X127770000Y-93606904D01*
X127817619Y-93559285D01*
X127912857Y-93511666D01*
X128055714Y-93511666D01*
X128150952Y-93559285D01*
X128198571Y-93606904D01*
X128246190Y-93702142D01*
X128246190Y-94083095D01*
X127722380Y-92654523D02*
X127722380Y-92845000D01*
X127770000Y-92940238D01*
X127817619Y-92987857D01*
X127960476Y-93083095D01*
X128150952Y-93130714D01*
X128531904Y-93130714D01*
X128627142Y-93083095D01*
X128674761Y-93035476D01*
X128722380Y-92940238D01*
X128722380Y-92749761D01*
X128674761Y-92654523D01*
X128627142Y-92606904D01*
X128531904Y-92559285D01*
X128293809Y-92559285D01*
X128198571Y-92606904D01*
X128150952Y-92654523D01*
X128103333Y-92749761D01*
X128103333Y-92940238D01*
X128150952Y-93035476D01*
X128198571Y-93083095D01*
X128293809Y-93130714D01*
%TO.C,R5*%
X127642083Y-91892380D02*
X127308750Y-91416190D01*
X127070654Y-91892380D02*
X127070654Y-90892380D01*
X127451607Y-90892380D01*
X127546845Y-90940000D01*
X127594464Y-90987619D01*
X127642083Y-91082857D01*
X127642083Y-91225714D01*
X127594464Y-91320952D01*
X127546845Y-91368571D01*
X127451607Y-91416190D01*
X127070654Y-91416190D01*
X128546845Y-90892380D02*
X128070654Y-90892380D01*
X128023035Y-91368571D01*
X128070654Y-91320952D01*
X128165892Y-91273333D01*
X128403988Y-91273333D01*
X128499226Y-91320952D01*
X128546845Y-91368571D01*
X128594464Y-91463809D01*
X128594464Y-91701904D01*
X128546845Y-91797142D01*
X128499226Y-91844761D01*
X128403988Y-91892380D01*
X128165892Y-91892380D01*
X128070654Y-91844761D01*
X128023035Y-91797142D01*
%TO.C,R3*%
X136184583Y-95862380D02*
X135851250Y-95386190D01*
X135613154Y-95862380D02*
X135613154Y-94862380D01*
X135994107Y-94862380D01*
X136089345Y-94910000D01*
X136136964Y-94957619D01*
X136184583Y-95052857D01*
X136184583Y-95195714D01*
X136136964Y-95290952D01*
X136089345Y-95338571D01*
X135994107Y-95386190D01*
X135613154Y-95386190D01*
X136517916Y-94862380D02*
X137136964Y-94862380D01*
X136803630Y-95243333D01*
X136946488Y-95243333D01*
X137041726Y-95290952D01*
X137089345Y-95338571D01*
X137136964Y-95433809D01*
X137136964Y-95671904D01*
X137089345Y-95767142D01*
X137041726Y-95814761D01*
X136946488Y-95862380D01*
X136660773Y-95862380D01*
X136565535Y-95814761D01*
X136517916Y-95767142D01*
%TO.C,R2*%
X133183333Y-91892380D02*
X132850000Y-91416190D01*
X132611904Y-91892380D02*
X132611904Y-90892380D01*
X132992857Y-90892380D01*
X133088095Y-90940000D01*
X133135714Y-90987619D01*
X133183333Y-91082857D01*
X133183333Y-91225714D01*
X133135714Y-91320952D01*
X133088095Y-91368571D01*
X132992857Y-91416190D01*
X132611904Y-91416190D01*
X133564285Y-90987619D02*
X133611904Y-90940000D01*
X133707142Y-90892380D01*
X133945238Y-90892380D01*
X134040476Y-90940000D01*
X134088095Y-90987619D01*
X134135714Y-91082857D01*
X134135714Y-91178095D01*
X134088095Y-91320952D01*
X133516666Y-91892380D01*
X134135714Y-91892380D01*
%TO.C,R1*%
X138898333Y-92687380D02*
X138565000Y-92211190D01*
X138326904Y-92687380D02*
X138326904Y-91687380D01*
X138707857Y-91687380D01*
X138803095Y-91735000D01*
X138850714Y-91782619D01*
X138898333Y-91877857D01*
X138898333Y-92020714D01*
X138850714Y-92115952D01*
X138803095Y-92163571D01*
X138707857Y-92211190D01*
X138326904Y-92211190D01*
X139850714Y-92687380D02*
X139279285Y-92687380D01*
X139565000Y-92687380D02*
X139565000Y-91687380D01*
X139469761Y-91830238D01*
X139374523Y-91925476D01*
X139279285Y-91973095D01*
%TO.C,C7*%
X137992142Y-88431666D02*
X138039761Y-88479285D01*
X138087380Y-88622142D01*
X138087380Y-88717380D01*
X138039761Y-88860238D01*
X137944523Y-88955476D01*
X137849285Y-89003095D01*
X137658809Y-89050714D01*
X137515952Y-89050714D01*
X137325476Y-89003095D01*
X137230238Y-88955476D01*
X137135000Y-88860238D01*
X137087380Y-88717380D01*
X137087380Y-88622142D01*
X137135000Y-88479285D01*
X137182619Y-88431666D01*
X137087380Y-88098333D02*
X137087380Y-87431666D01*
X138087380Y-87860238D01*
%TO.C,C6*%
X147042142Y-115736666D02*
X147089761Y-115784285D01*
X147137380Y-115927142D01*
X147137380Y-116022380D01*
X147089761Y-116165238D01*
X146994523Y-116260476D01*
X146899285Y-116308095D01*
X146708809Y-116355714D01*
X146565952Y-116355714D01*
X146375476Y-116308095D01*
X146280238Y-116260476D01*
X146185000Y-116165238D01*
X146137380Y-116022380D01*
X146137380Y-115927142D01*
X146185000Y-115784285D01*
X146232619Y-115736666D01*
X146137380Y-114879523D02*
X146137380Y-115070000D01*
X146185000Y-115165238D01*
X146232619Y-115212857D01*
X146375476Y-115308095D01*
X146565952Y-115355714D01*
X146946904Y-115355714D01*
X147042142Y-115308095D01*
X147089761Y-115260476D01*
X147137380Y-115165238D01*
X147137380Y-114974761D01*
X147089761Y-114879523D01*
X147042142Y-114831904D01*
X146946904Y-114784285D01*
X146708809Y-114784285D01*
X146613571Y-114831904D01*
X146565952Y-114879523D01*
X146518333Y-114974761D01*
X146518333Y-115165238D01*
X146565952Y-115260476D01*
X146613571Y-115308095D01*
X146708809Y-115355714D01*
%TO.C,C5*%
X121642142Y-68746666D02*
X121689761Y-68794285D01*
X121737380Y-68937142D01*
X121737380Y-69032380D01*
X121689761Y-69175238D01*
X121594523Y-69270476D01*
X121499285Y-69318095D01*
X121308809Y-69365714D01*
X121165952Y-69365714D01*
X120975476Y-69318095D01*
X120880238Y-69270476D01*
X120785000Y-69175238D01*
X120737380Y-69032380D01*
X120737380Y-68937142D01*
X120785000Y-68794285D01*
X120832619Y-68746666D01*
X120737380Y-67841904D02*
X120737380Y-68318095D01*
X121213571Y-68365714D01*
X121165952Y-68318095D01*
X121118333Y-68222857D01*
X121118333Y-67984761D01*
X121165952Y-67889523D01*
X121213571Y-67841904D01*
X121308809Y-67794285D01*
X121546904Y-67794285D01*
X121642142Y-67841904D01*
X121689761Y-67889523D01*
X121737380Y-67984761D01*
X121737380Y-68222857D01*
X121689761Y-68318095D01*
X121642142Y-68365714D01*
%TO.C,C4*%
X145883333Y-74652142D02*
X145835714Y-74699761D01*
X145692857Y-74747380D01*
X145597619Y-74747380D01*
X145454761Y-74699761D01*
X145359523Y-74604523D01*
X145311904Y-74509285D01*
X145264285Y-74318809D01*
X145264285Y-74175952D01*
X145311904Y-73985476D01*
X145359523Y-73890238D01*
X145454761Y-73795000D01*
X145597619Y-73747380D01*
X145692857Y-73747380D01*
X145835714Y-73795000D01*
X145883333Y-73842619D01*
X146740476Y-74080714D02*
X146740476Y-74747380D01*
X146502380Y-73699761D02*
X146264285Y-74414047D01*
X146883333Y-74414047D01*
%TO.C,C3*%
X145883333Y-78937142D02*
X145835714Y-78984761D01*
X145692857Y-79032380D01*
X145597619Y-79032380D01*
X145454761Y-78984761D01*
X145359523Y-78889523D01*
X145311904Y-78794285D01*
X145264285Y-78603809D01*
X145264285Y-78460952D01*
X145311904Y-78270476D01*
X145359523Y-78175238D01*
X145454761Y-78080000D01*
X145597619Y-78032380D01*
X145692857Y-78032380D01*
X145835714Y-78080000D01*
X145883333Y-78127619D01*
X146216666Y-78032380D02*
X146835714Y-78032380D01*
X146502380Y-78413333D01*
X146645238Y-78413333D01*
X146740476Y-78460952D01*
X146788095Y-78508571D01*
X146835714Y-78603809D01*
X146835714Y-78841904D01*
X146788095Y-78937142D01*
X146740476Y-78984761D01*
X146645238Y-79032380D01*
X146359523Y-79032380D01*
X146264285Y-78984761D01*
X146216666Y-78937142D01*
%TO.C,C2*%
X141962142Y-68746666D02*
X142009761Y-68794285D01*
X142057380Y-68937142D01*
X142057380Y-69032380D01*
X142009761Y-69175238D01*
X141914523Y-69270476D01*
X141819285Y-69318095D01*
X141628809Y-69365714D01*
X141485952Y-69365714D01*
X141295476Y-69318095D01*
X141200238Y-69270476D01*
X141105000Y-69175238D01*
X141057380Y-69032380D01*
X141057380Y-68937142D01*
X141105000Y-68794285D01*
X141152619Y-68746666D01*
X141152619Y-68365714D02*
X141105000Y-68318095D01*
X141057380Y-68222857D01*
X141057380Y-67984761D01*
X141105000Y-67889523D01*
X141152619Y-67841904D01*
X141247857Y-67794285D01*
X141343095Y-67794285D01*
X141485952Y-67841904D01*
X142057380Y-68413333D01*
X142057380Y-67794285D01*
%TO.C,C1*%
X131802142Y-68746666D02*
X131849761Y-68794285D01*
X131897380Y-68937142D01*
X131897380Y-69032380D01*
X131849761Y-69175238D01*
X131754523Y-69270476D01*
X131659285Y-69318095D01*
X131468809Y-69365714D01*
X131325952Y-69365714D01*
X131135476Y-69318095D01*
X131040238Y-69270476D01*
X130945000Y-69175238D01*
X130897380Y-69032380D01*
X130897380Y-68937142D01*
X130945000Y-68794285D01*
X130992619Y-68746666D01*
X131897380Y-67794285D02*
X131897380Y-68365714D01*
X131897380Y-68080000D02*
X130897380Y-68080000D01*
X131040238Y-68175238D01*
X131135476Y-68270476D01*
X131183095Y-68365714D01*
%TO.C,D3*%
X119911904Y-78937380D02*
X119911904Y-77937380D01*
X120150000Y-77937380D01*
X120292857Y-77985000D01*
X120388095Y-78080238D01*
X120435714Y-78175476D01*
X120483333Y-78365952D01*
X120483333Y-78508809D01*
X120435714Y-78699285D01*
X120388095Y-78794523D01*
X120292857Y-78889761D01*
X120150000Y-78937380D01*
X119911904Y-78937380D01*
X120816666Y-77937380D02*
X121435714Y-77937380D01*
X121102380Y-78318333D01*
X121245238Y-78318333D01*
X121340476Y-78365952D01*
X121388095Y-78413571D01*
X121435714Y-78508809D01*
X121435714Y-78746904D01*
X121388095Y-78842142D01*
X121340476Y-78889761D01*
X121245238Y-78937380D01*
X120959523Y-78937380D01*
X120864285Y-78889761D01*
X120816666Y-78842142D01*
%TO.C,J2*%
X127301666Y-73747380D02*
X127301666Y-74461666D01*
X127254047Y-74604523D01*
X127158809Y-74699761D01*
X127015952Y-74747380D01*
X126920714Y-74747380D01*
X127730238Y-73842619D02*
X127777857Y-73795000D01*
X127873095Y-73747380D01*
X128111190Y-73747380D01*
X128206428Y-73795000D01*
X128254047Y-73842619D01*
X128301666Y-73937857D01*
X128301666Y-74033095D01*
X128254047Y-74175952D01*
X127682619Y-74747380D01*
X128301666Y-74747380D01*
%TO.C,U1*%
X133897619Y-116078095D02*
X133088095Y-116078095D01*
X132992857Y-116125714D01*
X132945238Y-116173333D01*
X132897619Y-116268571D01*
X132897619Y-116459047D01*
X132945238Y-116554285D01*
X132992857Y-116601904D01*
X133088095Y-116649523D01*
X133897619Y-116649523D01*
X132897619Y-117649523D02*
X132897619Y-117078095D01*
X132897619Y-117363809D02*
X133897619Y-117363809D01*
X133754761Y-117268571D01*
X133659523Y-117173333D01*
X133611904Y-117078095D01*
%TO.C,J1*%
X139366666Y-73747380D02*
X139366666Y-74461666D01*
X139319047Y-74604523D01*
X139223809Y-74699761D01*
X139080952Y-74747380D01*
X138985714Y-74747380D01*
X140366666Y-74747380D02*
X139795238Y-74747380D01*
X140080952Y-74747380D02*
X140080952Y-73747380D01*
X139985714Y-73890238D01*
X139890476Y-73985476D01*
X139795238Y-74033095D01*
%TO.C, *%
%TO.C,D1*%
X131341904Y-96337380D02*
X131341904Y-95337380D01*
X131580000Y-95337380D01*
X131722857Y-95385000D01*
X131818095Y-95480238D01*
X131865714Y-95575476D01*
X131913333Y-95765952D01*
X131913333Y-95908809D01*
X131865714Y-96099285D01*
X131818095Y-96194523D01*
X131722857Y-96289761D01*
X131580000Y-96337380D01*
X131341904Y-96337380D01*
X132865714Y-96337380D02*
X132294285Y-96337380D01*
X132580000Y-96337380D02*
X132580000Y-95337380D01*
X132484761Y-95480238D01*
X132389523Y-95575476D01*
X132294285Y-95623095D01*
%TO.C,J6*%
X137461666Y-118197380D02*
X137461666Y-118911666D01*
X137414047Y-119054523D01*
X137318809Y-119149761D01*
X137175952Y-119197380D01*
X137080714Y-119197380D01*
X138366428Y-118197380D02*
X138175952Y-118197380D01*
X138080714Y-118245000D01*
X138033095Y-118292619D01*
X137937857Y-118435476D01*
X137890238Y-118625952D01*
X137890238Y-119006904D01*
X137937857Y-119102142D01*
X137985476Y-119149761D01*
X138080714Y-119197380D01*
X138271190Y-119197380D01*
X138366428Y-119149761D01*
X138414047Y-119102142D01*
X138461666Y-119006904D01*
X138461666Y-118768809D01*
X138414047Y-118673571D01*
X138366428Y-118625952D01*
X138271190Y-118578333D01*
X138080714Y-118578333D01*
X137985476Y-118625952D01*
X137937857Y-118673571D01*
X137890238Y-118768809D01*
%TO.C,D4*%
X119911904Y-85542380D02*
X119911904Y-84542380D01*
X120150000Y-84542380D01*
X120292857Y-84590000D01*
X120388095Y-84685238D01*
X120435714Y-84780476D01*
X120483333Y-84970952D01*
X120483333Y-85113809D01*
X120435714Y-85304285D01*
X120388095Y-85399523D01*
X120292857Y-85494761D01*
X120150000Y-85542380D01*
X119911904Y-85542380D01*
X121340476Y-84875714D02*
X121340476Y-85542380D01*
X121102380Y-84494761D02*
X120864285Y-85209047D01*
X121483333Y-85209047D01*
%TO.C,Q1*%
X133402619Y-87725238D02*
X133355000Y-87820476D01*
X133259761Y-87915714D01*
X133116904Y-88058571D01*
X133069285Y-88153809D01*
X133069285Y-88249047D01*
X133307380Y-88201428D02*
X133259761Y-88296666D01*
X133164523Y-88391904D01*
X132974047Y-88439523D01*
X132640714Y-88439523D01*
X132450238Y-88391904D01*
X132355000Y-88296666D01*
X132307380Y-88201428D01*
X132307380Y-88010952D01*
X132355000Y-87915714D01*
X132450238Y-87820476D01*
X132640714Y-87772857D01*
X132974047Y-87772857D01*
X133164523Y-87820476D01*
X133259761Y-87915714D01*
X133307380Y-88010952D01*
X133307380Y-88201428D01*
X133307380Y-86820476D02*
X133307380Y-87391904D01*
X133307380Y-87106190D02*
X132307380Y-87106190D01*
X132450238Y-87201428D01*
X132545476Y-87296666D01*
X132593095Y-87391904D01*
%TO.C,J3*%
X129206666Y-66762380D02*
X129206666Y-67476666D01*
X129159047Y-67619523D01*
X129063809Y-67714761D01*
X128920952Y-67762380D01*
X128825714Y-67762380D01*
X129587619Y-66762380D02*
X130206666Y-66762380D01*
X129873333Y-67143333D01*
X130016190Y-67143333D01*
X130111428Y-67190952D01*
X130159047Y-67238571D01*
X130206666Y-67333809D01*
X130206666Y-67571904D01*
X130159047Y-67667142D01*
X130111428Y-67714761D01*
X130016190Y-67762380D01*
X129730476Y-67762380D01*
X129635238Y-67714761D01*
X129587619Y-67667142D01*
%TO.C,D2*%
X131341904Y-100147380D02*
X131341904Y-99147380D01*
X131580000Y-99147380D01*
X131722857Y-99195000D01*
X131818095Y-99290238D01*
X131865714Y-99385476D01*
X131913333Y-99575952D01*
X131913333Y-99718809D01*
X131865714Y-99909285D01*
X131818095Y-100004523D01*
X131722857Y-100099761D01*
X131580000Y-100147380D01*
X131341904Y-100147380D01*
X132294285Y-99242619D02*
X132341904Y-99195000D01*
X132437142Y-99147380D01*
X132675238Y-99147380D01*
X132770476Y-99195000D01*
X132818095Y-99242619D01*
X132865714Y-99337857D01*
X132865714Y-99433095D01*
X132818095Y-99575952D01*
X132246666Y-100147380D01*
X132865714Y-100147380D01*
%TO.C,D6*%
X119911904Y-98622380D02*
X119911904Y-97622380D01*
X120150000Y-97622380D01*
X120292857Y-97670000D01*
X120388095Y-97765238D01*
X120435714Y-97860476D01*
X120483333Y-98050952D01*
X120483333Y-98193809D01*
X120435714Y-98384285D01*
X120388095Y-98479523D01*
X120292857Y-98574761D01*
X120150000Y-98622380D01*
X119911904Y-98622380D01*
X121340476Y-97622380D02*
X121150000Y-97622380D01*
X121054761Y-97670000D01*
X121007142Y-97717619D01*
X120911904Y-97860476D01*
X120864285Y-98050952D01*
X120864285Y-98431904D01*
X120911904Y-98527142D01*
X120959523Y-98574761D01*
X121054761Y-98622380D01*
X121245238Y-98622380D01*
X121340476Y-98574761D01*
X121388095Y-98527142D01*
X121435714Y-98431904D01*
X121435714Y-98193809D01*
X121388095Y-98098571D01*
X121340476Y-98050952D01*
X121245238Y-98003333D01*
X121054761Y-98003333D01*
X120959523Y-98050952D01*
X120911904Y-98098571D01*
X120864285Y-98193809D01*
%TO.C,J4*%
X139366666Y-66762380D02*
X139366666Y-67476666D01*
X139319047Y-67619523D01*
X139223809Y-67714761D01*
X139080952Y-67762380D01*
X138985714Y-67762380D01*
X140271428Y-67095714D02*
X140271428Y-67762380D01*
X140033333Y-66714761D02*
X139795238Y-67429047D01*
X140414285Y-67429047D01*
%TO.C,Q2*%
X128322619Y-87725238D02*
X128275000Y-87820476D01*
X128179761Y-87915714D01*
X128036904Y-88058571D01*
X127989285Y-88153809D01*
X127989285Y-88249047D01*
X128227380Y-88201428D02*
X128179761Y-88296666D01*
X128084523Y-88391904D01*
X127894047Y-88439523D01*
X127560714Y-88439523D01*
X127370238Y-88391904D01*
X127275000Y-88296666D01*
X127227380Y-88201428D01*
X127227380Y-88010952D01*
X127275000Y-87915714D01*
X127370238Y-87820476D01*
X127560714Y-87772857D01*
X127894047Y-87772857D01*
X128084523Y-87820476D01*
X128179761Y-87915714D01*
X128227380Y-88010952D01*
X128227380Y-88201428D01*
X127322619Y-87391904D02*
X127275000Y-87344285D01*
X127227380Y-87249047D01*
X127227380Y-87010952D01*
X127275000Y-86915714D01*
X127322619Y-86868095D01*
X127417857Y-86820476D01*
X127513095Y-86820476D01*
X127655952Y-86868095D01*
X128227380Y-87439523D01*
X128227380Y-86820476D01*
%TO.C,D5*%
X119911904Y-91637380D02*
X119911904Y-90637380D01*
X120150000Y-90637380D01*
X120292857Y-90685000D01*
X120388095Y-90780238D01*
X120435714Y-90875476D01*
X120483333Y-91065952D01*
X120483333Y-91208809D01*
X120435714Y-91399285D01*
X120388095Y-91494523D01*
X120292857Y-91589761D01*
X120150000Y-91637380D01*
X119911904Y-91637380D01*
X121388095Y-90637380D02*
X120911904Y-90637380D01*
X120864285Y-91113571D01*
X120911904Y-91065952D01*
X121007142Y-91018333D01*
X121245238Y-91018333D01*
X121340476Y-91065952D01*
X121388095Y-91113571D01*
X121435714Y-91208809D01*
X121435714Y-91446904D01*
X121388095Y-91542142D01*
X121340476Y-91589761D01*
X121245238Y-91637380D01*
X121007142Y-91637380D01*
X120911904Y-91589761D01*
X120864285Y-91542142D01*
%TO.C,J5*%
X119046666Y-66762380D02*
X119046666Y-67476666D01*
X118999047Y-67619523D01*
X118903809Y-67714761D01*
X118760952Y-67762380D01*
X118665714Y-67762380D01*
X119999047Y-66762380D02*
X119522857Y-66762380D01*
X119475238Y-67238571D01*
X119522857Y-67190952D01*
X119618095Y-67143333D01*
X119856190Y-67143333D01*
X119951428Y-67190952D01*
X119999047Y-67238571D01*
X120046666Y-67333809D01*
X120046666Y-67571904D01*
X119999047Y-67667142D01*
X119951428Y-67714761D01*
X119856190Y-67762380D01*
X119618095Y-67762380D01*
X119522857Y-67714761D01*
X119475238Y-67667142D01*
%TO.C,SW1*%
X141541666Y-106209761D02*
X141684523Y-106257380D01*
X141922619Y-106257380D01*
X142017857Y-106209761D01*
X142065476Y-106162142D01*
X142113095Y-106066904D01*
X142113095Y-105971666D01*
X142065476Y-105876428D01*
X142017857Y-105828809D01*
X141922619Y-105781190D01*
X141732142Y-105733571D01*
X141636904Y-105685952D01*
X141589285Y-105638333D01*
X141541666Y-105543095D01*
X141541666Y-105447857D01*
X141589285Y-105352619D01*
X141636904Y-105305000D01*
X141732142Y-105257380D01*
X141970238Y-105257380D01*
X142113095Y-105305000D01*
X142446428Y-105257380D02*
X142684523Y-106257380D01*
X142875000Y-105543095D01*
X143065476Y-106257380D01*
X143303571Y-105257380D01*
X144208333Y-106257380D02*
X143636904Y-106257380D01*
X143922619Y-106257380D02*
X143922619Y-105257380D01*
X143827380Y-105400238D01*
X143732142Y-105495476D01*
X143636904Y-105543095D01*
D12*
%TO.C,R10*%
X120412742Y-95137500D02*
X120887258Y-95137500D01*
X120412742Y-94092500D02*
X120887258Y-94092500D01*
%TO.C,R9*%
X120412742Y-88152500D02*
X120887258Y-88152500D01*
X120412742Y-87107500D02*
X120887258Y-87107500D01*
%TO.C,R8*%
X120412742Y-81802500D02*
X120887258Y-81802500D01*
X120412742Y-80757500D02*
X120887258Y-80757500D01*
%TO.C,R7*%
X120412742Y-75452500D02*
X120887258Y-75452500D01*
X120412742Y-74407500D02*
X120887258Y-74407500D01*
%TO.C,R6*%
X128208750Y-95647742D02*
X128208750Y-96122258D01*
X129253750Y-95647742D02*
X129253750Y-96122258D01*
%TO.C,R5*%
X129937742Y-91962500D02*
X130412258Y-91962500D01*
X129937742Y-90917500D02*
X130412258Y-90917500D01*
%TO.C,R3*%
X136588508Y-93457500D02*
X136113992Y-93457500D01*
X136588508Y-94502500D02*
X136113992Y-94502500D01*
%TO.C,R2*%
X136127258Y-91962500D02*
X135652742Y-91962500D01*
X136127258Y-90917500D02*
X135652742Y-90917500D01*
%TO.C,R1*%
X139302258Y-90282500D02*
X138827742Y-90282500D01*
X139302258Y-91327500D02*
X138827742Y-91327500D01*
%TO.C,C7*%
X139575000Y-88405580D02*
X139575000Y-88124420D01*
X138555000Y-88405580D02*
X138555000Y-88124420D01*
%TO.C,C6*%
X146175000Y-117969420D02*
X146175000Y-118250580D01*
X147195000Y-117969420D02*
X147195000Y-118250580D01*
%TO.C,C5*%
X122680000Y-67804420D02*
X122680000Y-68085580D01*
X123700000Y-67804420D02*
X123700000Y-68085580D01*
%TO.C,C4*%
X145909420Y-72900000D02*
X146190580Y-72900000D01*
X145909420Y-71880000D02*
X146190580Y-71880000D01*
%TO.C,C3*%
X145909420Y-80520000D02*
X146190580Y-80520000D01*
X145909420Y-79500000D02*
X146190580Y-79500000D01*
%TO.C,C2*%
X143000000Y-67804420D02*
X143000000Y-68085580D01*
X144020000Y-67804420D02*
X144020000Y-68085580D01*
%TO.C,C1*%
X132840000Y-67804420D02*
X132840000Y-68085580D01*
X133860000Y-67804420D02*
X133860000Y-68085580D01*
%TO.C,D3*%
X122335000Y-75875000D02*
X119650000Y-75875000D01*
X122335000Y-77795000D02*
X122335000Y-75875000D01*
X119650000Y-77795000D02*
X122335000Y-77795000D01*
%TO.C,J2*%
X123616250Y-73680000D02*
X123616250Y-101680000D01*
X123616250Y-101680000D02*
X126276250Y-101680000D01*
X126276250Y-73680000D02*
X126276250Y-101680000D01*
X123616250Y-73680000D02*
X126276250Y-73680000D01*
X124946250Y-71080000D02*
X126276250Y-71080000D01*
X126276250Y-71080000D02*
X126276250Y-72410000D01*
%TO.C,U1*%
X117792500Y-113260000D02*
X111442500Y-109260000D01*
X134302500Y-104260000D02*
X134937500Y-104260000D01*
X111442500Y-104260000D02*
X111442500Y-119260000D01*
X134937500Y-104260000D02*
X134937500Y-105260000D01*
X111442500Y-104260000D02*
X123507500Y-104260000D01*
X117792500Y-119260000D02*
X111442500Y-115260000D01*
X117792500Y-114760000D02*
X111442500Y-110760000D01*
X117792500Y-111760000D02*
X111442500Y-107760000D01*
X134302500Y-119260000D02*
X134937500Y-119260000D01*
X117792500Y-116260000D02*
X111442500Y-112260000D01*
X117792500Y-107260000D02*
X113347500Y-104260000D01*
X117792500Y-104260000D02*
X117792500Y-119260000D01*
X117792500Y-110260000D02*
X111442500Y-106260000D01*
X111442500Y-119260000D02*
X123507500Y-119260000D01*
X134937500Y-119260000D02*
X134937500Y-118260000D01*
X117792500Y-108760000D02*
X111442500Y-104760000D01*
X117792500Y-105760000D02*
X115887500Y-104260000D01*
X117792500Y-117760000D02*
X111442500Y-113760000D01*
X115252500Y-119260000D02*
X111442500Y-116760000D01*
%TO.C,J1*%
X144056250Y-73680000D02*
X144056250Y-101680000D01*
X142726250Y-71080000D02*
X144056250Y-71080000D01*
X144056250Y-71080000D02*
X144056250Y-72410000D01*
X141396250Y-73680000D02*
X141396250Y-101680000D01*
X141396250Y-101680000D02*
X144056250Y-101680000D01*
X141396250Y-73680000D02*
X144056250Y-73680000D01*
%TO.C,D1*%
X129830000Y-92980000D02*
X133730000Y-92980000D01*
X129830000Y-92980000D02*
X129830000Y-94980000D01*
X129830000Y-94980000D02*
X133730000Y-94980000D01*
%TO.C,J6*%
X145300000Y-117975000D02*
X144690000Y-117975000D01*
X145300000Y-114565000D02*
X139180000Y-114565000D01*
X142740000Y-119285000D02*
X142740000Y-118675000D01*
X144350000Y-119585000D02*
X145600000Y-119585000D01*
X139180000Y-117975000D02*
X139790000Y-117975000D01*
X142240000Y-115175000D02*
X142240000Y-115675000D01*
X143840000Y-119485000D02*
X143840000Y-119285000D01*
X143540000Y-119285000D02*
X143540000Y-119485000D01*
X142140000Y-115675000D02*
X142140000Y-115175000D01*
X139790000Y-115175000D02*
X139790000Y-118675000D01*
X145600000Y-119585000D02*
X145600000Y-118335000D01*
X142740000Y-118675000D02*
X144690000Y-118675000D01*
X142340000Y-115675000D02*
X142140000Y-115675000D01*
X139790000Y-118675000D02*
X141740000Y-118675000D01*
X139180000Y-114565000D02*
X139180000Y-119285000D01*
X144690000Y-118675000D02*
X144690000Y-115175000D01*
X143540000Y-119385000D02*
X143840000Y-119385000D01*
X142340000Y-115175000D02*
X142340000Y-115675000D01*
X145300000Y-116675000D02*
X144690000Y-116675000D01*
X144690000Y-115175000D02*
X139790000Y-115175000D01*
X141740000Y-118675000D02*
X141740000Y-119285000D01*
X139180000Y-116675000D02*
X139790000Y-116675000D01*
X143540000Y-119485000D02*
X143840000Y-119485000D01*
X145300000Y-119285000D02*
X145300000Y-114565000D01*
X139180000Y-119285000D02*
X145300000Y-119285000D01*
%TO.C,D4*%
X122335000Y-82225000D02*
X119650000Y-82225000D01*
X122335000Y-84145000D02*
X122335000Y-82225000D01*
X119650000Y-84145000D02*
X122335000Y-84145000D01*
%TO.C,Q1*%
X136815000Y-87630000D02*
X136815000Y-88280000D01*
X133695000Y-87630000D02*
X133695000Y-89305000D01*
X136815000Y-87630000D02*
X136815000Y-86980000D01*
X133695000Y-87630000D02*
X133695000Y-86980000D01*
%TO.C,J3*%
X130750000Y-60940000D02*
X130750000Y-61140000D01*
X131850000Y-61140000D02*
X131850000Y-61750000D01*
X137410000Y-61140000D02*
X129290000Y-61140000D01*
X136800000Y-61750000D02*
X134850000Y-61750000D01*
X129900000Y-61750000D02*
X129900000Y-65250000D01*
X134250000Y-65250000D02*
X134250000Y-64750000D01*
X129290000Y-63750000D02*
X129900000Y-63750000D01*
X129290000Y-61140000D02*
X129290000Y-65860000D01*
X137410000Y-62450000D02*
X136800000Y-62450000D01*
X129290000Y-65860000D02*
X137410000Y-65860000D01*
X132250000Y-64750000D02*
X132450000Y-64750000D01*
X132450000Y-64750000D02*
X132450000Y-65250000D01*
X131050000Y-61040000D02*
X130750000Y-61040000D01*
X134250000Y-64750000D02*
X134450000Y-64750000D01*
X134450000Y-64750000D02*
X134450000Y-65250000D01*
X129290000Y-62450000D02*
X129900000Y-62450000D01*
X130240000Y-60840000D02*
X128990000Y-60840000D01*
X131050000Y-61140000D02*
X131050000Y-60940000D01*
X129900000Y-65250000D02*
X136800000Y-65250000D01*
X128990000Y-60840000D02*
X128990000Y-62090000D01*
X137410000Y-63750000D02*
X136800000Y-63750000D01*
X134850000Y-61750000D02*
X134850000Y-61140000D01*
X132350000Y-65250000D02*
X132350000Y-64750000D01*
X131050000Y-60940000D02*
X130750000Y-60940000D01*
X137410000Y-65860000D02*
X137410000Y-61140000D01*
X136800000Y-65250000D02*
X136800000Y-61750000D01*
X131850000Y-61750000D02*
X129900000Y-61750000D01*
X132250000Y-65250000D02*
X132250000Y-64750000D01*
X134350000Y-65250000D02*
X134350000Y-64750000D01*
%TO.C,D2*%
X129830000Y-96790000D02*
X133730000Y-96790000D01*
X129830000Y-96790000D02*
X129830000Y-98790000D01*
X129830000Y-98790000D02*
X133730000Y-98790000D01*
%TO.C,D6*%
X122335000Y-97480000D02*
X122335000Y-95560000D01*
X122335000Y-95560000D02*
X119650000Y-95560000D01*
X119650000Y-97480000D02*
X122335000Y-97480000D01*
%TO.C,J4*%
X139450000Y-62450000D02*
X140060000Y-62450000D01*
X142410000Y-65250000D02*
X142410000Y-64750000D01*
X142510000Y-65250000D02*
X142510000Y-64750000D01*
X147570000Y-63750000D02*
X146960000Y-63750000D01*
X147570000Y-65860000D02*
X147570000Y-61140000D01*
X139150000Y-60840000D02*
X139150000Y-62090000D01*
X145010000Y-61750000D02*
X145010000Y-61140000D01*
X147570000Y-62450000D02*
X146960000Y-62450000D01*
X146960000Y-65250000D02*
X146960000Y-61750000D01*
X142610000Y-64750000D02*
X142610000Y-65250000D01*
X141210000Y-61140000D02*
X141210000Y-60940000D01*
X139450000Y-63750000D02*
X140060000Y-63750000D01*
X140910000Y-60940000D02*
X140910000Y-61140000D01*
X144510000Y-65250000D02*
X144510000Y-64750000D01*
X141210000Y-60940000D02*
X140910000Y-60940000D01*
X144410000Y-65250000D02*
X144410000Y-64750000D01*
X141210000Y-61040000D02*
X140910000Y-61040000D01*
X144410000Y-64750000D02*
X144610000Y-64750000D01*
X142410000Y-64750000D02*
X142610000Y-64750000D01*
X139450000Y-61140000D02*
X139450000Y-65860000D01*
X146960000Y-61750000D02*
X145010000Y-61750000D01*
X142010000Y-61750000D02*
X140060000Y-61750000D01*
X147570000Y-61140000D02*
X139450000Y-61140000D01*
X140060000Y-65250000D02*
X146960000Y-65250000D01*
X139450000Y-65860000D02*
X147570000Y-65860000D01*
X142010000Y-61140000D02*
X142010000Y-61750000D01*
X140400000Y-60840000D02*
X139150000Y-60840000D01*
X140060000Y-61750000D02*
X140060000Y-65250000D01*
X144610000Y-64750000D02*
X144610000Y-65250000D01*
%TO.C,Q2*%
X131735000Y-87630000D02*
X131735000Y-86980000D01*
X128615000Y-87630000D02*
X128615000Y-86980000D01*
X131735000Y-87630000D02*
X131735000Y-88280000D01*
X128615000Y-87630000D02*
X128615000Y-89305000D01*
%TO.C,D5*%
X122335000Y-90495000D02*
X122335000Y-88575000D01*
X122335000Y-88575000D02*
X119650000Y-88575000D01*
X119650000Y-90495000D02*
X122335000Y-90495000D01*
%TO.C,J5*%
X121690000Y-61750000D02*
X119740000Y-61750000D01*
X122290000Y-64750000D02*
X122290000Y-65250000D01*
X124190000Y-65250000D02*
X124190000Y-64750000D01*
X120890000Y-61140000D02*
X120890000Y-60940000D01*
X126640000Y-61750000D02*
X124690000Y-61750000D01*
X126640000Y-65250000D02*
X126640000Y-61750000D01*
X127250000Y-61140000D02*
X119130000Y-61140000D01*
X124690000Y-61750000D02*
X124690000Y-61140000D01*
X127250000Y-65860000D02*
X127250000Y-61140000D01*
X120890000Y-60940000D02*
X120590000Y-60940000D01*
X119740000Y-65250000D02*
X126640000Y-65250000D01*
X122090000Y-65250000D02*
X122090000Y-64750000D01*
X120590000Y-60940000D02*
X120590000Y-61140000D01*
X122090000Y-64750000D02*
X122290000Y-64750000D01*
X119740000Y-61750000D02*
X119740000Y-65250000D01*
X127250000Y-63750000D02*
X126640000Y-63750000D01*
X127250000Y-62450000D02*
X126640000Y-62450000D01*
X119130000Y-63750000D02*
X119740000Y-63750000D01*
X120080000Y-60840000D02*
X118830000Y-60840000D01*
X119130000Y-65860000D02*
X127250000Y-65860000D01*
X120890000Y-61040000D02*
X120590000Y-61040000D01*
X121690000Y-61140000D02*
X121690000Y-61750000D01*
X124290000Y-64750000D02*
X124290000Y-65250000D01*
X124090000Y-64750000D02*
X124290000Y-64750000D01*
X119130000Y-62450000D02*
X119740000Y-62450000D01*
X118830000Y-60840000D02*
X118830000Y-62090000D01*
X124090000Y-65250000D02*
X124090000Y-64750000D01*
X119130000Y-61140000D02*
X119130000Y-65860000D01*
X122190000Y-65250000D02*
X122190000Y-64750000D01*
%TO.C,SW1*%
X139645000Y-106625000D02*
X146105000Y-106625000D01*
X139645000Y-106655000D02*
X139645000Y-106625000D01*
X139645000Y-108555000D02*
X139645000Y-111155000D01*
X146105000Y-113085000D02*
X146105000Y-113055000D01*
X146105000Y-106625000D02*
X146105000Y-106655000D01*
X146105000Y-108555000D02*
X146105000Y-111155000D01*
X139645000Y-113085000D02*
X146105000Y-113085000D01*
X139645000Y-113085000D02*
X139645000Y-113055000D01*
%TD*%
M02*
