%TF.GenerationSoftware,KiCad,Pcbnew,(6.0.2)*%
%TF.CreationDate,2022-05-15T19:04:19+02:00*%
%TF.ProjectId,unfancyRemote,756e6661-6e63-4795-9265-6d6f74652e6b,rev?*%
%TF.SameCoordinates,Original*%
%TF.FileFunction,Copper,L2,Bot*%
%TF.FilePolarity,Positive*%
%FSLAX46Y46*%
G04 Gerber Fmt 4.6, Leading zero omitted, Abs format (unit mm)*
G04 Created by KiCad (PCBNEW (6.0.2)) date 2022-05-15 19:04:19*
%MOMM*%
%LPD*%
G01*
G04 APERTURE LIST*
%TA.AperFunction,ComponentPad*%
%ADD10R,1.700000X1.700000*%
%TD*%
%TA.AperFunction,ComponentPad*%
%ADD11O,1.700000X1.700000*%
%TD*%
%TA.AperFunction,ViaPad*%
%ADD12C,0.800000*%
%TD*%
%TA.AperFunction,Conductor*%
%ADD13C,0.250000*%
%TD*%
G04 APERTURE END LIST*
D10*
%TO.P,J2,1,TX0*%
%TO.N,Net-(J2-Pad1)*%
X126390000Y-71140000D03*
D11*
%TO.P,J2,2,RX0*%
%TO.N,Net-(J2-Pad2)*%
X126390000Y-73680000D03*
%TO.P,J2,3,RST*%
%TO.N,unconnected-(J2-Pad3)*%
X126390000Y-76220000D03*
%TO.P,J2,4,GND*%
%TO.N,GND*%
X126390000Y-78760000D03*
%TO.P,J2,5,2*%
%TO.N,PPM*%
X126390000Y-81300000D03*
%TO.P,J2,6,3*%
%TO.N,L2*%
X126390000Y-83840000D03*
%TO.P,J2,7,4*%
%TO.N,L3*%
X126390000Y-86380000D03*
%TO.P,J2,8,5*%
%TO.N,L4*%
X126390000Y-88920000D03*
%TO.P,J2,9,6*%
%TO.N,/DIO1*%
X126390000Y-91460000D03*
%TO.P,J2,10,7*%
%TO.N,/NSS*%
X126390000Y-94000000D03*
%TO.P,J2,11,8*%
%TO.N,/NRESET*%
X126390000Y-96540000D03*
%TO.P,J2,12,9*%
%TO.N,/RFBUSY*%
X126390000Y-99080000D03*
%TD*%
D10*
%TO.P,J1,1,RAW*%
%TO.N,+5V*%
X141630000Y-71120000D03*
D11*
%TO.P,J1,2,GND*%
%TO.N,GND*%
X141630000Y-73660000D03*
%TO.P,J1,3,RST*%
%TO.N,unconnected-(J1-Pad3)*%
X141630000Y-76200000D03*
%TO.P,J1,4,VCC*%
%TO.N,+3V3*%
X141630000Y-78740000D03*
%TO.P,J1,5,A3*%
%TO.N,HALL2*%
X141630000Y-81280000D03*
%TO.P,J1,6,A2*%
%TO.N,HALL1*%
X141630000Y-83820000D03*
%TO.P,J1,7,A1*%
%TO.N,VBATSCALED*%
X141630000Y-86360000D03*
%TO.P,J1,8,A0*%
%TO.N,BSENSE*%
X141630000Y-88900000D03*
%TO.P,J1,9,13*%
%TO.N,/SCK*%
X141630000Y-91440000D03*
%TO.P,J1,10,12*%
%TO.N,/MISO*%
X141630000Y-93980000D03*
%TO.P,J1,11,11*%
%TO.N,/MOSI*%
X141630000Y-96520000D03*
%TO.P,J1,12,10*%
%TO.N,ON*%
X141630000Y-99060000D03*
%TD*%
%TO.P,J9,2,A5*%
%TO.N,unconnected-(J9-Pad2)*%
X138963000Y-79990000D03*
D10*
%TO.P,J9,1,A4*%
%TO.N,MOTOR*%
X138963000Y-82530000D03*
%TD*%
D12*
%TO.N,+5V*%
X137795000Y-73660000D03*
%TO.N,GND*%
X128778000Y-74676000D03*
X145796000Y-81280000D03*
X136906000Y-88392000D03*
X143002000Y-117094000D03*
X132080000Y-113030000D03*
X145034000Y-103632000D03*
X123698000Y-86868000D03*
X121920000Y-114046000D03*
X128270000Y-110490000D03*
X137668000Y-113792000D03*
X128778000Y-72390000D03*
X132588000Y-65278000D03*
X121920000Y-101346000D03*
X131318000Y-98552000D03*
X127508000Y-65278000D03*
X121920000Y-111506000D03*
X140970000Y-112014000D03*
X145034000Y-112776000D03*
X140970000Y-109220000D03*
X137922000Y-117094000D03*
X120650000Y-86868000D03*
X128905000Y-81280000D03*
X120650000Y-93472000D03*
X128270000Y-107950000D03*
X128778000Y-90170000D03*
X144272000Y-65278000D03*
X140970000Y-106172000D03*
X135890000Y-85090000D03*
X128778000Y-76835000D03*
X124968000Y-69342000D03*
X145034000Y-105918000D03*
X145034000Y-96774000D03*
X140970000Y-104140000D03*
X132080000Y-107950000D03*
X145034000Y-110490000D03*
X132080000Y-110490000D03*
X145034000Y-94996000D03*
X121920000Y-104140000D03*
X145796000Y-69596000D03*
X132080000Y-114935000D03*
X133604000Y-70866000D03*
X121920000Y-109220000D03*
X124460000Y-114046000D03*
X121920000Y-116586000D03*
X133096000Y-98552000D03*
X132334000Y-69850000D03*
X137922000Y-71120000D03*
X131826000Y-75184000D03*
X128778000Y-69850000D03*
X121920000Y-106680000D03*
X120650000Y-80264000D03*
X145034000Y-108204000D03*
X123698000Y-80264000D03*
X145796000Y-84836000D03*
X144272000Y-76962000D03*
%TO.N,+3V3*%
X139954000Y-101594161D03*
%TO.N,/MISO*%
X141224000Y-100838000D03*
%TO.N,/NSS*%
X128731250Y-97790000D03*
%TO.N,HALL1*%
X134366000Y-69088000D03*
X135890000Y-83185000D03*
%TO.N,ON*%
X136144000Y-97536000D03*
X137705500Y-99060000D03*
%TO.N,5VRAW*%
X139229500Y-88900000D03*
X140970000Y-102362000D03*
%TO.N,Net-(R1-Pad1)*%
X138598496Y-102447504D03*
X138340500Y-93345000D03*
%TD*%
D13*
%TO.N,+3V3*%
X140208000Y-101340161D02*
X139954000Y-101594161D01*
X140208000Y-80162000D02*
X140208000Y-101340161D01*
X141630000Y-78740000D02*
X140208000Y-80162000D01*
%TO.N,+5V*%
X137795000Y-73660000D02*
X140335000Y-71120000D01*
X140335000Y-71120000D02*
X141630000Y-71120000D01*
%TO.N,/MISO*%
X144145000Y-98425000D02*
X144145000Y-95250000D01*
X141224000Y-100838000D02*
X141732000Y-100838000D01*
X142875000Y-93980000D02*
X141630000Y-93980000D01*
X141732000Y-100838000D02*
X144145000Y-98425000D01*
X144145000Y-95250000D02*
X142875000Y-93980000D01*
%TO.N,/NSS*%
X128731250Y-97790000D02*
X128731250Y-96341250D01*
X128731250Y-96341250D02*
X126390000Y-94000000D01*
%TO.N,HALL1*%
X135890000Y-83185000D02*
X135890000Y-70612000D01*
X135890000Y-70612000D02*
X134366000Y-69088000D01*
%TO.N,ON*%
X136181500Y-97536000D02*
X137705500Y-99060000D01*
X136144000Y-97536000D02*
X136181500Y-97536000D01*
%TO.N,5VRAW*%
X139537591Y-102362000D02*
X140970000Y-102362000D01*
X139065000Y-101889409D02*
X139537591Y-102362000D01*
X139229500Y-88900000D02*
X139065000Y-89064500D01*
X139065000Y-89064500D02*
X139065000Y-101889409D01*
%TO.N,Net-(R1-Pad1)*%
X138430000Y-102279008D02*
X138430000Y-93434500D01*
X138598496Y-102447504D02*
X138430000Y-102279008D01*
X138430000Y-93434500D02*
X138340500Y-93345000D01*
%TD*%
%TA.AperFunction,Conductor*%
%TO.N,GND*%
G36*
X146500121Y-64790002D02*
G01*
X146546614Y-64843658D01*
X146558000Y-64896000D01*
X146558000Y-117476000D01*
X146537998Y-117544121D01*
X146484342Y-117590614D01*
X146432000Y-117602000D01*
X120014000Y-117602000D01*
X119945879Y-117581998D01*
X119899386Y-117528342D01*
X119888000Y-117476000D01*
X119888000Y-99046695D01*
X125027251Y-99046695D01*
X125027548Y-99051848D01*
X125027548Y-99051851D01*
X125033011Y-99146590D01*
X125040110Y-99269715D01*
X125041247Y-99274761D01*
X125041248Y-99274767D01*
X125061119Y-99362939D01*
X125089222Y-99487639D01*
X125173266Y-99694616D01*
X125175965Y-99699020D01*
X125270816Y-99853803D01*
X125289987Y-99885088D01*
X125436250Y-100053938D01*
X125608126Y-100196632D01*
X125801000Y-100309338D01*
X126009692Y-100389030D01*
X126014760Y-100390061D01*
X126014763Y-100390062D01*
X126122017Y-100411883D01*
X126228597Y-100433567D01*
X126233772Y-100433757D01*
X126233774Y-100433757D01*
X126446673Y-100441564D01*
X126446677Y-100441564D01*
X126451837Y-100441753D01*
X126456957Y-100441097D01*
X126456959Y-100441097D01*
X126668288Y-100414025D01*
X126668289Y-100414025D01*
X126673416Y-100413368D01*
X126678366Y-100411883D01*
X126882429Y-100350661D01*
X126882434Y-100350659D01*
X126887384Y-100349174D01*
X127087994Y-100250896D01*
X127269860Y-100121173D01*
X127296627Y-100094500D01*
X127424435Y-99967137D01*
X127428096Y-99963489D01*
X127487594Y-99880689D01*
X127555435Y-99786277D01*
X127558453Y-99782077D01*
X127657430Y-99581811D01*
X127722370Y-99368069D01*
X127751529Y-99146590D01*
X127753156Y-99080000D01*
X127734852Y-98857361D01*
X127680431Y-98640702D01*
X127591354Y-98435840D01*
X127470014Y-98248277D01*
X127319670Y-98083051D01*
X127315619Y-98079852D01*
X127315615Y-98079848D01*
X127148414Y-97947800D01*
X127148410Y-97947798D01*
X127144359Y-97944598D01*
X127103053Y-97921796D01*
X127053084Y-97871364D01*
X127038312Y-97801921D01*
X127063428Y-97735516D01*
X127090780Y-97708909D01*
X127134603Y-97677650D01*
X127269860Y-97581173D01*
X127428096Y-97423489D01*
X127442468Y-97403489D01*
X127555435Y-97246277D01*
X127558453Y-97242077D01*
X127570631Y-97217438D01*
X127655136Y-97046453D01*
X127655137Y-97046451D01*
X127657430Y-97041811D01*
X127722370Y-96828069D01*
X127751529Y-96606590D01*
X127752100Y-96583240D01*
X127752676Y-96559654D01*
X127774336Y-96492042D01*
X127829111Y-96446874D01*
X127899611Y-96438490D01*
X127967733Y-96473637D01*
X128060845Y-96566749D01*
X128094871Y-96629061D01*
X128097750Y-96655844D01*
X128097750Y-97087476D01*
X128077748Y-97155597D01*
X128065392Y-97171779D01*
X127992210Y-97253056D01*
X127896723Y-97418444D01*
X127837708Y-97600072D01*
X127837018Y-97606633D01*
X127837018Y-97606635D01*
X127833865Y-97636632D01*
X127817746Y-97790000D01*
X127818436Y-97796565D01*
X127834658Y-97950905D01*
X127837708Y-97979928D01*
X127896723Y-98161556D01*
X127992210Y-98326944D01*
X127996628Y-98331851D01*
X127996629Y-98331852D01*
X128115575Y-98463955D01*
X128119997Y-98468866D01*
X128274498Y-98581118D01*
X128280526Y-98583802D01*
X128280528Y-98583803D01*
X128419597Y-98645720D01*
X128448962Y-98658794D01*
X128542363Y-98678647D01*
X128629306Y-98697128D01*
X128629311Y-98697128D01*
X128635763Y-98698500D01*
X128826737Y-98698500D01*
X128833189Y-98697128D01*
X128833194Y-98697128D01*
X128920137Y-98678647D01*
X129013538Y-98658794D01*
X129042903Y-98645720D01*
X129181972Y-98583803D01*
X129181974Y-98583802D01*
X129188002Y-98581118D01*
X129342503Y-98468866D01*
X129346925Y-98463955D01*
X129465871Y-98331852D01*
X129465872Y-98331851D01*
X129470290Y-98326944D01*
X129565777Y-98161556D01*
X129624792Y-97979928D01*
X129627843Y-97950905D01*
X129644064Y-97796565D01*
X129644754Y-97790000D01*
X129628635Y-97636632D01*
X129625482Y-97606635D01*
X129625482Y-97606633D01*
X129624792Y-97600072D01*
X129603974Y-97536000D01*
X135230496Y-97536000D01*
X135231186Y-97542565D01*
X135249364Y-97715516D01*
X135250458Y-97725928D01*
X135309473Y-97907556D01*
X135404960Y-98072944D01*
X135409378Y-98077851D01*
X135409379Y-98077852D01*
X135500026Y-98178526D01*
X135532747Y-98214866D01*
X135687248Y-98327118D01*
X135693276Y-98329802D01*
X135693278Y-98329803D01*
X135826644Y-98389181D01*
X135861712Y-98404794D01*
X135935998Y-98420584D01*
X136042056Y-98443128D01*
X136042061Y-98443128D01*
X136048513Y-98444500D01*
X136141906Y-98444500D01*
X136210027Y-98464502D01*
X136231001Y-98481405D01*
X136758378Y-99008782D01*
X136792404Y-99071094D01*
X136794592Y-99084703D01*
X136811958Y-99249928D01*
X136870973Y-99431556D01*
X136966460Y-99596944D01*
X136970878Y-99601851D01*
X136970879Y-99601852D01*
X137089825Y-99733955D01*
X137094247Y-99738866D01*
X137248748Y-99851118D01*
X137254776Y-99853802D01*
X137254778Y-99853803D01*
X137325046Y-99885088D01*
X137423212Y-99928794D01*
X137516612Y-99948647D01*
X137603556Y-99967128D01*
X137603561Y-99967128D01*
X137610013Y-99968500D01*
X137670500Y-99968500D01*
X137738621Y-99988502D01*
X137785114Y-100042158D01*
X137796500Y-100094500D01*
X137796500Y-101985842D01*
X137779620Y-102048840D01*
X137763969Y-102075948D01*
X137704954Y-102257576D01*
X137684992Y-102447504D01*
X137704954Y-102637432D01*
X137763969Y-102819060D01*
X137859456Y-102984448D01*
X137863874Y-102989355D01*
X137863875Y-102989356D01*
X137913751Y-103044749D01*
X137987243Y-103126370D01*
X138027754Y-103155803D01*
X138130970Y-103230794D01*
X138141744Y-103238622D01*
X138147772Y-103241306D01*
X138147774Y-103241307D01*
X138310177Y-103313613D01*
X138316208Y-103316298D01*
X138409608Y-103336151D01*
X138496552Y-103354632D01*
X138496557Y-103354632D01*
X138503009Y-103356004D01*
X138693983Y-103356004D01*
X138700435Y-103354632D01*
X138700440Y-103354632D01*
X138787384Y-103336151D01*
X138880784Y-103316298D01*
X138886815Y-103313613D01*
X139049218Y-103241307D01*
X139049220Y-103241306D01*
X139055248Y-103238622D01*
X139066023Y-103230794D01*
X139169238Y-103155803D01*
X139209749Y-103126370D01*
X139300930Y-103025103D01*
X139361376Y-102987863D01*
X139425899Y-102987371D01*
X139427816Y-102987863D01*
X139449883Y-102993529D01*
X139449885Y-102993529D01*
X139457561Y-102995500D01*
X139477815Y-102995500D01*
X139497525Y-102997051D01*
X139517534Y-103000220D01*
X139525426Y-102999474D01*
X139561552Y-102996059D01*
X139573410Y-102995500D01*
X140261800Y-102995500D01*
X140329921Y-103015502D01*
X140349147Y-103031843D01*
X140349420Y-103031540D01*
X140354332Y-103035963D01*
X140358747Y-103040866D01*
X140380329Y-103056546D01*
X140476433Y-103126370D01*
X140513248Y-103153118D01*
X140519276Y-103155802D01*
X140519278Y-103155803D01*
X140681681Y-103228109D01*
X140687712Y-103230794D01*
X140781112Y-103250647D01*
X140868056Y-103269128D01*
X140868061Y-103269128D01*
X140874513Y-103270500D01*
X141065487Y-103270500D01*
X141071939Y-103269128D01*
X141071944Y-103269128D01*
X141158887Y-103250647D01*
X141252288Y-103230794D01*
X141258319Y-103228109D01*
X141420722Y-103155803D01*
X141420724Y-103155802D01*
X141426752Y-103153118D01*
X141581253Y-103040866D01*
X141617851Y-103000220D01*
X141704621Y-102903852D01*
X141704622Y-102903851D01*
X141709040Y-102898944D01*
X141804527Y-102733556D01*
X141863542Y-102551928D01*
X141883504Y-102362000D01*
X141863542Y-102172072D01*
X141804527Y-101990444D01*
X141709040Y-101825056D01*
X141684835Y-101798173D01*
X141654119Y-101734169D01*
X141662882Y-101663715D01*
X141704411Y-101611929D01*
X141829909Y-101520749D01*
X141829911Y-101520747D01*
X141835253Y-101516866D01*
X141839671Y-101511960D01*
X141839678Y-101511953D01*
X141869209Y-101479155D01*
X141916462Y-101446313D01*
X141931912Y-101440196D01*
X141943142Y-101436351D01*
X141977983Y-101426229D01*
X141977984Y-101426229D01*
X141985593Y-101424018D01*
X141992412Y-101419985D01*
X141992417Y-101419983D01*
X142003028Y-101413707D01*
X142020776Y-101405012D01*
X142039617Y-101397552D01*
X142075387Y-101371564D01*
X142085307Y-101365048D01*
X142116535Y-101346580D01*
X142116538Y-101346578D01*
X142123362Y-101342542D01*
X142137683Y-101328221D01*
X142152717Y-101315380D01*
X142162694Y-101308131D01*
X142169107Y-101303472D01*
X142197298Y-101269395D01*
X142205288Y-101260616D01*
X144537247Y-98928657D01*
X144545537Y-98921113D01*
X144552018Y-98917000D01*
X144598659Y-98867332D01*
X144601413Y-98864491D01*
X144621134Y-98844770D01*
X144623612Y-98841575D01*
X144631318Y-98832553D01*
X144656158Y-98806101D01*
X144661586Y-98800321D01*
X144671346Y-98782568D01*
X144682199Y-98766045D01*
X144689753Y-98756306D01*
X144694613Y-98750041D01*
X144712176Y-98709457D01*
X144717383Y-98698827D01*
X144738695Y-98660060D01*
X144740666Y-98652383D01*
X144740668Y-98652378D01*
X144743732Y-98640442D01*
X144750138Y-98621730D01*
X144755033Y-98610419D01*
X144758181Y-98603145D01*
X144759421Y-98595317D01*
X144759423Y-98595310D01*
X144765099Y-98559476D01*
X144767505Y-98547856D01*
X144776528Y-98512711D01*
X144776528Y-98512710D01*
X144778500Y-98505030D01*
X144778500Y-98484776D01*
X144780051Y-98465065D01*
X144781980Y-98452886D01*
X144783220Y-98445057D01*
X144779059Y-98401038D01*
X144778500Y-98389181D01*
X144778500Y-95328767D01*
X144779027Y-95317584D01*
X144780702Y-95310091D01*
X144779651Y-95276638D01*
X144778562Y-95242014D01*
X144778500Y-95238055D01*
X144778500Y-95210144D01*
X144777995Y-95206144D01*
X144777062Y-95194301D01*
X144775922Y-95158029D01*
X144775673Y-95150110D01*
X144770022Y-95130658D01*
X144766014Y-95111306D01*
X144764467Y-95099063D01*
X144763474Y-95091203D01*
X144760556Y-95083832D01*
X144747200Y-95050097D01*
X144743355Y-95038870D01*
X144738213Y-95021173D01*
X144731018Y-94996407D01*
X144726984Y-94989585D01*
X144726981Y-94989579D01*
X144720706Y-94978968D01*
X144712010Y-94961218D01*
X144707472Y-94949756D01*
X144707469Y-94949751D01*
X144704552Y-94942383D01*
X144678573Y-94906625D01*
X144672057Y-94896707D01*
X144653575Y-94865457D01*
X144649542Y-94858637D01*
X144635218Y-94844313D01*
X144622376Y-94829278D01*
X144617496Y-94822561D01*
X144610472Y-94812893D01*
X144576406Y-94784711D01*
X144567627Y-94776722D01*
X143378652Y-93587747D01*
X143371112Y-93579461D01*
X143367000Y-93572982D01*
X143317348Y-93526356D01*
X143314507Y-93523602D01*
X143294770Y-93503865D01*
X143291573Y-93501385D01*
X143282551Y-93493680D01*
X143256100Y-93468841D01*
X143250321Y-93463414D01*
X143243375Y-93459595D01*
X143243372Y-93459593D01*
X143232566Y-93453652D01*
X143216047Y-93442801D01*
X143215583Y-93442441D01*
X143200041Y-93430386D01*
X143192772Y-93427241D01*
X143192768Y-93427238D01*
X143159463Y-93412826D01*
X143148813Y-93407609D01*
X143110060Y-93386305D01*
X143090437Y-93381267D01*
X143071734Y-93374863D01*
X143060420Y-93369967D01*
X143060419Y-93369967D01*
X143053145Y-93366819D01*
X143045322Y-93365580D01*
X143045312Y-93365577D01*
X143009476Y-93359901D01*
X142997856Y-93357495D01*
X142962711Y-93348472D01*
X142962710Y-93348472D01*
X142955030Y-93346500D01*
X142934776Y-93346500D01*
X142915065Y-93344949D01*
X142902886Y-93343020D01*
X142895057Y-93341780D01*
X142895155Y-93341164D01*
X142833133Y-93320817D01*
X142798755Y-93285450D01*
X142712822Y-93152617D01*
X142712820Y-93152614D01*
X142710014Y-93148277D01*
X142559670Y-92983051D01*
X142555619Y-92979852D01*
X142555615Y-92979848D01*
X142388414Y-92847800D01*
X142388410Y-92847798D01*
X142384359Y-92844598D01*
X142343053Y-92821796D01*
X142293084Y-92771364D01*
X142278312Y-92701921D01*
X142303428Y-92635516D01*
X142330780Y-92608909D01*
X142411782Y-92551131D01*
X142509860Y-92481173D01*
X142514845Y-92476206D01*
X142648026Y-92343489D01*
X142668096Y-92323489D01*
X142677430Y-92310500D01*
X142795435Y-92146277D01*
X142798453Y-92142077D01*
X142887546Y-91961811D01*
X142895136Y-91946453D01*
X142895137Y-91946451D01*
X142897430Y-91941811D01*
X142962370Y-91728069D01*
X142991529Y-91506590D01*
X142992585Y-91463365D01*
X142993074Y-91443365D01*
X142993074Y-91443361D01*
X142993156Y-91440000D01*
X142974852Y-91217361D01*
X142920431Y-91000702D01*
X142831354Y-90795840D01*
X142791906Y-90734862D01*
X142712822Y-90612617D01*
X142712820Y-90612614D01*
X142710014Y-90608277D01*
X142559670Y-90443051D01*
X142555619Y-90439852D01*
X142555615Y-90439848D01*
X142388414Y-90307800D01*
X142388410Y-90307798D01*
X142384359Y-90304598D01*
X142343053Y-90281796D01*
X142293084Y-90231364D01*
X142278312Y-90161921D01*
X142303428Y-90095516D01*
X142330780Y-90068909D01*
X142411782Y-90011131D01*
X142509860Y-89941173D01*
X142668096Y-89783489D01*
X142798453Y-89602077D01*
X142887546Y-89421811D01*
X142895136Y-89406453D01*
X142895137Y-89406451D01*
X142897430Y-89401811D01*
X142962370Y-89188069D01*
X142991529Y-88966590D01*
X142992585Y-88923365D01*
X142993074Y-88903365D01*
X142993074Y-88903361D01*
X142993156Y-88900000D01*
X142974852Y-88677361D01*
X142920431Y-88460702D01*
X142831354Y-88255840D01*
X142791906Y-88194862D01*
X142712822Y-88072617D01*
X142712820Y-88072614D01*
X142710014Y-88068277D01*
X142559670Y-87903051D01*
X142555619Y-87899852D01*
X142555615Y-87899848D01*
X142388414Y-87767800D01*
X142388410Y-87767798D01*
X142384359Y-87764598D01*
X142343053Y-87741796D01*
X142293084Y-87691364D01*
X142278312Y-87621921D01*
X142303428Y-87555516D01*
X142330780Y-87528909D01*
X142411782Y-87471131D01*
X142509860Y-87401173D01*
X142668096Y-87243489D01*
X142798453Y-87062077D01*
X142887546Y-86881811D01*
X142895136Y-86866453D01*
X142895137Y-86866451D01*
X142897430Y-86861811D01*
X142962370Y-86648069D01*
X142991529Y-86426590D01*
X142992585Y-86383365D01*
X142993074Y-86363365D01*
X142993074Y-86363361D01*
X142993156Y-86360000D01*
X142974852Y-86137361D01*
X142920431Y-85920702D01*
X142831354Y-85715840D01*
X142791906Y-85654862D01*
X142712822Y-85532617D01*
X142712820Y-85532614D01*
X142710014Y-85528277D01*
X142559670Y-85363051D01*
X142555619Y-85359852D01*
X142555615Y-85359848D01*
X142388414Y-85227800D01*
X142388410Y-85227798D01*
X142384359Y-85224598D01*
X142343053Y-85201796D01*
X142293084Y-85151364D01*
X142278312Y-85081921D01*
X142303428Y-85015516D01*
X142330780Y-84988909D01*
X142411782Y-84931131D01*
X142509860Y-84861173D01*
X142668096Y-84703489D01*
X142798453Y-84522077D01*
X142887546Y-84341811D01*
X142895136Y-84326453D01*
X142895137Y-84326451D01*
X142897430Y-84321811D01*
X142962370Y-84108069D01*
X142991529Y-83886590D01*
X142991627Y-83882598D01*
X142993074Y-83823365D01*
X142993074Y-83823361D01*
X142993156Y-83820000D01*
X142974852Y-83597361D01*
X142920431Y-83380702D01*
X142831354Y-83175840D01*
X142791906Y-83114862D01*
X142712822Y-82992617D01*
X142712820Y-82992614D01*
X142710014Y-82988277D01*
X142559670Y-82823051D01*
X142555619Y-82819852D01*
X142555615Y-82819848D01*
X142388414Y-82687800D01*
X142388410Y-82687798D01*
X142384359Y-82684598D01*
X142343053Y-82661796D01*
X142293084Y-82611364D01*
X142278312Y-82541921D01*
X142303428Y-82475516D01*
X142330780Y-82448909D01*
X142411782Y-82391131D01*
X142509860Y-82321173D01*
X142668096Y-82163489D01*
X142798453Y-81982077D01*
X142887546Y-81801811D01*
X142895136Y-81786453D01*
X142895137Y-81786451D01*
X142897430Y-81781811D01*
X142957852Y-81582939D01*
X142960865Y-81573023D01*
X142960865Y-81573021D01*
X142962370Y-81568069D01*
X142991529Y-81346590D01*
X142992083Y-81323919D01*
X142993074Y-81283365D01*
X142993074Y-81283361D01*
X142993156Y-81280000D01*
X142974852Y-81057361D01*
X142920431Y-80840702D01*
X142831354Y-80635840D01*
X142791906Y-80574862D01*
X142712822Y-80452617D01*
X142712820Y-80452614D01*
X142710014Y-80448277D01*
X142559670Y-80283051D01*
X142555619Y-80279852D01*
X142555615Y-80279848D01*
X142388414Y-80147800D01*
X142388410Y-80147798D01*
X142384359Y-80144598D01*
X142343053Y-80121796D01*
X142293084Y-80071364D01*
X142278312Y-80001921D01*
X142303428Y-79935516D01*
X142330780Y-79908909D01*
X142381240Y-79872916D01*
X142509860Y-79781173D01*
X142668096Y-79623489D01*
X142713439Y-79560388D01*
X142795435Y-79446277D01*
X142798453Y-79442077D01*
X142858108Y-79321375D01*
X142895136Y-79246453D01*
X142895137Y-79246451D01*
X142897430Y-79241811D01*
X142962370Y-79028069D01*
X142991529Y-78806590D01*
X142993156Y-78740000D01*
X142974852Y-78517361D01*
X142920431Y-78300702D01*
X142831354Y-78095840D01*
X142721052Y-77925339D01*
X142712822Y-77912617D01*
X142712820Y-77912614D01*
X142710014Y-77908277D01*
X142559670Y-77743051D01*
X142555619Y-77739852D01*
X142555615Y-77739848D01*
X142388414Y-77607800D01*
X142388410Y-77607798D01*
X142384359Y-77604598D01*
X142343053Y-77581796D01*
X142293084Y-77531364D01*
X142278312Y-77461921D01*
X142303428Y-77395516D01*
X142330780Y-77368909D01*
X142380664Y-77333327D01*
X142509860Y-77241173D01*
X142668096Y-77083489D01*
X142727594Y-77000689D01*
X142795435Y-76906277D01*
X142798453Y-76902077D01*
X142887546Y-76721811D01*
X142895136Y-76706453D01*
X142895137Y-76706451D01*
X142897430Y-76701811D01*
X142962370Y-76488069D01*
X142991529Y-76266590D01*
X142992585Y-76223365D01*
X142993074Y-76203365D01*
X142993074Y-76203361D01*
X142993156Y-76200000D01*
X142974852Y-75977361D01*
X142920431Y-75760702D01*
X142831354Y-75555840D01*
X142791906Y-75494862D01*
X142712822Y-75372617D01*
X142712820Y-75372614D01*
X142710014Y-75368277D01*
X142559670Y-75203051D01*
X142555619Y-75199852D01*
X142555615Y-75199848D01*
X142388414Y-75067800D01*
X142388410Y-75067798D01*
X142384359Y-75064598D01*
X142342569Y-75041529D01*
X142292598Y-74991097D01*
X142277826Y-74921654D01*
X142302942Y-74855248D01*
X142330294Y-74828641D01*
X142505328Y-74703792D01*
X142513200Y-74697139D01*
X142664052Y-74546812D01*
X142670730Y-74538965D01*
X142795003Y-74366020D01*
X142800313Y-74357183D01*
X142894670Y-74166267D01*
X142898469Y-74156672D01*
X142960377Y-73952910D01*
X142962555Y-73942837D01*
X142963986Y-73931962D01*
X142961775Y-73917778D01*
X142948617Y-73914000D01*
X140313225Y-73914000D01*
X140299694Y-73917973D01*
X140298257Y-73927966D01*
X140328565Y-74062446D01*
X140331645Y-74072275D01*
X140411770Y-74269603D01*
X140416413Y-74278794D01*
X140527694Y-74460388D01*
X140533777Y-74468699D01*
X140673213Y-74629667D01*
X140680580Y-74636883D01*
X140844434Y-74772916D01*
X140852881Y-74778831D01*
X140921969Y-74819203D01*
X140970693Y-74870842D01*
X140983764Y-74940625D01*
X140957033Y-75006396D01*
X140916584Y-75039752D01*
X140903607Y-75046507D01*
X140899474Y-75049610D01*
X140899471Y-75049612D01*
X140729100Y-75177530D01*
X140724965Y-75180635D01*
X140570629Y-75342138D01*
X140567715Y-75346410D01*
X140567714Y-75346411D01*
X140482556Y-75471249D01*
X140444743Y-75526680D01*
X140350688Y-75729305D01*
X140290989Y-75944570D01*
X140267251Y-76166695D01*
X140267548Y-76171848D01*
X140267548Y-76171851D01*
X140273011Y-76266590D01*
X140280110Y-76389715D01*
X140281247Y-76394761D01*
X140281248Y-76394767D01*
X140301119Y-76482939D01*
X140329222Y-76607639D01*
X140413266Y-76814616D01*
X140529987Y-77005088D01*
X140676250Y-77173938D01*
X140848126Y-77316632D01*
X140889581Y-77340856D01*
X140921445Y-77359476D01*
X140970169Y-77411114D01*
X140983240Y-77480897D01*
X140956509Y-77546669D01*
X140916055Y-77580027D01*
X140903607Y-77586507D01*
X140899474Y-77589610D01*
X140899471Y-77589612D01*
X140729100Y-77717530D01*
X140724965Y-77720635D01*
X140570629Y-77882138D01*
X140567715Y-77886410D01*
X140567714Y-77886411D01*
X140552798Y-77908277D01*
X140444743Y-78066680D01*
X140350688Y-78269305D01*
X140290989Y-78484570D01*
X140267251Y-78706695D01*
X140267548Y-78711848D01*
X140267548Y-78711851D01*
X140273011Y-78806590D01*
X140280110Y-78929715D01*
X140281247Y-78934761D01*
X140281248Y-78934767D01*
X140313453Y-79077668D01*
X140308917Y-79148520D01*
X140279631Y-79194464D01*
X140260394Y-79213701D01*
X140198082Y-79247727D01*
X140127267Y-79242662D01*
X140070431Y-79200115D01*
X140065507Y-79193046D01*
X140045822Y-79162617D01*
X140045820Y-79162614D01*
X140043014Y-79158277D01*
X139892670Y-78993051D01*
X139888619Y-78989852D01*
X139888615Y-78989848D01*
X139721414Y-78857800D01*
X139721410Y-78857798D01*
X139717359Y-78854598D01*
X139521789Y-78746638D01*
X139516920Y-78744914D01*
X139516916Y-78744912D01*
X139316087Y-78673795D01*
X139316083Y-78673794D01*
X139311212Y-78672069D01*
X139306119Y-78671162D01*
X139306116Y-78671161D01*
X139096373Y-78633800D01*
X139096367Y-78633799D01*
X139091284Y-78632894D01*
X139017452Y-78631992D01*
X138873081Y-78630228D01*
X138873079Y-78630228D01*
X138867911Y-78630165D01*
X138647091Y-78663955D01*
X138434756Y-78733357D01*
X138236607Y-78836507D01*
X138232474Y-78839610D01*
X138232471Y-78839612D01*
X138070102Y-78961522D01*
X138057965Y-78970635D01*
X137903629Y-79132138D01*
X137900715Y-79136410D01*
X137900714Y-79136411D01*
X137846447Y-79215964D01*
X137777743Y-79316680D01*
X137775564Y-79321375D01*
X137687102Y-79511951D01*
X137683688Y-79519305D01*
X137623989Y-79734570D01*
X137600251Y-79956695D01*
X137600548Y-79961848D01*
X137600548Y-79961851D01*
X137610806Y-80139754D01*
X137613110Y-80179715D01*
X137614247Y-80184761D01*
X137614248Y-80184767D01*
X137635154Y-80277530D01*
X137662222Y-80397639D01*
X137682784Y-80448277D01*
X137742611Y-80595614D01*
X137746266Y-80604616D01*
X137862987Y-80795088D01*
X137866367Y-80798990D01*
X137872030Y-80805528D01*
X138009250Y-80963938D01*
X138013230Y-80967242D01*
X138017981Y-80971187D01*
X138057616Y-81030090D01*
X138059113Y-81101071D01*
X138021997Y-81161593D01*
X137981724Y-81186112D01*
X137866295Y-81229385D01*
X137749739Y-81316739D01*
X137662385Y-81433295D01*
X137611255Y-81569684D01*
X137604500Y-81631866D01*
X137604500Y-83428134D01*
X137611255Y-83490316D01*
X137662385Y-83626705D01*
X137749739Y-83743261D01*
X137866295Y-83830615D01*
X138002684Y-83881745D01*
X138064866Y-83888500D01*
X139448500Y-83888500D01*
X139516621Y-83908502D01*
X139563114Y-83962158D01*
X139574500Y-84014500D01*
X139574500Y-87888938D01*
X139554498Y-87957059D01*
X139500842Y-88003552D01*
X139430568Y-88013656D01*
X139422303Y-88012185D01*
X139331444Y-87992872D01*
X139331439Y-87992872D01*
X139324987Y-87991500D01*
X139134013Y-87991500D01*
X139127561Y-87992872D01*
X139127556Y-87992872D01*
X139040612Y-88011353D01*
X138947212Y-88031206D01*
X138941182Y-88033891D01*
X138941181Y-88033891D01*
X138778778Y-88106197D01*
X138778776Y-88106198D01*
X138772748Y-88108882D01*
X138618247Y-88221134D01*
X138613826Y-88226044D01*
X138613825Y-88226045D01*
X138564713Y-88280590D01*
X138490460Y-88363056D01*
X138394973Y-88528444D01*
X138335958Y-88710072D01*
X138315996Y-88900000D01*
X138316686Y-88906565D01*
X138323344Y-88969908D01*
X138335958Y-89089928D01*
X138394973Y-89271556D01*
X138398276Y-89277277D01*
X138398277Y-89277279D01*
X138414619Y-89305584D01*
X138431500Y-89368584D01*
X138431500Y-92310500D01*
X138411498Y-92378621D01*
X138357842Y-92425114D01*
X138305500Y-92436500D01*
X138245013Y-92436500D01*
X138238561Y-92437872D01*
X138238556Y-92437872D01*
X138151612Y-92456353D01*
X138058212Y-92476206D01*
X138052182Y-92478891D01*
X138052181Y-92478891D01*
X137889778Y-92551197D01*
X137889776Y-92551198D01*
X137883748Y-92553882D01*
X137729247Y-92666134D01*
X137724826Y-92671044D01*
X137724825Y-92671045D01*
X137616490Y-92791364D01*
X137601460Y-92808056D01*
X137505973Y-92973444D01*
X137446958Y-93155072D01*
X137446268Y-93161633D01*
X137446268Y-93161635D01*
X137445570Y-93168277D01*
X137426996Y-93345000D01*
X137427686Y-93351565D01*
X137445874Y-93524610D01*
X137446958Y-93534928D01*
X137505973Y-93716556D01*
X137509276Y-93722278D01*
X137509277Y-93722279D01*
X137522147Y-93744570D01*
X137601460Y-93881944D01*
X137605878Y-93886851D01*
X137605879Y-93886852D01*
X137704738Y-93996646D01*
X137729247Y-94023866D01*
X137744561Y-94034992D01*
X137787914Y-94091213D01*
X137796500Y-94136928D01*
X137796500Y-97950905D01*
X137776498Y-98019026D01*
X137722842Y-98065519D01*
X137652568Y-98075623D01*
X137587988Y-98046129D01*
X137581405Y-98040000D01*
X137086718Y-97545313D01*
X137052692Y-97483001D01*
X137050503Y-97469388D01*
X137038232Y-97352637D01*
X137038232Y-97352635D01*
X137037542Y-97346072D01*
X136978527Y-97164444D01*
X136883040Y-96999056D01*
X136755253Y-96857134D01*
X136600752Y-96744882D01*
X136594724Y-96742198D01*
X136594722Y-96742197D01*
X136432319Y-96669891D01*
X136432318Y-96669891D01*
X136426288Y-96667206D01*
X136332888Y-96647353D01*
X136245944Y-96628872D01*
X136245939Y-96628872D01*
X136239487Y-96627500D01*
X136048513Y-96627500D01*
X136042061Y-96628872D01*
X136042056Y-96628872D01*
X135955112Y-96647353D01*
X135861712Y-96667206D01*
X135855682Y-96669891D01*
X135855681Y-96669891D01*
X135693278Y-96742197D01*
X135693276Y-96742198D01*
X135687248Y-96744882D01*
X135532747Y-96857134D01*
X135404960Y-96999056D01*
X135309473Y-97164444D01*
X135250458Y-97346072D01*
X135230496Y-97536000D01*
X129603974Y-97536000D01*
X129565777Y-97418444D01*
X129470290Y-97253056D01*
X129397113Y-97171785D01*
X129366397Y-97107779D01*
X129364750Y-97087476D01*
X129364750Y-96420018D01*
X129365277Y-96408835D01*
X129366952Y-96401342D01*
X129364812Y-96333251D01*
X129364750Y-96329294D01*
X129364750Y-96301394D01*
X129364246Y-96297403D01*
X129363313Y-96285561D01*
X129363126Y-96279588D01*
X129361924Y-96241361D01*
X129356271Y-96221902D01*
X129352262Y-96202543D01*
X129352096Y-96201233D01*
X129349724Y-96182453D01*
X129346808Y-96175087D01*
X129346806Y-96175081D01*
X129333450Y-96141348D01*
X129329605Y-96130118D01*
X129319480Y-96095267D01*
X129319480Y-96095266D01*
X129317269Y-96087657D01*
X129306955Y-96070216D01*
X129298258Y-96052463D01*
X129293722Y-96041008D01*
X129290802Y-96033633D01*
X129264813Y-95997862D01*
X129258297Y-95987942D01*
X129239828Y-95956713D01*
X129235792Y-95949888D01*
X129221471Y-95935567D01*
X129208630Y-95920533D01*
X129201381Y-95910556D01*
X129196722Y-95904143D01*
X129162645Y-95875952D01*
X129153866Y-95867962D01*
X127741218Y-94455313D01*
X127707192Y-94393001D01*
X127709755Y-94329589D01*
X127720865Y-94293022D01*
X127722370Y-94288069D01*
X127751529Y-94066590D01*
X127753156Y-94000000D01*
X127734852Y-93777361D01*
X127680431Y-93560702D01*
X127591354Y-93355840D01*
X127470014Y-93168277D01*
X127319670Y-93003051D01*
X127315619Y-92999852D01*
X127315615Y-92999848D01*
X127148414Y-92867800D01*
X127148410Y-92867798D01*
X127144359Y-92864598D01*
X127103053Y-92841796D01*
X127053084Y-92791364D01*
X127038312Y-92721921D01*
X127063428Y-92655516D01*
X127090780Y-92628909D01*
X127134603Y-92597650D01*
X127269860Y-92501173D01*
X127294915Y-92476206D01*
X127424435Y-92347137D01*
X127428096Y-92343489D01*
X127442468Y-92323489D01*
X127555435Y-92166277D01*
X127558453Y-92162077D01*
X127570631Y-92137438D01*
X127655136Y-91966453D01*
X127655137Y-91966451D01*
X127657430Y-91961811D01*
X127722370Y-91748069D01*
X127751529Y-91526590D01*
X127753156Y-91460000D01*
X127734852Y-91237361D01*
X127680431Y-91020702D01*
X127591354Y-90815840D01*
X127470014Y-90628277D01*
X127319670Y-90463051D01*
X127315619Y-90459852D01*
X127315615Y-90459848D01*
X127148414Y-90327800D01*
X127148410Y-90327798D01*
X127144359Y-90324598D01*
X127103053Y-90301796D01*
X127053084Y-90251364D01*
X127038312Y-90181921D01*
X127063428Y-90115516D01*
X127090780Y-90088909D01*
X127134603Y-90057650D01*
X127269860Y-89961173D01*
X127428096Y-89803489D01*
X127442468Y-89783489D01*
X127555435Y-89626277D01*
X127558453Y-89622077D01*
X127570631Y-89597438D01*
X127655136Y-89426453D01*
X127655137Y-89426451D01*
X127657430Y-89421811D01*
X127722370Y-89208069D01*
X127751529Y-88986590D01*
X127753156Y-88920000D01*
X127734852Y-88697361D01*
X127680431Y-88480702D01*
X127591354Y-88275840D01*
X127470014Y-88088277D01*
X127319670Y-87923051D01*
X127315619Y-87919852D01*
X127315615Y-87919848D01*
X127148414Y-87787800D01*
X127148410Y-87787798D01*
X127144359Y-87784598D01*
X127103053Y-87761796D01*
X127053084Y-87711364D01*
X127038312Y-87641921D01*
X127063428Y-87575516D01*
X127090780Y-87548909D01*
X127134603Y-87517650D01*
X127269860Y-87421173D01*
X127428096Y-87263489D01*
X127442468Y-87243489D01*
X127555435Y-87086277D01*
X127558453Y-87082077D01*
X127570631Y-87057438D01*
X127655136Y-86886453D01*
X127655137Y-86886451D01*
X127657430Y-86881811D01*
X127722370Y-86668069D01*
X127751529Y-86446590D01*
X127753156Y-86380000D01*
X127734852Y-86157361D01*
X127680431Y-85940702D01*
X127591354Y-85735840D01*
X127470014Y-85548277D01*
X127319670Y-85383051D01*
X127315619Y-85379852D01*
X127315615Y-85379848D01*
X127148414Y-85247800D01*
X127148410Y-85247798D01*
X127144359Y-85244598D01*
X127103053Y-85221796D01*
X127053084Y-85171364D01*
X127038312Y-85101921D01*
X127063428Y-85035516D01*
X127090780Y-85008909D01*
X127134603Y-84977650D01*
X127269860Y-84881173D01*
X127428096Y-84723489D01*
X127442468Y-84703489D01*
X127555435Y-84546277D01*
X127558453Y-84542077D01*
X127570631Y-84517438D01*
X127655136Y-84346453D01*
X127655137Y-84346451D01*
X127657430Y-84341811D01*
X127722370Y-84128069D01*
X127751529Y-83906590D01*
X127753156Y-83840000D01*
X127734852Y-83617361D01*
X127680431Y-83400702D01*
X127591354Y-83195840D01*
X127470014Y-83008277D01*
X127319670Y-82843051D01*
X127315619Y-82839852D01*
X127315615Y-82839848D01*
X127148414Y-82707800D01*
X127148410Y-82707798D01*
X127144359Y-82704598D01*
X127103053Y-82681796D01*
X127053084Y-82631364D01*
X127038312Y-82561921D01*
X127063428Y-82495516D01*
X127090780Y-82468909D01*
X127134603Y-82437650D01*
X127269860Y-82341173D01*
X127428096Y-82183489D01*
X127442468Y-82163489D01*
X127555435Y-82006277D01*
X127558453Y-82002077D01*
X127570631Y-81977438D01*
X127655136Y-81806453D01*
X127655137Y-81806451D01*
X127657430Y-81801811D01*
X127722370Y-81588069D01*
X127751529Y-81366590D01*
X127752847Y-81312641D01*
X127753074Y-81303365D01*
X127753074Y-81303361D01*
X127753156Y-81300000D01*
X127734852Y-81077361D01*
X127680431Y-80860702D01*
X127591354Y-80655840D01*
X127470014Y-80468277D01*
X127319670Y-80303051D01*
X127315619Y-80299852D01*
X127315615Y-80299848D01*
X127148414Y-80167800D01*
X127148410Y-80167798D01*
X127144359Y-80164598D01*
X127102569Y-80141529D01*
X127052598Y-80091097D01*
X127037826Y-80021654D01*
X127062942Y-79955248D01*
X127090294Y-79928641D01*
X127265328Y-79803792D01*
X127273200Y-79797139D01*
X127424052Y-79646812D01*
X127430730Y-79638965D01*
X127525051Y-79507703D01*
X129970743Y-79507703D01*
X129971302Y-79511947D01*
X129971302Y-79511951D01*
X129973084Y-79525488D01*
X130008268Y-79792734D01*
X130084129Y-80070036D01*
X130085813Y-80073984D01*
X130173958Y-80280635D01*
X130196923Y-80334476D01*
X130344561Y-80581161D01*
X130524313Y-80805528D01*
X130732851Y-81003423D01*
X130966317Y-81171186D01*
X130970112Y-81173195D01*
X130970113Y-81173196D01*
X130991869Y-81184715D01*
X131220392Y-81305712D01*
X131490373Y-81404511D01*
X131771264Y-81465755D01*
X131799841Y-81468004D01*
X131994282Y-81483307D01*
X131994291Y-81483307D01*
X131996739Y-81483500D01*
X132152271Y-81483500D01*
X132154407Y-81483354D01*
X132154418Y-81483354D01*
X132362548Y-81469165D01*
X132362554Y-81469164D01*
X132366825Y-81468873D01*
X132371020Y-81468004D01*
X132371022Y-81468004D01*
X132538626Y-81433295D01*
X132648342Y-81410574D01*
X132919343Y-81314607D01*
X133174812Y-81182750D01*
X133178313Y-81180289D01*
X133178317Y-81180287D01*
X133345879Y-81062522D01*
X133410023Y-81017441D01*
X133578694Y-80860702D01*
X133617479Y-80824661D01*
X133617481Y-80824658D01*
X133620622Y-80821740D01*
X133802713Y-80599268D01*
X133952927Y-80354142D01*
X133983554Y-80284373D01*
X134066757Y-80094830D01*
X134068483Y-80090898D01*
X134074048Y-80071364D01*
X134146068Y-79818534D01*
X134147244Y-79814406D01*
X134182213Y-79568699D01*
X134187146Y-79534036D01*
X134187146Y-79534034D01*
X134187751Y-79529784D01*
X134187831Y-79514610D01*
X134189235Y-79246583D01*
X134189235Y-79246576D01*
X134189257Y-79242297D01*
X134180039Y-79172275D01*
X134164324Y-79052910D01*
X134151732Y-78957266D01*
X134075871Y-78679964D01*
X134008716Y-78522522D01*
X133964763Y-78419476D01*
X133964761Y-78419472D01*
X133963077Y-78415524D01*
X133815439Y-78168839D01*
X133635687Y-77944472D01*
X133512289Y-77827372D01*
X133430258Y-77749527D01*
X133430255Y-77749525D01*
X133427149Y-77746577D01*
X133193683Y-77578814D01*
X133171843Y-77567250D01*
X133132972Y-77546669D01*
X132939608Y-77444288D01*
X132804618Y-77394889D01*
X132673658Y-77346964D01*
X132673656Y-77346963D01*
X132669627Y-77345489D01*
X132388736Y-77284245D01*
X132357685Y-77281801D01*
X132165718Y-77266693D01*
X132165709Y-77266693D01*
X132163261Y-77266500D01*
X132007729Y-77266500D01*
X132005593Y-77266646D01*
X132005582Y-77266646D01*
X131797452Y-77280835D01*
X131797446Y-77280836D01*
X131793175Y-77281127D01*
X131788980Y-77281996D01*
X131788978Y-77281996D01*
X131652416Y-77310277D01*
X131511658Y-77339426D01*
X131240657Y-77435393D01*
X130985188Y-77567250D01*
X130981687Y-77569711D01*
X130981683Y-77569713D01*
X130867582Y-77649905D01*
X130749977Y-77732559D01*
X130736860Y-77744748D01*
X130543148Y-77924757D01*
X130539378Y-77928260D01*
X130357287Y-78150732D01*
X130207073Y-78395858D01*
X130205347Y-78399791D01*
X130205346Y-78399792D01*
X130102624Y-78633800D01*
X130091517Y-78659102D01*
X130090342Y-78663229D01*
X130090341Y-78663230D01*
X130086699Y-78676016D01*
X130012756Y-78935594D01*
X129972249Y-79220216D01*
X129972227Y-79224505D01*
X129972226Y-79224512D01*
X129970961Y-79466020D01*
X129970743Y-79507703D01*
X127525051Y-79507703D01*
X127555003Y-79466020D01*
X127560313Y-79457183D01*
X127654670Y-79266267D01*
X127658469Y-79256672D01*
X127720377Y-79052910D01*
X127722555Y-79042837D01*
X127723986Y-79031962D01*
X127721775Y-79017778D01*
X127708617Y-79014000D01*
X125073225Y-79014000D01*
X125059694Y-79017973D01*
X125058257Y-79027966D01*
X125088565Y-79162446D01*
X125091645Y-79172275D01*
X125171770Y-79369603D01*
X125176413Y-79378794D01*
X125287694Y-79560388D01*
X125293777Y-79568699D01*
X125433213Y-79729667D01*
X125440580Y-79736883D01*
X125604434Y-79872916D01*
X125612881Y-79878831D01*
X125681969Y-79919203D01*
X125730693Y-79970842D01*
X125743764Y-80040625D01*
X125717033Y-80106396D01*
X125676584Y-80139752D01*
X125663607Y-80146507D01*
X125659474Y-80149610D01*
X125659471Y-80149612D01*
X125635247Y-80167800D01*
X125484965Y-80280635D01*
X125330629Y-80442138D01*
X125204743Y-80626680D01*
X125189003Y-80660590D01*
X125114200Y-80821740D01*
X125110688Y-80829305D01*
X125050989Y-81044570D01*
X125027251Y-81266695D01*
X125027548Y-81271848D01*
X125027548Y-81271851D01*
X125038748Y-81466091D01*
X125040110Y-81489715D01*
X125041247Y-81494761D01*
X125041248Y-81494767D01*
X125061119Y-81582939D01*
X125089222Y-81707639D01*
X125173266Y-81914616D01*
X125289987Y-82105088D01*
X125436250Y-82273938D01*
X125608126Y-82416632D01*
X125663362Y-82448909D01*
X125681445Y-82459476D01*
X125730169Y-82511114D01*
X125743240Y-82580897D01*
X125716509Y-82646669D01*
X125676055Y-82680027D01*
X125663607Y-82686507D01*
X125659474Y-82689610D01*
X125659471Y-82689612D01*
X125489100Y-82817530D01*
X125484965Y-82820635D01*
X125330629Y-82982138D01*
X125327715Y-82986410D01*
X125327714Y-82986411D01*
X125323481Y-82992617D01*
X125204743Y-83166680D01*
X125110688Y-83369305D01*
X125050989Y-83584570D01*
X125027251Y-83806695D01*
X125027548Y-83811848D01*
X125027548Y-83811851D01*
X125033011Y-83906590D01*
X125040110Y-84029715D01*
X125041247Y-84034761D01*
X125041248Y-84034767D01*
X125061119Y-84122939D01*
X125089222Y-84247639D01*
X125173266Y-84454616D01*
X125289987Y-84645088D01*
X125436250Y-84813938D01*
X125608126Y-84956632D01*
X125663362Y-84988909D01*
X125681445Y-84999476D01*
X125730169Y-85051114D01*
X125743240Y-85120897D01*
X125716509Y-85186669D01*
X125676055Y-85220027D01*
X125663607Y-85226507D01*
X125659474Y-85229610D01*
X125659471Y-85229612D01*
X125489100Y-85357530D01*
X125484965Y-85360635D01*
X125330629Y-85522138D01*
X125204743Y-85706680D01*
X125110688Y-85909305D01*
X125050989Y-86124570D01*
X125027251Y-86346695D01*
X125027548Y-86351848D01*
X125027548Y-86351851D01*
X125033011Y-86446590D01*
X125040110Y-86569715D01*
X125041247Y-86574761D01*
X125041248Y-86574767D01*
X125061119Y-86662939D01*
X125089222Y-86787639D01*
X125173266Y-86994616D01*
X125289987Y-87185088D01*
X125436250Y-87353938D01*
X125608126Y-87496632D01*
X125663362Y-87528909D01*
X125681445Y-87539476D01*
X125730169Y-87591114D01*
X125743240Y-87660897D01*
X125716509Y-87726669D01*
X125676055Y-87760027D01*
X125663607Y-87766507D01*
X125659474Y-87769610D01*
X125659471Y-87769612D01*
X125489100Y-87897530D01*
X125484965Y-87900635D01*
X125481393Y-87904373D01*
X125376960Y-88013656D01*
X125330629Y-88062138D01*
X125204743Y-88246680D01*
X125110688Y-88449305D01*
X125050989Y-88664570D01*
X125027251Y-88886695D01*
X125027548Y-88891848D01*
X125027548Y-88891851D01*
X125033011Y-88986590D01*
X125040110Y-89109715D01*
X125041247Y-89114761D01*
X125041248Y-89114767D01*
X125061119Y-89202939D01*
X125089222Y-89327639D01*
X125173266Y-89534616D01*
X125289987Y-89725088D01*
X125436250Y-89893938D01*
X125608126Y-90036632D01*
X125663362Y-90068909D01*
X125681445Y-90079476D01*
X125730169Y-90131114D01*
X125743240Y-90200897D01*
X125716509Y-90266669D01*
X125676055Y-90300027D01*
X125663607Y-90306507D01*
X125659474Y-90309610D01*
X125659471Y-90309612D01*
X125489100Y-90437530D01*
X125484965Y-90440635D01*
X125330629Y-90602138D01*
X125204743Y-90786680D01*
X125110688Y-90989305D01*
X125050989Y-91204570D01*
X125027251Y-91426695D01*
X125027548Y-91431848D01*
X125027548Y-91431851D01*
X125033011Y-91526590D01*
X125040110Y-91649715D01*
X125041247Y-91654761D01*
X125041248Y-91654767D01*
X125061119Y-91742939D01*
X125089222Y-91867639D01*
X125173266Y-92074616D01*
X125289987Y-92265088D01*
X125436250Y-92433938D01*
X125608126Y-92576632D01*
X125663362Y-92608909D01*
X125681445Y-92619476D01*
X125730169Y-92671114D01*
X125743240Y-92740897D01*
X125716509Y-92806669D01*
X125676055Y-92840027D01*
X125663607Y-92846507D01*
X125659474Y-92849610D01*
X125659471Y-92849612D01*
X125489100Y-92977530D01*
X125484965Y-92980635D01*
X125330629Y-93142138D01*
X125327715Y-93146410D01*
X125327714Y-93146411D01*
X125323481Y-93152617D01*
X125204743Y-93326680D01*
X125165851Y-93410467D01*
X125123645Y-93501392D01*
X125110688Y-93529305D01*
X125050989Y-93744570D01*
X125027251Y-93966695D01*
X125027548Y-93971848D01*
X125027548Y-93971851D01*
X125037066Y-94136928D01*
X125040110Y-94189715D01*
X125041247Y-94194761D01*
X125041248Y-94194767D01*
X125061119Y-94282939D01*
X125089222Y-94407639D01*
X125173266Y-94614616D01*
X125175965Y-94619020D01*
X125277501Y-94784712D01*
X125289987Y-94805088D01*
X125436250Y-94973938D01*
X125608126Y-95116632D01*
X125632129Y-95130658D01*
X125681445Y-95159476D01*
X125730169Y-95211114D01*
X125743240Y-95280897D01*
X125716509Y-95346669D01*
X125676055Y-95380027D01*
X125663607Y-95386507D01*
X125659474Y-95389610D01*
X125659471Y-95389612D01*
X125489100Y-95517530D01*
X125484965Y-95520635D01*
X125330629Y-95682138D01*
X125204743Y-95866680D01*
X125176023Y-95928553D01*
X125118506Y-96052463D01*
X125110688Y-96069305D01*
X125050989Y-96284570D01*
X125027251Y-96506695D01*
X125027548Y-96511848D01*
X125027548Y-96511851D01*
X125034306Y-96629061D01*
X125040110Y-96729715D01*
X125041247Y-96734761D01*
X125041248Y-96734767D01*
X125061119Y-96822939D01*
X125089222Y-96947639D01*
X125173266Y-97154616D01*
X125289987Y-97345088D01*
X125436250Y-97513938D01*
X125608126Y-97656632D01*
X125663362Y-97688909D01*
X125681445Y-97699476D01*
X125730169Y-97751114D01*
X125743240Y-97820897D01*
X125716509Y-97886669D01*
X125676055Y-97920027D01*
X125663607Y-97926507D01*
X125659474Y-97929610D01*
X125659471Y-97929612D01*
X125584095Y-97986206D01*
X125484965Y-98060635D01*
X125473202Y-98072944D01*
X125383054Y-98167279D01*
X125330629Y-98222138D01*
X125327715Y-98226410D01*
X125327714Y-98226411D01*
X125257185Y-98329803D01*
X125204743Y-98406680D01*
X125187188Y-98444500D01*
X125122526Y-98583803D01*
X125110688Y-98609305D01*
X125050989Y-98824570D01*
X125027251Y-99046695D01*
X119888000Y-99046695D01*
X119888000Y-76186695D01*
X125027251Y-76186695D01*
X125027548Y-76191848D01*
X125027548Y-76191851D01*
X125033011Y-76286590D01*
X125040110Y-76409715D01*
X125041247Y-76414761D01*
X125041248Y-76414767D01*
X125061119Y-76502939D01*
X125089222Y-76627639D01*
X125173266Y-76834616D01*
X125289987Y-77025088D01*
X125436250Y-77193938D01*
X125608126Y-77336632D01*
X125647219Y-77359476D01*
X125681955Y-77379774D01*
X125730679Y-77431412D01*
X125743750Y-77501195D01*
X125717019Y-77566967D01*
X125676562Y-77600327D01*
X125668457Y-77604546D01*
X125659738Y-77610036D01*
X125489433Y-77737905D01*
X125481726Y-77744748D01*
X125334590Y-77898717D01*
X125328104Y-77906727D01*
X125208098Y-78082649D01*
X125203000Y-78091623D01*
X125113338Y-78284783D01*
X125109775Y-78294470D01*
X125054389Y-78494183D01*
X125055912Y-78502607D01*
X125068292Y-78506000D01*
X127708344Y-78506000D01*
X127721875Y-78502027D01*
X127723180Y-78492947D01*
X127681214Y-78325875D01*
X127677894Y-78316124D01*
X127592972Y-78120814D01*
X127588105Y-78111739D01*
X127472426Y-77932926D01*
X127466136Y-77924757D01*
X127322806Y-77767240D01*
X127315273Y-77760215D01*
X127148139Y-77628222D01*
X127139556Y-77622520D01*
X127102602Y-77602120D01*
X127052631Y-77551687D01*
X127037859Y-77482245D01*
X127062975Y-77415839D01*
X127090327Y-77389232D01*
X127149585Y-77346964D01*
X127269860Y-77261173D01*
X127428096Y-77103489D01*
X127442468Y-77083489D01*
X127555435Y-76926277D01*
X127558453Y-76922077D01*
X127570631Y-76897438D01*
X127655136Y-76726453D01*
X127655137Y-76726451D01*
X127657430Y-76721811D01*
X127722370Y-76508069D01*
X127751529Y-76286590D01*
X127753156Y-76220000D01*
X127734852Y-75997361D01*
X127680431Y-75780702D01*
X127591354Y-75575840D01*
X127470014Y-75388277D01*
X127319670Y-75223051D01*
X127315619Y-75219852D01*
X127315615Y-75219848D01*
X127148414Y-75087800D01*
X127148410Y-75087798D01*
X127144359Y-75084598D01*
X127103053Y-75061796D01*
X127053084Y-75011364D01*
X127038312Y-74941921D01*
X127063428Y-74875516D01*
X127090780Y-74848909D01*
X127134603Y-74817650D01*
X127269860Y-74721173D01*
X127428096Y-74563489D01*
X127487594Y-74480689D01*
X127555435Y-74386277D01*
X127558453Y-74382077D01*
X127570757Y-74357183D01*
X127655136Y-74186453D01*
X127655137Y-74186451D01*
X127657430Y-74181811D01*
X127722370Y-73968069D01*
X127751529Y-73746590D01*
X127753156Y-73680000D01*
X127734852Y-73457361D01*
X127680431Y-73240702D01*
X127591354Y-73035840D01*
X127470014Y-72848277D01*
X127456046Y-72832926D01*
X127322798Y-72686488D01*
X127291746Y-72622642D01*
X127300141Y-72552143D01*
X127345317Y-72497375D01*
X127371761Y-72483706D01*
X127478297Y-72443767D01*
X127486705Y-72440615D01*
X127603261Y-72353261D01*
X127690615Y-72236705D01*
X127741745Y-72100316D01*
X127748500Y-72038134D01*
X127748500Y-70241866D01*
X127741745Y-70179684D01*
X127690615Y-70043295D01*
X127603261Y-69926739D01*
X127486705Y-69839385D01*
X127350316Y-69788255D01*
X127288134Y-69781500D01*
X125491866Y-69781500D01*
X125429684Y-69788255D01*
X125293295Y-69839385D01*
X125176739Y-69926739D01*
X125089385Y-70043295D01*
X125038255Y-70179684D01*
X125031500Y-70241866D01*
X125031500Y-72038134D01*
X125038255Y-72100316D01*
X125089385Y-72236705D01*
X125176739Y-72353261D01*
X125293295Y-72440615D01*
X125301704Y-72443767D01*
X125301705Y-72443768D01*
X125410451Y-72484535D01*
X125467216Y-72527176D01*
X125491916Y-72593738D01*
X125476709Y-72663087D01*
X125457316Y-72689568D01*
X125400884Y-72748621D01*
X125330629Y-72822138D01*
X125204743Y-73006680D01*
X125189003Y-73040590D01*
X125122071Y-73184783D01*
X125110688Y-73209305D01*
X125050989Y-73424570D01*
X125027251Y-73646695D01*
X125027548Y-73651848D01*
X125027548Y-73651851D01*
X125033011Y-73746590D01*
X125040110Y-73869715D01*
X125041247Y-73874761D01*
X125041248Y-73874767D01*
X125054138Y-73931962D01*
X125089222Y-74087639D01*
X125173266Y-74294616D01*
X125175965Y-74299020D01*
X125270816Y-74453803D01*
X125289987Y-74485088D01*
X125436250Y-74653938D01*
X125608126Y-74796632D01*
X125646752Y-74819203D01*
X125681445Y-74839476D01*
X125730169Y-74891114D01*
X125743240Y-74960897D01*
X125716509Y-75026669D01*
X125676055Y-75060027D01*
X125663607Y-75066507D01*
X125659474Y-75069610D01*
X125659471Y-75069612D01*
X125506624Y-75184373D01*
X125484965Y-75200635D01*
X125481393Y-75204373D01*
X125353313Y-75338401D01*
X125330629Y-75362138D01*
X125204743Y-75546680D01*
X125189003Y-75580590D01*
X125119972Y-75729305D01*
X125110688Y-75749305D01*
X125050989Y-75964570D01*
X125027251Y-76186695D01*
X119888000Y-76186695D01*
X119888000Y-69088000D01*
X133452496Y-69088000D01*
X133472458Y-69277928D01*
X133531473Y-69459556D01*
X133626960Y-69624944D01*
X133754747Y-69766866D01*
X133909248Y-69879118D01*
X133915276Y-69881802D01*
X133915278Y-69881803D01*
X134077681Y-69954109D01*
X134083712Y-69956794D01*
X134177112Y-69976647D01*
X134264056Y-69995128D01*
X134264061Y-69995128D01*
X134270513Y-69996500D01*
X134326406Y-69996500D01*
X134394527Y-70016502D01*
X134415501Y-70033405D01*
X135219595Y-70837499D01*
X135253621Y-70899811D01*
X135256500Y-70926594D01*
X135256500Y-82482476D01*
X135236498Y-82550597D01*
X135224142Y-82566779D01*
X135150960Y-82648056D01*
X135055473Y-82813444D01*
X134996458Y-82995072D01*
X134995768Y-83001633D01*
X134995768Y-83001635D01*
X134995070Y-83008277D01*
X134976496Y-83185000D01*
X134977186Y-83191565D01*
X134995374Y-83364610D01*
X134996458Y-83374928D01*
X135055473Y-83556556D01*
X135058776Y-83562278D01*
X135058777Y-83562279D01*
X135087681Y-83612342D01*
X135150960Y-83721944D01*
X135155378Y-83726851D01*
X135155379Y-83726852D01*
X135236230Y-83816646D01*
X135278747Y-83863866D01*
X135433248Y-83976118D01*
X135439276Y-83978802D01*
X135439278Y-83978803D01*
X135553629Y-84029715D01*
X135607712Y-84053794D01*
X135701112Y-84073647D01*
X135788056Y-84092128D01*
X135788061Y-84092128D01*
X135794513Y-84093500D01*
X135985487Y-84093500D01*
X135991939Y-84092128D01*
X135991944Y-84092128D01*
X136078888Y-84073647D01*
X136172288Y-84053794D01*
X136226371Y-84029715D01*
X136340722Y-83978803D01*
X136340724Y-83978802D01*
X136346752Y-83976118D01*
X136501253Y-83863866D01*
X136543770Y-83816646D01*
X136624621Y-83726852D01*
X136624622Y-83726851D01*
X136629040Y-83721944D01*
X136692319Y-83612342D01*
X136721223Y-83562279D01*
X136721224Y-83562278D01*
X136724527Y-83556556D01*
X136783542Y-83374928D01*
X136784627Y-83364610D01*
X136802814Y-83191565D01*
X136803504Y-83185000D01*
X136784930Y-83008277D01*
X136784232Y-83001635D01*
X136784232Y-83001633D01*
X136783542Y-82995072D01*
X136724527Y-82813444D01*
X136629040Y-82648056D01*
X136555863Y-82566785D01*
X136525147Y-82502779D01*
X136523500Y-82482476D01*
X136523500Y-73660000D01*
X136881496Y-73660000D01*
X136901458Y-73849928D01*
X136960473Y-74031556D01*
X137055960Y-74196944D01*
X137060378Y-74201851D01*
X137060379Y-74201852D01*
X137179325Y-74333955D01*
X137183747Y-74338866D01*
X137338248Y-74451118D01*
X137344276Y-74453802D01*
X137344278Y-74453803D01*
X137414546Y-74485088D01*
X137512712Y-74528794D01*
X137597480Y-74546812D01*
X137693056Y-74567128D01*
X137693061Y-74567128D01*
X137699513Y-74568500D01*
X137890487Y-74568500D01*
X137896939Y-74567128D01*
X137896944Y-74567128D01*
X137992520Y-74546812D01*
X138077288Y-74528794D01*
X138175454Y-74485088D01*
X138245722Y-74453803D01*
X138245724Y-74453802D01*
X138251752Y-74451118D01*
X138406253Y-74338866D01*
X138410675Y-74333955D01*
X138529621Y-74201852D01*
X138529622Y-74201851D01*
X138534040Y-74196944D01*
X138629527Y-74031556D01*
X138688542Y-73849928D01*
X138705907Y-73684706D01*
X138732920Y-73619050D01*
X138742122Y-73608782D01*
X140143005Y-72207899D01*
X140205317Y-72173873D01*
X140276132Y-72178938D01*
X140332925Y-72221428D01*
X140416739Y-72333261D01*
X140533295Y-72420615D01*
X140541704Y-72423767D01*
X140541705Y-72423768D01*
X140650960Y-72464726D01*
X140707725Y-72507367D01*
X140732425Y-72573929D01*
X140717218Y-72643278D01*
X140697825Y-72669759D01*
X140574590Y-72798717D01*
X140568104Y-72806727D01*
X140448098Y-72982649D01*
X140443000Y-72991623D01*
X140353338Y-73184783D01*
X140349775Y-73194470D01*
X140294389Y-73394183D01*
X140295912Y-73402607D01*
X140308292Y-73406000D01*
X142948344Y-73406000D01*
X142961875Y-73402027D01*
X142963180Y-73392947D01*
X142921214Y-73225875D01*
X142917894Y-73216124D01*
X142832972Y-73020814D01*
X142828105Y-73011739D01*
X142712426Y-72832926D01*
X142706136Y-72824757D01*
X142562293Y-72666677D01*
X142531241Y-72602831D01*
X142539635Y-72532333D01*
X142584812Y-72477564D01*
X142611256Y-72463895D01*
X142718297Y-72423767D01*
X142726705Y-72420615D01*
X142843261Y-72333261D01*
X142930615Y-72216705D01*
X142981745Y-72080316D01*
X142988500Y-72018134D01*
X142988500Y-70221866D01*
X142981745Y-70159684D01*
X142930615Y-70023295D01*
X142843261Y-69906739D01*
X142726705Y-69819385D01*
X142590316Y-69768255D01*
X142534440Y-69762185D01*
X142531531Y-69761869D01*
X142528134Y-69761500D01*
X140731866Y-69761500D01*
X140728469Y-69761869D01*
X140725560Y-69762185D01*
X140669684Y-69768255D01*
X140533295Y-69819385D01*
X140416739Y-69906739D01*
X140329385Y-70023295D01*
X140278255Y-70159684D01*
X140271500Y-70221866D01*
X140271500Y-70380348D01*
X140251498Y-70448469D01*
X140197842Y-70494962D01*
X140180986Y-70500922D01*
X140176203Y-70501526D01*
X140135086Y-70517806D01*
X140123885Y-70521641D01*
X140081406Y-70533982D01*
X140074587Y-70538015D01*
X140074582Y-70538017D01*
X140063971Y-70544293D01*
X140046221Y-70552990D01*
X140027383Y-70560448D01*
X140020967Y-70565109D01*
X140020966Y-70565110D01*
X139991625Y-70586428D01*
X139981701Y-70592947D01*
X139950460Y-70611422D01*
X139950455Y-70611426D01*
X139943637Y-70615458D01*
X139929313Y-70629782D01*
X139914281Y-70642621D01*
X139897893Y-70654528D01*
X139869712Y-70688593D01*
X139861722Y-70697373D01*
X137844500Y-72714595D01*
X137782188Y-72748621D01*
X137755405Y-72751500D01*
X137699513Y-72751500D01*
X137693061Y-72752872D01*
X137693056Y-72752872D01*
X137606113Y-72771353D01*
X137512712Y-72791206D01*
X137506682Y-72793891D01*
X137506681Y-72793891D01*
X137344278Y-72866197D01*
X137344276Y-72866198D01*
X137338248Y-72868882D01*
X137183747Y-72981134D01*
X137179326Y-72986044D01*
X137179325Y-72986045D01*
X137130213Y-73040590D01*
X137055960Y-73123056D01*
X136960473Y-73288444D01*
X136901458Y-73470072D01*
X136881496Y-73660000D01*
X136523500Y-73660000D01*
X136523500Y-70690763D01*
X136524027Y-70679579D01*
X136525701Y-70672091D01*
X136523562Y-70604032D01*
X136523500Y-70600075D01*
X136523500Y-70572144D01*
X136522994Y-70568138D01*
X136522061Y-70556292D01*
X136521958Y-70552994D01*
X136520673Y-70512110D01*
X136515022Y-70492658D01*
X136511014Y-70473306D01*
X136509468Y-70461068D01*
X136509467Y-70461066D01*
X136508474Y-70453203D01*
X136492194Y-70412086D01*
X136488359Y-70400885D01*
X136476018Y-70358406D01*
X136471985Y-70351587D01*
X136471983Y-70351582D01*
X136465707Y-70340971D01*
X136457010Y-70323221D01*
X136449552Y-70304383D01*
X136423571Y-70268623D01*
X136417053Y-70258701D01*
X136398578Y-70227460D01*
X136398574Y-70227455D01*
X136394542Y-70220637D01*
X136380218Y-70206313D01*
X136367376Y-70191278D01*
X136355472Y-70174893D01*
X136321406Y-70146711D01*
X136312627Y-70138722D01*
X135313122Y-69139217D01*
X135279096Y-69076905D01*
X135276907Y-69063292D01*
X135260232Y-68904635D01*
X135260232Y-68904633D01*
X135259542Y-68898072D01*
X135200527Y-68716444D01*
X135105040Y-68551056D01*
X134977253Y-68409134D01*
X134822752Y-68296882D01*
X134816724Y-68294198D01*
X134816722Y-68294197D01*
X134654319Y-68221891D01*
X134654318Y-68221891D01*
X134648288Y-68219206D01*
X134554888Y-68199353D01*
X134467944Y-68180872D01*
X134467939Y-68180872D01*
X134461487Y-68179500D01*
X134270513Y-68179500D01*
X134264061Y-68180872D01*
X134264056Y-68180872D01*
X134177112Y-68199353D01*
X134083712Y-68219206D01*
X134077682Y-68221891D01*
X134077681Y-68221891D01*
X133915278Y-68294197D01*
X133915276Y-68294198D01*
X133909248Y-68296882D01*
X133754747Y-68409134D01*
X133626960Y-68551056D01*
X133531473Y-68716444D01*
X133472458Y-68898072D01*
X133452496Y-69088000D01*
X119888000Y-69088000D01*
X119888000Y-64896000D01*
X119908002Y-64827879D01*
X119961658Y-64781386D01*
X120014000Y-64770000D01*
X146432000Y-64770000D01*
X146500121Y-64790002D01*
G37*
%TD.AperFunction*%
%TD*%
M02*
