M48
; DRILL file {KiCad 6.0.2-378541a8eb~116~ubuntu20.04.1} date dom 27 feb 2022 19:25:48
; FORMAT={-:-/ absolute / inch / decimal}
; #@! TF.CreationDate,2022-02-27T19:25:48+01:00
; #@! TF.GenerationSoftware,Kicad,Pcbnew,6.0.2-378541a8eb~116~ubuntu20.04.1
; #@! TF.FileFunction,Plated,1,2,PTH
FMAT,2
INCH
; #@! TA.AperFunction,Plated,PTH,ViaDrill
T1C0.0157
; #@! TA.AperFunction,Plated,PTH,ComponentDrill
T2C0.0295
; #@! TA.AperFunction,Plated,PTH,ComponentDrill
T3C0.0394
%
G90
G05
T1
X4.7Y-2.7
X4.7Y-2.85
X4.7Y-3.125
X4.7Y-3.375
X4.7Y-3.625
X4.75Y-3.975
X4.75Y-4.15
X4.75Y-4.275
X4.75Y-4.4
X4.75Y-4.525
X4.75Y-4.625
X4.775Y-3.375
X4.775Y-3.625
X4.85Y-4.525
X4.85Y-4.625
X4.925Y-2.7
X5.0Y-2.7
X5.025Y-3.45
X5.025Y-3.55
X5.05Y-4.25
X5.05Y-4.35
X5.0682Y-3.85
X5.075Y-2.85
X5.075Y-3.025
X5.075Y-3.175
X5.075Y-3.35
X5.175Y-3.35
X5.2Y-4.25
X5.2Y-4.35
X5.2Y-4.45
X5.2Y-4.525
X5.225Y-3.525
X5.225Y-3.6
X5.275Y-3.35
X5.275Y-3.775
X5.325Y-2.7
X5.3432Y-3.85
X5.35Y-3.775
X5.3932Y-3.95
X5.4Y-2.8
X5.4Y-3.3
X5.425Y-2.7
X5.425Y-3.75
X5.425Y-4.175
X5.4682Y-3.375
X5.4682Y-3.675
X5.475Y-3.625
X5.5182Y-3.1
X5.5182Y-4.0785
X5.55Y-2.7
X5.6Y-4.425
X5.675Y-2.7
X5.775Y-2.7
X5.775Y-2.975
X5.775Y-3.1
X5.775Y-3.225
X5.775Y-3.35
X5.775Y-3.475
X5.775Y-3.625
X5.775Y-3.775
X5.775Y-3.95
X5.775Y-4.1
T2
X4.7713Y-2.4783
X4.85Y-2.4783
X4.9287Y-2.4783
X5.1713Y-2.4783
X5.25Y-2.4783
X5.3287Y-2.4783
X5.5606Y-4.625
X5.5713Y-2.4783
X5.6394Y-4.625
X5.65Y-2.4783
X5.7287Y-2.4783
T3
X4.9191Y-2.8508
X4.9191Y-2.9508
X4.9191Y-3.0508
X4.9191Y-3.1508
X4.9191Y-3.2508
X4.9191Y-3.3508
X4.9191Y-3.4508
X4.9191Y-3.5508
X4.9191Y-3.6508
X4.9191Y-3.7508
X4.9191Y-3.8508
X4.9191Y-3.9508
X5.6191Y-2.8508
X5.6191Y-2.9508
X5.6191Y-3.0508
X5.6191Y-3.1508
X5.6191Y-3.2508
X5.6191Y-3.3508
X5.6191Y-3.4508
X5.6191Y-3.5508
X5.6191Y-3.6508
X5.6191Y-3.7508
X5.6191Y-3.8508
X5.6191Y-3.9508
T0
M30
