%TF.GenerationSoftware,KiCad,Pcbnew,8.0.6*%
%TF.CreationDate,2024-12-11T07:14:04+01:00*%
%TF.ProjectId,unfancyRemote,756e6661-6e63-4795-9265-6d6f74652e6b,rev?*%
%TF.SameCoordinates,Original*%
%TF.FileFunction,Copper,L1,Top*%
%TF.FilePolarity,Positive*%
%FSLAX46Y46*%
G04 Gerber Fmt 4.6, Leading zero omitted, Abs format (unit mm)*
G04 Created by KiCad (PCBNEW 8.0.6) date 2024-12-11 07:14:04*
%MOMM*%
%LPD*%
G01*
G04 APERTURE LIST*
G04 Aperture macros list*
%AMRoundRect*
0 Rectangle with rounded corners*
0 $1 Rounding radius*
0 $2 $3 $4 $5 $6 $7 $8 $9 X,Y pos of 4 corners*
0 Add a 4 corners polygon primitive as box body*
4,1,4,$2,$3,$4,$5,$6,$7,$8,$9,$2,$3,0*
0 Add four circle primitives for the rounded corners*
1,1,$1+$1,$2,$3*
1,1,$1+$1,$4,$5*
1,1,$1+$1,$6,$7*
1,1,$1+$1,$8,$9*
0 Add four rect primitives between the rounded corners*
20,1,$1+$1,$2,$3,$4,$5,0*
20,1,$1+$1,$4,$5,$6,$7,0*
20,1,$1+$1,$6,$7,$8,$9,0*
20,1,$1+$1,$8,$9,$2,$3,0*%
G04 Aperture macros list end*
%TA.AperFunction,SMDPad,CuDef*%
%ADD10RoundRect,0.135000X-0.135000X-0.185000X0.135000X-0.185000X0.135000X0.185000X-0.135000X0.185000X0*%
%TD*%
%TA.AperFunction,SMDPad,CuDef*%
%ADD11RoundRect,0.135000X0.135000X0.185000X-0.135000X0.185000X-0.135000X-0.185000X0.135000X-0.185000X0*%
%TD*%
%TA.AperFunction,SMDPad,CuDef*%
%ADD12R,0.700000X0.700000*%
%TD*%
%TA.AperFunction,SMDPad,CuDef*%
%ADD13RoundRect,0.150000X-0.150000X0.512500X-0.150000X-0.512500X0.150000X-0.512500X0.150000X0.512500X0*%
%TD*%
%TA.AperFunction,SMDPad,CuDef*%
%ADD14RoundRect,0.140000X0.140000X0.170000X-0.140000X0.170000X-0.140000X-0.170000X0.140000X-0.170000X0*%
%TD*%
%TA.AperFunction,SMDPad,CuDef*%
%ADD15RoundRect,0.250000X-0.450000X-0.425000X0.450000X-0.425000X0.450000X0.425000X-0.450000X0.425000X0*%
%TD*%
%TA.AperFunction,SMDPad,CuDef*%
%ADD16RoundRect,0.062500X0.350000X0.062500X-0.350000X0.062500X-0.350000X-0.062500X0.350000X-0.062500X0*%
%TD*%
%TA.AperFunction,SMDPad,CuDef*%
%ADD17RoundRect,0.062500X0.062500X0.350000X-0.062500X0.350000X-0.062500X-0.350000X0.062500X-0.350000X0*%
%TD*%
%TA.AperFunction,HeatsinkPad*%
%ADD18R,2.500000X2.500000*%
%TD*%
%TA.AperFunction,SMDPad,CuDef*%
%ADD19R,2.100000X1.100000*%
%TD*%
%TA.AperFunction,SMDPad,CuDef*%
%ADD20R,1.200000X0.900000*%
%TD*%
%TA.AperFunction,SMDPad,CuDef*%
%ADD21RoundRect,0.125000X-0.125000X0.687500X-0.125000X-0.687500X0.125000X-0.687500X0.125000X0.687500X0*%
%TD*%
%TA.AperFunction,SMDPad,CuDef*%
%ADD22RoundRect,0.250000X-0.750000X0.250000X-0.750000X-0.250000X0.750000X-0.250000X0.750000X0.250000X0*%
%TD*%
%TA.AperFunction,SMDPad,CuDef*%
%ADD23RoundRect,0.250000X0.450000X0.425000X-0.450000X0.425000X-0.450000X-0.425000X0.450000X-0.425000X0*%
%TD*%
%TA.AperFunction,SMDPad,CuDef*%
%ADD24RoundRect,0.135000X-0.185000X0.135000X-0.185000X-0.135000X0.185000X-0.135000X0.185000X0.135000X0*%
%TD*%
%TA.AperFunction,ComponentPad*%
%ADD25R,1.350000X1.350000*%
%TD*%
%TA.AperFunction,ComponentPad*%
%ADD26O,1.350000X1.350000*%
%TD*%
%TA.AperFunction,SMDPad,CuDef*%
%ADD27RoundRect,0.135000X0.185000X-0.135000X0.185000X0.135000X-0.185000X0.135000X-0.185000X-0.135000X0*%
%TD*%
%TA.AperFunction,SMDPad,CuDef*%
%ADD28RoundRect,0.250000X0.425000X-0.450000X0.425000X0.450000X-0.425000X0.450000X-0.425000X-0.450000X0*%
%TD*%
%TA.AperFunction,SMDPad,CuDef*%
%ADD29RoundRect,0.250000X-0.425000X0.450000X-0.425000X-0.450000X0.425000X-0.450000X0.425000X0.450000X0*%
%TD*%
%TA.AperFunction,SMDPad,CuDef*%
%ADD30RoundRect,0.150000X0.150000X0.200000X-0.150000X0.200000X-0.150000X-0.200000X0.150000X-0.200000X0*%
%TD*%
%TA.AperFunction,SMDPad,CuDef*%
%ADD31RoundRect,0.243750X-0.456250X0.243750X-0.456250X-0.243750X0.456250X-0.243750X0.456250X0.243750X0*%
%TD*%
%TA.AperFunction,SMDPad,CuDef*%
%ADD32RoundRect,0.150000X0.587500X0.150000X-0.587500X0.150000X-0.587500X-0.150000X0.587500X-0.150000X0*%
%TD*%
%TA.AperFunction,SMDPad,CuDef*%
%ADD33RoundRect,0.150000X-0.587500X-0.150000X0.587500X-0.150000X0.587500X0.150000X-0.587500X0.150000X0*%
%TD*%
%TA.AperFunction,SMDPad,CuDef*%
%ADD34RoundRect,0.250000X0.750000X-0.250000X0.750000X0.250000X-0.750000X0.250000X-0.750000X-0.250000X0*%
%TD*%
%TA.AperFunction,SMDPad,CuDef*%
%ADD35RoundRect,0.225000X0.225000X0.250000X-0.225000X0.250000X-0.225000X-0.250000X0.225000X-0.250000X0*%
%TD*%
%TA.AperFunction,SMDPad,CuDef*%
%ADD36RoundRect,0.140000X-0.140000X-0.170000X0.140000X-0.170000X0.140000X0.170000X-0.140000X0.170000X0*%
%TD*%
%TA.AperFunction,SMDPad,CuDef*%
%ADD37R,1.300000X1.550000*%
%TD*%
%TA.AperFunction,ComponentPad*%
%ADD38C,1.905000*%
%TD*%
%TA.AperFunction,ViaPad*%
%ADD39C,0.800000*%
%TD*%
%TA.AperFunction,Conductor*%
%ADD40C,0.200000*%
%TD*%
%TA.AperFunction,Conductor*%
%ADD41C,0.500000*%
%TD*%
%TA.AperFunction,Conductor*%
%ADD42C,0.250000*%
%TD*%
G04 APERTURE END LIST*
D10*
%TO.P,R1,1*%
%TO.N,Net-(R1-Pad1)*%
X129380000Y-90000000D03*
%TO.P,R1,2*%
%TO.N,BSENSE*%
X130400000Y-90000000D03*
%TD*%
D11*
%TO.P,RT2,1*%
%TO.N,GND*%
X136809999Y-71700000D03*
%TO.P,RT2,2*%
%TO.N,Net-(RT1-Pad1)*%
X135790001Y-71700000D03*
%TD*%
D12*
%TO.P,D6,1,DOUT*%
%TO.N,Net-(D10-DIN)*%
X143900000Y-68970000D03*
%TO.P,D6,2,VSS*%
%TO.N,GND*%
X142800000Y-68970000D03*
%TO.P,D6,3,DIN*%
%TO.N,Net-(D5-DOUT)*%
X142800000Y-70800000D03*
%TO.P,D6,4,VDD*%
%TO.N,+5V*%
X143900000Y-70800000D03*
%TD*%
D13*
%TO.P,U5,1,IN*%
%TO.N,+5V*%
X129749999Y-80862500D03*
%TO.P,U5,2,GND*%
%TO.N,GND*%
X128800000Y-80862500D03*
%TO.P,U5,3,EN*%
%TO.N,+5V*%
X127850001Y-80862500D03*
%TO.P,U5,4,BP*%
%TO.N,unconnected-(U5-BP-Pad4)*%
X127850001Y-83137500D03*
%TO.P,U5,5,OUT*%
%TO.N,+3V3*%
X129749999Y-83137500D03*
%TD*%
D14*
%TO.P,C16,1*%
%TO.N,+3V3*%
X130880000Y-86500000D03*
%TO.P,C16,2*%
%TO.N,GND*%
X129920000Y-86500000D03*
%TD*%
D11*
%TO.P,R3,1*%
%TO.N,Net-(R1-Pad1)*%
X130400000Y-88900000D03*
%TO.P,R3,2*%
%TO.N,Net-(D1-A)*%
X129380000Y-88900000D03*
%TD*%
D15*
%TO.P,C11,1*%
%TO.N,VLOAD*%
X135050000Y-85500000D03*
%TO.P,C11,2*%
%TO.N,GND*%
X137750000Y-85500000D03*
%TD*%
D14*
%TO.P,C15,1*%
%TO.N,+3V3*%
X130880000Y-85500000D03*
%TO.P,C15,2*%
%TO.N,GND*%
X129920000Y-85500000D03*
%TD*%
D16*
%TO.P,U2,1,OUT*%
%TO.N,VLOAD*%
X134037500Y-72437500D03*
%TO.P,U2,2,VPCC*%
%TO.N,VIN*%
X134037500Y-71937500D03*
%TO.P,U2,3,SEL*%
X134037499Y-71437500D03*
%TO.P,U2,4,PROG2*%
X134037500Y-70937500D03*
%TO.P,U2,5,THERM*%
%TO.N,Net-(U2-THERM)*%
X134037500Y-70437500D03*
D17*
%TO.P,U2,6,~{PG}*%
%TO.N,Net-(U2-~{PG})*%
X133100000Y-69500000D03*
%TO.P,U2,7,STAT2*%
%TO.N,Net-(U2-STAT2)*%
X132600000Y-69500000D03*
%TO.P,U2,8,STAT1/~{LBO}*%
%TO.N,Net-(U2-STAT1{slash}~{LBO})*%
X132100000Y-69500001D03*
%TO.P,U2,9,~{TE}*%
%TO.N,VIN*%
X131600000Y-69500000D03*
%TO.P,U2,10,V_{SS}*%
%TO.N,GND*%
X131100000Y-69500000D03*
D16*
%TO.P,U2,11,V_{SS}*%
X130162500Y-70437500D03*
%TO.P,U2,12,PROG3*%
%TO.N,Net-(U2-PROG3)*%
X130162500Y-70937500D03*
%TO.P,U2,13,PROG1*%
%TO.N,Net-(U2-PROG1)*%
X130162501Y-71437500D03*
%TO.P,U2,14,V_{BAT}*%
%TO.N,VBAT*%
X130162500Y-71937500D03*
%TO.P,U2,15,V_{BAT}*%
X130162500Y-72437500D03*
D17*
%TO.P,U2,16,V_{BAT_SENSE}*%
X131100000Y-73375000D03*
%TO.P,U2,17,CE*%
%TO.N,VIN*%
X131600000Y-73375000D03*
%TO.P,U2,18,IN*%
X132100000Y-73374999D03*
%TO.P,U2,19,IN*%
X132600000Y-73375000D03*
%TO.P,U2,20,OUT*%
%TO.N,VLOAD*%
X133100000Y-73375000D03*
D18*
%TO.P,U2,21,V_{SS}*%
%TO.N,GND*%
X132100000Y-71437500D03*
%TD*%
D19*
%TO.P,L1,1,1*%
%TO.N,VLOAD*%
X132400000Y-81500000D03*
%TO.P,L1,2,2*%
%TO.N,Net-(D9-A)*%
X132400000Y-82900000D03*
%TD*%
D11*
%TO.P,R2,1*%
%TO.N,5VRAW*%
X130400000Y-87800000D03*
%TO.P,R2,2*%
%TO.N,Net-(Q1-G)*%
X129380000Y-87800000D03*
%TD*%
D20*
%TO.P,D1,1,K*%
%TO.N,Net-(D1-K)*%
X127500000Y-96050000D03*
%TO.P,D1,2,A*%
%TO.N,Net-(D1-A)*%
X127500000Y-92750000D03*
%TD*%
D21*
%TO.P,U4,1,COMP*%
%TO.N,Net-(U4-COMP)*%
X136975000Y-78787500D03*
%TO.P,U4,2,FB*%
%TO.N,Net-(U4-FB)*%
X136325000Y-78787500D03*
%TO.P,U4,3,EN*%
%TO.N,VLOAD*%
X135675000Y-78787500D03*
%TO.P,U4,4,GND*%
%TO.N,GND*%
X135025000Y-78787500D03*
%TO.P,U4,5,SW*%
%TO.N,Net-(D9-A)*%
X135025000Y-83012500D03*
%TO.P,U4,6,VIN*%
%TO.N,VLOAD*%
X135675000Y-83012500D03*
%TO.P,U4,7,FREQ*%
X136325000Y-83012500D03*
%TO.P,U4,8,SS*%
%TO.N,unconnected-(U4-SS-Pad8)*%
X136975000Y-83012500D03*
%TD*%
D22*
%TO.P,J6,1,Pin_1*%
%TO.N,+5V*%
X123000000Y-92400000D03*
%TO.P,J6,2,Pin_2*%
%TO.N,GND*%
X123000000Y-94400000D03*
%TD*%
D10*
%TO.P,R5,1*%
%TO.N,Net-(D1-K)*%
X129390000Y-94200000D03*
%TO.P,R5,2*%
%TO.N,GND*%
X130410000Y-94200000D03*
%TD*%
D23*
%TO.P,C13,1*%
%TO.N,+5V*%
X130750000Y-78800000D03*
%TO.P,C13,2*%
%TO.N,GND*%
X128050000Y-78800000D03*
%TD*%
D24*
%TO.P,R19,1*%
%TO.N,Net-(U4-FB)*%
X138600000Y-80290001D03*
%TO.P,R19,2*%
%TO.N,5VRAW*%
X138600000Y-81309999D03*
%TD*%
D10*
%TO.P,R20,1*%
%TO.N,Net-(C7-Pad1)*%
X138090000Y-77100000D03*
%TO.P,R20,2*%
%TO.N,Net-(U4-COMP)*%
X139110000Y-77100000D03*
%TD*%
D12*
%TO.P,D10,1,DOUT*%
%TO.N,unconnected-(D10-DOUT-Pad1)*%
X143900000Y-65870000D03*
%TO.P,D10,2,VSS*%
%TO.N,GND*%
X142800000Y-65870000D03*
%TO.P,D10,3,DIN*%
%TO.N,Net-(D10-DIN)*%
X142800000Y-67700000D03*
%TO.P,D10,4,VDD*%
%TO.N,+5V*%
X143900000Y-67700000D03*
%TD*%
D25*
%TO.P,J1,1,Pin_1*%
%TO.N,VBAT*%
X131000000Y-75900000D03*
D26*
%TO.P,J1,2,Pin_2*%
%TO.N,GND*%
X133000000Y-75900000D03*
%TD*%
D27*
%TO.P,R7,1*%
%TO.N,Net-(U2-STAT1{slash}~{LBO})*%
X135400000Y-67609999D03*
%TO.P,R7,2*%
%TO.N,Net-(D7-K)*%
X135400000Y-66590001D03*
%TD*%
D28*
%TO.P,C8,1*%
%TO.N,VIN*%
X138430000Y-72724000D03*
%TO.P,C8,2*%
%TO.N,GND*%
X138430000Y-70024000D03*
%TD*%
D12*
%TO.P,D4,1,DOUT*%
%TO.N,Net-(D4-DOUT)*%
X143900000Y-75170000D03*
%TO.P,D4,2,VSS*%
%TO.N,GND*%
X142800000Y-75170000D03*
%TO.P,D4,3,DIN*%
%TO.N,LED*%
X142800000Y-77000000D03*
%TO.P,D4,4,VDD*%
%TO.N,+5V*%
X143900000Y-77000000D03*
%TD*%
D29*
%TO.P,C14,1*%
%TO.N,+3V3*%
X122900000Y-87750000D03*
%TO.P,C14,2*%
%TO.N,GND*%
X122900000Y-90450000D03*
%TD*%
D15*
%TO.P,C10,1*%
%TO.N,VLOAD*%
X135750000Y-75000000D03*
%TO.P,C10,2*%
%TO.N,GND*%
X138450000Y-75000000D03*
%TD*%
D11*
%TO.P,TH1,1*%
%TO.N,GND*%
X136809999Y-70600000D03*
%TO.P,TH1,2*%
%TO.N,Net-(RT1-Pad1)*%
X135790001Y-70600000D03*
%TD*%
D10*
%TO.P,R17,1*%
%TO.N,GND*%
X127590001Y-69200000D03*
%TO.P,R17,2*%
%TO.N,Net-(U2-PROG3)*%
X128609999Y-69200000D03*
%TD*%
D30*
%TO.P,D9,1,K*%
%TO.N,5VRAW*%
X132000000Y-85200000D03*
%TO.P,D9,2,A*%
%TO.N,Net-(D9-A)*%
X133400000Y-85200000D03*
%TD*%
D10*
%TO.P,R16,1*%
%TO.N,GND*%
X127590001Y-70300000D03*
%TO.P,R16,2*%
%TO.N,Net-(U2-PROG1)*%
X128609999Y-70300000D03*
%TD*%
D12*
%TO.P,D5,1,DOUT*%
%TO.N,Net-(D5-DOUT)*%
X143900000Y-72070000D03*
%TO.P,D5,2,VSS*%
%TO.N,GND*%
X142800000Y-72070000D03*
%TO.P,D5,3,DIN*%
%TO.N,Net-(D4-DOUT)*%
X142800000Y-73900000D03*
%TO.P,D5,4,VDD*%
%TO.N,+5V*%
X143900000Y-73900000D03*
%TD*%
D31*
%TO.P,D3,1,K*%
%TO.N,Net-(D3-K)*%
X133600000Y-65562499D03*
%TO.P,D3,2,A*%
%TO.N,VIN*%
X133600000Y-67437501D03*
%TD*%
D24*
%TO.P,R18,1*%
%TO.N,GND*%
X138600000Y-78290001D03*
%TO.P,R18,2*%
%TO.N,Net-(U4-FB)*%
X138600000Y-79309999D03*
%TD*%
D27*
%TO.P,R4,1*%
%TO.N,Net-(U2-~{PG})*%
X137800000Y-67609999D03*
%TO.P,R4,2*%
%TO.N,Net-(D3-K)*%
X137800000Y-66590001D03*
%TD*%
D24*
%TO.P,R11,1*%
%TO.N,MOTOR*%
X138600000Y-82390001D03*
%TO.P,R11,2*%
%TO.N,Net-(Q3-B)*%
X138600000Y-83409999D03*
%TD*%
D32*
%TO.P,Q1,1,G*%
%TO.N,Net-(Q1-G)*%
X127637500Y-87550000D03*
%TO.P,Q1,2,S*%
%TO.N,5VRAW*%
X127637500Y-85650000D03*
%TO.P,Q1,3,D*%
%TO.N,+5V*%
X125762499Y-86600000D03*
%TD*%
D22*
%TO.P,J3,1,Pin_1*%
%TO.N,HALL1{slash}PPM*%
X122900000Y-81800000D03*
%TO.P,J3,2,Pin_2*%
%TO.N,+3V3*%
X122900000Y-83800000D03*
%TO.P,J3,3,Pin_3*%
%TO.N,GND*%
X122900000Y-85726000D03*
%TD*%
D20*
%TO.P,D2,1,K*%
%TO.N,Net-(D2-K)*%
X139500000Y-93450000D03*
%TO.P,D2,2,A*%
%TO.N,ON*%
X139500000Y-90150000D03*
%TD*%
D11*
%TO.P,RT1,1*%
%TO.N,Net-(RT1-Pad1)*%
X136809999Y-69500000D03*
%TO.P,RT1,2*%
%TO.N,Net-(U2-THERM)*%
X135790001Y-69500000D03*
%TD*%
D33*
%TO.P,Q3,1,B*%
%TO.N,Net-(Q3-B)*%
X139962500Y-85650000D03*
%TO.P,Q3,2,E*%
%TO.N,Net-(J8-Pin_1)*%
X139962500Y-87550000D03*
%TO.P,Q3,3,C*%
%TO.N,+5V*%
X141837501Y-86600000D03*
%TD*%
D27*
%TO.P,R13,1*%
%TO.N,VBATSCALED*%
X127600000Y-77210000D03*
%TO.P,R13,2*%
%TO.N,GND*%
X127600000Y-76190000D03*
%TD*%
D22*
%TO.P,J8,1,Pin_1*%
%TO.N,Net-(J8-Pin_1)*%
X142800000Y-89100000D03*
%TO.P,J8,2,Pin_2*%
%TO.N,GND*%
X142800000Y-91100000D03*
%TD*%
D34*
%TO.P,J4,1,Pin_1*%
%TO.N,HALL2*%
X122800000Y-73900000D03*
%TO.P,J4,2,Pin_2*%
%TO.N,+3V3*%
X122800000Y-71900000D03*
%TO.P,J4,3,Pin_3*%
%TO.N,GND*%
X122800000Y-69974000D03*
%TD*%
D32*
%TO.P,Q2,1,B*%
%TO.N,Net-(D1-K)*%
X127737500Y-91050000D03*
%TO.P,Q2,2,E*%
%TO.N,GND*%
X127737500Y-89150000D03*
%TO.P,Q2,3,C*%
%TO.N,Net-(Q1-G)*%
X125862499Y-90100000D03*
%TD*%
D31*
%TO.P,D8,1,K*%
%TO.N,Net-(D8-K)*%
X131426998Y-65562499D03*
%TO.P,D8,2,A*%
%TO.N,VIN*%
X131426998Y-67437501D03*
%TD*%
D28*
%TO.P,C9,1*%
%TO.N,VBAT*%
X128200000Y-74650000D03*
%TO.P,C9,2*%
%TO.N,GND*%
X128200000Y-71950000D03*
%TD*%
D27*
%TO.P,R15,1*%
%TO.N,Net-(U2-STAT2)*%
X136600000Y-67609999D03*
%TO.P,R15,2*%
%TO.N,Net-(D8-K)*%
X136600000Y-66590001D03*
%TD*%
D35*
%TO.P,C7,1*%
%TO.N,Net-(C7-Pad1)*%
X136875000Y-76900000D03*
%TO.P,C7,2*%
%TO.N,GND*%
X135325000Y-76900000D03*
%TD*%
D11*
%TO.P,R14,1*%
%TO.N,BSENSE*%
X130399999Y-92000000D03*
%TO.P,R14,2*%
%TO.N,GND*%
X129380001Y-92000000D03*
%TD*%
D36*
%TO.P,C12,1*%
%TO.N,GND*%
X132320000Y-78200000D03*
%TO.P,C12,2*%
%TO.N,VLOAD*%
X133280000Y-78200000D03*
%TD*%
D10*
%TO.P,R6,1*%
%TO.N,Net-(D1-K)*%
X129380000Y-93100000D03*
%TO.P,R6,2*%
%TO.N,Net-(D2-K)*%
X130400000Y-93100000D03*
%TD*%
D24*
%TO.P,R12,1*%
%TO.N,VBAT*%
X128700000Y-76198001D03*
%TO.P,R12,2*%
%TO.N,VBATSCALED*%
X128700000Y-77217999D03*
%TD*%
D31*
%TO.P,D7,1,K*%
%TO.N,Net-(D7-K)*%
X129300000Y-65562499D03*
%TO.P,D7,2,A*%
%TO.N,VIN*%
X129300000Y-67437501D03*
%TD*%
D37*
%TO.P,SW1,1,1*%
%TO.N,Net-(R1-Pad1)*%
X132550000Y-98180000D03*
X132550000Y-90220000D03*
%TO.P,SW1,2,2*%
%TO.N,5VRAW*%
X137050000Y-98180000D03*
X137050000Y-90220000D03*
%TD*%
D15*
%TO.P,C6,1*%
%TO.N,5VRAW*%
X135050000Y-87800000D03*
%TO.P,C6,2*%
%TO.N,GND*%
X137750000Y-87800000D03*
%TD*%
D38*
%TO.P,U3,0,GPIO0*%
%TO.N,HALL1{slash}PPM*%
X125476000Y-83460000D03*
%TO.P,U3,1,GPIO1*%
%TO.N,HALL2*%
X125476000Y-80920000D03*
%TO.P,U3,2,GPIO2*%
%TO.N,VBATSCALED*%
X125476000Y-78380000D03*
%TO.P,U3,3,GPIO3*%
%TO.N,BSENSE*%
X125476000Y-75840000D03*
%TO.P,U3,3.3,3V3*%
%TO.N,+3V3*%
X125476000Y-70760000D03*
%TO.P,U3,4,GPIO4*%
%TO.N,/SCK*%
X125476000Y-73300000D03*
%TO.P,U3,5,GPIO5*%
%TO.N,/MISO*%
X140716000Y-65680000D03*
%TO.P,U3,5V,5V*%
%TO.N,VIN*%
X125476000Y-65680000D03*
%TO.P,U3,6,GPIO6*%
%TO.N,/MOSI*%
X140716000Y-68220000D03*
%TO.P,U3,7,GPIO7*%
%TO.N,/NSS*%
X140716000Y-70760000D03*
%TO.P,U3,8,GPIO8*%
%TO.N,LED*%
X140716000Y-73300000D03*
%TO.P,U3,9,GPIO9*%
%TO.N,/NRESET*%
X140716000Y-75840000D03*
%TO.P,U3,10,GPIO10*%
%TO.N,/RFBUSY*%
X140716000Y-78380000D03*
%TO.P,U3,20,GPIO20*%
%TO.N,MOTOR*%
X140716000Y-80920000D03*
%TO.P,U3,21,GPIO21*%
%TO.N,ON*%
X140716000Y-83460000D03*
%TO.P,U3,G,GND*%
%TO.N,GND*%
X125476000Y-68220000D03*
%TD*%
D39*
%TO.N,+5V*%
X140900000Y-88800000D03*
X129820208Y-84500000D03*
%TO.N,GND*%
X135500000Y-92000000D03*
X134900000Y-89500000D03*
X122700000Y-66700000D03*
X128900000Y-86200000D03*
X134100000Y-74500000D03*
X127500000Y-65200000D03*
X134700000Y-98200000D03*
X126700000Y-79600000D03*
X131400000Y-72000000D03*
X129400000Y-78800000D03*
X139100000Y-65200000D03*
X132700000Y-70700000D03*
X122900000Y-89100000D03*
X133800000Y-92000000D03*
X121600000Y-84700000D03*
X134200000Y-78800000D03*
X130400000Y-90999999D03*
X122700000Y-68100000D03*
X137000000Y-73574000D03*
X122700000Y-65300000D03*
X122900000Y-97900000D03*
X143500000Y-99800000D03*
X133700000Y-94300000D03*
X143500000Y-97700000D03*
X129800000Y-97900000D03*
X126700000Y-82200000D03*
X131400000Y-70700000D03*
X144200000Y-64700000D03*
X138400000Y-92000000D03*
X136400000Y-87900000D03*
X128200000Y-73300000D03*
X136700000Y-81000000D03*
X141900000Y-72012500D03*
X126600000Y-77100000D03*
X129600000Y-68700000D03*
X131200000Y-74600000D03*
X122900000Y-96000000D03*
X122900000Y-99800000D03*
X126300000Y-89100000D03*
X127100000Y-99800000D03*
X132800000Y-72000000D03*
X142800000Y-64700000D03*
X138400000Y-71400000D03*
X139100000Y-67000000D03*
%TO.N,Net-(D1-K)*%
X128850000Y-95790298D03*
X130700000Y-95200000D03*
X127600000Y-91699998D03*
X127400000Y-94300000D03*
%TO.N,+3V3*%
X130487499Y-82400000D03*
X132200000Y-86902247D03*
X124800000Y-85400000D03*
X122300000Y-80200000D03*
%TO.N,/MOSI*%
X142964097Y-96048250D03*
X142964097Y-94211226D03*
%TO.N,/NRESET*%
X142267153Y-92342042D03*
X141150000Y-99650000D03*
%TO.N,/RFBUSY*%
X138902976Y-96490298D03*
X141303968Y-92073195D03*
%TO.N,/NSS*%
X142725000Y-93231076D03*
X141900000Y-96900000D03*
%TO.N,BSENSE*%
X131200000Y-90000000D03*
%TO.N,5VRAW*%
X137000000Y-92200000D03*
X137050000Y-94450000D03*
%TO.N,Net-(D3-K)*%
X135600000Y-65400000D03*
X137500000Y-65400000D03*
%TO.N,VIN*%
X135800000Y-73600000D03*
X131400000Y-68500000D03*
X133081624Y-74387500D03*
%TD*%
D40*
%TO.N,+5V*%
X144550000Y-70150000D02*
X143900000Y-70800000D01*
D41*
X141837501Y-86600000D02*
X144300000Y-84137501D01*
X127902685Y-84700000D02*
X126600000Y-84700000D01*
D40*
X143930000Y-70800000D02*
X144550000Y-71420000D01*
D41*
X125862499Y-85437501D02*
X125862499Y-86600000D01*
D40*
X144550000Y-74520000D02*
X144550000Y-76350000D01*
D41*
X128300002Y-82075000D02*
X128800000Y-82075000D01*
X128800000Y-82075000D02*
X128800000Y-83802685D01*
D40*
X144550000Y-73250000D02*
X143900000Y-73900000D01*
X143900000Y-67700000D02*
X144550000Y-68350000D01*
D41*
X124674999Y-90725001D02*
X123000000Y-92400000D01*
X129225000Y-82075000D02*
X129749999Y-81550001D01*
X124674999Y-87787500D02*
X124674999Y-90725001D01*
X129200000Y-84500000D02*
X128651343Y-83951343D01*
X127850001Y-81624999D02*
X128300002Y-82075000D01*
X128800000Y-83802685D02*
X127902685Y-84700000D01*
D40*
X143930000Y-73900000D02*
X144550000Y-74520000D01*
X144550000Y-76350000D02*
X143900000Y-77000000D01*
D41*
X126600000Y-84700000D02*
X125862499Y-85437501D01*
X144300000Y-84137501D02*
X144300000Y-77400000D01*
X129820208Y-84500000D02*
X129200000Y-84500000D01*
X129749999Y-81550001D02*
X129749999Y-79900001D01*
X129749999Y-79900001D02*
X130750000Y-78900000D01*
X125862499Y-86600000D02*
X124674999Y-87787500D01*
X140900000Y-88800000D02*
X141837501Y-87862499D01*
X128800000Y-82075000D02*
X129225000Y-82075000D01*
X127850001Y-80962500D02*
X127850001Y-81624999D01*
X144300000Y-77400000D02*
X143900000Y-77000000D01*
X141837501Y-87862499D02*
X141837501Y-86600000D01*
D40*
X144550000Y-68350000D02*
X144550000Y-70150000D01*
X144550000Y-71420000D02*
X144550000Y-73250000D01*
%TO.N,GND*%
X139680000Y-76575303D02*
X138450000Y-75345303D01*
D41*
X127590001Y-70300000D02*
X127590001Y-69200000D01*
X137109999Y-71400000D02*
X138400000Y-71400000D01*
X134100000Y-74800000D02*
X133000000Y-75900000D01*
X121775000Y-86951000D02*
X121775000Y-89325000D01*
X137352082Y-93050000D02*
X138400000Y-92002082D01*
D40*
X135025000Y-77200000D02*
X135325000Y-76900000D01*
X138450000Y-75345303D02*
X138450000Y-75000000D01*
X142150000Y-66520000D02*
X142150000Y-68320000D01*
D41*
X126350000Y-89150000D02*
X126300000Y-89100000D01*
X132320000Y-78200000D02*
X132320000Y-76580000D01*
D40*
X141357500Y-64427500D02*
X142800000Y-65870000D01*
X127600000Y-76190000D02*
X127225000Y-75815000D01*
D41*
X136550000Y-93050000D02*
X137352082Y-93050000D01*
D40*
X139872500Y-64427500D02*
X141357500Y-64427500D01*
D41*
X138400000Y-92002082D02*
X138400000Y-92000000D01*
D40*
X139378244Y-72012500D02*
X138765744Y-71400000D01*
X129400000Y-92000000D02*
X130300000Y-91100000D01*
D41*
X122800000Y-69974000D02*
X122800000Y-68200000D01*
D40*
X127225000Y-73965256D02*
X127890256Y-73300000D01*
X142150000Y-71420000D02*
X142800000Y-72070000D01*
X135025000Y-78787500D02*
X135025000Y-77200000D01*
D41*
X131200000Y-74600000D02*
X131700000Y-74600000D01*
D40*
X139100000Y-65200000D02*
X139872500Y-64427500D01*
D41*
X137750000Y-87800000D02*
X136500000Y-87800000D01*
D40*
X138600000Y-78290001D02*
X138919999Y-78290001D01*
D41*
X136809999Y-71700000D02*
X137109999Y-71400000D01*
D40*
X131100000Y-69500000D02*
X131100000Y-70400000D01*
X127890256Y-73300000D02*
X128200000Y-73300000D01*
X130300000Y-91100000D02*
X130300000Y-91099999D01*
X138919999Y-78290001D02*
X139680000Y-77530000D01*
D41*
X137000000Y-73574000D02*
X137000000Y-73850000D01*
D40*
X142150000Y-74520000D02*
X142800000Y-75170000D01*
D41*
X128050000Y-78800000D02*
X129400000Y-78800000D01*
D40*
X130300000Y-91099999D02*
X130400000Y-90999999D01*
D41*
X133600000Y-94200000D02*
X133700000Y-94300000D01*
D40*
X127225000Y-75815000D02*
X127225000Y-73965256D01*
D41*
X123000000Y-85726000D02*
X121775000Y-86951000D01*
D40*
X134200000Y-78800000D02*
X135012500Y-78800000D01*
X142800000Y-72070000D02*
X142150000Y-72720000D01*
D41*
X127737500Y-89150000D02*
X126350000Y-89150000D01*
D40*
X127510000Y-76190000D02*
X126600000Y-77100000D01*
D41*
X128800000Y-79550000D02*
X128050000Y-78800000D01*
D40*
X139680000Y-77530000D02*
X139680000Y-76575303D01*
X142742500Y-72012500D02*
X141900000Y-72012500D01*
X142150000Y-69620000D02*
X142150000Y-71420000D01*
D41*
X135500000Y-92000000D02*
X136550000Y-93050000D01*
D40*
X138765744Y-71400000D02*
X138400000Y-71400000D01*
D41*
X132320000Y-76580000D02*
X133000000Y-75900000D01*
X136809999Y-70600000D02*
X136809999Y-71700000D01*
X137000000Y-73850000D02*
X138450000Y-75300000D01*
D40*
X142150000Y-68320000D02*
X142800000Y-68970000D01*
X142800000Y-65870000D02*
X142150000Y-66520000D01*
D41*
X137750000Y-85500000D02*
X137750000Y-87800000D01*
X130410000Y-94200000D02*
X133600000Y-94200000D01*
D40*
X142800000Y-64700000D02*
X142800000Y-65870000D01*
D41*
X122800000Y-68200000D02*
X122700000Y-68100000D01*
D40*
X142150000Y-72720000D02*
X142150000Y-74520000D01*
D41*
X121775000Y-89325000D02*
X122900000Y-90450000D01*
X136500000Y-87800000D02*
X136400000Y-87900000D01*
D40*
X130162500Y-70437500D02*
X131137500Y-70437500D01*
D41*
X134100000Y-74500000D02*
X134100000Y-74800000D01*
D40*
X141900000Y-72012500D02*
X139378244Y-72012500D01*
X142800000Y-68970000D02*
X142150000Y-69620000D01*
D41*
X131700000Y-74600000D02*
X133000000Y-75900000D01*
X128800000Y-80862500D02*
X128800000Y-79550000D01*
D40*
%TO.N,Net-(D1-K)*%
X128590298Y-96050000D02*
X127500000Y-96050000D01*
X130390000Y-95200000D02*
X129390000Y-94200000D01*
X130700000Y-95200000D02*
X130390000Y-95200000D01*
X127600000Y-91699998D02*
X127600000Y-91187500D01*
X128850000Y-95790298D02*
X128590298Y-96050000D01*
X127500000Y-94400000D02*
X127400000Y-94300000D01*
X127500000Y-94500000D02*
X127500000Y-94400000D01*
X127500000Y-96050000D02*
X127500000Y-94500000D01*
X129380000Y-93100000D02*
X129380000Y-93990000D01*
%TO.N,+3V3*%
X124800000Y-86100000D02*
X123150000Y-87750000D01*
D41*
X123600000Y-83800000D02*
X122900000Y-83800000D01*
X121450000Y-82350000D02*
X122900000Y-83800000D01*
D40*
X124800000Y-85400000D02*
X124800000Y-86100000D01*
D41*
X124336000Y-71900000D02*
X125476000Y-70760000D01*
D40*
X123150000Y-87750000D02*
X122900000Y-87750000D01*
D41*
X121450000Y-81050000D02*
X121450000Y-82350000D01*
X130680000Y-86500000D02*
X130680000Y-84067501D01*
X130680000Y-84067501D02*
X129749999Y-83137500D01*
X125476000Y-70760000D02*
X124742000Y-70760000D01*
X124800000Y-85000000D02*
X123600000Y-83800000D01*
X131797753Y-86500000D02*
X130680000Y-86500000D01*
X130487499Y-82400000D02*
X129749999Y-83137500D01*
X124800000Y-85400000D02*
X124800000Y-85000000D01*
X122300000Y-80200000D02*
X121450000Y-81050000D01*
X122800000Y-71900000D02*
X124336000Y-71900000D01*
X132200000Y-86902247D02*
X131797753Y-86500000D01*
D42*
%TO.N,/MOSI*%
X142964097Y-94211226D02*
X142964097Y-96048250D01*
D40*
%TO.N,Net-(D1-A)*%
X127950000Y-90450000D02*
X126959448Y-90450000D01*
X126959448Y-90450000D02*
X126700000Y-90709448D01*
X126700000Y-91950000D02*
X127500000Y-92750000D01*
X126700000Y-90709448D02*
X126700000Y-91950000D01*
X129380000Y-89020000D02*
X127950000Y-90450000D01*
%TO.N,Net-(D2-K)*%
X131150000Y-93650000D02*
X130400000Y-92900000D01*
X133360050Y-93650000D02*
X131150000Y-93650000D01*
X133989950Y-93600000D02*
X133410050Y-93600000D01*
X139200000Y-93150000D02*
X138650000Y-93700000D01*
X133410050Y-93600000D02*
X133360050Y-93650000D01*
X134089950Y-93700000D02*
X133989950Y-93600000D01*
X138650000Y-93700000D02*
X134089950Y-93700000D01*
D42*
%TO.N,/NRESET*%
X141789097Y-95714402D02*
X141150000Y-96353499D01*
X142267153Y-92342042D02*
X141789097Y-92820098D01*
X141150000Y-96353499D02*
X141150000Y-99650000D01*
X141789097Y-92820098D02*
X141789097Y-95714402D01*
D40*
%TO.N,/RFBUSY*%
X138990298Y-96490298D02*
X138902976Y-96490298D01*
X141303968Y-92073195D02*
X140725000Y-92652163D01*
X140725000Y-92652163D02*
X140725000Y-94775000D01*
X140725000Y-94775000D02*
X139000000Y-96500000D01*
X139000000Y-96500000D02*
X138990298Y-96490298D01*
D42*
%TO.N,/NSS*%
X142725000Y-93231076D02*
X142239097Y-93716979D01*
X142239097Y-93716979D02*
X142239097Y-96560903D01*
X142239097Y-96560903D02*
X141900000Y-96900000D01*
D40*
%TO.N,HALL2*%
X122800000Y-73900000D02*
X122800000Y-78244000D01*
X122800000Y-78244000D02*
X125476000Y-80920000D01*
%TO.N,Net-(D4-DOUT)*%
X142800000Y-74035000D02*
X143900000Y-75135000D01*
%TO.N,ON*%
X139184448Y-86950000D02*
X138900000Y-87234448D01*
X140100000Y-86950000D02*
X139184448Y-86950000D01*
X138900000Y-89550000D02*
X139500000Y-90150000D01*
X141668500Y-85381500D02*
X140100000Y-86950000D01*
X140716000Y-83460000D02*
X141668500Y-84412500D01*
X141668500Y-84412500D02*
X141668500Y-85381500D01*
X138900000Y-87234448D02*
X138900000Y-89550000D01*
%TO.N,Net-(J8-Pin_1)*%
X140710050Y-89600000D02*
X139962500Y-88852450D01*
X142800000Y-89100000D02*
X142300000Y-89600000D01*
X139962500Y-88852450D02*
X139962500Y-87550000D01*
X142300000Y-89600000D02*
X140710050Y-89600000D01*
%TO.N,BSENSE*%
X131400000Y-91100000D02*
X130500000Y-92000000D01*
X131200000Y-90000000D02*
X131400000Y-90200000D01*
X131400000Y-90200000D02*
X131400000Y-91100000D01*
X131200000Y-90000000D02*
X130400000Y-90000000D01*
D41*
%TO.N,VBATSCALED*%
X127600000Y-77210000D02*
X127600000Y-77378122D01*
X127600000Y-77378122D02*
X126598122Y-78380000D01*
X128700000Y-77217999D02*
X127607999Y-77217999D01*
X126598122Y-78380000D02*
X125476000Y-78380000D01*
D40*
%TO.N,5VRAW*%
X135050000Y-87800000D02*
X136075000Y-86775000D01*
X137050000Y-92150000D02*
X137000000Y-92200000D01*
X137050000Y-90220000D02*
X137050000Y-92150000D01*
X127950000Y-86950000D02*
X128515552Y-86950000D01*
X128715552Y-87150000D02*
X129750000Y-87150000D01*
X132000000Y-85200000D02*
X132900000Y-86100000D01*
X127400000Y-86400000D02*
X127950000Y-86950000D01*
X137980000Y-83520000D02*
X137980000Y-81929999D01*
X127400000Y-85987500D02*
X127400000Y-86400000D01*
X132900000Y-86100000D02*
X132900000Y-87300000D01*
X132400000Y-87800000D02*
X130400000Y-87800000D01*
X135050000Y-88220000D02*
X137050000Y-90220000D01*
X137980000Y-81929999D02*
X138600000Y-81309999D01*
X127737500Y-85650000D02*
X127400000Y-85987500D01*
X137050000Y-98180000D02*
X137050000Y-94450000D01*
X132900000Y-87300000D02*
X132400000Y-87800000D01*
X129750000Y-87150000D02*
X130400000Y-87800000D01*
X136075000Y-86775000D02*
X136075000Y-85425000D01*
X128515552Y-86950000D02*
X128715552Y-87150000D01*
X136075000Y-85425000D02*
X137980000Y-83520000D01*
X134600000Y-87800000D02*
X132000000Y-85200000D01*
%TO.N,Net-(Q1-G)*%
X126450000Y-87550000D02*
X127737500Y-87550000D01*
X125400000Y-89637501D02*
X125400000Y-88600000D01*
X125862499Y-90100000D02*
X125400000Y-89637501D01*
X129130000Y-87550000D02*
X129380000Y-87800000D01*
X125400000Y-88600000D02*
X126450000Y-87550000D01*
X127737500Y-87550000D02*
X129130000Y-87550000D01*
%TO.N,Net-(Q3-B)*%
X139962500Y-85650000D02*
X138600000Y-84287500D01*
X138600000Y-84287500D02*
X138600000Y-83409999D01*
%TO.N,MOTOR*%
X139245999Y-82390001D02*
X138600000Y-82390001D01*
X140716000Y-80920000D02*
X139245999Y-82390001D01*
%TO.N,Net-(R1-Pad1)*%
X128775000Y-90605000D02*
X128775000Y-94675000D01*
X129380000Y-90000000D02*
X128775000Y-90605000D01*
X130400000Y-88980000D02*
X129380000Y-90000000D01*
X128775000Y-94675000D02*
X132280000Y-98180000D01*
X131230000Y-88900000D02*
X132550000Y-90220000D01*
X130400000Y-88900000D02*
X131230000Y-88900000D01*
%TO.N,Net-(D3-K)*%
X137800000Y-65700000D02*
X137500000Y-65400000D01*
X135437501Y-65562499D02*
X135600000Y-65400000D01*
X133600000Y-65562499D02*
X135437501Y-65562499D01*
X137800000Y-66590001D02*
X137800000Y-65700000D01*
%TO.N,Net-(D7-K)*%
X129300000Y-65562499D02*
X130327502Y-66590001D01*
X130327502Y-66590001D02*
X135400000Y-66590001D01*
%TO.N,Net-(D8-K)*%
X132289497Y-64700000D02*
X131426998Y-65562499D01*
X136600000Y-65100000D02*
X136200000Y-64700000D01*
X136200000Y-64700000D02*
X132289497Y-64700000D01*
X136600000Y-66590001D02*
X136600000Y-65100000D01*
%TO.N,HALL1{slash}PPM*%
X123200000Y-81606000D02*
X125054000Y-83460000D01*
%TO.N,Net-(U2-~{PG})*%
X133400000Y-69200000D02*
X135091077Y-69200000D01*
X135091077Y-69200000D02*
X135711078Y-68579999D01*
X136830000Y-68579999D02*
X137800000Y-67609999D01*
X135711078Y-68579999D02*
X136830000Y-68579999D01*
X133100000Y-69500000D02*
X133400000Y-69200000D01*
%TO.N,Net-(U2-STAT1{slash}~{LBO})*%
X132100000Y-68800000D02*
X132586000Y-68314000D01*
X132100000Y-69500001D02*
X132100000Y-68800000D01*
X132586000Y-68314000D02*
X134845705Y-68314000D01*
X134845705Y-68314000D02*
X135400000Y-67759705D01*
%TO.N,Net-(U2-STAT2)*%
X132600000Y-69073114D02*
X132600000Y-69500000D01*
X135545392Y-68179999D02*
X134937891Y-68787500D01*
X136325001Y-68179999D02*
X135545392Y-68179999D01*
X132885614Y-68787500D02*
X132600000Y-69073114D01*
X136600000Y-67905000D02*
X136325001Y-68179999D01*
X136600000Y-67609999D02*
X136600000Y-67905000D01*
X134937891Y-68787500D02*
X132885614Y-68787500D01*
%TO.N,Net-(C7-Pad1)*%
X136680000Y-77100000D02*
X138090000Y-77100000D01*
%TO.N,VLOAD*%
X136325000Y-83850000D02*
X135675000Y-84500000D01*
X133100000Y-73375000D02*
X134125000Y-73375000D01*
X135675000Y-80025000D02*
X135050000Y-80650000D01*
X136325000Y-82125000D02*
X136200000Y-82000000D01*
X135675000Y-82125000D02*
X135675000Y-83012500D01*
X135800000Y-82000000D02*
X135675000Y-82125000D01*
X134037500Y-72437500D02*
X134300000Y-72700000D01*
D41*
X133280000Y-79300000D02*
X134630000Y-80650000D01*
X133280000Y-78200000D02*
X133280000Y-79300000D01*
D40*
X134300000Y-72700000D02*
X134300000Y-73200000D01*
X135675000Y-78787500D02*
X135675000Y-80025000D01*
D41*
X133280000Y-79300000D02*
X132400000Y-80180000D01*
D40*
X136000000Y-82000000D02*
X135800000Y-82000000D01*
X136325000Y-83012500D02*
X136325000Y-83850000D01*
D41*
X134950000Y-74050000D02*
X134950000Y-75450000D01*
X134125000Y-77355000D02*
X133280000Y-78200000D01*
X134630000Y-80650000D02*
X134650000Y-80650000D01*
D40*
X136325000Y-83012500D02*
X136325000Y-82125000D01*
X136200000Y-82000000D02*
X136000000Y-82000000D01*
D41*
X134200000Y-73300000D02*
X134950000Y-74050000D01*
X132400000Y-81475000D02*
X132200000Y-81675000D01*
X134950000Y-75450000D02*
X134125000Y-76275000D01*
X134650000Y-80650000D02*
X136000000Y-82000000D01*
X132400000Y-80180000D02*
X132400000Y-81475000D01*
D40*
X135675000Y-84500000D02*
X135675000Y-85375000D01*
X134200000Y-73300000D02*
X134125000Y-73375000D01*
D41*
X134125000Y-76275000D02*
X134125000Y-77355000D01*
D40*
X135675000Y-83012500D02*
X135675000Y-84500000D01*
X135050000Y-80650000D02*
X134650000Y-80650000D01*
X134300000Y-73200000D02*
X134200000Y-73300000D01*
D41*
%TO.N,VIN*%
X131426998Y-67437501D02*
X133600000Y-67437501D01*
D40*
X132200000Y-74000000D02*
X132500000Y-74000000D01*
X134537500Y-71437500D02*
X134600000Y-71500000D01*
X132500000Y-74000000D02*
X132600000Y-73900000D01*
D41*
X135250886Y-72724000D02*
X135013443Y-72486557D01*
D40*
X131700000Y-74000000D02*
X132000000Y-74000000D01*
D42*
X134600000Y-71200000D02*
X134600000Y-71375000D01*
D41*
X127233501Y-67437501D02*
X127198000Y-67402000D01*
D40*
X131600000Y-68500000D02*
X131400000Y-68500000D01*
D42*
X134037500Y-70937500D02*
X134337500Y-70937500D01*
D41*
X135250886Y-73050886D02*
X135250886Y-72724000D01*
D40*
X131600000Y-69500000D02*
X131600000Y-68500000D01*
X132000000Y-74000000D02*
X132100000Y-73900000D01*
X132100000Y-73900000D02*
X132200000Y-74000000D01*
X133081624Y-74283510D02*
X132600000Y-73801886D01*
D42*
X134337500Y-70937500D02*
X134600000Y-71200000D01*
D40*
X131600000Y-68500000D02*
X131600000Y-67610503D01*
X134600000Y-71801886D02*
X134464386Y-71937500D01*
X134464386Y-71937500D02*
X134037500Y-71937500D01*
X134600000Y-71500000D02*
X134600000Y-71801886D01*
X135013443Y-72486557D02*
X134464386Y-71937500D01*
X132100000Y-73900000D02*
X132100000Y-73374999D01*
D41*
X129300000Y-67437501D02*
X131426998Y-67437501D01*
D40*
X133081624Y-74387500D02*
X133081624Y-74283510D01*
D41*
X138430000Y-72724000D02*
X135250886Y-72724000D01*
D40*
X132600000Y-73801886D02*
X132600000Y-73375000D01*
X134037499Y-71437500D02*
X134537500Y-71437500D01*
X131600000Y-73375000D02*
X131600000Y-73900000D01*
X132600000Y-73900000D02*
X132600000Y-73375000D01*
D41*
X135800000Y-73600000D02*
X135250886Y-73050886D01*
D42*
X134600000Y-71375000D02*
X134537500Y-71437500D01*
D40*
X131600000Y-73900000D02*
X131700000Y-74000000D01*
D41*
X125476000Y-65680000D02*
X127198000Y-67402000D01*
X129300000Y-67437501D02*
X127233501Y-67437501D01*
D40*
%TO.N,Net-(D9-A)*%
X133400000Y-85200000D02*
X133600000Y-85000000D01*
D41*
X132400000Y-84200000D02*
X133400000Y-85200000D01*
X132400000Y-83325000D02*
X132400000Y-84200000D01*
D40*
X133600000Y-84437500D02*
X135025000Y-83012500D01*
D41*
X132200000Y-83125000D02*
X132400000Y-83325000D01*
D40*
X133600000Y-85000000D02*
X133600000Y-84437500D01*
%TO.N,Net-(U2-PROG1)*%
X128609999Y-70300000D02*
X128609999Y-70619999D01*
X129427500Y-71437500D02*
X130162501Y-71437500D01*
X128609999Y-70619999D02*
X129427500Y-71437500D01*
%TO.N,Net-(U2-PROG3)*%
X129735614Y-70937500D02*
X130162500Y-70937500D01*
X129400000Y-69990001D02*
X129400000Y-70601886D01*
X128609999Y-69200000D02*
X129400000Y-69990001D01*
X129400000Y-70601886D02*
X129735614Y-70937500D01*
%TO.N,Net-(U4-FB)*%
X138600000Y-80290001D02*
X138600000Y-79309999D01*
X136325000Y-78787500D02*
X136325000Y-80025000D01*
X136590001Y-80290001D02*
X138600000Y-80290001D01*
X136325000Y-80025000D02*
X136590001Y-80290001D01*
%TO.N,Net-(U4-COMP)*%
X136975000Y-78025000D02*
X136975000Y-78787500D01*
X138490000Y-77720000D02*
X137280000Y-77720000D01*
X139110000Y-77100000D02*
X138490000Y-77720000D01*
X137280000Y-77720000D02*
X136975000Y-78025000D01*
%TO.N,Net-(U2-THERM)*%
X134792501Y-70437500D02*
X135634001Y-69596000D01*
X134037500Y-70437500D02*
X134792501Y-70437500D01*
%TO.N,Net-(RT1-Pad1)*%
X135637999Y-70612000D02*
X136653999Y-69596000D01*
X135700000Y-70677999D02*
X135700000Y-71562001D01*
D41*
%TO.N,VBAT*%
X130400000Y-73200000D02*
X128950000Y-74650000D01*
X128700000Y-76198001D02*
X130701999Y-76198001D01*
D40*
X130600000Y-73400000D02*
X131075000Y-73400000D01*
X130162500Y-71937500D02*
X130162500Y-72437500D01*
D41*
X130701999Y-76198001D02*
X131000000Y-75900000D01*
X128200000Y-74650000D02*
X128700000Y-75150000D01*
X131000000Y-75900000D02*
X131000000Y-76000000D01*
X128700000Y-75150000D02*
X128700000Y-76198001D01*
D40*
X130400000Y-73200000D02*
X130162500Y-72962500D01*
X130162500Y-72962500D02*
X130162500Y-72437500D01*
D41*
X131000000Y-76000000D02*
X130900000Y-76100000D01*
D40*
X130400000Y-73200000D02*
X130600000Y-73400000D01*
D41*
X128950000Y-74650000D02*
X128200000Y-74650000D01*
D40*
%TO.N,LED*%
X141968500Y-75321197D02*
X141968500Y-76168500D01*
X141400000Y-73984000D02*
X141400000Y-74752697D01*
X141400000Y-74752697D02*
X141968500Y-75321197D01*
X141968500Y-76168500D02*
X142800000Y-77000000D01*
X140716000Y-73300000D02*
X141400000Y-73984000D01*
%TO.N,Net-(D5-DOUT)*%
X142800000Y-70970000D02*
X143250000Y-71420000D01*
X143420000Y-71420000D02*
X143900000Y-71900000D01*
X143250000Y-71420000D02*
X143420000Y-71420000D01*
%TO.N,Net-(D10-DIN)*%
X143250000Y-68320000D02*
X143420000Y-68320000D01*
X143420000Y-68320000D02*
X143900000Y-68800000D01*
X142800000Y-67870000D02*
X143250000Y-68320000D01*
%TD*%
%TA.AperFunction,Conductor*%
%TO.N,GND*%
G36*
X144788188Y-84853455D02*
G01*
X144845024Y-84896002D01*
X144869835Y-84962522D01*
X144870156Y-84971851D01*
X144836775Y-97356440D01*
X144828145Y-100558573D01*
X144827730Y-100712413D01*
X144807544Y-100780479D01*
X144753763Y-100826827D01*
X144701730Y-100838073D01*
X130009512Y-100838073D01*
X130008985Y-100838072D01*
X121304697Y-100801651D01*
X121236660Y-100781364D01*
X121190392Y-100727514D01*
X121179224Y-100675652D01*
X121179224Y-94700589D01*
X121519224Y-94700589D01*
X121529829Y-94804391D01*
X121529830Y-94804394D01*
X121585566Y-94972598D01*
X121678589Y-95123412D01*
X121678594Y-95123418D01*
X121803878Y-95248702D01*
X121803884Y-95248707D01*
X121954698Y-95341730D01*
X122122902Y-95397466D01*
X122122905Y-95397467D01*
X122226707Y-95408072D01*
X122226707Y-95408073D01*
X122773224Y-95408073D01*
X123281224Y-95408073D01*
X123827741Y-95408073D01*
X123827740Y-95408072D01*
X123931542Y-95397467D01*
X123931545Y-95397466D01*
X124099749Y-95341730D01*
X124250563Y-95248707D01*
X124250569Y-95248702D01*
X124375853Y-95123418D01*
X124375858Y-95123412D01*
X124468881Y-94972598D01*
X124524617Y-94804394D01*
X124524618Y-94804391D01*
X124535223Y-94700589D01*
X124535224Y-94700589D01*
X124535224Y-94654073D01*
X123281224Y-94654073D01*
X123281224Y-95408073D01*
X122773224Y-95408073D01*
X122773224Y-94654073D01*
X121519224Y-94654073D01*
X121519224Y-94700589D01*
X121179224Y-94700589D01*
X121179224Y-89949556D01*
X121744224Y-89949556D01*
X121744224Y-90196073D01*
X122673224Y-90196073D01*
X122673224Y-89242073D01*
X122451707Y-89242073D01*
X122347905Y-89252678D01*
X122347902Y-89252679D01*
X122179698Y-89308415D01*
X122028884Y-89401438D01*
X122028878Y-89401443D01*
X121903594Y-89526727D01*
X121903589Y-89526733D01*
X121810566Y-89677547D01*
X121754830Y-89845751D01*
X121754829Y-89845754D01*
X121744224Y-89949556D01*
X121179224Y-89949556D01*
X121179224Y-86150242D01*
X121199226Y-86082121D01*
X121252882Y-86035628D01*
X121323156Y-86025524D01*
X121387736Y-86055018D01*
X121426120Y-86114744D01*
X121428433Y-86123868D01*
X121429830Y-86130395D01*
X121485566Y-86298598D01*
X121578589Y-86449412D01*
X121578594Y-86449418D01*
X121703878Y-86574702D01*
X121703887Y-86574709D01*
X121853492Y-86666986D01*
X121900971Y-86719772D01*
X121912374Y-86789846D01*
X121894587Y-86840373D01*
X121810109Y-86977333D01*
X121754337Y-87145645D01*
X121754336Y-87145652D01*
X121743724Y-87249519D01*
X121743724Y-88250617D01*
X121754336Y-88354498D01*
X121810109Y-88522811D01*
X121903194Y-88673725D01*
X121903199Y-88673731D01*
X122028565Y-88799097D01*
X122028571Y-88799102D01*
X122028572Y-88799103D01*
X122179486Y-88892188D01*
X122347798Y-88947960D01*
X122451679Y-88958573D01*
X123402768Y-88958572D01*
X123506650Y-88947960D01*
X123674962Y-88892188D01*
X123751578Y-88844930D01*
X123820055Y-88826194D01*
X123887794Y-88847453D01*
X123933286Y-88901960D01*
X123943723Y-88952172D01*
X123943723Y-89248561D01*
X123923721Y-89316682D01*
X123870065Y-89363175D01*
X123799791Y-89373279D01*
X123751577Y-89355802D01*
X123674751Y-89308416D01*
X123506545Y-89252679D01*
X123506542Y-89252678D01*
X123402740Y-89242073D01*
X123181224Y-89242073D01*
X123181224Y-90578073D01*
X123161222Y-90646194D01*
X123107566Y-90692687D01*
X123055224Y-90704073D01*
X121744224Y-90704073D01*
X121744224Y-90950589D01*
X121754829Y-91054391D01*
X121754830Y-91054394D01*
X121810566Y-91222598D01*
X121889246Y-91350158D01*
X121907983Y-91418638D01*
X121886724Y-91486377D01*
X121848152Y-91523545D01*
X121833185Y-91532777D01*
X121803571Y-91551043D01*
X121803565Y-91551048D01*
X121678199Y-91676414D01*
X121678194Y-91676420D01*
X121585109Y-91827335D01*
X121529337Y-91995645D01*
X121529336Y-91995652D01*
X121518724Y-92099519D01*
X121518724Y-92700617D01*
X121529336Y-92804498D01*
X121585109Y-92972811D01*
X121678194Y-93123725D01*
X121678199Y-93123731D01*
X121803565Y-93249097D01*
X121803571Y-93249102D01*
X121803572Y-93249103D01*
X121874945Y-93293127D01*
X121922423Y-93345912D01*
X121933826Y-93415987D01*
X121905534Y-93481103D01*
X121874945Y-93507608D01*
X121803884Y-93551438D01*
X121803878Y-93551443D01*
X121678594Y-93676727D01*
X121678589Y-93676733D01*
X121585566Y-93827547D01*
X121529830Y-93995751D01*
X121529829Y-93995754D01*
X121519224Y-94099556D01*
X121519224Y-94146073D01*
X124535224Y-94146073D01*
X124535224Y-94099556D01*
X124524618Y-93995754D01*
X124524617Y-93995751D01*
X124468881Y-93827547D01*
X124375858Y-93676733D01*
X124375853Y-93676727D01*
X124250569Y-93551443D01*
X124250560Y-93551436D01*
X124179503Y-93507608D01*
X124132024Y-93454823D01*
X124120621Y-93384748D01*
X124148913Y-93319632D01*
X124179501Y-93293127D01*
X124250876Y-93249103D01*
X124376254Y-93123725D01*
X124469339Y-92972811D01*
X124525111Y-92804499D01*
X124535724Y-92700618D01*
X124535723Y-92099529D01*
X124529269Y-92036353D01*
X124542245Y-91966555D01*
X124565519Y-91934457D01*
X125291388Y-91208590D01*
X125310369Y-91180183D01*
X125374397Y-91084358D01*
X125407890Y-91003498D01*
X125414992Y-90986351D01*
X125459541Y-90931072D01*
X125526905Y-90908653D01*
X125531399Y-90908573D01*
X125992724Y-90908573D01*
X126060845Y-90928575D01*
X126107338Y-90982231D01*
X126118724Y-91034573D01*
X126118724Y-92030187D01*
X126129382Y-92069961D01*
X126129382Y-92069963D01*
X126129383Y-92069963D01*
X126160191Y-92184943D01*
X126160194Y-92184950D01*
X126240299Y-92323696D01*
X126240300Y-92323697D01*
X126240302Y-92323700D01*
X126381820Y-92465218D01*
X126415844Y-92527528D01*
X126418724Y-92554312D01*
X126418724Y-93248722D01*
X126425233Y-93309269D01*
X126425235Y-93309277D01*
X126476334Y-93446275D01*
X126476336Y-93446280D01*
X126563962Y-93563334D01*
X126641712Y-93621536D01*
X126684258Y-93678371D01*
X126689324Y-93749187D01*
X126675323Y-93785403D01*
X126592698Y-93928514D01*
X126592697Y-93928518D01*
X126533681Y-94110145D01*
X126513720Y-94300073D01*
X126533681Y-94490000D01*
X126553991Y-94552505D01*
X126592697Y-94671629D01*
X126592700Y-94671634D01*
X126683276Y-94828517D01*
X126688184Y-94837017D01*
X126772863Y-94931063D01*
X126803580Y-94995070D01*
X126794816Y-95065523D01*
X126749354Y-95120055D01*
X126723262Y-95133428D01*
X126681017Y-95149185D01*
X126681016Y-95149185D01*
X126563962Y-95236811D01*
X126476336Y-95353865D01*
X126476334Y-95353870D01*
X126425235Y-95490868D01*
X126425233Y-95490876D01*
X126418724Y-95551423D01*
X126418724Y-96548722D01*
X126425233Y-96609269D01*
X126425235Y-96609277D01*
X126476334Y-96746275D01*
X126476336Y-96746280D01*
X126563962Y-96863334D01*
X126681016Y-96950960D01*
X126681018Y-96950961D01*
X126681020Y-96950962D01*
X126740099Y-96972997D01*
X126818019Y-97002061D01*
X126818027Y-97002063D01*
X126878574Y-97008572D01*
X126878579Y-97008572D01*
X126878586Y-97008573D01*
X126878592Y-97008573D01*
X128175856Y-97008573D01*
X128175862Y-97008573D01*
X128175869Y-97008572D01*
X128175873Y-97008572D01*
X128236420Y-97002063D01*
X128236423Y-97002062D01*
X128236425Y-97002062D01*
X128373428Y-96950962D01*
X128396500Y-96933691D01*
X128490485Y-96863334D01*
X128583514Y-96739063D01*
X128584843Y-96740057D01*
X128627689Y-96697200D01*
X128697061Y-96682099D01*
X128714273Y-96684530D01*
X128781737Y-96698871D01*
X128781739Y-96698871D01*
X128972711Y-96698871D01*
X129159512Y-96659165D01*
X129333976Y-96581489D01*
X129488477Y-96469237D01*
X129516831Y-96437747D01*
X129577276Y-96400506D01*
X129648260Y-96401857D01*
X129699563Y-96432961D01*
X131381819Y-98115217D01*
X131415845Y-98177529D01*
X131418724Y-98204312D01*
X131418724Y-99003722D01*
X131425233Y-99064269D01*
X131425235Y-99064277D01*
X131476334Y-99201275D01*
X131476336Y-99201280D01*
X131563962Y-99318334D01*
X131681016Y-99405960D01*
X131681018Y-99405961D01*
X131681020Y-99405962D01*
X131740099Y-99427997D01*
X131818019Y-99457061D01*
X131818027Y-99457063D01*
X131878574Y-99463572D01*
X131878579Y-99463572D01*
X131878586Y-99463573D01*
X131878592Y-99463573D01*
X133275856Y-99463573D01*
X133275862Y-99463573D01*
X133275869Y-99463572D01*
X133275873Y-99463572D01*
X133336420Y-99457063D01*
X133336423Y-99457062D01*
X133336425Y-99457062D01*
X133473428Y-99405962D01*
X133590485Y-99318334D01*
X133678113Y-99201277D01*
X133729213Y-99064274D01*
X133735724Y-99003711D01*
X133735724Y-97356435D01*
X133735684Y-97356061D01*
X133729214Y-97295876D01*
X133729212Y-97295868D01*
X133678113Y-97158870D01*
X133678111Y-97158865D01*
X133590485Y-97041811D01*
X133473431Y-96954185D01*
X133473426Y-96954183D01*
X133336428Y-96903084D01*
X133336420Y-96903082D01*
X133275873Y-96896573D01*
X133275862Y-96896573D01*
X131936463Y-96896573D01*
X131868342Y-96876571D01*
X131847368Y-96859668D01*
X131169510Y-96181810D01*
X131135484Y-96119498D01*
X131140549Y-96048683D01*
X131183096Y-95991847D01*
X131184544Y-95990779D01*
X131269738Y-95928880D01*
X131338477Y-95878939D01*
X131466264Y-95737017D01*
X131561751Y-95571629D01*
X131620766Y-95390001D01*
X131640728Y-95200073D01*
X131620766Y-95010145D01*
X131561751Y-94828517D01*
X131466264Y-94663129D01*
X131466262Y-94663127D01*
X131466258Y-94663121D01*
X131338479Y-94521208D01*
X131338480Y-94521208D01*
X131290720Y-94486509D01*
X131247366Y-94430286D01*
X131241291Y-94359550D01*
X131274423Y-94296759D01*
X131336243Y-94261847D01*
X131364781Y-94258573D01*
X133467383Y-94258573D01*
X133467384Y-94258573D01*
X133467385Y-94258573D01*
X133592887Y-94224945D01*
X133622147Y-94217105D01*
X133622146Y-94217105D01*
X133630127Y-94214967D01*
X133630406Y-94216011D01*
X133667808Y-94208573D01*
X133747160Y-94208573D01*
X133810160Y-94225454D01*
X133882301Y-94267105D01*
X134037063Y-94308573D01*
X136038655Y-94308573D01*
X136106776Y-94328575D01*
X136153269Y-94382231D01*
X136163268Y-94443470D01*
X136163720Y-94443470D01*
X136163720Y-94446241D01*
X136163965Y-94447742D01*
X136163720Y-94450072D01*
X136183681Y-94640000D01*
X136193960Y-94671634D01*
X136242697Y-94821629D01*
X136338184Y-94987017D01*
X136436360Y-95096053D01*
X136467077Y-95160060D01*
X136468724Y-95180363D01*
X136468724Y-96773702D01*
X136448722Y-96841823D01*
X136395066Y-96888316D01*
X136356192Y-96898980D01*
X136318027Y-96903082D01*
X136318019Y-96903084D01*
X136181021Y-96954183D01*
X136181016Y-96954185D01*
X136063962Y-97041811D01*
X135976336Y-97158865D01*
X135976334Y-97158870D01*
X135925235Y-97295868D01*
X135925233Y-97295876D01*
X135918724Y-97356423D01*
X135918724Y-99003722D01*
X135925233Y-99064269D01*
X135925235Y-99064277D01*
X135976334Y-99201275D01*
X135976336Y-99201280D01*
X136063962Y-99318334D01*
X136181016Y-99405960D01*
X136181018Y-99405961D01*
X136181020Y-99405962D01*
X136240099Y-99427997D01*
X136318019Y-99457061D01*
X136318027Y-99457063D01*
X136378574Y-99463572D01*
X136378579Y-99463572D01*
X136378586Y-99463573D01*
X136378592Y-99463573D01*
X137775856Y-99463573D01*
X137775862Y-99463573D01*
X137775869Y-99463572D01*
X137775873Y-99463572D01*
X137836420Y-99457063D01*
X137836423Y-99457062D01*
X137836425Y-99457062D01*
X137973428Y-99405962D01*
X138090485Y-99318334D01*
X138178113Y-99201277D01*
X138229213Y-99064274D01*
X138235724Y-99003711D01*
X138235724Y-97356435D01*
X138235724Y-97356061D01*
X138255726Y-97287940D01*
X138309382Y-97241447D01*
X138379656Y-97231343D01*
X138435784Y-97254124D01*
X138473448Y-97281489D01*
X138647912Y-97359165D01*
X138834713Y-97398871D01*
X139025687Y-97398871D01*
X139212488Y-97359165D01*
X139386952Y-97281489D01*
X139541453Y-97169237D01*
X139541455Y-97169235D01*
X139669234Y-97027322D01*
X139669235Y-97027320D01*
X139669240Y-97027315D01*
X139764727Y-96861927D01*
X139823742Y-96680299D01*
X139832724Y-96594829D01*
X139859736Y-96529174D01*
X139868930Y-96518914D01*
X140366946Y-96020899D01*
X140429255Y-95986875D01*
X140500070Y-95991940D01*
X140556906Y-96034487D01*
X140581717Y-96101007D01*
X140572449Y-96158208D01*
X140568071Y-96168778D01*
X140543724Y-96291175D01*
X140543724Y-98947547D01*
X140523722Y-99015668D01*
X140511361Y-99031857D01*
X140438181Y-99113132D01*
X140342700Y-99278511D01*
X140342697Y-99278518D01*
X140283681Y-99460145D01*
X140263720Y-99650073D01*
X140283681Y-99840000D01*
X140313750Y-99932543D01*
X140342697Y-100021629D01*
X140342700Y-100021634D01*
X140438182Y-100187014D01*
X140438189Y-100187024D01*
X140565968Y-100328937D01*
X140565971Y-100328939D01*
X140720472Y-100441191D01*
X140894936Y-100518867D01*
X141081737Y-100558573D01*
X141272711Y-100558573D01*
X141459512Y-100518867D01*
X141633976Y-100441191D01*
X141788477Y-100328939D01*
X141916264Y-100187017D01*
X142011751Y-100021629D01*
X142070766Y-99840001D01*
X142090728Y-99650073D01*
X142070766Y-99460145D01*
X142011751Y-99278517D01*
X141916264Y-99113129D01*
X141843087Y-99031857D01*
X141812370Y-98967849D01*
X141810724Y-98947547D01*
X141810724Y-97934573D01*
X141830726Y-97866452D01*
X141884382Y-97819959D01*
X141936724Y-97808573D01*
X142022711Y-97808573D01*
X142209512Y-97768867D01*
X142383976Y-97691191D01*
X142538477Y-97578939D01*
X142666264Y-97437017D01*
X142761751Y-97271629D01*
X142820766Y-97090001D01*
X142822905Y-97069652D01*
X142849919Y-97003995D01*
X142908140Y-96963366D01*
X142948215Y-96956823D01*
X143086808Y-96956823D01*
X143273609Y-96917117D01*
X143448073Y-96839441D01*
X143602574Y-96727189D01*
X143644798Y-96680295D01*
X143730355Y-96585274D01*
X143730356Y-96585272D01*
X143730361Y-96585267D01*
X143825848Y-96419879D01*
X143884863Y-96238251D01*
X143904825Y-96048323D01*
X143884863Y-95858395D01*
X143825848Y-95676767D01*
X143753487Y-95551435D01*
X143730363Y-95511382D01*
X143730362Y-95511381D01*
X143730361Y-95511379D01*
X143657184Y-95430107D01*
X143626467Y-95366099D01*
X143624821Y-95345797D01*
X143624821Y-94913823D01*
X143644823Y-94845702D01*
X143657179Y-94829519D01*
X143730361Y-94748243D01*
X143825848Y-94582855D01*
X143884863Y-94401227D01*
X143904825Y-94211299D01*
X143884863Y-94021371D01*
X143825848Y-93839743D01*
X143749008Y-93706652D01*
X143730362Y-93674356D01*
X143730360Y-93674354D01*
X143656402Y-93592214D01*
X143625684Y-93528207D01*
X143630204Y-93468968D01*
X143645766Y-93421077D01*
X143665728Y-93231149D01*
X143645766Y-93041221D01*
X143586751Y-92859593D01*
X143491264Y-92694205D01*
X143491262Y-92694203D01*
X143491258Y-92694197D01*
X143363479Y-92552284D01*
X143257250Y-92475104D01*
X143213896Y-92418882D01*
X143206001Y-92359998D01*
X143207881Y-92342115D01*
X143197910Y-92247243D01*
X143210683Y-92177404D01*
X143259185Y-92125558D01*
X143323220Y-92108073D01*
X143627741Y-92108073D01*
X143627740Y-92108072D01*
X143731542Y-92097467D01*
X143731545Y-92097466D01*
X143899749Y-92041730D01*
X144050563Y-91948707D01*
X144050569Y-91948702D01*
X144175853Y-91823418D01*
X144175858Y-91823412D01*
X144268881Y-91672598D01*
X144324617Y-91504394D01*
X144324618Y-91504391D01*
X144335223Y-91400589D01*
X144335224Y-91400589D01*
X144335224Y-91354073D01*
X141927877Y-91354073D01*
X141859756Y-91334071D01*
X141853816Y-91330009D01*
X141787944Y-91282150D01*
X141613480Y-91204474D01*
X141426679Y-91164768D01*
X141235705Y-91164768D01*
X141048903Y-91204474D01*
X140874439Y-91282150D01*
X140719936Y-91394403D01*
X140592157Y-91536316D01*
X140592150Y-91536326D01*
X140496668Y-91701706D01*
X140496665Y-91701713D01*
X140437649Y-91883340D01*
X140417688Y-92073268D01*
X140417688Y-92074031D01*
X140417563Y-92074455D01*
X140416998Y-92079834D01*
X140416014Y-92079730D01*
X140397686Y-92142152D01*
X140380784Y-92163126D01*
X140265304Y-92278606D01*
X140265299Y-92278612D01*
X140181063Y-92424515D01*
X140178993Y-92423320D01*
X140142121Y-92469074D01*
X140074757Y-92491493D01*
X140070263Y-92491573D01*
X138878574Y-92491573D01*
X138818027Y-92498082D01*
X138818019Y-92498084D01*
X138681021Y-92549183D01*
X138681016Y-92549185D01*
X138563962Y-92636811D01*
X138476336Y-92753865D01*
X138476334Y-92753870D01*
X138425235Y-92890868D01*
X138425233Y-92890876D01*
X138418724Y-92951423D01*
X138418724Y-92965573D01*
X138398722Y-93033694D01*
X138345066Y-93080187D01*
X138292724Y-93091573D01*
X137730022Y-93091573D01*
X137661901Y-93071571D01*
X137615408Y-93017915D01*
X137605304Y-92947641D01*
X137634798Y-92883061D01*
X137636385Y-92881263D01*
X137705508Y-92804493D01*
X137766264Y-92737017D01*
X137861751Y-92571629D01*
X137920766Y-92390001D01*
X137940728Y-92200073D01*
X137920766Y-92010145D01*
X137861751Y-91828517D01*
X137774282Y-91677017D01*
X137757545Y-91608024D01*
X137780765Y-91540932D01*
X137836572Y-91497045D01*
X137839301Y-91495989D01*
X137973428Y-91445962D01*
X138090485Y-91358334D01*
X138093675Y-91354073D01*
X138178111Y-91241280D01*
X138178111Y-91241279D01*
X138178113Y-91241277D01*
X138229213Y-91104274D01*
X138234576Y-91054394D01*
X138235723Y-91043722D01*
X138235724Y-91043705D01*
X138235724Y-90899293D01*
X138255726Y-90831172D01*
X138309382Y-90784679D01*
X138379656Y-90774575D01*
X138444236Y-90804069D01*
X138472314Y-90838913D01*
X138476335Y-90846278D01*
X138563962Y-90963334D01*
X138681016Y-91050960D01*
X138681018Y-91050961D01*
X138681020Y-91050962D01*
X138740099Y-91072997D01*
X138818019Y-91102061D01*
X138818027Y-91102063D01*
X138878574Y-91108572D01*
X138878579Y-91108572D01*
X138878586Y-91108573D01*
X138878592Y-91108573D01*
X140175856Y-91108573D01*
X140175862Y-91108573D01*
X140175869Y-91108572D01*
X140175873Y-91108572D01*
X140236420Y-91102063D01*
X140236423Y-91102062D01*
X140236425Y-91102062D01*
X140373428Y-91050962D01*
X140383100Y-91043722D01*
X140490485Y-90963334D01*
X140578111Y-90846280D01*
X140578112Y-90846278D01*
X140578113Y-90846277D01*
X140629213Y-90709274D01*
X140629773Y-90704073D01*
X140635723Y-90648722D01*
X140635724Y-90648705D01*
X140635724Y-90334573D01*
X140655726Y-90266452D01*
X140709382Y-90219959D01*
X140761724Y-90208573D01*
X141356554Y-90208573D01*
X141424675Y-90228575D01*
X141471168Y-90282231D01*
X141481272Y-90352505D01*
X141463795Y-90400720D01*
X141385566Y-90527547D01*
X141329830Y-90695751D01*
X141329829Y-90695754D01*
X141319224Y-90799556D01*
X141319224Y-90846073D01*
X144335224Y-90846073D01*
X144335224Y-90799556D01*
X144324618Y-90695754D01*
X144324617Y-90695751D01*
X144268881Y-90527547D01*
X144175858Y-90376733D01*
X144175853Y-90376727D01*
X144050569Y-90251443D01*
X144050560Y-90251436D01*
X143979503Y-90207608D01*
X143932024Y-90154823D01*
X143920621Y-90084748D01*
X143948913Y-90019632D01*
X143979501Y-89993127D01*
X144050876Y-89949103D01*
X144176254Y-89823725D01*
X144269339Y-89672811D01*
X144325111Y-89504499D01*
X144335724Y-89400618D01*
X144335723Y-88799529D01*
X144335679Y-88799103D01*
X144325111Y-88695647D01*
X144297926Y-88613607D01*
X144269339Y-88527335D01*
X144176254Y-88376421D01*
X144176253Y-88376420D01*
X144176248Y-88376414D01*
X144050882Y-88251048D01*
X144050876Y-88251043D01*
X144007885Y-88224526D01*
X143899962Y-88157958D01*
X143815806Y-88130072D01*
X143731651Y-88102186D01*
X143731644Y-88102185D01*
X143627777Y-88091573D01*
X143627769Y-88091573D01*
X142746066Y-88091573D01*
X142677945Y-88071571D01*
X142631452Y-88017915D01*
X142621348Y-87947641D01*
X142622486Y-87940996D01*
X142623224Y-87937283D01*
X142623225Y-87937276D01*
X142623225Y-87480724D01*
X142643227Y-87412603D01*
X142696883Y-87366110D01*
X142714069Y-87359728D01*
X142715826Y-87359218D01*
X142859032Y-87274526D01*
X142976678Y-87156880D01*
X143061370Y-87013674D01*
X143107787Y-86853904D01*
X143110724Y-86816584D01*
X143110725Y-86816584D01*
X143110725Y-86478943D01*
X143130727Y-86410822D01*
X143147625Y-86389853D01*
X144655065Y-84882413D01*
X144717373Y-84848391D01*
X144788188Y-84853455D01*
G37*
%TD.AperFunction*%
%TA.AperFunction,Conductor*%
G36*
X133601826Y-87636484D02*
G01*
X133613036Y-87646434D01*
X133831819Y-87865217D01*
X133865845Y-87927529D01*
X133868724Y-87954312D01*
X133868724Y-88275617D01*
X133879336Y-88379498D01*
X133935109Y-88547811D01*
X134028194Y-88698725D01*
X134028199Y-88698731D01*
X134153565Y-88824097D01*
X134153571Y-88824102D01*
X134153572Y-88824103D01*
X134304486Y-88917188D01*
X134472798Y-88972960D01*
X134576679Y-88983573D01*
X134927984Y-88983572D01*
X134996104Y-89003574D01*
X135017079Y-89020477D01*
X135881819Y-89885217D01*
X135915845Y-89947529D01*
X135918724Y-89974312D01*
X135918724Y-91043722D01*
X135925233Y-91104269D01*
X135925235Y-91104277D01*
X135976334Y-91241275D01*
X135976336Y-91241280D01*
X136063962Y-91358334D01*
X136181015Y-91445959D01*
X136181016Y-91445959D01*
X136181020Y-91445962D01*
X136234099Y-91465759D01*
X136290932Y-91508305D01*
X136315743Y-91574826D01*
X136300651Y-91644200D01*
X136292007Y-91657866D01*
X136288184Y-91663127D01*
X136192700Y-91828511D01*
X136192697Y-91828518D01*
X136133681Y-92010145D01*
X136113720Y-92200073D01*
X136133681Y-92390000D01*
X136161334Y-92475104D01*
X136192697Y-92571629D01*
X136192700Y-92571634D01*
X136267173Y-92700626D01*
X136288184Y-92737017D01*
X136308515Y-92759597D01*
X136418063Y-92881263D01*
X136448780Y-92945271D01*
X136440015Y-93015724D01*
X136394552Y-93070255D01*
X136326824Y-93091550D01*
X136324426Y-93091573D01*
X134387188Y-93091573D01*
X134324188Y-93074692D01*
X134318782Y-93071571D01*
X134266215Y-93041221D01*
X134252051Y-93033043D01*
X134252048Y-93033042D01*
X134252047Y-93033041D01*
X134252045Y-93033040D01*
X134252044Y-93033040D01*
X134147231Y-93004956D01*
X134147231Y-93004955D01*
X134097285Y-92991573D01*
X133357163Y-92991573D01*
X133251214Y-93019962D01*
X133251213Y-93019961D01*
X133194426Y-93035178D01*
X133194146Y-93034133D01*
X133156741Y-93041573D01*
X131481463Y-93041573D01*
X131413342Y-93021571D01*
X131392368Y-93004668D01*
X131226361Y-92838661D01*
X131194460Y-92784721D01*
X131157493Y-92657477D01*
X131131904Y-92614209D01*
X131114446Y-92545394D01*
X131131907Y-92485930D01*
X131144158Y-92465216D01*
X131157492Y-92442669D01*
X131202852Y-92286539D01*
X131205723Y-92250062D01*
X131205722Y-92234317D01*
X131225720Y-92166198D01*
X131242622Y-92145222D01*
X131847369Y-91540477D01*
X131909681Y-91506452D01*
X131936464Y-91503573D01*
X133275856Y-91503573D01*
X133275862Y-91503573D01*
X133275869Y-91503572D01*
X133275873Y-91503572D01*
X133336420Y-91497063D01*
X133336423Y-91497062D01*
X133336425Y-91497062D01*
X133473428Y-91445962D01*
X133509929Y-91418638D01*
X133590485Y-91358334D01*
X133678111Y-91241280D01*
X133678111Y-91241279D01*
X133678113Y-91241277D01*
X133729213Y-91104274D01*
X133734576Y-91054394D01*
X133735723Y-91043722D01*
X133735724Y-91043705D01*
X133735724Y-89396440D01*
X133735723Y-89396423D01*
X133729214Y-89335876D01*
X133729212Y-89335868D01*
X133678113Y-89198870D01*
X133678111Y-89198865D01*
X133590485Y-89081811D01*
X133473431Y-88994185D01*
X133473426Y-88994183D01*
X133336428Y-88943084D01*
X133336420Y-88943082D01*
X133275873Y-88936573D01*
X133275862Y-88936573D01*
X132206463Y-88936573D01*
X132138342Y-88916571D01*
X132117372Y-88899672D01*
X131841368Y-88623668D01*
X131807343Y-88561356D01*
X131812408Y-88490540D01*
X131854955Y-88433705D01*
X131921475Y-88408894D01*
X131930464Y-88408573D01*
X132507333Y-88408573D01*
X132507334Y-88408573D01*
X132507335Y-88408573D01*
X132615841Y-88379499D01*
X132662097Y-88367105D01*
X132800851Y-88286995D01*
X133414146Y-87673700D01*
X133414820Y-87672531D01*
X133415646Y-87671744D01*
X133419173Y-87667148D01*
X133419889Y-87667697D01*
X133466202Y-87623537D01*
X133535915Y-87610099D01*
X133601826Y-87636484D01*
G37*
%TD.AperFunction*%
%TA.AperFunction,Conductor*%
G36*
X129981361Y-90748839D02*
G01*
X130034628Y-90780342D01*
X130190758Y-90825702D01*
X130227235Y-90828573D01*
X130533984Y-90828572D01*
X130602104Y-90848574D01*
X130648597Y-90902229D01*
X130658702Y-90972503D01*
X130629209Y-91037084D01*
X130623079Y-91043668D01*
X130532077Y-91134669D01*
X130469765Y-91168694D01*
X130442983Y-91171573D01*
X130227235Y-91171573D01*
X130190758Y-91174443D01*
X130034624Y-91219805D01*
X129980869Y-91251595D01*
X129912053Y-91269053D01*
X129852592Y-91251593D01*
X129799623Y-91220267D01*
X129643611Y-91174940D01*
X129607168Y-91172073D01*
X129536724Y-91172073D01*
X129468603Y-91152071D01*
X129422110Y-91098415D01*
X129410724Y-91046073D01*
X129410724Y-90954572D01*
X129430726Y-90886451D01*
X129484382Y-90839958D01*
X129536724Y-90828572D01*
X129607212Y-90828572D01*
X129643690Y-90825702D01*
X129799820Y-90780342D01*
X129853086Y-90748840D01*
X129921899Y-90731381D01*
X129981361Y-90748839D01*
G37*
%TD.AperFunction*%
%TA.AperFunction,Conductor*%
G36*
X126729974Y-88262037D02*
G01*
X126750061Y-88271627D01*
X126751691Y-88272591D01*
X126800153Y-88324476D01*
X126812871Y-88394324D01*
X126785807Y-88459960D01*
X126775768Y-88469849D01*
X126776331Y-88470412D01*
X126653173Y-88593569D01*
X126653172Y-88593571D01*
X126568542Y-88736671D01*
X126522231Y-88896073D01*
X127892724Y-88896073D01*
X127960845Y-88916075D01*
X128007338Y-88969731D01*
X128018724Y-89022073D01*
X128018724Y-89278073D01*
X127998722Y-89346194D01*
X127945066Y-89392687D01*
X127892724Y-89404073D01*
X126882065Y-89404073D01*
X126817926Y-89386526D01*
X126740824Y-89340928D01*
X126628916Y-89308416D01*
X126581052Y-89294510D01*
X126543734Y-89291573D01*
X126543725Y-89291573D01*
X126161724Y-89291573D01*
X126093603Y-89271571D01*
X126047110Y-89217915D01*
X126035724Y-89165573D01*
X126035724Y-88904312D01*
X126055726Y-88836191D01*
X126072624Y-88815221D01*
X126596848Y-88290996D01*
X126659159Y-88256973D01*
X126729974Y-88262037D01*
G37*
%TD.AperFunction*%
%TA.AperFunction,Conductor*%
G36*
X137973345Y-85266075D02*
G01*
X138019838Y-85319731D01*
X138031224Y-85372073D01*
X138031224Y-87928073D01*
X138011222Y-87996194D01*
X137957566Y-88042687D01*
X137905224Y-88054073D01*
X136569224Y-88054073D01*
X136569224Y-88275589D01*
X136579829Y-88379391D01*
X136579830Y-88379394D01*
X136635567Y-88547600D01*
X136665651Y-88596374D01*
X136684388Y-88664853D01*
X136663128Y-88732592D01*
X136608621Y-88778083D01*
X136538172Y-88786884D01*
X136474149Y-88756200D01*
X136469315Y-88751615D01*
X136285785Y-88568085D01*
X136251759Y-88505773D01*
X136255276Y-88439357D01*
X136275111Y-88379499D01*
X136275111Y-88379498D01*
X136275425Y-88376421D01*
X136285724Y-88275618D01*
X136285723Y-87504312D01*
X136305725Y-87436192D01*
X136322628Y-87415218D01*
X136354129Y-87383717D01*
X136416441Y-87349691D01*
X136487256Y-87354756D01*
X136544092Y-87397303D01*
X136568903Y-87463823D01*
X136569224Y-87472812D01*
X136569224Y-87546073D01*
X137523224Y-87546073D01*
X137523224Y-85372073D01*
X137543226Y-85303952D01*
X137596882Y-85257459D01*
X137649224Y-85246073D01*
X137905224Y-85246073D01*
X137973345Y-85266075D01*
G37*
%TD.AperFunction*%
%TA.AperFunction,Conductor*%
G36*
X129053777Y-85238932D02*
G01*
X129152518Y-85258573D01*
X129152519Y-85258573D01*
X129301929Y-85258573D01*
X129304845Y-85258573D01*
X129372966Y-85278575D01*
X129378903Y-85282635D01*
X129390680Y-85291191D01*
X129565144Y-85368867D01*
X129751945Y-85408573D01*
X129822724Y-85408573D01*
X129890845Y-85428575D01*
X129937338Y-85482231D01*
X129948724Y-85534573D01*
X129948724Y-86415573D01*
X129928722Y-86483694D01*
X129875066Y-86530187D01*
X129822724Y-86541573D01*
X129047015Y-86541573D01*
X128978894Y-86521571D01*
X128957924Y-86504672D01*
X128916403Y-86463151D01*
X128916402Y-86463150D01*
X128916399Y-86463148D01*
X128850959Y-86425367D01*
X128807555Y-86400307D01*
X128758564Y-86348927D01*
X128745128Y-86279213D01*
X128771514Y-86213302D01*
X128772948Y-86211686D01*
X128776672Y-86206884D01*
X128776677Y-86206880D01*
X128831166Y-86114744D01*
X128861367Y-86063678D01*
X128861367Y-86063676D01*
X128861369Y-86063674D01*
X128907786Y-85903904D01*
X128910723Y-85866584D01*
X128910724Y-85866584D01*
X128910724Y-85784940D01*
X128919201Y-85756067D01*
X129158839Y-85756067D01*
X129160661Y-85765962D01*
X129160957Y-85765909D01*
X129162114Y-85772243D01*
X129207793Y-85929471D01*
X129211618Y-85935939D01*
X129229074Y-86004756D01*
X129211618Y-86064207D01*
X129207793Y-86070674D01*
X129162114Y-86227899D01*
X129160684Y-86246072D01*
X129160685Y-86246073D01*
X129693224Y-86246073D01*
X129693224Y-85754073D01*
X129160684Y-85754073D01*
X129158839Y-85756067D01*
X128919201Y-85756067D01*
X128922856Y-85743619D01*
X128911495Y-85716464D01*
X128910724Y-85702550D01*
X128910724Y-85433562D01*
X128910723Y-85433561D01*
X128908756Y-85408573D01*
X128907786Y-85396242D01*
X128907785Y-85396238D01*
X128906629Y-85389907D01*
X128908224Y-85389615D01*
X128908395Y-85326686D01*
X128946940Y-85267064D01*
X129011600Y-85237746D01*
X129053777Y-85238932D01*
G37*
%TD.AperFunction*%
%TA.AperFunction,Conductor*%
G36*
X121387736Y-84131426D02*
G01*
X121426120Y-84191152D01*
X121428433Y-84200278D01*
X121429335Y-84204493D01*
X121485109Y-84372811D01*
X121578194Y-84523725D01*
X121578199Y-84523731D01*
X121703565Y-84649097D01*
X121703570Y-84649101D01*
X121703572Y-84649103D01*
X121714960Y-84656127D01*
X121762437Y-84708914D01*
X121773839Y-84778989D01*
X121745545Y-84844104D01*
X121714960Y-84870606D01*
X121703889Y-84877434D01*
X121703878Y-84877443D01*
X121578594Y-85002727D01*
X121578589Y-85002733D01*
X121485566Y-85153547D01*
X121429828Y-85321756D01*
X121428432Y-85328279D01*
X121394614Y-85390703D01*
X121332414Y-85424934D01*
X121261582Y-85420104D01*
X121204606Y-85377745D01*
X121179575Y-85311307D01*
X121179224Y-85301903D01*
X121179224Y-84226650D01*
X121199226Y-84158529D01*
X121252882Y-84112036D01*
X121323156Y-84101932D01*
X121387736Y-84131426D01*
G37*
%TD.AperFunction*%
%TA.AperFunction,Conductor*%
G36*
X127027135Y-81441297D02*
G01*
X127074430Y-81494247D01*
X127081613Y-81513154D01*
X127113722Y-81623672D01*
X127118725Y-81658825D01*
X127118725Y-81699780D01*
X127131738Y-81765199D01*
X127142744Y-81820532D01*
X127147874Y-81846319D01*
X127205051Y-81984356D01*
X127240380Y-82037230D01*
X127261595Y-82104982D01*
X127242812Y-82173449D01*
X127224712Y-82196325D01*
X127202772Y-82218265D01*
X127202769Y-82218269D01*
X127118081Y-82361467D01*
X127071662Y-82521243D01*
X127071662Y-82521244D01*
X127068725Y-82558561D01*
X127068725Y-82791049D01*
X127048723Y-82859170D01*
X126995067Y-82905663D01*
X126924793Y-82915767D01*
X126860213Y-82886273D01*
X126827338Y-82841663D01*
X126792539Y-82762331D01*
X126660110Y-82559632D01*
X126496130Y-82381502D01*
X126496124Y-82381497D01*
X126377930Y-82289503D01*
X126336461Y-82231880D01*
X126332727Y-82160981D01*
X126367917Y-82099319D01*
X126377924Y-82090647D01*
X126496124Y-81998649D01*
X126537206Y-81954023D01*
X126660110Y-81820513D01*
X126722906Y-81724396D01*
X126792539Y-81617815D01*
X126845230Y-81497691D01*
X126890909Y-81443345D01*
X126958722Y-81422321D01*
X127027135Y-81441297D01*
G37*
%TD.AperFunction*%
%TA.AperFunction,Conductor*%
G36*
X136071255Y-80620756D02*
G01*
X136116318Y-80649717D01*
X136243591Y-80776990D01*
X136243596Y-80776994D01*
X136243598Y-80776996D01*
X136243599Y-80776997D01*
X136243601Y-80776998D01*
X136268846Y-80791573D01*
X136382352Y-80857106D01*
X136382358Y-80857107D01*
X136382359Y-80857108D01*
X136435399Y-80871320D01*
X136435400Y-80871320D01*
X136537114Y-80898574D01*
X136537115Y-80898574D01*
X136697335Y-80898574D01*
X137684630Y-80898574D01*
X137752751Y-80918576D01*
X137799244Y-80972232D01*
X137809348Y-81042506D01*
X137805627Y-81059725D01*
X137801595Y-81073600D01*
X137801594Y-81073607D01*
X137798724Y-81110073D01*
X137798724Y-81225831D01*
X137778722Y-81293952D01*
X137761820Y-81314926D01*
X137520304Y-81556442D01*
X137520299Y-81556448D01*
X137459378Y-81661967D01*
X137407995Y-81710961D01*
X137338281Y-81724396D01*
X137315109Y-81719964D01*
X137227113Y-81694399D01*
X137227112Y-81694398D01*
X137227111Y-81694398D01*
X137194269Y-81691814D01*
X137191203Y-81691573D01*
X137191202Y-81691573D01*
X136831463Y-81691573D01*
X136763342Y-81671571D01*
X136742368Y-81654668D01*
X136649596Y-81561896D01*
X136633925Y-81542802D01*
X136616388Y-81516556D01*
X136616385Y-81516552D01*
X135932934Y-80833101D01*
X135898908Y-80770789D01*
X135903973Y-80699974D01*
X135932932Y-80654913D01*
X135938130Y-80649715D01*
X136000440Y-80615691D01*
X136071255Y-80620756D01*
G37*
%TD.AperFunction*%
%TA.AperFunction,Conductor*%
G36*
X126791008Y-79247073D02*
G01*
X126849553Y-79287235D01*
X126877092Y-79352673D01*
X126877239Y-79354040D01*
X126879829Y-79379391D01*
X126879830Y-79379394D01*
X126935566Y-79547598D01*
X127028589Y-79698412D01*
X127028594Y-79698418D01*
X127159074Y-79828898D01*
X127156941Y-79831030D01*
X127190079Y-79877825D01*
X127193271Y-79948749D01*
X127179355Y-79982861D01*
X127118080Y-80086470D01*
X127104658Y-80132671D01*
X127071663Y-80246242D01*
X127071538Y-80247829D01*
X127070175Y-80265137D01*
X127044886Y-80331477D01*
X126987746Y-80373613D01*
X126916896Y-80378169D01*
X126854830Y-80343696D01*
X126829178Y-80305861D01*
X126792539Y-80222331D01*
X126760828Y-80173794D01*
X126660110Y-80019632D01*
X126496130Y-79841502D01*
X126496124Y-79841497D01*
X126377930Y-79749503D01*
X126336461Y-79691880D01*
X126332727Y-79620981D01*
X126367917Y-79559319D01*
X126377924Y-79550647D01*
X126496124Y-79458649D01*
X126659192Y-79281509D01*
X126720043Y-79244940D01*
X126791008Y-79247073D01*
G37*
%TD.AperFunction*%
%TA.AperFunction,Conductor*%
G36*
X133281224Y-77101200D02*
G01*
X133261222Y-77169321D01*
X133244319Y-77190296D01*
X133066954Y-77367660D01*
X133013013Y-77399561D01*
X132907624Y-77430180D01*
X132890867Y-77440090D01*
X132822050Y-77457547D01*
X132762593Y-77440087D01*
X132746624Y-77430643D01*
X132746626Y-77430643D01*
X132601224Y-77388399D01*
X132601224Y-77678693D01*
X132583678Y-77742831D01*
X132567331Y-77770472D01*
X132521617Y-77927820D01*
X132521617Y-77927821D01*
X132518724Y-77964579D01*
X132518724Y-78328073D01*
X132498722Y-78396194D01*
X132445066Y-78442687D01*
X132392724Y-78454073D01*
X132219224Y-78454073D01*
X132151103Y-78434071D01*
X132104610Y-78380415D01*
X132093224Y-78328073D01*
X132093224Y-77388399D01*
X131947822Y-77430643D01*
X131806905Y-77513981D01*
X131806898Y-77513987D01*
X131691136Y-77629749D01*
X131686275Y-77636017D01*
X131684272Y-77634463D01*
X131641459Y-77674416D01*
X131571604Y-77687101D01*
X131545302Y-77681413D01*
X131381650Y-77627186D01*
X131381644Y-77627185D01*
X131277777Y-77616573D01*
X130276679Y-77616573D01*
X130172798Y-77627185D01*
X130004485Y-77682958D01*
X129853571Y-77776043D01*
X129853565Y-77776048D01*
X129728199Y-77901414D01*
X129728194Y-77901420D01*
X129635109Y-78052335D01*
X129579337Y-78220645D01*
X129579336Y-78220652D01*
X129568724Y-78324519D01*
X129568724Y-78983699D01*
X129548722Y-79051820D01*
X129531819Y-79072794D01*
X129500319Y-79104294D01*
X129438007Y-79138320D01*
X129367192Y-79133255D01*
X129310356Y-79090708D01*
X129303512Y-79072360D01*
X129285225Y-79054073D01*
X127949224Y-79054073D01*
X127881103Y-79034071D01*
X127834610Y-78980415D01*
X127823224Y-78928073D01*
X127823224Y-78672073D01*
X127843226Y-78603952D01*
X127896882Y-78557459D01*
X127949224Y-78546073D01*
X129285224Y-78546073D01*
X129285224Y-78324556D01*
X129274618Y-78220754D01*
X129274617Y-78220751D01*
X129218879Y-78052542D01*
X129218473Y-78051671D01*
X129218373Y-78051015D01*
X129216573Y-78045582D01*
X129217501Y-78045274D01*
X129207810Y-77981480D01*
X129236788Y-77916666D01*
X129268521Y-77889969D01*
X129309765Y-77865578D01*
X129424730Y-77750613D01*
X129496389Y-77629444D01*
X129507491Y-77610672D01*
X129507491Y-77610670D01*
X129507493Y-77610668D01*
X129552853Y-77454538D01*
X129555724Y-77418061D01*
X129555723Y-77082573D01*
X129575725Y-77014454D01*
X129629380Y-76967961D01*
X129681723Y-76956574D01*
X129971392Y-76956574D01*
X130039513Y-76976576D01*
X130046891Y-76981698D01*
X130084810Y-77010084D01*
X130106020Y-77025962D01*
X130243019Y-77077061D01*
X130243027Y-77077063D01*
X130303574Y-77083572D01*
X130303579Y-77083572D01*
X130303586Y-77083573D01*
X130303592Y-77083573D01*
X131750856Y-77083573D01*
X131750862Y-77083573D01*
X131750869Y-77083572D01*
X131750873Y-77083572D01*
X131811420Y-77077063D01*
X131811423Y-77077062D01*
X131811425Y-77077062D01*
X131948428Y-77025962D01*
X131968895Y-77010641D01*
X132007547Y-76981706D01*
X132065485Y-76938334D01*
X132122111Y-76862689D01*
X132178946Y-76820144D01*
X132249762Y-76815078D01*
X132307864Y-76845083D01*
X132311250Y-76848170D01*
X132497657Y-76963587D01*
X132702092Y-77042786D01*
X132773224Y-77056082D01*
X132773224Y-76211759D01*
X132781618Y-76220153D01*
X132872830Y-76272814D01*
X132974563Y-76300073D01*
X133079885Y-76300073D01*
X133181618Y-76272814D01*
X133272830Y-76220153D01*
X133281224Y-76211759D01*
X133281224Y-77101200D01*
G37*
%TD.AperFunction*%
%TA.AperFunction,Conductor*%
G36*
X126734214Y-76768768D02*
G01*
X126792759Y-76808930D01*
X126820298Y-76874368D01*
X126816095Y-76923695D01*
X126801595Y-76973604D01*
X126801594Y-76973608D01*
X126798724Y-77010074D01*
X126798724Y-77081823D01*
X126778722Y-77149944D01*
X126761823Y-77170913D01*
X126699585Y-77233152D01*
X126650782Y-77281955D01*
X126588470Y-77315980D01*
X126517654Y-77310914D01*
X126484296Y-77292291D01*
X126408314Y-77233152D01*
X126377930Y-77209503D01*
X126336461Y-77151880D01*
X126332727Y-77080982D01*
X126367917Y-77019320D01*
X126377924Y-77010647D01*
X126496124Y-76918649D01*
X126602398Y-76803204D01*
X126663249Y-76766635D01*
X126734214Y-76768768D01*
G37*
%TD.AperFunction*%
%TA.AperFunction,Conductor*%
G36*
X137329125Y-73502575D02*
G01*
X137368244Y-73542425D01*
X137403466Y-73599528D01*
X137433194Y-73647725D01*
X137433199Y-73647731D01*
X137558565Y-73773097D01*
X137558569Y-73773100D01*
X137558572Y-73773103D01*
X137558574Y-73773104D01*
X137559821Y-73774090D01*
X137560459Y-73774991D01*
X137563761Y-73778293D01*
X137563197Y-73778856D01*
X137600855Y-73832027D01*
X137604052Y-73902952D01*
X137568396Y-73964346D01*
X137559258Y-73971405D01*
X137559640Y-73971888D01*
X137553878Y-73976443D01*
X137428594Y-74101727D01*
X137428589Y-74101733D01*
X137335566Y-74252547D01*
X137279830Y-74420751D01*
X137279829Y-74420754D01*
X137269224Y-74524556D01*
X137269224Y-74746073D01*
X138605224Y-74746073D01*
X138673345Y-74766075D01*
X138719838Y-74819731D01*
X138731224Y-74872073D01*
X138731224Y-75128073D01*
X138711222Y-75196194D01*
X138657566Y-75242687D01*
X138605224Y-75254073D01*
X137269224Y-75254073D01*
X137269224Y-75475589D01*
X137279829Y-75579391D01*
X137279830Y-75579394D01*
X137337875Y-75754564D01*
X137334696Y-75755617D01*
X137343145Y-75811132D01*
X137314184Y-75875953D01*
X137254776Y-75914827D01*
X137205477Y-75919574D01*
X137176104Y-75916573D01*
X137176096Y-75916573D01*
X137037906Y-75916573D01*
X136969785Y-75896571D01*
X136923292Y-75842915D01*
X136913188Y-75772641D01*
X136918301Y-75750940D01*
X136919336Y-75747815D01*
X136919339Y-75747811D01*
X136975111Y-75579499D01*
X136985724Y-75475618D01*
X136985723Y-74524529D01*
X136980439Y-74472808D01*
X136975111Y-74420647D01*
X136972999Y-74414274D01*
X136919339Y-74252335D01*
X136826254Y-74101421D01*
X136826253Y-74101420D01*
X136826248Y-74101414D01*
X136724861Y-74000027D01*
X136690835Y-73937715D01*
X136694124Y-73871994D01*
X136720766Y-73790002D01*
X136741219Y-73595403D01*
X136768232Y-73529746D01*
X136826454Y-73489116D01*
X136866529Y-73482573D01*
X137261004Y-73482573D01*
X137329125Y-73502575D01*
G37*
%TD.AperFunction*%
%TA.AperFunction,Conductor*%
G36*
X126984743Y-71377942D02*
G01*
X127032038Y-71430892D01*
X127044224Y-71484952D01*
X127044224Y-71696073D01*
X128355224Y-71696073D01*
X128423345Y-71716075D01*
X128469838Y-71769731D01*
X128481224Y-71822073D01*
X128481224Y-73158073D01*
X128702741Y-73158073D01*
X128702740Y-73158072D01*
X128806542Y-73147467D01*
X128806545Y-73147466D01*
X128974749Y-73091730D01*
X129125563Y-72998707D01*
X129237311Y-72886959D01*
X129299623Y-72852934D01*
X129370439Y-72857998D01*
X129426367Y-72899347D01*
X129432481Y-72907314D01*
X129440048Y-72913121D01*
X129481914Y-72970460D01*
X129486135Y-73041331D01*
X129452437Y-73102177D01*
X129083767Y-73470847D01*
X129021455Y-73504873D01*
X128955041Y-73501357D01*
X128862966Y-73470847D01*
X128806651Y-73452186D01*
X128806644Y-73452185D01*
X128702777Y-73441573D01*
X127751679Y-73441573D01*
X127647798Y-73452185D01*
X127479485Y-73507958D01*
X127328571Y-73601043D01*
X127328565Y-73601048D01*
X127203199Y-73726414D01*
X127203192Y-73726422D01*
X127123711Y-73855281D01*
X127077302Y-73897021D01*
X127085037Y-73945619D01*
X127079669Y-73969196D01*
X127054338Y-74045642D01*
X127054336Y-74045652D01*
X127043724Y-74149519D01*
X127043724Y-75114055D01*
X127023722Y-75182176D01*
X126970066Y-75228669D01*
X126899792Y-75238773D01*
X126835212Y-75209279D01*
X126802336Y-75164667D01*
X126792539Y-75142331D01*
X126687939Y-74982228D01*
X126660110Y-74939632D01*
X126496130Y-74761502D01*
X126496124Y-74761497D01*
X126377930Y-74669503D01*
X126336461Y-74611880D01*
X126332727Y-74540981D01*
X126367917Y-74479319D01*
X126377924Y-74470647D01*
X126496124Y-74378649D01*
X126509377Y-74364253D01*
X126660110Y-74200513D01*
X126695434Y-74146445D01*
X126792539Y-73997815D01*
X126844678Y-73878948D01*
X126890357Y-73824603D01*
X126896138Y-73822810D01*
X126894327Y-73758204D01*
X126949237Y-73541370D01*
X126969231Y-73300073D01*
X126949237Y-73058776D01*
X126949236Y-73058772D01*
X126949235Y-73058766D01*
X126912352Y-72913121D01*
X126893917Y-72840323D01*
X126896273Y-72777638D01*
X126858626Y-72747218D01*
X126846833Y-72726108D01*
X126792539Y-72602331D01*
X126693402Y-72450589D01*
X127044224Y-72450589D01*
X127054829Y-72554391D01*
X127054830Y-72554395D01*
X127081825Y-72635861D01*
X127084265Y-72706816D01*
X127084018Y-72707230D01*
X127123302Y-72743247D01*
X127203589Y-72873412D01*
X127203594Y-72873418D01*
X127328878Y-72998702D01*
X127328884Y-72998707D01*
X127479698Y-73091730D01*
X127647902Y-73147466D01*
X127647905Y-73147467D01*
X127751707Y-73158072D01*
X127751707Y-73158073D01*
X127973224Y-73158073D01*
X127973224Y-72204073D01*
X127044224Y-72204073D01*
X127044224Y-72450589D01*
X126693402Y-72450589D01*
X126660110Y-72399632D01*
X126496130Y-72221502D01*
X126494433Y-72220181D01*
X126377930Y-72129503D01*
X126336461Y-72071880D01*
X126332727Y-72000981D01*
X126367917Y-71939319D01*
X126377924Y-71930647D01*
X126496124Y-71838649D01*
X126497046Y-71837648D01*
X126660110Y-71660513D01*
X126681986Y-71627029D01*
X126792539Y-71457815D01*
X126802837Y-71434337D01*
X126848517Y-71379990D01*
X126916329Y-71358966D01*
X126984743Y-71377942D01*
G37*
%TD.AperFunction*%
%TA.AperFunction,Conductor*%
G36*
X134148318Y-74594153D02*
G01*
X134200624Y-74642159D01*
X134218724Y-74707225D01*
X134218724Y-75083700D01*
X134198722Y-75151821D01*
X134181818Y-75172797D01*
X134158070Y-75196544D01*
X134095757Y-75230568D01*
X134024941Y-75225502D01*
X133968426Y-75183379D01*
X133905218Y-75099677D01*
X133876330Y-75073343D01*
X133839463Y-75012669D01*
X133841251Y-74941695D01*
X133852091Y-74917236D01*
X133943375Y-74759129D01*
X133972891Y-74668287D01*
X134012965Y-74609683D01*
X134078362Y-74582046D01*
X134148318Y-74594153D01*
G37*
%TD.AperFunction*%
%TA.AperFunction,Conductor*%
G36*
X130661651Y-74142491D02*
G01*
X130694322Y-74160584D01*
X130708486Y-74171452D01*
X130776760Y-74223840D01*
X130915663Y-74281376D01*
X131027299Y-74296073D01*
X131110484Y-74296072D01*
X131178604Y-74316073D01*
X131199574Y-74332972D01*
X131280876Y-74414274D01*
X131353598Y-74486996D01*
X131358309Y-74490611D01*
X131400176Y-74547949D01*
X131404398Y-74618820D01*
X131369634Y-74680723D01*
X131306921Y-74714004D01*
X131281605Y-74716573D01*
X130303586Y-74716573D01*
X130303583Y-74716573D01*
X130303562Y-74716574D01*
X130299937Y-74716964D01*
X130230070Y-74704352D01*
X130178113Y-74655968D01*
X130160562Y-74587175D01*
X130182989Y-74519814D01*
X130197379Y-74502598D01*
X130528526Y-74171450D01*
X130590836Y-74137426D01*
X130661651Y-74142491D01*
G37*
%TD.AperFunction*%
%TA.AperFunction,Conductor*%
G36*
X131415659Y-70406374D02*
G01*
X131415663Y-70406376D01*
X131527299Y-70421073D01*
X131727148Y-70421072D01*
X131838785Y-70406376D01*
X131838795Y-70406371D01*
X131844607Y-70404815D01*
X131909837Y-70404815D01*
X131915655Y-70406373D01*
X131915663Y-70406377D01*
X132027299Y-70421074D01*
X132227148Y-70421073D01*
X132227164Y-70421071D01*
X132240392Y-70419329D01*
X132338785Y-70406377D01*
X132338790Y-70406374D01*
X132344608Y-70404816D01*
X132409838Y-70404815D01*
X132415656Y-70406373D01*
X132415663Y-70406376D01*
X132527299Y-70421073D01*
X132727148Y-70421072D01*
X132838785Y-70406376D01*
X132838793Y-70406372D01*
X132844610Y-70404815D01*
X132909834Y-70404814D01*
X132915661Y-70406375D01*
X132915663Y-70406376D01*
X133027299Y-70421073D01*
X133027302Y-70421072D01*
X133031389Y-70421611D01*
X133031230Y-70422814D01*
X133092959Y-70445416D01*
X133135847Y-70501994D01*
X133142699Y-70533471D01*
X133143186Y-70533407D01*
X133158420Y-70649130D01*
X133159983Y-70654961D01*
X133159983Y-70720181D01*
X133158421Y-70726009D01*
X133143724Y-70837646D01*
X133143724Y-71037496D01*
X133143725Y-71037505D01*
X133158421Y-71149135D01*
X133159982Y-71154960D01*
X133159985Y-71220169D01*
X133158420Y-71226010D01*
X133143723Y-71337646D01*
X133143723Y-71537496D01*
X133143724Y-71537505D01*
X133158420Y-71649135D01*
X133159983Y-71654968D01*
X133159983Y-71720179D01*
X133158421Y-71726006D01*
X133143724Y-71837646D01*
X133143724Y-72037496D01*
X133143725Y-72037505D01*
X133158420Y-72149130D01*
X133159983Y-72154961D01*
X133159983Y-72220181D01*
X133158421Y-72226009D01*
X133143186Y-72341737D01*
X133141990Y-72341579D01*
X133119358Y-72403338D01*
X133062767Y-72446210D01*
X133031326Y-72453049D01*
X133031390Y-72453535D01*
X132915661Y-72468770D01*
X132909833Y-72470332D01*
X132844613Y-72470332D01*
X132838782Y-72468769D01*
X132779094Y-72460911D01*
X132727149Y-72454073D01*
X132727145Y-72454073D01*
X132527300Y-72454073D01*
X132527291Y-72454074D01*
X132415661Y-72468770D01*
X132409824Y-72470334D01*
X132344613Y-72470331D01*
X132338782Y-72468768D01*
X132279094Y-72460910D01*
X132227149Y-72454072D01*
X132227145Y-72454072D01*
X132027300Y-72454072D01*
X132027291Y-72454073D01*
X131915658Y-72468769D01*
X131909823Y-72470333D01*
X131844612Y-72470331D01*
X131838787Y-72468770D01*
X131801573Y-72463871D01*
X131727149Y-72454073D01*
X131727145Y-72454073D01*
X131527300Y-72454073D01*
X131527291Y-72454074D01*
X131415661Y-72468770D01*
X131409833Y-72470332D01*
X131344613Y-72470332D01*
X131338782Y-72468769D01*
X131261459Y-72458590D01*
X131227149Y-72454073D01*
X131227147Y-72454073D01*
X131223060Y-72453535D01*
X131223217Y-72452339D01*
X131161461Y-72429710D01*
X131118587Y-72373121D01*
X131111755Y-72341673D01*
X131111262Y-72341739D01*
X131096027Y-72226014D01*
X131096027Y-72226012D01*
X131096025Y-72226008D01*
X131094465Y-72220184D01*
X131094466Y-72154960D01*
X131096024Y-72149140D01*
X131096027Y-72149134D01*
X131110724Y-72037498D01*
X131110723Y-71837649D01*
X131109462Y-71828073D01*
X131096027Y-71726015D01*
X131096027Y-71726012D01*
X131096024Y-71726006D01*
X131094465Y-71720185D01*
X131094467Y-71654957D01*
X131096025Y-71649139D01*
X131096028Y-71649134D01*
X131110725Y-71537498D01*
X131110724Y-71337649D01*
X131096028Y-71226012D01*
X131096024Y-71226002D01*
X131094466Y-71220187D01*
X131094466Y-71154957D01*
X131096023Y-71149143D01*
X131096027Y-71149134D01*
X131110724Y-71037498D01*
X131110723Y-70837649D01*
X131096027Y-70726012D01*
X131096025Y-70726008D01*
X131094204Y-70719208D01*
X131094205Y-70653987D01*
X131095539Y-70649006D01*
X131110762Y-70533378D01*
X131111838Y-70533519D01*
X131134597Y-70471364D01*
X131191176Y-70428477D01*
X131223084Y-70421535D01*
X131223029Y-70421111D01*
X131338657Y-70405888D01*
X131343638Y-70404554D01*
X131408861Y-70404553D01*
X131415659Y-70406374D01*
G37*
%TD.AperFunction*%
%TA.AperFunction,Conductor*%
G36*
X141901552Y-71767701D02*
G01*
X141951531Y-71798381D01*
X141969223Y-71816073D01*
X142760485Y-71816073D01*
X142828606Y-71836075D01*
X142849575Y-71852973D01*
X142903596Y-71906994D01*
X142985138Y-71954073D01*
X143005724Y-71965958D01*
X143054717Y-72017341D01*
X143068724Y-72075077D01*
X143068724Y-72198073D01*
X143048722Y-72266194D01*
X142995066Y-72312687D01*
X142942724Y-72324073D01*
X141952051Y-72324073D01*
X141927560Y-72337445D01*
X141856745Y-72332378D01*
X141808080Y-72299661D01*
X141736130Y-72221502D01*
X141734433Y-72220181D01*
X141617930Y-72129503D01*
X141576461Y-72071880D01*
X141572727Y-72000981D01*
X141607917Y-71939319D01*
X141617924Y-71930647D01*
X141736124Y-71838649D01*
X141737045Y-71837649D01*
X141769735Y-71802139D01*
X141830587Y-71765568D01*
X141901552Y-71767701D01*
G37*
%TD.AperFunction*%
%TA.AperFunction,Conductor*%
G36*
X137033344Y-70366075D02*
G01*
X137079837Y-70419731D01*
X137091223Y-70472073D01*
X137091223Y-71828073D01*
X137071221Y-71896194D01*
X137017565Y-71942687D01*
X136965223Y-71954073D01*
X136721725Y-71954073D01*
X136653604Y-71934071D01*
X136607111Y-71880415D01*
X136595725Y-71828073D01*
X136595724Y-71450085D01*
X136592854Y-71413607D01*
X136592853Y-71413603D01*
X136588226Y-71397676D01*
X136583223Y-71362523D01*
X136583223Y-70937621D01*
X136588226Y-70902467D01*
X136588308Y-70902186D01*
X136592854Y-70886539D01*
X136595725Y-70850062D01*
X136595724Y-70594308D01*
X136615726Y-70526189D01*
X136632620Y-70505223D01*
X136754868Y-70382975D01*
X136817178Y-70348952D01*
X136843961Y-70346073D01*
X136965223Y-70346073D01*
X137033344Y-70366075D01*
G37*
%TD.AperFunction*%
%TA.AperFunction,Conductor*%
G36*
X144869004Y-63820075D02*
G01*
X144915497Y-63873731D01*
X144926883Y-63926413D01*
X144923567Y-65156735D01*
X144903381Y-65224801D01*
X144849600Y-65271149D01*
X144779299Y-65281064D01*
X144714798Y-65251397D01*
X144696699Y-65231904D01*
X144640485Y-65156811D01*
X144523431Y-65069185D01*
X144523426Y-65069183D01*
X144386428Y-65018084D01*
X144386420Y-65018082D01*
X144325873Y-65011573D01*
X144325862Y-65011573D01*
X143528586Y-65011573D01*
X143528574Y-65011573D01*
X143468028Y-65018082D01*
X143468021Y-65018084D01*
X143420539Y-65035794D01*
X143349723Y-65040858D01*
X143332476Y-65035794D01*
X143286318Y-65018578D01*
X143225821Y-65012073D01*
X143081224Y-65012073D01*
X143081224Y-65372081D01*
X143075669Y-65402877D01*
X143077047Y-65403203D01*
X143075234Y-65410872D01*
X143068724Y-65471423D01*
X143068724Y-65998073D01*
X143048722Y-66066194D01*
X142995066Y-66112687D01*
X142942724Y-66124073D01*
X142699224Y-66124073D01*
X142631103Y-66104071D01*
X142584610Y-66050415D01*
X142573224Y-65998073D01*
X142573224Y-65012073D01*
X142428626Y-65012073D01*
X142368130Y-65018578D01*
X142231259Y-65069628D01*
X142223348Y-65073948D01*
X142221652Y-65070843D01*
X142170987Y-65089698D01*
X142101624Y-65074555D01*
X142051459Y-65024315D01*
X142046704Y-65014625D01*
X142045585Y-65012073D01*
X142032539Y-64982331D01*
X141954661Y-64863129D01*
X141900110Y-64779632D01*
X141736130Y-64601502D01*
X141703108Y-64575800D01*
X141545054Y-64452781D01*
X141545053Y-64452780D01*
X141447349Y-64399905D01*
X141332112Y-64337543D01*
X141332109Y-64337542D01*
X141332108Y-64337541D01*
X141103111Y-64258926D01*
X141103104Y-64258924D01*
X141000894Y-64241868D01*
X140864286Y-64219073D01*
X140622162Y-64219073D01*
X140502645Y-64239016D01*
X140383343Y-64258924D01*
X140383336Y-64258926D01*
X140154339Y-64337541D01*
X140154336Y-64337543D01*
X139941394Y-64452780D01*
X139941393Y-64452781D01*
X139750317Y-64601502D01*
X139586337Y-64779632D01*
X139453908Y-64982331D01*
X139356650Y-65204057D01*
X139356647Y-65204064D01*
X139297213Y-65438763D01*
X139297211Y-65438772D01*
X139277217Y-65680073D01*
X139297211Y-65921373D01*
X139297213Y-65921382D01*
X139356647Y-66156081D01*
X139356650Y-66156088D01*
X139453908Y-66377814D01*
X139586337Y-66580513D01*
X139750318Y-66758644D01*
X139750323Y-66758649D01*
X139868515Y-66850642D01*
X139909986Y-66908267D01*
X139913719Y-66979165D01*
X139878529Y-67040827D01*
X139868515Y-67049504D01*
X139750323Y-67141496D01*
X139750318Y-67141501D01*
X139586337Y-67319632D01*
X139453908Y-67522331D01*
X139356650Y-67744057D01*
X139356647Y-67744064D01*
X139297213Y-67978763D01*
X139297211Y-67978772D01*
X139277217Y-68220073D01*
X139297211Y-68461373D01*
X139297213Y-68461382D01*
X139356647Y-68696081D01*
X139356648Y-68696082D01*
X139364388Y-68713728D01*
X139373434Y-68784146D01*
X139342973Y-68848276D01*
X139282677Y-68885757D01*
X139211688Y-68884690D01*
X139209367Y-68883946D01*
X139036545Y-68826679D01*
X139036542Y-68826678D01*
X138932740Y-68816073D01*
X138711224Y-68816073D01*
X138711224Y-71232073D01*
X138932741Y-71232073D01*
X138932740Y-71232072D01*
X139036542Y-71221467D01*
X139036554Y-71221465D01*
X139201502Y-71166807D01*
X139272457Y-71164366D01*
X139333467Y-71200674D01*
X139356522Y-71235797D01*
X139453908Y-71457814D01*
X139454998Y-71459828D01*
X139455193Y-71460744D01*
X139456002Y-71462587D01*
X139455622Y-71462753D01*
X139469823Y-71529259D01*
X139444756Y-71595684D01*
X139387758Y-71638012D01*
X139316923Y-71642805D01*
X139278035Y-71627030D01*
X139204962Y-71581958D01*
X139120806Y-71554072D01*
X139036651Y-71526186D01*
X139036644Y-71526185D01*
X138932777Y-71515573D01*
X137981679Y-71515573D01*
X137877797Y-71526186D01*
X137780358Y-71558473D01*
X137709403Y-71560913D01*
X137648393Y-71524604D01*
X137616698Y-71461075D01*
X137615114Y-71448751D01*
X137612355Y-71413687D01*
X137612355Y-71413686D01*
X137589135Y-71333764D01*
X137589338Y-71262768D01*
X137627891Y-71203152D01*
X137692556Y-71173843D01*
X137749765Y-71179007D01*
X137877893Y-71221465D01*
X137877905Y-71221467D01*
X137981707Y-71232072D01*
X137981707Y-71232073D01*
X138203224Y-71232073D01*
X138203224Y-68816073D01*
X137981707Y-68816073D01*
X137877905Y-68826678D01*
X137877898Y-68826679D01*
X137774245Y-68861026D01*
X137703290Y-68863466D01*
X137642280Y-68827157D01*
X137610585Y-68763628D01*
X137618268Y-68693048D01*
X137645514Y-68652329D01*
X137872369Y-68425474D01*
X137934681Y-68391450D01*
X137961464Y-68388571D01*
X138077212Y-68388571D01*
X138113690Y-68385701D01*
X138269820Y-68340341D01*
X138269822Y-68340339D01*
X138269824Y-68340339D01*
X138379601Y-68275417D01*
X138409765Y-68257578D01*
X138524730Y-68142613D01*
X138607493Y-68002668D01*
X138652853Y-67846538D01*
X138655724Y-67810061D01*
X138655723Y-67410084D01*
X138652853Y-67373606D01*
X138607493Y-67217476D01*
X138575992Y-67164212D01*
X138558533Y-67095397D01*
X138575993Y-67035933D01*
X138607493Y-66982670D01*
X138652853Y-66826540D01*
X138655724Y-66790063D01*
X138655723Y-66390086D01*
X138652853Y-66353608D01*
X138607493Y-66197478D01*
X138607491Y-66197476D01*
X138607491Y-66197473D01*
X138524731Y-66057534D01*
X138524725Y-66057527D01*
X138472629Y-66005431D01*
X138438603Y-65943119D01*
X138435724Y-65916336D01*
X138435724Y-65619963D01*
X138435724Y-65619962D01*
X138428761Y-65593977D01*
X138425158Y-65548204D01*
X138440728Y-65400073D01*
X138420766Y-65210145D01*
X138361751Y-65028517D01*
X138266264Y-64863129D01*
X138266262Y-64863127D01*
X138266258Y-64863121D01*
X138138479Y-64721208D01*
X137983976Y-64608955D01*
X137809512Y-64531279D01*
X137622711Y-64491573D01*
X137431737Y-64491573D01*
X137244933Y-64531279D01*
X137098504Y-64596473D01*
X137028137Y-64605907D01*
X136963840Y-64575800D01*
X136958176Y-64570476D01*
X136600851Y-64213151D01*
X136600849Y-64213150D01*
X136600847Y-64213148D01*
X136462101Y-64133043D01*
X136462098Y-64133042D01*
X136462097Y-64133041D01*
X136462095Y-64133040D01*
X136462094Y-64133040D01*
X136384715Y-64112307D01*
X136307335Y-64091573D01*
X132236610Y-64091573D01*
X132153676Y-64113795D01*
X132081851Y-64133040D01*
X132081844Y-64133043D01*
X131943097Y-64213148D01*
X131943091Y-64213153D01*
X131626576Y-64529668D01*
X131564264Y-64563693D01*
X131537481Y-64566572D01*
X130947847Y-64566572D01*
X130844822Y-64577097D01*
X130844819Y-64577097D01*
X130844818Y-64577098D01*
X130786348Y-64596473D01*
X130677892Y-64632411D01*
X130528223Y-64724728D01*
X130528217Y-64724733D01*
X130479818Y-64773133D01*
X130417506Y-64807159D01*
X130346691Y-64802094D01*
X130301628Y-64773133D01*
X130253228Y-64724733D01*
X130253222Y-64724728D01*
X130103553Y-64632411D01*
X129936628Y-64577098D01*
X129936625Y-64577097D01*
X129936623Y-64577097D01*
X129833607Y-64566572D01*
X128820849Y-64566572D01*
X128717824Y-64577097D01*
X128717821Y-64577097D01*
X128717820Y-64577098D01*
X128659350Y-64596473D01*
X128550894Y-64632411D01*
X128401225Y-64724728D01*
X128401219Y-64724733D01*
X128276885Y-64849067D01*
X128276880Y-64849073D01*
X128184563Y-64998742D01*
X128129249Y-65165672D01*
X128118724Y-65268688D01*
X128118724Y-65856446D01*
X128129249Y-65959471D01*
X128129250Y-65959476D01*
X128142040Y-65998073D01*
X128184563Y-66126401D01*
X128276880Y-66276070D01*
X128276885Y-66276076D01*
X128401222Y-66400413D01*
X128402264Y-66401237D01*
X128402792Y-66401983D01*
X128406415Y-66405606D01*
X128405796Y-66406224D01*
X128443293Y-66459177D01*
X128446483Y-66530102D01*
X128410822Y-66591493D01*
X128402264Y-66598909D01*
X128401227Y-66599728D01*
X128380007Y-66620948D01*
X128358785Y-66642170D01*
X128296477Y-66676194D01*
X128269692Y-66679074D01*
X127627096Y-66679074D01*
X127558975Y-66659072D01*
X127538001Y-66642169D01*
X126973181Y-66077349D01*
X126939155Y-66015037D01*
X126940133Y-65957319D01*
X126949234Y-65921381D01*
X126949236Y-65921374D01*
X126949236Y-65921373D01*
X126949237Y-65921370D01*
X126969231Y-65680073D01*
X126949237Y-65438776D01*
X126889799Y-65204061D01*
X126792539Y-64982331D01*
X126714661Y-64863129D01*
X126660110Y-64779632D01*
X126496130Y-64601502D01*
X126463108Y-64575800D01*
X126305054Y-64452781D01*
X126305053Y-64452780D01*
X126207349Y-64399905D01*
X126092112Y-64337543D01*
X126092109Y-64337542D01*
X126092108Y-64337541D01*
X125863111Y-64258926D01*
X125863104Y-64258924D01*
X125760894Y-64241868D01*
X125624286Y-64219073D01*
X125382162Y-64219073D01*
X125262645Y-64239016D01*
X125143343Y-64258924D01*
X125143336Y-64258926D01*
X124914339Y-64337541D01*
X124914336Y-64337543D01*
X124701394Y-64452780D01*
X124701393Y-64452781D01*
X124510317Y-64601502D01*
X124346337Y-64779632D01*
X124213908Y-64982331D01*
X124116650Y-65204057D01*
X124116647Y-65204064D01*
X124057213Y-65438763D01*
X124057211Y-65438772D01*
X124037217Y-65680073D01*
X124057211Y-65921373D01*
X124057213Y-65921382D01*
X124116647Y-66156081D01*
X124116650Y-66156088D01*
X124213908Y-66377814D01*
X124346337Y-66580513D01*
X124510317Y-66758643D01*
X124510322Y-66758647D01*
X124510324Y-66758649D01*
X124628923Y-66850958D01*
X124670393Y-66908582D01*
X124674127Y-66979481D01*
X124666290Y-66993211D01*
X124664495Y-67022133D01*
X125271216Y-67628854D01*
X125202439Y-67657344D01*
X125098435Y-67726837D01*
X125009988Y-67815284D01*
X124940495Y-67919288D01*
X124912006Y-67988064D01*
X124306091Y-67382149D01*
X124306090Y-67382150D01*
X124214355Y-67522561D01*
X124214348Y-67522575D01*
X124117125Y-67744220D01*
X124117122Y-67744227D01*
X124057708Y-67978851D01*
X124037719Y-68220073D01*
X124057708Y-68461294D01*
X124117122Y-68695918D01*
X124117125Y-68695925D01*
X124214350Y-68917575D01*
X124250272Y-68972558D01*
X124270785Y-69040527D01*
X124264826Y-69061397D01*
X124294582Y-69056801D01*
X124306091Y-69057994D01*
X124912005Y-68452079D01*
X124940495Y-68520858D01*
X125009988Y-68624862D01*
X125098435Y-68713309D01*
X125202439Y-68782802D01*
X125271215Y-68811290D01*
X124664495Y-69418011D01*
X124665971Y-69441803D01*
X124670393Y-69447946D01*
X124674128Y-69518845D01*
X124638939Y-69580507D01*
X124628923Y-69589187D01*
X124528479Y-69667366D01*
X124462437Y-69693422D01*
X124392791Y-69679637D01*
X124341655Y-69630387D01*
X124325740Y-69580740D01*
X124324617Y-69569748D01*
X124268881Y-69401547D01*
X124174342Y-69248276D01*
X124155605Y-69179797D01*
X124161432Y-69161227D01*
X124127795Y-69166322D01*
X124062994Y-69137315D01*
X124055694Y-69130568D01*
X124050569Y-69125443D01*
X124050563Y-69125438D01*
X123899749Y-69032415D01*
X123731545Y-68976679D01*
X123731542Y-68976678D01*
X123627740Y-68966073D01*
X123081224Y-68966073D01*
X123081224Y-70102073D01*
X123061222Y-70170194D01*
X123007566Y-70216687D01*
X122955224Y-70228073D01*
X122699224Y-70228073D01*
X122631103Y-70208071D01*
X122584610Y-70154415D01*
X122573224Y-70102073D01*
X122573224Y-68966073D01*
X122026707Y-68966073D01*
X121922905Y-68976678D01*
X121922902Y-68976679D01*
X121754698Y-69032415D01*
X121603884Y-69125438D01*
X121603878Y-69125443D01*
X121478594Y-69250727D01*
X121478589Y-69250733D01*
X121412465Y-69357938D01*
X121359679Y-69405416D01*
X121289604Y-69416819D01*
X121224488Y-69388526D01*
X121185006Y-69329521D01*
X121179224Y-69291791D01*
X121179224Y-63926073D01*
X121199226Y-63857952D01*
X121252882Y-63811459D01*
X121305224Y-63800073D01*
X144800883Y-63800073D01*
X144869004Y-63820075D01*
G37*
%TD.AperFunction*%
%TA.AperFunction,Conductor*%
G36*
X126700354Y-69057994D02*
G01*
X126700355Y-69057994D01*
X126736183Y-69003157D01*
X126790187Y-68957069D01*
X126841666Y-68946073D01*
X127732723Y-68946073D01*
X127800844Y-68966075D01*
X127847337Y-69019731D01*
X127858723Y-69072073D01*
X127858723Y-69450060D01*
X127861593Y-69486538D01*
X127866222Y-69502469D01*
X127871225Y-69537621D01*
X127871225Y-69962524D01*
X127866223Y-69997672D01*
X127863439Y-70007257D01*
X127861593Y-70013610D01*
X127858723Y-70050075D01*
X127858723Y-70050083D01*
X127858723Y-70050084D01*
X127858723Y-70284061D01*
X127858724Y-70428073D01*
X127838722Y-70496193D01*
X127785067Y-70542686D01*
X127732724Y-70554073D01*
X127489225Y-70554073D01*
X127421104Y-70534071D01*
X127374611Y-70480415D01*
X127363225Y-70428073D01*
X127363225Y-69454073D01*
X126839545Y-69454073D01*
X126842094Y-69486462D01*
X126842094Y-69486465D01*
X126887418Y-69642470D01*
X126913123Y-69685935D01*
X126930582Y-69754752D01*
X126913123Y-69814211D01*
X126883383Y-69864500D01*
X126881088Y-69863142D01*
X126843916Y-69907791D01*
X126776203Y-69929132D01*
X126707701Y-69910476D01*
X126668236Y-69872071D01*
X126660110Y-69859633D01*
X126660108Y-69859631D01*
X126660107Y-69859629D01*
X126496129Y-69681501D01*
X126496124Y-69681496D01*
X126377523Y-69589185D01*
X126336052Y-69531560D01*
X126332319Y-69460662D01*
X126340156Y-69446928D01*
X126341952Y-69418010D01*
X125735232Y-68811290D01*
X125804009Y-68782802D01*
X125908013Y-68713309D01*
X125996460Y-68624862D01*
X126065953Y-68520858D01*
X126094441Y-68452081D01*
X126700354Y-69057994D01*
G37*
%TD.AperFunction*%
%TA.AperFunction,Conductor*%
G36*
X141882337Y-69248570D02*
G01*
X141940884Y-69288730D01*
X141968424Y-69354167D01*
X141969224Y-69368345D01*
X141969224Y-69368670D01*
X141975729Y-69429166D01*
X142026779Y-69566037D01*
X142026779Y-69566038D01*
X142114319Y-69682977D01*
X142231261Y-69770518D01*
X142237994Y-69774195D01*
X142288199Y-69824395D01*
X142303293Y-69893768D01*
X142278486Y-69960289D01*
X142237999Y-69995373D01*
X142231018Y-69999184D01*
X142177549Y-70039211D01*
X142111029Y-70064021D01*
X142041655Y-70048929D01*
X141996558Y-70007257D01*
X141900110Y-69859632D01*
X141736130Y-69681502D01*
X141736124Y-69681497D01*
X141617930Y-69589503D01*
X141576461Y-69531880D01*
X141572727Y-69460981D01*
X141607917Y-69399319D01*
X141617924Y-69390647D01*
X141736124Y-69298649D01*
X141742438Y-69291791D01*
X141750521Y-69283010D01*
X141811373Y-69246437D01*
X141882337Y-69248570D01*
G37*
%TD.AperFunction*%
%TA.AperFunction,Conductor*%
G36*
X130464811Y-68216076D02*
G01*
X130485785Y-68232979D01*
X130493974Y-68241168D01*
X130527995Y-68303482D01*
X130530183Y-68343428D01*
X130513720Y-68500072D01*
X130513720Y-68500073D01*
X130513982Y-68502567D01*
X130533681Y-68690001D01*
X130565081Y-68786639D01*
X130567108Y-68857607D01*
X130561657Y-68873792D01*
X130508908Y-69001142D01*
X130494224Y-69112676D01*
X130494224Y-69678573D01*
X130474222Y-69746694D01*
X130420566Y-69793187D01*
X130368224Y-69804573D01*
X130095507Y-69804573D01*
X130027386Y-69784571D01*
X129986388Y-69741573D01*
X129914147Y-69616449D01*
X129914139Y-69616439D01*
X129452627Y-69154927D01*
X129418601Y-69092615D01*
X129415722Y-69065832D01*
X129415722Y-68950085D01*
X129412852Y-68913608D01*
X129405152Y-68887105D01*
X129367492Y-68757477D01*
X129367490Y-68757475D01*
X129367490Y-68757472D01*
X129288384Y-68623712D01*
X129270924Y-68554896D01*
X129293441Y-68487565D01*
X129348785Y-68443096D01*
X129396837Y-68433573D01*
X129833598Y-68433573D01*
X129936628Y-68423048D01*
X130103553Y-68367735D01*
X130253222Y-68275418D01*
X130295662Y-68232977D01*
X130357971Y-68198954D01*
X130384756Y-68196074D01*
X130396690Y-68196074D01*
X130464811Y-68216076D01*
G37*
%TD.AperFunction*%
%TA.AperFunction,Conductor*%
G36*
X142089309Y-66554047D02*
G01*
X142106962Y-66573149D01*
X142114319Y-66582976D01*
X142231261Y-66670518D01*
X142237994Y-66674195D01*
X142288199Y-66724395D01*
X142303293Y-66793768D01*
X142278486Y-66860289D01*
X142237999Y-66895373D01*
X142231017Y-66899185D01*
X142113962Y-66986811D01*
X142026336Y-67103865D01*
X142026336Y-67103866D01*
X142004400Y-67162677D01*
X141961852Y-67219512D01*
X141895331Y-67244321D01*
X141825958Y-67229228D01*
X141793644Y-67203979D01*
X141736130Y-67141502D01*
X141736124Y-67141497D01*
X141617930Y-67049503D01*
X141576461Y-66991880D01*
X141572727Y-66920981D01*
X141607917Y-66859319D01*
X141617924Y-66850647D01*
X141736124Y-66758649D01*
X141781307Y-66709568D01*
X141900109Y-66580514D01*
X141900604Y-66579757D01*
X141900887Y-66579514D01*
X141903313Y-66576399D01*
X141903953Y-66576897D01*
X141954601Y-66533662D01*
X142024948Y-66524077D01*
X142089309Y-66554047D01*
G37*
%TD.AperFunction*%
%TD*%
M02*
