M48
; DRILL file {KiCad (6.0.2)} date Sun May 15 19:04:19 2022
; FORMAT={-:-/ absolute / inch / decimal}
; #@! TF.CreationDate,2022-05-15T19:04:19+02:00
; #@! TF.GenerationSoftware,Kicad,Pcbnew,(6.0.2)
; #@! TF.FileFunction,Plated,1,2,PTH
FMAT,2
INCH
; #@! TA.AperFunction,Plated,PTH,ViaDrill
T1C0.0157
; #@! TA.AperFunction,Plated,PTH,ComponentDrill
T2C0.0394
%
G90
G05
T1
X4.75Y-3.16
X4.75Y-3.42
X4.75Y-3.68
X4.8Y-3.99
X4.8Y-4.1
X4.8Y-4.2
X4.8Y-4.3
X4.8Y-4.39
X4.8Y-4.49
X4.8Y-4.59
X4.87Y-3.16
X4.87Y-3.42
X4.9Y-4.49
X4.92Y-2.73
X5.02Y-2.57
X5.05Y-4.25
X5.05Y-4.35
X5.0682Y-3.85
X5.07Y-2.75
X5.07Y-2.85
X5.07Y-2.94
X5.07Y-3.025
X5.07Y-3.55
X5.075Y-3.2
X5.17Y-3.88
X5.19Y-2.96
X5.2Y-4.25
X5.2Y-4.35
X5.2Y-4.45
X5.2Y-4.525
X5.21Y-2.75
X5.22Y-2.57
X5.24Y-3.88
X5.26Y-2.79
X5.29Y-2.72
X5.35Y-3.275
X5.35Y-3.35
X5.36Y-3.84
X5.39Y-3.48
X5.42Y-4.48
X5.4215Y-3.9
X5.425Y-2.9
X5.43Y-2.8
X5.43Y-4.61
X5.4465Y-3.675
X5.4566Y-4.0334
X5.4815Y-3.5
X5.51Y-3.9998
X5.55Y-4.03
X5.55Y-4.1
X5.55Y-4.18
X5.55Y-4.3
X5.55Y-4.41
X5.56Y-3.97
X5.63Y-4.61
X5.68Y-2.57
X5.68Y-3.03
X5.71Y-3.74
X5.71Y-3.81
X5.71Y-4.08
X5.71Y-4.17
X5.71Y-4.26
X5.71Y-4.35
X5.71Y-4.44
X5.74Y-2.74
X5.74Y-3.2
X5.74Y-3.34
T2
X4.976Y-2.8008
X4.976Y-2.9008
X4.976Y-3.0008
X4.976Y-3.1008
X4.976Y-3.2008
X4.976Y-3.3008
X4.976Y-3.4008
X4.976Y-3.5008
X4.976Y-3.6008
X4.976Y-3.7008
X4.976Y-3.8008
X4.976Y-3.9008
X5.471Y-3.1492
X5.471Y-3.2492
X5.576Y-2.8
X5.576Y-2.9
X5.576Y-3.0
X5.576Y-3.1
X5.576Y-3.2
X5.576Y-3.3
X5.576Y-3.4
X5.576Y-3.5
X5.576Y-3.6
X5.576Y-3.7
X5.576Y-3.8
X5.576Y-3.9
T0
M30
