%TF.GenerationSoftware,KiCad,Pcbnew,8.0.6*%
%TF.CreationDate,2024-12-11T07:14:04+01:00*%
%TF.ProjectId,unfancyRemote,756e6661-6e63-4795-9265-6d6f74652e6b,rev?*%
%TF.SameCoordinates,Original*%
%TF.FileFunction,Legend,Top*%
%TF.FilePolarity,Positive*%
%FSLAX46Y46*%
G04 Gerber Fmt 4.6, Leading zero omitted, Abs format (unit mm)*
G04 Created by KiCad (PCBNEW 8.0.6) date 2024-12-11 07:14:04*
%MOMM*%
%LPD*%
G01*
G04 APERTURE LIST*
G04 Aperture macros list*
%AMRoundRect*
0 Rectangle with rounded corners*
0 $1 Rounding radius*
0 $2 $3 $4 $5 $6 $7 $8 $9 X,Y pos of 4 corners*
0 Add a 4 corners polygon primitive as box body*
4,1,4,$2,$3,$4,$5,$6,$7,$8,$9,$2,$3,0*
0 Add four circle primitives for the rounded corners*
1,1,$1+$1,$2,$3*
1,1,$1+$1,$4,$5*
1,1,$1+$1,$6,$7*
1,1,$1+$1,$8,$9*
0 Add four rect primitives between the rounded corners*
20,1,$1+$1,$2,$3,$4,$5,0*
20,1,$1+$1,$4,$5,$6,$7,0*
20,1,$1+$1,$6,$7,$8,$9,0*
20,1,$1+$1,$8,$9,$2,$3,0*%
G04 Aperture macros list end*
%ADD10C,0.150000*%
%ADD11C,0.100000*%
%ADD12C,0.120000*%
%ADD13RoundRect,0.135000X-0.135000X-0.185000X0.135000X-0.185000X0.135000X0.185000X-0.135000X0.185000X0*%
%ADD14RoundRect,0.135000X0.135000X0.185000X-0.135000X0.185000X-0.135000X-0.185000X0.135000X-0.185000X0*%
%ADD15R,0.700000X0.700000*%
%ADD16RoundRect,0.150000X-0.150000X0.512500X-0.150000X-0.512500X0.150000X-0.512500X0.150000X0.512500X0*%
%ADD17RoundRect,0.140000X0.140000X0.170000X-0.140000X0.170000X-0.140000X-0.170000X0.140000X-0.170000X0*%
%ADD18RoundRect,0.250000X-0.450000X-0.425000X0.450000X-0.425000X0.450000X0.425000X-0.450000X0.425000X0*%
%ADD19RoundRect,0.062500X0.350000X0.062500X-0.350000X0.062500X-0.350000X-0.062500X0.350000X-0.062500X0*%
%ADD20RoundRect,0.062500X0.062500X0.350000X-0.062500X0.350000X-0.062500X-0.350000X0.062500X-0.350000X0*%
%ADD21R,2.500000X2.500000*%
%ADD22R,2.100000X1.100000*%
%ADD23R,1.200000X0.900000*%
%ADD24RoundRect,0.125000X-0.125000X0.687500X-0.125000X-0.687500X0.125000X-0.687500X0.125000X0.687500X0*%
%ADD25RoundRect,0.250000X-0.750000X0.250000X-0.750000X-0.250000X0.750000X-0.250000X0.750000X0.250000X0*%
%ADD26RoundRect,0.250000X0.450000X0.425000X-0.450000X0.425000X-0.450000X-0.425000X0.450000X-0.425000X0*%
%ADD27RoundRect,0.135000X-0.185000X0.135000X-0.185000X-0.135000X0.185000X-0.135000X0.185000X0.135000X0*%
%ADD28R,1.350000X1.350000*%
%ADD29O,1.350000X1.350000*%
%ADD30RoundRect,0.135000X0.185000X-0.135000X0.185000X0.135000X-0.185000X0.135000X-0.185000X-0.135000X0*%
%ADD31RoundRect,0.250000X0.425000X-0.450000X0.425000X0.450000X-0.425000X0.450000X-0.425000X-0.450000X0*%
%ADD32RoundRect,0.250000X-0.425000X0.450000X-0.425000X-0.450000X0.425000X-0.450000X0.425000X0.450000X0*%
%ADD33RoundRect,0.150000X0.150000X0.200000X-0.150000X0.200000X-0.150000X-0.200000X0.150000X-0.200000X0*%
%ADD34RoundRect,0.243750X-0.456250X0.243750X-0.456250X-0.243750X0.456250X-0.243750X0.456250X0.243750X0*%
%ADD35RoundRect,0.150000X0.587500X0.150000X-0.587500X0.150000X-0.587500X-0.150000X0.587500X-0.150000X0*%
%ADD36RoundRect,0.150000X-0.587500X-0.150000X0.587500X-0.150000X0.587500X0.150000X-0.587500X0.150000X0*%
%ADD37RoundRect,0.250000X0.750000X-0.250000X0.750000X0.250000X-0.750000X0.250000X-0.750000X-0.250000X0*%
%ADD38RoundRect,0.225000X0.225000X0.250000X-0.225000X0.250000X-0.225000X-0.250000X0.225000X-0.250000X0*%
%ADD39RoundRect,0.140000X-0.140000X-0.170000X0.140000X-0.170000X0.140000X0.170000X-0.140000X0.170000X0*%
%ADD40R,1.300000X1.550000*%
%ADD41C,2.109000*%
G04 APERTURE END LIST*
D10*
X124210835Y-75135714D02*
X124210835Y-75564286D01*
X123460835Y-75350000D02*
X124210835Y-75350000D01*
X123460835Y-75814286D02*
X124210835Y-75814286D01*
X123853692Y-75814286D02*
X123853692Y-76242857D01*
X123460835Y-76242857D02*
X124210835Y-76242857D01*
X123460835Y-76992857D02*
X123460835Y-76564286D01*
X123460835Y-76778571D02*
X124210835Y-76778571D01*
X124210835Y-76778571D02*
X124103692Y-76707143D01*
X124103692Y-76707143D02*
X124032264Y-76635714D01*
X124032264Y-76635714D02*
X123996550Y-76564286D01*
X123210835Y-95521429D02*
X122460835Y-95771429D01*
X122460835Y-95771429D02*
X123210835Y-96021429D01*
X122460835Y-96271429D02*
X123210835Y-96271429D01*
X122460835Y-96628572D02*
X123210835Y-96628572D01*
X123210835Y-96628572D02*
X122460835Y-97057143D01*
X122460835Y-97057143D02*
X123210835Y-97057143D01*
X123246550Y-97950000D02*
X122282264Y-97307143D01*
X122746550Y-98200000D02*
X122746550Y-98771429D01*
X142460835Y-92114286D02*
X143210835Y-92114286D01*
X143210835Y-92114286D02*
X142675121Y-92364286D01*
X142675121Y-92364286D02*
X143210835Y-92614286D01*
X143210835Y-92614286D02*
X142460835Y-92614286D01*
X143210835Y-93114286D02*
X143210835Y-93257143D01*
X143210835Y-93257143D02*
X143175121Y-93328572D01*
X143175121Y-93328572D02*
X143103692Y-93400000D01*
X143103692Y-93400000D02*
X142960835Y-93435715D01*
X142960835Y-93435715D02*
X142710835Y-93435715D01*
X142710835Y-93435715D02*
X142567978Y-93400000D01*
X142567978Y-93400000D02*
X142496550Y-93328572D01*
X142496550Y-93328572D02*
X142460835Y-93257143D01*
X142460835Y-93257143D02*
X142460835Y-93114286D01*
X142460835Y-93114286D02*
X142496550Y-93042858D01*
X142496550Y-93042858D02*
X142567978Y-92971429D01*
X142567978Y-92971429D02*
X142710835Y-92935715D01*
X142710835Y-92935715D02*
X142960835Y-92935715D01*
X142960835Y-92935715D02*
X143103692Y-92971429D01*
X143103692Y-92971429D02*
X143175121Y-93042858D01*
X143175121Y-93042858D02*
X143210835Y-93114286D01*
X143210835Y-93650000D02*
X143210835Y-94078572D01*
X142460835Y-93864286D02*
X143210835Y-93864286D01*
X143246550Y-94864286D02*
X142282264Y-94221429D01*
X142746550Y-95114286D02*
X142746550Y-95685715D01*
X122260835Y-75185715D02*
X123010835Y-75185715D01*
X123010835Y-75185715D02*
X123010835Y-75471429D01*
X123010835Y-75471429D02*
X122975121Y-75542858D01*
X122975121Y-75542858D02*
X122939407Y-75578572D01*
X122939407Y-75578572D02*
X122867978Y-75614286D01*
X122867978Y-75614286D02*
X122760835Y-75614286D01*
X122760835Y-75614286D02*
X122689407Y-75578572D01*
X122689407Y-75578572D02*
X122653692Y-75542858D01*
X122653692Y-75542858D02*
X122617978Y-75471429D01*
X122617978Y-75471429D02*
X122617978Y-75185715D01*
X122260835Y-75935715D02*
X123010835Y-75935715D01*
X123010835Y-75935715D02*
X123010835Y-76221429D01*
X123010835Y-76221429D02*
X122975121Y-76292858D01*
X122975121Y-76292858D02*
X122939407Y-76328572D01*
X122939407Y-76328572D02*
X122867978Y-76364286D01*
X122867978Y-76364286D02*
X122760835Y-76364286D01*
X122760835Y-76364286D02*
X122689407Y-76328572D01*
X122689407Y-76328572D02*
X122653692Y-76292858D01*
X122653692Y-76292858D02*
X122617978Y-76221429D01*
X122617978Y-76221429D02*
X122617978Y-75935715D01*
X122260835Y-76685715D02*
X123010835Y-76685715D01*
X123010835Y-76685715D02*
X122475121Y-76935715D01*
X122475121Y-76935715D02*
X123010835Y-77185715D01*
X123010835Y-77185715D02*
X122260835Y-77185715D01*
X123046550Y-78078572D02*
X122082264Y-77435715D01*
X122546550Y-78328572D02*
X122546550Y-78900001D01*
X122260835Y-78614286D02*
X122832264Y-78614286D01*
X123046550Y-79792857D02*
X122082264Y-79150000D01*
X122546550Y-80042857D02*
X122546550Y-80614286D01*
X130589286Y-77346307D02*
X130696429Y-77382021D01*
X130696429Y-77382021D02*
X130732143Y-77417735D01*
X130732143Y-77417735D02*
X130767857Y-77489164D01*
X130767857Y-77489164D02*
X130767857Y-77596307D01*
X130767857Y-77596307D02*
X130732143Y-77667735D01*
X130732143Y-77667735D02*
X130696429Y-77703450D01*
X130696429Y-77703450D02*
X130625000Y-77739164D01*
X130625000Y-77739164D02*
X130339286Y-77739164D01*
X130339286Y-77739164D02*
X130339286Y-76989164D01*
X130339286Y-76989164D02*
X130589286Y-76989164D01*
X130589286Y-76989164D02*
X130660715Y-77024878D01*
X130660715Y-77024878D02*
X130696429Y-77060592D01*
X130696429Y-77060592D02*
X130732143Y-77132021D01*
X130732143Y-77132021D02*
X130732143Y-77203450D01*
X130732143Y-77203450D02*
X130696429Y-77274878D01*
X130696429Y-77274878D02*
X130660715Y-77310592D01*
X130660715Y-77310592D02*
X130589286Y-77346307D01*
X130589286Y-77346307D02*
X130339286Y-77346307D01*
X131053572Y-77524878D02*
X131410715Y-77524878D01*
X130982143Y-77739164D02*
X131232143Y-76989164D01*
X131232143Y-76989164D02*
X131482143Y-77739164D01*
X131625000Y-76989164D02*
X132053572Y-76989164D01*
X131839286Y-77739164D02*
X131839286Y-76989164D01*
X132839286Y-76953450D02*
X132196429Y-77917735D01*
X133089286Y-77453450D02*
X133660715Y-77453450D01*
X122646550Y-63928572D02*
X122646550Y-64500001D01*
X123146550Y-65392857D02*
X122182264Y-64750000D01*
X122646550Y-65642857D02*
X122646550Y-66214286D01*
X122360835Y-65928571D02*
X122932264Y-65928571D01*
X123146550Y-67107142D02*
X122182264Y-66464285D01*
X123110835Y-67249999D02*
X123110835Y-67678571D01*
X122360835Y-67464285D02*
X123110835Y-67464285D01*
X122360835Y-67928571D02*
X123110835Y-67928571D01*
X122753692Y-67928571D02*
X122753692Y-68357142D01*
X122360835Y-68357142D02*
X123110835Y-68357142D01*
X123039407Y-68678571D02*
X123075121Y-68714285D01*
X123075121Y-68714285D02*
X123110835Y-68785714D01*
X123110835Y-68785714D02*
X123110835Y-68964285D01*
X123110835Y-68964285D02*
X123075121Y-69035714D01*
X123075121Y-69035714D02*
X123039407Y-69071428D01*
X123039407Y-69071428D02*
X122967978Y-69107142D01*
X122967978Y-69107142D02*
X122896550Y-69107142D01*
X122896550Y-69107142D02*
X122789407Y-69071428D01*
X122789407Y-69071428D02*
X122360835Y-68642856D01*
X122360835Y-68642856D02*
X122360835Y-69107142D01*
D11*
X129774999Y-91341764D02*
X129524999Y-90984621D01*
X129346428Y-91341764D02*
X129346428Y-90591764D01*
X129346428Y-90591764D02*
X129632142Y-90591764D01*
X129632142Y-90591764D02*
X129703571Y-90627478D01*
X129703571Y-90627478D02*
X129739285Y-90663192D01*
X129739285Y-90663192D02*
X129774999Y-90734621D01*
X129774999Y-90734621D02*
X129774999Y-90841764D01*
X129774999Y-90841764D02*
X129739285Y-90913192D01*
X129739285Y-90913192D02*
X129703571Y-90948907D01*
X129703571Y-90948907D02*
X129632142Y-90984621D01*
X129632142Y-90984621D02*
X129346428Y-90984621D01*
X130489285Y-91341764D02*
X130060714Y-91341764D01*
X130274999Y-91341764D02*
X130274999Y-90591764D01*
X130274999Y-90591764D02*
X130203571Y-90698907D01*
X130203571Y-90698907D02*
X130132142Y-90770335D01*
X130132142Y-90770335D02*
X130060714Y-90806050D01*
X135889285Y-73041764D02*
X135639285Y-72684621D01*
X135460714Y-73041764D02*
X135460714Y-72291764D01*
X135460714Y-72291764D02*
X135746428Y-72291764D01*
X135746428Y-72291764D02*
X135817857Y-72327478D01*
X135817857Y-72327478D02*
X135853571Y-72363192D01*
X135853571Y-72363192D02*
X135889285Y-72434621D01*
X135889285Y-72434621D02*
X135889285Y-72541764D01*
X135889285Y-72541764D02*
X135853571Y-72613192D01*
X135853571Y-72613192D02*
X135817857Y-72648907D01*
X135817857Y-72648907D02*
X135746428Y-72684621D01*
X135746428Y-72684621D02*
X135460714Y-72684621D01*
X136103571Y-72291764D02*
X136532143Y-72291764D01*
X136317857Y-73041764D02*
X136317857Y-72291764D01*
X136746429Y-72363192D02*
X136782143Y-72327478D01*
X136782143Y-72327478D02*
X136853572Y-72291764D01*
X136853572Y-72291764D02*
X137032143Y-72291764D01*
X137032143Y-72291764D02*
X137103572Y-72327478D01*
X137103572Y-72327478D02*
X137139286Y-72363192D01*
X137139286Y-72363192D02*
X137175000Y-72434621D01*
X137175000Y-72434621D02*
X137175000Y-72506050D01*
X137175000Y-72506050D02*
X137139286Y-72613192D01*
X137139286Y-72613192D02*
X136710714Y-73041764D01*
X136710714Y-73041764D02*
X137175000Y-73041764D01*
X142746428Y-79641764D02*
X142746428Y-78891764D01*
X142746428Y-78891764D02*
X142924999Y-78891764D01*
X142924999Y-78891764D02*
X143032142Y-78927478D01*
X143032142Y-78927478D02*
X143103571Y-78998907D01*
X143103571Y-78998907D02*
X143139285Y-79070335D01*
X143139285Y-79070335D02*
X143174999Y-79213192D01*
X143174999Y-79213192D02*
X143174999Y-79320335D01*
X143174999Y-79320335D02*
X143139285Y-79463192D01*
X143139285Y-79463192D02*
X143103571Y-79534621D01*
X143103571Y-79534621D02*
X143032142Y-79606050D01*
X143032142Y-79606050D02*
X142924999Y-79641764D01*
X142924999Y-79641764D02*
X142746428Y-79641764D01*
X143817857Y-78891764D02*
X143674999Y-78891764D01*
X143674999Y-78891764D02*
X143603571Y-78927478D01*
X143603571Y-78927478D02*
X143567857Y-78963192D01*
X143567857Y-78963192D02*
X143496428Y-79070335D01*
X143496428Y-79070335D02*
X143460714Y-79213192D01*
X143460714Y-79213192D02*
X143460714Y-79498907D01*
X143460714Y-79498907D02*
X143496428Y-79570335D01*
X143496428Y-79570335D02*
X143532142Y-79606050D01*
X143532142Y-79606050D02*
X143603571Y-79641764D01*
X143603571Y-79641764D02*
X143746428Y-79641764D01*
X143746428Y-79641764D02*
X143817857Y-79606050D01*
X143817857Y-79606050D02*
X143853571Y-79570335D01*
X143853571Y-79570335D02*
X143889285Y-79498907D01*
X143889285Y-79498907D02*
X143889285Y-79320335D01*
X143889285Y-79320335D02*
X143853571Y-79248907D01*
X143853571Y-79248907D02*
X143817857Y-79213192D01*
X143817857Y-79213192D02*
X143746428Y-79177478D01*
X143746428Y-79177478D02*
X143603571Y-79177478D01*
X143603571Y-79177478D02*
X143532142Y-79213192D01*
X143532142Y-79213192D02*
X143496428Y-79248907D01*
X143496428Y-79248907D02*
X143460714Y-79320335D01*
X126691764Y-80971428D02*
X127298907Y-80971428D01*
X127298907Y-80971428D02*
X127370335Y-80935714D01*
X127370335Y-80935714D02*
X127406050Y-80900000D01*
X127406050Y-80900000D02*
X127441764Y-80828571D01*
X127441764Y-80828571D02*
X127441764Y-80685714D01*
X127441764Y-80685714D02*
X127406050Y-80614285D01*
X127406050Y-80614285D02*
X127370335Y-80578571D01*
X127370335Y-80578571D02*
X127298907Y-80542857D01*
X127298907Y-80542857D02*
X126691764Y-80542857D01*
X126691764Y-79828571D02*
X126691764Y-80185714D01*
X126691764Y-80185714D02*
X127048907Y-80221428D01*
X127048907Y-80221428D02*
X127013192Y-80185714D01*
X127013192Y-80185714D02*
X126977478Y-80114286D01*
X126977478Y-80114286D02*
X126977478Y-79935714D01*
X126977478Y-79935714D02*
X127013192Y-79864286D01*
X127013192Y-79864286D02*
X127048907Y-79828571D01*
X127048907Y-79828571D02*
X127120335Y-79792857D01*
X127120335Y-79792857D02*
X127298907Y-79792857D01*
X127298907Y-79792857D02*
X127370335Y-79828571D01*
X127370335Y-79828571D02*
X127406050Y-79864286D01*
X127406050Y-79864286D02*
X127441764Y-79935714D01*
X127441764Y-79935714D02*
X127441764Y-80114286D01*
X127441764Y-80114286D02*
X127406050Y-80185714D01*
X127406050Y-80185714D02*
X127370335Y-80221428D01*
X131917856Y-86770335D02*
X131882142Y-86806050D01*
X131882142Y-86806050D02*
X131774999Y-86841764D01*
X131774999Y-86841764D02*
X131703571Y-86841764D01*
X131703571Y-86841764D02*
X131596428Y-86806050D01*
X131596428Y-86806050D02*
X131524999Y-86734621D01*
X131524999Y-86734621D02*
X131489285Y-86663192D01*
X131489285Y-86663192D02*
X131453571Y-86520335D01*
X131453571Y-86520335D02*
X131453571Y-86413192D01*
X131453571Y-86413192D02*
X131489285Y-86270335D01*
X131489285Y-86270335D02*
X131524999Y-86198907D01*
X131524999Y-86198907D02*
X131596428Y-86127478D01*
X131596428Y-86127478D02*
X131703571Y-86091764D01*
X131703571Y-86091764D02*
X131774999Y-86091764D01*
X131774999Y-86091764D02*
X131882142Y-86127478D01*
X131882142Y-86127478D02*
X131917856Y-86163192D01*
X132632142Y-86841764D02*
X132203571Y-86841764D01*
X132417856Y-86841764D02*
X132417856Y-86091764D01*
X132417856Y-86091764D02*
X132346428Y-86198907D01*
X132346428Y-86198907D02*
X132274999Y-86270335D01*
X132274999Y-86270335D02*
X132203571Y-86306050D01*
X133275000Y-86091764D02*
X133132142Y-86091764D01*
X133132142Y-86091764D02*
X133060714Y-86127478D01*
X133060714Y-86127478D02*
X133025000Y-86163192D01*
X133025000Y-86163192D02*
X132953571Y-86270335D01*
X132953571Y-86270335D02*
X132917857Y-86413192D01*
X132917857Y-86413192D02*
X132917857Y-86698907D01*
X132917857Y-86698907D02*
X132953571Y-86770335D01*
X132953571Y-86770335D02*
X132989285Y-86806050D01*
X132989285Y-86806050D02*
X133060714Y-86841764D01*
X133060714Y-86841764D02*
X133203571Y-86841764D01*
X133203571Y-86841764D02*
X133275000Y-86806050D01*
X133275000Y-86806050D02*
X133310714Y-86770335D01*
X133310714Y-86770335D02*
X133346428Y-86698907D01*
X133346428Y-86698907D02*
X133346428Y-86520335D01*
X133346428Y-86520335D02*
X133310714Y-86448907D01*
X133310714Y-86448907D02*
X133275000Y-86413192D01*
X133275000Y-86413192D02*
X133203571Y-86377478D01*
X133203571Y-86377478D02*
X133060714Y-86377478D01*
X133060714Y-86377478D02*
X132989285Y-86413192D01*
X132989285Y-86413192D02*
X132953571Y-86448907D01*
X132953571Y-86448907D02*
X132917857Y-86520335D01*
X131474999Y-89341764D02*
X131224999Y-88984621D01*
X131046428Y-89341764D02*
X131046428Y-88591764D01*
X131046428Y-88591764D02*
X131332142Y-88591764D01*
X131332142Y-88591764D02*
X131403571Y-88627478D01*
X131403571Y-88627478D02*
X131439285Y-88663192D01*
X131439285Y-88663192D02*
X131474999Y-88734621D01*
X131474999Y-88734621D02*
X131474999Y-88841764D01*
X131474999Y-88841764D02*
X131439285Y-88913192D01*
X131439285Y-88913192D02*
X131403571Y-88948907D01*
X131403571Y-88948907D02*
X131332142Y-88984621D01*
X131332142Y-88984621D02*
X131046428Y-88984621D01*
X131724999Y-88591764D02*
X132189285Y-88591764D01*
X132189285Y-88591764D02*
X131939285Y-88877478D01*
X131939285Y-88877478D02*
X132046428Y-88877478D01*
X132046428Y-88877478D02*
X132117857Y-88913192D01*
X132117857Y-88913192D02*
X132153571Y-88948907D01*
X132153571Y-88948907D02*
X132189285Y-89020335D01*
X132189285Y-89020335D02*
X132189285Y-89198907D01*
X132189285Y-89198907D02*
X132153571Y-89270335D01*
X132153571Y-89270335D02*
X132117857Y-89306050D01*
X132117857Y-89306050D02*
X132046428Y-89341764D01*
X132046428Y-89341764D02*
X131832142Y-89341764D01*
X131832142Y-89341764D02*
X131760714Y-89306050D01*
X131760714Y-89306050D02*
X131724999Y-89270335D01*
X135917856Y-84020335D02*
X135882142Y-84056050D01*
X135882142Y-84056050D02*
X135774999Y-84091764D01*
X135774999Y-84091764D02*
X135703571Y-84091764D01*
X135703571Y-84091764D02*
X135596428Y-84056050D01*
X135596428Y-84056050D02*
X135524999Y-83984621D01*
X135524999Y-83984621D02*
X135489285Y-83913192D01*
X135489285Y-83913192D02*
X135453571Y-83770335D01*
X135453571Y-83770335D02*
X135453571Y-83663192D01*
X135453571Y-83663192D02*
X135489285Y-83520335D01*
X135489285Y-83520335D02*
X135524999Y-83448907D01*
X135524999Y-83448907D02*
X135596428Y-83377478D01*
X135596428Y-83377478D02*
X135703571Y-83341764D01*
X135703571Y-83341764D02*
X135774999Y-83341764D01*
X135774999Y-83341764D02*
X135882142Y-83377478D01*
X135882142Y-83377478D02*
X135917856Y-83413192D01*
X136632142Y-84091764D02*
X136203571Y-84091764D01*
X136417856Y-84091764D02*
X136417856Y-83341764D01*
X136417856Y-83341764D02*
X136346428Y-83448907D01*
X136346428Y-83448907D02*
X136274999Y-83520335D01*
X136274999Y-83520335D02*
X136203571Y-83556050D01*
X137346428Y-84091764D02*
X136917857Y-84091764D01*
X137132142Y-84091764D02*
X137132142Y-83341764D01*
X137132142Y-83341764D02*
X137060714Y-83448907D01*
X137060714Y-83448907D02*
X136989285Y-83520335D01*
X136989285Y-83520335D02*
X136917857Y-83556050D01*
X129817856Y-84770335D02*
X129782142Y-84806050D01*
X129782142Y-84806050D02*
X129674999Y-84841764D01*
X129674999Y-84841764D02*
X129603571Y-84841764D01*
X129603571Y-84841764D02*
X129496428Y-84806050D01*
X129496428Y-84806050D02*
X129424999Y-84734621D01*
X129424999Y-84734621D02*
X129389285Y-84663192D01*
X129389285Y-84663192D02*
X129353571Y-84520335D01*
X129353571Y-84520335D02*
X129353571Y-84413192D01*
X129353571Y-84413192D02*
X129389285Y-84270335D01*
X129389285Y-84270335D02*
X129424999Y-84198907D01*
X129424999Y-84198907D02*
X129496428Y-84127478D01*
X129496428Y-84127478D02*
X129603571Y-84091764D01*
X129603571Y-84091764D02*
X129674999Y-84091764D01*
X129674999Y-84091764D02*
X129782142Y-84127478D01*
X129782142Y-84127478D02*
X129817856Y-84163192D01*
X130532142Y-84841764D02*
X130103571Y-84841764D01*
X130317856Y-84841764D02*
X130317856Y-84091764D01*
X130317856Y-84091764D02*
X130246428Y-84198907D01*
X130246428Y-84198907D02*
X130174999Y-84270335D01*
X130174999Y-84270335D02*
X130103571Y-84306050D01*
X131210714Y-84091764D02*
X130853571Y-84091764D01*
X130853571Y-84091764D02*
X130817857Y-84448907D01*
X130817857Y-84448907D02*
X130853571Y-84413192D01*
X130853571Y-84413192D02*
X130925000Y-84377478D01*
X130925000Y-84377478D02*
X131103571Y-84377478D01*
X131103571Y-84377478D02*
X131175000Y-84413192D01*
X131175000Y-84413192D02*
X131210714Y-84448907D01*
X131210714Y-84448907D02*
X131246428Y-84520335D01*
X131246428Y-84520335D02*
X131246428Y-84698907D01*
X131246428Y-84698907D02*
X131210714Y-84770335D01*
X131210714Y-84770335D02*
X131175000Y-84806050D01*
X131175000Y-84806050D02*
X131103571Y-84841764D01*
X131103571Y-84841764D02*
X130925000Y-84841764D01*
X130925000Y-84841764D02*
X130853571Y-84806050D01*
X130853571Y-84806050D02*
X130817857Y-84770335D01*
X131928571Y-68191764D02*
X131928571Y-68798907D01*
X131928571Y-68798907D02*
X131964285Y-68870335D01*
X131964285Y-68870335D02*
X132000000Y-68906050D01*
X132000000Y-68906050D02*
X132071428Y-68941764D01*
X132071428Y-68941764D02*
X132214285Y-68941764D01*
X132214285Y-68941764D02*
X132285714Y-68906050D01*
X132285714Y-68906050D02*
X132321428Y-68870335D01*
X132321428Y-68870335D02*
X132357142Y-68798907D01*
X132357142Y-68798907D02*
X132357142Y-68191764D01*
X132678571Y-68263192D02*
X132714285Y-68227478D01*
X132714285Y-68227478D02*
X132785714Y-68191764D01*
X132785714Y-68191764D02*
X132964285Y-68191764D01*
X132964285Y-68191764D02*
X133035714Y-68227478D01*
X133035714Y-68227478D02*
X133071428Y-68263192D01*
X133071428Y-68263192D02*
X133107142Y-68334621D01*
X133107142Y-68334621D02*
X133107142Y-68406050D01*
X133107142Y-68406050D02*
X133071428Y-68513192D01*
X133071428Y-68513192D02*
X132642856Y-68941764D01*
X132642856Y-68941764D02*
X133107142Y-68941764D01*
D10*
X134454819Y-83766666D02*
X134454819Y-84242856D01*
X134454819Y-84242856D02*
X133454819Y-84242856D01*
X134454819Y-82909523D02*
X134454819Y-83480951D01*
X134454819Y-83195237D02*
X133454819Y-83195237D01*
X133454819Y-83195237D02*
X133597676Y-83290475D01*
X133597676Y-83290475D02*
X133692914Y-83385713D01*
X133692914Y-83385713D02*
X133740533Y-83480951D01*
D11*
X131474999Y-88241764D02*
X131224999Y-87884621D01*
X131046428Y-88241764D02*
X131046428Y-87491764D01*
X131046428Y-87491764D02*
X131332142Y-87491764D01*
X131332142Y-87491764D02*
X131403571Y-87527478D01*
X131403571Y-87527478D02*
X131439285Y-87563192D01*
X131439285Y-87563192D02*
X131474999Y-87634621D01*
X131474999Y-87634621D02*
X131474999Y-87741764D01*
X131474999Y-87741764D02*
X131439285Y-87813192D01*
X131439285Y-87813192D02*
X131403571Y-87848907D01*
X131403571Y-87848907D02*
X131332142Y-87884621D01*
X131332142Y-87884621D02*
X131046428Y-87884621D01*
X131760714Y-87563192D02*
X131796428Y-87527478D01*
X131796428Y-87527478D02*
X131867857Y-87491764D01*
X131867857Y-87491764D02*
X132046428Y-87491764D01*
X132046428Y-87491764D02*
X132117857Y-87527478D01*
X132117857Y-87527478D02*
X132153571Y-87563192D01*
X132153571Y-87563192D02*
X132189285Y-87634621D01*
X132189285Y-87634621D02*
X132189285Y-87706050D01*
X132189285Y-87706050D02*
X132153571Y-87813192D01*
X132153571Y-87813192D02*
X131724999Y-88241764D01*
X131724999Y-88241764D02*
X132189285Y-88241764D01*
X127841764Y-98053571D02*
X127091764Y-98053571D01*
X127091764Y-98053571D02*
X127091764Y-97875000D01*
X127091764Y-97875000D02*
X127127478Y-97767857D01*
X127127478Y-97767857D02*
X127198907Y-97696428D01*
X127198907Y-97696428D02*
X127270335Y-97660714D01*
X127270335Y-97660714D02*
X127413192Y-97625000D01*
X127413192Y-97625000D02*
X127520335Y-97625000D01*
X127520335Y-97625000D02*
X127663192Y-97660714D01*
X127663192Y-97660714D02*
X127734621Y-97696428D01*
X127734621Y-97696428D02*
X127806050Y-97767857D01*
X127806050Y-97767857D02*
X127841764Y-97875000D01*
X127841764Y-97875000D02*
X127841764Y-98053571D01*
X127841764Y-96910714D02*
X127841764Y-97339285D01*
X127841764Y-97125000D02*
X127091764Y-97125000D01*
X127091764Y-97125000D02*
X127198907Y-97196428D01*
X127198907Y-97196428D02*
X127270335Y-97267857D01*
X127270335Y-97267857D02*
X127306050Y-97339285D01*
X135291764Y-81471428D02*
X135898907Y-81471428D01*
X135898907Y-81471428D02*
X135970335Y-81435714D01*
X135970335Y-81435714D02*
X136006050Y-81400000D01*
X136006050Y-81400000D02*
X136041764Y-81328571D01*
X136041764Y-81328571D02*
X136041764Y-81185714D01*
X136041764Y-81185714D02*
X136006050Y-81114285D01*
X136006050Y-81114285D02*
X135970335Y-81078571D01*
X135970335Y-81078571D02*
X135898907Y-81042857D01*
X135898907Y-81042857D02*
X135291764Y-81042857D01*
X135541764Y-80364286D02*
X136041764Y-80364286D01*
X135256050Y-80542857D02*
X135791764Y-80721428D01*
X135791764Y-80721428D02*
X135791764Y-80257143D01*
X129774999Y-97641764D02*
X129524999Y-97284621D01*
X129346428Y-97641764D02*
X129346428Y-96891764D01*
X129346428Y-96891764D02*
X129632142Y-96891764D01*
X129632142Y-96891764D02*
X129703571Y-96927478D01*
X129703571Y-96927478D02*
X129739285Y-96963192D01*
X129739285Y-96963192D02*
X129774999Y-97034621D01*
X129774999Y-97034621D02*
X129774999Y-97141764D01*
X129774999Y-97141764D02*
X129739285Y-97213192D01*
X129739285Y-97213192D02*
X129703571Y-97248907D01*
X129703571Y-97248907D02*
X129632142Y-97284621D01*
X129632142Y-97284621D02*
X129346428Y-97284621D01*
X130453571Y-96891764D02*
X130096428Y-96891764D01*
X130096428Y-96891764D02*
X130060714Y-97248907D01*
X130060714Y-97248907D02*
X130096428Y-97213192D01*
X130096428Y-97213192D02*
X130167857Y-97177478D01*
X130167857Y-97177478D02*
X130346428Y-97177478D01*
X130346428Y-97177478D02*
X130417857Y-97213192D01*
X130417857Y-97213192D02*
X130453571Y-97248907D01*
X130453571Y-97248907D02*
X130489285Y-97320335D01*
X130489285Y-97320335D02*
X130489285Y-97498907D01*
X130489285Y-97498907D02*
X130453571Y-97570335D01*
X130453571Y-97570335D02*
X130417857Y-97606050D01*
X130417857Y-97606050D02*
X130346428Y-97641764D01*
X130346428Y-97641764D02*
X130167857Y-97641764D01*
X130167857Y-97641764D02*
X130096428Y-97606050D01*
X130096428Y-97606050D02*
X130060714Y-97570335D01*
X131117856Y-80770335D02*
X131082142Y-80806050D01*
X131082142Y-80806050D02*
X130974999Y-80841764D01*
X130974999Y-80841764D02*
X130903571Y-80841764D01*
X130903571Y-80841764D02*
X130796428Y-80806050D01*
X130796428Y-80806050D02*
X130724999Y-80734621D01*
X130724999Y-80734621D02*
X130689285Y-80663192D01*
X130689285Y-80663192D02*
X130653571Y-80520335D01*
X130653571Y-80520335D02*
X130653571Y-80413192D01*
X130653571Y-80413192D02*
X130689285Y-80270335D01*
X130689285Y-80270335D02*
X130724999Y-80198907D01*
X130724999Y-80198907D02*
X130796428Y-80127478D01*
X130796428Y-80127478D02*
X130903571Y-80091764D01*
X130903571Y-80091764D02*
X130974999Y-80091764D01*
X130974999Y-80091764D02*
X131082142Y-80127478D01*
X131082142Y-80127478D02*
X131117856Y-80163192D01*
X131832142Y-80841764D02*
X131403571Y-80841764D01*
X131617856Y-80841764D02*
X131617856Y-80091764D01*
X131617856Y-80091764D02*
X131546428Y-80198907D01*
X131546428Y-80198907D02*
X131474999Y-80270335D01*
X131474999Y-80270335D02*
X131403571Y-80306050D01*
X132082142Y-80091764D02*
X132546428Y-80091764D01*
X132546428Y-80091764D02*
X132296428Y-80377478D01*
X132296428Y-80377478D02*
X132403571Y-80377478D01*
X132403571Y-80377478D02*
X132475000Y-80413192D01*
X132475000Y-80413192D02*
X132510714Y-80448907D01*
X132510714Y-80448907D02*
X132546428Y-80520335D01*
X132546428Y-80520335D02*
X132546428Y-80698907D01*
X132546428Y-80698907D02*
X132510714Y-80770335D01*
X132510714Y-80770335D02*
X132475000Y-80806050D01*
X132475000Y-80806050D02*
X132403571Y-80841764D01*
X132403571Y-80841764D02*
X132189285Y-80841764D01*
X132189285Y-80841764D02*
X132117857Y-80806050D01*
X132117857Y-80806050D02*
X132082142Y-80770335D01*
X139941764Y-81282143D02*
X139584621Y-81532143D01*
X139941764Y-81710714D02*
X139191764Y-81710714D01*
X139191764Y-81710714D02*
X139191764Y-81425000D01*
X139191764Y-81425000D02*
X139227478Y-81353571D01*
X139227478Y-81353571D02*
X139263192Y-81317857D01*
X139263192Y-81317857D02*
X139334621Y-81282143D01*
X139334621Y-81282143D02*
X139441764Y-81282143D01*
X139441764Y-81282143D02*
X139513192Y-81317857D01*
X139513192Y-81317857D02*
X139548907Y-81353571D01*
X139548907Y-81353571D02*
X139584621Y-81425000D01*
X139584621Y-81425000D02*
X139584621Y-81710714D01*
X139941764Y-80567857D02*
X139941764Y-80996428D01*
X139941764Y-80782143D02*
X139191764Y-80782143D01*
X139191764Y-80782143D02*
X139298907Y-80853571D01*
X139298907Y-80853571D02*
X139370335Y-80925000D01*
X139370335Y-80925000D02*
X139406050Y-80996428D01*
X139941764Y-80210714D02*
X139941764Y-80067857D01*
X139941764Y-80067857D02*
X139906050Y-79996428D01*
X139906050Y-79996428D02*
X139870335Y-79960714D01*
X139870335Y-79960714D02*
X139763192Y-79889285D01*
X139763192Y-79889285D02*
X139620335Y-79853571D01*
X139620335Y-79853571D02*
X139334621Y-79853571D01*
X139334621Y-79853571D02*
X139263192Y-79889285D01*
X139263192Y-79889285D02*
X139227478Y-79925000D01*
X139227478Y-79925000D02*
X139191764Y-79996428D01*
X139191764Y-79996428D02*
X139191764Y-80139285D01*
X139191764Y-80139285D02*
X139227478Y-80210714D01*
X139227478Y-80210714D02*
X139263192Y-80246428D01*
X139263192Y-80246428D02*
X139334621Y-80282142D01*
X139334621Y-80282142D02*
X139513192Y-80282142D01*
X139513192Y-80282142D02*
X139584621Y-80246428D01*
X139584621Y-80246428D02*
X139620335Y-80210714D01*
X139620335Y-80210714D02*
X139656050Y-80139285D01*
X139656050Y-80139285D02*
X139656050Y-79996428D01*
X139656050Y-79996428D02*
X139620335Y-79925000D01*
X139620335Y-79925000D02*
X139584621Y-79889285D01*
X139584621Y-79889285D02*
X139513192Y-79853571D01*
X138117856Y-76541764D02*
X137867856Y-76184621D01*
X137689285Y-76541764D02*
X137689285Y-75791764D01*
X137689285Y-75791764D02*
X137974999Y-75791764D01*
X137974999Y-75791764D02*
X138046428Y-75827478D01*
X138046428Y-75827478D02*
X138082142Y-75863192D01*
X138082142Y-75863192D02*
X138117856Y-75934621D01*
X138117856Y-75934621D02*
X138117856Y-76041764D01*
X138117856Y-76041764D02*
X138082142Y-76113192D01*
X138082142Y-76113192D02*
X138046428Y-76148907D01*
X138046428Y-76148907D02*
X137974999Y-76184621D01*
X137974999Y-76184621D02*
X137689285Y-76184621D01*
X138403571Y-75863192D02*
X138439285Y-75827478D01*
X138439285Y-75827478D02*
X138510714Y-75791764D01*
X138510714Y-75791764D02*
X138689285Y-75791764D01*
X138689285Y-75791764D02*
X138760714Y-75827478D01*
X138760714Y-75827478D02*
X138796428Y-75863192D01*
X138796428Y-75863192D02*
X138832142Y-75934621D01*
X138832142Y-75934621D02*
X138832142Y-76006050D01*
X138832142Y-76006050D02*
X138796428Y-76113192D01*
X138796428Y-76113192D02*
X138367856Y-76541764D01*
X138367856Y-76541764D02*
X138832142Y-76541764D01*
X139296428Y-75791764D02*
X139367857Y-75791764D01*
X139367857Y-75791764D02*
X139439285Y-75827478D01*
X139439285Y-75827478D02*
X139475000Y-75863192D01*
X139475000Y-75863192D02*
X139510714Y-75934621D01*
X139510714Y-75934621D02*
X139546428Y-76077478D01*
X139546428Y-76077478D02*
X139546428Y-76256050D01*
X139546428Y-76256050D02*
X139510714Y-76398907D01*
X139510714Y-76398907D02*
X139475000Y-76470335D01*
X139475000Y-76470335D02*
X139439285Y-76506050D01*
X139439285Y-76506050D02*
X139367857Y-76541764D01*
X139367857Y-76541764D02*
X139296428Y-76541764D01*
X139296428Y-76541764D02*
X139225000Y-76506050D01*
X139225000Y-76506050D02*
X139189285Y-76470335D01*
X139189285Y-76470335D02*
X139153571Y-76398907D01*
X139153571Y-76398907D02*
X139117857Y-76256050D01*
X139117857Y-76256050D02*
X139117857Y-76077478D01*
X139117857Y-76077478D02*
X139153571Y-75934621D01*
X139153571Y-75934621D02*
X139189285Y-75863192D01*
X139189285Y-75863192D02*
X139225000Y-75827478D01*
X139225000Y-75827478D02*
X139296428Y-75791764D01*
X142689285Y-78541764D02*
X142689285Y-77791764D01*
X142689285Y-77791764D02*
X142867856Y-77791764D01*
X142867856Y-77791764D02*
X142974999Y-77827478D01*
X142974999Y-77827478D02*
X143046428Y-77898907D01*
X143046428Y-77898907D02*
X143082142Y-77970335D01*
X143082142Y-77970335D02*
X143117856Y-78113192D01*
X143117856Y-78113192D02*
X143117856Y-78220335D01*
X143117856Y-78220335D02*
X143082142Y-78363192D01*
X143082142Y-78363192D02*
X143046428Y-78434621D01*
X143046428Y-78434621D02*
X142974999Y-78506050D01*
X142974999Y-78506050D02*
X142867856Y-78541764D01*
X142867856Y-78541764D02*
X142689285Y-78541764D01*
X143832142Y-78541764D02*
X143403571Y-78541764D01*
X143617856Y-78541764D02*
X143617856Y-77791764D01*
X143617856Y-77791764D02*
X143546428Y-77898907D01*
X143546428Y-77898907D02*
X143474999Y-77970335D01*
X143474999Y-77970335D02*
X143403571Y-78006050D01*
X144296428Y-77791764D02*
X144367857Y-77791764D01*
X144367857Y-77791764D02*
X144439285Y-77827478D01*
X144439285Y-77827478D02*
X144475000Y-77863192D01*
X144475000Y-77863192D02*
X144510714Y-77934621D01*
X144510714Y-77934621D02*
X144546428Y-78077478D01*
X144546428Y-78077478D02*
X144546428Y-78256050D01*
X144546428Y-78256050D02*
X144510714Y-78398907D01*
X144510714Y-78398907D02*
X144475000Y-78470335D01*
X144475000Y-78470335D02*
X144439285Y-78506050D01*
X144439285Y-78506050D02*
X144367857Y-78541764D01*
X144367857Y-78541764D02*
X144296428Y-78541764D01*
X144296428Y-78541764D02*
X144225000Y-78506050D01*
X144225000Y-78506050D02*
X144189285Y-78470335D01*
X144189285Y-78470335D02*
X144153571Y-78398907D01*
X144153571Y-78398907D02*
X144117857Y-78256050D01*
X144117857Y-78256050D02*
X144117857Y-78077478D01*
X144117857Y-78077478D02*
X144153571Y-77934621D01*
X144153571Y-77934621D02*
X144189285Y-77863192D01*
X144189285Y-77863192D02*
X144225000Y-77827478D01*
X144225000Y-77827478D02*
X144296428Y-77791764D01*
D10*
X130066666Y-73954819D02*
X130066666Y-74669104D01*
X130066666Y-74669104D02*
X130019047Y-74811961D01*
X130019047Y-74811961D02*
X129923809Y-74907200D01*
X129923809Y-74907200D02*
X129780952Y-74954819D01*
X129780952Y-74954819D02*
X129685714Y-74954819D01*
X131066666Y-74954819D02*
X130495238Y-74954819D01*
X130780952Y-74954819D02*
X130780952Y-73954819D01*
X130780952Y-73954819D02*
X130685714Y-74097676D01*
X130685714Y-74097676D02*
X130590476Y-74192914D01*
X130590476Y-74192914D02*
X130495238Y-74240533D01*
D11*
X135741764Y-65525000D02*
X135384621Y-65775000D01*
X135741764Y-65953571D02*
X134991764Y-65953571D01*
X134991764Y-65953571D02*
X134991764Y-65667857D01*
X134991764Y-65667857D02*
X135027478Y-65596428D01*
X135027478Y-65596428D02*
X135063192Y-65560714D01*
X135063192Y-65560714D02*
X135134621Y-65525000D01*
X135134621Y-65525000D02*
X135241764Y-65525000D01*
X135241764Y-65525000D02*
X135313192Y-65560714D01*
X135313192Y-65560714D02*
X135348907Y-65596428D01*
X135348907Y-65596428D02*
X135384621Y-65667857D01*
X135384621Y-65667857D02*
X135384621Y-65953571D01*
X134991764Y-65275000D02*
X134991764Y-64775000D01*
X134991764Y-64775000D02*
X135741764Y-65096428D01*
X138274999Y-68870335D02*
X138239285Y-68906050D01*
X138239285Y-68906050D02*
X138132142Y-68941764D01*
X138132142Y-68941764D02*
X138060714Y-68941764D01*
X138060714Y-68941764D02*
X137953571Y-68906050D01*
X137953571Y-68906050D02*
X137882142Y-68834621D01*
X137882142Y-68834621D02*
X137846428Y-68763192D01*
X137846428Y-68763192D02*
X137810714Y-68620335D01*
X137810714Y-68620335D02*
X137810714Y-68513192D01*
X137810714Y-68513192D02*
X137846428Y-68370335D01*
X137846428Y-68370335D02*
X137882142Y-68298907D01*
X137882142Y-68298907D02*
X137953571Y-68227478D01*
X137953571Y-68227478D02*
X138060714Y-68191764D01*
X138060714Y-68191764D02*
X138132142Y-68191764D01*
X138132142Y-68191764D02*
X138239285Y-68227478D01*
X138239285Y-68227478D02*
X138274999Y-68263192D01*
X138703571Y-68513192D02*
X138632142Y-68477478D01*
X138632142Y-68477478D02*
X138596428Y-68441764D01*
X138596428Y-68441764D02*
X138560714Y-68370335D01*
X138560714Y-68370335D02*
X138560714Y-68334621D01*
X138560714Y-68334621D02*
X138596428Y-68263192D01*
X138596428Y-68263192D02*
X138632142Y-68227478D01*
X138632142Y-68227478D02*
X138703571Y-68191764D01*
X138703571Y-68191764D02*
X138846428Y-68191764D01*
X138846428Y-68191764D02*
X138917857Y-68227478D01*
X138917857Y-68227478D02*
X138953571Y-68263192D01*
X138953571Y-68263192D02*
X138989285Y-68334621D01*
X138989285Y-68334621D02*
X138989285Y-68370335D01*
X138989285Y-68370335D02*
X138953571Y-68441764D01*
X138953571Y-68441764D02*
X138917857Y-68477478D01*
X138917857Y-68477478D02*
X138846428Y-68513192D01*
X138846428Y-68513192D02*
X138703571Y-68513192D01*
X138703571Y-68513192D02*
X138632142Y-68548907D01*
X138632142Y-68548907D02*
X138596428Y-68584621D01*
X138596428Y-68584621D02*
X138560714Y-68656050D01*
X138560714Y-68656050D02*
X138560714Y-68798907D01*
X138560714Y-68798907D02*
X138596428Y-68870335D01*
X138596428Y-68870335D02*
X138632142Y-68906050D01*
X138632142Y-68906050D02*
X138703571Y-68941764D01*
X138703571Y-68941764D02*
X138846428Y-68941764D01*
X138846428Y-68941764D02*
X138917857Y-68906050D01*
X138917857Y-68906050D02*
X138953571Y-68870335D01*
X138953571Y-68870335D02*
X138989285Y-68798907D01*
X138989285Y-68798907D02*
X138989285Y-68656050D01*
X138989285Y-68656050D02*
X138953571Y-68584621D01*
X138953571Y-68584621D02*
X138917857Y-68548907D01*
X138917857Y-68548907D02*
X138846428Y-68513192D01*
X142746428Y-81841764D02*
X142746428Y-81091764D01*
X142746428Y-81091764D02*
X142924999Y-81091764D01*
X142924999Y-81091764D02*
X143032142Y-81127478D01*
X143032142Y-81127478D02*
X143103571Y-81198907D01*
X143103571Y-81198907D02*
X143139285Y-81270335D01*
X143139285Y-81270335D02*
X143174999Y-81413192D01*
X143174999Y-81413192D02*
X143174999Y-81520335D01*
X143174999Y-81520335D02*
X143139285Y-81663192D01*
X143139285Y-81663192D02*
X143103571Y-81734621D01*
X143103571Y-81734621D02*
X143032142Y-81806050D01*
X143032142Y-81806050D02*
X142924999Y-81841764D01*
X142924999Y-81841764D02*
X142746428Y-81841764D01*
X143817857Y-81341764D02*
X143817857Y-81841764D01*
X143639285Y-81056050D02*
X143460714Y-81591764D01*
X143460714Y-81591764D02*
X143924999Y-81591764D01*
X124770335Y-89582143D02*
X124806050Y-89617857D01*
X124806050Y-89617857D02*
X124841764Y-89725000D01*
X124841764Y-89725000D02*
X124841764Y-89796428D01*
X124841764Y-89796428D02*
X124806050Y-89903571D01*
X124806050Y-89903571D02*
X124734621Y-89975000D01*
X124734621Y-89975000D02*
X124663192Y-90010714D01*
X124663192Y-90010714D02*
X124520335Y-90046428D01*
X124520335Y-90046428D02*
X124413192Y-90046428D01*
X124413192Y-90046428D02*
X124270335Y-90010714D01*
X124270335Y-90010714D02*
X124198907Y-89975000D01*
X124198907Y-89975000D02*
X124127478Y-89903571D01*
X124127478Y-89903571D02*
X124091764Y-89796428D01*
X124091764Y-89796428D02*
X124091764Y-89725000D01*
X124091764Y-89725000D02*
X124127478Y-89617857D01*
X124127478Y-89617857D02*
X124163192Y-89582143D01*
X124841764Y-88867857D02*
X124841764Y-89296428D01*
X124841764Y-89082143D02*
X124091764Y-89082143D01*
X124091764Y-89082143D02*
X124198907Y-89153571D01*
X124198907Y-89153571D02*
X124270335Y-89225000D01*
X124270335Y-89225000D02*
X124306050Y-89296428D01*
X124341764Y-88225000D02*
X124841764Y-88225000D01*
X124056050Y-88403571D02*
X124591764Y-88582142D01*
X124591764Y-88582142D02*
X124591764Y-88117857D01*
X135217856Y-73770335D02*
X135182142Y-73806050D01*
X135182142Y-73806050D02*
X135074999Y-73841764D01*
X135074999Y-73841764D02*
X135003571Y-73841764D01*
X135003571Y-73841764D02*
X134896428Y-73806050D01*
X134896428Y-73806050D02*
X134824999Y-73734621D01*
X134824999Y-73734621D02*
X134789285Y-73663192D01*
X134789285Y-73663192D02*
X134753571Y-73520335D01*
X134753571Y-73520335D02*
X134753571Y-73413192D01*
X134753571Y-73413192D02*
X134789285Y-73270335D01*
X134789285Y-73270335D02*
X134824999Y-73198907D01*
X134824999Y-73198907D02*
X134896428Y-73127478D01*
X134896428Y-73127478D02*
X135003571Y-73091764D01*
X135003571Y-73091764D02*
X135074999Y-73091764D01*
X135074999Y-73091764D02*
X135182142Y-73127478D01*
X135182142Y-73127478D02*
X135217856Y-73163192D01*
X135932142Y-73841764D02*
X135503571Y-73841764D01*
X135717856Y-73841764D02*
X135717856Y-73091764D01*
X135717856Y-73091764D02*
X135646428Y-73198907D01*
X135646428Y-73198907D02*
X135574999Y-73270335D01*
X135574999Y-73270335D02*
X135503571Y-73306050D01*
X136396428Y-73091764D02*
X136467857Y-73091764D01*
X136467857Y-73091764D02*
X136539285Y-73127478D01*
X136539285Y-73127478D02*
X136575000Y-73163192D01*
X136575000Y-73163192D02*
X136610714Y-73234621D01*
X136610714Y-73234621D02*
X136646428Y-73377478D01*
X136646428Y-73377478D02*
X136646428Y-73556050D01*
X136646428Y-73556050D02*
X136610714Y-73698907D01*
X136610714Y-73698907D02*
X136575000Y-73770335D01*
X136575000Y-73770335D02*
X136539285Y-73806050D01*
X136539285Y-73806050D02*
X136467857Y-73841764D01*
X136467857Y-73841764D02*
X136396428Y-73841764D01*
X136396428Y-73841764D02*
X136325000Y-73806050D01*
X136325000Y-73806050D02*
X136289285Y-73770335D01*
X136289285Y-73770335D02*
X136253571Y-73698907D01*
X136253571Y-73698907D02*
X136217857Y-73556050D01*
X136217857Y-73556050D02*
X136217857Y-73377478D01*
X136217857Y-73377478D02*
X136253571Y-73234621D01*
X136253571Y-73234621D02*
X136289285Y-73163192D01*
X136289285Y-73163192D02*
X136325000Y-73127478D01*
X136325000Y-73127478D02*
X136396428Y-73091764D01*
X135435714Y-68191764D02*
X135864286Y-68191764D01*
X135650000Y-68941764D02*
X135650000Y-68191764D01*
X136114286Y-68941764D02*
X136114286Y-68191764D01*
X136114286Y-68548907D02*
X136542857Y-68548907D01*
X136542857Y-68941764D02*
X136542857Y-68191764D01*
X137292857Y-68941764D02*
X136864286Y-68941764D01*
X137078571Y-68941764D02*
X137078571Y-68191764D01*
X137078571Y-68191764D02*
X137007143Y-68298907D01*
X137007143Y-68298907D02*
X136935714Y-68370335D01*
X136935714Y-68370335D02*
X136864286Y-68406050D01*
X127217856Y-67541764D02*
X126967856Y-67184621D01*
X126789285Y-67541764D02*
X126789285Y-66791764D01*
X126789285Y-66791764D02*
X127074999Y-66791764D01*
X127074999Y-66791764D02*
X127146428Y-66827478D01*
X127146428Y-66827478D02*
X127182142Y-66863192D01*
X127182142Y-66863192D02*
X127217856Y-66934621D01*
X127217856Y-66934621D02*
X127217856Y-67041764D01*
X127217856Y-67041764D02*
X127182142Y-67113192D01*
X127182142Y-67113192D02*
X127146428Y-67148907D01*
X127146428Y-67148907D02*
X127074999Y-67184621D01*
X127074999Y-67184621D02*
X126789285Y-67184621D01*
X127932142Y-67541764D02*
X127503571Y-67541764D01*
X127717856Y-67541764D02*
X127717856Y-66791764D01*
X127717856Y-66791764D02*
X127646428Y-66898907D01*
X127646428Y-66898907D02*
X127574999Y-66970335D01*
X127574999Y-66970335D02*
X127503571Y-67006050D01*
X128182142Y-66791764D02*
X128682142Y-66791764D01*
X128682142Y-66791764D02*
X128360714Y-67541764D01*
X131846428Y-84441764D02*
X131846428Y-83691764D01*
X131846428Y-83691764D02*
X132024999Y-83691764D01*
X132024999Y-83691764D02*
X132132142Y-83727478D01*
X132132142Y-83727478D02*
X132203571Y-83798907D01*
X132203571Y-83798907D02*
X132239285Y-83870335D01*
X132239285Y-83870335D02*
X132274999Y-84013192D01*
X132274999Y-84013192D02*
X132274999Y-84120335D01*
X132274999Y-84120335D02*
X132239285Y-84263192D01*
X132239285Y-84263192D02*
X132203571Y-84334621D01*
X132203571Y-84334621D02*
X132132142Y-84406050D01*
X132132142Y-84406050D02*
X132024999Y-84441764D01*
X132024999Y-84441764D02*
X131846428Y-84441764D01*
X132632142Y-84441764D02*
X132774999Y-84441764D01*
X132774999Y-84441764D02*
X132846428Y-84406050D01*
X132846428Y-84406050D02*
X132882142Y-84370335D01*
X132882142Y-84370335D02*
X132953571Y-84263192D01*
X132953571Y-84263192D02*
X132989285Y-84120335D01*
X132989285Y-84120335D02*
X132989285Y-83834621D01*
X132989285Y-83834621D02*
X132953571Y-83763192D01*
X132953571Y-83763192D02*
X132917857Y-83727478D01*
X132917857Y-83727478D02*
X132846428Y-83691764D01*
X132846428Y-83691764D02*
X132703571Y-83691764D01*
X132703571Y-83691764D02*
X132632142Y-83727478D01*
X132632142Y-83727478D02*
X132596428Y-83763192D01*
X132596428Y-83763192D02*
X132560714Y-83834621D01*
X132560714Y-83834621D02*
X132560714Y-84013192D01*
X132560714Y-84013192D02*
X132596428Y-84084621D01*
X132596428Y-84084621D02*
X132632142Y-84120335D01*
X132632142Y-84120335D02*
X132703571Y-84156050D01*
X132703571Y-84156050D02*
X132846428Y-84156050D01*
X132846428Y-84156050D02*
X132917857Y-84120335D01*
X132917857Y-84120335D02*
X132953571Y-84084621D01*
X132953571Y-84084621D02*
X132989285Y-84013192D01*
X127217856Y-68541764D02*
X126967856Y-68184621D01*
X126789285Y-68541764D02*
X126789285Y-67791764D01*
X126789285Y-67791764D02*
X127074999Y-67791764D01*
X127074999Y-67791764D02*
X127146428Y-67827478D01*
X127146428Y-67827478D02*
X127182142Y-67863192D01*
X127182142Y-67863192D02*
X127217856Y-67934621D01*
X127217856Y-67934621D02*
X127217856Y-68041764D01*
X127217856Y-68041764D02*
X127182142Y-68113192D01*
X127182142Y-68113192D02*
X127146428Y-68148907D01*
X127146428Y-68148907D02*
X127074999Y-68184621D01*
X127074999Y-68184621D02*
X126789285Y-68184621D01*
X127932142Y-68541764D02*
X127503571Y-68541764D01*
X127717856Y-68541764D02*
X127717856Y-67791764D01*
X127717856Y-67791764D02*
X127646428Y-67898907D01*
X127646428Y-67898907D02*
X127574999Y-67970335D01*
X127574999Y-67970335D02*
X127503571Y-68006050D01*
X128575000Y-67791764D02*
X128432142Y-67791764D01*
X128432142Y-67791764D02*
X128360714Y-67827478D01*
X128360714Y-67827478D02*
X128325000Y-67863192D01*
X128325000Y-67863192D02*
X128253571Y-67970335D01*
X128253571Y-67970335D02*
X128217857Y-68113192D01*
X128217857Y-68113192D02*
X128217857Y-68398907D01*
X128217857Y-68398907D02*
X128253571Y-68470335D01*
X128253571Y-68470335D02*
X128289285Y-68506050D01*
X128289285Y-68506050D02*
X128360714Y-68541764D01*
X128360714Y-68541764D02*
X128503571Y-68541764D01*
X128503571Y-68541764D02*
X128575000Y-68506050D01*
X128575000Y-68506050D02*
X128610714Y-68470335D01*
X128610714Y-68470335D02*
X128646428Y-68398907D01*
X128646428Y-68398907D02*
X128646428Y-68220335D01*
X128646428Y-68220335D02*
X128610714Y-68148907D01*
X128610714Y-68148907D02*
X128575000Y-68113192D01*
X128575000Y-68113192D02*
X128503571Y-68077478D01*
X128503571Y-68077478D02*
X128360714Y-68077478D01*
X128360714Y-68077478D02*
X128289285Y-68113192D01*
X128289285Y-68113192D02*
X128253571Y-68148907D01*
X128253571Y-68148907D02*
X128217857Y-68220335D01*
X142746428Y-80741764D02*
X142746428Y-79991764D01*
X142746428Y-79991764D02*
X142924999Y-79991764D01*
X142924999Y-79991764D02*
X143032142Y-80027478D01*
X143032142Y-80027478D02*
X143103571Y-80098907D01*
X143103571Y-80098907D02*
X143139285Y-80170335D01*
X143139285Y-80170335D02*
X143174999Y-80313192D01*
X143174999Y-80313192D02*
X143174999Y-80420335D01*
X143174999Y-80420335D02*
X143139285Y-80563192D01*
X143139285Y-80563192D02*
X143103571Y-80634621D01*
X143103571Y-80634621D02*
X143032142Y-80706050D01*
X143032142Y-80706050D02*
X142924999Y-80741764D01*
X142924999Y-80741764D02*
X142746428Y-80741764D01*
X143853571Y-79991764D02*
X143496428Y-79991764D01*
X143496428Y-79991764D02*
X143460714Y-80348907D01*
X143460714Y-80348907D02*
X143496428Y-80313192D01*
X143496428Y-80313192D02*
X143567857Y-80277478D01*
X143567857Y-80277478D02*
X143746428Y-80277478D01*
X143746428Y-80277478D02*
X143817857Y-80313192D01*
X143817857Y-80313192D02*
X143853571Y-80348907D01*
X143853571Y-80348907D02*
X143889285Y-80420335D01*
X143889285Y-80420335D02*
X143889285Y-80598907D01*
X143889285Y-80598907D02*
X143853571Y-80670335D01*
X143853571Y-80670335D02*
X143817857Y-80706050D01*
X143817857Y-80706050D02*
X143746428Y-80741764D01*
X143746428Y-80741764D02*
X143567857Y-80741764D01*
X143567857Y-80741764D02*
X143496428Y-80706050D01*
X143496428Y-80706050D02*
X143460714Y-80670335D01*
X133046428Y-64641764D02*
X133046428Y-63891764D01*
X133046428Y-63891764D02*
X133224999Y-63891764D01*
X133224999Y-63891764D02*
X133332142Y-63927478D01*
X133332142Y-63927478D02*
X133403571Y-63998907D01*
X133403571Y-63998907D02*
X133439285Y-64070335D01*
X133439285Y-64070335D02*
X133474999Y-64213192D01*
X133474999Y-64213192D02*
X133474999Y-64320335D01*
X133474999Y-64320335D02*
X133439285Y-64463192D01*
X133439285Y-64463192D02*
X133403571Y-64534621D01*
X133403571Y-64534621D02*
X133332142Y-64606050D01*
X133332142Y-64606050D02*
X133224999Y-64641764D01*
X133224999Y-64641764D02*
X133046428Y-64641764D01*
X133724999Y-63891764D02*
X134189285Y-63891764D01*
X134189285Y-63891764D02*
X133939285Y-64177478D01*
X133939285Y-64177478D02*
X134046428Y-64177478D01*
X134046428Y-64177478D02*
X134117857Y-64213192D01*
X134117857Y-64213192D02*
X134153571Y-64248907D01*
X134153571Y-64248907D02*
X134189285Y-64320335D01*
X134189285Y-64320335D02*
X134189285Y-64498907D01*
X134189285Y-64498907D02*
X134153571Y-64570335D01*
X134153571Y-64570335D02*
X134117857Y-64606050D01*
X134117857Y-64606050D02*
X134046428Y-64641764D01*
X134046428Y-64641764D02*
X133832142Y-64641764D01*
X133832142Y-64641764D02*
X133760714Y-64606050D01*
X133760714Y-64606050D02*
X133724999Y-64570335D01*
X139941764Y-79282143D02*
X139584621Y-79532143D01*
X139941764Y-79710714D02*
X139191764Y-79710714D01*
X139191764Y-79710714D02*
X139191764Y-79425000D01*
X139191764Y-79425000D02*
X139227478Y-79353571D01*
X139227478Y-79353571D02*
X139263192Y-79317857D01*
X139263192Y-79317857D02*
X139334621Y-79282143D01*
X139334621Y-79282143D02*
X139441764Y-79282143D01*
X139441764Y-79282143D02*
X139513192Y-79317857D01*
X139513192Y-79317857D02*
X139548907Y-79353571D01*
X139548907Y-79353571D02*
X139584621Y-79425000D01*
X139584621Y-79425000D02*
X139584621Y-79710714D01*
X139941764Y-78567857D02*
X139941764Y-78996428D01*
X139941764Y-78782143D02*
X139191764Y-78782143D01*
X139191764Y-78782143D02*
X139298907Y-78853571D01*
X139298907Y-78853571D02*
X139370335Y-78925000D01*
X139370335Y-78925000D02*
X139406050Y-78996428D01*
X139513192Y-78139285D02*
X139477478Y-78210714D01*
X139477478Y-78210714D02*
X139441764Y-78246428D01*
X139441764Y-78246428D02*
X139370335Y-78282142D01*
X139370335Y-78282142D02*
X139334621Y-78282142D01*
X139334621Y-78282142D02*
X139263192Y-78246428D01*
X139263192Y-78246428D02*
X139227478Y-78210714D01*
X139227478Y-78210714D02*
X139191764Y-78139285D01*
X139191764Y-78139285D02*
X139191764Y-77996428D01*
X139191764Y-77996428D02*
X139227478Y-77925000D01*
X139227478Y-77925000D02*
X139263192Y-77889285D01*
X139263192Y-77889285D02*
X139334621Y-77853571D01*
X139334621Y-77853571D02*
X139370335Y-77853571D01*
X139370335Y-77853571D02*
X139441764Y-77889285D01*
X139441764Y-77889285D02*
X139477478Y-77925000D01*
X139477478Y-77925000D02*
X139513192Y-77996428D01*
X139513192Y-77996428D02*
X139513192Y-78139285D01*
X139513192Y-78139285D02*
X139548907Y-78210714D01*
X139548907Y-78210714D02*
X139584621Y-78246428D01*
X139584621Y-78246428D02*
X139656050Y-78282142D01*
X139656050Y-78282142D02*
X139798907Y-78282142D01*
X139798907Y-78282142D02*
X139870335Y-78246428D01*
X139870335Y-78246428D02*
X139906050Y-78210714D01*
X139906050Y-78210714D02*
X139941764Y-78139285D01*
X139941764Y-78139285D02*
X139941764Y-77996428D01*
X139941764Y-77996428D02*
X139906050Y-77925000D01*
X139906050Y-77925000D02*
X139870335Y-77889285D01*
X139870335Y-77889285D02*
X139798907Y-77853571D01*
X139798907Y-77853571D02*
X139656050Y-77853571D01*
X139656050Y-77853571D02*
X139584621Y-77889285D01*
X139584621Y-77889285D02*
X139548907Y-77925000D01*
X139548907Y-77925000D02*
X139513192Y-77996428D01*
X138141764Y-65525000D02*
X137784621Y-65775000D01*
X138141764Y-65953571D02*
X137391764Y-65953571D01*
X137391764Y-65953571D02*
X137391764Y-65667857D01*
X137391764Y-65667857D02*
X137427478Y-65596428D01*
X137427478Y-65596428D02*
X137463192Y-65560714D01*
X137463192Y-65560714D02*
X137534621Y-65525000D01*
X137534621Y-65525000D02*
X137641764Y-65525000D01*
X137641764Y-65525000D02*
X137713192Y-65560714D01*
X137713192Y-65560714D02*
X137748907Y-65596428D01*
X137748907Y-65596428D02*
X137784621Y-65667857D01*
X137784621Y-65667857D02*
X137784621Y-65953571D01*
X137641764Y-64882143D02*
X138141764Y-64882143D01*
X137356050Y-65060714D02*
X137891764Y-65239285D01*
X137891764Y-65239285D02*
X137891764Y-64775000D01*
X139941764Y-83382143D02*
X139584621Y-83632143D01*
X139941764Y-83810714D02*
X139191764Y-83810714D01*
X139191764Y-83810714D02*
X139191764Y-83525000D01*
X139191764Y-83525000D02*
X139227478Y-83453571D01*
X139227478Y-83453571D02*
X139263192Y-83417857D01*
X139263192Y-83417857D02*
X139334621Y-83382143D01*
X139334621Y-83382143D02*
X139441764Y-83382143D01*
X139441764Y-83382143D02*
X139513192Y-83417857D01*
X139513192Y-83417857D02*
X139548907Y-83453571D01*
X139548907Y-83453571D02*
X139584621Y-83525000D01*
X139584621Y-83525000D02*
X139584621Y-83810714D01*
X139941764Y-82667857D02*
X139941764Y-83096428D01*
X139941764Y-82882143D02*
X139191764Y-82882143D01*
X139191764Y-82882143D02*
X139298907Y-82953571D01*
X139298907Y-82953571D02*
X139370335Y-83025000D01*
X139370335Y-83025000D02*
X139406050Y-83096428D01*
X139941764Y-81953571D02*
X139941764Y-82382142D01*
X139941764Y-82167857D02*
X139191764Y-82167857D01*
X139191764Y-82167857D02*
X139298907Y-82239285D01*
X139298907Y-82239285D02*
X139370335Y-82310714D01*
X139370335Y-82310714D02*
X139406050Y-82382142D01*
X141746764Y-92988571D02*
X140996764Y-92988571D01*
X140996764Y-92988571D02*
X140996764Y-92810000D01*
X140996764Y-92810000D02*
X141032478Y-92702857D01*
X141032478Y-92702857D02*
X141103907Y-92631428D01*
X141103907Y-92631428D02*
X141175335Y-92595714D01*
X141175335Y-92595714D02*
X141318192Y-92560000D01*
X141318192Y-92560000D02*
X141425335Y-92560000D01*
X141425335Y-92560000D02*
X141568192Y-92595714D01*
X141568192Y-92595714D02*
X141639621Y-92631428D01*
X141639621Y-92631428D02*
X141711050Y-92702857D01*
X141711050Y-92702857D02*
X141746764Y-92810000D01*
X141746764Y-92810000D02*
X141746764Y-92988571D01*
X141068192Y-92274285D02*
X141032478Y-92238571D01*
X141032478Y-92238571D02*
X140996764Y-92167143D01*
X140996764Y-92167143D02*
X140996764Y-91988571D01*
X140996764Y-91988571D02*
X141032478Y-91917143D01*
X141032478Y-91917143D02*
X141068192Y-91881428D01*
X141068192Y-91881428D02*
X141139621Y-91845714D01*
X141139621Y-91845714D02*
X141211050Y-91845714D01*
X141211050Y-91845714D02*
X141318192Y-91881428D01*
X141318192Y-91881428D02*
X141746764Y-92310000D01*
X141746764Y-92310000D02*
X141746764Y-91845714D01*
X135241764Y-71010714D02*
X134884621Y-71260714D01*
X135241764Y-71439285D02*
X134491764Y-71439285D01*
X134491764Y-71439285D02*
X134491764Y-71153571D01*
X134491764Y-71153571D02*
X134527478Y-71082142D01*
X134527478Y-71082142D02*
X134563192Y-71046428D01*
X134563192Y-71046428D02*
X134634621Y-71010714D01*
X134634621Y-71010714D02*
X134741764Y-71010714D01*
X134741764Y-71010714D02*
X134813192Y-71046428D01*
X134813192Y-71046428D02*
X134848907Y-71082142D01*
X134848907Y-71082142D02*
X134884621Y-71153571D01*
X134884621Y-71153571D02*
X134884621Y-71439285D01*
X134491764Y-70796428D02*
X134491764Y-70367857D01*
X135241764Y-70582142D02*
X134491764Y-70582142D01*
X135241764Y-69724999D02*
X135241764Y-70153570D01*
X135241764Y-69939285D02*
X134491764Y-69939285D01*
X134491764Y-69939285D02*
X134598907Y-70010713D01*
X134598907Y-70010713D02*
X134670335Y-70082142D01*
X134670335Y-70082142D02*
X134706050Y-70153570D01*
X140228571Y-87113192D02*
X140157142Y-87077478D01*
X140157142Y-87077478D02*
X140085714Y-87006050D01*
X140085714Y-87006050D02*
X139978571Y-86898907D01*
X139978571Y-86898907D02*
X139907142Y-86863192D01*
X139907142Y-86863192D02*
X139835714Y-86863192D01*
X139871428Y-87041764D02*
X139800000Y-87006050D01*
X139800000Y-87006050D02*
X139728571Y-86934621D01*
X139728571Y-86934621D02*
X139692857Y-86791764D01*
X139692857Y-86791764D02*
X139692857Y-86541764D01*
X139692857Y-86541764D02*
X139728571Y-86398907D01*
X139728571Y-86398907D02*
X139800000Y-86327478D01*
X139800000Y-86327478D02*
X139871428Y-86291764D01*
X139871428Y-86291764D02*
X140014285Y-86291764D01*
X140014285Y-86291764D02*
X140085714Y-86327478D01*
X140085714Y-86327478D02*
X140157142Y-86398907D01*
X140157142Y-86398907D02*
X140192857Y-86541764D01*
X140192857Y-86541764D02*
X140192857Y-86791764D01*
X140192857Y-86791764D02*
X140157142Y-86934621D01*
X140157142Y-86934621D02*
X140085714Y-87006050D01*
X140085714Y-87006050D02*
X140014285Y-87041764D01*
X140014285Y-87041764D02*
X139871428Y-87041764D01*
X140442856Y-86291764D02*
X140907142Y-86291764D01*
X140907142Y-86291764D02*
X140657142Y-86577478D01*
X140657142Y-86577478D02*
X140764285Y-86577478D01*
X140764285Y-86577478D02*
X140835714Y-86613192D01*
X140835714Y-86613192D02*
X140871428Y-86648907D01*
X140871428Y-86648907D02*
X140907142Y-86720335D01*
X140907142Y-86720335D02*
X140907142Y-86898907D01*
X140907142Y-86898907D02*
X140871428Y-86970335D01*
X140871428Y-86970335D02*
X140835714Y-87006050D01*
X140835714Y-87006050D02*
X140764285Y-87041764D01*
X140764285Y-87041764D02*
X140549999Y-87041764D01*
X140549999Y-87041764D02*
X140478571Y-87006050D01*
X140478571Y-87006050D02*
X140442856Y-86970335D01*
X127141764Y-77182143D02*
X126784621Y-77432143D01*
X127141764Y-77610714D02*
X126391764Y-77610714D01*
X126391764Y-77610714D02*
X126391764Y-77325000D01*
X126391764Y-77325000D02*
X126427478Y-77253571D01*
X126427478Y-77253571D02*
X126463192Y-77217857D01*
X126463192Y-77217857D02*
X126534621Y-77182143D01*
X126534621Y-77182143D02*
X126641764Y-77182143D01*
X126641764Y-77182143D02*
X126713192Y-77217857D01*
X126713192Y-77217857D02*
X126748907Y-77253571D01*
X126748907Y-77253571D02*
X126784621Y-77325000D01*
X126784621Y-77325000D02*
X126784621Y-77610714D01*
X127141764Y-76467857D02*
X127141764Y-76896428D01*
X127141764Y-76682143D02*
X126391764Y-76682143D01*
X126391764Y-76682143D02*
X126498907Y-76753571D01*
X126498907Y-76753571D02*
X126570335Y-76825000D01*
X126570335Y-76825000D02*
X126606050Y-76896428D01*
X126391764Y-76217857D02*
X126391764Y-75753571D01*
X126391764Y-75753571D02*
X126677478Y-76003571D01*
X126677478Y-76003571D02*
X126677478Y-75896428D01*
X126677478Y-75896428D02*
X126713192Y-75825000D01*
X126713192Y-75825000D02*
X126748907Y-75789285D01*
X126748907Y-75789285D02*
X126820335Y-75753571D01*
X126820335Y-75753571D02*
X126998907Y-75753571D01*
X126998907Y-75753571D02*
X127070335Y-75789285D01*
X127070335Y-75789285D02*
X127106050Y-75825000D01*
X127106050Y-75825000D02*
X127141764Y-75896428D01*
X127141764Y-75896428D02*
X127141764Y-76110714D01*
X127141764Y-76110714D02*
X127106050Y-76182142D01*
X127106050Y-76182142D02*
X127070335Y-76217857D01*
X127328571Y-90513192D02*
X127257142Y-90477478D01*
X127257142Y-90477478D02*
X127185714Y-90406050D01*
X127185714Y-90406050D02*
X127078571Y-90298907D01*
X127078571Y-90298907D02*
X127007142Y-90263192D01*
X127007142Y-90263192D02*
X126935714Y-90263192D01*
X126971428Y-90441764D02*
X126900000Y-90406050D01*
X126900000Y-90406050D02*
X126828571Y-90334621D01*
X126828571Y-90334621D02*
X126792857Y-90191764D01*
X126792857Y-90191764D02*
X126792857Y-89941764D01*
X126792857Y-89941764D02*
X126828571Y-89798907D01*
X126828571Y-89798907D02*
X126900000Y-89727478D01*
X126900000Y-89727478D02*
X126971428Y-89691764D01*
X126971428Y-89691764D02*
X127114285Y-89691764D01*
X127114285Y-89691764D02*
X127185714Y-89727478D01*
X127185714Y-89727478D02*
X127257142Y-89798907D01*
X127257142Y-89798907D02*
X127292857Y-89941764D01*
X127292857Y-89941764D02*
X127292857Y-90191764D01*
X127292857Y-90191764D02*
X127257142Y-90334621D01*
X127257142Y-90334621D02*
X127185714Y-90406050D01*
X127185714Y-90406050D02*
X127114285Y-90441764D01*
X127114285Y-90441764D02*
X126971428Y-90441764D01*
X127578571Y-89763192D02*
X127614285Y-89727478D01*
X127614285Y-89727478D02*
X127685714Y-89691764D01*
X127685714Y-89691764D02*
X127864285Y-89691764D01*
X127864285Y-89691764D02*
X127935714Y-89727478D01*
X127935714Y-89727478D02*
X127971428Y-89763192D01*
X127971428Y-89763192D02*
X128007142Y-89834621D01*
X128007142Y-89834621D02*
X128007142Y-89906050D01*
X128007142Y-89906050D02*
X127971428Y-90013192D01*
X127971428Y-90013192D02*
X127542856Y-90441764D01*
X127542856Y-90441764D02*
X128007142Y-90441764D01*
X130846428Y-64641764D02*
X130846428Y-63891764D01*
X130846428Y-63891764D02*
X131024999Y-63891764D01*
X131024999Y-63891764D02*
X131132142Y-63927478D01*
X131132142Y-63927478D02*
X131203571Y-63998907D01*
X131203571Y-63998907D02*
X131239285Y-64070335D01*
X131239285Y-64070335D02*
X131274999Y-64213192D01*
X131274999Y-64213192D02*
X131274999Y-64320335D01*
X131274999Y-64320335D02*
X131239285Y-64463192D01*
X131239285Y-64463192D02*
X131203571Y-64534621D01*
X131203571Y-64534621D02*
X131132142Y-64606050D01*
X131132142Y-64606050D02*
X131024999Y-64641764D01*
X131024999Y-64641764D02*
X130846428Y-64641764D01*
X131703571Y-64213192D02*
X131632142Y-64177478D01*
X131632142Y-64177478D02*
X131596428Y-64141764D01*
X131596428Y-64141764D02*
X131560714Y-64070335D01*
X131560714Y-64070335D02*
X131560714Y-64034621D01*
X131560714Y-64034621D02*
X131596428Y-63963192D01*
X131596428Y-63963192D02*
X131632142Y-63927478D01*
X131632142Y-63927478D02*
X131703571Y-63891764D01*
X131703571Y-63891764D02*
X131846428Y-63891764D01*
X131846428Y-63891764D02*
X131917857Y-63927478D01*
X131917857Y-63927478D02*
X131953571Y-63963192D01*
X131953571Y-63963192D02*
X131989285Y-64034621D01*
X131989285Y-64034621D02*
X131989285Y-64070335D01*
X131989285Y-64070335D02*
X131953571Y-64141764D01*
X131953571Y-64141764D02*
X131917857Y-64177478D01*
X131917857Y-64177478D02*
X131846428Y-64213192D01*
X131846428Y-64213192D02*
X131703571Y-64213192D01*
X131703571Y-64213192D02*
X131632142Y-64248907D01*
X131632142Y-64248907D02*
X131596428Y-64284621D01*
X131596428Y-64284621D02*
X131560714Y-64356050D01*
X131560714Y-64356050D02*
X131560714Y-64498907D01*
X131560714Y-64498907D02*
X131596428Y-64570335D01*
X131596428Y-64570335D02*
X131632142Y-64606050D01*
X131632142Y-64606050D02*
X131703571Y-64641764D01*
X131703571Y-64641764D02*
X131846428Y-64641764D01*
X131846428Y-64641764D02*
X131917857Y-64606050D01*
X131917857Y-64606050D02*
X131953571Y-64570335D01*
X131953571Y-64570335D02*
X131989285Y-64498907D01*
X131989285Y-64498907D02*
X131989285Y-64356050D01*
X131989285Y-64356050D02*
X131953571Y-64284621D01*
X131953571Y-64284621D02*
X131917857Y-64248907D01*
X131917857Y-64248907D02*
X131846428Y-64213192D01*
X126970335Y-72125000D02*
X127006050Y-72160714D01*
X127006050Y-72160714D02*
X127041764Y-72267857D01*
X127041764Y-72267857D02*
X127041764Y-72339285D01*
X127041764Y-72339285D02*
X127006050Y-72446428D01*
X127006050Y-72446428D02*
X126934621Y-72517857D01*
X126934621Y-72517857D02*
X126863192Y-72553571D01*
X126863192Y-72553571D02*
X126720335Y-72589285D01*
X126720335Y-72589285D02*
X126613192Y-72589285D01*
X126613192Y-72589285D02*
X126470335Y-72553571D01*
X126470335Y-72553571D02*
X126398907Y-72517857D01*
X126398907Y-72517857D02*
X126327478Y-72446428D01*
X126327478Y-72446428D02*
X126291764Y-72339285D01*
X126291764Y-72339285D02*
X126291764Y-72267857D01*
X126291764Y-72267857D02*
X126327478Y-72160714D01*
X126327478Y-72160714D02*
X126363192Y-72125000D01*
X127041764Y-71767857D02*
X127041764Y-71625000D01*
X127041764Y-71625000D02*
X127006050Y-71553571D01*
X127006050Y-71553571D02*
X126970335Y-71517857D01*
X126970335Y-71517857D02*
X126863192Y-71446428D01*
X126863192Y-71446428D02*
X126720335Y-71410714D01*
X126720335Y-71410714D02*
X126434621Y-71410714D01*
X126434621Y-71410714D02*
X126363192Y-71446428D01*
X126363192Y-71446428D02*
X126327478Y-71482143D01*
X126327478Y-71482143D02*
X126291764Y-71553571D01*
X126291764Y-71553571D02*
X126291764Y-71696428D01*
X126291764Y-71696428D02*
X126327478Y-71767857D01*
X126327478Y-71767857D02*
X126363192Y-71803571D01*
X126363192Y-71803571D02*
X126434621Y-71839285D01*
X126434621Y-71839285D02*
X126613192Y-71839285D01*
X126613192Y-71839285D02*
X126684621Y-71803571D01*
X126684621Y-71803571D02*
X126720335Y-71767857D01*
X126720335Y-71767857D02*
X126756050Y-71696428D01*
X126756050Y-71696428D02*
X126756050Y-71553571D01*
X126756050Y-71553571D02*
X126720335Y-71482143D01*
X126720335Y-71482143D02*
X126684621Y-71446428D01*
X126684621Y-71446428D02*
X126613192Y-71410714D01*
X136941764Y-65582143D02*
X136584621Y-65832143D01*
X136941764Y-66010714D02*
X136191764Y-66010714D01*
X136191764Y-66010714D02*
X136191764Y-65725000D01*
X136191764Y-65725000D02*
X136227478Y-65653571D01*
X136227478Y-65653571D02*
X136263192Y-65617857D01*
X136263192Y-65617857D02*
X136334621Y-65582143D01*
X136334621Y-65582143D02*
X136441764Y-65582143D01*
X136441764Y-65582143D02*
X136513192Y-65617857D01*
X136513192Y-65617857D02*
X136548907Y-65653571D01*
X136548907Y-65653571D02*
X136584621Y-65725000D01*
X136584621Y-65725000D02*
X136584621Y-66010714D01*
X136941764Y-64867857D02*
X136941764Y-65296428D01*
X136941764Y-65082143D02*
X136191764Y-65082143D01*
X136191764Y-65082143D02*
X136298907Y-65153571D01*
X136298907Y-65153571D02*
X136370335Y-65225000D01*
X136370335Y-65225000D02*
X136406050Y-65296428D01*
X136191764Y-64189285D02*
X136191764Y-64546428D01*
X136191764Y-64546428D02*
X136548907Y-64582142D01*
X136548907Y-64582142D02*
X136513192Y-64546428D01*
X136513192Y-64546428D02*
X136477478Y-64475000D01*
X136477478Y-64475000D02*
X136477478Y-64296428D01*
X136477478Y-64296428D02*
X136513192Y-64225000D01*
X136513192Y-64225000D02*
X136548907Y-64189285D01*
X136548907Y-64189285D02*
X136620335Y-64153571D01*
X136620335Y-64153571D02*
X136798907Y-64153571D01*
X136798907Y-64153571D02*
X136870335Y-64189285D01*
X136870335Y-64189285D02*
X136906050Y-64225000D01*
X136906050Y-64225000D02*
X136941764Y-64296428D01*
X136941764Y-64296428D02*
X136941764Y-64475000D01*
X136941764Y-64475000D02*
X136906050Y-64546428D01*
X136906050Y-64546428D02*
X136870335Y-64582142D01*
D10*
X135933333Y-78689580D02*
X135885714Y-78737200D01*
X135885714Y-78737200D02*
X135742857Y-78784819D01*
X135742857Y-78784819D02*
X135647619Y-78784819D01*
X135647619Y-78784819D02*
X135504762Y-78737200D01*
X135504762Y-78737200D02*
X135409524Y-78641961D01*
X135409524Y-78641961D02*
X135361905Y-78546723D01*
X135361905Y-78546723D02*
X135314286Y-78356247D01*
X135314286Y-78356247D02*
X135314286Y-78213390D01*
X135314286Y-78213390D02*
X135361905Y-78022914D01*
X135361905Y-78022914D02*
X135409524Y-77927676D01*
X135409524Y-77927676D02*
X135504762Y-77832438D01*
X135504762Y-77832438D02*
X135647619Y-77784819D01*
X135647619Y-77784819D02*
X135742857Y-77784819D01*
X135742857Y-77784819D02*
X135885714Y-77832438D01*
X135885714Y-77832438D02*
X135933333Y-77880057D01*
X136266667Y-77784819D02*
X136933333Y-77784819D01*
X136933333Y-77784819D02*
X136504762Y-78784819D01*
D11*
X129817856Y-95541764D02*
X129567856Y-95184621D01*
X129389285Y-95541764D02*
X129389285Y-94791764D01*
X129389285Y-94791764D02*
X129674999Y-94791764D01*
X129674999Y-94791764D02*
X129746428Y-94827478D01*
X129746428Y-94827478D02*
X129782142Y-94863192D01*
X129782142Y-94863192D02*
X129817856Y-94934621D01*
X129817856Y-94934621D02*
X129817856Y-95041764D01*
X129817856Y-95041764D02*
X129782142Y-95113192D01*
X129782142Y-95113192D02*
X129746428Y-95148907D01*
X129746428Y-95148907D02*
X129674999Y-95184621D01*
X129674999Y-95184621D02*
X129389285Y-95184621D01*
X130532142Y-95541764D02*
X130103571Y-95541764D01*
X130317856Y-95541764D02*
X130317856Y-94791764D01*
X130317856Y-94791764D02*
X130246428Y-94898907D01*
X130246428Y-94898907D02*
X130174999Y-94970335D01*
X130174999Y-94970335D02*
X130103571Y-95006050D01*
X131175000Y-95041764D02*
X131175000Y-95541764D01*
X130996428Y-94756050D02*
X130817857Y-95291764D01*
X130817857Y-95291764D02*
X131282142Y-95291764D01*
X132317856Y-79570335D02*
X132282142Y-79606050D01*
X132282142Y-79606050D02*
X132174999Y-79641764D01*
X132174999Y-79641764D02*
X132103571Y-79641764D01*
X132103571Y-79641764D02*
X131996428Y-79606050D01*
X131996428Y-79606050D02*
X131924999Y-79534621D01*
X131924999Y-79534621D02*
X131889285Y-79463192D01*
X131889285Y-79463192D02*
X131853571Y-79320335D01*
X131853571Y-79320335D02*
X131853571Y-79213192D01*
X131853571Y-79213192D02*
X131889285Y-79070335D01*
X131889285Y-79070335D02*
X131924999Y-78998907D01*
X131924999Y-78998907D02*
X131996428Y-78927478D01*
X131996428Y-78927478D02*
X132103571Y-78891764D01*
X132103571Y-78891764D02*
X132174999Y-78891764D01*
X132174999Y-78891764D02*
X132282142Y-78927478D01*
X132282142Y-78927478D02*
X132317856Y-78963192D01*
X133032142Y-79641764D02*
X132603571Y-79641764D01*
X132817856Y-79641764D02*
X132817856Y-78891764D01*
X132817856Y-78891764D02*
X132746428Y-78998907D01*
X132746428Y-78998907D02*
X132674999Y-79070335D01*
X132674999Y-79070335D02*
X132603571Y-79106050D01*
X133317857Y-78963192D02*
X133353571Y-78927478D01*
X133353571Y-78927478D02*
X133425000Y-78891764D01*
X133425000Y-78891764D02*
X133603571Y-78891764D01*
X133603571Y-78891764D02*
X133675000Y-78927478D01*
X133675000Y-78927478D02*
X133710714Y-78963192D01*
X133710714Y-78963192D02*
X133746428Y-79034621D01*
X133746428Y-79034621D02*
X133746428Y-79106050D01*
X133746428Y-79106050D02*
X133710714Y-79213192D01*
X133710714Y-79213192D02*
X133282142Y-79641764D01*
X133282142Y-79641764D02*
X133746428Y-79641764D01*
X129774999Y-96541764D02*
X129524999Y-96184621D01*
X129346428Y-96541764D02*
X129346428Y-95791764D01*
X129346428Y-95791764D02*
X129632142Y-95791764D01*
X129632142Y-95791764D02*
X129703571Y-95827478D01*
X129703571Y-95827478D02*
X129739285Y-95863192D01*
X129739285Y-95863192D02*
X129774999Y-95934621D01*
X129774999Y-95934621D02*
X129774999Y-96041764D01*
X129774999Y-96041764D02*
X129739285Y-96113192D01*
X129739285Y-96113192D02*
X129703571Y-96148907D01*
X129703571Y-96148907D02*
X129632142Y-96184621D01*
X129632142Y-96184621D02*
X129346428Y-96184621D01*
X130417857Y-95791764D02*
X130274999Y-95791764D01*
X130274999Y-95791764D02*
X130203571Y-95827478D01*
X130203571Y-95827478D02*
X130167857Y-95863192D01*
X130167857Y-95863192D02*
X130096428Y-95970335D01*
X130096428Y-95970335D02*
X130060714Y-96113192D01*
X130060714Y-96113192D02*
X130060714Y-96398907D01*
X130060714Y-96398907D02*
X130096428Y-96470335D01*
X130096428Y-96470335D02*
X130132142Y-96506050D01*
X130132142Y-96506050D02*
X130203571Y-96541764D01*
X130203571Y-96541764D02*
X130346428Y-96541764D01*
X130346428Y-96541764D02*
X130417857Y-96506050D01*
X130417857Y-96506050D02*
X130453571Y-96470335D01*
X130453571Y-96470335D02*
X130489285Y-96398907D01*
X130489285Y-96398907D02*
X130489285Y-96220335D01*
X130489285Y-96220335D02*
X130453571Y-96148907D01*
X130453571Y-96148907D02*
X130417857Y-96113192D01*
X130417857Y-96113192D02*
X130346428Y-96077478D01*
X130346428Y-96077478D02*
X130203571Y-96077478D01*
X130203571Y-96077478D02*
X130132142Y-96113192D01*
X130132142Y-96113192D02*
X130096428Y-96148907D01*
X130096428Y-96148907D02*
X130060714Y-96220335D01*
X129941764Y-77182143D02*
X129584621Y-77432143D01*
X129941764Y-77610714D02*
X129191764Y-77610714D01*
X129191764Y-77610714D02*
X129191764Y-77325000D01*
X129191764Y-77325000D02*
X129227478Y-77253571D01*
X129227478Y-77253571D02*
X129263192Y-77217857D01*
X129263192Y-77217857D02*
X129334621Y-77182143D01*
X129334621Y-77182143D02*
X129441764Y-77182143D01*
X129441764Y-77182143D02*
X129513192Y-77217857D01*
X129513192Y-77217857D02*
X129548907Y-77253571D01*
X129548907Y-77253571D02*
X129584621Y-77325000D01*
X129584621Y-77325000D02*
X129584621Y-77610714D01*
X129941764Y-76467857D02*
X129941764Y-76896428D01*
X129941764Y-76682143D02*
X129191764Y-76682143D01*
X129191764Y-76682143D02*
X129298907Y-76753571D01*
X129298907Y-76753571D02*
X129370335Y-76825000D01*
X129370335Y-76825000D02*
X129406050Y-76896428D01*
X129263192Y-76182142D02*
X129227478Y-76146428D01*
X129227478Y-76146428D02*
X129191764Y-76075000D01*
X129191764Y-76075000D02*
X129191764Y-75896428D01*
X129191764Y-75896428D02*
X129227478Y-75825000D01*
X129227478Y-75825000D02*
X129263192Y-75789285D01*
X129263192Y-75789285D02*
X129334621Y-75753571D01*
X129334621Y-75753571D02*
X129406050Y-75753571D01*
X129406050Y-75753571D02*
X129513192Y-75789285D01*
X129513192Y-75789285D02*
X129941764Y-76217857D01*
X129941764Y-76217857D02*
X129941764Y-75753571D01*
X128846428Y-64641764D02*
X128846428Y-63891764D01*
X128846428Y-63891764D02*
X129024999Y-63891764D01*
X129024999Y-63891764D02*
X129132142Y-63927478D01*
X129132142Y-63927478D02*
X129203571Y-63998907D01*
X129203571Y-63998907D02*
X129239285Y-64070335D01*
X129239285Y-64070335D02*
X129274999Y-64213192D01*
X129274999Y-64213192D02*
X129274999Y-64320335D01*
X129274999Y-64320335D02*
X129239285Y-64463192D01*
X129239285Y-64463192D02*
X129203571Y-64534621D01*
X129203571Y-64534621D02*
X129132142Y-64606050D01*
X129132142Y-64606050D02*
X129024999Y-64641764D01*
X129024999Y-64641764D02*
X128846428Y-64641764D01*
X129524999Y-63891764D02*
X130024999Y-63891764D01*
X130024999Y-63891764D02*
X129703571Y-64641764D01*
X133800000Y-94706050D02*
X133907143Y-94741764D01*
X133907143Y-94741764D02*
X134085714Y-94741764D01*
X134085714Y-94741764D02*
X134157143Y-94706050D01*
X134157143Y-94706050D02*
X134192857Y-94670335D01*
X134192857Y-94670335D02*
X134228571Y-94598907D01*
X134228571Y-94598907D02*
X134228571Y-94527478D01*
X134228571Y-94527478D02*
X134192857Y-94456050D01*
X134192857Y-94456050D02*
X134157143Y-94420335D01*
X134157143Y-94420335D02*
X134085714Y-94384621D01*
X134085714Y-94384621D02*
X133942857Y-94348907D01*
X133942857Y-94348907D02*
X133871428Y-94313192D01*
X133871428Y-94313192D02*
X133835714Y-94277478D01*
X133835714Y-94277478D02*
X133800000Y-94206050D01*
X133800000Y-94206050D02*
X133800000Y-94134621D01*
X133800000Y-94134621D02*
X133835714Y-94063192D01*
X133835714Y-94063192D02*
X133871428Y-94027478D01*
X133871428Y-94027478D02*
X133942857Y-93991764D01*
X133942857Y-93991764D02*
X134121428Y-93991764D01*
X134121428Y-93991764D02*
X134228571Y-94027478D01*
X134478571Y-93991764D02*
X134657143Y-94741764D01*
X134657143Y-94741764D02*
X134800000Y-94206050D01*
X134800000Y-94206050D02*
X134942857Y-94741764D01*
X134942857Y-94741764D02*
X135121429Y-93991764D01*
X135800000Y-94741764D02*
X135371429Y-94741764D01*
X135585714Y-94741764D02*
X135585714Y-93991764D01*
X135585714Y-93991764D02*
X135514286Y-94098907D01*
X135514286Y-94098907D02*
X135442857Y-94170335D01*
X135442857Y-94170335D02*
X135371429Y-94206050D01*
X136274999Y-88070335D02*
X136239285Y-88106050D01*
X136239285Y-88106050D02*
X136132142Y-88141764D01*
X136132142Y-88141764D02*
X136060714Y-88141764D01*
X136060714Y-88141764D02*
X135953571Y-88106050D01*
X135953571Y-88106050D02*
X135882142Y-88034621D01*
X135882142Y-88034621D02*
X135846428Y-87963192D01*
X135846428Y-87963192D02*
X135810714Y-87820335D01*
X135810714Y-87820335D02*
X135810714Y-87713192D01*
X135810714Y-87713192D02*
X135846428Y-87570335D01*
X135846428Y-87570335D02*
X135882142Y-87498907D01*
X135882142Y-87498907D02*
X135953571Y-87427478D01*
X135953571Y-87427478D02*
X136060714Y-87391764D01*
X136060714Y-87391764D02*
X136132142Y-87391764D01*
X136132142Y-87391764D02*
X136239285Y-87427478D01*
X136239285Y-87427478D02*
X136274999Y-87463192D01*
X136917857Y-87391764D02*
X136774999Y-87391764D01*
X136774999Y-87391764D02*
X136703571Y-87427478D01*
X136703571Y-87427478D02*
X136667857Y-87463192D01*
X136667857Y-87463192D02*
X136596428Y-87570335D01*
X136596428Y-87570335D02*
X136560714Y-87713192D01*
X136560714Y-87713192D02*
X136560714Y-87998907D01*
X136560714Y-87998907D02*
X136596428Y-88070335D01*
X136596428Y-88070335D02*
X136632142Y-88106050D01*
X136632142Y-88106050D02*
X136703571Y-88141764D01*
X136703571Y-88141764D02*
X136846428Y-88141764D01*
X136846428Y-88141764D02*
X136917857Y-88106050D01*
X136917857Y-88106050D02*
X136953571Y-88070335D01*
X136953571Y-88070335D02*
X136989285Y-87998907D01*
X136989285Y-87998907D02*
X136989285Y-87820335D01*
X136989285Y-87820335D02*
X136953571Y-87748907D01*
X136953571Y-87748907D02*
X136917857Y-87713192D01*
X136917857Y-87713192D02*
X136846428Y-87677478D01*
X136846428Y-87677478D02*
X136703571Y-87677478D01*
X136703571Y-87677478D02*
X136632142Y-87713192D01*
X136632142Y-87713192D02*
X136596428Y-87748907D01*
X136596428Y-87748907D02*
X136560714Y-87820335D01*
X134971428Y-92491764D02*
X134971428Y-93098907D01*
X134971428Y-93098907D02*
X134935714Y-93170335D01*
X134935714Y-93170335D02*
X134900000Y-93206050D01*
X134900000Y-93206050D02*
X134828571Y-93241764D01*
X134828571Y-93241764D02*
X134685714Y-93241764D01*
X134685714Y-93241764D02*
X134614285Y-93206050D01*
X134614285Y-93206050D02*
X134578571Y-93170335D01*
X134578571Y-93170335D02*
X134542857Y-93098907D01*
X134542857Y-93098907D02*
X134542857Y-92491764D01*
X133792857Y-93241764D02*
X134221428Y-93241764D01*
X134007143Y-93241764D02*
X134007143Y-92491764D01*
X134007143Y-92491764D02*
X134078571Y-92598907D01*
X134078571Y-92598907D02*
X134150000Y-92670335D01*
X134150000Y-92670335D02*
X134221428Y-92706050D01*
D12*
%TO.C,R1*%
X129736359Y-89620000D02*
X130043641Y-89620000D01*
X129736359Y-90380000D02*
X130043641Y-90380000D01*
%TO.C,RT2*%
X136453641Y-71320000D02*
X136146359Y-71320000D01*
X136453641Y-72080000D02*
X136146359Y-72080000D01*
%TO.C,D6*%
X142200000Y-68465000D02*
X142200000Y-71305000D01*
X144500000Y-68465000D02*
X143850000Y-68465000D01*
X144500000Y-68465000D02*
X144500000Y-71305000D01*
%TO.C,U5*%
X127239999Y-82000000D02*
X127240000Y-81200000D01*
X127239999Y-82000000D02*
X127240000Y-82800000D01*
X130360001Y-82000000D02*
X130360000Y-81200000D01*
X130360001Y-82000000D02*
X130360000Y-82800000D01*
X130640000Y-80940000D02*
X130310000Y-80700000D01*
X130640000Y-80460000D01*
X130640000Y-80940000D01*
G36*
X130640000Y-80940000D02*
G01*
X130310000Y-80700000D01*
X130640000Y-80460000D01*
X130640000Y-80940000D01*
G37*
%TO.C,C16*%
X130507836Y-86140000D02*
X130292164Y-86140000D01*
X130507836Y-86860000D02*
X130292164Y-86860000D01*
%TO.C,R3*%
X130043641Y-88520000D02*
X129736359Y-88520000D01*
X130043641Y-89280000D02*
X129736359Y-89280000D01*
%TO.C,C11*%
X134090000Y-84565000D02*
X134090000Y-86435000D01*
X134090000Y-86435000D02*
X138000000Y-86435000D01*
X138000000Y-84565000D02*
X134090000Y-84565000D01*
%TO.C,C15*%
X130507836Y-85140000D02*
X130292164Y-85140000D01*
X130507836Y-85860000D02*
X130292164Y-85860000D01*
%TO.C,U2*%
X129990000Y-69327500D02*
X129990000Y-70052500D01*
X129990000Y-73547500D02*
X129990000Y-72822500D01*
X130715000Y-69327500D02*
X129990000Y-69327500D01*
X130715000Y-73547500D02*
X129990000Y-73547500D01*
X133485000Y-69327500D02*
X134210000Y-69327500D01*
X133485000Y-73547500D02*
X133910000Y-73547500D01*
X134210000Y-69327500D02*
X134210000Y-70052500D01*
X134210000Y-72822500D02*
X134210000Y-73307500D01*
X134449999Y-73877500D02*
X133970000Y-73877500D01*
X134210000Y-73547500D01*
X134449999Y-73877500D01*
G36*
X134449999Y-73877500D02*
G01*
X133970000Y-73877500D01*
X134210000Y-73547500D01*
X134449999Y-73877500D01*
G37*
%TO.C,L1*%
X131090000Y-80940000D02*
X131090000Y-83460000D01*
X133710000Y-80940000D02*
X133710000Y-83460000D01*
%TO.C,R2*%
X130043641Y-87420000D02*
X129736359Y-87420000D01*
X130043641Y-88180000D02*
X129736359Y-88180000D01*
%TO.C,D1*%
X126500000Y-96650000D02*
X126500000Y-92750000D01*
X126500000Y-96650000D02*
X128500000Y-96650000D01*
X128500000Y-96650000D02*
X128500000Y-92750000D01*
%TO.C,U4*%
X134390000Y-80900000D02*
X134390000Y-79400000D01*
X134390000Y-80900000D02*
X134390000Y-82400000D01*
X137610000Y-80900000D02*
X137610000Y-79400000D01*
X137610000Y-80900000D02*
X137610000Y-82400000D01*
X137815000Y-78927500D02*
X137485000Y-78687500D01*
X137815000Y-78447500D01*
X137815000Y-78927500D01*
G36*
X137815000Y-78927500D02*
G01*
X137485000Y-78687500D01*
X137815000Y-78447500D01*
X137815000Y-78927500D01*
G37*
%TO.C,R5*%
X129746359Y-93820000D02*
X130053641Y-93820000D01*
X129746359Y-94580000D02*
X130053641Y-94580000D01*
%TO.C,C13*%
X127800000Y-79735000D02*
X131710000Y-79735000D01*
X131710000Y-77865000D02*
X127800000Y-77865000D01*
X131710000Y-79735000D02*
X131710000Y-77865000D01*
%TO.C,R19*%
X138220000Y-80646359D02*
X138220000Y-80953641D01*
X138980000Y-80646359D02*
X138980000Y-80953641D01*
%TO.C,R20*%
X138446359Y-76720000D02*
X138753641Y-76720000D01*
X138446359Y-77480000D02*
X138753641Y-77480000D01*
%TO.C,D10*%
X142200000Y-65365000D02*
X142200000Y-68205000D01*
X144500000Y-65365000D02*
X143850000Y-65365000D01*
X144500000Y-65365000D02*
X144500000Y-68205000D01*
%TO.C,J1*%
X129940000Y-76960000D02*
X129940000Y-75900000D01*
X131000000Y-76960000D02*
X129940000Y-76960000D01*
X132000000Y-74840000D02*
X134060000Y-74840000D01*
X132000000Y-76960000D02*
X132000000Y-74840000D01*
X132000000Y-76960000D02*
X134060000Y-76960000D01*
X134060000Y-76960000D02*
X134060000Y-74840000D01*
%TO.C,R7*%
X135020000Y-67253641D02*
X135020000Y-66946359D01*
X135780000Y-67253641D02*
X135780000Y-66946359D01*
%TO.C,C8*%
X137495000Y-69774000D02*
X137495000Y-73684000D01*
X137495000Y-73684000D02*
X139365000Y-73684000D01*
X139365000Y-73684000D02*
X139365000Y-69774000D01*
%TO.C,D4*%
X142200000Y-74665000D02*
X142200000Y-77505000D01*
X144500000Y-74665000D02*
X143850000Y-74665000D01*
X144500000Y-74665000D02*
X144500000Y-77505000D01*
%TO.C,C14*%
X121965000Y-86790000D02*
X121965000Y-90700000D01*
X123835000Y-86790000D02*
X121965000Y-86790000D01*
X123835000Y-90700000D02*
X123835000Y-86790000D01*
%TO.C,C10*%
X134790000Y-74065000D02*
X134790000Y-75935000D01*
X134790000Y-75935000D02*
X138700000Y-75935000D01*
X138700000Y-74065000D02*
X134790000Y-74065000D01*
%TO.C,TH1*%
X136453641Y-70220000D02*
X136146359Y-70220000D01*
X136453641Y-70980000D02*
X136146359Y-70980000D01*
%TO.C,R17*%
X127946359Y-68820000D02*
X128253641Y-68820000D01*
X127946359Y-69580000D02*
X128253641Y-69580000D01*
%TO.C,D9*%
X131440000Y-84599999D02*
X131440000Y-85800001D01*
X133400000Y-84600000D02*
X131440000Y-84599999D01*
X133400000Y-85800000D02*
X131440000Y-85800001D01*
%TO.C,R16*%
X127946359Y-69920000D02*
X128253641Y-69920000D01*
X127946359Y-70680000D02*
X128253641Y-70680000D01*
%TO.C,D5*%
X142200000Y-71565000D02*
X142200000Y-74405000D01*
X144500000Y-71565000D02*
X143850000Y-71565000D01*
X144500000Y-71565000D02*
X144500000Y-74405000D01*
%TO.C,D3*%
X132640000Y-64815001D02*
X132640000Y-67500000D01*
X134560000Y-64815001D02*
X132640000Y-64815001D01*
X134560000Y-67500000D02*
X134560000Y-64815001D01*
%TO.C,R18*%
X138220000Y-78646359D02*
X138220000Y-78953641D01*
X138980000Y-78646359D02*
X138980000Y-78953641D01*
%TO.C,R4*%
X137420000Y-67253641D02*
X137420000Y-66946359D01*
X138180000Y-67253641D02*
X138180000Y-66946359D01*
%TO.C,R11*%
X138220000Y-82746359D02*
X138220000Y-83053641D01*
X138980000Y-82746359D02*
X138980000Y-83053641D01*
%TO.C,Q1*%
X126700000Y-85039999D02*
X126050000Y-85040000D01*
X126700000Y-85039999D02*
X127350000Y-85040000D01*
X126700000Y-88160001D02*
X126050000Y-88160000D01*
X126700000Y-88160001D02*
X128374999Y-88160000D01*
%TO.C,D2*%
X138500000Y-94050000D02*
X138500000Y-90150000D01*
X138500000Y-94050000D02*
X140500000Y-94050000D01*
X140500000Y-94050000D02*
X140500000Y-90150000D01*
%TO.C,RT1*%
X136453641Y-69120000D02*
X136146359Y-69120000D01*
X136453641Y-69880000D02*
X136146359Y-69880000D01*
%TO.C,Q3*%
X140900000Y-85039999D02*
X139225001Y-85040000D01*
X140900000Y-85039999D02*
X141550000Y-85040000D01*
X140900000Y-88160001D02*
X140250000Y-88160000D01*
X140900000Y-88160001D02*
X141550000Y-88160000D01*
%TO.C,R13*%
X127220000Y-76853641D02*
X127220000Y-76546359D01*
X127980000Y-76853641D02*
X127980000Y-76546359D01*
%TO.C,Q2*%
X126800000Y-88539999D02*
X126150000Y-88540000D01*
X126800000Y-88539999D02*
X127450000Y-88540000D01*
X126800000Y-91660001D02*
X126150000Y-91660000D01*
X126800000Y-91660001D02*
X128474999Y-91660000D01*
%TO.C,D8*%
X130466998Y-64815001D02*
X130466998Y-67500000D01*
X132386998Y-64815001D02*
X130466998Y-64815001D01*
X132386998Y-67500000D02*
X132386998Y-64815001D01*
%TO.C,C9*%
X127265000Y-71700000D02*
X127265000Y-75610000D01*
X127265000Y-75610000D02*
X129135000Y-75610000D01*
X129135000Y-75610000D02*
X129135000Y-71700000D01*
%TO.C,R15*%
X136220000Y-67253641D02*
X136220000Y-66946359D01*
X136980000Y-67253641D02*
X136980000Y-66946359D01*
%TO.C,C7*%
X136240580Y-76390000D02*
X135959420Y-76390000D01*
X136240580Y-77410000D02*
X135959420Y-77410000D01*
%TO.C,R14*%
X130043641Y-91620000D02*
X129736359Y-91620000D01*
X130043641Y-92380000D02*
X129736359Y-92380000D01*
%TO.C,C12*%
X132692164Y-77840000D02*
X132907836Y-77840000D01*
X132692164Y-78560000D02*
X132907836Y-78560000D01*
%TO.C,R6*%
X129736359Y-92720000D02*
X130043641Y-92720000D01*
X129736359Y-93480000D02*
X130043641Y-93480000D01*
%TO.C,R12*%
X128320000Y-76554359D02*
X128320000Y-76861641D01*
X129080000Y-76554359D02*
X129080000Y-76861641D01*
%TO.C,D7*%
X128340000Y-64815001D02*
X128340000Y-67500000D01*
X130260000Y-64815001D02*
X128340000Y-64815001D01*
X130260000Y-67500000D02*
X130260000Y-64815001D01*
%TO.C,SW1*%
X131570000Y-90970000D02*
X131600000Y-90970000D01*
X131570000Y-97430000D02*
X131570000Y-90970000D01*
X131600000Y-97430000D02*
X131570000Y-97430000D01*
X133500000Y-90970000D02*
X136100000Y-90970000D01*
X133500000Y-97430000D02*
X136100000Y-97430000D01*
X138030000Y-90970000D02*
X138000000Y-90970000D01*
X138030000Y-97430000D02*
X138000000Y-97430000D01*
X138030000Y-97430000D02*
X138030000Y-90970000D01*
%TO.C,C6*%
X134090000Y-86865000D02*
X134090000Y-88735000D01*
X134090000Y-88735000D02*
X138000000Y-88735000D01*
X138000000Y-86865000D02*
X134090000Y-86865000D01*
%TD*%
%LPC*%
D13*
%TO.C,R1*%
X129380000Y-90000000D03*
X130400000Y-90000000D03*
%TD*%
D14*
%TO.C,RT2*%
X136809999Y-71700000D03*
X135790001Y-71700000D03*
%TD*%
D15*
%TO.C,D6*%
X143900000Y-68970000D03*
X142800000Y-68970000D03*
X142800000Y-70800000D03*
X143900000Y-70800000D03*
%TD*%
D16*
%TO.C,U5*%
X129749999Y-80862500D03*
X128800000Y-80862500D03*
X127850001Y-80862500D03*
X127850001Y-83137500D03*
X129749999Y-83137500D03*
%TD*%
D17*
%TO.C,C16*%
X130880000Y-86500000D03*
X129920000Y-86500000D03*
%TD*%
D14*
%TO.C,R3*%
X130400000Y-88900000D03*
X129380000Y-88900000D03*
%TD*%
D18*
%TO.C,C11*%
X135050000Y-85500000D03*
X137750000Y-85500000D03*
%TD*%
D17*
%TO.C,C15*%
X130880000Y-85500000D03*
X129920000Y-85500000D03*
%TD*%
D19*
%TO.C,U2*%
X134037500Y-72437500D03*
X134037500Y-71937500D03*
X134037499Y-71437500D03*
X134037500Y-70937500D03*
X134037500Y-70437500D03*
D20*
X133100000Y-69500000D03*
X132600000Y-69500000D03*
X132100000Y-69500001D03*
X131600000Y-69500000D03*
X131100000Y-69500000D03*
D19*
X130162500Y-70437500D03*
X130162500Y-70937500D03*
X130162501Y-71437500D03*
X130162500Y-71937500D03*
X130162500Y-72437500D03*
D20*
X131100000Y-73375000D03*
X131600000Y-73375000D03*
X132100000Y-73374999D03*
X132600000Y-73375000D03*
X133100000Y-73375000D03*
D21*
X132100000Y-71437500D03*
%TD*%
D22*
%TO.C,L1*%
X132400000Y-81500000D03*
X132400000Y-82900000D03*
%TD*%
D14*
%TO.C,R2*%
X130400000Y-87800000D03*
X129380000Y-87800000D03*
%TD*%
D23*
%TO.C,D1*%
X127500000Y-96050000D03*
X127500000Y-92750000D03*
%TD*%
D24*
%TO.C,U4*%
X136975000Y-78787500D03*
X136325000Y-78787500D03*
X135675000Y-78787500D03*
X135025000Y-78787500D03*
X135025000Y-83012500D03*
X135675000Y-83012500D03*
X136325000Y-83012500D03*
X136975000Y-83012500D03*
%TD*%
D25*
%TO.C,J6*%
X123000000Y-92400000D03*
X123000000Y-94400000D03*
%TD*%
D13*
%TO.C,R5*%
X129390000Y-94200000D03*
X130410000Y-94200000D03*
%TD*%
D26*
%TO.C,C13*%
X130750000Y-78800000D03*
X128050000Y-78800000D03*
%TD*%
D27*
%TO.C,R19*%
X138600000Y-80290001D03*
X138600000Y-81309999D03*
%TD*%
D13*
%TO.C,R20*%
X138090000Y-77100000D03*
X139110000Y-77100000D03*
%TD*%
D15*
%TO.C,D10*%
X143900000Y-65870000D03*
X142800000Y-65870000D03*
X142800000Y-67700000D03*
X143900000Y-67700000D03*
%TD*%
D28*
%TO.C,J1*%
X131000000Y-75900000D03*
D29*
X133000000Y-75900000D03*
%TD*%
D30*
%TO.C,R7*%
X135400000Y-67609999D03*
X135400000Y-66590001D03*
%TD*%
D31*
%TO.C,C8*%
X138430000Y-72724000D03*
X138430000Y-70024000D03*
%TD*%
D15*
%TO.C,D4*%
X143900000Y-75170000D03*
X142800000Y-75170000D03*
X142800000Y-77000000D03*
X143900000Y-77000000D03*
%TD*%
D32*
%TO.C,C14*%
X122900000Y-87750000D03*
X122900000Y-90450000D03*
%TD*%
D18*
%TO.C,C10*%
X135750000Y-75000000D03*
X138450000Y-75000000D03*
%TD*%
D14*
%TO.C,TH1*%
X136809999Y-70600000D03*
X135790001Y-70600000D03*
%TD*%
D13*
%TO.C,R17*%
X127590001Y-69200000D03*
X128609999Y-69200000D03*
%TD*%
D33*
%TO.C,D9*%
X132000000Y-85200000D03*
X133400000Y-85200000D03*
%TD*%
D13*
%TO.C,R16*%
X127590001Y-70300000D03*
X128609999Y-70300000D03*
%TD*%
D15*
%TO.C,D5*%
X143900000Y-72070000D03*
X142800000Y-72070000D03*
X142800000Y-73900000D03*
X143900000Y-73900000D03*
%TD*%
D34*
%TO.C,D3*%
X133600000Y-65562499D03*
X133600000Y-67437501D03*
%TD*%
D27*
%TO.C,R18*%
X138600000Y-78290001D03*
X138600000Y-79309999D03*
%TD*%
D30*
%TO.C,R4*%
X137800000Y-67609999D03*
X137800000Y-66590001D03*
%TD*%
D27*
%TO.C,R11*%
X138600000Y-82390001D03*
X138600000Y-83409999D03*
%TD*%
D35*
%TO.C,Q1*%
X127637500Y-87550000D03*
X127637500Y-85650000D03*
X125762499Y-86600000D03*
%TD*%
D25*
%TO.C,J3*%
X122900000Y-81800000D03*
X122900000Y-83800000D03*
X122900000Y-85726000D03*
%TD*%
D23*
%TO.C,D2*%
X139500000Y-93450000D03*
X139500000Y-90150000D03*
%TD*%
D14*
%TO.C,RT1*%
X136809999Y-69500000D03*
X135790001Y-69500000D03*
%TD*%
D36*
%TO.C,Q3*%
X139962500Y-85650000D03*
X139962500Y-87550000D03*
X141837501Y-86600000D03*
%TD*%
D30*
%TO.C,R13*%
X127600000Y-77210000D03*
X127600000Y-76190000D03*
%TD*%
D25*
%TO.C,J8*%
X142800000Y-89100000D03*
X142800000Y-91100000D03*
%TD*%
D37*
%TO.C,J4*%
X122800000Y-73900000D03*
X122800000Y-71900000D03*
X122800000Y-69974000D03*
%TD*%
D35*
%TO.C,Q2*%
X127737500Y-91050000D03*
X127737500Y-89150000D03*
X125862499Y-90100000D03*
%TD*%
D34*
%TO.C,D8*%
X131426998Y-65562499D03*
X131426998Y-67437501D03*
%TD*%
D31*
%TO.C,C9*%
X128200000Y-74650000D03*
X128200000Y-71950000D03*
%TD*%
D30*
%TO.C,R15*%
X136600000Y-67609999D03*
X136600000Y-66590001D03*
%TD*%
D38*
%TO.C,C7*%
X136875000Y-76900000D03*
X135325000Y-76900000D03*
%TD*%
D14*
%TO.C,R14*%
X130399999Y-92000000D03*
X129380001Y-92000000D03*
%TD*%
D39*
%TO.C,C12*%
X132320000Y-78200000D03*
X133280000Y-78200000D03*
%TD*%
D13*
%TO.C,R6*%
X129380000Y-93100000D03*
X130400000Y-93100000D03*
%TD*%
D27*
%TO.C,R12*%
X128700000Y-76198001D03*
X128700000Y-77217999D03*
%TD*%
D34*
%TO.C,D7*%
X129300000Y-65562499D03*
X129300000Y-67437501D03*
%TD*%
D40*
%TO.C,SW1*%
X132550000Y-98180000D03*
X132550000Y-90220000D03*
X137050000Y-98180000D03*
X137050000Y-90220000D03*
%TD*%
D18*
%TO.C,C6*%
X135050000Y-87800000D03*
X137750000Y-87800000D03*
%TD*%
D41*
%TO.C,U3*%
X125476000Y-83460000D03*
X125476000Y-80920000D03*
X125476000Y-78380000D03*
X125476000Y-75840000D03*
X125476000Y-70760000D03*
X125476000Y-73300000D03*
X140716000Y-65680000D03*
X125476000Y-65680000D03*
X140716000Y-68220000D03*
X140716000Y-70760000D03*
X140716000Y-73300000D03*
X140716000Y-75840000D03*
X140716000Y-78380000D03*
X140716000Y-80920000D03*
X140716000Y-83460000D03*
X125476000Y-68220000D03*
%TD*%
%LPD*%
M02*
