%TF.GenerationSoftware,KiCad,Pcbnew,(6.0.2)*%
%TF.CreationDate,2022-05-15T19:04:19+02:00*%
%TF.ProjectId,unfancyRemote,756e6661-6e63-4795-9265-6d6f74652e6b,rev?*%
%TF.SameCoordinates,Original*%
%TF.FileFunction,Copper,L1,Top*%
%TF.FilePolarity,Positive*%
%FSLAX46Y46*%
G04 Gerber Fmt 4.6, Leading zero omitted, Abs format (unit mm)*
G04 Created by KiCad (PCBNEW (6.0.2)) date 2022-05-15 19:04:19*
%MOMM*%
%LPD*%
G01*
G04 APERTURE LIST*
G04 Aperture macros list*
%AMRoundRect*
0 Rectangle with rounded corners*
0 $1 Rounding radius*
0 $2 $3 $4 $5 $6 $7 $8 $9 X,Y pos of 4 corners*
0 Add a 4 corners polygon primitive as box body*
4,1,4,$2,$3,$4,$5,$6,$7,$8,$9,$2,$3,0*
0 Add four circle primitives for the rounded corners*
1,1,$1+$1,$2,$3*
1,1,$1+$1,$4,$5*
1,1,$1+$1,$6,$7*
1,1,$1+$1,$8,$9*
0 Add four rect primitives between the rounded corners*
20,1,$1+$1,$2,$3,$4,$5,0*
20,1,$1+$1,$4,$5,$6,$7,0*
20,1,$1+$1,$6,$7,$8,$9,0*
20,1,$1+$1,$8,$9,$2,$3,0*%
G04 Aperture macros list end*
%TA.AperFunction,SMDPad,CuDef*%
%ADD10RoundRect,0.200000X-0.200000X-0.275000X0.200000X-0.275000X0.200000X0.275000X-0.200000X0.275000X0*%
%TD*%
%TA.AperFunction,SMDPad,CuDef*%
%ADD11RoundRect,0.225000X-0.225000X-0.250000X0.225000X-0.250000X0.225000X0.250000X-0.225000X0.250000X0*%
%TD*%
%TA.AperFunction,SMDPad,CuDef*%
%ADD12RoundRect,0.243750X0.243750X0.456250X-0.243750X0.456250X-0.243750X-0.456250X0.243750X-0.456250X0*%
%TD*%
%TA.AperFunction,SMDPad,CuDef*%
%ADD13RoundRect,0.225000X-0.250000X0.225000X-0.250000X-0.225000X0.250000X-0.225000X0.250000X0.225000X0*%
%TD*%
%TA.AperFunction,ComponentPad*%
%ADD14R,1.700000X1.700000*%
%TD*%
%TA.AperFunction,ComponentPad*%
%ADD15O,1.700000X1.700000*%
%TD*%
%TA.AperFunction,SMDPad,CuDef*%
%ADD16RoundRect,0.200000X0.200000X0.275000X-0.200000X0.275000X-0.200000X-0.275000X0.200000X-0.275000X0*%
%TD*%
%TA.AperFunction,SMDPad,CuDef*%
%ADD17R,0.800000X1.200000*%
%TD*%
%TA.AperFunction,SMDPad,CuDef*%
%ADD18R,0.900000X1.200000*%
%TD*%
%TA.AperFunction,SMDPad,CuDef*%
%ADD19RoundRect,0.250000X0.250000X0.750000X-0.250000X0.750000X-0.250000X-0.750000X0.250000X-0.750000X0*%
%TD*%
%TA.AperFunction,SMDPad,CuDef*%
%ADD20RoundRect,0.200000X0.275000X-0.200000X0.275000X0.200000X-0.275000X0.200000X-0.275000X-0.200000X0*%
%TD*%
%TA.AperFunction,SMDPad,CuDef*%
%ADD21RoundRect,0.150000X0.150000X-0.587500X0.150000X0.587500X-0.150000X0.587500X-0.150000X-0.587500X0*%
%TD*%
%TA.AperFunction,SMDPad,CuDef*%
%ADD22RoundRect,0.250000X-0.250000X-0.750000X0.250000X-0.750000X0.250000X0.750000X-0.250000X0.750000X0*%
%TD*%
%TA.AperFunction,SMDPad,CuDef*%
%ADD23RoundRect,0.150000X0.587500X0.150000X-0.587500X0.150000X-0.587500X-0.150000X0.587500X-0.150000X0*%
%TD*%
%TA.AperFunction,SMDPad,CuDef*%
%ADD24RoundRect,0.200000X-0.275000X0.200000X-0.275000X-0.200000X0.275000X-0.200000X0.275000X0.200000X0*%
%TD*%
%TA.AperFunction,SMDPad,CuDef*%
%ADD25RoundRect,0.225000X0.250000X-0.225000X0.250000X0.225000X-0.250000X0.225000X-0.250000X-0.225000X0*%
%TD*%
%TA.AperFunction,SMDPad,CuDef*%
%ADD26R,1.300000X1.550000*%
%TD*%
%TA.AperFunction,ViaPad*%
%ADD27C,0.800000*%
%TD*%
%TA.AperFunction,Conductor*%
%ADD28C,0.250000*%
%TD*%
G04 APERTURE END LIST*
D10*
%TO.P,R1,1*%
%TO.N,Net-(R1-Pad1)*%
X136970000Y-90170000D03*
%TO.P,R1,2*%
%TO.N,BSENSE*%
X138620000Y-90170000D03*
%TD*%
D11*
%TO.P,C2,1*%
%TO.N,+3V3*%
X144259000Y-71374000D03*
%TO.P,C2,2*%
%TO.N,GND*%
X145809000Y-71374000D03*
%TD*%
%TO.P,C5,1*%
%TO.N,+5V*%
X122161000Y-69596000D03*
%TO.P,C5,2*%
%TO.N,GND*%
X123711000Y-69596000D03*
%TD*%
D10*
%TO.P,R9,1*%
%TO.N,Net-(D5-Pad2)*%
X121349000Y-89154000D03*
%TO.P,R9,2*%
%TO.N,L3*%
X122999000Y-89154000D03*
%TD*%
D12*
%TO.P,D3,1,K*%
%TO.N,GND*%
X123111500Y-77724000D03*
%TO.P,D3,2,A*%
%TO.N,Net-(D3-Pad2)*%
X121236500Y-77724000D03*
%TD*%
D13*
%TO.P,C1,1*%
%TO.N,+3V3*%
X136144000Y-69583000D03*
%TO.P,C1,2*%
%TO.N,GND*%
X136144000Y-71133000D03*
%TD*%
D14*
%TO.P,J2,1,TX0*%
%TO.N,Net-(J2-Pad1)*%
X126390000Y-71140000D03*
D15*
%TO.P,J2,2,RX0*%
%TO.N,Net-(J2-Pad2)*%
X126390000Y-73680000D03*
%TO.P,J2,3,RST*%
%TO.N,unconnected-(J2-Pad3)*%
X126390000Y-76220000D03*
%TO.P,J2,4,GND*%
%TO.N,GND*%
X126390000Y-78760000D03*
%TO.P,J2,5,2*%
%TO.N,PPM*%
X126390000Y-81300000D03*
%TO.P,J2,6,3*%
%TO.N,L2*%
X126390000Y-83840000D03*
%TO.P,J2,7,4*%
%TO.N,L3*%
X126390000Y-86380000D03*
%TO.P,J2,8,5*%
%TO.N,L4*%
X126390000Y-88920000D03*
%TO.P,J2,9,6*%
%TO.N,/DIO1*%
X126390000Y-91460000D03*
%TO.P,J2,10,7*%
%TO.N,/NSS*%
X126390000Y-94000000D03*
%TO.P,J2,11,8*%
%TO.N,/NRESET*%
X126390000Y-96540000D03*
%TO.P,J2,12,9*%
%TO.N,/RFBUSY*%
X126390000Y-99080000D03*
%TD*%
D16*
%TO.P,R3,1*%
%TO.N,Net-(R1-Pad1)*%
X136905000Y-92456000D03*
%TO.P,R3,2*%
%TO.N,Net-(D1-Pad2)*%
X135255000Y-92456000D03*
%TD*%
D17*
%TO.P,U1,1,VCC*%
%TO.N,+3V3*%
X133921500Y-102624000D03*
%TO.P,U1,2,GND*%
%TO.N,GND*%
X132651500Y-102624000D03*
%TO.P,U1,3,MISO_TX*%
%TO.N,/MISO*%
X131381500Y-102624000D03*
%TO.P,U1,4,MOSI_RX*%
%TO.N,/MOSI*%
X130111500Y-102624000D03*
%TO.P,U1,5,SCK_RTSN*%
%TO.N,/SCK*%
X128841500Y-102624000D03*
%TO.P,U1,6,NSS_CTS*%
%TO.N,/NSS*%
X127571500Y-102624000D03*
%TO.P,U1,7,GND*%
%TO.N,GND*%
X126301500Y-102624000D03*
%TO.P,U1,8,GND*%
X126301500Y-116848000D03*
%TO.P,U1,9,NRESET*%
%TO.N,/NRESET*%
X127571500Y-116848000D03*
%TO.P,U1,10,BUSY*%
%TO.N,/RFBUSY*%
X128841500Y-116848000D03*
%TO.P,U1,11,DIO1*%
%TO.N,/DIO1*%
X130111500Y-116848000D03*
%TO.P,U1,12,DIO2*%
%TO.N,unconnected-(U1-Pad12)*%
X131381500Y-116848000D03*
%TO.P,U1,13,DIO3*%
%TO.N,unconnected-(U1-Pad13)*%
X132651500Y-116848000D03*
%TO.P,U1,14,GND*%
%TO.N,GND*%
X133921500Y-116848000D03*
%TD*%
D13*
%TO.P,C4,1*%
%TO.N,+5V*%
X144272000Y-73393000D03*
%TO.P,C4,2*%
%TO.N,GND*%
X144272000Y-74943000D03*
%TD*%
D14*
%TO.P,J1,1,RAW*%
%TO.N,+5V*%
X141630000Y-71120000D03*
D15*
%TO.P,J1,2,GND*%
%TO.N,GND*%
X141630000Y-73660000D03*
%TO.P,J1,3,RST*%
%TO.N,unconnected-(J1-Pad3)*%
X141630000Y-76200000D03*
%TO.P,J1,4,VCC*%
%TO.N,+3V3*%
X141630000Y-78740000D03*
%TO.P,J1,5,A3*%
%TO.N,HALL2*%
X141630000Y-81280000D03*
%TO.P,J1,6,A2*%
%TO.N,HALL1*%
X141630000Y-83820000D03*
%TO.P,J1,7,A1*%
%TO.N,VBATSCALED*%
X141630000Y-86360000D03*
%TO.P,J1,8,A0*%
%TO.N,BSENSE*%
X141630000Y-88900000D03*
%TO.P,J1,9,13*%
%TO.N,/SCK*%
X141630000Y-91440000D03*
%TO.P,J1,10,12*%
%TO.N,/MISO*%
X141630000Y-93980000D03*
%TO.P,J1,11,11*%
%TO.N,/MOSI*%
X141630000Y-96520000D03*
%TO.P,J1,12,10*%
%TO.N,ON*%
X141630000Y-99060000D03*
%TD*%
D13*
%TO.P,C8,1*%
%TO.N,ON*%
X144272000Y-98031000D03*
%TO.P,C8,2*%
%TO.N,GND*%
X144272000Y-99581000D03*
%TD*%
D16*
%TO.P,R2,1*%
%TO.N,5VRAW*%
X135445000Y-90170000D03*
%TO.P,R2,2*%
%TO.N,Net-(Q1-Pad1)*%
X133795000Y-90170000D03*
%TD*%
D18*
%TO.P,D1,1,K*%
%TO.N,Net-(D1-Pad1)*%
X130176000Y-92456000D03*
%TO.P,D1,2,A*%
%TO.N,Net-(D1-Pad2)*%
X133476000Y-92456000D03*
%TD*%
D13*
%TO.P,C3,1*%
%TO.N,+3V3*%
X144272000Y-78981000D03*
%TO.P,C3,2*%
%TO.N,GND*%
X144272000Y-80531000D03*
%TD*%
D19*
%TO.P,J6,1,Pin_1*%
%TO.N,5VRAW*%
X141462000Y-115316000D03*
%TO.P,J6,2,Pin_2*%
%TO.N,GND*%
X139462000Y-115316000D03*
%TD*%
D10*
%TO.P,R5,1*%
%TO.N,Net-(D1-Pad1)*%
X130493000Y-90170000D03*
%TO.P,R5,2*%
%TO.N,GND*%
X132143000Y-90170000D03*
%TD*%
D15*
%TO.P,J9,2,A5*%
%TO.N,unconnected-(J9-Pad2)*%
X138963000Y-79990000D03*
D14*
%TO.P,J9,1,A4*%
%TO.N,MOTOR*%
X138963000Y-82530000D03*
%TD*%
D12*
%TO.P,D4,1,K*%
%TO.N,GND*%
X123111500Y-84328000D03*
%TO.P,D4,2,A*%
%TO.N,Net-(D4-Pad2)*%
X121236500Y-84328000D03*
%TD*%
D10*
%TO.P,R10,1*%
%TO.N,Net-(D6-Pad2)*%
X121349000Y-96012000D03*
%TO.P,R10,2*%
%TO.N,L4*%
X122999000Y-96012000D03*
%TD*%
D11*
%TO.P,C6,1*%
%TO.N,5VRAW*%
X142481000Y-101854000D03*
%TO.P,C6,2*%
%TO.N,GND*%
X144031000Y-101854000D03*
%TD*%
D20*
%TO.P,R11,1*%
%TO.N,MOTOR*%
X137795000Y-77025000D03*
%TO.P,R11,2*%
%TO.N,Net-(Q3-Pad1)*%
X137795000Y-75375000D03*
%TD*%
D21*
%TO.P,Q1,1,G*%
%TO.N,Net-(Q1-Pad1)*%
X133162000Y-86662500D03*
%TO.P,Q1,2,S*%
%TO.N,5VRAW*%
X135062000Y-86662500D03*
%TO.P,Q1,3,D*%
%TO.N,+5V*%
X134112000Y-84787500D03*
%TD*%
D22*
%TO.P,J3,1,Pin_1*%
%TO.N,HALL1*%
X134250000Y-67310000D03*
%TO.P,J3,2,Pin_2*%
%TO.N,+3V3*%
X136250000Y-67310000D03*
%TO.P,J3,3,Pin_3*%
%TO.N,GND*%
X138176000Y-67310000D03*
%TD*%
D18*
%TO.P,D2,1,K*%
%TO.N,Net-(D2-Pad1)*%
X133605000Y-95885000D03*
%TO.P,D2,2,A*%
%TO.N,ON*%
X136905000Y-95885000D03*
%TD*%
D23*
%TO.P,Q3,1,B*%
%TO.N,Net-(Q3-Pad1)*%
X135811500Y-74610000D03*
%TO.P,Q3,2,E*%
%TO.N,Net-(J8-Pad1)*%
X135811500Y-72710000D03*
%TO.P,Q3,3,C*%
%TO.N,+5V*%
X133936500Y-73660000D03*
%TD*%
D20*
%TO.P,R13,1*%
%TO.N,VBATSCALED*%
X144272000Y-84010000D03*
%TO.P,R13,2*%
%TO.N,GND*%
X144272000Y-82360000D03*
%TD*%
D12*
%TO.P,D6,1,K*%
%TO.N,GND*%
X123111500Y-98044000D03*
%TO.P,D6,2,A*%
%TO.N,Net-(D6-Pad2)*%
X121236500Y-98044000D03*
%TD*%
D22*
%TO.P,J8,1,Pin_1*%
%TO.N,Net-(J8-Pad1)*%
X129048000Y-67310000D03*
%TO.P,J8,2,Pin_2*%
%TO.N,GND*%
X131048000Y-67310000D03*
%TD*%
%TO.P,J4,1,Pin_1*%
%TO.N,HALL2*%
X141362000Y-67310000D03*
%TO.P,J4,2,Pin_2*%
%TO.N,+3V3*%
X143362000Y-67310000D03*
%TO.P,J4,3,Pin_3*%
%TO.N,GND*%
X145288000Y-67310000D03*
%TD*%
D21*
%TO.P,Q2,1,B*%
%TO.N,Net-(D1-Pad1)*%
X129352000Y-86662500D03*
%TO.P,Q2,2,E*%
%TO.N,GND*%
X131252000Y-86662500D03*
%TO.P,Q2,3,C*%
%TO.N,Net-(Q1-Pad1)*%
X130302000Y-84787500D03*
%TD*%
D10*
%TO.P,R7,1*%
%TO.N,Net-(D3-Pad2)*%
X121349000Y-75692000D03*
%TO.P,R7,2*%
%TO.N,PPM*%
X122999000Y-75692000D03*
%TD*%
D12*
%TO.P,D5,1,K*%
%TO.N,GND*%
X123111500Y-91186000D03*
%TO.P,D5,2,A*%
%TO.N,Net-(D5-Pad2)*%
X121236500Y-91186000D03*
%TD*%
D24*
%TO.P,R14,1*%
%TO.N,BSENSE*%
X144272000Y-91885000D03*
%TO.P,R14,2*%
%TO.N,GND*%
X144272000Y-93535000D03*
%TD*%
D19*
%TO.P,J7,1,Pin_1*%
%TO.N,Net-(J7-Pad1)*%
X144272000Y-115316000D03*
%TD*%
D25*
%TO.P,C7,1*%
%TO.N,5VRAW*%
X138684000Y-87389000D03*
%TO.P,C7,2*%
%TO.N,GND*%
X138684000Y-85839000D03*
%TD*%
D22*
%TO.P,J5,1,Pin_1*%
%TO.N,PPM*%
X122058000Y-67310000D03*
%TO.P,J5,2,Pin_2*%
%TO.N,+5V*%
X124058000Y-67310000D03*
%TO.P,J5,3,Pin_3*%
%TO.N,GND*%
X125984000Y-67310000D03*
%TD*%
D10*
%TO.P,R8,1*%
%TO.N,Net-(D4-Pad2)*%
X121349000Y-82296000D03*
%TO.P,R8,2*%
%TO.N,L2*%
X122999000Y-82296000D03*
%TD*%
%TO.P,R6,1*%
%TO.N,Net-(D1-Pad1)*%
X130239000Y-95885000D03*
%TO.P,R6,2*%
%TO.N,Net-(D2-Pad1)*%
X131889000Y-95885000D03*
%TD*%
D22*
%TO.P,J10,1,A4*%
%TO.N,Net-(J2-Pad1)*%
X121682000Y-72136000D03*
%TO.P,J10,2,A5*%
%TO.N,Net-(J2-Pad2)*%
X123682000Y-72136000D03*
%TD*%
D20*
%TO.P,R12,1*%
%TO.N,Net-(J7-Pad1)*%
X144272000Y-87185000D03*
%TO.P,R12,2*%
%TO.N,VBATSCALED*%
X144272000Y-85535000D03*
%TD*%
D26*
%TO.P,SW1,1,1*%
%TO.N,Net-(R1-Pad1)*%
X138720000Y-111930000D03*
X138720000Y-103970000D03*
%TO.P,SW1,2,2*%
%TO.N,5VRAW*%
X143220000Y-111930000D03*
X143220000Y-103970000D03*
%TD*%
D27*
%TO.N,+5V*%
X137795000Y-73660000D03*
%TO.N,GND*%
X128778000Y-74676000D03*
X145796000Y-81280000D03*
X136906000Y-88392000D03*
X143002000Y-117094000D03*
X132080000Y-113030000D03*
X145034000Y-103632000D03*
X123698000Y-86868000D03*
X121920000Y-114046000D03*
X128270000Y-110490000D03*
X137668000Y-113792000D03*
X128778000Y-72390000D03*
X132588000Y-65278000D03*
X121920000Y-101346000D03*
X131318000Y-98552000D03*
X127508000Y-65278000D03*
X121920000Y-111506000D03*
X140970000Y-112014000D03*
X145034000Y-112776000D03*
X140970000Y-109220000D03*
X137922000Y-117094000D03*
X120650000Y-86868000D03*
X128905000Y-81280000D03*
X120650000Y-93472000D03*
X128270000Y-107950000D03*
X128778000Y-90170000D03*
X144272000Y-65278000D03*
X140970000Y-106172000D03*
X135890000Y-85090000D03*
X128778000Y-76835000D03*
X124968000Y-69342000D03*
X145034000Y-105918000D03*
X145034000Y-96774000D03*
X140970000Y-104140000D03*
X132080000Y-107950000D03*
X145034000Y-110490000D03*
X132080000Y-110490000D03*
X145034000Y-94996000D03*
X121920000Y-104140000D03*
X145796000Y-69596000D03*
X132080000Y-114935000D03*
X133604000Y-70866000D03*
X121920000Y-109220000D03*
X124460000Y-114046000D03*
X121920000Y-116586000D03*
X133096000Y-98552000D03*
X132334000Y-69850000D03*
X137922000Y-71120000D03*
X131826000Y-75184000D03*
X128778000Y-69850000D03*
X121920000Y-106680000D03*
X120650000Y-80264000D03*
X145034000Y-108204000D03*
X123698000Y-80264000D03*
X145796000Y-84836000D03*
X144272000Y-76962000D03*
%TO.N,+3V3*%
X139954000Y-101594161D03*
%TO.N,/MISO*%
X141224000Y-100838000D03*
%TO.N,/NSS*%
X128731250Y-97790000D03*
%TO.N,HALL1*%
X134366000Y-69088000D03*
X135890000Y-83185000D03*
%TO.N,ON*%
X136144000Y-97536000D03*
X137705500Y-99060000D03*
%TO.N,5VRAW*%
X139229500Y-88900000D03*
X140970000Y-102362000D03*
%TO.N,Net-(R1-Pad1)*%
X138598496Y-102447504D03*
X138340500Y-93345000D03*
%TD*%
D28*
%TO.N,MOTOR*%
X137160000Y-80727000D02*
X138963000Y-82530000D01*
X137160000Y-78232000D02*
X137160000Y-80727000D01*
X137788489Y-77603511D02*
X137160000Y-78232000D01*
X137788489Y-77031511D02*
X137788489Y-77603511D01*
X137795000Y-77025000D02*
X137788489Y-77031511D01*
%TO.N,HALL2*%
X139700000Y-78471010D02*
X139700000Y-68972000D01*
X139700000Y-68972000D02*
X141362000Y-67310000D01*
X140462000Y-79233010D02*
X139700000Y-78471010D01*
X140462000Y-80112000D02*
X140462000Y-79233010D01*
X141630000Y-81280000D02*
X140462000Y-80112000D01*
%TO.N,+5V*%
X133858000Y-73738500D02*
X133858000Y-74676000D01*
X135382000Y-80772000D02*
X134112000Y-82042000D01*
X137795000Y-73660000D02*
X133936500Y-73660000D01*
X141999000Y-71120000D02*
X144272000Y-73393000D01*
X124058000Y-67699000D02*
X122161000Y-69596000D01*
X131259022Y-73660000D02*
X127195022Y-69596000D01*
X124058000Y-67310000D02*
X124058000Y-67699000D01*
X126344000Y-69596000D02*
X124058000Y-67310000D01*
X133936500Y-73660000D02*
X131259022Y-73660000D01*
X141630000Y-71120000D02*
X141999000Y-71120000D01*
X135382000Y-76200000D02*
X135382000Y-80772000D01*
X133936500Y-73660000D02*
X133858000Y-73738500D01*
X134112000Y-82042000D02*
X134112000Y-84787500D01*
X133858000Y-74676000D02*
X135382000Y-76200000D01*
X127195022Y-69596000D02*
X126344000Y-69596000D01*
%TO.N,+3V3*%
X141630000Y-78740000D02*
X144031000Y-78740000D01*
X144259000Y-68207000D02*
X143362000Y-67310000D01*
X137414000Y-65532000D02*
X136250000Y-66696000D01*
X141584000Y-65532000D02*
X137414000Y-65532000D01*
X144031000Y-78740000D02*
X144272000Y-78981000D01*
X145542000Y-72657000D02*
X145542000Y-77711000D01*
X144259000Y-71374000D02*
X145542000Y-72657000D01*
X144272000Y-78981000D02*
X145542000Y-77711000D01*
X136250000Y-66696000D02*
X136250000Y-67310000D01*
X136144000Y-69583000D02*
X136144000Y-67416000D01*
X143362000Y-67310000D02*
X141584000Y-65532000D01*
X134951339Y-101594161D02*
X133921500Y-102624000D01*
X136144000Y-67416000D02*
X136250000Y-67310000D01*
X139954000Y-101594161D02*
X134951339Y-101594161D01*
X144259000Y-71374000D02*
X144259000Y-68207000D01*
%TO.N,/MISO*%
X131381500Y-102624000D02*
X131381500Y-102244978D01*
X132788478Y-100838000D02*
X141224000Y-100838000D01*
X131381500Y-102244978D02*
X132788478Y-100838000D01*
%TO.N,/MOSI*%
X130111500Y-102424000D02*
X130111500Y-102624000D01*
X139192000Y-96520000D02*
X135382000Y-100330000D01*
X141630000Y-96520000D02*
X139192000Y-96520000D01*
X132205500Y-100330000D02*
X130111500Y-102424000D01*
X135382000Y-100330000D02*
X132205500Y-100330000D01*
%TO.N,Net-(D1-Pad1)*%
X130176000Y-95822000D02*
X130239000Y-95885000D01*
X130493000Y-90170000D02*
X130493000Y-92139000D01*
X130176000Y-92456000D02*
X130176000Y-95822000D01*
X130493000Y-87803500D02*
X129352000Y-86662500D01*
X130493000Y-90170000D02*
X130493000Y-87803500D01*
X130493000Y-92139000D02*
X130176000Y-92456000D01*
%TO.N,Net-(J2-Pad2)*%
X126390000Y-73680000D02*
X124846000Y-72136000D01*
X124846000Y-72136000D02*
X123682000Y-72136000D01*
%TO.N,Net-(J2-Pad1)*%
X121904000Y-70628000D02*
X121666000Y-70866000D01*
X126390000Y-71140000D02*
X125878000Y-70628000D01*
X121666000Y-70866000D02*
X121666000Y-72120000D01*
X125878000Y-70628000D02*
X121904000Y-70628000D01*
X121666000Y-72120000D02*
X121682000Y-72136000D01*
%TO.N,/NRESET*%
X124460000Y-111761436D02*
X127571500Y-114872936D01*
X126390000Y-96540000D02*
X124460000Y-98470000D01*
X124460000Y-98470000D02*
X124460000Y-111761436D01*
X127571500Y-114872936D02*
X127571500Y-116848000D01*
%TO.N,/DIO1*%
X126390000Y-91460000D02*
X128016000Y-93086000D01*
X128016000Y-97480636D02*
X128006739Y-97489897D01*
X130111500Y-116141500D02*
X130111500Y-116848000D01*
X128016000Y-99314000D02*
X125476000Y-101854000D01*
X125476000Y-101854000D02*
X125476000Y-111506000D01*
X128016000Y-98099364D02*
X128016000Y-99314000D01*
X128016000Y-93086000D02*
X128016000Y-97480636D01*
X125476000Y-111506000D02*
X130111500Y-116141500D01*
X128006739Y-97489897D02*
X128006739Y-98090103D01*
X128006739Y-98090103D02*
X128016000Y-98099364D01*
%TO.N,/RFBUSY*%
X124968000Y-111633718D02*
X128841500Y-115507218D01*
X124968000Y-100584000D02*
X124968000Y-111633718D01*
X128841500Y-115507218D02*
X128841500Y-116848000D01*
X126390000Y-99162000D02*
X124968000Y-100584000D01*
X126390000Y-99080000D02*
X126390000Y-99162000D01*
%TO.N,/SCK*%
X131064000Y-99822000D02*
X128841500Y-102044500D01*
X139065000Y-95885000D02*
X135128000Y-99822000D01*
X135128000Y-99822000D02*
X131064000Y-99822000D01*
X141630000Y-91440000D02*
X139065000Y-94005000D01*
X128841500Y-102044500D02*
X128841500Y-102624000D01*
X139065000Y-94005000D02*
X139065000Y-95885000D01*
%TO.N,/NSS*%
X127571500Y-102044500D02*
X127571500Y-102934218D01*
X128731250Y-100884750D02*
X127571500Y-102044500D01*
X128731250Y-97790000D02*
X128731250Y-100884750D01*
%TO.N,HALL1*%
X137160000Y-84455000D02*
X135890000Y-83185000D01*
X140335000Y-84455000D02*
X137160000Y-84455000D01*
X134366000Y-67426000D02*
X134250000Y-67310000D01*
X140970000Y-83820000D02*
X140335000Y-84455000D01*
X134366000Y-69088000D02*
X134366000Y-67426000D01*
X141630000Y-83820000D02*
X140970000Y-83820000D01*
%TO.N,PPM*%
X120857480Y-73550480D02*
X122999000Y-75692000D01*
X124714000Y-77407000D02*
X122999000Y-75692000D01*
X124714000Y-79624000D02*
X124714000Y-77407000D01*
X124714000Y-79624000D02*
X126390000Y-81300000D01*
X122058000Y-67310000D02*
X120857480Y-68510520D01*
X120857480Y-68510520D02*
X120857480Y-73550480D01*
%TO.N,Net-(D1-Pad2)*%
X135255000Y-92456000D02*
X133476000Y-92456000D01*
%TO.N,Net-(D2-Pad1)*%
X131889000Y-95885000D02*
X133605000Y-95885000D01*
%TO.N,ON*%
X136525000Y-95885000D02*
X136905000Y-95885000D01*
X136144000Y-97536000D02*
X136144000Y-96266000D01*
X136144000Y-96266000D02*
X136525000Y-95885000D01*
X141630000Y-99060000D02*
X143243000Y-99060000D01*
X143243000Y-99060000D02*
X144272000Y-98031000D01*
X137705500Y-99060000D02*
X141630000Y-99060000D01*
%TO.N,Net-(Q1-Pad1)*%
X130302000Y-84787500D02*
X131287000Y-84787500D01*
X131287000Y-84787500D02*
X133162000Y-86662500D01*
X133795000Y-90170000D02*
X133795000Y-87295500D01*
X133795000Y-87295500D02*
X133162000Y-86662500D01*
%TO.N,Net-(D4-Pad2)*%
X121349000Y-82296000D02*
X121349000Y-84215500D01*
X121349000Y-84215500D02*
X121236500Y-84328000D01*
%TO.N,Net-(D5-Pad2)*%
X121349000Y-91073500D02*
X121236500Y-91186000D01*
X121349000Y-89154000D02*
X121349000Y-91073500D01*
%TO.N,Net-(D6-Pad2)*%
X121349000Y-96012000D02*
X121349000Y-97931500D01*
X121349000Y-97931500D02*
X121236500Y-98044000D01*
%TO.N,L4*%
X124714000Y-92328000D02*
X124714000Y-89662000D01*
X125476000Y-88900000D02*
X126370000Y-88900000D01*
X122999000Y-94043000D02*
X124714000Y-92328000D01*
X122999000Y-94043000D02*
X122999000Y-96012000D01*
X126370000Y-88900000D02*
X126390000Y-88920000D01*
X124714000Y-89662000D02*
X125476000Y-88900000D01*
%TO.N,L3*%
X123616000Y-89154000D02*
X122999000Y-89154000D01*
X126390000Y-86380000D02*
X123616000Y-89154000D01*
%TO.N,L2*%
X124846000Y-82296000D02*
X126390000Y-83840000D01*
X122999000Y-82296000D02*
X124846000Y-82296000D01*
%TO.N,BSENSE*%
X144272000Y-91542000D02*
X144272000Y-91885000D01*
X141630000Y-88900000D02*
X144272000Y-91542000D01*
X140360000Y-90170000D02*
X141630000Y-88900000D01*
X138620000Y-90170000D02*
X140360000Y-90170000D01*
%TO.N,Net-(D3-Pad2)*%
X121349000Y-77611500D02*
X121236500Y-77724000D01*
X121349000Y-75692000D02*
X121349000Y-77611500D01*
%TO.N,VBATSCALED*%
X143447000Y-86360000D02*
X144272000Y-85535000D01*
X144272000Y-84010000D02*
X144272000Y-85535000D01*
X141630000Y-86360000D02*
X143447000Y-86360000D01*
%TO.N,5VRAW*%
X135062000Y-86662500D02*
X135062000Y-89787000D01*
X140970000Y-102362000D02*
X141973000Y-102362000D01*
X137957500Y-86662500D02*
X138684000Y-87389000D01*
X143220000Y-104224000D02*
X143220000Y-112184000D01*
X141973000Y-102362000D02*
X142481000Y-101854000D01*
X135062000Y-89787000D02*
X135445000Y-90170000D01*
X143220000Y-114066000D02*
X143220000Y-111930000D01*
X135062000Y-86662500D02*
X137957500Y-86662500D01*
X139229500Y-88900000D02*
X139229500Y-87934500D01*
X139229500Y-87934500D02*
X138430000Y-87135000D01*
X142481000Y-103231000D02*
X143220000Y-103970000D01*
X141970000Y-115316000D02*
X143220000Y-114066000D01*
X142481000Y-101854000D02*
X142481000Y-103231000D01*
%TO.N,Net-(J7-Pad1)*%
X146050000Y-113538000D02*
X144272000Y-115316000D01*
X146050000Y-88963000D02*
X146050000Y-113538000D01*
X144272000Y-87185000D02*
X146050000Y-88963000D01*
%TO.N,Net-(J8-Pad1)*%
X129032000Y-68834000D02*
X129032000Y-67326000D01*
X129032000Y-67326000D02*
X129048000Y-67310000D01*
X135811500Y-72710000D02*
X132908000Y-72710000D01*
X132908000Y-72710000D02*
X129032000Y-68834000D01*
%TO.N,Net-(Q3-Pad1)*%
X136576500Y-75375000D02*
X135811500Y-74610000D01*
X137795000Y-75375000D02*
X136576500Y-75375000D01*
%TO.N,Net-(R1-Pad1)*%
X136905000Y-92456000D02*
X136905000Y-90235000D01*
X137705500Y-92710000D02*
X138340500Y-93345000D01*
X138720000Y-104224000D02*
X138720000Y-112184000D01*
X137159000Y-92710000D02*
X136905000Y-92456000D01*
X137705500Y-92710000D02*
X137159000Y-92710000D01*
X138598496Y-104102496D02*
X138720000Y-104224000D01*
X138598496Y-102447504D02*
X138598496Y-104102496D01*
X136905000Y-90235000D02*
X136970000Y-90170000D01*
%TD*%
%TA.AperFunction,Conductor*%
%TO.N,GND*%
G36*
X137636282Y-102247663D02*
G01*
X137682775Y-102301319D01*
X137693471Y-102366831D01*
X137684992Y-102447504D01*
X137685682Y-102454069D01*
X137703162Y-102620380D01*
X137704954Y-102637432D01*
X137706995Y-102643714D01*
X137706996Y-102643718D01*
X137729624Y-102713360D01*
X137731651Y-102784328D01*
X137705123Y-102830528D01*
X137706739Y-102831739D01*
X137619385Y-102948295D01*
X137568255Y-103084684D01*
X137561500Y-103146866D01*
X137561500Y-104793134D01*
X137568255Y-104855316D01*
X137619385Y-104991705D01*
X137706739Y-105108261D01*
X137823295Y-105195615D01*
X137959684Y-105246745D01*
X137973037Y-105248196D01*
X137974108Y-105248312D01*
X138039670Y-105275554D01*
X138080096Y-105333917D01*
X138086500Y-105373575D01*
X138086500Y-110526425D01*
X138066498Y-110594546D01*
X138012842Y-110641039D01*
X137974108Y-110651688D01*
X137973037Y-110651804D01*
X137959684Y-110653255D01*
X137823295Y-110704385D01*
X137706739Y-110791739D01*
X137619385Y-110908295D01*
X137568255Y-111044684D01*
X137561500Y-111106866D01*
X137561500Y-112753134D01*
X137568255Y-112815316D01*
X137619385Y-112951705D01*
X137706739Y-113068261D01*
X137823295Y-113155615D01*
X137959684Y-113206745D01*
X138021866Y-113213500D01*
X139418134Y-113213500D01*
X139480316Y-113206745D01*
X139616705Y-113155615D01*
X139733261Y-113068261D01*
X139820615Y-112951705D01*
X139871745Y-112815316D01*
X139878500Y-112753134D01*
X139878500Y-111106866D01*
X139871745Y-111044684D01*
X139820615Y-110908295D01*
X139733261Y-110791739D01*
X139616705Y-110704385D01*
X139480316Y-110653255D01*
X139466963Y-110651804D01*
X139465892Y-110651688D01*
X139400330Y-110624446D01*
X139359904Y-110566083D01*
X139353500Y-110526425D01*
X139353500Y-105373575D01*
X139373502Y-105305454D01*
X139427158Y-105258961D01*
X139465892Y-105248312D01*
X139466963Y-105248196D01*
X139480316Y-105246745D01*
X139616705Y-105195615D01*
X139733261Y-105108261D01*
X139820615Y-104991705D01*
X139871745Y-104855316D01*
X139878500Y-104793134D01*
X139878500Y-103146866D01*
X139871745Y-103084684D01*
X139820615Y-102948295D01*
X139733261Y-102831739D01*
X139616705Y-102744385D01*
X139608296Y-102741233D01*
X139608293Y-102741231D01*
X139577219Y-102729582D01*
X139520454Y-102686941D01*
X139495753Y-102620380D01*
X139496137Y-102598430D01*
X139498652Y-102574499D01*
X139499513Y-102566307D01*
X139526526Y-102500651D01*
X139584747Y-102460021D01*
X139655692Y-102457318D01*
X139663763Y-102459646D01*
X139665677Y-102460268D01*
X139671712Y-102462955D01*
X139678167Y-102464327D01*
X139678170Y-102464328D01*
X139852056Y-102501289D01*
X139852061Y-102501289D01*
X139858513Y-102502661D01*
X139968906Y-102502661D01*
X140037027Y-102522663D01*
X140083520Y-102576319D01*
X140088739Y-102589725D01*
X140095783Y-102611404D01*
X140135473Y-102733556D01*
X140230960Y-102898944D01*
X140358747Y-103040866D01*
X140513248Y-103153118D01*
X140519276Y-103155802D01*
X140519278Y-103155803D01*
X140681681Y-103228109D01*
X140687712Y-103230794D01*
X140781112Y-103250647D01*
X140868056Y-103269128D01*
X140868061Y-103269128D01*
X140874513Y-103270500D01*
X141065487Y-103270500D01*
X141071939Y-103269128D01*
X141071944Y-103269128D01*
X141158887Y-103250647D01*
X141252288Y-103230794D01*
X141258319Y-103228109D01*
X141420722Y-103155803D01*
X141420724Y-103155802D01*
X141426752Y-103153118D01*
X141581253Y-103040866D01*
X141585668Y-103035963D01*
X141590580Y-103031540D01*
X141591705Y-103032789D01*
X141645014Y-102999949D01*
X141678200Y-102995500D01*
X141721500Y-102995500D01*
X141789621Y-103015502D01*
X141836114Y-103069158D01*
X141847500Y-103121500D01*
X141847500Y-103152233D01*
X141846973Y-103163416D01*
X141845298Y-103170909D01*
X141845547Y-103178835D01*
X141845547Y-103178836D01*
X141847438Y-103238986D01*
X141847500Y-103242945D01*
X141847500Y-103270856D01*
X141847997Y-103274790D01*
X141847997Y-103274791D01*
X141848005Y-103274856D01*
X141848938Y-103286693D01*
X141850327Y-103330889D01*
X141855978Y-103350339D01*
X141859987Y-103369700D01*
X141862526Y-103389797D01*
X141865445Y-103397168D01*
X141865445Y-103397170D01*
X141878804Y-103430912D01*
X141882649Y-103442142D01*
X141890947Y-103470705D01*
X141894982Y-103484593D01*
X141899015Y-103491412D01*
X141899017Y-103491417D01*
X141905293Y-103502028D01*
X141913988Y-103519776D01*
X141921448Y-103538617D01*
X141926110Y-103545033D01*
X141926110Y-103545034D01*
X141947436Y-103574387D01*
X141953952Y-103584307D01*
X141976458Y-103622362D01*
X141990779Y-103636683D01*
X142003619Y-103651716D01*
X142015528Y-103668107D01*
X142021637Y-103673161D01*
X142027063Y-103678939D01*
X142024547Y-103681302D01*
X142055520Y-103727072D01*
X142061500Y-103765429D01*
X142061500Y-104793134D01*
X142068255Y-104855316D01*
X142119385Y-104991705D01*
X142206739Y-105108261D01*
X142323295Y-105195615D01*
X142459684Y-105246745D01*
X142473037Y-105248196D01*
X142474108Y-105248312D01*
X142539670Y-105275554D01*
X142580096Y-105333917D01*
X142586500Y-105373575D01*
X142586500Y-110526425D01*
X142566498Y-110594546D01*
X142512842Y-110641039D01*
X142474108Y-110651688D01*
X142473037Y-110651804D01*
X142459684Y-110653255D01*
X142323295Y-110704385D01*
X142206739Y-110791739D01*
X142119385Y-110908295D01*
X142068255Y-111044684D01*
X142061500Y-111106866D01*
X142061500Y-112753134D01*
X142068255Y-112815316D01*
X142119385Y-112951705D01*
X142206739Y-113068261D01*
X142323295Y-113155615D01*
X142459684Y-113206745D01*
X142473037Y-113208196D01*
X142474108Y-113208312D01*
X142539670Y-113235554D01*
X142580096Y-113293917D01*
X142586500Y-113333575D01*
X142586500Y-113751406D01*
X142566498Y-113819527D01*
X142549595Y-113840501D01*
X142393474Y-113996622D01*
X142331162Y-114030648D01*
X142260347Y-114025583D01*
X142215362Y-113996701D01*
X142191718Y-113973099D01*
X142185303Y-113966695D01*
X142179072Y-113962854D01*
X142040968Y-113877725D01*
X142040966Y-113877724D01*
X142034738Y-113873885D01*
X141934088Y-113840501D01*
X141873389Y-113820368D01*
X141873387Y-113820368D01*
X141866861Y-113818203D01*
X141860025Y-113817503D01*
X141860022Y-113817502D01*
X141816969Y-113813091D01*
X141762400Y-113807500D01*
X141161600Y-113807500D01*
X141158354Y-113807837D01*
X141158350Y-113807837D01*
X141062692Y-113817762D01*
X141062688Y-113817763D01*
X141055834Y-113818474D01*
X141049298Y-113820655D01*
X141049296Y-113820655D01*
X140917194Y-113864728D01*
X140888054Y-113874450D01*
X140737652Y-113967522D01*
X140612695Y-114092697D01*
X140608855Y-114098927D01*
X140608854Y-114098928D01*
X140568961Y-114163647D01*
X140516189Y-114211140D01*
X140446117Y-114222564D01*
X140380994Y-114194290D01*
X140354557Y-114163834D01*
X140313937Y-114098193D01*
X140304901Y-114086792D01*
X140190171Y-113972261D01*
X140178760Y-113963249D01*
X140040757Y-113878184D01*
X140027576Y-113872037D01*
X139873290Y-113820862D01*
X139859914Y-113817995D01*
X139765562Y-113808328D01*
X139759145Y-113808000D01*
X139734115Y-113808000D01*
X139718876Y-113812475D01*
X139717671Y-113813865D01*
X139716000Y-113821548D01*
X139716000Y-116805884D01*
X139720475Y-116821123D01*
X139721865Y-116822328D01*
X139729548Y-116823999D01*
X139759095Y-116823999D01*
X139765614Y-116823662D01*
X139861206Y-116813743D01*
X139874600Y-116810851D01*
X140028784Y-116759412D01*
X140041962Y-116753239D01*
X140179807Y-116667937D01*
X140191208Y-116658901D01*
X140305739Y-116544171D01*
X140314751Y-116532760D01*
X140354451Y-116468354D01*
X140407223Y-116420861D01*
X140477294Y-116409437D01*
X140542418Y-116437711D01*
X140568854Y-116468166D01*
X140613522Y-116540348D01*
X140738697Y-116665305D01*
X140744927Y-116669145D01*
X140744928Y-116669146D01*
X140882288Y-116753816D01*
X140889262Y-116758115D01*
X140969005Y-116784564D01*
X141050611Y-116811632D01*
X141050613Y-116811632D01*
X141057139Y-116813797D01*
X141063975Y-116814497D01*
X141063978Y-116814498D01*
X141107031Y-116818909D01*
X141161600Y-116824500D01*
X141762400Y-116824500D01*
X141765646Y-116824163D01*
X141765650Y-116824163D01*
X141861308Y-116814238D01*
X141861312Y-116814237D01*
X141868166Y-116813526D01*
X141874702Y-116811345D01*
X141874704Y-116811345D01*
X142006806Y-116767272D01*
X142035946Y-116757550D01*
X142186348Y-116664478D01*
X142311305Y-116539303D01*
X142355154Y-116468167D01*
X142400275Y-116394968D01*
X142400276Y-116394966D01*
X142404115Y-116388738D01*
X142459797Y-116220861D01*
X142461594Y-116203328D01*
X142470167Y-116119650D01*
X142470500Y-116116400D01*
X142470500Y-115763595D01*
X142490502Y-115695474D01*
X142507405Y-115674499D01*
X143048405Y-115133500D01*
X143110717Y-115099475D01*
X143181533Y-115104540D01*
X143238368Y-115147087D01*
X143263179Y-115213607D01*
X143263500Y-115222596D01*
X143263500Y-116116400D01*
X143263837Y-116119646D01*
X143263837Y-116119650D01*
X143273752Y-116215206D01*
X143274474Y-116222166D01*
X143330450Y-116389946D01*
X143423522Y-116540348D01*
X143548697Y-116665305D01*
X143554927Y-116669145D01*
X143554928Y-116669146D01*
X143692288Y-116753816D01*
X143699262Y-116758115D01*
X143779005Y-116784564D01*
X143860611Y-116811632D01*
X143860613Y-116811632D01*
X143867139Y-116813797D01*
X143873975Y-116814497D01*
X143873978Y-116814498D01*
X143917031Y-116818909D01*
X143971600Y-116824500D01*
X144572400Y-116824500D01*
X144575646Y-116824163D01*
X144575650Y-116824163D01*
X144671308Y-116814238D01*
X144671312Y-116814237D01*
X144678166Y-116813526D01*
X144684702Y-116811345D01*
X144684704Y-116811345D01*
X144816806Y-116767272D01*
X144845946Y-116757550D01*
X144996348Y-116664478D01*
X145121305Y-116539303D01*
X145165154Y-116468167D01*
X145210275Y-116394968D01*
X145210276Y-116394966D01*
X145214115Y-116388738D01*
X145269797Y-116220861D01*
X145271594Y-116203328D01*
X145280167Y-116119650D01*
X145280500Y-116116400D01*
X145280500Y-115255594D01*
X145300502Y-115187473D01*
X145317405Y-115166499D01*
X146342905Y-114140999D01*
X146405217Y-114106973D01*
X146476032Y-114112038D01*
X146532868Y-114154585D01*
X146557679Y-114221105D01*
X146558000Y-114230094D01*
X146558000Y-117476000D01*
X146537998Y-117544121D01*
X146484342Y-117590614D01*
X146432000Y-117602000D01*
X134955500Y-117602000D01*
X134887379Y-117581998D01*
X134840886Y-117528342D01*
X134829500Y-117476000D01*
X134829500Y-117120115D01*
X134825025Y-117104876D01*
X134823635Y-117103671D01*
X134815952Y-117102000D01*
X133793500Y-117102000D01*
X133725379Y-117081998D01*
X133678886Y-117028342D01*
X133667500Y-116976000D01*
X133667500Y-116575885D01*
X134175500Y-116575885D01*
X134179975Y-116591124D01*
X134181365Y-116592329D01*
X134189048Y-116594000D01*
X134811384Y-116594000D01*
X134826623Y-116589525D01*
X134827828Y-116588135D01*
X134829499Y-116580452D01*
X134829499Y-116203331D01*
X134829129Y-116196510D01*
X134823605Y-116145648D01*
X134819979Y-116130396D01*
X134813493Y-116113095D01*
X138454001Y-116113095D01*
X138454338Y-116119614D01*
X138464257Y-116215206D01*
X138467149Y-116228600D01*
X138518588Y-116382784D01*
X138524761Y-116395962D01*
X138610063Y-116533807D01*
X138619099Y-116545208D01*
X138733829Y-116659739D01*
X138745240Y-116668751D01*
X138883243Y-116753816D01*
X138896424Y-116759963D01*
X139050710Y-116811138D01*
X139064086Y-116814005D01*
X139158438Y-116823672D01*
X139164854Y-116824000D01*
X139189885Y-116824000D01*
X139205124Y-116819525D01*
X139206329Y-116818135D01*
X139208000Y-116810452D01*
X139208000Y-115588115D01*
X139203525Y-115572876D01*
X139202135Y-115571671D01*
X139194452Y-115570000D01*
X138472116Y-115570000D01*
X138456877Y-115574475D01*
X138455672Y-115575865D01*
X138454001Y-115583548D01*
X138454001Y-116113095D01*
X134813493Y-116113095D01*
X134774824Y-116009946D01*
X134766286Y-115994351D01*
X134689785Y-115892276D01*
X134677224Y-115879715D01*
X134575149Y-115803214D01*
X134559554Y-115794676D01*
X134439106Y-115749522D01*
X134423851Y-115745895D01*
X134372986Y-115740369D01*
X134366172Y-115740000D01*
X134193615Y-115740000D01*
X134178376Y-115744475D01*
X134177171Y-115745865D01*
X134175500Y-115753548D01*
X134175500Y-116575885D01*
X133667500Y-116575885D01*
X133667500Y-115758116D01*
X133663025Y-115742877D01*
X133661635Y-115741672D01*
X133653952Y-115740001D01*
X133476831Y-115740001D01*
X133470010Y-115740371D01*
X133419148Y-115745895D01*
X133403896Y-115749521D01*
X133331442Y-115776683D01*
X133260635Y-115781866D01*
X133242984Y-115776684D01*
X133161816Y-115746255D01*
X133099634Y-115739500D01*
X132203366Y-115739500D01*
X132141184Y-115746255D01*
X132078853Y-115769622D01*
X132060730Y-115776416D01*
X131989923Y-115781599D01*
X131972270Y-115776416D01*
X131954147Y-115769622D01*
X131891816Y-115746255D01*
X131829634Y-115739500D01*
X130933366Y-115739500D01*
X130871184Y-115746255D01*
X130808853Y-115769622D01*
X130790730Y-115776416D01*
X130719923Y-115781599D01*
X130702270Y-115776416D01*
X130637437Y-115752111D01*
X130588712Y-115715028D01*
X130587056Y-115716583D01*
X130581632Y-115710807D01*
X130576972Y-115704393D01*
X130542895Y-115676202D01*
X130534116Y-115668212D01*
X129909789Y-115043885D01*
X138454000Y-115043885D01*
X138458475Y-115059124D01*
X138459865Y-115060329D01*
X138467548Y-115062000D01*
X139189885Y-115062000D01*
X139205124Y-115057525D01*
X139206329Y-115056135D01*
X139208000Y-115048452D01*
X139208000Y-113826116D01*
X139203525Y-113810877D01*
X139202135Y-113809672D01*
X139194452Y-113808001D01*
X139164905Y-113808001D01*
X139158386Y-113808338D01*
X139062794Y-113818257D01*
X139049400Y-113821149D01*
X138895216Y-113872588D01*
X138882038Y-113878761D01*
X138744193Y-113964063D01*
X138732792Y-113973099D01*
X138618261Y-114087829D01*
X138609249Y-114099240D01*
X138524184Y-114237243D01*
X138518037Y-114250424D01*
X138466862Y-114404710D01*
X138463995Y-114418086D01*
X138454328Y-114512438D01*
X138454000Y-114518855D01*
X138454000Y-115043885D01*
X129909789Y-115043885D01*
X126146405Y-111280500D01*
X126112379Y-111218188D01*
X126109500Y-111191405D01*
X126109500Y-102496000D01*
X126129502Y-102427879D01*
X126183158Y-102381386D01*
X126235500Y-102370000D01*
X126429500Y-102370000D01*
X126497621Y-102390002D01*
X126544114Y-102443658D01*
X126555500Y-102496000D01*
X126555500Y-103713884D01*
X126559975Y-103729123D01*
X126561365Y-103730328D01*
X126569048Y-103731999D01*
X126746169Y-103731999D01*
X126752990Y-103731629D01*
X126803852Y-103726105D01*
X126819104Y-103722479D01*
X126891558Y-103695317D01*
X126962365Y-103690134D01*
X126980016Y-103695316D01*
X127061184Y-103725745D01*
X127123366Y-103732500D01*
X128019634Y-103732500D01*
X128081816Y-103725745D01*
X128162270Y-103695584D01*
X128233077Y-103690401D01*
X128250729Y-103695584D01*
X128331184Y-103725745D01*
X128393366Y-103732500D01*
X129289634Y-103732500D01*
X129351816Y-103725745D01*
X129432270Y-103695584D01*
X129503077Y-103690401D01*
X129520729Y-103695584D01*
X129601184Y-103725745D01*
X129663366Y-103732500D01*
X130559634Y-103732500D01*
X130621816Y-103725745D01*
X130702270Y-103695584D01*
X130773077Y-103690401D01*
X130790729Y-103695584D01*
X130871184Y-103725745D01*
X130933366Y-103732500D01*
X131829634Y-103732500D01*
X131891816Y-103725745D01*
X131972983Y-103695317D01*
X132043789Y-103690134D01*
X132061442Y-103695317D01*
X132133894Y-103722478D01*
X132149149Y-103726105D01*
X132200014Y-103731631D01*
X132206828Y-103732000D01*
X132379385Y-103732000D01*
X132394624Y-103727525D01*
X132395829Y-103726135D01*
X132397500Y-103718452D01*
X132397500Y-102496000D01*
X132417502Y-102427879D01*
X132471158Y-102381386D01*
X132523500Y-102370000D01*
X132779500Y-102370000D01*
X132847621Y-102390002D01*
X132894114Y-102443658D01*
X132905500Y-102496000D01*
X132905500Y-103713884D01*
X132909975Y-103729123D01*
X132911365Y-103730328D01*
X132919048Y-103731999D01*
X133096169Y-103731999D01*
X133102990Y-103731629D01*
X133153852Y-103726105D01*
X133169104Y-103722479D01*
X133241558Y-103695317D01*
X133312365Y-103690134D01*
X133330016Y-103695316D01*
X133411184Y-103725745D01*
X133473366Y-103732500D01*
X134369634Y-103732500D01*
X134431816Y-103725745D01*
X134568205Y-103674615D01*
X134684761Y-103587261D01*
X134772115Y-103470705D01*
X134823245Y-103334316D01*
X134830000Y-103272134D01*
X134830000Y-102663594D01*
X134850002Y-102595473D01*
X134866905Y-102574499D01*
X135176838Y-102264566D01*
X135239150Y-102230540D01*
X135265933Y-102227661D01*
X137568161Y-102227661D01*
X137636282Y-102247663D01*
G37*
%TD.AperFunction*%
%TA.AperFunction,Conductor*%
G36*
X137065362Y-64790002D02*
G01*
X137111855Y-64843658D01*
X137121959Y-64913932D01*
X137092465Y-64978512D01*
X137071245Y-64997977D01*
X137070556Y-64998477D01*
X137060695Y-65004951D01*
X137022638Y-65027458D01*
X137008317Y-65041779D01*
X136993284Y-65054619D01*
X136976893Y-65066528D01*
X136971843Y-65072632D01*
X136971838Y-65072637D01*
X136948707Y-65100598D01*
X136940717Y-65109379D01*
X136285499Y-65764596D01*
X136223187Y-65798621D01*
X136196404Y-65801500D01*
X135949600Y-65801500D01*
X135946354Y-65801837D01*
X135946350Y-65801837D01*
X135850692Y-65811762D01*
X135850688Y-65811763D01*
X135843834Y-65812474D01*
X135837298Y-65814655D01*
X135837296Y-65814655D01*
X135820928Y-65820116D01*
X135676054Y-65868450D01*
X135525652Y-65961522D01*
X135400695Y-66086697D01*
X135396855Y-66092927D01*
X135396854Y-66092928D01*
X135357255Y-66157170D01*
X135304483Y-66204663D01*
X135234411Y-66216087D01*
X135169288Y-66187813D01*
X135142851Y-66157358D01*
X135135346Y-66145230D01*
X135098478Y-66085652D01*
X134973303Y-65960695D01*
X134967072Y-65956854D01*
X134828968Y-65871725D01*
X134828966Y-65871724D01*
X134822738Y-65867885D01*
X134728772Y-65836718D01*
X134661389Y-65814368D01*
X134661387Y-65814368D01*
X134654861Y-65812203D01*
X134648025Y-65811503D01*
X134648022Y-65811502D01*
X134604969Y-65807091D01*
X134550400Y-65801500D01*
X133949600Y-65801500D01*
X133946354Y-65801837D01*
X133946350Y-65801837D01*
X133850692Y-65811762D01*
X133850688Y-65811763D01*
X133843834Y-65812474D01*
X133837298Y-65814655D01*
X133837296Y-65814655D01*
X133820928Y-65820116D01*
X133676054Y-65868450D01*
X133525652Y-65961522D01*
X133400695Y-66086697D01*
X133396855Y-66092927D01*
X133396854Y-66092928D01*
X133320938Y-66216087D01*
X133307885Y-66237262D01*
X133252203Y-66405139D01*
X133251503Y-66411975D01*
X133251502Y-66411978D01*
X133247091Y-66455031D01*
X133241500Y-66509600D01*
X133241500Y-68110400D01*
X133241837Y-68113646D01*
X133241837Y-68113650D01*
X133251618Y-68207914D01*
X133252474Y-68216166D01*
X133254655Y-68222702D01*
X133254655Y-68222704D01*
X133293488Y-68339101D01*
X133308450Y-68383946D01*
X133401522Y-68534348D01*
X133406704Y-68539521D01*
X133489623Y-68622296D01*
X133523702Y-68684579D01*
X133520438Y-68750405D01*
X133498475Y-68818000D01*
X133472458Y-68898072D01*
X133471768Y-68904633D01*
X133471768Y-68904635D01*
X133456870Y-69046386D01*
X133452496Y-69088000D01*
X133453186Y-69094565D01*
X133469176Y-69246697D01*
X133472458Y-69277928D01*
X133531473Y-69459556D01*
X133626960Y-69624944D01*
X133631378Y-69629851D01*
X133631379Y-69629852D01*
X133749915Y-69761500D01*
X133754747Y-69766866D01*
X133841640Y-69829998D01*
X133894634Y-69868500D01*
X133909248Y-69879118D01*
X133915276Y-69881802D01*
X133915278Y-69881803D01*
X134055122Y-69944065D01*
X134083712Y-69956794D01*
X134177112Y-69976647D01*
X134264056Y-69995128D01*
X134264061Y-69995128D01*
X134270513Y-69996500D01*
X134461487Y-69996500D01*
X134467939Y-69995128D01*
X134467944Y-69995128D01*
X134554888Y-69976647D01*
X134648288Y-69956794D01*
X134676878Y-69944065D01*
X134816722Y-69881803D01*
X134816724Y-69881802D01*
X134822752Y-69879118D01*
X134837367Y-69868500D01*
X134962153Y-69777837D01*
X135029021Y-69753979D01*
X135098172Y-69770059D01*
X135147652Y-69820973D01*
X135161541Y-69866769D01*
X135163101Y-69881803D01*
X135171113Y-69959019D01*
X135173295Y-69965559D01*
X135222537Y-70113153D01*
X135225244Y-70121268D01*
X135229096Y-70127492D01*
X135229096Y-70127493D01*
X135253878Y-70167540D01*
X135315248Y-70266713D01*
X135320430Y-70271886D01*
X135324977Y-70277623D01*
X135323170Y-70279055D01*
X135351902Y-70331575D01*
X135346892Y-70402395D01*
X135323501Y-70438853D01*
X135324552Y-70439683D01*
X135311002Y-70456840D01*
X135228996Y-70589880D01*
X135222849Y-70603061D01*
X135173509Y-70751814D01*
X135170642Y-70765190D01*
X135161328Y-70856097D01*
X135161071Y-70861126D01*
X135165475Y-70876124D01*
X135166865Y-70877329D01*
X135174548Y-70879000D01*
X137108885Y-70879000D01*
X137124124Y-70874525D01*
X137125329Y-70873135D01*
X137127000Y-70865452D01*
X137127000Y-70862562D01*
X137126663Y-70856047D01*
X137117106Y-70763943D01*
X137114212Y-70750544D01*
X137064619Y-70601893D01*
X137058445Y-70588714D01*
X136976212Y-70455827D01*
X136962629Y-70438689D01*
X136964559Y-70437159D01*
X136936097Y-70385120D01*
X136941113Y-70314301D01*
X136964799Y-70277383D01*
X136963843Y-70276628D01*
X136968381Y-70270882D01*
X136973552Y-70265702D01*
X137038903Y-70159684D01*
X137059462Y-70126331D01*
X137059463Y-70126329D01*
X137063302Y-70120101D01*
X137117149Y-69957757D01*
X137120879Y-69921358D01*
X137122928Y-69901358D01*
X137127500Y-69856732D01*
X137127500Y-69309268D01*
X137125148Y-69286594D01*
X137118794Y-69225362D01*
X137116887Y-69206981D01*
X137094407Y-69139602D01*
X137065073Y-69051676D01*
X137065072Y-69051674D01*
X137062756Y-69044732D01*
X137056061Y-69033912D01*
X136976606Y-68905515D01*
X136972752Y-68899287D01*
X136951284Y-68877856D01*
X136937156Y-68863753D01*
X136903077Y-68801471D01*
X136908080Y-68730650D01*
X136950577Y-68673778D01*
X136959861Y-68667443D01*
X136974348Y-68658478D01*
X137099305Y-68533303D01*
X137106110Y-68522263D01*
X137158880Y-68474769D01*
X137228952Y-68463344D01*
X137294076Y-68491616D01*
X137320514Y-68522072D01*
X137324063Y-68527807D01*
X137333099Y-68539208D01*
X137447829Y-68653739D01*
X137459240Y-68662751D01*
X137597243Y-68747816D01*
X137610424Y-68753963D01*
X137764710Y-68805138D01*
X137778086Y-68808005D01*
X137872438Y-68817672D01*
X137878854Y-68818000D01*
X137903885Y-68818000D01*
X137919124Y-68813525D01*
X137920329Y-68812135D01*
X137922000Y-68804452D01*
X137922000Y-67182000D01*
X137942002Y-67113879D01*
X137995658Y-67067386D01*
X138048000Y-67056000D01*
X139165884Y-67056000D01*
X139181123Y-67051525D01*
X139182328Y-67050135D01*
X139183999Y-67042452D01*
X139183999Y-66512905D01*
X139183662Y-66506386D01*
X139173743Y-66410794D01*
X139170851Y-66397400D01*
X139148824Y-66331376D01*
X139146240Y-66260426D01*
X139182424Y-66199342D01*
X139245888Y-66167518D01*
X139268348Y-66165500D01*
X140269145Y-66165500D01*
X140337266Y-66185502D01*
X140383759Y-66239158D01*
X140393863Y-66309432D01*
X140388738Y-66331167D01*
X140364203Y-66405139D01*
X140363503Y-66411975D01*
X140363502Y-66411978D01*
X140359091Y-66455031D01*
X140353500Y-66509600D01*
X140353500Y-67370406D01*
X140333498Y-67438527D01*
X140316599Y-67459497D01*
X139356886Y-68419209D01*
X139294576Y-68453233D01*
X139223760Y-68448168D01*
X139166925Y-68405621D01*
X139142114Y-68339101D01*
X139148200Y-68290444D01*
X139171138Y-68221290D01*
X139174005Y-68207914D01*
X139183672Y-68113562D01*
X139184000Y-68107146D01*
X139184000Y-67582115D01*
X139179525Y-67566876D01*
X139178135Y-67565671D01*
X139170452Y-67564000D01*
X138448115Y-67564000D01*
X138432876Y-67568475D01*
X138431671Y-67569865D01*
X138430000Y-67577548D01*
X138430000Y-68799884D01*
X138434475Y-68815123D01*
X138435865Y-68816328D01*
X138443548Y-68817999D01*
X138473095Y-68817999D01*
X138479614Y-68817662D01*
X138575206Y-68807743D01*
X138588600Y-68804851D01*
X138742784Y-68753412D01*
X138755962Y-68747239D01*
X138898356Y-68659122D01*
X138966808Y-68640284D01*
X139034577Y-68661445D01*
X139080149Y-68715886D01*
X139089053Y-68786322D01*
X139087942Y-68791261D01*
X139086819Y-68793855D01*
X139085579Y-68801685D01*
X139085577Y-68801691D01*
X139079901Y-68837524D01*
X139077495Y-68849144D01*
X139072168Y-68869892D01*
X139066500Y-68891970D01*
X139066500Y-68912224D01*
X139064949Y-68931934D01*
X139061780Y-68951943D01*
X139062526Y-68959835D01*
X139065941Y-68995961D01*
X139066500Y-69007819D01*
X139066500Y-78392243D01*
X139065973Y-78403426D01*
X139064298Y-78410919D01*
X139064547Y-78418845D01*
X139064547Y-78418846D01*
X139066438Y-78478996D01*
X139066500Y-78482955D01*
X139066500Y-78505042D01*
X139046498Y-78573163D01*
X138992842Y-78619656D01*
X138938961Y-78631033D01*
X138926740Y-78630884D01*
X138873081Y-78630228D01*
X138873079Y-78630228D01*
X138867911Y-78630165D01*
X138647091Y-78663955D01*
X138434756Y-78733357D01*
X138236607Y-78836507D01*
X138232474Y-78839610D01*
X138232471Y-78839612D01*
X138070102Y-78961522D01*
X138057965Y-78970635D01*
X138016525Y-79014000D01*
X138010594Y-79020206D01*
X137949070Y-79055636D01*
X137878157Y-79052179D01*
X137820371Y-79010933D01*
X137794057Y-78944993D01*
X137793500Y-78933155D01*
X137793500Y-78546594D01*
X137813502Y-78478473D01*
X137830405Y-78457499D01*
X138180736Y-78107168D01*
X138189026Y-78099624D01*
X138195507Y-78095511D01*
X138242148Y-78045843D01*
X138244902Y-78043002D01*
X138264624Y-78023280D01*
X138267101Y-78020087D01*
X138274806Y-78011066D01*
X138298724Y-77985595D01*
X138305075Y-77978832D01*
X138308896Y-77971882D01*
X138314835Y-77961079D01*
X138325691Y-77944552D01*
X138333246Y-77934813D01*
X138333247Y-77934811D01*
X138338103Y-77928551D01*
X138344169Y-77914533D01*
X138394535Y-77856797D01*
X138399775Y-77853624D01*
X138510381Y-77786639D01*
X138631639Y-77665381D01*
X138720472Y-77518699D01*
X138725958Y-77501195D01*
X138748476Y-77429338D01*
X138771753Y-77355062D01*
X138778500Y-77281635D01*
X138778499Y-76768366D01*
X138778234Y-76765474D01*
X138772364Y-76701592D01*
X138771753Y-76694938D01*
X138765769Y-76675842D01*
X138722744Y-76538550D01*
X138722743Y-76538548D01*
X138720472Y-76531301D01*
X138631639Y-76384619D01*
X138536115Y-76289095D01*
X138502089Y-76226783D01*
X138507154Y-76155968D01*
X138536115Y-76110905D01*
X138631639Y-76015381D01*
X138720472Y-75868699D01*
X138724061Y-75857249D01*
X138755804Y-75755954D01*
X138771753Y-75705062D01*
X138778500Y-75631635D01*
X138778499Y-75118366D01*
X138771753Y-75044938D01*
X138763746Y-75019387D01*
X138722744Y-74888550D01*
X138722743Y-74888548D01*
X138720472Y-74881301D01*
X138631639Y-74734619D01*
X138510381Y-74613361D01*
X138447353Y-74575190D01*
X138409755Y-74552420D01*
X138361848Y-74500023D01*
X138349875Y-74430043D01*
X138377636Y-74364699D01*
X138396109Y-74347286D01*
X138396002Y-74347167D01*
X138400909Y-74342749D01*
X138406253Y-74338866D01*
X138429091Y-74313502D01*
X138529621Y-74201852D01*
X138529622Y-74201851D01*
X138534040Y-74196944D01*
X138629527Y-74031556D01*
X138688542Y-73849928D01*
X138693362Y-73804073D01*
X138707814Y-73666565D01*
X138708504Y-73660000D01*
X138701182Y-73590336D01*
X138689232Y-73476635D01*
X138689232Y-73476633D01*
X138688542Y-73470072D01*
X138629527Y-73288444D01*
X138534040Y-73123056D01*
X138461207Y-73042166D01*
X138410675Y-72986045D01*
X138410674Y-72986044D01*
X138406253Y-72981134D01*
X138307157Y-72909136D01*
X138257094Y-72872763D01*
X138257093Y-72872762D01*
X138251752Y-72868882D01*
X138245724Y-72866198D01*
X138245722Y-72866197D01*
X138083319Y-72793891D01*
X138083318Y-72793891D01*
X138077288Y-72791206D01*
X137983887Y-72771353D01*
X137896944Y-72752872D01*
X137896939Y-72752872D01*
X137890487Y-72751500D01*
X137699513Y-72751500D01*
X137693061Y-72752872D01*
X137693056Y-72752872D01*
X137606113Y-72771353D01*
X137512712Y-72791206D01*
X137506682Y-72793891D01*
X137506681Y-72793891D01*
X137344278Y-72866197D01*
X137344276Y-72866198D01*
X137338248Y-72868882D01*
X137332907Y-72872762D01*
X137332906Y-72872763D01*
X137257561Y-72927505D01*
X137190694Y-72951363D01*
X137121542Y-72935283D01*
X137072062Y-72884370D01*
X137057500Y-72825569D01*
X137057500Y-72493498D01*
X137057307Y-72491042D01*
X137055067Y-72462579D01*
X137055066Y-72462574D01*
X137054562Y-72456169D01*
X137008145Y-72296399D01*
X136987758Y-72261927D01*
X136927491Y-72160020D01*
X136927489Y-72160017D01*
X136923453Y-72153193D01*
X136868591Y-72098331D01*
X136834565Y-72036019D01*
X136839630Y-71965204D01*
X136868513Y-71920218D01*
X136967986Y-71820571D01*
X136976998Y-71809160D01*
X137059004Y-71676120D01*
X137065151Y-71662939D01*
X137114491Y-71514186D01*
X137117358Y-71500810D01*
X137126672Y-71409903D01*
X137126929Y-71404874D01*
X137122525Y-71389876D01*
X137121135Y-71388671D01*
X137113452Y-71387000D01*
X135179115Y-71387000D01*
X135163876Y-71391475D01*
X135162671Y-71392865D01*
X135161000Y-71400548D01*
X135161000Y-71403438D01*
X135161337Y-71409953D01*
X135170894Y-71502057D01*
X135173788Y-71515456D01*
X135223381Y-71664107D01*
X135229555Y-71677286D01*
X135249784Y-71709976D01*
X135268622Y-71778428D01*
X135247461Y-71846198D01*
X135193020Y-71891769D01*
X135152528Y-71901890D01*
X135126588Y-71903932D01*
X135126580Y-71903933D01*
X135120169Y-71904438D01*
X135020231Y-71933472D01*
X134968012Y-71948643D01*
X134968010Y-71948644D01*
X134960399Y-71950855D01*
X134953572Y-71954892D01*
X134953573Y-71954892D01*
X134824020Y-72031509D01*
X134824017Y-72031511D01*
X134817193Y-72035547D01*
X134811585Y-72041155D01*
X134805325Y-72046011D01*
X134804156Y-72044504D01*
X134750833Y-72073621D01*
X134724050Y-72076500D01*
X133222594Y-72076500D01*
X133154473Y-72056498D01*
X133133499Y-72039595D01*
X129851392Y-68757487D01*
X129817366Y-68695175D01*
X129822431Y-68624359D01*
X129851314Y-68579374D01*
X129892134Y-68538483D01*
X129897305Y-68533303D01*
X129941040Y-68462352D01*
X129993811Y-68414860D01*
X130063883Y-68403436D01*
X130129006Y-68431710D01*
X130155443Y-68462166D01*
X130196063Y-68527807D01*
X130205099Y-68539208D01*
X130319829Y-68653739D01*
X130331240Y-68662751D01*
X130469243Y-68747816D01*
X130482424Y-68753963D01*
X130636710Y-68805138D01*
X130650086Y-68808005D01*
X130744438Y-68817672D01*
X130750854Y-68818000D01*
X130775885Y-68818000D01*
X130791124Y-68813525D01*
X130792329Y-68812135D01*
X130794000Y-68804452D01*
X130794000Y-68799884D01*
X131302000Y-68799884D01*
X131306475Y-68815123D01*
X131307865Y-68816328D01*
X131315548Y-68817999D01*
X131345095Y-68817999D01*
X131351614Y-68817662D01*
X131447206Y-68807743D01*
X131460600Y-68804851D01*
X131614784Y-68753412D01*
X131627962Y-68747239D01*
X131765807Y-68661937D01*
X131777208Y-68652901D01*
X131891739Y-68538171D01*
X131900751Y-68526760D01*
X131985816Y-68388757D01*
X131991963Y-68375576D01*
X132043138Y-68221290D01*
X132046005Y-68207914D01*
X132055672Y-68113562D01*
X132056000Y-68107146D01*
X132056000Y-67582115D01*
X132051525Y-67566876D01*
X132050135Y-67565671D01*
X132042452Y-67564000D01*
X131320115Y-67564000D01*
X131304876Y-67568475D01*
X131303671Y-67569865D01*
X131302000Y-67577548D01*
X131302000Y-68799884D01*
X130794000Y-68799884D01*
X130794000Y-67037885D01*
X131302000Y-67037885D01*
X131306475Y-67053124D01*
X131307865Y-67054329D01*
X131315548Y-67056000D01*
X132037884Y-67056000D01*
X132053123Y-67051525D01*
X132054328Y-67050135D01*
X132055999Y-67042452D01*
X132055999Y-66512905D01*
X132055662Y-66506386D01*
X132045743Y-66410794D01*
X132042851Y-66397400D01*
X131991412Y-66243216D01*
X131985239Y-66230038D01*
X131899937Y-66092193D01*
X131890901Y-66080792D01*
X131776171Y-65966261D01*
X131764760Y-65957249D01*
X131626757Y-65872184D01*
X131613576Y-65866037D01*
X131459290Y-65814862D01*
X131445914Y-65811995D01*
X131351562Y-65802328D01*
X131345145Y-65802000D01*
X131320115Y-65802000D01*
X131304876Y-65806475D01*
X131303671Y-65807865D01*
X131302000Y-65815548D01*
X131302000Y-67037885D01*
X130794000Y-67037885D01*
X130794000Y-65820116D01*
X130789525Y-65804877D01*
X130788135Y-65803672D01*
X130780452Y-65802001D01*
X130750905Y-65802001D01*
X130744386Y-65802338D01*
X130648794Y-65812257D01*
X130635400Y-65815149D01*
X130481216Y-65866588D01*
X130468038Y-65872761D01*
X130330193Y-65958063D01*
X130318792Y-65967099D01*
X130204261Y-66081829D01*
X130195249Y-66093240D01*
X130155549Y-66157646D01*
X130102777Y-66205139D01*
X130032706Y-66216563D01*
X129967582Y-66188289D01*
X129941145Y-66157833D01*
X129900332Y-66091880D01*
X129900330Y-66091877D01*
X129896478Y-66085652D01*
X129771303Y-65960695D01*
X129765072Y-65956854D01*
X129626968Y-65871725D01*
X129626966Y-65871724D01*
X129620738Y-65867885D01*
X129526772Y-65836718D01*
X129459389Y-65814368D01*
X129459387Y-65814368D01*
X129452861Y-65812203D01*
X129446025Y-65811503D01*
X129446022Y-65811502D01*
X129402969Y-65807091D01*
X129348400Y-65801500D01*
X128747600Y-65801500D01*
X128744354Y-65801837D01*
X128744350Y-65801837D01*
X128648692Y-65811762D01*
X128648688Y-65811763D01*
X128641834Y-65812474D01*
X128635298Y-65814655D01*
X128635296Y-65814655D01*
X128618928Y-65820116D01*
X128474054Y-65868450D01*
X128323652Y-65961522D01*
X128198695Y-66086697D01*
X128194855Y-66092927D01*
X128194854Y-66092928D01*
X128118938Y-66216087D01*
X128105885Y-66237262D01*
X128050203Y-66405139D01*
X128049503Y-66411975D01*
X128049502Y-66411978D01*
X128045091Y-66455031D01*
X128039500Y-66509600D01*
X128039500Y-68110400D01*
X128039837Y-68113646D01*
X128039837Y-68113650D01*
X128049618Y-68207914D01*
X128050474Y-68216166D01*
X128052655Y-68222702D01*
X128052655Y-68222704D01*
X128091488Y-68339101D01*
X128106450Y-68383946D01*
X128199522Y-68534348D01*
X128324697Y-68659305D01*
X128336837Y-68666788D01*
X128384330Y-68719559D01*
X128394036Y-68773980D01*
X128396298Y-68773909D01*
X128398438Y-68841986D01*
X128398500Y-68845945D01*
X128398500Y-68873856D01*
X128398997Y-68877790D01*
X128398997Y-68877791D01*
X128399005Y-68877856D01*
X128399938Y-68889693D01*
X128401327Y-68933889D01*
X128404298Y-68944114D01*
X128406978Y-68953339D01*
X128410987Y-68972700D01*
X128412109Y-68981577D01*
X128413526Y-68992797D01*
X128416445Y-69000168D01*
X128416445Y-69000170D01*
X128429804Y-69033912D01*
X128433649Y-69045142D01*
X128434278Y-69047307D01*
X128445982Y-69087593D01*
X128450015Y-69094412D01*
X128450017Y-69094417D01*
X128456293Y-69105028D01*
X128464988Y-69122776D01*
X128472448Y-69141617D01*
X128477110Y-69148033D01*
X128477110Y-69148034D01*
X128498436Y-69177387D01*
X128504952Y-69187307D01*
X128523384Y-69218473D01*
X128527458Y-69225362D01*
X128541779Y-69239683D01*
X128554619Y-69254716D01*
X128566528Y-69271107D01*
X128582362Y-69284206D01*
X128600605Y-69299298D01*
X128609384Y-69307288D01*
X132113500Y-72811405D01*
X132147526Y-72873717D01*
X132142461Y-72944533D01*
X132099914Y-73001368D01*
X132033394Y-73026179D01*
X132024405Y-73026500D01*
X131573616Y-73026500D01*
X131505495Y-73006498D01*
X131484521Y-72989595D01*
X127698674Y-69203747D01*
X127691134Y-69195461D01*
X127687022Y-69188982D01*
X127674675Y-69177387D01*
X127637371Y-69142357D01*
X127634529Y-69139602D01*
X127614792Y-69119865D01*
X127611595Y-69117385D01*
X127602573Y-69109680D01*
X127586477Y-69094565D01*
X127570343Y-69079414D01*
X127563397Y-69075595D01*
X127563394Y-69075593D01*
X127552588Y-69069652D01*
X127536069Y-69058801D01*
X127526883Y-69051676D01*
X127520063Y-69046386D01*
X127512794Y-69043241D01*
X127512790Y-69043238D01*
X127479485Y-69028826D01*
X127468835Y-69023609D01*
X127430082Y-69002305D01*
X127410459Y-68997267D01*
X127391756Y-68990863D01*
X127380442Y-68985967D01*
X127380441Y-68985967D01*
X127373167Y-68982819D01*
X127365344Y-68981580D01*
X127365334Y-68981577D01*
X127329498Y-68975901D01*
X127317878Y-68973495D01*
X127282733Y-68964472D01*
X127282732Y-68964472D01*
X127275052Y-68962500D01*
X127254798Y-68962500D01*
X127235087Y-68960949D01*
X127222908Y-68959020D01*
X127215079Y-68957780D01*
X127171093Y-68961938D01*
X127171061Y-68961941D01*
X127159203Y-68962500D01*
X126659163Y-68962500D01*
X126591042Y-68942498D01*
X126544549Y-68888842D01*
X126534445Y-68818568D01*
X126563939Y-68753988D01*
X126592860Y-68729356D01*
X126701807Y-68661937D01*
X126713208Y-68652901D01*
X126827739Y-68538171D01*
X126836751Y-68526760D01*
X126921816Y-68388757D01*
X126927963Y-68375576D01*
X126979138Y-68221290D01*
X126982005Y-68207914D01*
X126991672Y-68113562D01*
X126992000Y-68107146D01*
X126992000Y-67582115D01*
X126987525Y-67566876D01*
X126986135Y-67565671D01*
X126978452Y-67564000D01*
X125856000Y-67564000D01*
X125787879Y-67543998D01*
X125741386Y-67490342D01*
X125730000Y-67438000D01*
X125730000Y-67037885D01*
X126238000Y-67037885D01*
X126242475Y-67053124D01*
X126243865Y-67054329D01*
X126251548Y-67056000D01*
X126973884Y-67056000D01*
X126989123Y-67051525D01*
X126990328Y-67050135D01*
X126991999Y-67042452D01*
X126991999Y-66512905D01*
X126991662Y-66506386D01*
X126981743Y-66410794D01*
X126978851Y-66397400D01*
X126927412Y-66243216D01*
X126921239Y-66230038D01*
X126835937Y-66092193D01*
X126826901Y-66080792D01*
X126712171Y-65966261D01*
X126700760Y-65957249D01*
X126562757Y-65872184D01*
X126549576Y-65866037D01*
X126395290Y-65814862D01*
X126381914Y-65811995D01*
X126287562Y-65802328D01*
X126281145Y-65802000D01*
X126256115Y-65802000D01*
X126240876Y-65806475D01*
X126239671Y-65807865D01*
X126238000Y-65815548D01*
X126238000Y-67037885D01*
X125730000Y-67037885D01*
X125730000Y-65820116D01*
X125725525Y-65804877D01*
X125724135Y-65803672D01*
X125716452Y-65802001D01*
X125686905Y-65802001D01*
X125680386Y-65802338D01*
X125584794Y-65812257D01*
X125571400Y-65815149D01*
X125417216Y-65866588D01*
X125404038Y-65872761D01*
X125266193Y-65958063D01*
X125254792Y-65967099D01*
X125140261Y-66081829D01*
X125131251Y-66093238D01*
X125128479Y-66097735D01*
X125075708Y-66145230D01*
X125005637Y-66156655D01*
X124940512Y-66128383D01*
X124914074Y-66097926D01*
X124910334Y-66091883D01*
X124910332Y-66091880D01*
X124906478Y-66085652D01*
X124781303Y-65960695D01*
X124775072Y-65956854D01*
X124636968Y-65871725D01*
X124636966Y-65871724D01*
X124630738Y-65867885D01*
X124536772Y-65836718D01*
X124469389Y-65814368D01*
X124469387Y-65814368D01*
X124462861Y-65812203D01*
X124456025Y-65811503D01*
X124456022Y-65811502D01*
X124412969Y-65807091D01*
X124358400Y-65801500D01*
X123757600Y-65801500D01*
X123754354Y-65801837D01*
X123754350Y-65801837D01*
X123658692Y-65811762D01*
X123658688Y-65811763D01*
X123651834Y-65812474D01*
X123645298Y-65814655D01*
X123645296Y-65814655D01*
X123628928Y-65820116D01*
X123484054Y-65868450D01*
X123333652Y-65961522D01*
X123208695Y-66086697D01*
X123204855Y-66092927D01*
X123204854Y-66092928D01*
X123165255Y-66157170D01*
X123112483Y-66204663D01*
X123042411Y-66216087D01*
X122977288Y-66187813D01*
X122950851Y-66157358D01*
X122943346Y-66145230D01*
X122906478Y-66085652D01*
X122781303Y-65960695D01*
X122775072Y-65956854D01*
X122636968Y-65871725D01*
X122636966Y-65871724D01*
X122630738Y-65867885D01*
X122536772Y-65836718D01*
X122469389Y-65814368D01*
X122469387Y-65814368D01*
X122462861Y-65812203D01*
X122456025Y-65811503D01*
X122456022Y-65811502D01*
X122412969Y-65807091D01*
X122358400Y-65801500D01*
X121757600Y-65801500D01*
X121754354Y-65801837D01*
X121754350Y-65801837D01*
X121658692Y-65811762D01*
X121658688Y-65811763D01*
X121651834Y-65812474D01*
X121645298Y-65814655D01*
X121645296Y-65814655D01*
X121628928Y-65820116D01*
X121484054Y-65868450D01*
X121333652Y-65961522D01*
X121208695Y-66086697D01*
X121204855Y-66092927D01*
X121204854Y-66092928D01*
X121128938Y-66216087D01*
X121115885Y-66237262D01*
X121060203Y-66405139D01*
X121059503Y-66411975D01*
X121059502Y-66411978D01*
X121055091Y-66455031D01*
X121049500Y-66509600D01*
X121049500Y-67370405D01*
X121029498Y-67438526D01*
X121012595Y-67459501D01*
X120465222Y-68006873D01*
X120456943Y-68014407D01*
X120450462Y-68018520D01*
X120422588Y-68048203D01*
X120403837Y-68068171D01*
X120401082Y-68071013D01*
X120381345Y-68090750D01*
X120378865Y-68093947D01*
X120371162Y-68102967D01*
X120340894Y-68135199D01*
X120337075Y-68142145D01*
X120337073Y-68142148D01*
X120331132Y-68152954D01*
X120320281Y-68169473D01*
X120307866Y-68185479D01*
X120304721Y-68192748D01*
X120304718Y-68192752D01*
X120290306Y-68226057D01*
X120285089Y-68236707D01*
X120263785Y-68275460D01*
X120261814Y-68283135D01*
X120261814Y-68283136D01*
X120258747Y-68295082D01*
X120252343Y-68313786D01*
X120244299Y-68332375D01*
X120243060Y-68340198D01*
X120243057Y-68340208D01*
X120237381Y-68376044D01*
X120234975Y-68387664D01*
X120230365Y-68405621D01*
X120223980Y-68430490D01*
X120223980Y-68450744D01*
X120222429Y-68470454D01*
X120219260Y-68490463D01*
X120220006Y-68498355D01*
X120223421Y-68534481D01*
X120223980Y-68546339D01*
X120223980Y-73471713D01*
X120223453Y-73482896D01*
X120221778Y-73490389D01*
X120222027Y-73498315D01*
X120222027Y-73498316D01*
X120223918Y-73558466D01*
X120223980Y-73562425D01*
X120223980Y-73590336D01*
X120224477Y-73594270D01*
X120224477Y-73594271D01*
X120224485Y-73594336D01*
X120225418Y-73606173D01*
X120226807Y-73650369D01*
X120231561Y-73666732D01*
X120232458Y-73669819D01*
X120236467Y-73689180D01*
X120239006Y-73709277D01*
X120241925Y-73716648D01*
X120241925Y-73716650D01*
X120255284Y-73750392D01*
X120259129Y-73761622D01*
X120271462Y-73804073D01*
X120275495Y-73810892D01*
X120275497Y-73810897D01*
X120281773Y-73821508D01*
X120290468Y-73839256D01*
X120297928Y-73858097D01*
X120302590Y-73864513D01*
X120302590Y-73864514D01*
X120323916Y-73893867D01*
X120330432Y-73903787D01*
X120347095Y-73931962D01*
X120352938Y-73941842D01*
X120367259Y-73956163D01*
X120380099Y-73971196D01*
X120392008Y-73987587D01*
X120398114Y-73992638D01*
X120426085Y-74015778D01*
X120434864Y-74023768D01*
X120953602Y-74542506D01*
X120987628Y-74604818D01*
X120982563Y-74675633D01*
X120940016Y-74732469D01*
X120902186Y-74751835D01*
X120862550Y-74764256D01*
X120862548Y-74764257D01*
X120855301Y-74766528D01*
X120708619Y-74855361D01*
X120587361Y-74976619D01*
X120498528Y-75123301D01*
X120496257Y-75130548D01*
X120496256Y-75130550D01*
X120479389Y-75184373D01*
X120447247Y-75286938D01*
X120440500Y-75360365D01*
X120440501Y-76023634D01*
X120447247Y-76097062D01*
X120449246Y-76103440D01*
X120449246Y-76103441D01*
X120495855Y-76252168D01*
X120498528Y-76260699D01*
X120587361Y-76407381D01*
X120614809Y-76434829D01*
X120648835Y-76497141D01*
X120643770Y-76567956D01*
X120601223Y-76624792D01*
X120592040Y-76631053D01*
X120522311Y-76674203D01*
X120398383Y-76798347D01*
X120306339Y-76947671D01*
X120304034Y-76954619D01*
X120304034Y-76954620D01*
X120282039Y-77020934D01*
X120251115Y-77114165D01*
X120240500Y-77217769D01*
X120240501Y-78230230D01*
X120251384Y-78335129D01*
X120253563Y-78341660D01*
X120253564Y-78341665D01*
X120299207Y-78478473D01*
X120306898Y-78501526D01*
X120399203Y-78650689D01*
X120523347Y-78774617D01*
X120672671Y-78866661D01*
X120679619Y-78868966D01*
X120679620Y-78868966D01*
X120832634Y-78919719D01*
X120832636Y-78919719D01*
X120839165Y-78921885D01*
X120942769Y-78932500D01*
X121234234Y-78932500D01*
X121530230Y-78932499D01*
X121635129Y-78921616D01*
X121641660Y-78919437D01*
X121641665Y-78919436D01*
X121794578Y-78868420D01*
X121801526Y-78866102D01*
X121950689Y-78773797D01*
X122074617Y-78649653D01*
X122076614Y-78646413D01*
X122133352Y-78606186D01*
X122204275Y-78602953D01*
X122265687Y-78638578D01*
X122273066Y-78647078D01*
X122279782Y-78655552D01*
X122393479Y-78769051D01*
X122404890Y-78778063D01*
X122541654Y-78862365D01*
X122554832Y-78868509D01*
X122707740Y-78919227D01*
X122721106Y-78922093D01*
X122814601Y-78931672D01*
X122821016Y-78932000D01*
X122839385Y-78932000D01*
X122854624Y-78927525D01*
X122855829Y-78926135D01*
X122857500Y-78918452D01*
X122857500Y-77596000D01*
X122877502Y-77527879D01*
X122931158Y-77481386D01*
X122983500Y-77470000D01*
X123239500Y-77470000D01*
X123307621Y-77490002D01*
X123354114Y-77543658D01*
X123365500Y-77596000D01*
X123365500Y-78913884D01*
X123369975Y-78929123D01*
X123371365Y-78930328D01*
X123379048Y-78931999D01*
X123401933Y-78931999D01*
X123408452Y-78931662D01*
X123503170Y-78921834D01*
X123516564Y-78918942D01*
X123669365Y-78867964D01*
X123682543Y-78861790D01*
X123819149Y-78777256D01*
X123830555Y-78768216D01*
X123865327Y-78733383D01*
X123927609Y-78699303D01*
X123998429Y-78704306D01*
X124055302Y-78746803D01*
X124080171Y-78813301D01*
X124080500Y-78822400D01*
X124080500Y-79545233D01*
X124079973Y-79556416D01*
X124078298Y-79563909D01*
X124078547Y-79571835D01*
X124078547Y-79571836D01*
X124080438Y-79631986D01*
X124080500Y-79635945D01*
X124080500Y-79663856D01*
X124080997Y-79667790D01*
X124080997Y-79667791D01*
X124081005Y-79667856D01*
X124081938Y-79679693D01*
X124083327Y-79723889D01*
X124088978Y-79743339D01*
X124092987Y-79762700D01*
X124095526Y-79782797D01*
X124098445Y-79790168D01*
X124098445Y-79790170D01*
X124111804Y-79823912D01*
X124115649Y-79835142D01*
X124121372Y-79854840D01*
X124127982Y-79877593D01*
X124132015Y-79884412D01*
X124132017Y-79884417D01*
X124138293Y-79895028D01*
X124146988Y-79912776D01*
X124154448Y-79931617D01*
X124159110Y-79938033D01*
X124159110Y-79938034D01*
X124180436Y-79967387D01*
X124186952Y-79977307D01*
X124200310Y-79999893D01*
X124209458Y-80015362D01*
X124223779Y-80029683D01*
X124236619Y-80044716D01*
X124248528Y-80061107D01*
X124260927Y-80071364D01*
X124282605Y-80089298D01*
X124291384Y-80097288D01*
X125039778Y-80845682D01*
X125073804Y-80907994D01*
X125072100Y-80968448D01*
X125050989Y-81044570D01*
X125050441Y-81049700D01*
X125050440Y-81049704D01*
X125043671Y-81113045D01*
X125027251Y-81266695D01*
X125027548Y-81271848D01*
X125027548Y-81271851D01*
X125038748Y-81466091D01*
X125040110Y-81489715D01*
X125041248Y-81494763D01*
X125044411Y-81508798D01*
X125039875Y-81579650D01*
X124997754Y-81636801D01*
X124931421Y-81662108D01*
X124921494Y-81662500D01*
X124905776Y-81662500D01*
X124886065Y-81660949D01*
X124873886Y-81659020D01*
X124866057Y-81657780D01*
X124858165Y-81658526D01*
X124822039Y-81661941D01*
X124810181Y-81662500D01*
X123881225Y-81662500D01*
X123813104Y-81642498D01*
X123773449Y-81601771D01*
X123764576Y-81587120D01*
X123760639Y-81580619D01*
X123639381Y-81459361D01*
X123492699Y-81370528D01*
X123485452Y-81368257D01*
X123485450Y-81368256D01*
X123389563Y-81338207D01*
X123329062Y-81319247D01*
X123255635Y-81312500D01*
X123252737Y-81312500D01*
X122998335Y-81312501D01*
X122742366Y-81312501D01*
X122739508Y-81312764D01*
X122739499Y-81312764D01*
X122703996Y-81316026D01*
X122668938Y-81319247D01*
X122662560Y-81321246D01*
X122662559Y-81321246D01*
X122512550Y-81368256D01*
X122512548Y-81368257D01*
X122505301Y-81370528D01*
X122358619Y-81459361D01*
X122263095Y-81554885D01*
X122200783Y-81588911D01*
X122129968Y-81583846D01*
X122084905Y-81554885D01*
X121989381Y-81459361D01*
X121842699Y-81370528D01*
X121835452Y-81368257D01*
X121835450Y-81368256D01*
X121739563Y-81338207D01*
X121679062Y-81319247D01*
X121605635Y-81312500D01*
X121602737Y-81312500D01*
X121348335Y-81312501D01*
X121092366Y-81312501D01*
X121089508Y-81312764D01*
X121089499Y-81312764D01*
X121053996Y-81316026D01*
X121018938Y-81319247D01*
X121012560Y-81321246D01*
X121012559Y-81321246D01*
X120862550Y-81368256D01*
X120862548Y-81368257D01*
X120855301Y-81370528D01*
X120708619Y-81459361D01*
X120587361Y-81580619D01*
X120498528Y-81727301D01*
X120496257Y-81734548D01*
X120496256Y-81734550D01*
X120479991Y-81786453D01*
X120447247Y-81890938D01*
X120440500Y-81964365D01*
X120440501Y-82627634D01*
X120440764Y-82630492D01*
X120440764Y-82630501D01*
X120443477Y-82660027D01*
X120447247Y-82701062D01*
X120449246Y-82707440D01*
X120449246Y-82707441D01*
X120492941Y-82846870D01*
X120498528Y-82864699D01*
X120587361Y-83011381D01*
X120614809Y-83038829D01*
X120648835Y-83101141D01*
X120643770Y-83171956D01*
X120601223Y-83228792D01*
X120592040Y-83235053D01*
X120522311Y-83278203D01*
X120398383Y-83402347D01*
X120306339Y-83551671D01*
X120304034Y-83558619D01*
X120304034Y-83558620D01*
X120253679Y-83710436D01*
X120251115Y-83718165D01*
X120240500Y-83821769D01*
X120240501Y-84834230D01*
X120251384Y-84939129D01*
X120253563Y-84945660D01*
X120253564Y-84945665D01*
X120298389Y-85080022D01*
X120306898Y-85105526D01*
X120399203Y-85254689D01*
X120523347Y-85378617D01*
X120529577Y-85382457D01*
X120529578Y-85382458D01*
X120562986Y-85403051D01*
X120672671Y-85470661D01*
X120679619Y-85472966D01*
X120679620Y-85472966D01*
X120832634Y-85523719D01*
X120832636Y-85523719D01*
X120839165Y-85525885D01*
X120942769Y-85536500D01*
X121234234Y-85536500D01*
X121530230Y-85536499D01*
X121635129Y-85525616D01*
X121641660Y-85523437D01*
X121641665Y-85523436D01*
X121794578Y-85472420D01*
X121801526Y-85470102D01*
X121950689Y-85377797D01*
X122074617Y-85253653D01*
X122076614Y-85250413D01*
X122133352Y-85210186D01*
X122204275Y-85206953D01*
X122265687Y-85242578D01*
X122273066Y-85251078D01*
X122279782Y-85259552D01*
X122393479Y-85373051D01*
X122404890Y-85382063D01*
X122541654Y-85466365D01*
X122554832Y-85472509D01*
X122707740Y-85523227D01*
X122721106Y-85526093D01*
X122814601Y-85535672D01*
X122821016Y-85536000D01*
X122839385Y-85536000D01*
X122854624Y-85531525D01*
X122855829Y-85530135D01*
X122857500Y-85522452D01*
X122857500Y-85517884D01*
X123365500Y-85517884D01*
X123369975Y-85533123D01*
X123371365Y-85534328D01*
X123379048Y-85535999D01*
X123401933Y-85535999D01*
X123408452Y-85535662D01*
X123503170Y-85525834D01*
X123516564Y-85522942D01*
X123669365Y-85471964D01*
X123682543Y-85465790D01*
X123819149Y-85381256D01*
X123830550Y-85372220D01*
X123944051Y-85258521D01*
X123953063Y-85247110D01*
X124037365Y-85110346D01*
X124043509Y-85097168D01*
X124094227Y-84944260D01*
X124097093Y-84930894D01*
X124106672Y-84837399D01*
X124107000Y-84830984D01*
X124107000Y-84600115D01*
X124102525Y-84584876D01*
X124101135Y-84583671D01*
X124093452Y-84582000D01*
X123383615Y-84582000D01*
X123368376Y-84586475D01*
X123367171Y-84587865D01*
X123365500Y-84595548D01*
X123365500Y-85517884D01*
X122857500Y-85517884D01*
X122857500Y-84200000D01*
X122877502Y-84131879D01*
X122931158Y-84085386D01*
X122983500Y-84074000D01*
X124088884Y-84074000D01*
X124104123Y-84069525D01*
X124105328Y-84068135D01*
X124106999Y-84060452D01*
X124106999Y-83825067D01*
X124106662Y-83818548D01*
X124096834Y-83723830D01*
X124093942Y-83710436D01*
X124042964Y-83557635D01*
X124036790Y-83544457D01*
X123952256Y-83407851D01*
X123943220Y-83396450D01*
X123829521Y-83282949D01*
X123818113Y-83273939D01*
X123755816Y-83235540D01*
X123708322Y-83182768D01*
X123696898Y-83112697D01*
X123725171Y-83047572D01*
X123732836Y-83039184D01*
X123760639Y-83011381D01*
X123773449Y-82990229D01*
X123825846Y-82942322D01*
X123881225Y-82929500D01*
X124531406Y-82929500D01*
X124599527Y-82949502D01*
X124620501Y-82966405D01*
X125039778Y-83385682D01*
X125073804Y-83447994D01*
X125072100Y-83508448D01*
X125050989Y-83584570D01*
X125050441Y-83589700D01*
X125050440Y-83589704D01*
X125041698Y-83671509D01*
X125027251Y-83806695D01*
X125027548Y-83811848D01*
X125027548Y-83811851D01*
X125036796Y-83972237D01*
X125040110Y-84029715D01*
X125041247Y-84034761D01*
X125041248Y-84034767D01*
X125064055Y-84135968D01*
X125089222Y-84247639D01*
X125173266Y-84454616D01*
X125175965Y-84459020D01*
X125262428Y-84600115D01*
X125289987Y-84645088D01*
X125436250Y-84813938D01*
X125564571Y-84920472D01*
X125587044Y-84939129D01*
X125608126Y-84956632D01*
X125656797Y-84985073D01*
X125681445Y-84999476D01*
X125730169Y-85051114D01*
X125743240Y-85120897D01*
X125716509Y-85186669D01*
X125676055Y-85220027D01*
X125663607Y-85226507D01*
X125659474Y-85229610D01*
X125659471Y-85229612D01*
X125508663Y-85342842D01*
X125484965Y-85360635D01*
X125419346Y-85429301D01*
X125353313Y-85498401D01*
X125330629Y-85522138D01*
X125327715Y-85526410D01*
X125327714Y-85526411D01*
X125320832Y-85536500D01*
X125204743Y-85706680D01*
X125189003Y-85740590D01*
X125119972Y-85889305D01*
X125110688Y-85909305D01*
X125050989Y-86124570D01*
X125027251Y-86346695D01*
X125027548Y-86351848D01*
X125027548Y-86351851D01*
X125038353Y-86539243D01*
X125040110Y-86569715D01*
X125041247Y-86574761D01*
X125041248Y-86574767D01*
X125073453Y-86717668D01*
X125068917Y-86788520D01*
X125039631Y-86834464D01*
X123657767Y-88216328D01*
X123595455Y-88250354D01*
X123524640Y-88245289D01*
X123503407Y-88235013D01*
X123492699Y-88228528D01*
X123485452Y-88226257D01*
X123485450Y-88226256D01*
X123393612Y-88197476D01*
X123329062Y-88177247D01*
X123255635Y-88170500D01*
X123252737Y-88170500D01*
X122998335Y-88170501D01*
X122742366Y-88170501D01*
X122739508Y-88170764D01*
X122739499Y-88170764D01*
X122703996Y-88174026D01*
X122668938Y-88177247D01*
X122662560Y-88179246D01*
X122662559Y-88179246D01*
X122512550Y-88226256D01*
X122512548Y-88226257D01*
X122505301Y-88228528D01*
X122358619Y-88317361D01*
X122263095Y-88412885D01*
X122200783Y-88446911D01*
X122129968Y-88441846D01*
X122084905Y-88412885D01*
X121989381Y-88317361D01*
X121842699Y-88228528D01*
X121835452Y-88226257D01*
X121835450Y-88226256D01*
X121743612Y-88197476D01*
X121679062Y-88177247D01*
X121605635Y-88170500D01*
X121602737Y-88170500D01*
X121348335Y-88170501D01*
X121092366Y-88170501D01*
X121089508Y-88170764D01*
X121089499Y-88170764D01*
X121053996Y-88174026D01*
X121018938Y-88177247D01*
X121012560Y-88179246D01*
X121012559Y-88179246D01*
X120862550Y-88226256D01*
X120862548Y-88226257D01*
X120855301Y-88228528D01*
X120708619Y-88317361D01*
X120587361Y-88438619D01*
X120498528Y-88585301D01*
X120496257Y-88592548D01*
X120496256Y-88592550D01*
X120482304Y-88637071D01*
X120447247Y-88748938D01*
X120440500Y-88822365D01*
X120440501Y-89485634D01*
X120447247Y-89559062D01*
X120449246Y-89565440D01*
X120449246Y-89565441D01*
X120495554Y-89713208D01*
X120498528Y-89722699D01*
X120587361Y-89869381D01*
X120614809Y-89896829D01*
X120648835Y-89959141D01*
X120643770Y-90029956D01*
X120601223Y-90086792D01*
X120592040Y-90093053D01*
X120522311Y-90136203D01*
X120398383Y-90260347D01*
X120306339Y-90409671D01*
X120304034Y-90416619D01*
X120304034Y-90416620D01*
X120275836Y-90501635D01*
X120251115Y-90576165D01*
X120240500Y-90679769D01*
X120240501Y-91692230D01*
X120251384Y-91797129D01*
X120253563Y-91803660D01*
X120253564Y-91803665D01*
X120283857Y-91894464D01*
X120306898Y-91963526D01*
X120399203Y-92112689D01*
X120523347Y-92236617D01*
X120672671Y-92328661D01*
X120679619Y-92330966D01*
X120679620Y-92330966D01*
X120832634Y-92381719D01*
X120832636Y-92381719D01*
X120839165Y-92383885D01*
X120942769Y-92394500D01*
X121234234Y-92394500D01*
X121530230Y-92394499D01*
X121635129Y-92383616D01*
X121641660Y-92381437D01*
X121641665Y-92381436D01*
X121794578Y-92330420D01*
X121801526Y-92328102D01*
X121950689Y-92235797D01*
X122074617Y-92111653D01*
X122076614Y-92108413D01*
X122133352Y-92068186D01*
X122204275Y-92064953D01*
X122265687Y-92100578D01*
X122273066Y-92109078D01*
X122279782Y-92117552D01*
X122393479Y-92231051D01*
X122404890Y-92240063D01*
X122541654Y-92324365D01*
X122554832Y-92330509D01*
X122707740Y-92381227D01*
X122721106Y-92384093D01*
X122814601Y-92393672D01*
X122821016Y-92394000D01*
X122839385Y-92394000D01*
X122854624Y-92389525D01*
X122855829Y-92388135D01*
X122857500Y-92380452D01*
X122857500Y-91058000D01*
X122877502Y-90989879D01*
X122931158Y-90943386D01*
X122983500Y-90932000D01*
X123239500Y-90932000D01*
X123307621Y-90952002D01*
X123354114Y-91005658D01*
X123365500Y-91058000D01*
X123365500Y-92375884D01*
X123369975Y-92391123D01*
X123371365Y-92392328D01*
X123379048Y-92393999D01*
X123401933Y-92393999D01*
X123408455Y-92393661D01*
X123439093Y-92390483D01*
X123508914Y-92403349D01*
X123560696Y-92451920D01*
X123577997Y-92520777D01*
X123555325Y-92588056D01*
X123541190Y-92604905D01*
X122606747Y-93539348D01*
X122598461Y-93546888D01*
X122591982Y-93551000D01*
X122586557Y-93556777D01*
X122545357Y-93600651D01*
X122542602Y-93603493D01*
X122522865Y-93623230D01*
X122520385Y-93626427D01*
X122512682Y-93635447D01*
X122482414Y-93667679D01*
X122478595Y-93674625D01*
X122478593Y-93674628D01*
X122472652Y-93685434D01*
X122461801Y-93701953D01*
X122449386Y-93717959D01*
X122446241Y-93725228D01*
X122446238Y-93725232D01*
X122431826Y-93758537D01*
X122426609Y-93769187D01*
X122405305Y-93807940D01*
X122403334Y-93815615D01*
X122403334Y-93815616D01*
X122400267Y-93827562D01*
X122393863Y-93846266D01*
X122385819Y-93864855D01*
X122384580Y-93872678D01*
X122384577Y-93872688D01*
X122378901Y-93908524D01*
X122376495Y-93920144D01*
X122367472Y-93955289D01*
X122365500Y-93962970D01*
X122365500Y-93983224D01*
X122363949Y-94002934D01*
X122360780Y-94022943D01*
X122361526Y-94030835D01*
X122364941Y-94066961D01*
X122365500Y-94078819D01*
X122365500Y-95116290D01*
X122345498Y-95184411D01*
X122328595Y-95205385D01*
X122263095Y-95270885D01*
X122200783Y-95304911D01*
X122129968Y-95299846D01*
X122084905Y-95270885D01*
X121989381Y-95175361D01*
X121842699Y-95086528D01*
X121835452Y-95084257D01*
X121835450Y-95084256D01*
X121733586Y-95052334D01*
X121679062Y-95035247D01*
X121605635Y-95028500D01*
X121602737Y-95028500D01*
X121348335Y-95028501D01*
X121092366Y-95028501D01*
X121089508Y-95028764D01*
X121089499Y-95028764D01*
X121053996Y-95032026D01*
X121018938Y-95035247D01*
X121012560Y-95037246D01*
X121012559Y-95037246D01*
X120862550Y-95084256D01*
X120862548Y-95084257D01*
X120855301Y-95086528D01*
X120708619Y-95175361D01*
X120587361Y-95296619D01*
X120498528Y-95443301D01*
X120496257Y-95450548D01*
X120496256Y-95450550D01*
X120479389Y-95504373D01*
X120447247Y-95606938D01*
X120440500Y-95680365D01*
X120440501Y-96343634D01*
X120440764Y-96346492D01*
X120440764Y-96346501D01*
X120444026Y-96382004D01*
X120447247Y-96417062D01*
X120449246Y-96423440D01*
X120449246Y-96423441D01*
X120484687Y-96536531D01*
X120498528Y-96580699D01*
X120587361Y-96727381D01*
X120614809Y-96754829D01*
X120648835Y-96817141D01*
X120643770Y-96887956D01*
X120601223Y-96944792D01*
X120592040Y-96951053D01*
X120522311Y-96994203D01*
X120398383Y-97118347D01*
X120394543Y-97124577D01*
X120394542Y-97124578D01*
X120388163Y-97134927D01*
X120306339Y-97267671D01*
X120304034Y-97274619D01*
X120304034Y-97274620D01*
X120253679Y-97426436D01*
X120251115Y-97434165D01*
X120240500Y-97537769D01*
X120240501Y-98550230D01*
X120251384Y-98655129D01*
X120253563Y-98661660D01*
X120253564Y-98661665D01*
X120274822Y-98725383D01*
X120306898Y-98821526D01*
X120399203Y-98970689D01*
X120523347Y-99094617D01*
X120672671Y-99186661D01*
X120679619Y-99188966D01*
X120679620Y-99188966D01*
X120832634Y-99239719D01*
X120832636Y-99239719D01*
X120839165Y-99241885D01*
X120942769Y-99252500D01*
X121234234Y-99252500D01*
X121530230Y-99252499D01*
X121635129Y-99241616D01*
X121641660Y-99239437D01*
X121641665Y-99239436D01*
X121794578Y-99188420D01*
X121801526Y-99186102D01*
X121950689Y-99093797D01*
X122074617Y-98969653D01*
X122076614Y-98966413D01*
X122133352Y-98926186D01*
X122204275Y-98922953D01*
X122265687Y-98958578D01*
X122273066Y-98967078D01*
X122279782Y-98975552D01*
X122393479Y-99089051D01*
X122404890Y-99098063D01*
X122541654Y-99182365D01*
X122554832Y-99188509D01*
X122707740Y-99239227D01*
X122721106Y-99242093D01*
X122814601Y-99251672D01*
X122821016Y-99252000D01*
X122839385Y-99252000D01*
X122854624Y-99247525D01*
X122855829Y-99246135D01*
X122857500Y-99238452D01*
X122857500Y-97916000D01*
X122877502Y-97847879D01*
X122931158Y-97801386D01*
X122983500Y-97790000D01*
X123239500Y-97790000D01*
X123307621Y-97810002D01*
X123354114Y-97863658D01*
X123365500Y-97916000D01*
X123365500Y-99233884D01*
X123369975Y-99249123D01*
X123371365Y-99250328D01*
X123379048Y-99251999D01*
X123401933Y-99251999D01*
X123408452Y-99251662D01*
X123503170Y-99241834D01*
X123516564Y-99238942D01*
X123660624Y-99190880D01*
X123731573Y-99188296D01*
X123792657Y-99224479D01*
X123824482Y-99287944D01*
X123826500Y-99310404D01*
X123826500Y-111682669D01*
X123825973Y-111693852D01*
X123824298Y-111701345D01*
X123824547Y-111709271D01*
X123824547Y-111709272D01*
X123826438Y-111769422D01*
X123826500Y-111773381D01*
X123826500Y-111801292D01*
X123826997Y-111805226D01*
X123826997Y-111805227D01*
X123827005Y-111805292D01*
X123827938Y-111817129D01*
X123829327Y-111861325D01*
X123834978Y-111880775D01*
X123838987Y-111900136D01*
X123841526Y-111920233D01*
X123844445Y-111927604D01*
X123844445Y-111927606D01*
X123857804Y-111961348D01*
X123861649Y-111972578D01*
X123873982Y-112015029D01*
X123878015Y-112021848D01*
X123878017Y-112021853D01*
X123884293Y-112032464D01*
X123892988Y-112050212D01*
X123900448Y-112069053D01*
X123905110Y-112075469D01*
X123905110Y-112075470D01*
X123926436Y-112104823D01*
X123932952Y-112114743D01*
X123955458Y-112152798D01*
X123969779Y-112167119D01*
X123982619Y-112182152D01*
X123994528Y-112198543D01*
X124000634Y-112203594D01*
X124028605Y-112226734D01*
X124037384Y-112234724D01*
X126901095Y-115098435D01*
X126935121Y-115160747D01*
X126938000Y-115187530D01*
X126938000Y-115620039D01*
X126917998Y-115688160D01*
X126864342Y-115734653D01*
X126798391Y-115745302D01*
X126752983Y-115740369D01*
X126746172Y-115740000D01*
X126573615Y-115740000D01*
X126558376Y-115744475D01*
X126557171Y-115745865D01*
X126555500Y-115753548D01*
X126555500Y-116976000D01*
X126535498Y-117044121D01*
X126481842Y-117090614D01*
X126429500Y-117102000D01*
X125411616Y-117102000D01*
X125396377Y-117106475D01*
X125395172Y-117107865D01*
X125393501Y-117115548D01*
X125393501Y-117476000D01*
X125373499Y-117544121D01*
X125319843Y-117590614D01*
X125267501Y-117602000D01*
X120014000Y-117602000D01*
X119945879Y-117581998D01*
X119899386Y-117528342D01*
X119888000Y-117476000D01*
X119888000Y-116575885D01*
X125393500Y-116575885D01*
X125397975Y-116591124D01*
X125399365Y-116592329D01*
X125407048Y-116594000D01*
X126029385Y-116594000D01*
X126044624Y-116589525D01*
X126045829Y-116588135D01*
X126047500Y-116580452D01*
X126047500Y-115758116D01*
X126043025Y-115742877D01*
X126041635Y-115741672D01*
X126033952Y-115740001D01*
X125856831Y-115740001D01*
X125850010Y-115740371D01*
X125799148Y-115745895D01*
X125783896Y-115749521D01*
X125663446Y-115794676D01*
X125647851Y-115803214D01*
X125545776Y-115879715D01*
X125533215Y-115892276D01*
X125456714Y-115994351D01*
X125448176Y-116009946D01*
X125403022Y-116130394D01*
X125399395Y-116145649D01*
X125393869Y-116196514D01*
X125393500Y-116203328D01*
X125393500Y-116575885D01*
X119888000Y-116575885D01*
X119888000Y-64896000D01*
X119908002Y-64827879D01*
X119961658Y-64781386D01*
X120014000Y-64770000D01*
X136997241Y-64770000D01*
X137065362Y-64790002D01*
G37*
%TD.AperFunction*%
%TA.AperFunction,Conductor*%
G36*
X144468121Y-99347002D02*
G01*
X144514614Y-99400658D01*
X144526000Y-99453000D01*
X144526000Y-100520885D01*
X144530475Y-100536124D01*
X144531865Y-100537329D01*
X144539548Y-100539000D01*
X144567438Y-100539000D01*
X144573953Y-100538663D01*
X144666057Y-100529106D01*
X144679456Y-100526212D01*
X144828107Y-100476619D01*
X144841286Y-100470445D01*
X144974173Y-100388212D01*
X144985574Y-100379176D01*
X145095986Y-100268571D01*
X145104998Y-100257160D01*
X145183240Y-100130227D01*
X145236012Y-100082734D01*
X145306083Y-100071310D01*
X145371207Y-100099584D01*
X145410707Y-100158578D01*
X145416500Y-100196343D01*
X145416500Y-113223406D01*
X145396498Y-113291527D01*
X145379595Y-113312501D01*
X144879791Y-113812305D01*
X144817479Y-113846331D01*
X144751029Y-113842803D01*
X144683389Y-113820368D01*
X144683387Y-113820368D01*
X144676861Y-113818203D01*
X144670025Y-113817503D01*
X144670022Y-113817502D01*
X144626969Y-113813091D01*
X144572400Y-113807500D01*
X143979500Y-113807500D01*
X143911379Y-113787498D01*
X143864886Y-113733842D01*
X143853500Y-113681500D01*
X143853500Y-113333575D01*
X143873502Y-113265454D01*
X143927158Y-113218961D01*
X143965892Y-113208312D01*
X143966963Y-113208196D01*
X143980316Y-113206745D01*
X144116705Y-113155615D01*
X144233261Y-113068261D01*
X144320615Y-112951705D01*
X144371745Y-112815316D01*
X144378500Y-112753134D01*
X144378500Y-111106866D01*
X144371745Y-111044684D01*
X144320615Y-110908295D01*
X144233261Y-110791739D01*
X144116705Y-110704385D01*
X143980316Y-110653255D01*
X143966963Y-110651804D01*
X143965892Y-110651688D01*
X143900330Y-110624446D01*
X143859904Y-110566083D01*
X143853500Y-110526425D01*
X143853500Y-105373575D01*
X143873502Y-105305454D01*
X143927158Y-105258961D01*
X143965892Y-105248312D01*
X143966963Y-105248196D01*
X143980316Y-105246745D01*
X144116705Y-105195615D01*
X144233261Y-105108261D01*
X144320615Y-104991705D01*
X144371745Y-104855316D01*
X144378500Y-104793134D01*
X144378500Y-103146866D01*
X144371745Y-103084684D01*
X144368973Y-103077288D01*
X144368971Y-103077282D01*
X144335472Y-102987924D01*
X144330289Y-102917117D01*
X144364210Y-102854748D01*
X144413579Y-102824171D01*
X144562105Y-102774620D01*
X144575286Y-102768445D01*
X144708173Y-102686212D01*
X144719574Y-102677176D01*
X144829986Y-102566571D01*
X144838998Y-102555160D01*
X144921004Y-102422120D01*
X144927151Y-102408939D01*
X144976491Y-102260186D01*
X144979358Y-102246810D01*
X144988672Y-102155903D01*
X144989000Y-102149487D01*
X144989000Y-102126115D01*
X144984525Y-102110876D01*
X144983135Y-102109671D01*
X144975452Y-102108000D01*
X143903000Y-102108000D01*
X143834879Y-102087998D01*
X143788386Y-102034342D01*
X143777000Y-101982000D01*
X143777000Y-101581885D01*
X144285000Y-101581885D01*
X144289475Y-101597124D01*
X144290865Y-101598329D01*
X144298548Y-101600000D01*
X144970885Y-101600000D01*
X144986124Y-101595525D01*
X144987329Y-101594135D01*
X144989000Y-101586452D01*
X144989000Y-101558562D01*
X144988663Y-101552047D01*
X144979106Y-101459943D01*
X144976212Y-101446544D01*
X144926619Y-101297893D01*
X144920445Y-101284714D01*
X144838212Y-101151827D01*
X144829176Y-101140426D01*
X144718571Y-101030014D01*
X144707160Y-101021002D01*
X144574120Y-100938996D01*
X144560939Y-100932849D01*
X144412186Y-100883509D01*
X144398810Y-100880642D01*
X144307903Y-100871328D01*
X144302874Y-100871071D01*
X144287876Y-100875475D01*
X144286671Y-100876865D01*
X144285000Y-100884548D01*
X144285000Y-101581885D01*
X143777000Y-101581885D01*
X143777000Y-100889115D01*
X143772525Y-100873876D01*
X143771135Y-100872671D01*
X143763452Y-100871000D01*
X143760562Y-100871000D01*
X143754047Y-100871337D01*
X143661943Y-100880894D01*
X143648544Y-100883788D01*
X143499893Y-100933381D01*
X143486714Y-100939555D01*
X143353827Y-101021788D01*
X143336689Y-101035371D01*
X143335159Y-101033441D01*
X143283120Y-101061903D01*
X143212301Y-101056887D01*
X143175383Y-101033201D01*
X143174628Y-101034157D01*
X143168882Y-101029619D01*
X143163702Y-101024448D01*
X143157471Y-101020607D01*
X143024331Y-100938538D01*
X143024329Y-100938537D01*
X143018101Y-100934698D01*
X142855757Y-100880851D01*
X142848920Y-100880151D01*
X142848918Y-100880150D01*
X142807599Y-100875917D01*
X142754732Y-100870500D01*
X142254371Y-100870500D01*
X142186250Y-100850498D01*
X142139757Y-100796842D01*
X142129061Y-100757670D01*
X142118232Y-100654635D01*
X142118232Y-100654633D01*
X142117542Y-100648072D01*
X142063292Y-100481109D01*
X142061264Y-100410143D01*
X142097927Y-100349345D01*
X142127692Y-100329023D01*
X142327994Y-100230896D01*
X142509860Y-100101173D01*
X142668096Y-99943489D01*
X142677670Y-99930166D01*
X142795435Y-99766277D01*
X142798453Y-99762077D01*
X142800746Y-99757437D01*
X142802446Y-99754608D01*
X142854674Y-99706518D01*
X142910451Y-99693500D01*
X143163000Y-99693500D01*
X143231121Y-99713502D01*
X143277614Y-99767158D01*
X143289000Y-99819500D01*
X143289000Y-99851438D01*
X143289337Y-99857953D01*
X143298894Y-99950057D01*
X143301788Y-99963456D01*
X143351381Y-100112107D01*
X143357555Y-100125286D01*
X143439788Y-100258173D01*
X143448824Y-100269574D01*
X143559429Y-100379986D01*
X143570840Y-100388998D01*
X143703880Y-100471004D01*
X143717061Y-100477151D01*
X143865814Y-100526491D01*
X143879190Y-100529358D01*
X143970097Y-100538672D01*
X143976513Y-100539000D01*
X143999885Y-100539000D01*
X144015124Y-100534525D01*
X144016329Y-100533135D01*
X144018000Y-100525452D01*
X144018000Y-99453000D01*
X144038002Y-99384879D01*
X144091658Y-99338386D01*
X144144000Y-99327000D01*
X144400000Y-99327000D01*
X144468121Y-99347002D01*
G37*
%TD.AperFunction*%
%TA.AperFunction,Conductor*%
G36*
X127957012Y-71254348D02*
G01*
X127963594Y-71260476D01*
X129372876Y-72669759D01*
X130755370Y-74052253D01*
X130762910Y-74060539D01*
X130767022Y-74067018D01*
X130772799Y-74072443D01*
X130816673Y-74113643D01*
X130819515Y-74116398D01*
X130839252Y-74136135D01*
X130842449Y-74138615D01*
X130851469Y-74146318D01*
X130883701Y-74176586D01*
X130890647Y-74180405D01*
X130890650Y-74180407D01*
X130901456Y-74186348D01*
X130917975Y-74197199D01*
X130933981Y-74209614D01*
X130941250Y-74212759D01*
X130941254Y-74212762D01*
X130974559Y-74227174D01*
X130985209Y-74232391D01*
X131023962Y-74253695D01*
X131031637Y-74255666D01*
X131031638Y-74255666D01*
X131043584Y-74258733D01*
X131062288Y-74265137D01*
X131066224Y-74266840D01*
X131080877Y-74273181D01*
X131088700Y-74274420D01*
X131088710Y-74274423D01*
X131124546Y-74280099D01*
X131136166Y-74282505D01*
X131171311Y-74291528D01*
X131178992Y-74293500D01*
X131199246Y-74293500D01*
X131218956Y-74295051D01*
X131238965Y-74298220D01*
X131246857Y-74297474D01*
X131282983Y-74294059D01*
X131294841Y-74293500D01*
X132849050Y-74293500D01*
X132917171Y-74313502D01*
X132930271Y-74324059D01*
X132930325Y-74323989D01*
X132936585Y-74328845D01*
X132942193Y-74334453D01*
X132949017Y-74338489D01*
X132949020Y-74338491D01*
X132980627Y-74357183D01*
X133085399Y-74419145D01*
X133093013Y-74421357D01*
X133133653Y-74433164D01*
X133193489Y-74471377D01*
X133223166Y-74535874D01*
X133224500Y-74554161D01*
X133224500Y-74597233D01*
X133223973Y-74608416D01*
X133222298Y-74615909D01*
X133222547Y-74623835D01*
X133222547Y-74623836D01*
X133224438Y-74683986D01*
X133224500Y-74687945D01*
X133224500Y-74715856D01*
X133224997Y-74719790D01*
X133224997Y-74719791D01*
X133225005Y-74719856D01*
X133225938Y-74731693D01*
X133227327Y-74775889D01*
X133232978Y-74795339D01*
X133236987Y-74814700D01*
X133239526Y-74834797D01*
X133242445Y-74842168D01*
X133242445Y-74842170D01*
X133255804Y-74875912D01*
X133259649Y-74887142D01*
X133269771Y-74921983D01*
X133271982Y-74929593D01*
X133276015Y-74936412D01*
X133276017Y-74936417D01*
X133282293Y-74947028D01*
X133290988Y-74964776D01*
X133298448Y-74983617D01*
X133303110Y-74990033D01*
X133303110Y-74990034D01*
X133324436Y-75019387D01*
X133330952Y-75029307D01*
X133344132Y-75051592D01*
X133353458Y-75067362D01*
X133367779Y-75081683D01*
X133380619Y-75096716D01*
X133392528Y-75113107D01*
X133413613Y-75130550D01*
X133426605Y-75141298D01*
X133435384Y-75149288D01*
X134711595Y-76425499D01*
X134745621Y-76487811D01*
X134748500Y-76514594D01*
X134748500Y-80457405D01*
X134728498Y-80525526D01*
X134711595Y-80546500D01*
X133719747Y-81538348D01*
X133711461Y-81545888D01*
X133704982Y-81550000D01*
X133699557Y-81555777D01*
X133658357Y-81599651D01*
X133655602Y-81602493D01*
X133635865Y-81622230D01*
X133633385Y-81625427D01*
X133625682Y-81634447D01*
X133595414Y-81666679D01*
X133591595Y-81673625D01*
X133591593Y-81673628D01*
X133585652Y-81684434D01*
X133574801Y-81700953D01*
X133562386Y-81716959D01*
X133559241Y-81724228D01*
X133559238Y-81724232D01*
X133544826Y-81757537D01*
X133539609Y-81768187D01*
X133518305Y-81806940D01*
X133516334Y-81814615D01*
X133516334Y-81814616D01*
X133513267Y-81826562D01*
X133506863Y-81845266D01*
X133498819Y-81863855D01*
X133497580Y-81871678D01*
X133497577Y-81871688D01*
X133491901Y-81907524D01*
X133489495Y-81919144D01*
X133478500Y-81961970D01*
X133478500Y-81982224D01*
X133476949Y-82001934D01*
X133473780Y-82021943D01*
X133474526Y-82029835D01*
X133477941Y-82065961D01*
X133478500Y-82077819D01*
X133478500Y-83700050D01*
X133458498Y-83768171D01*
X133447941Y-83781271D01*
X133448011Y-83781325D01*
X133443156Y-83787584D01*
X133437547Y-83793193D01*
X133433511Y-83800017D01*
X133433509Y-83800020D01*
X133384293Y-83883240D01*
X133352855Y-83936399D01*
X133350644Y-83944010D01*
X133350643Y-83944012D01*
X133342443Y-83972237D01*
X133306438Y-84096169D01*
X133305934Y-84102574D01*
X133305933Y-84102579D01*
X133304331Y-84122939D01*
X133303500Y-84133498D01*
X133303500Y-85290500D01*
X133283498Y-85358621D01*
X133229842Y-85405114D01*
X133177500Y-85416500D01*
X132945498Y-85416500D01*
X132943050Y-85416693D01*
X132943042Y-85416693D01*
X132914579Y-85418933D01*
X132914574Y-85418934D01*
X132908169Y-85419438D01*
X132901994Y-85421232D01*
X132895655Y-85422390D01*
X132895147Y-85419610D01*
X132836485Y-85419478D01*
X132783162Y-85387757D01*
X131790652Y-84395247D01*
X131783112Y-84386961D01*
X131779000Y-84380482D01*
X131729348Y-84333856D01*
X131726507Y-84331102D01*
X131706770Y-84311365D01*
X131703573Y-84308885D01*
X131694551Y-84301180D01*
X131668100Y-84276341D01*
X131662321Y-84270914D01*
X131655375Y-84267095D01*
X131655372Y-84267093D01*
X131644566Y-84261152D01*
X131628047Y-84250301D01*
X131624615Y-84247639D01*
X131612041Y-84237886D01*
X131604772Y-84234741D01*
X131604768Y-84234738D01*
X131571463Y-84220326D01*
X131560813Y-84215109D01*
X131522060Y-84193805D01*
X131502437Y-84188767D01*
X131483734Y-84182363D01*
X131472420Y-84177467D01*
X131472419Y-84177467D01*
X131465145Y-84174319D01*
X131457322Y-84173080D01*
X131457312Y-84173077D01*
X131421476Y-84167401D01*
X131409856Y-84164995D01*
X131374711Y-84155972D01*
X131374710Y-84155972D01*
X131367030Y-84154000D01*
X131346776Y-84154000D01*
X131327065Y-84152449D01*
X131314886Y-84150520D01*
X131307057Y-84149280D01*
X131299165Y-84150026D01*
X131263039Y-84153441D01*
X131251181Y-84154000D01*
X131218967Y-84154000D01*
X131150846Y-84133998D01*
X131104353Y-84080342D01*
X131097970Y-84063152D01*
X131063358Y-83944014D01*
X131063356Y-83944009D01*
X131061145Y-83936399D01*
X131029707Y-83883240D01*
X130980491Y-83800020D01*
X130980489Y-83800017D01*
X130976453Y-83793193D01*
X130858807Y-83675547D01*
X130851983Y-83671511D01*
X130851980Y-83671509D01*
X130722427Y-83594892D01*
X130722428Y-83594892D01*
X130715601Y-83590855D01*
X130707990Y-83588644D01*
X130707988Y-83588643D01*
X130655769Y-83573472D01*
X130555831Y-83544438D01*
X130549426Y-83543934D01*
X130549421Y-83543933D01*
X130520958Y-83541693D01*
X130520950Y-83541693D01*
X130518502Y-83541500D01*
X130085498Y-83541500D01*
X130083050Y-83541693D01*
X130083042Y-83541693D01*
X130054579Y-83543933D01*
X130054574Y-83543934D01*
X130048169Y-83544438D01*
X129948231Y-83573472D01*
X129896012Y-83588643D01*
X129896010Y-83588644D01*
X129888399Y-83590855D01*
X129881572Y-83594892D01*
X129881573Y-83594892D01*
X129752020Y-83671509D01*
X129752017Y-83671511D01*
X129745193Y-83675547D01*
X129627547Y-83793193D01*
X129623511Y-83800017D01*
X129623509Y-83800020D01*
X129574293Y-83883240D01*
X129542855Y-83936399D01*
X129540644Y-83944010D01*
X129540643Y-83944012D01*
X129532443Y-83972237D01*
X129496438Y-84096169D01*
X129495934Y-84102574D01*
X129495933Y-84102579D01*
X129494331Y-84122939D01*
X129493500Y-84133498D01*
X129493500Y-85290500D01*
X129473498Y-85358621D01*
X129419842Y-85405114D01*
X129367500Y-85416500D01*
X129135498Y-85416500D01*
X129133050Y-85416693D01*
X129133042Y-85416693D01*
X129104579Y-85418933D01*
X129104574Y-85418934D01*
X129098169Y-85419438D01*
X128998231Y-85448472D01*
X128946012Y-85463643D01*
X128946010Y-85463644D01*
X128938399Y-85465855D01*
X128931572Y-85469892D01*
X128931573Y-85469892D01*
X128802020Y-85546509D01*
X128802017Y-85546511D01*
X128795193Y-85550547D01*
X128677547Y-85668193D01*
X128673511Y-85675017D01*
X128673509Y-85675020D01*
X128634731Y-85740590D01*
X128592855Y-85811399D01*
X128590644Y-85819010D01*
X128590643Y-85819012D01*
X128579200Y-85858399D01*
X128546438Y-85971169D01*
X128545934Y-85977574D01*
X128545933Y-85977579D01*
X128543693Y-86006042D01*
X128543500Y-86008498D01*
X128543500Y-87316502D01*
X128543693Y-87318950D01*
X128543693Y-87318958D01*
X128545927Y-87347333D01*
X128546438Y-87353831D01*
X128571109Y-87438751D01*
X128590643Y-87505986D01*
X128592855Y-87513601D01*
X128596892Y-87520427D01*
X128673509Y-87649980D01*
X128673511Y-87649983D01*
X128677547Y-87656807D01*
X128795193Y-87774453D01*
X128802017Y-87778489D01*
X128802020Y-87778491D01*
X128896914Y-87834611D01*
X128938399Y-87859145D01*
X128946010Y-87861356D01*
X128946012Y-87861357D01*
X128998231Y-87876528D01*
X129098169Y-87905562D01*
X129104574Y-87906066D01*
X129104579Y-87906067D01*
X129133042Y-87908307D01*
X129133050Y-87908307D01*
X129135498Y-87908500D01*
X129568502Y-87908500D01*
X129570950Y-87908307D01*
X129570958Y-87908307D01*
X129599421Y-87906067D01*
X129599426Y-87906066D01*
X129605831Y-87905562D01*
X129612006Y-87903768D01*
X129618345Y-87902610D01*
X129618851Y-87905382D01*
X129677558Y-87905535D01*
X129730839Y-87937243D01*
X129822595Y-88028999D01*
X129856621Y-88091311D01*
X129859500Y-88118094D01*
X129859500Y-89274290D01*
X129839498Y-89342411D01*
X129822595Y-89363385D01*
X129731361Y-89454619D01*
X129642528Y-89601301D01*
X129640257Y-89608548D01*
X129640256Y-89608550D01*
X129624590Y-89658542D01*
X129591247Y-89764938D01*
X129584500Y-89838365D01*
X129584501Y-90501634D01*
X129591247Y-90575062D01*
X129593246Y-90581440D01*
X129593246Y-90581441D01*
X129625069Y-90682986D01*
X129642528Y-90738699D01*
X129731361Y-90885381D01*
X129822595Y-90976615D01*
X129856621Y-91038927D01*
X129859500Y-91065710D01*
X129859500Y-91221500D01*
X129839498Y-91289621D01*
X129785842Y-91336114D01*
X129733500Y-91347500D01*
X129677866Y-91347500D01*
X129615684Y-91354255D01*
X129479295Y-91405385D01*
X129362739Y-91492739D01*
X129275385Y-91609295D01*
X129224255Y-91745684D01*
X129217500Y-91807866D01*
X129217500Y-93104134D01*
X129224255Y-93166316D01*
X129275385Y-93302705D01*
X129362739Y-93419261D01*
X129479295Y-93506615D01*
X129479951Y-93506861D01*
X129527157Y-93554175D01*
X129542500Y-93614433D01*
X129542500Y-95052290D01*
X129522498Y-95120411D01*
X129505595Y-95141385D01*
X129477361Y-95169619D01*
X129388528Y-95316301D01*
X129386257Y-95323548D01*
X129386256Y-95323550D01*
X129383418Y-95332606D01*
X129337247Y-95479938D01*
X129330500Y-95553365D01*
X129330501Y-96216634D01*
X129330764Y-96219492D01*
X129330764Y-96219501D01*
X129332474Y-96238114D01*
X129337247Y-96290062D01*
X129339246Y-96296440D01*
X129339246Y-96296441D01*
X129379046Y-96423441D01*
X129388528Y-96453699D01*
X129477361Y-96600381D01*
X129598619Y-96721639D01*
X129745301Y-96810472D01*
X129752548Y-96812743D01*
X129752550Y-96812744D01*
X129771285Y-96818615D01*
X129908938Y-96861753D01*
X129982365Y-96868500D01*
X129985263Y-96868500D01*
X130239665Y-96868499D01*
X130495634Y-96868499D01*
X130498492Y-96868236D01*
X130498501Y-96868236D01*
X130534004Y-96864974D01*
X130569062Y-96861753D01*
X130597612Y-96852806D01*
X130725450Y-96812744D01*
X130725452Y-96812743D01*
X130732699Y-96810472D01*
X130879381Y-96721639D01*
X130974905Y-96626115D01*
X131037217Y-96592089D01*
X131108032Y-96597154D01*
X131153095Y-96626115D01*
X131248619Y-96721639D01*
X131395301Y-96810472D01*
X131402548Y-96812743D01*
X131402550Y-96812744D01*
X131421285Y-96818615D01*
X131558938Y-96861753D01*
X131632365Y-96868500D01*
X131635263Y-96868500D01*
X131889665Y-96868499D01*
X132145634Y-96868499D01*
X132148492Y-96868236D01*
X132148501Y-96868236D01*
X132184004Y-96864974D01*
X132219062Y-96861753D01*
X132247612Y-96852806D01*
X132375450Y-96812744D01*
X132375452Y-96812743D01*
X132382699Y-96810472D01*
X132529381Y-96721639D01*
X132533609Y-96717411D01*
X132598917Y-96691373D01*
X132668611Y-96704908D01*
X132711541Y-96741253D01*
X132791739Y-96848261D01*
X132908295Y-96935615D01*
X133044684Y-96986745D01*
X133106866Y-96993500D01*
X134103134Y-96993500D01*
X134165316Y-96986745D01*
X134301705Y-96935615D01*
X134418261Y-96848261D01*
X134505615Y-96731705D01*
X134556745Y-96595316D01*
X134563500Y-96533134D01*
X134563500Y-95236866D01*
X134556745Y-95174684D01*
X134505615Y-95038295D01*
X134418261Y-94921739D01*
X134301705Y-94834385D01*
X134165316Y-94783255D01*
X134103134Y-94776500D01*
X133106866Y-94776500D01*
X133044684Y-94783255D01*
X132908295Y-94834385D01*
X132791739Y-94921739D01*
X132711726Y-95028501D01*
X132711542Y-95028746D01*
X132654683Y-95071261D01*
X132583865Y-95076287D01*
X132533696Y-95052676D01*
X132529381Y-95048361D01*
X132382699Y-94959528D01*
X132375452Y-94957257D01*
X132375450Y-94957256D01*
X132285026Y-94928919D01*
X132219062Y-94908247D01*
X132145635Y-94901500D01*
X132142737Y-94901500D01*
X131888335Y-94901501D01*
X131632366Y-94901501D01*
X131629508Y-94901764D01*
X131629499Y-94901764D01*
X131593996Y-94905026D01*
X131558938Y-94908247D01*
X131552560Y-94910246D01*
X131552559Y-94910246D01*
X131402550Y-94957256D01*
X131402548Y-94957257D01*
X131395301Y-94959528D01*
X131248619Y-95048361D01*
X131153095Y-95143885D01*
X131090783Y-95177911D01*
X131019968Y-95172846D01*
X130974905Y-95143885D01*
X130879381Y-95048361D01*
X130872877Y-95044422D01*
X130870226Y-95042816D01*
X130868698Y-95041145D01*
X130866904Y-95039738D01*
X130867139Y-95039439D01*
X130822321Y-94990417D01*
X130809500Y-94935042D01*
X130809500Y-93614433D01*
X130829502Y-93546312D01*
X130871678Y-93507000D01*
X130872705Y-93506615D01*
X130989261Y-93419261D01*
X131076615Y-93302705D01*
X131127745Y-93166316D01*
X131134500Y-93104134D01*
X131134500Y-91807866D01*
X131127745Y-91745684D01*
X131128338Y-91745620D01*
X131126500Y-91729939D01*
X131126500Y-91065710D01*
X131146502Y-90997589D01*
X131163405Y-90976615D01*
X131229259Y-90910761D01*
X131291571Y-90876735D01*
X131362386Y-90881800D01*
X131407449Y-90910761D01*
X131497557Y-91000869D01*
X131509426Y-91010176D01*
X131643012Y-91091079D01*
X131656757Y-91097285D01*
X131806644Y-91144256D01*
X131819694Y-91146869D01*
X131874586Y-91151913D01*
X131886124Y-91148525D01*
X131887329Y-91147135D01*
X131889000Y-91139452D01*
X131889000Y-89205116D01*
X131884525Y-89189877D01*
X131883135Y-89188672D01*
X131878706Y-89187709D01*
X131819685Y-89193132D01*
X131806649Y-89195743D01*
X131656757Y-89242715D01*
X131643012Y-89248921D01*
X131509426Y-89329824D01*
X131497557Y-89339131D01*
X131407449Y-89429239D01*
X131345137Y-89463265D01*
X131274322Y-89458200D01*
X131229259Y-89429239D01*
X131163405Y-89363385D01*
X131129379Y-89301073D01*
X131126500Y-89274290D01*
X131126500Y-87886878D01*
X131506000Y-87886878D01*
X131509973Y-87900409D01*
X131517871Y-87901544D01*
X131657790Y-87860893D01*
X131672221Y-87854648D01*
X131801678Y-87778089D01*
X131814104Y-87768449D01*
X131920449Y-87662104D01*
X131930089Y-87649678D01*
X132006648Y-87520221D01*
X132012893Y-87505790D01*
X132055269Y-87359935D01*
X132057570Y-87347333D01*
X132059807Y-87318916D01*
X132060000Y-87313986D01*
X132060000Y-86934615D01*
X132055525Y-86919376D01*
X132054135Y-86918171D01*
X132046452Y-86916500D01*
X131524115Y-86916500D01*
X131508876Y-86920975D01*
X131507671Y-86922365D01*
X131506000Y-86930048D01*
X131506000Y-87886878D01*
X131126500Y-87886878D01*
X131126500Y-87882268D01*
X131127027Y-87871085D01*
X131128702Y-87863592D01*
X131126562Y-87795501D01*
X131126500Y-87791544D01*
X131126500Y-87763644D01*
X131125996Y-87759653D01*
X131125063Y-87747811D01*
X131124819Y-87740027D01*
X131123674Y-87703611D01*
X131120116Y-87691364D01*
X131118021Y-87684152D01*
X131114012Y-87664793D01*
X131113003Y-87656807D01*
X131111474Y-87644703D01*
X131108558Y-87637337D01*
X131108556Y-87637331D01*
X131095200Y-87603598D01*
X131091355Y-87592368D01*
X131081230Y-87557517D01*
X131081230Y-87557516D01*
X131079019Y-87549907D01*
X131068705Y-87532466D01*
X131060008Y-87514713D01*
X131055472Y-87503258D01*
X131052552Y-87495883D01*
X131026558Y-87460106D01*
X131020050Y-87450196D01*
X131015545Y-87442578D01*
X130998000Y-87378442D01*
X130998000Y-86534500D01*
X131018002Y-86466379D01*
X131071658Y-86419886D01*
X131124000Y-86408500D01*
X131959906Y-86408500D01*
X132028027Y-86428502D01*
X132049001Y-86445405D01*
X132316595Y-86712999D01*
X132350621Y-86775311D01*
X132353500Y-86802094D01*
X132353500Y-87316502D01*
X132353693Y-87318950D01*
X132353693Y-87318958D01*
X132355927Y-87347333D01*
X132356438Y-87353831D01*
X132381109Y-87438751D01*
X132400643Y-87505986D01*
X132402855Y-87513601D01*
X132406892Y-87520427D01*
X132483509Y-87649980D01*
X132483511Y-87649983D01*
X132487547Y-87656807D01*
X132605193Y-87774453D01*
X132612017Y-87778489D01*
X132612020Y-87778491D01*
X132706914Y-87834611D01*
X132748399Y-87859145D01*
X132756010Y-87861356D01*
X132756012Y-87861357D01*
X132808231Y-87876528D01*
X132908169Y-87905562D01*
X132914574Y-87906066D01*
X132914579Y-87906067D01*
X132943042Y-87908307D01*
X132943050Y-87908307D01*
X132945498Y-87908500D01*
X133035500Y-87908500D01*
X133103621Y-87928502D01*
X133150114Y-87982158D01*
X133161500Y-88034500D01*
X133161500Y-89274290D01*
X133141498Y-89342411D01*
X133124595Y-89363385D01*
X133057741Y-89430239D01*
X132995429Y-89464265D01*
X132924614Y-89459200D01*
X132879551Y-89430239D01*
X132788443Y-89339131D01*
X132776574Y-89329824D01*
X132642988Y-89248921D01*
X132629243Y-89242715D01*
X132479356Y-89195744D01*
X132466306Y-89193131D01*
X132411414Y-89188087D01*
X132399876Y-89191475D01*
X132398671Y-89192865D01*
X132397000Y-89200548D01*
X132397000Y-91134884D01*
X132401475Y-91150123D01*
X132402865Y-91151328D01*
X132407294Y-91152291D01*
X132466315Y-91146868D01*
X132479351Y-91144257D01*
X132629243Y-91097285D01*
X132642988Y-91091079D01*
X132776574Y-91010176D01*
X132788443Y-91000869D01*
X132879551Y-90909761D01*
X132941863Y-90875735D01*
X133012678Y-90880800D01*
X133057741Y-90909761D01*
X133154619Y-91006639D01*
X133301301Y-91095472D01*
X133308548Y-91097743D01*
X133308550Y-91097744D01*
X133319790Y-91101266D01*
X133378812Y-91140723D01*
X133407132Y-91205826D01*
X133395759Y-91275906D01*
X133348304Y-91328712D01*
X133282111Y-91347500D01*
X132977866Y-91347500D01*
X132915684Y-91354255D01*
X132779295Y-91405385D01*
X132662739Y-91492739D01*
X132575385Y-91609295D01*
X132524255Y-91745684D01*
X132517500Y-91807866D01*
X132517500Y-93104134D01*
X132524255Y-93166316D01*
X132575385Y-93302705D01*
X132662739Y-93419261D01*
X132779295Y-93506615D01*
X132915684Y-93557745D01*
X132977866Y-93564500D01*
X133974134Y-93564500D01*
X134036316Y-93557745D01*
X134172705Y-93506615D01*
X134289261Y-93419261D01*
X134361854Y-93322401D01*
X134371231Y-93309889D01*
X134371231Y-93309888D01*
X134376615Y-93302705D01*
X134379766Y-93294300D01*
X134382707Y-93288928D01*
X134432966Y-93238782D01*
X134502357Y-93223768D01*
X134568849Y-93248654D01*
X134582322Y-93260342D01*
X134614619Y-93292639D01*
X134761301Y-93381472D01*
X134768548Y-93383743D01*
X134768550Y-93383744D01*
X134834836Y-93404517D01*
X134924938Y-93432753D01*
X134998365Y-93439500D01*
X135001263Y-93439500D01*
X135255665Y-93439499D01*
X135511634Y-93439499D01*
X135514492Y-93439236D01*
X135514501Y-93439236D01*
X135550004Y-93435974D01*
X135585062Y-93432753D01*
X135632908Y-93417759D01*
X135741450Y-93383744D01*
X135741452Y-93383743D01*
X135748699Y-93381472D01*
X135895381Y-93292639D01*
X135990905Y-93197115D01*
X136053217Y-93163089D01*
X136124032Y-93168154D01*
X136169095Y-93197115D01*
X136264619Y-93292639D01*
X136411301Y-93381472D01*
X136418548Y-93383743D01*
X136418550Y-93383744D01*
X136484836Y-93404517D01*
X136574938Y-93432753D01*
X136648365Y-93439500D01*
X136651263Y-93439500D01*
X136905665Y-93439499D01*
X137161634Y-93439499D01*
X137164492Y-93439236D01*
X137164501Y-93439236D01*
X137200004Y-93435974D01*
X137235062Y-93432753D01*
X137282908Y-93417759D01*
X137353891Y-93416474D01*
X137414302Y-93453771D01*
X137444622Y-93521958D01*
X137444894Y-93521900D01*
X137445167Y-93523183D01*
X137445896Y-93524823D01*
X137446958Y-93534928D01*
X137505973Y-93716556D01*
X137509276Y-93722278D01*
X137509277Y-93722279D01*
X137536366Y-93769198D01*
X137601460Y-93881944D01*
X137605878Y-93886851D01*
X137605879Y-93886852D01*
X137686730Y-93976646D01*
X137729247Y-94023866D01*
X137883748Y-94136118D01*
X137889776Y-94138802D01*
X137889778Y-94138803D01*
X138004129Y-94189715D01*
X138058212Y-94213794D01*
X138151612Y-94233647D01*
X138238556Y-94252128D01*
X138238561Y-94252128D01*
X138245013Y-94253500D01*
X138305500Y-94253500D01*
X138373621Y-94273502D01*
X138420114Y-94327158D01*
X138431500Y-94379500D01*
X138431500Y-95570406D01*
X138411498Y-95638527D01*
X138394595Y-95659501D01*
X138078595Y-95975501D01*
X138016283Y-96009527D01*
X137945468Y-96004462D01*
X137888632Y-95961915D01*
X137863821Y-95895395D01*
X137863500Y-95886406D01*
X137863500Y-95236866D01*
X137856745Y-95174684D01*
X137805615Y-95038295D01*
X137718261Y-94921739D01*
X137601705Y-94834385D01*
X137465316Y-94783255D01*
X137403134Y-94776500D01*
X136406866Y-94776500D01*
X136344684Y-94783255D01*
X136208295Y-94834385D01*
X136091739Y-94921739D01*
X136004385Y-95038295D01*
X135953255Y-95174684D01*
X135946500Y-95236866D01*
X135946500Y-95515405D01*
X135926498Y-95583526D01*
X135909595Y-95604500D01*
X135751747Y-95762348D01*
X135743461Y-95769888D01*
X135736982Y-95774000D01*
X135731557Y-95779777D01*
X135690357Y-95823651D01*
X135687602Y-95826493D01*
X135667865Y-95846230D01*
X135665385Y-95849427D01*
X135657682Y-95858447D01*
X135627414Y-95890679D01*
X135623595Y-95897625D01*
X135623593Y-95897628D01*
X135617652Y-95908434D01*
X135606801Y-95924953D01*
X135594386Y-95940959D01*
X135591241Y-95948228D01*
X135591238Y-95948232D01*
X135576826Y-95981537D01*
X135571609Y-95992187D01*
X135550305Y-96030940D01*
X135548334Y-96038615D01*
X135548334Y-96038616D01*
X135545267Y-96050562D01*
X135538863Y-96069266D01*
X135530819Y-96087855D01*
X135529580Y-96095678D01*
X135529577Y-96095688D01*
X135523901Y-96131524D01*
X135521495Y-96143144D01*
X135510500Y-96185970D01*
X135510500Y-96206224D01*
X135508949Y-96225934D01*
X135505780Y-96245943D01*
X135506526Y-96253835D01*
X135509941Y-96289961D01*
X135510500Y-96301819D01*
X135510500Y-96833476D01*
X135490498Y-96901597D01*
X135478142Y-96917779D01*
X135404960Y-96999056D01*
X135356986Y-97082150D01*
X135315792Y-97153500D01*
X135309473Y-97164444D01*
X135250458Y-97346072D01*
X135249768Y-97352633D01*
X135249768Y-97352635D01*
X135241335Y-97432871D01*
X135230496Y-97536000D01*
X135231186Y-97542565D01*
X135249364Y-97715516D01*
X135250458Y-97725928D01*
X135309473Y-97907556D01*
X135312776Y-97913278D01*
X135312777Y-97913279D01*
X135329419Y-97942104D01*
X135404960Y-98072944D01*
X135409378Y-98077851D01*
X135409379Y-98077852D01*
X135511248Y-98190989D01*
X135532747Y-98214866D01*
X135590909Y-98257123D01*
X135634262Y-98313344D01*
X135640338Y-98384080D01*
X135605942Y-98448153D01*
X134902500Y-99151595D01*
X134840188Y-99185621D01*
X134813405Y-99188500D01*
X131142768Y-99188500D01*
X131131585Y-99187973D01*
X131124092Y-99186298D01*
X131116166Y-99186547D01*
X131116165Y-99186547D01*
X131060520Y-99188296D01*
X131056575Y-99188420D01*
X131056002Y-99188438D01*
X131052044Y-99188500D01*
X131024144Y-99188500D01*
X131020154Y-99189004D01*
X131008320Y-99189936D01*
X130964111Y-99191326D01*
X130956495Y-99193539D01*
X130956493Y-99193539D01*
X130944652Y-99196979D01*
X130925293Y-99200988D01*
X130923983Y-99201154D01*
X130905203Y-99203526D01*
X130897837Y-99206442D01*
X130897831Y-99206444D01*
X130864098Y-99219800D01*
X130852868Y-99223645D01*
X130818017Y-99233770D01*
X130810407Y-99235981D01*
X130803584Y-99240016D01*
X130792966Y-99246295D01*
X130775213Y-99254992D01*
X130767568Y-99258019D01*
X130756383Y-99262448D01*
X130749968Y-99267109D01*
X130720612Y-99288437D01*
X130710695Y-99294951D01*
X130672638Y-99317458D01*
X130658317Y-99331779D01*
X130643284Y-99344619D01*
X130626893Y-99356528D01*
X130621842Y-99362634D01*
X130598702Y-99390605D01*
X130590712Y-99399384D01*
X129579845Y-100410250D01*
X129517533Y-100444276D01*
X129446717Y-100439211D01*
X129389882Y-100396664D01*
X129365071Y-100330144D01*
X129364750Y-100321155D01*
X129364750Y-98492524D01*
X129384752Y-98424403D01*
X129397108Y-98408221D01*
X129470290Y-98326944D01*
X129542347Y-98202138D01*
X129562473Y-98167279D01*
X129562474Y-98167278D01*
X129565777Y-98161556D01*
X129624792Y-97979928D01*
X129628768Y-97942104D01*
X129644064Y-97796565D01*
X129644754Y-97790000D01*
X129624792Y-97600072D01*
X129565777Y-97418444D01*
X129470290Y-97253056D01*
X129447053Y-97227248D01*
X129346925Y-97116045D01*
X129346924Y-97116044D01*
X129342503Y-97111134D01*
X129219561Y-97021811D01*
X129193344Y-97002763D01*
X129193343Y-97002762D01*
X129188002Y-96998882D01*
X129181974Y-96996198D01*
X129181972Y-96996197D01*
X129019569Y-96923891D01*
X129019568Y-96923891D01*
X129013538Y-96921206D01*
X128907976Y-96898768D01*
X128833194Y-96882872D01*
X128833189Y-96882872D01*
X128826737Y-96881500D01*
X128775500Y-96881500D01*
X128707379Y-96861498D01*
X128660886Y-96807842D01*
X128649500Y-96755500D01*
X128649500Y-93164767D01*
X128650027Y-93153584D01*
X128651702Y-93146091D01*
X128649562Y-93078014D01*
X128649500Y-93074055D01*
X128649500Y-93046144D01*
X128648995Y-93042144D01*
X128648062Y-93030301D01*
X128646922Y-92994029D01*
X128646673Y-92986110D01*
X128641022Y-92966658D01*
X128637014Y-92947306D01*
X128635467Y-92935063D01*
X128634474Y-92927203D01*
X128631556Y-92919832D01*
X128618200Y-92886097D01*
X128614355Y-92874870D01*
X128610032Y-92859992D01*
X128602018Y-92832407D01*
X128597984Y-92825585D01*
X128597981Y-92825579D01*
X128591706Y-92814968D01*
X128583010Y-92797218D01*
X128578472Y-92785756D01*
X128578469Y-92785751D01*
X128575552Y-92778383D01*
X128558117Y-92754386D01*
X128549573Y-92742625D01*
X128543057Y-92732707D01*
X128529096Y-92709101D01*
X128520542Y-92694637D01*
X128506218Y-92680313D01*
X128493376Y-92665278D01*
X128489037Y-92659306D01*
X128481472Y-92648893D01*
X128447406Y-92620711D01*
X128438627Y-92612722D01*
X127741218Y-91915313D01*
X127707192Y-91853001D01*
X127709755Y-91789589D01*
X127720865Y-91753022D01*
X127722370Y-91748069D01*
X127751529Y-91526590D01*
X127753156Y-91460000D01*
X127734852Y-91237361D01*
X127680431Y-91020702D01*
X127591354Y-90815840D01*
X127505407Y-90682986D01*
X127472822Y-90632617D01*
X127472820Y-90632614D01*
X127470014Y-90628277D01*
X127319670Y-90463051D01*
X127315619Y-90459852D01*
X127315615Y-90459848D01*
X127148414Y-90327800D01*
X127148410Y-90327798D01*
X127144359Y-90324598D01*
X127103053Y-90301796D01*
X127053084Y-90251364D01*
X127038312Y-90181921D01*
X127063428Y-90115516D01*
X127090780Y-90088909D01*
X127158271Y-90040768D01*
X127269860Y-89961173D01*
X127428096Y-89803489D01*
X127465950Y-89750810D01*
X127555435Y-89626277D01*
X127558453Y-89622077D01*
X127565139Y-89608550D01*
X127655136Y-89426453D01*
X127655137Y-89426451D01*
X127657430Y-89421811D01*
X127701247Y-89277594D01*
X127720865Y-89213023D01*
X127720865Y-89213021D01*
X127722370Y-89208069D01*
X127751529Y-88986590D01*
X127753156Y-88920000D01*
X127734852Y-88697361D01*
X127680431Y-88480702D01*
X127591354Y-88275840D01*
X127540604Y-88197393D01*
X127472822Y-88092617D01*
X127472820Y-88092614D01*
X127470014Y-88088277D01*
X127319670Y-87923051D01*
X127315619Y-87919852D01*
X127315615Y-87919848D01*
X127148414Y-87787800D01*
X127148410Y-87787798D01*
X127144359Y-87784598D01*
X127103053Y-87761796D01*
X127053084Y-87711364D01*
X127038312Y-87641921D01*
X127063428Y-87575516D01*
X127090780Y-87548909D01*
X127165120Y-87495883D01*
X127269860Y-87421173D01*
X127343959Y-87347333D01*
X127390048Y-87301404D01*
X127428096Y-87263489D01*
X127439810Y-87247188D01*
X127555435Y-87086277D01*
X127558453Y-87082077D01*
X127565827Y-87067158D01*
X127655136Y-86886453D01*
X127655137Y-86886451D01*
X127657430Y-86881811D01*
X127719011Y-86679124D01*
X127720865Y-86673023D01*
X127720865Y-86673021D01*
X127722370Y-86668069D01*
X127751529Y-86446590D01*
X127752097Y-86423361D01*
X127753074Y-86383365D01*
X127753074Y-86383361D01*
X127753156Y-86380000D01*
X127734852Y-86157361D01*
X127680431Y-85940702D01*
X127591354Y-85735840D01*
X127528447Y-85638601D01*
X127472822Y-85552617D01*
X127472820Y-85552614D01*
X127470014Y-85548277D01*
X127319670Y-85383051D01*
X127315619Y-85379852D01*
X127315615Y-85379848D01*
X127148414Y-85247800D01*
X127148410Y-85247798D01*
X127144359Y-85244598D01*
X127103053Y-85221796D01*
X127053084Y-85171364D01*
X127038312Y-85101921D01*
X127063428Y-85035516D01*
X127090780Y-85008909D01*
X127159990Y-84959542D01*
X127269860Y-84881173D01*
X127428096Y-84723489D01*
X127442468Y-84703489D01*
X127555435Y-84546277D01*
X127558453Y-84542077D01*
X127570631Y-84517438D01*
X127655136Y-84346453D01*
X127655139Y-84346446D01*
X127657430Y-84341811D01*
X127702997Y-84191834D01*
X127720865Y-84133023D01*
X127720865Y-84133021D01*
X127722370Y-84128069D01*
X127751529Y-83906590D01*
X127753156Y-83840000D01*
X127734852Y-83617361D01*
X127680431Y-83400702D01*
X127591354Y-83195840D01*
X127530323Y-83101500D01*
X127472822Y-83012617D01*
X127472820Y-83012614D01*
X127470014Y-83008277D01*
X127319670Y-82843051D01*
X127315619Y-82839852D01*
X127315615Y-82839848D01*
X127148414Y-82707800D01*
X127148410Y-82707798D01*
X127144359Y-82704598D01*
X127103053Y-82681796D01*
X127053084Y-82631364D01*
X127038312Y-82561921D01*
X127063428Y-82495516D01*
X127090780Y-82468909D01*
X127134603Y-82437650D01*
X127269860Y-82341173D01*
X127294915Y-82316206D01*
X127424435Y-82187137D01*
X127428096Y-82183489D01*
X127442468Y-82163489D01*
X127555435Y-82006277D01*
X127558453Y-82002077D01*
X127570631Y-81977438D01*
X127655136Y-81806453D01*
X127655137Y-81806451D01*
X127657430Y-81801811D01*
X127700813Y-81659020D01*
X127720865Y-81593023D01*
X127720865Y-81593021D01*
X127722370Y-81588069D01*
X127751529Y-81366590D01*
X127751748Y-81357638D01*
X127753074Y-81303365D01*
X127753074Y-81303361D01*
X127753156Y-81300000D01*
X127734852Y-81077361D01*
X127680431Y-80860702D01*
X127591354Y-80655840D01*
X127470014Y-80468277D01*
X127319670Y-80303051D01*
X127315619Y-80299852D01*
X127315615Y-80299848D01*
X127148414Y-80167800D01*
X127148410Y-80167798D01*
X127144359Y-80164598D01*
X127139550Y-80161943D01*
X127102569Y-80141529D01*
X127052598Y-80091097D01*
X127037826Y-80021654D01*
X127062942Y-79955248D01*
X127090294Y-79928641D01*
X127265328Y-79803792D01*
X127273200Y-79797139D01*
X127424052Y-79646812D01*
X127430730Y-79638965D01*
X127525051Y-79507703D01*
X129970743Y-79507703D01*
X129971302Y-79511947D01*
X129971302Y-79511951D01*
X129972932Y-79524331D01*
X130008268Y-79792734D01*
X130009401Y-79796874D01*
X130009401Y-79796876D01*
X130020565Y-79837683D01*
X130084129Y-80070036D01*
X130085813Y-80073984D01*
X130171181Y-80274124D01*
X130196923Y-80334476D01*
X130208693Y-80354142D01*
X130301730Y-80509595D01*
X130344561Y-80581161D01*
X130524313Y-80805528D01*
X130647711Y-80922628D01*
X130716011Y-80987442D01*
X130732851Y-81003423D01*
X130908400Y-81129568D01*
X130956466Y-81164107D01*
X130966317Y-81171186D01*
X130970112Y-81173195D01*
X130970113Y-81173196D01*
X130999170Y-81188581D01*
X131220392Y-81305712D01*
X131286724Y-81329986D01*
X131391302Y-81368256D01*
X131490373Y-81404511D01*
X131771264Y-81465755D01*
X131799841Y-81468004D01*
X131994282Y-81483307D01*
X131994291Y-81483307D01*
X131996739Y-81483500D01*
X132152271Y-81483500D01*
X132154407Y-81483354D01*
X132154418Y-81483354D01*
X132362548Y-81469165D01*
X132362554Y-81469164D01*
X132366825Y-81468873D01*
X132371020Y-81468004D01*
X132371022Y-81468004D01*
X132538626Y-81433295D01*
X132648342Y-81410574D01*
X132919343Y-81314607D01*
X133028585Y-81258223D01*
X133171005Y-81184715D01*
X133171006Y-81184715D01*
X133174812Y-81182750D01*
X133178313Y-81180289D01*
X133178317Y-81180287D01*
X133327718Y-81075286D01*
X133410023Y-81017441D01*
X133495359Y-80938142D01*
X133617479Y-80824661D01*
X133617481Y-80824658D01*
X133620622Y-80821740D01*
X133802713Y-80599268D01*
X133952927Y-80354142D01*
X133987524Y-80275329D01*
X134066757Y-80094830D01*
X134068483Y-80090898D01*
X134074048Y-80071364D01*
X134140850Y-79836853D01*
X134147244Y-79814406D01*
X134182894Y-79563909D01*
X134187146Y-79534036D01*
X134187146Y-79534034D01*
X134187751Y-79529784D01*
X134187807Y-79519268D01*
X134189235Y-79246583D01*
X134189235Y-79246576D01*
X134189257Y-79242297D01*
X134151732Y-78957266D01*
X134148375Y-78944993D01*
X134090485Y-78733383D01*
X134075871Y-78679964D01*
X134065295Y-78655170D01*
X133964763Y-78419476D01*
X133964761Y-78419472D01*
X133963077Y-78415524D01*
X133871120Y-78261875D01*
X133817643Y-78172521D01*
X133817640Y-78172517D01*
X133815439Y-78168839D01*
X133635687Y-77944472D01*
X133482087Y-77798711D01*
X133430258Y-77749527D01*
X133430255Y-77749525D01*
X133427149Y-77746577D01*
X133193683Y-77578814D01*
X133171843Y-77567250D01*
X133127285Y-77543658D01*
X132939608Y-77444288D01*
X132804618Y-77394889D01*
X132673658Y-77346964D01*
X132673656Y-77346963D01*
X132669627Y-77345489D01*
X132388736Y-77284245D01*
X132355560Y-77281634D01*
X132165718Y-77266693D01*
X132165709Y-77266693D01*
X132163261Y-77266500D01*
X132007729Y-77266500D01*
X132005593Y-77266646D01*
X132005582Y-77266646D01*
X131797452Y-77280835D01*
X131797446Y-77280836D01*
X131793175Y-77281127D01*
X131788980Y-77281996D01*
X131788978Y-77281996D01*
X131667707Y-77307110D01*
X131511658Y-77339426D01*
X131240657Y-77435393D01*
X130985188Y-77567250D01*
X130981687Y-77569711D01*
X130981683Y-77569713D01*
X130870678Y-77647729D01*
X130749977Y-77732559D01*
X130735753Y-77745777D01*
X130543148Y-77924757D01*
X130539378Y-77928260D01*
X130357287Y-78150732D01*
X130207073Y-78395858D01*
X130205347Y-78399791D01*
X130205346Y-78399792D01*
X130133317Y-78563879D01*
X130091517Y-78659102D01*
X130090342Y-78663229D01*
X130090341Y-78663230D01*
X130089677Y-78665562D01*
X130012756Y-78935594D01*
X129972249Y-79220216D01*
X129972227Y-79224505D01*
X129972226Y-79224512D01*
X129970961Y-79466020D01*
X129970743Y-79507703D01*
X127525051Y-79507703D01*
X127555003Y-79466020D01*
X127560313Y-79457183D01*
X127654670Y-79266267D01*
X127658469Y-79256672D01*
X127720377Y-79052910D01*
X127722555Y-79042837D01*
X127723986Y-79031962D01*
X127721775Y-79017778D01*
X127708617Y-79014000D01*
X126262000Y-79014000D01*
X126193879Y-78993998D01*
X126147386Y-78940342D01*
X126136000Y-78888000D01*
X126136000Y-78632000D01*
X126156002Y-78563879D01*
X126209658Y-78517386D01*
X126262000Y-78506000D01*
X127708344Y-78506000D01*
X127721875Y-78502027D01*
X127723180Y-78492947D01*
X127681214Y-78325875D01*
X127677894Y-78316124D01*
X127592972Y-78120814D01*
X127588105Y-78111739D01*
X127472426Y-77932926D01*
X127466136Y-77924757D01*
X127322806Y-77767240D01*
X127315273Y-77760215D01*
X127148139Y-77628222D01*
X127139556Y-77622520D01*
X127102602Y-77602120D01*
X127052631Y-77551687D01*
X127037859Y-77482245D01*
X127062975Y-77415839D01*
X127090327Y-77389232D01*
X127149585Y-77346964D01*
X127269860Y-77261173D01*
X127282876Y-77248203D01*
X127404065Y-77127436D01*
X127428096Y-77103489D01*
X127442468Y-77083489D01*
X127555435Y-76926277D01*
X127558453Y-76922077D01*
X127570631Y-76897438D01*
X127655136Y-76726453D01*
X127655137Y-76726451D01*
X127657430Y-76721811D01*
X127722370Y-76508069D01*
X127751529Y-76286590D01*
X127752162Y-76260699D01*
X127753074Y-76223365D01*
X127753074Y-76223361D01*
X127753156Y-76220000D01*
X127734852Y-75997361D01*
X127680431Y-75780702D01*
X127591354Y-75575840D01*
X127489566Y-75418500D01*
X127472822Y-75392617D01*
X127472820Y-75392614D01*
X127470014Y-75388277D01*
X127319670Y-75223051D01*
X127315619Y-75219852D01*
X127315615Y-75219848D01*
X127148414Y-75087800D01*
X127148410Y-75087798D01*
X127144359Y-75084598D01*
X127103053Y-75061796D01*
X127053084Y-75011364D01*
X127038312Y-74941921D01*
X127063428Y-74875516D01*
X127090780Y-74848909D01*
X127152533Y-74804861D01*
X127269860Y-74721173D01*
X127279174Y-74711892D01*
X127424435Y-74567137D01*
X127428096Y-74563489D01*
X127487594Y-74480689D01*
X127555435Y-74386277D01*
X127558453Y-74382077D01*
X127570757Y-74357183D01*
X127655136Y-74186453D01*
X127655137Y-74186451D01*
X127657430Y-74181811D01*
X127694126Y-74061032D01*
X127720865Y-73973023D01*
X127720865Y-73973021D01*
X127722370Y-73968069D01*
X127751529Y-73746590D01*
X127752441Y-73709277D01*
X127753074Y-73683365D01*
X127753074Y-73683361D01*
X127753156Y-73680000D01*
X127734852Y-73457361D01*
X127680431Y-73240702D01*
X127591354Y-73035840D01*
X127470014Y-72848277D01*
X127458174Y-72835265D01*
X127322798Y-72686488D01*
X127291746Y-72622642D01*
X127300141Y-72552143D01*
X127345317Y-72497375D01*
X127371761Y-72483706D01*
X127478297Y-72443767D01*
X127486705Y-72440615D01*
X127603261Y-72353261D01*
X127690615Y-72236705D01*
X127741745Y-72100316D01*
X127748500Y-72038134D01*
X127748500Y-71349572D01*
X127768502Y-71281451D01*
X127822158Y-71234958D01*
X127892432Y-71224854D01*
X127957012Y-71254348D01*
G37*
%TD.AperFunction*%
%TA.AperFunction,Conductor*%
G36*
X143207733Y-91373637D02*
G01*
X143263800Y-91429704D01*
X143297826Y-91492016D01*
X143298251Y-91543543D01*
X143297247Y-91548557D01*
X143295247Y-91554938D01*
X143288500Y-91628365D01*
X143288501Y-92141634D01*
X143288764Y-92144492D01*
X143288764Y-92144501D01*
X143290224Y-92160386D01*
X143295247Y-92215062D01*
X143297246Y-92221440D01*
X143297246Y-92221441D01*
X143329501Y-92324365D01*
X143346528Y-92378699D01*
X143435361Y-92525381D01*
X143531239Y-92621259D01*
X143565265Y-92683571D01*
X143560200Y-92754386D01*
X143531239Y-92799449D01*
X143441131Y-92889557D01*
X143431824Y-92901426D01*
X143350921Y-93035012D01*
X143344715Y-93048757D01*
X143297744Y-93198644D01*
X143295131Y-93211694D01*
X143290087Y-93266586D01*
X143293475Y-93278124D01*
X143294865Y-93279329D01*
X143302548Y-93281000D01*
X144400000Y-93281000D01*
X144468121Y-93301002D01*
X144514614Y-93354658D01*
X144526000Y-93407000D01*
X144526000Y-94424884D01*
X144530475Y-94440123D01*
X144531865Y-94441328D01*
X144539548Y-94442999D01*
X144600705Y-94442999D01*
X144606454Y-94442736D01*
X144670315Y-94436868D01*
X144683351Y-94434257D01*
X144833243Y-94387285D01*
X144846988Y-94381079D01*
X144980574Y-94300176D01*
X144992443Y-94290869D01*
X145102869Y-94180443D01*
X145112176Y-94168574D01*
X145182724Y-94052086D01*
X145235122Y-94004180D01*
X145305101Y-93992207D01*
X145370445Y-94019968D01*
X145410407Y-94078650D01*
X145416500Y-94117358D01*
X145416500Y-97414471D01*
X145396498Y-97482592D01*
X145342842Y-97529085D01*
X145272568Y-97539189D01*
X145207988Y-97509695D01*
X145183356Y-97480774D01*
X145148675Y-97424729D01*
X145100752Y-97347287D01*
X144979702Y-97226448D01*
X144893808Y-97173502D01*
X144840331Y-97140538D01*
X144840329Y-97140537D01*
X144834101Y-97136698D01*
X144671757Y-97082851D01*
X144664920Y-97082151D01*
X144664918Y-97082150D01*
X144623599Y-97077917D01*
X144570732Y-97072500D01*
X143973268Y-97072500D01*
X143970022Y-97072837D01*
X143970018Y-97072837D01*
X143935917Y-97076375D01*
X143870981Y-97083113D01*
X143864440Y-97085295D01*
X143864441Y-97085295D01*
X143715676Y-97134927D01*
X143715674Y-97134928D01*
X143708732Y-97137244D01*
X143702508Y-97141096D01*
X143702507Y-97141096D01*
X143669027Y-97161814D01*
X143563287Y-97227248D01*
X143442448Y-97348298D01*
X143438608Y-97354528D01*
X143438607Y-97354529D01*
X143389519Y-97434165D01*
X143352698Y-97493899D01*
X143298851Y-97656243D01*
X143298151Y-97663080D01*
X143298150Y-97663082D01*
X143295504Y-97688909D01*
X143288500Y-97757268D01*
X143288500Y-98066405D01*
X143268498Y-98134526D01*
X143251595Y-98155500D01*
X143017500Y-98389595D01*
X142955188Y-98423621D01*
X142928405Y-98426500D01*
X142906805Y-98426500D01*
X142838684Y-98406498D01*
X142801013Y-98368940D01*
X142712822Y-98232617D01*
X142712820Y-98232614D01*
X142710014Y-98228277D01*
X142559670Y-98063051D01*
X142555619Y-98059852D01*
X142555615Y-98059848D01*
X142388414Y-97927800D01*
X142388410Y-97927798D01*
X142384359Y-97924598D01*
X142343053Y-97901796D01*
X142293084Y-97851364D01*
X142278312Y-97781921D01*
X142303428Y-97715516D01*
X142330780Y-97688909D01*
X142378345Y-97654981D01*
X142509860Y-97561173D01*
X142530037Y-97541067D01*
X142631628Y-97439830D01*
X142668096Y-97403489D01*
X142798453Y-97222077D01*
X142802611Y-97213665D01*
X142895136Y-97026453D01*
X142895137Y-97026451D01*
X142897430Y-97021811D01*
X142945874Y-96862364D01*
X142960865Y-96813023D01*
X142960865Y-96813021D01*
X142962370Y-96808069D01*
X142991529Y-96586590D01*
X142993156Y-96520000D01*
X142974852Y-96297361D01*
X142920431Y-96080702D01*
X142831354Y-95875840D01*
X142710014Y-95688277D01*
X142559670Y-95523051D01*
X142555619Y-95519852D01*
X142555615Y-95519848D01*
X142388414Y-95387800D01*
X142388410Y-95387798D01*
X142384359Y-95384598D01*
X142343053Y-95361796D01*
X142293084Y-95311364D01*
X142278312Y-95241921D01*
X142303428Y-95175516D01*
X142330780Y-95148909D01*
X142395292Y-95102893D01*
X142509860Y-95021173D01*
X142668096Y-94863489D01*
X142727594Y-94780689D01*
X142795435Y-94686277D01*
X142798453Y-94682077D01*
X142897430Y-94481811D01*
X142944417Y-94327158D01*
X142960865Y-94273023D01*
X142960865Y-94273021D01*
X142962370Y-94268069D01*
X142991529Y-94046590D01*
X142991611Y-94043240D01*
X142993074Y-93983365D01*
X142993074Y-93983361D01*
X142993156Y-93980000D01*
X142978299Y-93799294D01*
X143289709Y-93799294D01*
X143295132Y-93858315D01*
X143297743Y-93871351D01*
X143344715Y-94021243D01*
X143350921Y-94034988D01*
X143431824Y-94168574D01*
X143441131Y-94180443D01*
X143551557Y-94290869D01*
X143563426Y-94300176D01*
X143697012Y-94381079D01*
X143710757Y-94387285D01*
X143860644Y-94434256D01*
X143873694Y-94436869D01*
X143937521Y-94442734D01*
X143943309Y-94443000D01*
X143999885Y-94443000D01*
X144015124Y-94438525D01*
X144016329Y-94437135D01*
X144018000Y-94429452D01*
X144018000Y-93807115D01*
X144013525Y-93791876D01*
X144012135Y-93790671D01*
X144004452Y-93789000D01*
X143307116Y-93789000D01*
X143291877Y-93793475D01*
X143290672Y-93794865D01*
X143289709Y-93799294D01*
X142978299Y-93799294D01*
X142974852Y-93757361D01*
X142920431Y-93540702D01*
X142831354Y-93335840D01*
X142720682Y-93164767D01*
X142712822Y-93152617D01*
X142712820Y-93152614D01*
X142710014Y-93148277D01*
X142559670Y-92983051D01*
X142555619Y-92979852D01*
X142555615Y-92979848D01*
X142388414Y-92847800D01*
X142388410Y-92847798D01*
X142384359Y-92844598D01*
X142343053Y-92821796D01*
X142293084Y-92771364D01*
X142278312Y-92701921D01*
X142303428Y-92635516D01*
X142330780Y-92608909D01*
X142447882Y-92525381D01*
X142509860Y-92481173D01*
X142514845Y-92476206D01*
X142607489Y-92383885D01*
X142668096Y-92323489D01*
X142676710Y-92311502D01*
X142795435Y-92146277D01*
X142798453Y-92142077D01*
X142809305Y-92120121D01*
X142895136Y-91946453D01*
X142895137Y-91946451D01*
X142897430Y-91941811D01*
X142959266Y-91738285D01*
X142960865Y-91733023D01*
X142960865Y-91733021D01*
X142962370Y-91728069D01*
X142991529Y-91506590D01*
X142991692Y-91499919D01*
X142992676Y-91459654D01*
X143014336Y-91392042D01*
X143069111Y-91346874D01*
X143139611Y-91338490D01*
X143207733Y-91373637D01*
G37*
%TD.AperFunction*%
%TA.AperFunction,Conductor*%
G36*
X137642621Y-87316002D02*
G01*
X137689114Y-87369658D01*
X137700500Y-87422000D01*
X137700500Y-87662732D01*
X137700837Y-87665978D01*
X137700837Y-87665982D01*
X137701735Y-87674633D01*
X137711113Y-87765019D01*
X137715474Y-87778089D01*
X137758439Y-87906870D01*
X137765244Y-87927268D01*
X137855248Y-88072713D01*
X137860430Y-88077886D01*
X137869926Y-88087365D01*
X137976298Y-88193552D01*
X137982528Y-88197392D01*
X137982529Y-88197393D01*
X138102740Y-88271492D01*
X138121899Y-88283302D01*
X138284243Y-88337149D01*
X138291080Y-88337849D01*
X138291082Y-88337850D01*
X138299498Y-88338712D01*
X138365225Y-88365553D01*
X138406007Y-88423668D01*
X138408895Y-88494606D01*
X138400119Y-88516318D01*
X138400961Y-88516693D01*
X138398277Y-88522721D01*
X138394973Y-88528444D01*
X138335958Y-88710072D01*
X138335268Y-88716633D01*
X138335268Y-88716635D01*
X138324156Y-88822365D01*
X138315996Y-88900000D01*
X138316686Y-88906564D01*
X138334224Y-89073426D01*
X138321452Y-89143265D01*
X138272950Y-89195111D01*
X138246596Y-89206830D01*
X138179106Y-89227980D01*
X138133550Y-89242256D01*
X138133548Y-89242257D01*
X138126301Y-89244528D01*
X137979619Y-89333361D01*
X137884095Y-89428885D01*
X137821783Y-89462911D01*
X137750968Y-89457846D01*
X137705905Y-89428885D01*
X137610381Y-89333361D01*
X137463699Y-89244528D01*
X137456452Y-89242257D01*
X137456450Y-89242256D01*
X137363167Y-89213023D01*
X137300062Y-89193247D01*
X137226635Y-89186500D01*
X137223737Y-89186500D01*
X136969335Y-89186501D01*
X136713366Y-89186501D01*
X136710508Y-89186764D01*
X136710499Y-89186764D01*
X136676619Y-89189877D01*
X136639938Y-89193247D01*
X136633560Y-89195246D01*
X136633559Y-89195246D01*
X136483550Y-89242256D01*
X136483548Y-89242257D01*
X136476301Y-89244528D01*
X136329619Y-89333361D01*
X136296595Y-89366385D01*
X136234283Y-89400411D01*
X136163468Y-89395346D01*
X136118405Y-89366385D01*
X136085381Y-89333361D01*
X135938699Y-89244528D01*
X135931452Y-89242257D01*
X135931450Y-89242256D01*
X135783821Y-89195992D01*
X135724799Y-89156535D01*
X135696479Y-89091431D01*
X135695500Y-89075758D01*
X135695500Y-87749950D01*
X135715502Y-87681829D01*
X135726059Y-87668729D01*
X135725989Y-87668675D01*
X135730845Y-87662415D01*
X135736453Y-87656807D01*
X135740489Y-87649983D01*
X135740491Y-87649980D01*
X135817108Y-87520427D01*
X135821145Y-87513601D01*
X135823357Y-87505988D01*
X135823358Y-87505986D01*
X135857970Y-87386848D01*
X135896183Y-87327012D01*
X135960679Y-87297334D01*
X135978967Y-87296000D01*
X137574500Y-87296000D01*
X137642621Y-87316002D01*
G37*
%TD.AperFunction*%
%TA.AperFunction,Conductor*%
G36*
X134954012Y-83294530D02*
G01*
X134992396Y-83354256D01*
X134994746Y-83363556D01*
X134995768Y-83368364D01*
X134996458Y-83374928D01*
X135055473Y-83556556D01*
X135058776Y-83562278D01*
X135058777Y-83562279D01*
X135085011Y-83607718D01*
X135150960Y-83721944D01*
X135155378Y-83726851D01*
X135155379Y-83726852D01*
X135242280Y-83823365D01*
X135278747Y-83863866D01*
X135433248Y-83976118D01*
X135439276Y-83978802D01*
X135439278Y-83978803D01*
X135553629Y-84029715D01*
X135607712Y-84053794D01*
X135701112Y-84073647D01*
X135788056Y-84092128D01*
X135788061Y-84092128D01*
X135794513Y-84093500D01*
X135850406Y-84093500D01*
X135918527Y-84113502D01*
X135939501Y-84130405D01*
X136656343Y-84847247D01*
X136663887Y-84855537D01*
X136668000Y-84862018D01*
X136673777Y-84867443D01*
X136717667Y-84908658D01*
X136720509Y-84911413D01*
X136740230Y-84931134D01*
X136743425Y-84933612D01*
X136752447Y-84941318D01*
X136784679Y-84971586D01*
X136791628Y-84975406D01*
X136802432Y-84981346D01*
X136818956Y-84992199D01*
X136834959Y-85004613D01*
X136875543Y-85022176D01*
X136886173Y-85027383D01*
X136924940Y-85048695D01*
X136932617Y-85050666D01*
X136932622Y-85050668D01*
X136944558Y-85053732D01*
X136963266Y-85060137D01*
X136981855Y-85068181D01*
X136989683Y-85069421D01*
X136989690Y-85069423D01*
X137025524Y-85075099D01*
X137037144Y-85077505D01*
X137068959Y-85085673D01*
X137079970Y-85088500D01*
X137100224Y-85088500D01*
X137119934Y-85090051D01*
X137139943Y-85093220D01*
X137147835Y-85092474D01*
X137166580Y-85090702D01*
X137183962Y-85089059D01*
X137195819Y-85088500D01*
X137671144Y-85088500D01*
X137739265Y-85108502D01*
X137785758Y-85162158D01*
X137795862Y-85232432D01*
X137778405Y-85280615D01*
X137768995Y-85295882D01*
X137762849Y-85309061D01*
X137713509Y-85457814D01*
X137710642Y-85471190D01*
X137701328Y-85562097D01*
X137701071Y-85567126D01*
X137705475Y-85582124D01*
X137706865Y-85583329D01*
X137714548Y-85585000D01*
X139648885Y-85585000D01*
X139664124Y-85580525D01*
X139665329Y-85579135D01*
X139667000Y-85571452D01*
X139667000Y-85568562D01*
X139666663Y-85562047D01*
X139657106Y-85469943D01*
X139654212Y-85456544D01*
X139604619Y-85307893D01*
X139598446Y-85294716D01*
X139589836Y-85280802D01*
X139570999Y-85212350D01*
X139592161Y-85144580D01*
X139646602Y-85099010D01*
X139696981Y-85088500D01*
X140256233Y-85088500D01*
X140267416Y-85089027D01*
X140274909Y-85090702D01*
X140282835Y-85090453D01*
X140282836Y-85090453D01*
X140342986Y-85088562D01*
X140346945Y-85088500D01*
X140374856Y-85088500D01*
X140378791Y-85088003D01*
X140378856Y-85087995D01*
X140390693Y-85087062D01*
X140422951Y-85086048D01*
X140426970Y-85085922D01*
X140434889Y-85085673D01*
X140454343Y-85080021D01*
X140473700Y-85076013D01*
X140485930Y-85074468D01*
X140485931Y-85074468D01*
X140493797Y-85073474D01*
X140501168Y-85070555D01*
X140501170Y-85070555D01*
X140534912Y-85057196D01*
X140546142Y-85053351D01*
X140580983Y-85043229D01*
X140580984Y-85043229D01*
X140588593Y-85041018D01*
X140595412Y-85036985D01*
X140595417Y-85036983D01*
X140606028Y-85030707D01*
X140623776Y-85022012D01*
X140642617Y-85014552D01*
X140662987Y-84999753D01*
X140678387Y-84988564D01*
X140688307Y-84982048D01*
X140719539Y-84963577D01*
X140726362Y-84959542D01*
X140729035Y-84956869D01*
X140793403Y-84931595D01*
X140868115Y-84948313D01*
X140921447Y-84979477D01*
X140970169Y-85031115D01*
X140983240Y-85100898D01*
X140956508Y-85166670D01*
X140916055Y-85200027D01*
X140903607Y-85206507D01*
X140899474Y-85209610D01*
X140899471Y-85209612D01*
X140729100Y-85337530D01*
X140724965Y-85340635D01*
X140699894Y-85366870D01*
X140604815Y-85466365D01*
X140570629Y-85502138D01*
X140567715Y-85506410D01*
X140567714Y-85506411D01*
X140533780Y-85556156D01*
X140444743Y-85686680D01*
X140350688Y-85889305D01*
X140290989Y-86104570D01*
X140267251Y-86326695D01*
X140267548Y-86331848D01*
X140267548Y-86331851D01*
X140274164Y-86446590D01*
X140280110Y-86549715D01*
X140281247Y-86554761D01*
X140281248Y-86554767D01*
X140296406Y-86622026D01*
X140329222Y-86767639D01*
X140413266Y-86974616D01*
X140529987Y-87165088D01*
X140676250Y-87333938D01*
X140848126Y-87476632D01*
X140893691Y-87503258D01*
X140921445Y-87519476D01*
X140970169Y-87571114D01*
X140983240Y-87640897D01*
X140956509Y-87706669D01*
X140916055Y-87740027D01*
X140903607Y-87746507D01*
X140899474Y-87749610D01*
X140899471Y-87749612D01*
X140729100Y-87877530D01*
X140724965Y-87880635D01*
X140718999Y-87886878D01*
X140580760Y-88031537D01*
X140570629Y-88042138D01*
X140567715Y-88046410D01*
X140567714Y-88046411D01*
X140535774Y-88093234D01*
X140444743Y-88226680D01*
X140404478Y-88313424D01*
X140353305Y-88423668D01*
X140350688Y-88429305D01*
X140341981Y-88460702D01*
X140315731Y-88555354D01*
X140278252Y-88615652D01*
X140214123Y-88646115D01*
X140143705Y-88637071D01*
X140089355Y-88591392D01*
X140074481Y-88560618D01*
X140066069Y-88534729D01*
X140064027Y-88528444D01*
X139968540Y-88363056D01*
X139895363Y-88281785D01*
X139864647Y-88217779D01*
X139863000Y-88197476D01*
X139863000Y-88013268D01*
X139863527Y-88002085D01*
X139865202Y-87994592D01*
X139863062Y-87926501D01*
X139863000Y-87922544D01*
X139863000Y-87894644D01*
X139862496Y-87890653D01*
X139861563Y-87878811D01*
X139861395Y-87873443D01*
X139860174Y-87834611D01*
X139857962Y-87826997D01*
X139857961Y-87826992D01*
X139854523Y-87815159D01*
X139850512Y-87795795D01*
X139848967Y-87783564D01*
X139847974Y-87775703D01*
X139845057Y-87768336D01*
X139845056Y-87768331D01*
X139831698Y-87734592D01*
X139827854Y-87723365D01*
X139822114Y-87703611D01*
X139815518Y-87680907D01*
X139805207Y-87663472D01*
X139796512Y-87645724D01*
X139789052Y-87626883D01*
X139763064Y-87591113D01*
X139756548Y-87581193D01*
X139738080Y-87549965D01*
X139738078Y-87549962D01*
X139734042Y-87543138D01*
X139719721Y-87528817D01*
X139706880Y-87513783D01*
X139694972Y-87497393D01*
X139696688Y-87496146D01*
X139669599Y-87442608D01*
X139667500Y-87419703D01*
X139667500Y-87115268D01*
X139656887Y-87012981D01*
X139628657Y-86928366D01*
X139605073Y-86857676D01*
X139605072Y-86857674D01*
X139602756Y-86850732D01*
X139512752Y-86705287D01*
X139507570Y-86700114D01*
X139503023Y-86694377D01*
X139504830Y-86692945D01*
X139476098Y-86640425D01*
X139481108Y-86569605D01*
X139504499Y-86533147D01*
X139503448Y-86532317D01*
X139516998Y-86515160D01*
X139599004Y-86382120D01*
X139605151Y-86368939D01*
X139654491Y-86220186D01*
X139657358Y-86206810D01*
X139666672Y-86115903D01*
X139666929Y-86110874D01*
X139662525Y-86095876D01*
X139661135Y-86094671D01*
X139653452Y-86093000D01*
X138268922Y-86093000D01*
X138208222Y-86077415D01*
X138199505Y-86072623D01*
X138192560Y-86068805D01*
X138172937Y-86063767D01*
X138154234Y-86057363D01*
X138142920Y-86052467D01*
X138142919Y-86052467D01*
X138135645Y-86049319D01*
X138127822Y-86048080D01*
X138127812Y-86048077D01*
X138091976Y-86042401D01*
X138080356Y-86039995D01*
X138045211Y-86030972D01*
X138045210Y-86030972D01*
X138037530Y-86029000D01*
X138017276Y-86029000D01*
X137997565Y-86027449D01*
X137985386Y-86025520D01*
X137977557Y-86024280D01*
X137969665Y-86025026D01*
X137933539Y-86028441D01*
X137921681Y-86029000D01*
X135978967Y-86029000D01*
X135910846Y-86008998D01*
X135864353Y-85955342D01*
X135857970Y-85938152D01*
X135823358Y-85819014D01*
X135823356Y-85819009D01*
X135821145Y-85811399D01*
X135779269Y-85740590D01*
X135740491Y-85675020D01*
X135740489Y-85675017D01*
X135736453Y-85668193D01*
X135618807Y-85550547D01*
X135611983Y-85546511D01*
X135611980Y-85546509D01*
X135482427Y-85469892D01*
X135482428Y-85469892D01*
X135475601Y-85465855D01*
X135467990Y-85463644D01*
X135467988Y-85463643D01*
X135415769Y-85448472D01*
X135315831Y-85419438D01*
X135309426Y-85418934D01*
X135309421Y-85418933D01*
X135280958Y-85416693D01*
X135280950Y-85416693D01*
X135278502Y-85416500D01*
X135046500Y-85416500D01*
X134978379Y-85396498D01*
X134931886Y-85342842D01*
X134920500Y-85290500D01*
X134920500Y-84133498D01*
X134919669Y-84122939D01*
X134918067Y-84102579D01*
X134918066Y-84102574D01*
X134917562Y-84096169D01*
X134881557Y-83972237D01*
X134873357Y-83944012D01*
X134873356Y-83944010D01*
X134871145Y-83936399D01*
X134839707Y-83883240D01*
X134790491Y-83800020D01*
X134790489Y-83800017D01*
X134786453Y-83793193D01*
X134780844Y-83787584D01*
X134775989Y-83781325D01*
X134777496Y-83780156D01*
X134748379Y-83726833D01*
X134745500Y-83700050D01*
X134745500Y-83389754D01*
X134765502Y-83321633D01*
X134819158Y-83275140D01*
X134889432Y-83265036D01*
X134954012Y-83294530D01*
G37*
%TD.AperFunction*%
%TA.AperFunction,Conductor*%
G36*
X146501919Y-72283088D02*
G01*
X146547490Y-72337529D01*
X146558000Y-72387909D01*
X146558000Y-88270906D01*
X146537998Y-88339027D01*
X146484342Y-88385520D01*
X146414068Y-88395624D01*
X146349488Y-88366130D01*
X146342905Y-88360001D01*
X145865173Y-87882268D01*
X145292405Y-87309500D01*
X145258379Y-87247188D01*
X145255500Y-87220405D01*
X145255499Y-86931249D01*
X145255499Y-86928366D01*
X145254563Y-86918171D01*
X145249364Y-86861592D01*
X145248753Y-86854938D01*
X145242337Y-86834464D01*
X145199744Y-86698550D01*
X145199743Y-86698548D01*
X145197472Y-86691301D01*
X145108639Y-86544619D01*
X145013115Y-86449095D01*
X144979089Y-86386783D01*
X144984154Y-86315968D01*
X145013115Y-86270905D01*
X145108639Y-86175381D01*
X145197472Y-86028699D01*
X145204573Y-86006042D01*
X145226537Y-85935954D01*
X145248753Y-85865062D01*
X145255500Y-85791635D01*
X145255499Y-85278366D01*
X145255234Y-85275474D01*
X145250853Y-85227800D01*
X145248753Y-85204938D01*
X145243028Y-85186669D01*
X145199744Y-85048550D01*
X145199743Y-85048548D01*
X145197472Y-85041301D01*
X145108639Y-84894619D01*
X145075615Y-84861595D01*
X145041589Y-84799283D01*
X145046654Y-84728468D01*
X145075615Y-84683405D01*
X145108639Y-84650381D01*
X145197472Y-84503699D01*
X145248753Y-84340062D01*
X145255500Y-84266635D01*
X145255499Y-83753366D01*
X145255234Y-83750474D01*
X145249364Y-83686592D01*
X145248753Y-83679938D01*
X145246752Y-83673554D01*
X145199744Y-83523550D01*
X145199743Y-83523548D01*
X145197472Y-83516301D01*
X145108639Y-83369619D01*
X145012761Y-83273741D01*
X144978735Y-83211429D01*
X144983800Y-83140614D01*
X145012761Y-83095551D01*
X145102869Y-83005443D01*
X145112176Y-82993574D01*
X145193079Y-82859988D01*
X145199285Y-82846243D01*
X145246256Y-82696356D01*
X145248869Y-82683306D01*
X145253913Y-82628414D01*
X145250525Y-82616876D01*
X145249135Y-82615671D01*
X145241452Y-82614000D01*
X143307116Y-82614000D01*
X143291877Y-82618475D01*
X143290672Y-82619865D01*
X143289709Y-82624294D01*
X143295132Y-82683315D01*
X143297743Y-82696351D01*
X143344715Y-82846243D01*
X143350921Y-82859988D01*
X143431824Y-82993574D01*
X143441131Y-83005443D01*
X143531239Y-83095551D01*
X143565265Y-83157863D01*
X143560200Y-83228678D01*
X143531239Y-83273741D01*
X143435361Y-83369619D01*
X143346528Y-83516301D01*
X143344257Y-83523548D01*
X143344256Y-83523550D01*
X143333913Y-83556556D01*
X143295247Y-83679938D01*
X143288500Y-83753365D01*
X143288501Y-84266634D01*
X143288764Y-84269492D01*
X143288764Y-84269501D01*
X143291675Y-84301180D01*
X143295247Y-84340062D01*
X143346528Y-84503699D01*
X143435361Y-84650381D01*
X143468385Y-84683405D01*
X143502411Y-84745717D01*
X143497346Y-84816532D01*
X143468385Y-84861595D01*
X143435361Y-84894619D01*
X143346528Y-85041301D01*
X143344257Y-85048548D01*
X143344256Y-85048550D01*
X143330703Y-85091797D01*
X143295247Y-85204938D01*
X143288500Y-85278365D01*
X143288501Y-85440448D01*
X143288501Y-85570404D01*
X143268499Y-85638524D01*
X143251596Y-85659499D01*
X143221500Y-85689595D01*
X143159188Y-85723621D01*
X143132405Y-85726500D01*
X142906805Y-85726500D01*
X142838684Y-85706498D01*
X142801013Y-85668940D01*
X142712822Y-85532617D01*
X142712820Y-85532614D01*
X142710014Y-85528277D01*
X142559670Y-85363051D01*
X142555619Y-85359852D01*
X142555615Y-85359848D01*
X142388414Y-85227800D01*
X142388410Y-85227798D01*
X142384359Y-85224598D01*
X142343053Y-85201796D01*
X142293084Y-85151364D01*
X142278312Y-85081921D01*
X142303428Y-85015516D01*
X142330780Y-84988909D01*
X142380664Y-84953327D01*
X142509860Y-84861173D01*
X142668096Y-84703489D01*
X142754194Y-84583671D01*
X142795435Y-84526277D01*
X142798453Y-84522077D01*
X142864223Y-84389002D01*
X142895136Y-84326453D01*
X142895137Y-84326451D01*
X142897430Y-84321811D01*
X142944344Y-84167401D01*
X142960865Y-84113023D01*
X142960865Y-84113021D01*
X142962370Y-84108069D01*
X142991529Y-83886590D01*
X142991611Y-83883240D01*
X142993074Y-83823365D01*
X142993074Y-83823361D01*
X142993156Y-83820000D01*
X142974852Y-83597361D01*
X142920431Y-83380702D01*
X142831354Y-83175840D01*
X142779413Y-83095551D01*
X142712822Y-82992617D01*
X142712820Y-82992614D01*
X142710014Y-82988277D01*
X142559670Y-82823051D01*
X142555619Y-82819852D01*
X142555615Y-82819848D01*
X142388414Y-82687800D01*
X142388410Y-82687798D01*
X142384359Y-82684598D01*
X142343053Y-82661796D01*
X142293084Y-82611364D01*
X142278312Y-82541921D01*
X142303428Y-82475516D01*
X142330780Y-82448909D01*
X142374603Y-82417650D01*
X142509860Y-82321173D01*
X142514845Y-82316206D01*
X142649214Y-82182305D01*
X142668096Y-82163489D01*
X142711473Y-82103124D01*
X142795435Y-81986277D01*
X142798453Y-81982077D01*
X142805775Y-81967263D01*
X142895136Y-81786453D01*
X142895137Y-81786451D01*
X142897430Y-81781811D01*
X142945915Y-81622230D01*
X142960865Y-81573023D01*
X142960865Y-81573021D01*
X142962370Y-81568069D01*
X142991529Y-81346590D01*
X142991611Y-81343240D01*
X142993074Y-81283365D01*
X142993074Y-81283361D01*
X142993156Y-81280000D01*
X142974852Y-81057361D01*
X142920431Y-80840702D01*
X142903358Y-80801438D01*
X143289000Y-80801438D01*
X143289337Y-80807953D01*
X143298894Y-80900057D01*
X143301788Y-80913456D01*
X143351381Y-81062107D01*
X143357555Y-81075286D01*
X143439788Y-81208173D01*
X143448824Y-81219574D01*
X143559429Y-81329986D01*
X143570840Y-81338998D01*
X143600963Y-81357566D01*
X143648456Y-81410338D01*
X143659880Y-81480410D01*
X143631606Y-81545534D01*
X143600118Y-81572602D01*
X143563429Y-81594822D01*
X143551557Y-81604131D01*
X143441131Y-81714557D01*
X143431824Y-81726426D01*
X143350921Y-81860012D01*
X143344715Y-81873757D01*
X143297744Y-82023644D01*
X143295131Y-82036694D01*
X143290087Y-82091586D01*
X143293475Y-82103124D01*
X143294865Y-82104329D01*
X143302548Y-82106000D01*
X143999885Y-82106000D01*
X144015124Y-82101525D01*
X144016329Y-82100135D01*
X144018000Y-82092452D01*
X144018000Y-82087885D01*
X144526000Y-82087885D01*
X144530475Y-82103124D01*
X144531865Y-82104329D01*
X144539548Y-82106000D01*
X145236884Y-82106000D01*
X145252123Y-82101525D01*
X145253328Y-82100135D01*
X145254291Y-82095706D01*
X145248868Y-82036685D01*
X145246257Y-82023649D01*
X145199285Y-81873757D01*
X145193079Y-81860012D01*
X145112176Y-81726426D01*
X145102869Y-81714557D01*
X144992443Y-81604131D01*
X144980571Y-81594822D01*
X144943811Y-81572559D01*
X144895904Y-81520162D01*
X144883931Y-81450182D01*
X144911692Y-81384838D01*
X144942779Y-81357638D01*
X144974179Y-81338207D01*
X144985574Y-81329176D01*
X145095986Y-81218571D01*
X145104998Y-81207160D01*
X145187004Y-81074120D01*
X145193151Y-81060939D01*
X145242491Y-80912186D01*
X145245358Y-80898810D01*
X145254672Y-80807903D01*
X145254929Y-80802874D01*
X145250525Y-80787876D01*
X145249135Y-80786671D01*
X145241452Y-80785000D01*
X144544115Y-80785000D01*
X144528876Y-80789475D01*
X144527671Y-80790865D01*
X144526000Y-80798548D01*
X144526000Y-82087885D01*
X144018000Y-82087885D01*
X144018000Y-80803115D01*
X144013525Y-80787876D01*
X144012135Y-80786671D01*
X144004452Y-80785000D01*
X143307115Y-80785000D01*
X143291876Y-80789475D01*
X143290671Y-80790865D01*
X143289000Y-80798548D01*
X143289000Y-80801438D01*
X142903358Y-80801438D01*
X142831354Y-80635840D01*
X142759989Y-80525526D01*
X142712822Y-80452617D01*
X142712820Y-80452614D01*
X142710014Y-80448277D01*
X142559670Y-80283051D01*
X142555619Y-80279852D01*
X142555615Y-80279848D01*
X142388414Y-80147800D01*
X142388410Y-80147798D01*
X142384359Y-80144598D01*
X142343053Y-80121796D01*
X142293084Y-80071364D01*
X142278312Y-80001921D01*
X142303428Y-79935516D01*
X142330780Y-79908909D01*
X142434174Y-79835159D01*
X142509860Y-79781173D01*
X142547827Y-79743339D01*
X142627742Y-79663702D01*
X142668096Y-79623489D01*
X142735430Y-79529784D01*
X142795435Y-79446277D01*
X142798453Y-79442077D01*
X142800746Y-79437437D01*
X142802446Y-79434608D01*
X142854674Y-79386518D01*
X142910451Y-79373500D01*
X143213821Y-79373500D01*
X143281942Y-79393502D01*
X143328435Y-79447158D01*
X143333344Y-79459623D01*
X143350803Y-79511951D01*
X143353244Y-79519268D01*
X143443248Y-79664713D01*
X143448430Y-79669886D01*
X143452977Y-79675623D01*
X143451170Y-79677055D01*
X143479902Y-79729575D01*
X143474892Y-79800395D01*
X143451501Y-79836853D01*
X143452552Y-79837683D01*
X143439002Y-79854840D01*
X143356996Y-79987880D01*
X143350849Y-80001061D01*
X143301509Y-80149814D01*
X143298642Y-80163190D01*
X143289328Y-80254097D01*
X143289071Y-80259126D01*
X143293475Y-80274124D01*
X143294865Y-80275329D01*
X143302548Y-80277000D01*
X145236885Y-80277000D01*
X145252124Y-80272525D01*
X145253329Y-80271135D01*
X145255000Y-80263452D01*
X145255000Y-80260562D01*
X145254663Y-80254047D01*
X145245106Y-80161943D01*
X145242212Y-80148544D01*
X145192619Y-79999893D01*
X145186445Y-79986714D01*
X145104212Y-79853827D01*
X145090629Y-79836689D01*
X145092559Y-79835159D01*
X145064097Y-79783120D01*
X145069113Y-79712301D01*
X145092799Y-79675383D01*
X145091843Y-79674628D01*
X145096381Y-79668882D01*
X145101552Y-79663702D01*
X145158179Y-79571836D01*
X145187462Y-79524331D01*
X145187463Y-79524329D01*
X145191302Y-79518101D01*
X145245149Y-79355757D01*
X145255500Y-79254732D01*
X145255500Y-78945594D01*
X145275502Y-78877473D01*
X145292405Y-78856499D01*
X145934247Y-78214657D01*
X145942537Y-78207113D01*
X145949018Y-78203000D01*
X145995659Y-78153332D01*
X145998413Y-78150491D01*
X146018134Y-78130770D01*
X146020612Y-78127575D01*
X146028318Y-78118553D01*
X146039009Y-78107168D01*
X146058586Y-78086321D01*
X146068346Y-78068568D01*
X146079199Y-78052045D01*
X146084009Y-78045844D01*
X146091613Y-78036041D01*
X146109176Y-77995457D01*
X146114383Y-77984827D01*
X146135695Y-77946060D01*
X146137666Y-77938383D01*
X146137668Y-77938378D01*
X146140732Y-77926442D01*
X146147138Y-77907730D01*
X146148555Y-77904457D01*
X146155181Y-77889145D01*
X146156421Y-77881317D01*
X146156423Y-77881310D01*
X146162099Y-77845476D01*
X146164505Y-77833856D01*
X146173528Y-77798711D01*
X146173528Y-77798710D01*
X146175500Y-77791030D01*
X146175500Y-77770776D01*
X146177051Y-77751065D01*
X146178980Y-77738886D01*
X146180220Y-77731057D01*
X146176059Y-77687038D01*
X146175500Y-77675181D01*
X146175500Y-72735767D01*
X146176027Y-72724584D01*
X146177702Y-72717091D01*
X146175562Y-72649014D01*
X146175500Y-72645055D01*
X146175500Y-72617144D01*
X146174995Y-72613144D01*
X146174062Y-72601301D01*
X146172922Y-72565030D01*
X146172673Y-72557111D01*
X146167021Y-72537657D01*
X146163013Y-72518300D01*
X146161468Y-72506070D01*
X146161468Y-72506069D01*
X146160474Y-72498203D01*
X146157556Y-72490833D01*
X146155584Y-72483152D01*
X146158089Y-72482509D01*
X146152759Y-72424396D01*
X146185526Y-72361414D01*
X146236516Y-72329179D01*
X146340107Y-72294619D01*
X146353286Y-72288445D01*
X146365697Y-72280765D01*
X146434149Y-72261927D01*
X146501919Y-72283088D01*
G37*
%TD.AperFunction*%
%TA.AperFunction,Conductor*%
G36*
X143114782Y-73140591D02*
G01*
X143147049Y-73163953D01*
X143251595Y-73268499D01*
X143285621Y-73330811D01*
X143288500Y-73357594D01*
X143288500Y-73666732D01*
X143288837Y-73669978D01*
X143288837Y-73669982D01*
X143289808Y-73679341D01*
X143299113Y-73769019D01*
X143301295Y-73775559D01*
X143344076Y-73903787D01*
X143353244Y-73931268D01*
X143357096Y-73937492D01*
X143357096Y-73937493D01*
X143428112Y-74052253D01*
X143443248Y-74076713D01*
X143448430Y-74081886D01*
X143452977Y-74087623D01*
X143451170Y-74089055D01*
X143479902Y-74141575D01*
X143474892Y-74212395D01*
X143451501Y-74248853D01*
X143452552Y-74249683D01*
X143439002Y-74266840D01*
X143356996Y-74399880D01*
X143350849Y-74413061D01*
X143301509Y-74561814D01*
X143298642Y-74575190D01*
X143289328Y-74666097D01*
X143289071Y-74671126D01*
X143293475Y-74686124D01*
X143294865Y-74687329D01*
X143302548Y-74689000D01*
X144400000Y-74689000D01*
X144468121Y-74709002D01*
X144514614Y-74762658D01*
X144526000Y-74815000D01*
X144526000Y-75882885D01*
X144530475Y-75898124D01*
X144531865Y-75899329D01*
X144539548Y-75901000D01*
X144567438Y-75901000D01*
X144573953Y-75900663D01*
X144666057Y-75891106D01*
X144679456Y-75888212D01*
X144742624Y-75867138D01*
X144813574Y-75864554D01*
X144874658Y-75900738D01*
X144906482Y-75964202D01*
X144908500Y-75986662D01*
X144908500Y-77396405D01*
X144888498Y-77464526D01*
X144871595Y-77485500D01*
X144371500Y-77985595D01*
X144309188Y-78019621D01*
X144282405Y-78022500D01*
X143973268Y-78022500D01*
X143970022Y-78022837D01*
X143970018Y-78022837D01*
X143938735Y-78026083D01*
X143870981Y-78033113D01*
X143841340Y-78043002D01*
X143715676Y-78084927D01*
X143715674Y-78084928D01*
X143708732Y-78087244D01*
X143702508Y-78091096D01*
X143695879Y-78094201D01*
X143694600Y-78091471D01*
X143641783Y-78106500D01*
X142906805Y-78106500D01*
X142838684Y-78086498D01*
X142801013Y-78048940D01*
X142712822Y-77912617D01*
X142712820Y-77912614D01*
X142710014Y-77908277D01*
X142559670Y-77743051D01*
X142555619Y-77739852D01*
X142555615Y-77739848D01*
X142388414Y-77607800D01*
X142388410Y-77607798D01*
X142384359Y-77604598D01*
X142343053Y-77581796D01*
X142293084Y-77531364D01*
X142278312Y-77461921D01*
X142303428Y-77395516D01*
X142330780Y-77368909D01*
X142380664Y-77333327D01*
X142509860Y-77241173D01*
X142668096Y-77083489D01*
X142798453Y-76902077D01*
X142826640Y-76845046D01*
X142895136Y-76706453D01*
X142895137Y-76706451D01*
X142897430Y-76701811D01*
X142951209Y-76524804D01*
X142960865Y-76493023D01*
X142960865Y-76493021D01*
X142962370Y-76488069D01*
X142991529Y-76266590D01*
X142991850Y-76253450D01*
X142993074Y-76203365D01*
X142993074Y-76203361D01*
X142993156Y-76200000D01*
X142974852Y-75977361D01*
X142920431Y-75760702D01*
X142831354Y-75555840D01*
X142728895Y-75397462D01*
X142712822Y-75372617D01*
X142712820Y-75372614D01*
X142710014Y-75368277D01*
X142569121Y-75213438D01*
X143289000Y-75213438D01*
X143289337Y-75219953D01*
X143298894Y-75312057D01*
X143301788Y-75325456D01*
X143351381Y-75474107D01*
X143357555Y-75487286D01*
X143439788Y-75620173D01*
X143448824Y-75631574D01*
X143559429Y-75741986D01*
X143570840Y-75750998D01*
X143703880Y-75833004D01*
X143717061Y-75839151D01*
X143865814Y-75888491D01*
X143879190Y-75891358D01*
X143970097Y-75900672D01*
X143976513Y-75901000D01*
X143999885Y-75901000D01*
X144015124Y-75896525D01*
X144016329Y-75895135D01*
X144018000Y-75887452D01*
X144018000Y-75215115D01*
X144013525Y-75199876D01*
X144012135Y-75198671D01*
X144004452Y-75197000D01*
X143307115Y-75197000D01*
X143291876Y-75201475D01*
X143290671Y-75202865D01*
X143289000Y-75210548D01*
X143289000Y-75213438D01*
X142569121Y-75213438D01*
X142559670Y-75203051D01*
X142555619Y-75199852D01*
X142555615Y-75199848D01*
X142388414Y-75067800D01*
X142388410Y-75067798D01*
X142384359Y-75064598D01*
X142342569Y-75041529D01*
X142292598Y-74991097D01*
X142277826Y-74921654D01*
X142302942Y-74855248D01*
X142330294Y-74828641D01*
X142505328Y-74703792D01*
X142513200Y-74697139D01*
X142664052Y-74546812D01*
X142670730Y-74538965D01*
X142795003Y-74366020D01*
X142800313Y-74357183D01*
X142894670Y-74166267D01*
X142898469Y-74156672D01*
X142960377Y-73952910D01*
X142962555Y-73942837D01*
X142963986Y-73931962D01*
X142961775Y-73917778D01*
X142948617Y-73914000D01*
X141502000Y-73914000D01*
X141433879Y-73893998D01*
X141387386Y-73840342D01*
X141376000Y-73788000D01*
X141376000Y-73532000D01*
X141396002Y-73463879D01*
X141449658Y-73417386D01*
X141502000Y-73406000D01*
X142948344Y-73406000D01*
X142961875Y-73402027D01*
X142963180Y-73392947D01*
X142935750Y-73283744D01*
X142938554Y-73212803D01*
X142979267Y-73154639D01*
X143044962Y-73127720D01*
X143114782Y-73140591D01*
G37*
%TD.AperFunction*%
%TA.AperFunction,Conductor*%
G36*
X146500121Y-64790002D02*
G01*
X146546614Y-64843658D01*
X146558000Y-64896000D01*
X146558000Y-70360220D01*
X146537998Y-70428341D01*
X146484342Y-70474834D01*
X146414068Y-70484938D01*
X146365883Y-70467479D01*
X146352122Y-70458997D01*
X146338939Y-70452849D01*
X146190186Y-70403509D01*
X146176810Y-70400642D01*
X146085903Y-70391328D01*
X146080874Y-70391071D01*
X146065876Y-70395475D01*
X146064671Y-70396865D01*
X146063000Y-70404548D01*
X146063000Y-71502000D01*
X146042998Y-71570121D01*
X145989342Y-71616614D01*
X145937000Y-71628000D01*
X145681000Y-71628000D01*
X145612879Y-71607998D01*
X145566386Y-71554342D01*
X145555000Y-71502000D01*
X145555000Y-70409115D01*
X145550525Y-70393876D01*
X145549135Y-70392671D01*
X145541452Y-70391000D01*
X145538562Y-70391000D01*
X145532047Y-70391337D01*
X145439943Y-70400894D01*
X145426544Y-70403788D01*
X145277893Y-70453381D01*
X145264714Y-70459555D01*
X145131827Y-70541788D01*
X145114689Y-70555371D01*
X145113159Y-70553441D01*
X145061120Y-70581903D01*
X144990301Y-70576887D01*
X144953382Y-70553201D01*
X144952627Y-70554156D01*
X144946881Y-70549618D01*
X144941702Y-70544448D01*
X144939330Y-70542986D01*
X144899345Y-70486588D01*
X144892500Y-70445624D01*
X144892500Y-68944000D01*
X144912502Y-68875879D01*
X144966158Y-68829386D01*
X145008408Y-68820195D01*
X145031124Y-68813525D01*
X145032329Y-68812135D01*
X145034000Y-68804452D01*
X145034000Y-68799884D01*
X145542000Y-68799884D01*
X145546475Y-68815123D01*
X145547865Y-68816328D01*
X145555548Y-68817999D01*
X145585095Y-68817999D01*
X145591614Y-68817662D01*
X145687206Y-68807743D01*
X145700600Y-68804851D01*
X145854784Y-68753412D01*
X145867962Y-68747239D01*
X146005807Y-68661937D01*
X146017208Y-68652901D01*
X146131739Y-68538171D01*
X146140751Y-68526760D01*
X146225816Y-68388757D01*
X146231963Y-68375576D01*
X146283138Y-68221290D01*
X146286005Y-68207914D01*
X146295672Y-68113562D01*
X146296000Y-68107146D01*
X146296000Y-67582115D01*
X146291525Y-67566876D01*
X146290135Y-67565671D01*
X146282452Y-67564000D01*
X145560115Y-67564000D01*
X145544876Y-67568475D01*
X145543671Y-67569865D01*
X145542000Y-67577548D01*
X145542000Y-68799884D01*
X145034000Y-68799884D01*
X145034000Y-67037885D01*
X145542000Y-67037885D01*
X145546475Y-67053124D01*
X145547865Y-67054329D01*
X145555548Y-67056000D01*
X146277884Y-67056000D01*
X146293123Y-67051525D01*
X146294328Y-67050135D01*
X146295999Y-67042452D01*
X146295999Y-66512905D01*
X146295662Y-66506386D01*
X146285743Y-66410794D01*
X146282851Y-66397400D01*
X146231412Y-66243216D01*
X146225239Y-66230038D01*
X146139937Y-66092193D01*
X146130901Y-66080792D01*
X146016171Y-65966261D01*
X146004760Y-65957249D01*
X145866757Y-65872184D01*
X145853576Y-65866037D01*
X145699290Y-65814862D01*
X145685914Y-65811995D01*
X145591562Y-65802328D01*
X145585145Y-65802000D01*
X145560115Y-65802000D01*
X145544876Y-65806475D01*
X145543671Y-65807865D01*
X145542000Y-65815548D01*
X145542000Y-67037885D01*
X145034000Y-67037885D01*
X145034000Y-65820116D01*
X145029525Y-65804877D01*
X145028135Y-65803672D01*
X145020452Y-65802001D01*
X144990905Y-65802001D01*
X144984386Y-65802338D01*
X144888794Y-65812257D01*
X144875400Y-65815149D01*
X144721216Y-65866588D01*
X144708038Y-65872761D01*
X144570193Y-65958063D01*
X144558792Y-65967099D01*
X144444261Y-66081829D01*
X144435251Y-66093238D01*
X144432479Y-66097735D01*
X144379708Y-66145230D01*
X144309637Y-66156655D01*
X144244512Y-66128383D01*
X144218074Y-66097926D01*
X144214334Y-66091883D01*
X144214332Y-66091880D01*
X144210478Y-66085652D01*
X144085303Y-65960695D01*
X144079072Y-65956854D01*
X143940968Y-65871725D01*
X143940966Y-65871724D01*
X143934738Y-65867885D01*
X143840772Y-65836718D01*
X143773389Y-65814368D01*
X143773387Y-65814368D01*
X143766861Y-65812203D01*
X143760025Y-65811503D01*
X143760022Y-65811502D01*
X143716969Y-65807091D01*
X143662400Y-65801500D01*
X143061600Y-65801500D01*
X143058354Y-65801837D01*
X143058350Y-65801837D01*
X142962692Y-65811762D01*
X142962688Y-65811763D01*
X142955834Y-65812474D01*
X142949300Y-65814654D01*
X142949295Y-65814655D01*
X142883165Y-65836718D01*
X142812215Y-65839302D01*
X142754194Y-65806289D01*
X142087652Y-65139747D01*
X142080112Y-65131461D01*
X142076000Y-65124982D01*
X142050034Y-65100598D01*
X142026349Y-65078357D01*
X142023507Y-65075602D01*
X142003770Y-65055865D01*
X142000573Y-65053385D01*
X141991551Y-65045680D01*
X141987397Y-65041779D01*
X141959321Y-65015414D01*
X141952375Y-65011595D01*
X141952372Y-65011593D01*
X141942950Y-65006413D01*
X141892893Y-64956067D01*
X141878001Y-64886649D01*
X141903004Y-64820201D01*
X141959962Y-64777818D01*
X142003654Y-64770000D01*
X146432000Y-64770000D01*
X146500121Y-64790002D01*
G37*
%TD.AperFunction*%
%TA.AperFunction,Conductor*%
G36*
X124800423Y-68961938D02*
G01*
X124841382Y-68989286D01*
X125444528Y-69592432D01*
X125478554Y-69654744D01*
X125473489Y-69725559D01*
X125430942Y-69782395D01*
X125399663Y-69799509D01*
X125318335Y-69829998D01*
X125293295Y-69839385D01*
X125176739Y-69926739D01*
X125163752Y-69944067D01*
X125106895Y-69986580D01*
X125062928Y-69994500D01*
X124795000Y-69994500D01*
X124726879Y-69974498D01*
X124680386Y-69920842D01*
X124669000Y-69868500D01*
X124669000Y-69868115D01*
X124664525Y-69852876D01*
X124663135Y-69851671D01*
X124655452Y-69850000D01*
X123583000Y-69850000D01*
X123514879Y-69829998D01*
X123468386Y-69776342D01*
X123457000Y-69724000D01*
X123457000Y-69468000D01*
X123477002Y-69399879D01*
X123530658Y-69353386D01*
X123583000Y-69342000D01*
X124650885Y-69342000D01*
X124666124Y-69337525D01*
X124667329Y-69336135D01*
X124669000Y-69328452D01*
X124669000Y-69300562D01*
X124668663Y-69294047D01*
X124659106Y-69201943D01*
X124656212Y-69188544D01*
X124632763Y-69118257D01*
X124630179Y-69047307D01*
X124666363Y-68986223D01*
X124729827Y-68954399D01*
X124800423Y-68961938D01*
G37*
%TD.AperFunction*%
%TD*%
M02*
