%TF.GenerationSoftware,KiCad,Pcbnew,6.0.2-378541a8eb~116~ubuntu20.04.1*%
%TF.CreationDate,2022-02-26T00:15:36+01:00*%
%TF.ProjectId,unfancyRemote,756e6661-6e63-4795-9265-6d6f74652e6b,rev?*%
%TF.SameCoordinates,Original*%
%TF.FileFunction,Soldermask,Top*%
%TF.FilePolarity,Negative*%
%FSLAX46Y46*%
G04 Gerber Fmt 4.6, Leading zero omitted, Abs format (unit mm)*
G04 Created by KiCad (PCBNEW 6.0.2-378541a8eb~116~ubuntu20.04.1) date 2022-02-26 00:15:36*
%MOMM*%
%LPD*%
G01*
G04 APERTURE LIST*
G04 Aperture macros list*
%AMRoundRect*
0 Rectangle with rounded corners*
0 $1 Rounding radius*
0 $2 $3 $4 $5 $6 $7 $8 $9 X,Y pos of 4 corners*
0 Add a 4 corners polygon primitive as box body*
4,1,4,$2,$3,$4,$5,$6,$7,$8,$9,$2,$3,0*
0 Add four circle primitives for the rounded corners*
1,1,$1+$1,$2,$3*
1,1,$1+$1,$4,$5*
1,1,$1+$1,$6,$7*
1,1,$1+$1,$8,$9*
0 Add four rect primitives between the rounded corners*
20,1,$1+$1,$2,$3,$4,$5,0*
20,1,$1+$1,$4,$5,$6,$7,0*
20,1,$1+$1,$6,$7,$8,$9,0*
20,1,$1+$1,$8,$9,$2,$3,0*%
G04 Aperture macros list end*
%ADD10RoundRect,0.100000X0.130000X0.100000X-0.130000X0.100000X-0.130000X-0.100000X0.130000X-0.100000X0*%
%ADD11RoundRect,0.100000X-0.100000X0.130000X-0.100000X-0.130000X0.100000X-0.130000X0.100000X0.130000X0*%
%ADD12RoundRect,0.100000X-0.130000X-0.100000X0.130000X-0.100000X0.130000X0.100000X-0.130000X0.100000X0*%
%ADD13RoundRect,0.243750X0.243750X0.456250X-0.243750X0.456250X-0.243750X-0.456250X0.243750X-0.456250X0*%
%ADD14R,1.700000X1.700000*%
%ADD15O,1.700000X1.700000*%
%ADD16R,0.800000X1.000000*%
%ADD17C,3.200000*%
%ADD18R,0.900000X1.200000*%
%ADD19RoundRect,0.250000X0.350000X0.625000X-0.350000X0.625000X-0.350000X-0.625000X0.350000X-0.625000X0*%
%ADD20O,1.200000X1.750000*%
%ADD21RoundRect,0.150000X0.150000X-0.587500X0.150000X0.587500X-0.150000X0.587500X-0.150000X-0.587500X0*%
%ADD22RoundRect,0.250000X-0.350000X-0.625000X0.350000X-0.625000X0.350000X0.625000X-0.350000X0.625000X0*%
%ADD23RoundRect,0.100000X0.100000X-0.130000X0.100000X0.130000X-0.100000X0.130000X-0.100000X-0.130000X0*%
%ADD24R,1.550000X1.300000*%
G04 APERTURE END LIST*
D10*
%TO.C,R1*%
X139385000Y-90805000D03*
X138745000Y-90805000D03*
%TD*%
D11*
%TO.C,C2*%
X143510000Y-66990000D03*
X143510000Y-67630000D03*
%TD*%
%TO.C,C5*%
X123190000Y-66990000D03*
X123190000Y-67630000D03*
%TD*%
D12*
%TO.C,R9*%
X120040000Y-87630000D03*
X120680000Y-87630000D03*
%TD*%
D13*
%TO.C,D3*%
X121587500Y-76835000D03*
X119712500Y-76835000D03*
%TD*%
D14*
%TO.C,J2*%
X124946250Y-72410000D03*
D15*
X124946250Y-74950000D03*
X124946250Y-77490000D03*
X124946250Y-80030000D03*
X124946250Y-82570000D03*
X124946250Y-85110000D03*
X124946250Y-87650000D03*
X124946250Y-90190000D03*
X124946250Y-92730000D03*
X124946250Y-95270000D03*
X124946250Y-97810000D03*
X124946250Y-100350000D03*
%TD*%
D10*
%TO.C,R3*%
X136671250Y-93980000D03*
X136031250Y-93980000D03*
%TD*%
D16*
%TO.C,U1*%
X132397500Y-104760000D03*
X131127500Y-104760000D03*
X129857500Y-104760000D03*
X128587500Y-104760000D03*
X127317500Y-104760000D03*
X126047500Y-104760000D03*
X124777500Y-104760000D03*
X124777500Y-118760000D03*
X126047500Y-118760000D03*
X127317500Y-118760000D03*
X128587500Y-118760000D03*
X129857500Y-118760000D03*
X131127500Y-118760000D03*
X132397500Y-118760000D03*
%TD*%
D12*
%TO.C,C4*%
X145410000Y-72390000D03*
X146050000Y-72390000D03*
%TD*%
D14*
%TO.C,J1*%
X142726250Y-72410000D03*
D15*
X142726250Y-74950000D03*
X142726250Y-77490000D03*
X142726250Y-80030000D03*
X142726250Y-82570000D03*
X142726250Y-85110000D03*
X142726250Y-87650000D03*
X142726250Y-90190000D03*
X142726250Y-92730000D03*
X142726250Y-95270000D03*
X142726250Y-97810000D03*
X142726250Y-100350000D03*
%TD*%
D17*
%TO.C, *%
X133350000Y-81280000D03*
%TD*%
D10*
%TO.C,R2*%
X136671250Y-91440000D03*
X136031250Y-91440000D03*
%TD*%
D11*
%TO.C,C1*%
X133350000Y-66990000D03*
X133350000Y-67630000D03*
%TD*%
D18*
%TO.C,D1*%
X130256250Y-93980000D03*
X133556250Y-93980000D03*
%TD*%
D12*
%TO.C,C3*%
X145730000Y-80010000D03*
X146370000Y-80010000D03*
%TD*%
D19*
%TO.C,J6*%
X143875000Y-117475000D03*
D20*
X141875000Y-117475000D03*
%TD*%
D12*
%TO.C,R5*%
X130316250Y-91440000D03*
X130956250Y-91440000D03*
%TD*%
D13*
%TO.C,D4*%
X121587500Y-83185000D03*
X119712500Y-83185000D03*
%TD*%
D12*
%TO.C,R10*%
X120330000Y-94615000D03*
X120970000Y-94615000D03*
%TD*%
D11*
%TO.C,C6*%
X147320000Y-117790000D03*
X147320000Y-118430000D03*
%TD*%
D21*
%TO.C,Q1*%
X135401250Y-89202500D03*
X137301250Y-89202500D03*
X136351250Y-87327500D03*
%TD*%
D22*
%TO.C,J3*%
X131350000Y-62950000D03*
D20*
X133350000Y-62950000D03*
X135350000Y-62950000D03*
%TD*%
D18*
%TO.C,D2*%
X130256250Y-97790000D03*
X133556250Y-97790000D03*
%TD*%
D13*
%TO.C,D6*%
X121587500Y-96520000D03*
X119712500Y-96520000D03*
%TD*%
D22*
%TO.C,J4*%
X141510000Y-62950000D03*
D20*
X143510000Y-62950000D03*
X145510000Y-62950000D03*
%TD*%
D21*
%TO.C,Q2*%
X130321250Y-89202500D03*
X132221250Y-89202500D03*
X131271250Y-87327500D03*
%TD*%
D12*
%TO.C,R7*%
X120330000Y-74930000D03*
X120970000Y-74930000D03*
%TD*%
D13*
%TO.C,D5*%
X121587500Y-89535000D03*
X119712500Y-89535000D03*
%TD*%
D23*
%TO.C,C7*%
X139065000Y-89220000D03*
X139065000Y-88580000D03*
%TD*%
D22*
%TO.C,J5*%
X121190000Y-62950000D03*
D20*
X123190000Y-62950000D03*
X125190000Y-62950000D03*
%TD*%
D12*
%TO.C,R8*%
X120330000Y-81280000D03*
X120970000Y-81280000D03*
%TD*%
D11*
%TO.C,R6*%
X128731250Y-95565000D03*
X128731250Y-96205000D03*
%TD*%
D24*
%TO.C,SW1*%
X138895000Y-107605000D03*
X146855000Y-107605000D03*
X138895000Y-112105000D03*
X146855000Y-112105000D03*
%TD*%
M02*
