%TF.GenerationSoftware,KiCad,Pcbnew,6.0.2-378541a8eb~116~ubuntu20.04.1*%
%TF.CreationDate,2022-02-26T00:15:36+01:00*%
%TF.ProjectId,unfancyRemote,756e6661-6e63-4795-9265-6d6f74652e6b,rev?*%
%TF.SameCoordinates,Original*%
%TF.FileFunction,Copper,L1,Top*%
%TF.FilePolarity,Positive*%
%FSLAX46Y46*%
G04 Gerber Fmt 4.6, Leading zero omitted, Abs format (unit mm)*
G04 Created by KiCad (PCBNEW 6.0.2-378541a8eb~116~ubuntu20.04.1) date 2022-02-26 00:15:36*
%MOMM*%
%LPD*%
G01*
G04 APERTURE LIST*
G04 Aperture macros list*
%AMRoundRect*
0 Rectangle with rounded corners*
0 $1 Rounding radius*
0 $2 $3 $4 $5 $6 $7 $8 $9 X,Y pos of 4 corners*
0 Add a 4 corners polygon primitive as box body*
4,1,4,$2,$3,$4,$5,$6,$7,$8,$9,$2,$3,0*
0 Add four circle primitives for the rounded corners*
1,1,$1+$1,$2,$3*
1,1,$1+$1,$4,$5*
1,1,$1+$1,$6,$7*
1,1,$1+$1,$8,$9*
0 Add four rect primitives between the rounded corners*
20,1,$1+$1,$2,$3,$4,$5,0*
20,1,$1+$1,$4,$5,$6,$7,0*
20,1,$1+$1,$6,$7,$8,$9,0*
20,1,$1+$1,$8,$9,$2,$3,0*%
G04 Aperture macros list end*
%TA.AperFunction,SMDPad,CuDef*%
%ADD10RoundRect,0.100000X0.130000X0.100000X-0.130000X0.100000X-0.130000X-0.100000X0.130000X-0.100000X0*%
%TD*%
%TA.AperFunction,SMDPad,CuDef*%
%ADD11RoundRect,0.100000X-0.100000X0.130000X-0.100000X-0.130000X0.100000X-0.130000X0.100000X0.130000X0*%
%TD*%
%TA.AperFunction,SMDPad,CuDef*%
%ADD12RoundRect,0.100000X-0.130000X-0.100000X0.130000X-0.100000X0.130000X0.100000X-0.130000X0.100000X0*%
%TD*%
%TA.AperFunction,SMDPad,CuDef*%
%ADD13RoundRect,0.243750X0.243750X0.456250X-0.243750X0.456250X-0.243750X-0.456250X0.243750X-0.456250X0*%
%TD*%
%TA.AperFunction,ComponentPad*%
%ADD14R,1.700000X1.700000*%
%TD*%
%TA.AperFunction,ComponentPad*%
%ADD15O,1.700000X1.700000*%
%TD*%
%TA.AperFunction,SMDPad,CuDef*%
%ADD16R,0.800000X1.000000*%
%TD*%
%TA.AperFunction,SMDPad,CuDef*%
%ADD17R,0.900000X1.200000*%
%TD*%
%TA.AperFunction,ComponentPad*%
%ADD18RoundRect,0.250000X0.350000X0.625000X-0.350000X0.625000X-0.350000X-0.625000X0.350000X-0.625000X0*%
%TD*%
%TA.AperFunction,ComponentPad*%
%ADD19O,1.200000X1.750000*%
%TD*%
%TA.AperFunction,SMDPad,CuDef*%
%ADD20RoundRect,0.150000X0.150000X-0.587500X0.150000X0.587500X-0.150000X0.587500X-0.150000X-0.587500X0*%
%TD*%
%TA.AperFunction,ComponentPad*%
%ADD21RoundRect,0.250000X-0.350000X-0.625000X0.350000X-0.625000X0.350000X0.625000X-0.350000X0.625000X0*%
%TD*%
%TA.AperFunction,SMDPad,CuDef*%
%ADD22RoundRect,0.100000X0.100000X-0.130000X0.100000X0.130000X-0.100000X0.130000X-0.100000X-0.130000X0*%
%TD*%
%TA.AperFunction,SMDPad,CuDef*%
%ADD23R,1.550000X1.300000*%
%TD*%
%TA.AperFunction,ViaPad*%
%ADD24C,0.800000*%
%TD*%
%TA.AperFunction,Conductor*%
%ADD25C,0.250000*%
%TD*%
G04 APERTURE END LIST*
D10*
%TO.P,R1,1*%
%TO.N,BSENSE*%
X139385000Y-90805000D03*
%TO.P,R1,2*%
%TO.N,GND*%
X138745000Y-90805000D03*
%TD*%
D11*
%TO.P,C2,1*%
%TO.N,+3V3*%
X143510000Y-66990000D03*
%TO.P,C2,2*%
%TO.N,GND*%
X143510000Y-67630000D03*
%TD*%
%TO.P,C5,1*%
%TO.N,+5V*%
X123190000Y-66990000D03*
%TO.P,C5,2*%
%TO.N,GND*%
X123190000Y-67630000D03*
%TD*%
D12*
%TO.P,R9,1*%
%TO.N,Net-(D5-Pad2)*%
X120040000Y-87630000D03*
%TO.P,R9,2*%
%TO.N,L3*%
X120680000Y-87630000D03*
%TD*%
D13*
%TO.P,D3,1,K*%
%TO.N,GND*%
X121587500Y-76835000D03*
%TO.P,D3,2,A*%
%TO.N,Net-(D3-Pad2)*%
X119712500Y-76835000D03*
%TD*%
D14*
%TO.P,J2,1,TX0*%
%TO.N,unconnected-(J2-Pad1)*%
X124946250Y-72410000D03*
D15*
%TO.P,J2,2,RX0*%
%TO.N,unconnected-(J2-Pad2)*%
X124946250Y-74950000D03*
%TO.P,J2,3,RST*%
%TO.N,unconnected-(J2-Pad3)*%
X124946250Y-77490000D03*
%TO.P,J2,4,GND*%
%TO.N,GND*%
X124946250Y-80030000D03*
%TO.P,J2,5,2*%
%TO.N,PPM*%
X124946250Y-82570000D03*
%TO.P,J2,6,3*%
%TO.N,L2*%
X124946250Y-85110000D03*
%TO.P,J2,7,4*%
%TO.N,L3*%
X124946250Y-87650000D03*
%TO.P,J2,8,5*%
%TO.N,L4*%
X124946250Y-90190000D03*
%TO.P,J2,9,6*%
%TO.N,/DIO1*%
X124946250Y-92730000D03*
%TO.P,J2,10,7*%
%TO.N,/NSS*%
X124946250Y-95270000D03*
%TO.P,J2,11,8*%
%TO.N,/NRESET*%
X124946250Y-97810000D03*
%TO.P,J2,12,9*%
%TO.N,/RFBUSY*%
X124946250Y-100350000D03*
%TD*%
D10*
%TO.P,R3,1*%
%TO.N,BSENSE*%
X136671250Y-93980000D03*
%TO.P,R3,2*%
%TO.N,Net-(D1-Pad2)*%
X136031250Y-93980000D03*
%TD*%
D16*
%TO.P,U1,1,VCC*%
%TO.N,+3V3*%
X132397500Y-104760000D03*
%TO.P,U1,2,GND*%
%TO.N,GND*%
X131127500Y-104760000D03*
%TO.P,U1,3,MISO_TX*%
%TO.N,/MISO*%
X129857500Y-104760000D03*
%TO.P,U1,4,MOSI_RX*%
%TO.N,/MOSI*%
X128587500Y-104760000D03*
%TO.P,U1,5,SCK_RTSN*%
%TO.N,/SCK*%
X127317500Y-104760000D03*
%TO.P,U1,6,NSS_CTS*%
%TO.N,/NSS*%
X126047500Y-104760000D03*
%TO.P,U1,7,GND*%
%TO.N,GND*%
X124777500Y-104760000D03*
%TO.P,U1,8,GND*%
X124777500Y-118760000D03*
%TO.P,U1,9,NRESET*%
%TO.N,/NRESET*%
X126047500Y-118760000D03*
%TO.P,U1,10,BUSY*%
%TO.N,/RFBUSY*%
X127317500Y-118760000D03*
%TO.P,U1,11,DIO1*%
%TO.N,/DIO1*%
X128587500Y-118760000D03*
%TO.P,U1,12,DIO2*%
%TO.N,unconnected-(U1-Pad12)*%
X129857500Y-118760000D03*
%TO.P,U1,13,DIO3*%
%TO.N,unconnected-(U1-Pad13)*%
X131127500Y-118760000D03*
%TO.P,U1,14,GND*%
%TO.N,GND*%
X132397500Y-118760000D03*
%TD*%
D12*
%TO.P,C4,1*%
%TO.N,+5V*%
X145410000Y-72390000D03*
%TO.P,C4,2*%
%TO.N,GND*%
X146050000Y-72390000D03*
%TD*%
D14*
%TO.P,J1,1,RAW*%
%TO.N,+5V*%
X142726250Y-72410000D03*
D15*
%TO.P,J1,2,GND*%
%TO.N,GND*%
X142726250Y-74950000D03*
%TO.P,J1,3,RST*%
%TO.N,unconnected-(J1-Pad3)*%
X142726250Y-77490000D03*
%TO.P,J1,4,VCC*%
%TO.N,+3V3*%
X142726250Y-80030000D03*
%TO.P,J1,5,A3*%
%TO.N,HALL2*%
X142726250Y-82570000D03*
%TO.P,J1,6,A2*%
%TO.N,HALL1*%
X142726250Y-85110000D03*
%TO.P,J1,7,A1*%
%TO.N,VBAT*%
X142726250Y-87650000D03*
%TO.P,J1,8,A0*%
%TO.N,BSENSE*%
X142726250Y-90190000D03*
%TO.P,J1,9,13*%
%TO.N,/SCK*%
X142726250Y-92730000D03*
%TO.P,J1,10,12*%
%TO.N,/MISO*%
X142726250Y-95270000D03*
%TO.P,J1,11,11*%
%TO.N,/MOSI*%
X142726250Y-97810000D03*
%TO.P,J1,12,10*%
%TO.N,ON*%
X142726250Y-100350000D03*
%TD*%
D10*
%TO.P,R2,1*%
%TO.N,VBAT*%
X136671250Y-91440000D03*
%TO.P,R2,2*%
%TO.N,Net-(Q1-Pad1)*%
X136031250Y-91440000D03*
%TD*%
D11*
%TO.P,C1,1*%
%TO.N,+3V3*%
X133350000Y-66990000D03*
%TO.P,C1,2*%
%TO.N,GND*%
X133350000Y-67630000D03*
%TD*%
D17*
%TO.P,D1,1,K*%
%TO.N,Net-(D1-Pad1)*%
X130256250Y-93980000D03*
%TO.P,D1,2,A*%
%TO.N,Net-(D1-Pad2)*%
X133556250Y-93980000D03*
%TD*%
D12*
%TO.P,C3,1*%
%TO.N,+3V3*%
X145730000Y-80010000D03*
%TO.P,C3,2*%
%TO.N,GND*%
X146370000Y-80010000D03*
%TD*%
D18*
%TO.P,J6,1,Pin_1*%
%TO.N,VBAT*%
X143875000Y-117475000D03*
D19*
%TO.P,J6,2,Pin_2*%
%TO.N,GND*%
X141875000Y-117475000D03*
%TD*%
D12*
%TO.P,R5,1*%
%TO.N,Net-(D1-Pad1)*%
X130316250Y-91440000D03*
%TO.P,R5,2*%
%TO.N,GND*%
X130956250Y-91440000D03*
%TD*%
D13*
%TO.P,D4,1,K*%
%TO.N,GND*%
X121587500Y-83185000D03*
%TO.P,D4,2,A*%
%TO.N,Net-(D4-Pad2)*%
X119712500Y-83185000D03*
%TD*%
D12*
%TO.P,R10,1*%
%TO.N,Net-(D6-Pad2)*%
X120330000Y-94615000D03*
%TO.P,R10,2*%
%TO.N,L4*%
X120970000Y-94615000D03*
%TD*%
D11*
%TO.P,C6,1*%
%TO.N,VBAT*%
X147320000Y-117790000D03*
%TO.P,C6,2*%
%TO.N,GND*%
X147320000Y-118430000D03*
%TD*%
D20*
%TO.P,Q1,1,G*%
%TO.N,Net-(Q1-Pad1)*%
X135401250Y-89202500D03*
%TO.P,Q1,2,S*%
%TO.N,VBAT*%
X137301250Y-89202500D03*
%TO.P,Q1,3,D*%
%TO.N,+5V*%
X136351250Y-87327500D03*
%TD*%
D21*
%TO.P,J3,1,Pin_1*%
%TO.N,HALL1*%
X131350000Y-62950000D03*
D19*
%TO.P,J3,2,Pin_2*%
%TO.N,+3V3*%
X133350000Y-62950000D03*
%TO.P,J3,3,Pin_3*%
%TO.N,GND*%
X135350000Y-62950000D03*
%TD*%
D17*
%TO.P,D2,1,K*%
%TO.N,Net-(D2-Pad1)*%
X130256250Y-97790000D03*
%TO.P,D2,2,A*%
%TO.N,ON*%
X133556250Y-97790000D03*
%TD*%
D13*
%TO.P,D6,1,K*%
%TO.N,GND*%
X121587500Y-96520000D03*
%TO.P,D6,2,A*%
%TO.N,Net-(D6-Pad2)*%
X119712500Y-96520000D03*
%TD*%
D21*
%TO.P,J4,1,Pin_1*%
%TO.N,HALL2*%
X141510000Y-62950000D03*
D19*
%TO.P,J4,2,Pin_2*%
%TO.N,+3V3*%
X143510000Y-62950000D03*
%TO.P,J4,3,Pin_3*%
%TO.N,GND*%
X145510000Y-62950000D03*
%TD*%
D20*
%TO.P,Q2,1,B*%
%TO.N,Net-(D1-Pad1)*%
X130321250Y-89202500D03*
%TO.P,Q2,2,E*%
%TO.N,GND*%
X132221250Y-89202500D03*
%TO.P,Q2,3,C*%
%TO.N,Net-(Q1-Pad1)*%
X131271250Y-87327500D03*
%TD*%
D12*
%TO.P,R7,1*%
%TO.N,Net-(D3-Pad2)*%
X120330000Y-74930000D03*
%TO.P,R7,2*%
%TO.N,PPM*%
X120970000Y-74930000D03*
%TD*%
D13*
%TO.P,D5,1,K*%
%TO.N,GND*%
X121587500Y-89535000D03*
%TO.P,D5,2,A*%
%TO.N,Net-(D5-Pad2)*%
X119712500Y-89535000D03*
%TD*%
D22*
%TO.P,C7,1*%
%TO.N,VBAT*%
X139065000Y-89220000D03*
%TO.P,C7,2*%
%TO.N,GND*%
X139065000Y-88580000D03*
%TD*%
D21*
%TO.P,J5,1,Pin_1*%
%TO.N,PPM*%
X121190000Y-62950000D03*
D19*
%TO.P,J5,2,Pin_2*%
%TO.N,+5V*%
X123190000Y-62950000D03*
%TO.P,J5,3,Pin_3*%
%TO.N,GND*%
X125190000Y-62950000D03*
%TD*%
D12*
%TO.P,R8,1*%
%TO.N,Net-(D4-Pad2)*%
X120330000Y-81280000D03*
%TO.P,R8,2*%
%TO.N,L2*%
X120970000Y-81280000D03*
%TD*%
D11*
%TO.P,R6,1*%
%TO.N,Net-(D1-Pad1)*%
X128731250Y-95565000D03*
%TO.P,R6,2*%
%TO.N,Net-(D2-Pad1)*%
X128731250Y-96205000D03*
%TD*%
D23*
%TO.P,SW1,1,1*%
%TO.N,BSENSE*%
X138895000Y-107605000D03*
X146855000Y-107605000D03*
%TO.P,SW1,2,2*%
%TO.N,VBAT*%
X138895000Y-112105000D03*
X146855000Y-112105000D03*
%TD*%
D24*
%TO.N,+5V*%
X138891250Y-85725000D03*
X140161250Y-78740000D03*
%TO.N,GND*%
X133350000Y-91440000D03*
X119380000Y-72390000D03*
X131445000Y-85090000D03*
X132080000Y-113030000D03*
X120650000Y-117475000D03*
X128270000Y-110490000D03*
X128905000Y-72390000D03*
X144145000Y-68580000D03*
X137160000Y-68580000D03*
X133985000Y-85090000D03*
X134620000Y-68580000D03*
X120650000Y-114935000D03*
X146685000Y-95885000D03*
X137160000Y-83820000D03*
X146685000Y-104140000D03*
X128905000Y-80645000D03*
X128270000Y-107950000D03*
X146685000Y-85090000D03*
X120650000Y-100965000D03*
X141605000Y-68580000D03*
X146685000Y-88265000D03*
X128905000Y-76835000D03*
X146685000Y-81915000D03*
X128905000Y-85090000D03*
X132080000Y-107950000D03*
X121285000Y-92075000D03*
X123825000Y-68580000D03*
X119380000Y-68580000D03*
X146685000Y-100330000D03*
X119380000Y-92075000D03*
X132080000Y-110490000D03*
X120650000Y-105410000D03*
X132080000Y-114935000D03*
X120650000Y-111760000D03*
X123190000Y-114935000D03*
X126365000Y-68580000D03*
X123190000Y-117475000D03*
X146685000Y-78740000D03*
X137160000Y-71120000D03*
X146685000Y-68580000D03*
X128270000Y-90805000D03*
X120650000Y-108585000D03*
X119380000Y-79375000D03*
X146685000Y-92075000D03*
X121285000Y-85725000D03*
X139065000Y-92075000D03*
X146685000Y-75565000D03*
X119380000Y-85725000D03*
%TO.N,+3V3*%
X140161250Y-103594500D03*
%TO.N,/NSS*%
X128731250Y-97790000D03*
%TO.N,ON*%
X136986250Y-100330000D03*
X135716250Y-97790000D03*
%TO.N,VBAT*%
X138891250Y-93345000D03*
X142240000Y-112395000D03*
%TO.N,BSENSE*%
X137795000Y-106045000D03*
X137795000Y-95250000D03*
%TD*%
D25*
%TO.N,+5V*%
X123190000Y-66990000D02*
X123190000Y-62950000D01*
X136351250Y-87327500D02*
X137288750Y-87327500D01*
X142726250Y-72410000D02*
X145390000Y-72410000D01*
X137288750Y-87327500D02*
X138891250Y-85725000D01*
X140796250Y-78105000D02*
X140796250Y-73660000D01*
X140796250Y-73660000D02*
X142046250Y-72410000D01*
X140161250Y-78740000D02*
X140796250Y-78105000D01*
X142046250Y-72410000D02*
X142726250Y-72410000D01*
X145390000Y-72410000D02*
X145410000Y-72390000D01*
%TO.N,+3V3*%
X132397500Y-104760000D02*
X138995750Y-104760000D01*
X143510000Y-66990000D02*
X143510000Y-62950000D01*
X138995750Y-104760000D02*
X140161250Y-103594500D01*
X142726250Y-80030000D02*
X145710000Y-80030000D01*
X133350000Y-66990000D02*
X133350000Y-62950000D01*
%TO.N,/MISO*%
X145241250Y-97785000D02*
X145241250Y-101600000D01*
X142726250Y-95270000D02*
X145241250Y-97785000D01*
X143971250Y-102870000D02*
X131468478Y-102870000D01*
X131468478Y-102870000D02*
X129857500Y-104480978D01*
X145241250Y-101600000D02*
X143971250Y-102870000D01*
X129857500Y-104480978D02*
X129857500Y-104760000D01*
%TO.N,/MOSI*%
X142726250Y-97810000D02*
X141876250Y-98660000D01*
X137560000Y-98660000D02*
X135890000Y-100330000D01*
X135890000Y-100330000D02*
X132715000Y-100330000D01*
X132715000Y-100330000D02*
X128587500Y-104457500D01*
X128587500Y-104457500D02*
X128587500Y-104760000D01*
X141876250Y-98660000D02*
X137560000Y-98660000D01*
%TO.N,Net-(D1-Pad1)*%
X128731250Y-95565000D02*
X128731250Y-95505000D01*
X130316250Y-91440000D02*
X130316250Y-89207500D01*
X128731250Y-95505000D02*
X130256250Y-93980000D01*
X130256250Y-91500000D02*
X130316250Y-91440000D01*
X130256250Y-93980000D02*
X130256250Y-91500000D01*
X130316250Y-89207500D02*
X130321250Y-89202500D01*
%TO.N,/NRESET*%
X126047500Y-114617500D02*
X126047500Y-118760000D01*
X122555000Y-111125000D02*
X126047500Y-114617500D01*
X124946250Y-97810000D02*
X122555000Y-100201250D01*
X122555000Y-100201250D02*
X122555000Y-111125000D01*
%TO.N,/DIO1*%
X124946250Y-92730000D02*
X126211250Y-92730000D01*
X127635000Y-101600000D02*
X125730000Y-103505000D01*
X126211250Y-92730000D02*
X127635000Y-94153750D01*
X124460000Y-103505000D02*
X123825000Y-104140000D01*
X127635000Y-94153750D02*
X127635000Y-101600000D01*
X125730000Y-103505000D02*
X124460000Y-103505000D01*
X123825000Y-109855000D02*
X128587500Y-114617500D01*
X123825000Y-104140000D02*
X123825000Y-109855000D01*
X128587500Y-114617500D02*
X128587500Y-118760000D01*
%TO.N,/RFBUSY*%
X127317500Y-118760000D02*
X127317500Y-114617500D01*
X127317500Y-114617500D02*
X123190000Y-110490000D01*
X123190000Y-102106250D02*
X124946250Y-100350000D01*
X123190000Y-110490000D02*
X123190000Y-102106250D01*
%TO.N,/SCK*%
X135255000Y-99695000D02*
X142220000Y-92730000D01*
X142220000Y-92730000D02*
X142726250Y-92730000D01*
X127317500Y-104760000D02*
X127317500Y-104660000D01*
X127317500Y-104660000D02*
X132282500Y-99695000D01*
X132282500Y-99695000D02*
X135255000Y-99695000D01*
X142069728Y-92730000D02*
X142726250Y-92730000D01*
%TO.N,/NSS*%
X128731250Y-101774468D02*
X126047500Y-104458218D01*
X126047500Y-104458218D02*
X126047500Y-104760000D01*
X128731250Y-97790000D02*
X128731250Y-101774468D01*
%TO.N,HALL2*%
X139065000Y-65395000D02*
X141510000Y-62950000D01*
X142726250Y-82570000D02*
X139065000Y-78908750D01*
X139065000Y-78908750D02*
X139065000Y-65395000D01*
%TO.N,HALL1*%
X131350000Y-73733750D02*
X131350000Y-62950000D01*
X142726250Y-85110000D02*
X131350000Y-73733750D01*
%TO.N,PPM*%
X124291250Y-81915000D02*
X124946250Y-82570000D01*
X121920000Y-74930000D02*
X122555000Y-75565000D01*
X120970000Y-74930000D02*
X121920000Y-74930000D01*
X122555000Y-80645000D02*
X123825000Y-81915000D01*
X120970000Y-74930000D02*
X121190000Y-74710000D01*
X123825000Y-81915000D02*
X124291250Y-81915000D01*
X121190000Y-74710000D02*
X121190000Y-62950000D01*
X122555000Y-75565000D02*
X122555000Y-80645000D01*
%TO.N,Net-(D1-Pad2)*%
X133556250Y-93980000D02*
X136031250Y-93980000D01*
%TO.N,Net-(D2-Pad1)*%
X130256250Y-97790000D02*
X130256250Y-97730000D01*
X130256250Y-97730000D02*
X128731250Y-96205000D01*
%TO.N,ON*%
X136986250Y-100965000D02*
X137621250Y-101600000D01*
X141476250Y-101600000D02*
X142726250Y-100350000D01*
X136986250Y-100330000D02*
X136986250Y-100965000D01*
X137621250Y-101600000D02*
X141476250Y-101600000D01*
X135716250Y-97790000D02*
X133556250Y-97790000D01*
%TO.N,Net-(Q1-Pad1)*%
X135401250Y-90810000D02*
X136031250Y-91440000D01*
X135401250Y-89202500D02*
X135401250Y-90810000D01*
X131271250Y-87327500D02*
X133526250Y-87327500D01*
X133526250Y-87327500D02*
X135401250Y-89202500D01*
%TO.N,VBAT*%
X138891250Y-93345000D02*
X138430000Y-93345000D01*
X136671250Y-91586250D02*
X136671250Y-91440000D01*
X142240000Y-112395000D02*
X142240000Y-113030000D01*
X143875000Y-117475000D02*
X144275480Y-117875480D01*
X139065000Y-89220000D02*
X137318750Y-89220000D01*
X136671250Y-89832500D02*
X137301250Y-89202500D01*
X144145000Y-117205000D02*
X143875000Y-117475000D01*
X141950000Y-112105000D02*
X138895000Y-112105000D01*
X142240000Y-112395000D02*
X141950000Y-112105000D01*
X144145000Y-114935000D02*
X144145000Y-117205000D01*
X137318750Y-89220000D02*
X137301250Y-89202500D01*
X141156250Y-89220000D02*
X142726250Y-87650000D01*
X139065000Y-89220000D02*
X141156250Y-89220000D01*
X138430000Y-93345000D02*
X136671250Y-91586250D01*
X136671250Y-91440000D02*
X136671250Y-89832500D01*
X142240000Y-112395000D02*
X142530000Y-112105000D01*
X142240000Y-113030000D02*
X144145000Y-114935000D01*
X142530000Y-112105000D02*
X146855000Y-112105000D01*
X147320000Y-117875480D02*
X147320000Y-117790000D01*
X144275480Y-117875480D02*
X147320000Y-117875480D01*
%TO.N,Net-(D4-Pad2)*%
X119380000Y-81915000D02*
X119380000Y-82852500D01*
X120015000Y-81280000D02*
X119380000Y-81915000D01*
X119380000Y-82852500D02*
X119712500Y-83185000D01*
X120330000Y-81280000D02*
X120015000Y-81280000D01*
%TO.N,Net-(D5-Pad2)*%
X120040000Y-87630000D02*
X120015000Y-87630000D01*
X119380000Y-88265000D02*
X119380000Y-89837500D01*
X120015000Y-87630000D02*
X119380000Y-88265000D01*
%TO.N,Net-(D6-Pad2)*%
X119712500Y-94917500D02*
X120015000Y-94615000D01*
X120015000Y-94615000D02*
X120330000Y-94615000D01*
X119712500Y-97155000D02*
X119712500Y-94917500D01*
%TO.N,L4*%
X124946250Y-90190000D02*
X120970000Y-94166250D01*
X120970000Y-94166250D02*
X120970000Y-94615000D01*
%TO.N,L3*%
X120700000Y-87650000D02*
X124946250Y-87650000D01*
X120680000Y-87630000D02*
X120700000Y-87650000D01*
%TO.N,L2*%
X120970000Y-81280000D02*
X121920000Y-81280000D01*
X121920000Y-81280000D02*
X123190000Y-82550000D01*
X123190000Y-83353750D02*
X124946250Y-85110000D01*
X123190000Y-82550000D02*
X123190000Y-83353750D01*
%TO.N,BSENSE*%
X140335000Y-92925864D02*
X140335000Y-90805000D01*
X136671250Y-93980000D02*
X136671250Y-94126250D01*
X137795000Y-106505000D02*
X138895000Y-107605000D01*
X138895000Y-107605000D02*
X146855000Y-107605000D01*
X140335000Y-90805000D02*
X140970000Y-90170000D01*
X138010864Y-95250000D02*
X140335000Y-92925864D01*
X142070533Y-90170000D02*
X142408392Y-90507859D01*
X140335000Y-90805000D02*
X139385000Y-90805000D01*
X140970000Y-90170000D02*
X142070533Y-90170000D01*
X136671250Y-94126250D02*
X137795000Y-95250000D01*
X137795000Y-95250000D02*
X138010864Y-95250000D01*
X137795000Y-106045000D02*
X137795000Y-106505000D01*
%TO.N,Net-(D3-Pad2)*%
X119712500Y-75232500D02*
X120015000Y-74930000D01*
X119712500Y-76835000D02*
X119712500Y-75232500D01*
X120015000Y-74930000D02*
X120330000Y-74930000D01*
%TD*%
%TA.AperFunction,Conductor*%
%TO.N,GND*%
G36*
X123504396Y-92631924D02*
G01*
X123561232Y-92674471D01*
X123586155Y-92742727D01*
X123589068Y-92793240D01*
X123596360Y-92919715D01*
X123597497Y-92924761D01*
X123597498Y-92924767D01*
X123617013Y-93011358D01*
X123645472Y-93137639D01*
X123705749Y-93286084D01*
X123726387Y-93336909D01*
X123729516Y-93344616D01*
X123846237Y-93535088D01*
X123992500Y-93703938D01*
X124164376Y-93846632D01*
X124214841Y-93876121D01*
X124237695Y-93889476D01*
X124286419Y-93941114D01*
X124299490Y-94010897D01*
X124272759Y-94076669D01*
X124232305Y-94110027D01*
X124224877Y-94113894D01*
X124219857Y-94116507D01*
X124215724Y-94119610D01*
X124215721Y-94119612D01*
X124045350Y-94247530D01*
X124041215Y-94250635D01*
X124037643Y-94254373D01*
X123945700Y-94350586D01*
X123886879Y-94412138D01*
X123883965Y-94416410D01*
X123883964Y-94416411D01*
X123871654Y-94434457D01*
X123760993Y-94596680D01*
X123718372Y-94688499D01*
X123680908Y-94769210D01*
X123666938Y-94799305D01*
X123607239Y-95014570D01*
X123583501Y-95236695D01*
X123583798Y-95241848D01*
X123583798Y-95241851D01*
X123594841Y-95433365D01*
X123596360Y-95459715D01*
X123597497Y-95464761D01*
X123597498Y-95464767D01*
X123617369Y-95552939D01*
X123645472Y-95677639D01*
X123729516Y-95884616D01*
X123748644Y-95915830D01*
X123827066Y-96043803D01*
X123846237Y-96075088D01*
X123992500Y-96243938D01*
X124164376Y-96386632D01*
X124234845Y-96427811D01*
X124237695Y-96429476D01*
X124286419Y-96481114D01*
X124299490Y-96550897D01*
X124272759Y-96616669D01*
X124232305Y-96650027D01*
X124219857Y-96656507D01*
X124215724Y-96659610D01*
X124215721Y-96659612D01*
X124055559Y-96779865D01*
X124041215Y-96790635D01*
X124037643Y-96794373D01*
X123895330Y-96943295D01*
X123886879Y-96952138D01*
X123883965Y-96956410D01*
X123883964Y-96956411D01*
X123838551Y-97022984D01*
X123760993Y-97136680D01*
X123745253Y-97170590D01*
X123677792Y-97315923D01*
X123666938Y-97339305D01*
X123607239Y-97554570D01*
X123583501Y-97776695D01*
X123583798Y-97781848D01*
X123583798Y-97781851D01*
X123589261Y-97876590D01*
X123596360Y-97999715D01*
X123597497Y-98004761D01*
X123597498Y-98004767D01*
X123629703Y-98147668D01*
X123625167Y-98218520D01*
X123595881Y-98264464D01*
X122162747Y-99697598D01*
X122154461Y-99705138D01*
X122147982Y-99709250D01*
X122142557Y-99715027D01*
X122101357Y-99758901D01*
X122098602Y-99761743D01*
X122078865Y-99781480D01*
X122076385Y-99784677D01*
X122068682Y-99793697D01*
X122038414Y-99825929D01*
X122034595Y-99832875D01*
X122034593Y-99832878D01*
X122028652Y-99843684D01*
X122017801Y-99860203D01*
X122005386Y-99876209D01*
X122002241Y-99883478D01*
X122002238Y-99883482D01*
X121987826Y-99916787D01*
X121982609Y-99927437D01*
X121961305Y-99966190D01*
X121959334Y-99973865D01*
X121959334Y-99973866D01*
X121956267Y-99985812D01*
X121949863Y-100004516D01*
X121941819Y-100023105D01*
X121940580Y-100030928D01*
X121940577Y-100030938D01*
X121934901Y-100066774D01*
X121932495Y-100078394D01*
X121921500Y-100121220D01*
X121921500Y-100141474D01*
X121919949Y-100161184D01*
X121916780Y-100181193D01*
X121917526Y-100189085D01*
X121920941Y-100225211D01*
X121921500Y-100237069D01*
X121921500Y-111046233D01*
X121920973Y-111057416D01*
X121919298Y-111064909D01*
X121919547Y-111072835D01*
X121919547Y-111072836D01*
X121921438Y-111132986D01*
X121921500Y-111136945D01*
X121921500Y-111164856D01*
X121921997Y-111168790D01*
X121921997Y-111168791D01*
X121922005Y-111168856D01*
X121922938Y-111180693D01*
X121924327Y-111224889D01*
X121929978Y-111244339D01*
X121933987Y-111263700D01*
X121936526Y-111283797D01*
X121939445Y-111291168D01*
X121939445Y-111291170D01*
X121952804Y-111324912D01*
X121956649Y-111336142D01*
X121968982Y-111378593D01*
X121973015Y-111385412D01*
X121973017Y-111385417D01*
X121979293Y-111396028D01*
X121987988Y-111413776D01*
X121995448Y-111432617D01*
X122000110Y-111439033D01*
X122000110Y-111439034D01*
X122021436Y-111468387D01*
X122027952Y-111478307D01*
X122050458Y-111516362D01*
X122064779Y-111530683D01*
X122077619Y-111545716D01*
X122089528Y-111562107D01*
X122095634Y-111567158D01*
X122123605Y-111590298D01*
X122132384Y-111598288D01*
X125377095Y-114843000D01*
X125411121Y-114905312D01*
X125414000Y-114932095D01*
X125414000Y-117632039D01*
X125393998Y-117700160D01*
X125340342Y-117746653D01*
X125274391Y-117757302D01*
X125228983Y-117752369D01*
X125222172Y-117752000D01*
X125049615Y-117752000D01*
X125034376Y-117756475D01*
X125033171Y-117757865D01*
X125031500Y-117765548D01*
X125031500Y-119749884D01*
X125035975Y-119765123D01*
X125037365Y-119766328D01*
X125045048Y-119767999D01*
X125222169Y-119767999D01*
X125228990Y-119767629D01*
X125279852Y-119762105D01*
X125295104Y-119758479D01*
X125367558Y-119731317D01*
X125438365Y-119726134D01*
X125456016Y-119731316D01*
X125537184Y-119761745D01*
X125599366Y-119768500D01*
X126495634Y-119768500D01*
X126557816Y-119761745D01*
X126638270Y-119731584D01*
X126709077Y-119726401D01*
X126726729Y-119731584D01*
X126807184Y-119761745D01*
X126869366Y-119768500D01*
X127765634Y-119768500D01*
X127827816Y-119761745D01*
X127908270Y-119731584D01*
X127979077Y-119726401D01*
X127996729Y-119731584D01*
X128077184Y-119761745D01*
X128139366Y-119768500D01*
X129035634Y-119768500D01*
X129097816Y-119761745D01*
X129178270Y-119731584D01*
X129249077Y-119726401D01*
X129266729Y-119731584D01*
X129347184Y-119761745D01*
X129409366Y-119768500D01*
X130305634Y-119768500D01*
X130367816Y-119761745D01*
X130448270Y-119731584D01*
X130519077Y-119726401D01*
X130536729Y-119731584D01*
X130617184Y-119761745D01*
X130679366Y-119768500D01*
X131575634Y-119768500D01*
X131637816Y-119761745D01*
X131718983Y-119731317D01*
X131789789Y-119726134D01*
X131807442Y-119731317D01*
X131879894Y-119758478D01*
X131895149Y-119762105D01*
X131946014Y-119767631D01*
X131952828Y-119768000D01*
X132125385Y-119768000D01*
X132140624Y-119763525D01*
X132141829Y-119762135D01*
X132143500Y-119754452D01*
X132143500Y-119749884D01*
X132651500Y-119749884D01*
X132655975Y-119765123D01*
X132657365Y-119766328D01*
X132665048Y-119767999D01*
X132842169Y-119767999D01*
X132848990Y-119767629D01*
X132899852Y-119762105D01*
X132915104Y-119758479D01*
X133035554Y-119713324D01*
X133051149Y-119704786D01*
X133153224Y-119628285D01*
X133165785Y-119615724D01*
X133242286Y-119513649D01*
X133250824Y-119498054D01*
X133295978Y-119377606D01*
X133299605Y-119362351D01*
X133305131Y-119311486D01*
X133305500Y-119304672D01*
X133305500Y-119032115D01*
X133301025Y-119016876D01*
X133299635Y-119015671D01*
X133291952Y-119014000D01*
X132669615Y-119014000D01*
X132654376Y-119018475D01*
X132653171Y-119019865D01*
X132651500Y-119027548D01*
X132651500Y-119749884D01*
X132143500Y-119749884D01*
X132143500Y-118487885D01*
X132651500Y-118487885D01*
X132655975Y-118503124D01*
X132657365Y-118504329D01*
X132665048Y-118506000D01*
X133287384Y-118506000D01*
X133302623Y-118501525D01*
X133303828Y-118500135D01*
X133305499Y-118492452D01*
X133305499Y-118215331D01*
X133305129Y-118208510D01*
X133299605Y-118157648D01*
X133295979Y-118142396D01*
X133250824Y-118021946D01*
X133242286Y-118006351D01*
X133165785Y-117904276D01*
X133153224Y-117891715D01*
X133051149Y-117815214D01*
X133035554Y-117806676D01*
X133017298Y-117799832D01*
X140767000Y-117799832D01*
X140767285Y-117805808D01*
X140781471Y-117954494D01*
X140783730Y-117966228D01*
X140839872Y-118157599D01*
X140844302Y-118168675D01*
X140935619Y-118345978D01*
X140942069Y-118356024D01*
X141065262Y-118512857D01*
X141073499Y-118521506D01*
X141224123Y-118652212D01*
X141233847Y-118659147D01*
X141406467Y-118759010D01*
X141417331Y-118763984D01*
X141605727Y-118829407D01*
X141606716Y-118829648D01*
X141617008Y-118828180D01*
X141621000Y-118814615D01*
X141621000Y-117747115D01*
X141616525Y-117731876D01*
X141615135Y-117730671D01*
X141607452Y-117729000D01*
X140785115Y-117729000D01*
X140769876Y-117733475D01*
X140768671Y-117734865D01*
X140767000Y-117742548D01*
X140767000Y-117799832D01*
X133017298Y-117799832D01*
X132915106Y-117761522D01*
X132899851Y-117757895D01*
X132848986Y-117752369D01*
X132842172Y-117752000D01*
X132669615Y-117752000D01*
X132654376Y-117756475D01*
X132653171Y-117757865D01*
X132651500Y-117765548D01*
X132651500Y-118487885D01*
X132143500Y-118487885D01*
X132143500Y-117770116D01*
X132139025Y-117754877D01*
X132137635Y-117753672D01*
X132129952Y-117752001D01*
X131952831Y-117752001D01*
X131946010Y-117752371D01*
X131895148Y-117757895D01*
X131879896Y-117761521D01*
X131807442Y-117788683D01*
X131736635Y-117793866D01*
X131718984Y-117788684D01*
X131637816Y-117758255D01*
X131575634Y-117751500D01*
X130679366Y-117751500D01*
X130617184Y-117758255D01*
X130585545Y-117770116D01*
X130536730Y-117788416D01*
X130465923Y-117793599D01*
X130448270Y-117788416D01*
X130399455Y-117770116D01*
X130367816Y-117758255D01*
X130305634Y-117751500D01*
X129409366Y-117751500D01*
X129360607Y-117756797D01*
X129290726Y-117744269D01*
X129238710Y-117695949D01*
X129221000Y-117631534D01*
X129221000Y-117202885D01*
X140767000Y-117202885D01*
X140771475Y-117218124D01*
X140772865Y-117219329D01*
X140780548Y-117221000D01*
X141602885Y-117221000D01*
X141618124Y-117216525D01*
X141619329Y-117215135D01*
X141621000Y-117207452D01*
X141621000Y-116139598D01*
X141617027Y-116126067D01*
X141607601Y-116124712D01*
X141518463Y-116146194D01*
X141507168Y-116150083D01*
X141325618Y-116232629D01*
X141315276Y-116238576D01*
X141152603Y-116353968D01*
X141143575Y-116361761D01*
X141005658Y-116505831D01*
X140998262Y-116515196D01*
X140890079Y-116682741D01*
X140884583Y-116693345D01*
X140810039Y-116878312D01*
X140806645Y-116889770D01*
X140768143Y-117086928D01*
X140767066Y-117095791D01*
X140767000Y-117098500D01*
X140767000Y-117202885D01*
X129221000Y-117202885D01*
X129221000Y-114696267D01*
X129221527Y-114685084D01*
X129223202Y-114677591D01*
X129221062Y-114609514D01*
X129221000Y-114605555D01*
X129221000Y-114577644D01*
X129220495Y-114573644D01*
X129219562Y-114561801D01*
X129218422Y-114525529D01*
X129218173Y-114517610D01*
X129212522Y-114498158D01*
X129208514Y-114478806D01*
X129206967Y-114466563D01*
X129205974Y-114458703D01*
X129203056Y-114451332D01*
X129189700Y-114417597D01*
X129185855Y-114406370D01*
X129185221Y-114404187D01*
X129173518Y-114363907D01*
X129163207Y-114346472D01*
X129154512Y-114328724D01*
X129147052Y-114309883D01*
X129121064Y-114274113D01*
X129114548Y-114264193D01*
X129096080Y-114232965D01*
X129096078Y-114232962D01*
X129092042Y-114226138D01*
X129077721Y-114211817D01*
X129064880Y-114196783D01*
X129057631Y-114186806D01*
X129052972Y-114180393D01*
X129018895Y-114152202D01*
X129010116Y-114144212D01*
X124495405Y-109629500D01*
X124461379Y-109567188D01*
X124458500Y-109540405D01*
X124458500Y-105876089D01*
X124478502Y-105807968D01*
X124496960Y-105791974D01*
X124496396Y-105791486D01*
X124521829Y-105762135D01*
X124523500Y-105754452D01*
X124523500Y-104632000D01*
X124543502Y-104563879D01*
X124597158Y-104517386D01*
X124649500Y-104506000D01*
X124905500Y-104506000D01*
X124973621Y-104526002D01*
X125020114Y-104579658D01*
X125031500Y-104632000D01*
X125031500Y-105749884D01*
X125035975Y-105765123D01*
X125037365Y-105766328D01*
X125045048Y-105767999D01*
X125222169Y-105767999D01*
X125228990Y-105767629D01*
X125279852Y-105762105D01*
X125295104Y-105758479D01*
X125367558Y-105731317D01*
X125438365Y-105726134D01*
X125456016Y-105731316D01*
X125537184Y-105761745D01*
X125599366Y-105768500D01*
X126495634Y-105768500D01*
X126557816Y-105761745D01*
X126638270Y-105731584D01*
X126709077Y-105726401D01*
X126726729Y-105731584D01*
X126807184Y-105761745D01*
X126869366Y-105768500D01*
X127765634Y-105768500D01*
X127827816Y-105761745D01*
X127908270Y-105731584D01*
X127979077Y-105726401D01*
X127996729Y-105731584D01*
X128077184Y-105761745D01*
X128139366Y-105768500D01*
X129035634Y-105768500D01*
X129097816Y-105761745D01*
X129178270Y-105731584D01*
X129249077Y-105726401D01*
X129266729Y-105731584D01*
X129347184Y-105761745D01*
X129409366Y-105768500D01*
X130305634Y-105768500D01*
X130367816Y-105761745D01*
X130448983Y-105731317D01*
X130519789Y-105726134D01*
X130537442Y-105731317D01*
X130609894Y-105758478D01*
X130625149Y-105762105D01*
X130676014Y-105767631D01*
X130682828Y-105768000D01*
X130855385Y-105768000D01*
X130870624Y-105763525D01*
X130871829Y-105762135D01*
X130873500Y-105754452D01*
X130873500Y-104632000D01*
X130893502Y-104563879D01*
X130947158Y-104517386D01*
X130999500Y-104506000D01*
X131255500Y-104506000D01*
X131323621Y-104526002D01*
X131370114Y-104579658D01*
X131381500Y-104632000D01*
X131381500Y-105749884D01*
X131385975Y-105765123D01*
X131387365Y-105766328D01*
X131395048Y-105767999D01*
X131572169Y-105767999D01*
X131578990Y-105767629D01*
X131629852Y-105762105D01*
X131645104Y-105758479D01*
X131717558Y-105731317D01*
X131788365Y-105726134D01*
X131806016Y-105731316D01*
X131887184Y-105761745D01*
X131949366Y-105768500D01*
X132845634Y-105768500D01*
X132907816Y-105761745D01*
X133044205Y-105710615D01*
X133160761Y-105623261D01*
X133248115Y-105506705D01*
X133251269Y-105498293D01*
X133259901Y-105475269D01*
X133302543Y-105418505D01*
X133369105Y-105393806D01*
X133377882Y-105393500D01*
X136903861Y-105393500D01*
X136971982Y-105413502D01*
X137018475Y-105467158D01*
X137028579Y-105537432D01*
X137012981Y-105582498D01*
X136960473Y-105673444D01*
X136901458Y-105855072D01*
X136881496Y-106045000D01*
X136901458Y-106234928D01*
X136960473Y-106416556D01*
X137055960Y-106581944D01*
X137060378Y-106586851D01*
X137060379Y-106586852D01*
X137163257Y-106701109D01*
X137182549Y-106722535D01*
X137182550Y-106722537D01*
X137183747Y-106723866D01*
X137183600Y-106723998D01*
X137208614Y-106758809D01*
X137208981Y-106758592D01*
X137211415Y-106762708D01*
X137211419Y-106762713D01*
X137213015Y-106765412D01*
X137213017Y-106765417D01*
X137219293Y-106776028D01*
X137227988Y-106793776D01*
X137235448Y-106812617D01*
X137240110Y-106819033D01*
X137240110Y-106819034D01*
X137261436Y-106848387D01*
X137267952Y-106858307D01*
X137290458Y-106896362D01*
X137304779Y-106910683D01*
X137317619Y-106925716D01*
X137329528Y-106942107D01*
X137335634Y-106947158D01*
X137363605Y-106970298D01*
X137372384Y-106978288D01*
X137574595Y-107180499D01*
X137608621Y-107242811D01*
X137611500Y-107269594D01*
X137611500Y-108303134D01*
X137618255Y-108365316D01*
X137669385Y-108501705D01*
X137756739Y-108618261D01*
X137873295Y-108705615D01*
X138009684Y-108756745D01*
X138071866Y-108763500D01*
X139718134Y-108763500D01*
X139780316Y-108756745D01*
X139916705Y-108705615D01*
X140033261Y-108618261D01*
X140120615Y-108501705D01*
X140171745Y-108365316D01*
X140173312Y-108350892D01*
X140200554Y-108285330D01*
X140258917Y-108244904D01*
X140298575Y-108238500D01*
X145451425Y-108238500D01*
X145519546Y-108258502D01*
X145566039Y-108312158D01*
X145576688Y-108350892D01*
X145578255Y-108365316D01*
X145629385Y-108501705D01*
X145716739Y-108618261D01*
X145833295Y-108705615D01*
X145969684Y-108756745D01*
X146031866Y-108763500D01*
X147678134Y-108763500D01*
X147740316Y-108756745D01*
X147876705Y-108705615D01*
X147883892Y-108700229D01*
X147891760Y-108695921D01*
X147892972Y-108698134D01*
X147946952Y-108677971D01*
X148016333Y-108693030D01*
X148066559Y-108743208D01*
X148082000Y-108803646D01*
X148082000Y-110906354D01*
X148061998Y-110974475D01*
X148008342Y-111020968D01*
X147938068Y-111031072D01*
X147892743Y-111012284D01*
X147891760Y-111014079D01*
X147883892Y-111009771D01*
X147876705Y-111004385D01*
X147740316Y-110953255D01*
X147678134Y-110946500D01*
X146031866Y-110946500D01*
X145969684Y-110953255D01*
X145833295Y-111004385D01*
X145716739Y-111091739D01*
X145629385Y-111208295D01*
X145578255Y-111344684D01*
X145577402Y-111352540D01*
X145576688Y-111359108D01*
X145549446Y-111424670D01*
X145491083Y-111465096D01*
X145451425Y-111471500D01*
X142608767Y-111471500D01*
X142597584Y-111470973D01*
X142590091Y-111469298D01*
X142582165Y-111469547D01*
X142582164Y-111469547D01*
X142522001Y-111471438D01*
X142518043Y-111471500D01*
X142490144Y-111471500D01*
X142486154Y-111472004D01*
X142474320Y-111472936D01*
X142430111Y-111474326D01*
X142422497Y-111476538D01*
X142422492Y-111476539D01*
X142410659Y-111479977D01*
X142391296Y-111483988D01*
X142371203Y-111486526D01*
X142371043Y-111485259D01*
X142340276Y-111487518D01*
X142335487Y-111486500D01*
X142144513Y-111486500D01*
X142138052Y-111487873D01*
X142133620Y-111488339D01*
X142100734Y-111487477D01*
X142084474Y-111484901D01*
X142072857Y-111482495D01*
X142037711Y-111473472D01*
X142037710Y-111473472D01*
X142030030Y-111471500D01*
X142009776Y-111471500D01*
X141990065Y-111469949D01*
X141977886Y-111468020D01*
X141970057Y-111466780D01*
X141940786Y-111469547D01*
X141926039Y-111470941D01*
X141914181Y-111471500D01*
X140298575Y-111471500D01*
X140230454Y-111451498D01*
X140183961Y-111397842D01*
X140173312Y-111359108D01*
X140172598Y-111352540D01*
X140171745Y-111344684D01*
X140120615Y-111208295D01*
X140033261Y-111091739D01*
X139916705Y-111004385D01*
X139780316Y-110953255D01*
X139718134Y-110946500D01*
X138071866Y-110946500D01*
X138009684Y-110953255D01*
X137873295Y-111004385D01*
X137756739Y-111091739D01*
X137669385Y-111208295D01*
X137618255Y-111344684D01*
X137611500Y-111406866D01*
X137611500Y-112803134D01*
X137618255Y-112865316D01*
X137669385Y-113001705D01*
X137756739Y-113118261D01*
X137873295Y-113205615D01*
X138009684Y-113256745D01*
X138071866Y-113263500D01*
X139718134Y-113263500D01*
X139780316Y-113256745D01*
X139916705Y-113205615D01*
X140033261Y-113118261D01*
X140120615Y-113001705D01*
X140171745Y-112865316D01*
X140173312Y-112850892D01*
X140200554Y-112785330D01*
X140258917Y-112744904D01*
X140298575Y-112738500D01*
X141316529Y-112738500D01*
X141384650Y-112758502D01*
X141425648Y-112801500D01*
X141500960Y-112931944D01*
X141575947Y-113015225D01*
X141606664Y-113079233D01*
X141608248Y-113095575D01*
X141609327Y-113129889D01*
X141614978Y-113149339D01*
X141618987Y-113168700D01*
X141621526Y-113188797D01*
X141624445Y-113196168D01*
X141624445Y-113196170D01*
X141637804Y-113229912D01*
X141641649Y-113241142D01*
X141651771Y-113275983D01*
X141653982Y-113283593D01*
X141658015Y-113290412D01*
X141658017Y-113290417D01*
X141664293Y-113301028D01*
X141672988Y-113318776D01*
X141680448Y-113337617D01*
X141685110Y-113344033D01*
X141685110Y-113344034D01*
X141706436Y-113373387D01*
X141712952Y-113383307D01*
X141735458Y-113421362D01*
X141749779Y-113435683D01*
X141762619Y-113450716D01*
X141774528Y-113467107D01*
X141780634Y-113472158D01*
X141808605Y-113495298D01*
X141817384Y-113503288D01*
X143474595Y-115160500D01*
X143508621Y-115222812D01*
X143511500Y-115249595D01*
X143511500Y-115974069D01*
X143491498Y-116042190D01*
X143437842Y-116088683D01*
X143398504Y-116099396D01*
X143388145Y-116100470D01*
X143375693Y-116101762D01*
X143375690Y-116101763D01*
X143368834Y-116102474D01*
X143362298Y-116104655D01*
X143362296Y-116104655D01*
X143298117Y-116126067D01*
X143201054Y-116158450D01*
X143050652Y-116251522D01*
X142925695Y-116376697D01*
X142921853Y-116382929D01*
X142921852Y-116382931D01*
X142893645Y-116428690D01*
X142840873Y-116476183D01*
X142770801Y-116487605D01*
X142705677Y-116459331D01*
X142687298Y-116440403D01*
X142684738Y-116437144D01*
X142676501Y-116428494D01*
X142525877Y-116297788D01*
X142516153Y-116290853D01*
X142343533Y-116190990D01*
X142332669Y-116186016D01*
X142144273Y-116120593D01*
X142143284Y-116120352D01*
X142132992Y-116121820D01*
X142129000Y-116135385D01*
X142129000Y-118810402D01*
X142132973Y-118823933D01*
X142142399Y-118825288D01*
X142231537Y-118803806D01*
X142242832Y-118799917D01*
X142424382Y-118717371D01*
X142434724Y-118711424D01*
X142597397Y-118596032D01*
X142606425Y-118588239D01*
X142693535Y-118497243D01*
X142755090Y-118461867D01*
X142826000Y-118465386D01*
X142883750Y-118506683D01*
X142891685Y-118518053D01*
X142926522Y-118574348D01*
X142931704Y-118579521D01*
X142970785Y-118618534D01*
X143051697Y-118699305D01*
X143057927Y-118703145D01*
X143057928Y-118703146D01*
X143195090Y-118787694D01*
X143202262Y-118792115D01*
X143257396Y-118810402D01*
X143363611Y-118845632D01*
X143363613Y-118845632D01*
X143370139Y-118847797D01*
X143376975Y-118848497D01*
X143376978Y-118848498D01*
X143420031Y-118852909D01*
X143474600Y-118858500D01*
X144275400Y-118858500D01*
X144278646Y-118858163D01*
X144278650Y-118858163D01*
X144374308Y-118848238D01*
X144374312Y-118848237D01*
X144381166Y-118847526D01*
X144387702Y-118845345D01*
X144387704Y-118845345D01*
X144523867Y-118799917D01*
X144548946Y-118791550D01*
X144699348Y-118698478D01*
X144824305Y-118573303D01*
X144828146Y-118567072D01*
X144832683Y-118561327D01*
X144834140Y-118562477D01*
X144879809Y-118521373D01*
X144934301Y-118508980D01*
X146489539Y-118508980D01*
X146557660Y-118528982D01*
X146604153Y-118582638D01*
X146614461Y-118618534D01*
X146626572Y-118710533D01*
X146630810Y-118726348D01*
X146685753Y-118858993D01*
X146693941Y-118873176D01*
X146781344Y-118987080D01*
X146792920Y-118998656D01*
X146906824Y-119086059D01*
X146921007Y-119094247D01*
X147053649Y-119149189D01*
X147069469Y-119153428D01*
X147102040Y-119157716D01*
X147116222Y-119155505D01*
X147120000Y-119142348D01*
X147120000Y-118654500D01*
X147140002Y-118586379D01*
X147193658Y-118539886D01*
X147245999Y-118528500D01*
X147319998Y-118528500D01*
X147394000Y-118528499D01*
X147462120Y-118548501D01*
X147508613Y-118602156D01*
X147520000Y-118654499D01*
X147520000Y-119141965D01*
X147524044Y-119155736D01*
X147537583Y-119157765D01*
X147570533Y-119153428D01*
X147586348Y-119149190D01*
X147718993Y-119094247D01*
X147733176Y-119086059D01*
X147847080Y-118998656D01*
X147864497Y-118981239D01*
X147866274Y-118983016D01*
X147913378Y-118948624D01*
X147984250Y-118944404D01*
X148046152Y-118979169D01*
X148079431Y-119041883D01*
X148082000Y-119067196D01*
X148082000Y-120016000D01*
X148061998Y-120084121D01*
X148008342Y-120130614D01*
X147956000Y-120142000D01*
X118744000Y-120142000D01*
X118675879Y-120121998D01*
X118629386Y-120068342D01*
X118618000Y-120016000D01*
X118618000Y-119304669D01*
X123869501Y-119304669D01*
X123869871Y-119311490D01*
X123875395Y-119362352D01*
X123879021Y-119377604D01*
X123924176Y-119498054D01*
X123932714Y-119513649D01*
X124009215Y-119615724D01*
X124021776Y-119628285D01*
X124123851Y-119704786D01*
X124139446Y-119713324D01*
X124259894Y-119758478D01*
X124275149Y-119762105D01*
X124326014Y-119767631D01*
X124332828Y-119768000D01*
X124505385Y-119768000D01*
X124520624Y-119763525D01*
X124521829Y-119762135D01*
X124523500Y-119754452D01*
X124523500Y-119032115D01*
X124519025Y-119016876D01*
X124517635Y-119015671D01*
X124509952Y-119014000D01*
X123887616Y-119014000D01*
X123872377Y-119018475D01*
X123871172Y-119019865D01*
X123869501Y-119027548D01*
X123869501Y-119304669D01*
X118618000Y-119304669D01*
X118618000Y-118487885D01*
X123869500Y-118487885D01*
X123873975Y-118503124D01*
X123875365Y-118504329D01*
X123883048Y-118506000D01*
X124505385Y-118506000D01*
X124520624Y-118501525D01*
X124521829Y-118500135D01*
X124523500Y-118492452D01*
X124523500Y-117770116D01*
X124519025Y-117754877D01*
X124517635Y-117753672D01*
X124509952Y-117752001D01*
X124332831Y-117752001D01*
X124326010Y-117752371D01*
X124275148Y-117757895D01*
X124259896Y-117761521D01*
X124139446Y-117806676D01*
X124123851Y-117815214D01*
X124021776Y-117891715D01*
X124009215Y-117904276D01*
X123932714Y-118006351D01*
X123924176Y-118021946D01*
X123879022Y-118142394D01*
X123875395Y-118157649D01*
X123869869Y-118208514D01*
X123869500Y-118215328D01*
X123869500Y-118487885D01*
X118618000Y-118487885D01*
X118618000Y-97474113D01*
X118638002Y-97405992D01*
X118691658Y-97359499D01*
X118761932Y-97349395D01*
X118826512Y-97378889D01*
X118851144Y-97407810D01*
X118875203Y-97446689D01*
X118999347Y-97570617D01*
X119005577Y-97574457D01*
X119005578Y-97574458D01*
X119022838Y-97585097D01*
X119148671Y-97662661D01*
X119155619Y-97664966D01*
X119155620Y-97664966D01*
X119308634Y-97715719D01*
X119308636Y-97715719D01*
X119315165Y-97717885D01*
X119418769Y-97728500D01*
X119421379Y-97728500D01*
X119468442Y-97740289D01*
X119515182Y-97762283D01*
X119672406Y-97792275D01*
X119760900Y-97786708D01*
X119824238Y-97782723D01*
X119824240Y-97782723D01*
X119832150Y-97782225D01*
X119839686Y-97779776D01*
X119839688Y-97779776D01*
X119980732Y-97733948D01*
X120006665Y-97728454D01*
X120036734Y-97725334D01*
X120111129Y-97717616D01*
X120117660Y-97715437D01*
X120117665Y-97715436D01*
X120270578Y-97664420D01*
X120277526Y-97662102D01*
X120426689Y-97569797D01*
X120550617Y-97445653D01*
X120552614Y-97442413D01*
X120609352Y-97402186D01*
X120680275Y-97398953D01*
X120741687Y-97434578D01*
X120749066Y-97443078D01*
X120755782Y-97451552D01*
X120869479Y-97565051D01*
X120880890Y-97574063D01*
X121017654Y-97658365D01*
X121030832Y-97664509D01*
X121183740Y-97715227D01*
X121197106Y-97718093D01*
X121290601Y-97727672D01*
X121297016Y-97728000D01*
X121315385Y-97728000D01*
X121330624Y-97723525D01*
X121331829Y-97722135D01*
X121333500Y-97714452D01*
X121333500Y-97709884D01*
X121841500Y-97709884D01*
X121845975Y-97725123D01*
X121847365Y-97726328D01*
X121855048Y-97727999D01*
X121877933Y-97727999D01*
X121884452Y-97727662D01*
X121979170Y-97717834D01*
X121992564Y-97714942D01*
X122145365Y-97663964D01*
X122158543Y-97657790D01*
X122295149Y-97573256D01*
X122306550Y-97564220D01*
X122420051Y-97450521D01*
X122429063Y-97439110D01*
X122513365Y-97302346D01*
X122519509Y-97289168D01*
X122570227Y-97136260D01*
X122573093Y-97122894D01*
X122582672Y-97029399D01*
X122583000Y-97022984D01*
X122583000Y-96792115D01*
X122578525Y-96776876D01*
X122577135Y-96775671D01*
X122569452Y-96774000D01*
X121859615Y-96774000D01*
X121844376Y-96778475D01*
X121843171Y-96779865D01*
X121841500Y-96787548D01*
X121841500Y-97709884D01*
X121333500Y-97709884D01*
X121333500Y-96247885D01*
X121841500Y-96247885D01*
X121845975Y-96263124D01*
X121847365Y-96264329D01*
X121855048Y-96266000D01*
X122564884Y-96266000D01*
X122580123Y-96261525D01*
X122581328Y-96260135D01*
X122582999Y-96252452D01*
X122582999Y-96017067D01*
X122582662Y-96010548D01*
X122572834Y-95915830D01*
X122569942Y-95902436D01*
X122518964Y-95749635D01*
X122512790Y-95736457D01*
X122428256Y-95599851D01*
X122419220Y-95588450D01*
X122305521Y-95474949D01*
X122294110Y-95465937D01*
X122157346Y-95381635D01*
X122144168Y-95375491D01*
X121991260Y-95324773D01*
X121977894Y-95321907D01*
X121884399Y-95312328D01*
X121877984Y-95312000D01*
X121859615Y-95312000D01*
X121844376Y-95316475D01*
X121843171Y-95317865D01*
X121841500Y-95325548D01*
X121841500Y-96247885D01*
X121333500Y-96247885D01*
X121333500Y-95360389D01*
X121353502Y-95292268D01*
X121396501Y-95251269D01*
X121399244Y-95249685D01*
X121406876Y-95246524D01*
X121533987Y-95148987D01*
X121539013Y-95142437D01*
X121539016Y-95142434D01*
X121587712Y-95078971D01*
X121631524Y-95021875D01*
X121692838Y-94873850D01*
X121708500Y-94754885D01*
X121708499Y-94475116D01*
X121698989Y-94402877D01*
X121709929Y-94332730D01*
X121734816Y-94297338D01*
X123371269Y-92660885D01*
X123433581Y-92626859D01*
X123504396Y-92631924D01*
G37*
%TD.AperFunction*%
%TA.AperFunction,Conductor*%
G36*
X148024121Y-60218002D02*
G01*
X148070614Y-60271658D01*
X148082000Y-60324000D01*
X148082000Y-106406354D01*
X148061998Y-106474475D01*
X148008342Y-106520968D01*
X147938068Y-106531072D01*
X147892743Y-106512284D01*
X147891760Y-106514079D01*
X147883892Y-106509771D01*
X147876705Y-106504385D01*
X147740316Y-106453255D01*
X147678134Y-106446500D01*
X146031866Y-106446500D01*
X145969684Y-106453255D01*
X145833295Y-106504385D01*
X145716739Y-106591739D01*
X145629385Y-106708295D01*
X145578255Y-106844684D01*
X145577402Y-106852540D01*
X145576688Y-106859108D01*
X145549446Y-106924670D01*
X145491083Y-106965096D01*
X145451425Y-106971500D01*
X140298575Y-106971500D01*
X140230454Y-106951498D01*
X140183961Y-106897842D01*
X140173312Y-106859108D01*
X140172598Y-106852540D01*
X140171745Y-106844684D01*
X140120615Y-106708295D01*
X140033261Y-106591739D01*
X139916705Y-106504385D01*
X139780316Y-106453255D01*
X139718134Y-106446500D01*
X138793222Y-106446500D01*
X138725101Y-106426498D01*
X138678608Y-106372842D01*
X138668504Y-106302568D01*
X138673389Y-106281564D01*
X138686502Y-106241206D01*
X138688542Y-106234928D01*
X138708504Y-106045000D01*
X138688542Y-105855072D01*
X138629527Y-105673444D01*
X138577020Y-105582499D01*
X138560282Y-105513505D01*
X138583502Y-105446413D01*
X138639309Y-105402526D01*
X138686139Y-105393500D01*
X138916983Y-105393500D01*
X138928166Y-105394027D01*
X138935659Y-105395702D01*
X138943585Y-105395453D01*
X138943586Y-105395453D01*
X139003736Y-105393562D01*
X139007695Y-105393500D01*
X139035606Y-105393500D01*
X139039541Y-105393003D01*
X139039606Y-105392995D01*
X139051443Y-105392062D01*
X139083701Y-105391048D01*
X139087720Y-105390922D01*
X139095639Y-105390673D01*
X139115093Y-105385021D01*
X139134450Y-105381013D01*
X139146680Y-105379468D01*
X139146681Y-105379468D01*
X139154547Y-105378474D01*
X139161918Y-105375555D01*
X139161920Y-105375555D01*
X139195662Y-105362196D01*
X139206892Y-105358351D01*
X139241733Y-105348229D01*
X139241734Y-105348229D01*
X139249343Y-105346018D01*
X139256162Y-105341985D01*
X139256167Y-105341983D01*
X139266778Y-105335707D01*
X139284526Y-105327012D01*
X139303367Y-105319552D01*
X139339137Y-105293564D01*
X139349057Y-105287048D01*
X139380285Y-105268580D01*
X139380288Y-105268578D01*
X139387112Y-105264542D01*
X139401433Y-105250221D01*
X139416467Y-105237380D01*
X139426444Y-105230131D01*
X139432857Y-105225472D01*
X139437907Y-105219368D01*
X139437912Y-105219363D01*
X139461043Y-105191402D01*
X139469033Y-105182621D01*
X140111751Y-104539904D01*
X140174063Y-104505879D01*
X140200846Y-104503000D01*
X140256737Y-104503000D01*
X140263189Y-104501628D01*
X140263194Y-104501628D01*
X140350138Y-104483147D01*
X140443538Y-104463294D01*
X140580300Y-104402404D01*
X140611972Y-104388303D01*
X140611974Y-104388302D01*
X140618002Y-104385618D01*
X140772503Y-104273366D01*
X140900290Y-104131444D01*
X140963647Y-104021707D01*
X140992473Y-103971779D01*
X140992474Y-103971778D01*
X140995777Y-103966056D01*
X141054792Y-103784428D01*
X141055482Y-103777865D01*
X141072460Y-103616329D01*
X141099473Y-103550673D01*
X141157695Y-103510043D01*
X141197770Y-103503500D01*
X143892483Y-103503500D01*
X143903666Y-103504027D01*
X143911159Y-103505702D01*
X143919085Y-103505453D01*
X143919086Y-103505453D01*
X143979236Y-103503562D01*
X143983195Y-103503500D01*
X144011106Y-103503500D01*
X144015041Y-103503003D01*
X144015106Y-103502995D01*
X144026943Y-103502062D01*
X144059201Y-103501048D01*
X144063220Y-103500922D01*
X144071139Y-103500673D01*
X144090593Y-103495021D01*
X144109950Y-103491013D01*
X144122180Y-103489468D01*
X144122181Y-103489468D01*
X144130047Y-103488474D01*
X144137418Y-103485555D01*
X144137420Y-103485555D01*
X144171162Y-103472196D01*
X144182392Y-103468351D01*
X144217233Y-103458229D01*
X144217234Y-103458229D01*
X144224843Y-103456018D01*
X144231662Y-103451985D01*
X144231667Y-103451983D01*
X144242278Y-103445707D01*
X144260026Y-103437012D01*
X144278867Y-103429552D01*
X144314637Y-103403564D01*
X144324557Y-103397048D01*
X144355785Y-103378580D01*
X144355788Y-103378578D01*
X144362612Y-103374542D01*
X144376933Y-103360221D01*
X144391967Y-103347380D01*
X144401944Y-103340131D01*
X144408357Y-103335472D01*
X144436548Y-103301395D01*
X144444538Y-103292616D01*
X145633497Y-102103657D01*
X145641787Y-102096113D01*
X145648268Y-102092000D01*
X145694909Y-102042332D01*
X145697663Y-102039491D01*
X145717384Y-102019770D01*
X145719862Y-102016575D01*
X145727568Y-102007553D01*
X145752408Y-101981101D01*
X145757836Y-101975321D01*
X145767596Y-101957568D01*
X145778449Y-101941045D01*
X145786003Y-101931306D01*
X145790863Y-101925041D01*
X145808426Y-101884457D01*
X145813633Y-101873827D01*
X145834945Y-101835060D01*
X145836916Y-101827383D01*
X145836918Y-101827378D01*
X145839982Y-101815442D01*
X145846388Y-101796730D01*
X145851283Y-101785419D01*
X145854431Y-101778145D01*
X145855671Y-101770317D01*
X145855673Y-101770310D01*
X145861349Y-101734476D01*
X145863755Y-101722856D01*
X145872778Y-101687711D01*
X145872778Y-101687710D01*
X145874750Y-101680030D01*
X145874750Y-101659776D01*
X145876301Y-101640065D01*
X145878230Y-101627886D01*
X145879470Y-101620057D01*
X145875309Y-101576038D01*
X145874750Y-101564181D01*
X145874750Y-97863767D01*
X145875277Y-97852584D01*
X145876952Y-97845091D01*
X145875744Y-97806646D01*
X145874812Y-97777014D01*
X145874750Y-97773055D01*
X145874750Y-97745144D01*
X145874245Y-97741144D01*
X145873312Y-97729301D01*
X145873286Y-97728454D01*
X145871923Y-97685110D01*
X145866272Y-97665658D01*
X145862264Y-97646306D01*
X145860717Y-97634063D01*
X145859724Y-97626203D01*
X145856806Y-97618832D01*
X145843450Y-97585097D01*
X145839605Y-97573870D01*
X145835490Y-97559707D01*
X145827268Y-97531407D01*
X145816957Y-97513972D01*
X145808262Y-97496224D01*
X145800802Y-97477383D01*
X145774814Y-97441613D01*
X145768298Y-97431693D01*
X145749830Y-97400465D01*
X145749828Y-97400462D01*
X145745792Y-97393638D01*
X145731471Y-97379317D01*
X145718630Y-97364283D01*
X145715154Y-97359499D01*
X145706722Y-97347893D01*
X145672645Y-97319702D01*
X145663866Y-97311712D01*
X144077468Y-95725313D01*
X144043442Y-95663001D01*
X144046005Y-95599589D01*
X144047913Y-95593311D01*
X144058620Y-95558069D01*
X144087779Y-95336590D01*
X144088237Y-95317865D01*
X144089324Y-95273365D01*
X144089324Y-95273361D01*
X144089406Y-95270000D01*
X144071102Y-95047361D01*
X144016681Y-94830702D01*
X143927604Y-94625840D01*
X143862953Y-94525905D01*
X143809072Y-94442617D01*
X143809070Y-94442614D01*
X143806264Y-94438277D01*
X143655920Y-94273051D01*
X143651869Y-94269852D01*
X143651865Y-94269848D01*
X143484664Y-94137800D01*
X143484660Y-94137798D01*
X143480609Y-94134598D01*
X143439303Y-94111796D01*
X143389334Y-94061364D01*
X143374562Y-93991921D01*
X143399678Y-93925516D01*
X143427030Y-93898909D01*
X143473998Y-93865407D01*
X143606110Y-93771173D01*
X143620555Y-93756779D01*
X143760685Y-93617137D01*
X143764346Y-93613489D01*
X143769725Y-93606004D01*
X143891685Y-93436277D01*
X143894703Y-93432077D01*
X143933536Y-93353505D01*
X143991386Y-93236453D01*
X143991387Y-93236451D01*
X143993680Y-93231811D01*
X144058620Y-93018069D01*
X144087779Y-92796590D01*
X144087861Y-92793240D01*
X144089324Y-92733365D01*
X144089324Y-92733361D01*
X144089406Y-92730000D01*
X144071102Y-92507361D01*
X144016681Y-92290702D01*
X143927604Y-92085840D01*
X143862667Y-91985463D01*
X143809072Y-91902617D01*
X143809070Y-91902614D01*
X143806264Y-91898277D01*
X143655920Y-91733051D01*
X143651869Y-91729852D01*
X143651865Y-91729848D01*
X143484664Y-91597800D01*
X143484660Y-91597798D01*
X143480609Y-91594598D01*
X143439303Y-91571796D01*
X143389334Y-91521364D01*
X143374562Y-91451921D01*
X143399678Y-91385516D01*
X143427030Y-91358909D01*
X143470853Y-91327650D01*
X143606110Y-91231173D01*
X143619153Y-91218176D01*
X143718080Y-91119594D01*
X143764346Y-91073489D01*
X143768719Y-91067404D01*
X143891685Y-90896277D01*
X143894703Y-90892077D01*
X143937058Y-90806379D01*
X143991386Y-90696453D01*
X143991387Y-90696451D01*
X143993680Y-90691811D01*
X144058620Y-90478069D01*
X144087779Y-90256590D01*
X144088255Y-90237128D01*
X144089324Y-90193365D01*
X144089324Y-90193361D01*
X144089406Y-90190000D01*
X144071102Y-89967361D01*
X144016681Y-89750702D01*
X143927604Y-89545840D01*
X143869807Y-89456500D01*
X143809072Y-89362617D01*
X143809070Y-89362614D01*
X143806264Y-89358277D01*
X143655920Y-89193051D01*
X143651869Y-89189852D01*
X143651865Y-89189848D01*
X143484664Y-89057800D01*
X143484660Y-89057798D01*
X143480609Y-89054598D01*
X143439303Y-89031796D01*
X143389334Y-88981364D01*
X143374562Y-88911921D01*
X143399678Y-88845516D01*
X143427030Y-88818909D01*
X143470853Y-88787650D01*
X143606110Y-88691173D01*
X143764346Y-88533489D01*
X143775718Y-88517664D01*
X143891685Y-88356277D01*
X143894703Y-88352077D01*
X143898861Y-88343665D01*
X143991386Y-88156453D01*
X143991387Y-88156451D01*
X143993680Y-88151811D01*
X144051231Y-87962390D01*
X144057115Y-87943023D01*
X144057115Y-87943021D01*
X144058620Y-87938069D01*
X144087779Y-87716590D01*
X144089406Y-87650000D01*
X144071102Y-87427361D01*
X144016681Y-87210702D01*
X143927604Y-87005840D01*
X143868874Y-86915057D01*
X143809072Y-86822617D01*
X143809070Y-86822614D01*
X143806264Y-86818277D01*
X143655920Y-86653051D01*
X143651869Y-86649852D01*
X143651865Y-86649848D01*
X143484664Y-86517800D01*
X143484660Y-86517798D01*
X143480609Y-86514598D01*
X143439303Y-86491796D01*
X143389334Y-86441364D01*
X143374562Y-86371921D01*
X143399678Y-86305516D01*
X143427030Y-86278909D01*
X143470853Y-86247650D01*
X143606110Y-86151173D01*
X143764346Y-85993489D01*
X143820798Y-85914928D01*
X143891685Y-85816277D01*
X143894703Y-85812077D01*
X143929869Y-85740925D01*
X143991386Y-85616453D01*
X143991387Y-85616451D01*
X143993680Y-85611811D01*
X144058620Y-85398069D01*
X144087779Y-85176590D01*
X144089406Y-85110000D01*
X144071102Y-84887361D01*
X144016681Y-84670702D01*
X143927604Y-84465840D01*
X143880805Y-84393500D01*
X143809072Y-84282617D01*
X143809070Y-84282614D01*
X143806264Y-84278277D01*
X143655920Y-84113051D01*
X143651869Y-84109852D01*
X143651865Y-84109848D01*
X143484664Y-83977800D01*
X143484660Y-83977798D01*
X143480609Y-83974598D01*
X143439303Y-83951796D01*
X143389334Y-83901364D01*
X143374562Y-83831921D01*
X143399678Y-83765516D01*
X143427030Y-83738909D01*
X143493872Y-83691231D01*
X143606110Y-83611173D01*
X143609954Y-83607343D01*
X143760685Y-83457137D01*
X143764346Y-83453489D01*
X143894703Y-83272077D01*
X143924303Y-83212187D01*
X143991386Y-83076453D01*
X143991387Y-83076451D01*
X143993680Y-83071811D01*
X144044218Y-82905473D01*
X144057115Y-82863023D01*
X144057115Y-82863021D01*
X144058620Y-82858069D01*
X144087779Y-82636590D01*
X144089280Y-82575165D01*
X144089324Y-82573365D01*
X144089324Y-82573361D01*
X144089406Y-82570000D01*
X144071102Y-82347361D01*
X144016681Y-82130702D01*
X143927604Y-81925840D01*
X143806264Y-81738277D01*
X143655920Y-81573051D01*
X143651869Y-81569852D01*
X143651865Y-81569848D01*
X143484664Y-81437800D01*
X143484660Y-81437798D01*
X143480609Y-81434598D01*
X143439303Y-81411796D01*
X143389334Y-81361364D01*
X143374562Y-81291921D01*
X143399678Y-81225516D01*
X143427030Y-81198909D01*
X143536305Y-81120964D01*
X143606110Y-81071173D01*
X143764346Y-80913489D01*
X143804669Y-80857374D01*
X143891685Y-80736277D01*
X143894703Y-80732077D01*
X143896996Y-80727437D01*
X143898696Y-80724608D01*
X143950924Y-80676518D01*
X144006701Y-80663500D01*
X145321117Y-80663500D01*
X145369334Y-80673091D01*
X145441150Y-80702838D01*
X145449338Y-80703916D01*
X145556021Y-80717961D01*
X145560115Y-80718500D01*
X145729979Y-80718500D01*
X145899884Y-80718499D01*
X145903969Y-80717961D01*
X145903973Y-80717961D01*
X146010655Y-80703917D01*
X146010656Y-80703917D01*
X146018850Y-80702838D01*
X146021230Y-80701852D01*
X146083590Y-80701852D01*
X146089473Y-80703429D01*
X146152040Y-80711666D01*
X146166221Y-80709454D01*
X146174895Y-80679251D01*
X146176341Y-80679666D01*
X146190002Y-80633142D01*
X146219295Y-80601301D01*
X146287436Y-80549014D01*
X146287437Y-80549013D01*
X146293987Y-80543987D01*
X146299013Y-80537437D01*
X146299016Y-80537434D01*
X146344038Y-80478760D01*
X146401376Y-80436892D01*
X146472247Y-80432671D01*
X146534150Y-80467436D01*
X146567431Y-80530148D01*
X146570000Y-80555464D01*
X146570000Y-80695914D01*
X146574044Y-80709685D01*
X146587583Y-80711714D01*
X146650533Y-80703428D01*
X146666348Y-80699190D01*
X146798993Y-80644247D01*
X146813176Y-80636059D01*
X146927080Y-80548656D01*
X146938656Y-80537080D01*
X147026059Y-80423176D01*
X147034247Y-80408993D01*
X147089189Y-80276351D01*
X147093428Y-80260531D01*
X147097716Y-80227960D01*
X147095505Y-80213778D01*
X147082348Y-80210000D01*
X146594500Y-80210000D01*
X146526379Y-80189998D01*
X146479886Y-80136342D01*
X146468500Y-80084001D01*
X146468499Y-79936001D01*
X146488501Y-79867880D01*
X146542156Y-79821387D01*
X146594499Y-79810000D01*
X147081965Y-79810000D01*
X147095736Y-79805956D01*
X147097765Y-79792417D01*
X147093428Y-79759467D01*
X147089190Y-79743652D01*
X147034247Y-79611007D01*
X147026059Y-79596824D01*
X146938656Y-79482920D01*
X146927080Y-79471344D01*
X146813176Y-79383941D01*
X146798993Y-79375753D01*
X146666350Y-79320810D01*
X146650532Y-79316572D01*
X146587960Y-79308334D01*
X146573779Y-79310546D01*
X146570000Y-79323704D01*
X146570000Y-79464535D01*
X146549998Y-79532656D01*
X146496342Y-79579149D01*
X146426068Y-79589253D01*
X146361488Y-79559759D01*
X146344038Y-79541239D01*
X146299017Y-79482568D01*
X146293987Y-79476013D01*
X146287437Y-79470987D01*
X146287434Y-79470984D01*
X146219296Y-79418700D01*
X146177429Y-79361362D01*
X146172294Y-79331898D01*
X146165956Y-79310315D01*
X146152417Y-79308286D01*
X146089475Y-79316571D01*
X146083591Y-79318148D01*
X146021230Y-79318148D01*
X146018850Y-79317162D01*
X146010658Y-79316083D01*
X146010656Y-79316083D01*
X145903972Y-79302038D01*
X145903971Y-79302038D01*
X145899885Y-79301500D01*
X145730021Y-79301500D01*
X145560116Y-79301501D01*
X145556031Y-79302039D01*
X145556027Y-79302039D01*
X145449337Y-79316084D01*
X145449335Y-79316084D01*
X145441150Y-79317162D01*
X145356075Y-79352401D01*
X145300750Y-79375317D01*
X145300749Y-79375318D01*
X145293124Y-79378476D01*
X145290742Y-79380304D01*
X145230300Y-79396500D01*
X144003055Y-79396500D01*
X143934934Y-79376498D01*
X143897263Y-79338940D01*
X143809072Y-79202617D01*
X143809070Y-79202614D01*
X143806264Y-79198277D01*
X143655920Y-79033051D01*
X143651869Y-79029852D01*
X143651865Y-79029848D01*
X143484664Y-78897800D01*
X143484660Y-78897798D01*
X143480609Y-78894598D01*
X143439303Y-78871796D01*
X143389334Y-78821364D01*
X143374562Y-78751921D01*
X143399678Y-78685516D01*
X143427030Y-78658909D01*
X143470853Y-78627650D01*
X143606110Y-78531173D01*
X143612537Y-78524769D01*
X143760685Y-78377137D01*
X143764346Y-78373489D01*
X143823844Y-78290689D01*
X143891685Y-78196277D01*
X143894703Y-78192077D01*
X143924288Y-78132217D01*
X143991386Y-77996453D01*
X143991387Y-77996451D01*
X143993680Y-77991811D01*
X144058620Y-77778069D01*
X144087779Y-77556590D01*
X144089406Y-77490000D01*
X144071102Y-77267361D01*
X144016681Y-77050702D01*
X143927604Y-76845840D01*
X143888156Y-76784862D01*
X143809072Y-76662617D01*
X143809070Y-76662614D01*
X143806264Y-76658277D01*
X143655920Y-76493051D01*
X143651869Y-76489852D01*
X143651865Y-76489848D01*
X143484664Y-76357800D01*
X143484660Y-76357798D01*
X143480609Y-76354598D01*
X143438819Y-76331529D01*
X143388848Y-76281097D01*
X143374076Y-76211654D01*
X143399192Y-76145248D01*
X143426544Y-76118641D01*
X143601578Y-75993792D01*
X143609450Y-75987139D01*
X143760302Y-75836812D01*
X143766980Y-75828965D01*
X143891253Y-75656020D01*
X143896563Y-75647183D01*
X143990920Y-75456267D01*
X143994719Y-75446672D01*
X144056627Y-75242910D01*
X144058805Y-75232837D01*
X144060236Y-75221962D01*
X144058025Y-75207778D01*
X144044867Y-75204000D01*
X142598250Y-75204000D01*
X142530129Y-75183998D01*
X142483636Y-75130342D01*
X142472250Y-75078000D01*
X142472250Y-74822000D01*
X142492252Y-74753879D01*
X142545908Y-74707386D01*
X142598250Y-74696000D01*
X144044594Y-74696000D01*
X144058125Y-74692027D01*
X144059430Y-74682947D01*
X144017464Y-74515875D01*
X144014144Y-74506124D01*
X143929222Y-74310814D01*
X143924355Y-74301739D01*
X143808676Y-74122926D01*
X143802386Y-74114757D01*
X143658543Y-73956677D01*
X143627491Y-73892831D01*
X143635885Y-73822333D01*
X143681062Y-73767564D01*
X143707506Y-73753895D01*
X143814547Y-73713767D01*
X143822955Y-73710615D01*
X143939511Y-73623261D01*
X144026865Y-73506705D01*
X144077995Y-73370316D01*
X144084750Y-73308134D01*
X144084750Y-73169500D01*
X144104752Y-73101379D01*
X144158408Y-73054886D01*
X144210750Y-73043500D01*
X145001117Y-73043500D01*
X145049334Y-73053091D01*
X145121150Y-73082838D01*
X145129338Y-73083916D01*
X145236021Y-73097961D01*
X145240115Y-73098500D01*
X145409979Y-73098500D01*
X145579884Y-73098499D01*
X145583969Y-73097961D01*
X145583973Y-73097961D01*
X145690655Y-73083917D01*
X145690656Y-73083917D01*
X145698850Y-73082838D01*
X145701230Y-73081852D01*
X145763590Y-73081852D01*
X145769473Y-73083429D01*
X145832040Y-73091666D01*
X145846221Y-73089454D01*
X145854895Y-73059251D01*
X145856341Y-73059666D01*
X145870002Y-73013142D01*
X145899295Y-72981301D01*
X145967436Y-72929014D01*
X145967437Y-72929013D01*
X145973987Y-72923987D01*
X145979013Y-72917437D01*
X145979016Y-72917434D01*
X146024038Y-72858760D01*
X146081376Y-72816892D01*
X146152247Y-72812671D01*
X146214150Y-72847436D01*
X146247431Y-72910148D01*
X146250000Y-72935464D01*
X146250000Y-73075914D01*
X146254044Y-73089685D01*
X146267583Y-73091714D01*
X146330533Y-73083428D01*
X146346348Y-73079190D01*
X146478993Y-73024247D01*
X146493176Y-73016059D01*
X146607080Y-72928656D01*
X146618656Y-72917080D01*
X146706059Y-72803176D01*
X146714247Y-72788993D01*
X146769189Y-72656351D01*
X146773428Y-72640531D01*
X146777716Y-72607960D01*
X146775505Y-72593778D01*
X146762348Y-72590000D01*
X146274500Y-72590000D01*
X146206379Y-72569998D01*
X146159886Y-72516342D01*
X146148500Y-72464001D01*
X146148499Y-72316001D01*
X146168501Y-72247880D01*
X146222156Y-72201387D01*
X146274499Y-72190000D01*
X146761965Y-72190000D01*
X146775736Y-72185956D01*
X146777765Y-72172417D01*
X146773428Y-72139467D01*
X146769190Y-72123652D01*
X146714247Y-71991007D01*
X146706059Y-71976824D01*
X146618656Y-71862920D01*
X146607080Y-71851344D01*
X146493176Y-71763941D01*
X146478993Y-71755753D01*
X146346350Y-71700810D01*
X146330532Y-71696572D01*
X146267960Y-71688334D01*
X146253779Y-71690546D01*
X146250000Y-71703704D01*
X146250000Y-71844535D01*
X146229998Y-71912656D01*
X146176342Y-71959149D01*
X146106068Y-71969253D01*
X146041488Y-71939759D01*
X146024038Y-71921239D01*
X145979017Y-71862568D01*
X145973987Y-71856013D01*
X145967437Y-71850987D01*
X145967434Y-71850984D01*
X145899296Y-71798700D01*
X145857429Y-71741362D01*
X145852294Y-71711898D01*
X145845956Y-71690315D01*
X145832417Y-71688286D01*
X145769475Y-71696571D01*
X145763591Y-71698148D01*
X145701230Y-71698148D01*
X145698850Y-71697162D01*
X145690658Y-71696083D01*
X145690656Y-71696083D01*
X145583972Y-71682038D01*
X145583971Y-71682038D01*
X145579885Y-71681500D01*
X145410021Y-71681500D01*
X145240116Y-71681501D01*
X145236031Y-71682039D01*
X145236027Y-71682039D01*
X145129337Y-71696084D01*
X145129335Y-71696084D01*
X145121150Y-71697162D01*
X145028916Y-71735366D01*
X144980750Y-71755317D01*
X144980749Y-71755318D01*
X144973124Y-71758476D01*
X144970742Y-71760304D01*
X144910300Y-71776500D01*
X144210750Y-71776500D01*
X144142629Y-71756498D01*
X144096136Y-71702842D01*
X144084750Y-71650500D01*
X144084750Y-71511866D01*
X144077995Y-71449684D01*
X144026865Y-71313295D01*
X143939511Y-71196739D01*
X143822955Y-71109385D01*
X143686566Y-71058255D01*
X143624384Y-71051500D01*
X141828116Y-71051500D01*
X141765934Y-71058255D01*
X141629545Y-71109385D01*
X141512989Y-71196739D01*
X141425635Y-71313295D01*
X141374505Y-71449684D01*
X141367750Y-71511866D01*
X141367750Y-72140405D01*
X141347748Y-72208526D01*
X141330845Y-72229501D01*
X140403992Y-73156353D01*
X140395713Y-73163887D01*
X140389232Y-73168000D01*
X140342607Y-73217651D01*
X140339852Y-73220493D01*
X140320115Y-73240230D01*
X140317635Y-73243427D01*
X140309932Y-73252447D01*
X140279664Y-73284679D01*
X140275845Y-73291625D01*
X140275843Y-73291628D01*
X140269902Y-73302434D01*
X140259051Y-73318953D01*
X140246636Y-73334959D01*
X140243491Y-73342228D01*
X140243488Y-73342232D01*
X140229076Y-73375537D01*
X140223859Y-73386187D01*
X140202555Y-73424940D01*
X140200584Y-73432615D01*
X140200584Y-73432616D01*
X140197517Y-73444562D01*
X140191113Y-73463266D01*
X140183069Y-73481855D01*
X140181830Y-73489678D01*
X140181827Y-73489688D01*
X140176151Y-73525524D01*
X140173745Y-73537144D01*
X140162750Y-73579970D01*
X140162750Y-73600224D01*
X140161199Y-73619934D01*
X140158030Y-73639943D01*
X140158776Y-73647835D01*
X140162191Y-73683961D01*
X140162750Y-73695819D01*
X140162750Y-77708852D01*
X140142748Y-77776973D01*
X140089092Y-77823466D01*
X140062951Y-77832098D01*
X139878962Y-77871206D01*
X139872930Y-77873892D01*
X139866650Y-77875932D01*
X139866003Y-77873940D01*
X139805397Y-77882074D01*
X139741097Y-77851975D01*
X139703276Y-77791891D01*
X139698500Y-77757530D01*
X139698500Y-65709594D01*
X139718502Y-65641473D01*
X139735405Y-65620499D01*
X140988154Y-64367750D01*
X141050466Y-64333724D01*
X141090091Y-64331501D01*
X141109600Y-64333500D01*
X141910400Y-64333500D01*
X141913646Y-64333163D01*
X141913650Y-64333163D01*
X142009308Y-64323238D01*
X142009312Y-64323237D01*
X142016166Y-64322526D01*
X142022702Y-64320345D01*
X142022704Y-64320345D01*
X142176998Y-64268868D01*
X142183946Y-64266550D01*
X142334348Y-64173478D01*
X142459305Y-64048303D01*
X142491075Y-63996764D01*
X142543846Y-63949271D01*
X142613918Y-63937847D01*
X142679042Y-63966121D01*
X142697418Y-63985045D01*
X142703604Y-63992920D01*
X142833082Y-64105275D01*
X142871421Y-64165027D01*
X142876500Y-64200439D01*
X142876500Y-66532832D01*
X142866909Y-66581050D01*
X142817162Y-66701150D01*
X142801500Y-66820115D01*
X142801501Y-67159884D01*
X142817162Y-67278850D01*
X142818148Y-67281230D01*
X142818148Y-67343590D01*
X142816571Y-67349473D01*
X142808334Y-67412040D01*
X142810546Y-67426221D01*
X142840749Y-67434895D01*
X142840334Y-67436341D01*
X142886858Y-67450002D01*
X142918699Y-67479295D01*
X142970985Y-67547434D01*
X142976013Y-67553987D01*
X142982563Y-67559013D01*
X142982566Y-67559016D01*
X143041240Y-67604038D01*
X143083108Y-67661376D01*
X143087329Y-67732247D01*
X143052564Y-67794150D01*
X142989852Y-67827431D01*
X142964536Y-67830000D01*
X142824086Y-67830000D01*
X142810315Y-67834044D01*
X142808286Y-67847583D01*
X142816572Y-67910533D01*
X142820810Y-67926348D01*
X142875753Y-68058993D01*
X142883941Y-68073176D01*
X142971344Y-68187080D01*
X142982920Y-68198656D01*
X143096824Y-68286059D01*
X143111007Y-68294247D01*
X143243649Y-68349189D01*
X143259469Y-68353428D01*
X143292040Y-68357716D01*
X143306222Y-68355505D01*
X143310000Y-68342348D01*
X143310000Y-67854500D01*
X143330002Y-67786379D01*
X143383658Y-67739886D01*
X143435999Y-67728500D01*
X143509998Y-67728500D01*
X143584000Y-67728499D01*
X143652120Y-67748501D01*
X143698613Y-67802156D01*
X143710000Y-67854499D01*
X143710000Y-68341965D01*
X143714044Y-68355736D01*
X143727583Y-68357765D01*
X143760533Y-68353428D01*
X143776348Y-68349190D01*
X143908993Y-68294247D01*
X143923176Y-68286059D01*
X144037080Y-68198656D01*
X144048656Y-68187080D01*
X144136059Y-68073176D01*
X144144247Y-68058993D01*
X144199190Y-67926350D01*
X144203428Y-67910532D01*
X144211666Y-67847960D01*
X144209454Y-67833779D01*
X144196296Y-67830000D01*
X144055465Y-67830000D01*
X143987344Y-67809998D01*
X143940851Y-67756342D01*
X143930747Y-67686068D01*
X143960241Y-67621488D01*
X143978761Y-67604038D01*
X144037432Y-67559017D01*
X144037433Y-67559016D01*
X144043987Y-67553987D01*
X144049014Y-67547436D01*
X144049016Y-67547434D01*
X144101300Y-67479296D01*
X144158638Y-67437429D01*
X144188102Y-67432294D01*
X144209685Y-67425956D01*
X144211714Y-67412417D01*
X144203429Y-67349475D01*
X144201852Y-67343591D01*
X144201852Y-67281230D01*
X144202838Y-67278850D01*
X144218500Y-67159885D01*
X144218499Y-66820116D01*
X144202838Y-66701150D01*
X144153091Y-66581050D01*
X144143500Y-66532832D01*
X144143500Y-64199807D01*
X144163502Y-64131686D01*
X144196601Y-64097037D01*
X144232720Y-64071416D01*
X144232724Y-64071413D01*
X144237611Y-64067946D01*
X144383881Y-63915150D01*
X144387130Y-63910119D01*
X144387135Y-63910112D01*
X144405033Y-63882393D01*
X144458789Y-63836016D01*
X144529085Y-63826063D01*
X144593602Y-63855696D01*
X144609970Y-63872909D01*
X144700262Y-63987857D01*
X144708499Y-63996506D01*
X144859123Y-64127212D01*
X144868847Y-64134147D01*
X145041467Y-64234010D01*
X145052331Y-64238984D01*
X145240727Y-64304407D01*
X145241716Y-64304648D01*
X145252008Y-64303180D01*
X145256000Y-64289615D01*
X145256000Y-64285402D01*
X145764000Y-64285402D01*
X145767973Y-64298933D01*
X145777399Y-64300288D01*
X145866537Y-64278806D01*
X145877832Y-64274917D01*
X146059382Y-64192371D01*
X146069724Y-64186424D01*
X146232397Y-64071032D01*
X146241425Y-64063239D01*
X146379342Y-63919169D01*
X146386738Y-63909804D01*
X146494921Y-63742259D01*
X146500417Y-63731655D01*
X146574961Y-63546688D01*
X146578355Y-63535230D01*
X146616857Y-63338072D01*
X146617934Y-63329209D01*
X146618000Y-63326500D01*
X146618000Y-63222115D01*
X146613525Y-63206876D01*
X146612135Y-63205671D01*
X146604452Y-63204000D01*
X145782115Y-63204000D01*
X145766876Y-63208475D01*
X145765671Y-63209865D01*
X145764000Y-63217548D01*
X145764000Y-64285402D01*
X145256000Y-64285402D01*
X145256000Y-62677885D01*
X145764000Y-62677885D01*
X145768475Y-62693124D01*
X145769865Y-62694329D01*
X145777548Y-62696000D01*
X146599885Y-62696000D01*
X146615124Y-62691525D01*
X146616329Y-62690135D01*
X146618000Y-62682452D01*
X146618000Y-62625168D01*
X146617715Y-62619192D01*
X146603529Y-62470506D01*
X146601270Y-62458772D01*
X146545128Y-62267401D01*
X146540698Y-62256325D01*
X146449381Y-62079022D01*
X146442931Y-62068976D01*
X146319738Y-61912143D01*
X146311501Y-61903494D01*
X146160877Y-61772788D01*
X146151153Y-61765853D01*
X145978533Y-61665990D01*
X145967669Y-61661016D01*
X145779273Y-61595593D01*
X145778284Y-61595352D01*
X145767992Y-61596820D01*
X145764000Y-61610385D01*
X145764000Y-62677885D01*
X145256000Y-62677885D01*
X145256000Y-61614598D01*
X145252027Y-61601067D01*
X145242601Y-61599712D01*
X145153463Y-61621194D01*
X145142168Y-61625083D01*
X144960618Y-61707629D01*
X144950276Y-61713576D01*
X144787603Y-61828968D01*
X144778575Y-61836761D01*
X144640658Y-61980831D01*
X144633259Y-61990200D01*
X144615582Y-62017577D01*
X144561828Y-62063955D01*
X144491532Y-62073909D01*
X144427015Y-62044278D01*
X144410644Y-62027063D01*
X144403193Y-62017577D01*
X144316396Y-61907080D01*
X144311865Y-61903148D01*
X144311862Y-61903145D01*
X144161167Y-61772379D01*
X144156637Y-61768448D01*
X144151451Y-61765448D01*
X144151447Y-61765445D01*
X143978742Y-61665533D01*
X143973546Y-61662527D01*
X143773729Y-61593139D01*
X143767794Y-61592278D01*
X143767792Y-61592278D01*
X143570336Y-61563648D01*
X143570333Y-61563648D01*
X143564396Y-61562787D01*
X143353101Y-61572567D01*
X143240466Y-61599712D01*
X143153299Y-61620719D01*
X143153297Y-61620720D01*
X143147466Y-61622125D01*
X143142008Y-61624607D01*
X143142004Y-61624608D01*
X143050990Y-61665990D01*
X142954913Y-61709674D01*
X142782389Y-61832054D01*
X142778247Y-61836381D01*
X142778241Y-61836386D01*
X142691194Y-61927317D01*
X142629639Y-61962694D01*
X142558730Y-61959175D01*
X142500979Y-61917879D01*
X142493032Y-61906491D01*
X142458478Y-61850652D01*
X142333303Y-61725695D01*
X142327072Y-61721854D01*
X142188968Y-61636725D01*
X142188966Y-61636724D01*
X142182738Y-61632885D01*
X142074005Y-61596820D01*
X142021389Y-61579368D01*
X142021387Y-61579368D01*
X142014861Y-61577203D01*
X142008025Y-61576503D01*
X142008022Y-61576502D01*
X141964969Y-61572091D01*
X141910400Y-61566500D01*
X141109600Y-61566500D01*
X141106354Y-61566837D01*
X141106350Y-61566837D01*
X141010692Y-61576762D01*
X141010688Y-61576763D01*
X141003834Y-61577474D01*
X140997298Y-61579655D01*
X140997296Y-61579655D01*
X140933117Y-61601067D01*
X140836054Y-61633450D01*
X140685652Y-61726522D01*
X140560695Y-61851697D01*
X140556855Y-61857927D01*
X140556854Y-61857928D01*
X140519900Y-61917879D01*
X140467885Y-62002262D01*
X140412203Y-62170139D01*
X140401500Y-62274600D01*
X140401500Y-63110405D01*
X140381498Y-63178526D01*
X140364595Y-63199500D01*
X138672747Y-64891348D01*
X138664461Y-64898888D01*
X138657982Y-64903000D01*
X138652557Y-64908777D01*
X138611357Y-64952651D01*
X138608602Y-64955493D01*
X138588865Y-64975230D01*
X138586385Y-64978427D01*
X138578682Y-64987447D01*
X138548414Y-65019679D01*
X138544595Y-65026625D01*
X138544593Y-65026628D01*
X138538652Y-65037434D01*
X138527801Y-65053953D01*
X138515386Y-65069959D01*
X138512241Y-65077228D01*
X138512238Y-65077232D01*
X138497826Y-65110537D01*
X138492609Y-65121187D01*
X138471305Y-65159940D01*
X138469334Y-65167615D01*
X138469334Y-65167616D01*
X138466267Y-65179562D01*
X138459863Y-65198266D01*
X138451819Y-65216855D01*
X138450580Y-65224678D01*
X138450577Y-65224688D01*
X138444901Y-65260524D01*
X138442495Y-65272144D01*
X138431500Y-65314970D01*
X138431500Y-65335224D01*
X138429949Y-65354934D01*
X138426780Y-65374943D01*
X138427526Y-65382835D01*
X138430941Y-65418961D01*
X138431500Y-65430819D01*
X138431500Y-78829983D01*
X138430973Y-78841166D01*
X138429298Y-78848659D01*
X138429547Y-78856585D01*
X138429547Y-78856586D01*
X138431438Y-78916736D01*
X138431500Y-78920695D01*
X138431500Y-78948606D01*
X138431997Y-78952540D01*
X138431997Y-78952541D01*
X138432005Y-78952606D01*
X138432938Y-78964443D01*
X138434327Y-79008639D01*
X138439978Y-79028089D01*
X138443987Y-79047450D01*
X138446526Y-79067547D01*
X138449445Y-79074918D01*
X138449445Y-79074920D01*
X138462804Y-79108662D01*
X138466649Y-79119892D01*
X138478982Y-79162343D01*
X138483015Y-79169162D01*
X138483017Y-79169167D01*
X138489293Y-79179778D01*
X138497988Y-79197526D01*
X138505448Y-79216367D01*
X138510110Y-79222783D01*
X138510110Y-79222784D01*
X138531436Y-79252137D01*
X138537952Y-79262057D01*
X138543375Y-79271226D01*
X138560458Y-79300112D01*
X138574779Y-79314433D01*
X138587619Y-79329466D01*
X138599528Y-79345857D01*
X138618286Y-79361375D01*
X138633605Y-79374048D01*
X138642384Y-79382038D01*
X141376028Y-82115682D01*
X141410054Y-82177994D01*
X141408350Y-82238448D01*
X141387239Y-82314570D01*
X141386691Y-82319700D01*
X141386690Y-82319704D01*
X141383183Y-82352522D01*
X141363501Y-82536695D01*
X141363798Y-82541853D01*
X141363672Y-82547024D01*
X141362164Y-82546987D01*
X141347660Y-82609485D01*
X141296768Y-82658988D01*
X141227192Y-82673118D01*
X141161021Y-82647389D01*
X141148824Y-82636670D01*
X136671148Y-78158993D01*
X132020405Y-73508250D01*
X131986379Y-73445938D01*
X131983500Y-73419155D01*
X131983500Y-64361781D01*
X132003502Y-64293660D01*
X132043197Y-64254637D01*
X132168120Y-64177332D01*
X132174348Y-64173478D01*
X132299305Y-64048303D01*
X132331075Y-63996764D01*
X132383846Y-63949271D01*
X132453918Y-63937847D01*
X132519042Y-63966121D01*
X132537418Y-63985045D01*
X132543604Y-63992920D01*
X132673082Y-64105275D01*
X132711421Y-64165027D01*
X132716500Y-64200439D01*
X132716500Y-66532832D01*
X132706909Y-66581050D01*
X132657162Y-66701150D01*
X132641500Y-66820115D01*
X132641501Y-67159884D01*
X132657162Y-67278850D01*
X132658148Y-67281230D01*
X132658148Y-67343590D01*
X132656571Y-67349473D01*
X132648334Y-67412040D01*
X132650546Y-67426221D01*
X132680749Y-67434895D01*
X132680334Y-67436341D01*
X132726858Y-67450002D01*
X132758699Y-67479295D01*
X132810985Y-67547434D01*
X132816013Y-67553987D01*
X132822563Y-67559013D01*
X132822566Y-67559016D01*
X132881240Y-67604038D01*
X132923108Y-67661376D01*
X132927329Y-67732247D01*
X132892564Y-67794150D01*
X132829852Y-67827431D01*
X132804536Y-67830000D01*
X132664086Y-67830000D01*
X132650315Y-67834044D01*
X132648286Y-67847583D01*
X132656572Y-67910533D01*
X132660810Y-67926348D01*
X132715753Y-68058993D01*
X132723941Y-68073176D01*
X132811344Y-68187080D01*
X132822920Y-68198656D01*
X132936824Y-68286059D01*
X132951007Y-68294247D01*
X133083649Y-68349189D01*
X133099469Y-68353428D01*
X133132040Y-68357716D01*
X133146222Y-68355505D01*
X133150000Y-68342348D01*
X133150000Y-67854500D01*
X133170002Y-67786379D01*
X133223658Y-67739886D01*
X133275999Y-67728500D01*
X133349998Y-67728500D01*
X133424000Y-67728499D01*
X133492120Y-67748501D01*
X133538613Y-67802156D01*
X133550000Y-67854499D01*
X133550000Y-68341965D01*
X133554044Y-68355736D01*
X133567583Y-68357765D01*
X133600533Y-68353428D01*
X133616348Y-68349190D01*
X133748993Y-68294247D01*
X133763176Y-68286059D01*
X133877080Y-68198656D01*
X133888656Y-68187080D01*
X133976059Y-68073176D01*
X133984247Y-68058993D01*
X134039190Y-67926350D01*
X134043428Y-67910532D01*
X134051666Y-67847960D01*
X134049454Y-67833779D01*
X134036296Y-67830000D01*
X133895465Y-67830000D01*
X133827344Y-67809998D01*
X133780851Y-67756342D01*
X133770747Y-67686068D01*
X133800241Y-67621488D01*
X133818761Y-67604038D01*
X133877432Y-67559017D01*
X133877433Y-67559016D01*
X133883987Y-67553987D01*
X133889014Y-67547436D01*
X133889016Y-67547434D01*
X133941300Y-67479296D01*
X133998638Y-67437429D01*
X134028102Y-67432294D01*
X134049685Y-67425956D01*
X134051714Y-67412417D01*
X134043429Y-67349475D01*
X134041852Y-67343591D01*
X134041852Y-67281230D01*
X134042838Y-67278850D01*
X134058500Y-67159885D01*
X134058499Y-66820116D01*
X134042838Y-66701150D01*
X133993091Y-66581050D01*
X133983500Y-66532832D01*
X133983500Y-64199807D01*
X134003502Y-64131686D01*
X134036601Y-64097037D01*
X134072720Y-64071416D01*
X134072724Y-64071413D01*
X134077611Y-64067946D01*
X134223881Y-63915150D01*
X134227130Y-63910119D01*
X134227135Y-63910112D01*
X134245033Y-63882393D01*
X134298789Y-63836016D01*
X134369085Y-63826063D01*
X134433602Y-63855696D01*
X134449970Y-63872909D01*
X134540262Y-63987857D01*
X134548499Y-63996506D01*
X134699123Y-64127212D01*
X134708847Y-64134147D01*
X134881467Y-64234010D01*
X134892331Y-64238984D01*
X135080727Y-64304407D01*
X135081716Y-64304648D01*
X135092008Y-64303180D01*
X135096000Y-64289615D01*
X135096000Y-64285402D01*
X135604000Y-64285402D01*
X135607973Y-64298933D01*
X135617399Y-64300288D01*
X135706537Y-64278806D01*
X135717832Y-64274917D01*
X135899382Y-64192371D01*
X135909724Y-64186424D01*
X136072397Y-64071032D01*
X136081425Y-64063239D01*
X136219342Y-63919169D01*
X136226738Y-63909804D01*
X136334921Y-63742259D01*
X136340417Y-63731655D01*
X136414961Y-63546688D01*
X136418355Y-63535230D01*
X136456857Y-63338072D01*
X136457934Y-63329209D01*
X136458000Y-63326500D01*
X136458000Y-63222115D01*
X136453525Y-63206876D01*
X136452135Y-63205671D01*
X136444452Y-63204000D01*
X135622115Y-63204000D01*
X135606876Y-63208475D01*
X135605671Y-63209865D01*
X135604000Y-63217548D01*
X135604000Y-64285402D01*
X135096000Y-64285402D01*
X135096000Y-62677885D01*
X135604000Y-62677885D01*
X135608475Y-62693124D01*
X135609865Y-62694329D01*
X135617548Y-62696000D01*
X136439885Y-62696000D01*
X136455124Y-62691525D01*
X136456329Y-62690135D01*
X136458000Y-62682452D01*
X136458000Y-62625168D01*
X136457715Y-62619192D01*
X136443529Y-62470506D01*
X136441270Y-62458772D01*
X136385128Y-62267401D01*
X136380698Y-62256325D01*
X136289381Y-62079022D01*
X136282931Y-62068976D01*
X136159738Y-61912143D01*
X136151501Y-61903494D01*
X136000877Y-61772788D01*
X135991153Y-61765853D01*
X135818533Y-61665990D01*
X135807669Y-61661016D01*
X135619273Y-61595593D01*
X135618284Y-61595352D01*
X135607992Y-61596820D01*
X135604000Y-61610385D01*
X135604000Y-62677885D01*
X135096000Y-62677885D01*
X135096000Y-61614598D01*
X135092027Y-61601067D01*
X135082601Y-61599712D01*
X134993463Y-61621194D01*
X134982168Y-61625083D01*
X134800618Y-61707629D01*
X134790276Y-61713576D01*
X134627603Y-61828968D01*
X134618575Y-61836761D01*
X134480658Y-61980831D01*
X134473259Y-61990200D01*
X134455582Y-62017577D01*
X134401828Y-62063955D01*
X134331532Y-62073909D01*
X134267015Y-62044278D01*
X134250644Y-62027063D01*
X134243193Y-62017577D01*
X134156396Y-61907080D01*
X134151865Y-61903148D01*
X134151862Y-61903145D01*
X134001167Y-61772379D01*
X133996637Y-61768448D01*
X133991451Y-61765448D01*
X133991447Y-61765445D01*
X133818742Y-61665533D01*
X133813546Y-61662527D01*
X133613729Y-61593139D01*
X133607794Y-61592278D01*
X133607792Y-61592278D01*
X133410336Y-61563648D01*
X133410333Y-61563648D01*
X133404396Y-61562787D01*
X133193101Y-61572567D01*
X133080466Y-61599712D01*
X132993299Y-61620719D01*
X132993297Y-61620720D01*
X132987466Y-61622125D01*
X132982008Y-61624607D01*
X132982004Y-61624608D01*
X132890990Y-61665990D01*
X132794913Y-61709674D01*
X132622389Y-61832054D01*
X132618247Y-61836381D01*
X132618241Y-61836386D01*
X132531194Y-61927317D01*
X132469639Y-61962694D01*
X132398730Y-61959175D01*
X132340979Y-61917879D01*
X132333032Y-61906491D01*
X132298478Y-61850652D01*
X132173303Y-61725695D01*
X132167072Y-61721854D01*
X132028968Y-61636725D01*
X132028966Y-61636724D01*
X132022738Y-61632885D01*
X131914005Y-61596820D01*
X131861389Y-61579368D01*
X131861387Y-61579368D01*
X131854861Y-61577203D01*
X131848025Y-61576503D01*
X131848022Y-61576502D01*
X131804969Y-61572091D01*
X131750400Y-61566500D01*
X130949600Y-61566500D01*
X130946354Y-61566837D01*
X130946350Y-61566837D01*
X130850692Y-61576762D01*
X130850688Y-61576763D01*
X130843834Y-61577474D01*
X130837298Y-61579655D01*
X130837296Y-61579655D01*
X130773117Y-61601067D01*
X130676054Y-61633450D01*
X130525652Y-61726522D01*
X130400695Y-61851697D01*
X130396855Y-61857927D01*
X130396854Y-61857928D01*
X130359900Y-61917879D01*
X130307885Y-62002262D01*
X130252203Y-62170139D01*
X130241500Y-62274600D01*
X130241500Y-63625400D01*
X130252474Y-63731166D01*
X130308450Y-63898946D01*
X130401522Y-64049348D01*
X130526697Y-64174305D01*
X130532927Y-64178145D01*
X130532928Y-64178146D01*
X130656616Y-64254389D01*
X130704110Y-64307162D01*
X130716500Y-64361649D01*
X130716500Y-73654983D01*
X130715973Y-73666166D01*
X130714298Y-73673659D01*
X130714547Y-73681585D01*
X130714547Y-73681586D01*
X130716438Y-73741736D01*
X130716500Y-73745695D01*
X130716500Y-73773606D01*
X130716997Y-73777540D01*
X130716997Y-73777541D01*
X130717005Y-73777606D01*
X130717938Y-73789443D01*
X130719327Y-73833639D01*
X130724978Y-73853089D01*
X130728987Y-73872450D01*
X130731526Y-73892547D01*
X130734445Y-73899918D01*
X130734445Y-73899920D01*
X130747804Y-73933662D01*
X130751649Y-73944892D01*
X130755018Y-73956488D01*
X130763982Y-73987343D01*
X130768015Y-73994162D01*
X130768017Y-73994167D01*
X130774293Y-74004778D01*
X130782988Y-74022526D01*
X130790448Y-74041367D01*
X130795110Y-74047783D01*
X130795110Y-74047784D01*
X130816436Y-74077137D01*
X130822952Y-74087057D01*
X130841416Y-74118277D01*
X130845458Y-74125112D01*
X130859779Y-74139433D01*
X130872619Y-74154466D01*
X130884528Y-74170857D01*
X130890634Y-74175908D01*
X130918605Y-74199048D01*
X130927384Y-74207038D01*
X141376027Y-84655682D01*
X141410053Y-84717994D01*
X141408350Y-84778446D01*
X141387239Y-84854570D01*
X141363501Y-85076695D01*
X141363798Y-85081848D01*
X141363798Y-85081851D01*
X141376062Y-85294547D01*
X141376360Y-85299715D01*
X141377497Y-85304761D01*
X141377498Y-85304767D01*
X141389885Y-85359729D01*
X141425472Y-85517639D01*
X141509516Y-85724616D01*
X141626237Y-85915088D01*
X141772500Y-86083938D01*
X141944376Y-86226632D01*
X142013205Y-86266852D01*
X142017695Y-86269476D01*
X142066419Y-86321114D01*
X142079490Y-86390897D01*
X142052759Y-86456669D01*
X142012305Y-86490027D01*
X141999857Y-86496507D01*
X141995724Y-86499610D01*
X141995721Y-86499612D01*
X141834924Y-86620342D01*
X141821215Y-86630635D01*
X141764460Y-86690026D01*
X141680499Y-86777886D01*
X141666879Y-86792138D01*
X141540993Y-86976680D01*
X141446938Y-87179305D01*
X141387239Y-87394570D01*
X141363501Y-87616695D01*
X141363798Y-87621848D01*
X141363798Y-87621851D01*
X141372302Y-87769337D01*
X141376360Y-87839715D01*
X141377497Y-87844761D01*
X141377498Y-87844767D01*
X141409703Y-87987668D01*
X141405167Y-88058520D01*
X141375881Y-88104464D01*
X140930750Y-88549595D01*
X140868438Y-88583621D01*
X140841655Y-88586500D01*
X139898999Y-88586500D01*
X139830878Y-88566498D01*
X139784385Y-88512842D01*
X139772999Y-88460500D01*
X139772999Y-88414276D01*
X139772461Y-88406065D01*
X139758428Y-88299467D01*
X139754190Y-88283652D01*
X139699247Y-88151007D01*
X139691059Y-88136824D01*
X139603656Y-88022920D01*
X139592080Y-88011344D01*
X139478176Y-87923941D01*
X139463993Y-87915753D01*
X139331351Y-87860811D01*
X139315531Y-87856572D01*
X139282960Y-87852284D01*
X139268778Y-87854495D01*
X139265000Y-87867652D01*
X139265000Y-88355500D01*
X139244998Y-88423621D01*
X139191342Y-88470114D01*
X139139001Y-88481500D01*
X139065002Y-88481500D01*
X138991000Y-88481501D01*
X138922880Y-88461499D01*
X138876387Y-88407844D01*
X138865000Y-88355501D01*
X138865000Y-87868035D01*
X138860956Y-87854264D01*
X138847417Y-87852235D01*
X138814467Y-87856572D01*
X138798652Y-87860810D01*
X138666007Y-87915753D01*
X138651824Y-87923941D01*
X138537920Y-88011344D01*
X138526344Y-88022920D01*
X138438941Y-88136824D01*
X138430753Y-88151007D01*
X138375810Y-88283650D01*
X138371572Y-88299468D01*
X138357538Y-88406066D01*
X138357000Y-88414276D01*
X138357000Y-88460500D01*
X138336998Y-88528621D01*
X138283342Y-88575114D01*
X138231000Y-88586500D01*
X138223301Y-88586500D01*
X138155180Y-88566498D01*
X138108687Y-88512842D01*
X138102304Y-88495652D01*
X138062608Y-88359014D01*
X138062606Y-88359009D01*
X138060395Y-88351399D01*
X138029683Y-88299468D01*
X137979741Y-88215020D01*
X137979739Y-88215017D01*
X137975703Y-88208193D01*
X137858057Y-88090547D01*
X137851233Y-88086511D01*
X137851230Y-88086509D01*
X137724496Y-88011559D01*
X137676043Y-87959666D01*
X137663338Y-87889816D01*
X137690413Y-87824185D01*
X137714572Y-87801172D01*
X137719440Y-87797635D01*
X137719444Y-87797632D01*
X137725857Y-87792972D01*
X137754048Y-87758895D01*
X137762038Y-87750116D01*
X138841749Y-86670405D01*
X138904061Y-86636379D01*
X138930844Y-86633500D01*
X138986737Y-86633500D01*
X138993189Y-86632128D01*
X138993194Y-86632128D01*
X139080137Y-86613647D01*
X139173538Y-86593794D01*
X139179569Y-86591109D01*
X139341972Y-86518803D01*
X139341974Y-86518802D01*
X139348002Y-86516118D01*
X139370721Y-86499612D01*
X139445255Y-86445459D01*
X139502503Y-86403866D01*
X139524763Y-86379144D01*
X139625871Y-86266852D01*
X139625872Y-86266851D01*
X139630290Y-86261944D01*
X139703644Y-86134892D01*
X139722473Y-86102279D01*
X139722474Y-86102278D01*
X139725777Y-86096556D01*
X139784792Y-85914928D01*
X139804754Y-85725000D01*
X139802157Y-85700292D01*
X139785482Y-85541635D01*
X139785482Y-85541633D01*
X139784792Y-85535072D01*
X139725777Y-85353444D01*
X139694757Y-85299715D01*
X139633591Y-85193774D01*
X139630290Y-85188056D01*
X139525399Y-85071562D01*
X139506925Y-85051045D01*
X139506924Y-85051044D01*
X139502503Y-85046134D01*
X139348002Y-84933882D01*
X139341974Y-84931198D01*
X139341972Y-84931197D01*
X139179569Y-84858891D01*
X139179568Y-84858891D01*
X139173538Y-84856206D01*
X139080138Y-84836353D01*
X138993194Y-84817872D01*
X138993189Y-84817872D01*
X138986737Y-84816500D01*
X138795763Y-84816500D01*
X138789311Y-84817872D01*
X138789306Y-84817872D01*
X138702362Y-84836353D01*
X138608962Y-84856206D01*
X138602932Y-84858891D01*
X138602931Y-84858891D01*
X138440528Y-84931197D01*
X138440526Y-84931198D01*
X138434498Y-84933882D01*
X138279997Y-85046134D01*
X138275576Y-85051044D01*
X138275575Y-85051045D01*
X138257102Y-85071562D01*
X138152210Y-85188056D01*
X138148909Y-85193774D01*
X138087744Y-85299715D01*
X138056723Y-85353444D01*
X137997708Y-85535072D01*
X137997018Y-85541633D01*
X137997018Y-85541635D01*
X137980343Y-85700292D01*
X137953330Y-85765949D01*
X137944128Y-85776217D01*
X137274886Y-86445459D01*
X137212574Y-86479485D01*
X137141759Y-86474420D01*
X137084923Y-86431873D01*
X137077338Y-86420503D01*
X137029741Y-86340020D01*
X137029739Y-86340017D01*
X137025703Y-86333193D01*
X136908057Y-86215547D01*
X136901233Y-86211511D01*
X136901230Y-86211509D01*
X136771677Y-86134892D01*
X136771678Y-86134892D01*
X136764851Y-86130855D01*
X136757240Y-86128644D01*
X136757238Y-86128643D01*
X136705019Y-86113472D01*
X136605081Y-86084438D01*
X136598676Y-86083934D01*
X136598671Y-86083933D01*
X136570208Y-86081693D01*
X136570200Y-86081693D01*
X136567752Y-86081500D01*
X136134748Y-86081500D01*
X136132300Y-86081693D01*
X136132292Y-86081693D01*
X136103829Y-86083933D01*
X136103824Y-86083934D01*
X136097419Y-86084438D01*
X135997481Y-86113472D01*
X135945262Y-86128643D01*
X135945260Y-86128644D01*
X135937649Y-86130855D01*
X135930822Y-86134892D01*
X135930823Y-86134892D01*
X135801270Y-86211509D01*
X135801267Y-86211511D01*
X135794443Y-86215547D01*
X135676797Y-86333193D01*
X135672761Y-86340017D01*
X135672759Y-86340020D01*
X135625162Y-86420503D01*
X135592105Y-86476399D01*
X135589894Y-86484010D01*
X135589893Y-86484012D01*
X135586957Y-86494118D01*
X135545688Y-86636169D01*
X135545184Y-86642574D01*
X135545183Y-86642579D01*
X135542993Y-86670405D01*
X135542750Y-86673498D01*
X135542750Y-87830500D01*
X135522748Y-87898621D01*
X135469092Y-87945114D01*
X135416750Y-87956500D01*
X135184748Y-87956500D01*
X135182300Y-87956693D01*
X135182292Y-87956693D01*
X135153829Y-87958933D01*
X135153824Y-87958934D01*
X135147419Y-87959438D01*
X135141244Y-87961232D01*
X135134905Y-87962390D01*
X135134397Y-87959610D01*
X135075735Y-87959478D01*
X135022412Y-87927757D01*
X134029902Y-86935247D01*
X134022362Y-86926961D01*
X134018250Y-86920482D01*
X133968598Y-86873856D01*
X133965757Y-86871102D01*
X133946020Y-86851365D01*
X133942823Y-86848885D01*
X133933801Y-86841180D01*
X133907350Y-86816341D01*
X133901571Y-86810914D01*
X133894625Y-86807095D01*
X133894622Y-86807093D01*
X133883816Y-86801152D01*
X133867297Y-86790301D01*
X133864847Y-86788401D01*
X133851291Y-86777886D01*
X133844022Y-86774741D01*
X133844018Y-86774738D01*
X133810713Y-86760326D01*
X133800063Y-86755109D01*
X133761310Y-86733805D01*
X133741687Y-86728767D01*
X133722984Y-86722363D01*
X133711670Y-86717467D01*
X133711669Y-86717467D01*
X133704395Y-86714319D01*
X133696572Y-86713080D01*
X133696562Y-86713077D01*
X133660726Y-86707401D01*
X133649106Y-86704995D01*
X133613961Y-86695972D01*
X133613960Y-86695972D01*
X133606280Y-86694000D01*
X133586026Y-86694000D01*
X133566315Y-86692449D01*
X133554136Y-86690520D01*
X133546307Y-86689280D01*
X133538415Y-86690026D01*
X133502289Y-86693441D01*
X133490431Y-86694000D01*
X132188217Y-86694000D01*
X132120096Y-86673998D01*
X132073603Y-86620342D01*
X132067220Y-86603152D01*
X132032608Y-86484014D01*
X132032606Y-86484009D01*
X132030395Y-86476399D01*
X131997338Y-86420503D01*
X131949741Y-86340020D01*
X131949739Y-86340017D01*
X131945703Y-86333193D01*
X131828057Y-86215547D01*
X131821233Y-86211511D01*
X131821230Y-86211509D01*
X131691677Y-86134892D01*
X131691678Y-86134892D01*
X131684851Y-86130855D01*
X131677240Y-86128644D01*
X131677238Y-86128643D01*
X131625019Y-86113472D01*
X131525081Y-86084438D01*
X131518676Y-86083934D01*
X131518671Y-86083933D01*
X131490208Y-86081693D01*
X131490200Y-86081693D01*
X131487752Y-86081500D01*
X131054748Y-86081500D01*
X131052300Y-86081693D01*
X131052292Y-86081693D01*
X131023829Y-86083933D01*
X131023824Y-86083934D01*
X131017419Y-86084438D01*
X130917481Y-86113472D01*
X130865262Y-86128643D01*
X130865260Y-86128644D01*
X130857649Y-86130855D01*
X130850822Y-86134892D01*
X130850823Y-86134892D01*
X130721270Y-86211509D01*
X130721267Y-86211511D01*
X130714443Y-86215547D01*
X130596797Y-86333193D01*
X130592761Y-86340017D01*
X130592759Y-86340020D01*
X130545162Y-86420503D01*
X130512105Y-86476399D01*
X130509894Y-86484010D01*
X130509893Y-86484012D01*
X130506957Y-86494118D01*
X130465688Y-86636169D01*
X130465184Y-86642574D01*
X130465183Y-86642579D01*
X130462993Y-86670405D01*
X130462750Y-86673498D01*
X130462750Y-87830500D01*
X130442748Y-87898621D01*
X130389092Y-87945114D01*
X130336750Y-87956500D01*
X130104748Y-87956500D01*
X130102300Y-87956693D01*
X130102292Y-87956693D01*
X130073829Y-87958933D01*
X130073824Y-87958934D01*
X130067419Y-87959438D01*
X129976029Y-87985989D01*
X129915262Y-88003643D01*
X129915260Y-88003644D01*
X129907649Y-88005855D01*
X129900822Y-88009892D01*
X129900823Y-88009892D01*
X129771270Y-88086509D01*
X129771267Y-88086511D01*
X129764443Y-88090547D01*
X129646797Y-88208193D01*
X129642761Y-88215017D01*
X129642759Y-88215020D01*
X129592817Y-88299468D01*
X129562105Y-88351399D01*
X129559894Y-88359010D01*
X129559893Y-88359012D01*
X129550211Y-88392339D01*
X129515688Y-88511169D01*
X129515184Y-88517574D01*
X129515183Y-88517579D01*
X129513931Y-88533489D01*
X129512750Y-88548498D01*
X129512750Y-89856502D01*
X129512943Y-89858950D01*
X129512943Y-89858958D01*
X129515177Y-89887336D01*
X129515688Y-89893831D01*
X129527524Y-89934570D01*
X129559836Y-90045790D01*
X129562105Y-90053601D01*
X129646797Y-90196807D01*
X129652406Y-90202416D01*
X129656310Y-90207449D01*
X129682257Y-90273534D01*
X129682750Y-90284675D01*
X129682750Y-90953832D01*
X129663548Y-91019227D01*
X129663883Y-91019420D01*
X129663087Y-91020799D01*
X129662748Y-91021953D01*
X129660918Y-91024556D01*
X129659753Y-91026574D01*
X129654726Y-91033125D01*
X129651567Y-91040751D01*
X129651566Y-91040753D01*
X129602160Y-91160031D01*
X129593412Y-91181150D01*
X129577750Y-91300115D01*
X129577751Y-91579884D01*
X129578289Y-91583969D01*
X129578289Y-91583973D01*
X129585665Y-91640000D01*
X129593412Y-91698850D01*
X129609160Y-91736870D01*
X129613159Y-91746524D01*
X129622750Y-91794742D01*
X129622750Y-92821567D01*
X129602748Y-92889688D01*
X129560572Y-92929000D01*
X129559545Y-92929385D01*
X129442989Y-93016739D01*
X129355635Y-93133295D01*
X129304505Y-93269684D01*
X129297750Y-93331866D01*
X129297750Y-93990405D01*
X129277748Y-94058526D01*
X129260845Y-94079501D01*
X128872001Y-94468344D01*
X128529968Y-94810377D01*
X128475655Y-94841733D01*
X128472400Y-94842162D01*
X128464770Y-94845323D01*
X128464768Y-94845323D01*
X128442719Y-94854456D01*
X128372129Y-94862046D01*
X128308642Y-94830267D01*
X128272414Y-94769210D01*
X128268500Y-94738048D01*
X128268500Y-94232518D01*
X128269027Y-94221335D01*
X128270702Y-94213842D01*
X128268562Y-94145751D01*
X128268500Y-94141794D01*
X128268500Y-94113894D01*
X128267996Y-94109903D01*
X128267063Y-94098061D01*
X128266746Y-94087953D01*
X128265674Y-94053861D01*
X128263461Y-94046243D01*
X128260021Y-94034402D01*
X128256012Y-94015043D01*
X128255488Y-94010897D01*
X128253474Y-93994953D01*
X128250558Y-93987587D01*
X128250556Y-93987581D01*
X128237200Y-93953848D01*
X128233355Y-93942618D01*
X128223230Y-93907767D01*
X128223230Y-93907766D01*
X128221019Y-93900157D01*
X128210705Y-93882716D01*
X128202008Y-93864963D01*
X128197472Y-93853508D01*
X128194552Y-93846133D01*
X128168563Y-93810362D01*
X128162047Y-93800442D01*
X128143578Y-93769213D01*
X128139542Y-93762388D01*
X128125221Y-93748067D01*
X128112380Y-93733033D01*
X128107810Y-93726743D01*
X128100472Y-93716643D01*
X128066395Y-93688452D01*
X128057616Y-93680462D01*
X126714902Y-92337747D01*
X126707362Y-92329461D01*
X126703250Y-92322982D01*
X126653598Y-92276356D01*
X126650757Y-92273602D01*
X126631020Y-92253865D01*
X126627823Y-92251385D01*
X126618801Y-92243680D01*
X126592350Y-92218841D01*
X126586571Y-92213414D01*
X126579625Y-92209595D01*
X126579622Y-92209593D01*
X126568816Y-92203652D01*
X126552297Y-92192801D01*
X126551833Y-92192441D01*
X126536291Y-92180386D01*
X126529022Y-92177241D01*
X126529018Y-92177238D01*
X126495713Y-92162826D01*
X126485063Y-92157609D01*
X126446310Y-92136305D01*
X126426687Y-92131267D01*
X126407984Y-92124863D01*
X126396670Y-92119967D01*
X126396669Y-92119967D01*
X126389395Y-92116819D01*
X126381572Y-92115580D01*
X126381562Y-92115577D01*
X126345726Y-92109901D01*
X126334106Y-92107495D01*
X126298961Y-92098472D01*
X126298960Y-92098472D01*
X126291280Y-92096500D01*
X126271026Y-92096500D01*
X126251315Y-92094949D01*
X126239136Y-92093020D01*
X126231307Y-92091780D01*
X126223417Y-92092526D01*
X126216423Y-92092306D01*
X126148965Y-92070173D01*
X126114590Y-92034808D01*
X126029072Y-91902617D01*
X126029070Y-91902614D01*
X126026264Y-91898277D01*
X125875920Y-91733051D01*
X125871869Y-91729852D01*
X125871865Y-91729848D01*
X125704664Y-91597800D01*
X125704660Y-91597798D01*
X125700609Y-91594598D01*
X125659303Y-91571796D01*
X125609334Y-91521364D01*
X125594562Y-91451921D01*
X125619678Y-91385516D01*
X125647030Y-91358909D01*
X125690853Y-91327650D01*
X125826110Y-91231173D01*
X125839153Y-91218176D01*
X125938080Y-91119594D01*
X125984346Y-91073489D01*
X125988719Y-91067404D01*
X126111685Y-90896277D01*
X126114703Y-90892077D01*
X126157058Y-90806379D01*
X126211386Y-90696453D01*
X126211387Y-90696451D01*
X126213680Y-90691811D01*
X126278620Y-90478069D01*
X126307779Y-90256590D01*
X126308255Y-90237128D01*
X126309324Y-90193365D01*
X126309324Y-90193361D01*
X126309406Y-90190000D01*
X126291102Y-89967361D01*
X126236681Y-89750702D01*
X126147604Y-89545840D01*
X126089807Y-89456500D01*
X126029072Y-89362617D01*
X126029070Y-89362614D01*
X126026264Y-89358277D01*
X125875920Y-89193051D01*
X125871869Y-89189852D01*
X125871865Y-89189848D01*
X125704664Y-89057800D01*
X125704660Y-89057798D01*
X125700609Y-89054598D01*
X125659303Y-89031796D01*
X125609334Y-88981364D01*
X125594562Y-88911921D01*
X125619678Y-88845516D01*
X125647030Y-88818909D01*
X125690853Y-88787650D01*
X125826110Y-88691173D01*
X125984346Y-88533489D01*
X125995718Y-88517664D01*
X126111685Y-88356277D01*
X126114703Y-88352077D01*
X126118861Y-88343665D01*
X126211386Y-88156453D01*
X126211387Y-88156451D01*
X126213680Y-88151811D01*
X126271231Y-87962390D01*
X126277115Y-87943023D01*
X126277115Y-87943021D01*
X126278620Y-87938069D01*
X126307779Y-87716590D01*
X126309406Y-87650000D01*
X126291102Y-87427361D01*
X126236681Y-87210702D01*
X126147604Y-87005840D01*
X126088874Y-86915057D01*
X126029072Y-86822617D01*
X126029070Y-86822614D01*
X126026264Y-86818277D01*
X125875920Y-86653051D01*
X125871869Y-86649852D01*
X125871865Y-86649848D01*
X125704664Y-86517800D01*
X125704660Y-86517798D01*
X125700609Y-86514598D01*
X125659303Y-86491796D01*
X125609334Y-86441364D01*
X125594562Y-86371921D01*
X125619678Y-86305516D01*
X125647030Y-86278909D01*
X125690853Y-86247650D01*
X125826110Y-86151173D01*
X125984346Y-85993489D01*
X126040798Y-85914928D01*
X126111685Y-85816277D01*
X126114703Y-85812077D01*
X126149869Y-85740925D01*
X126211386Y-85616453D01*
X126211387Y-85616451D01*
X126213680Y-85611811D01*
X126278620Y-85398069D01*
X126307779Y-85176590D01*
X126309406Y-85110000D01*
X126291102Y-84887361D01*
X126236681Y-84670702D01*
X126147604Y-84465840D01*
X126100805Y-84393500D01*
X126029072Y-84282617D01*
X126029070Y-84282614D01*
X126026264Y-84278277D01*
X125875920Y-84113051D01*
X125871869Y-84109852D01*
X125871865Y-84109848D01*
X125704664Y-83977800D01*
X125704660Y-83977798D01*
X125700609Y-83974598D01*
X125659303Y-83951796D01*
X125609334Y-83901364D01*
X125594562Y-83831921D01*
X125619678Y-83765516D01*
X125647030Y-83738909D01*
X125713872Y-83691231D01*
X125826110Y-83611173D01*
X125829954Y-83607343D01*
X125980685Y-83457137D01*
X125984346Y-83453489D01*
X126114703Y-83272077D01*
X126144303Y-83212187D01*
X126211386Y-83076453D01*
X126211387Y-83076451D01*
X126213680Y-83071811D01*
X126264218Y-82905473D01*
X126277115Y-82863023D01*
X126277115Y-82863021D01*
X126278620Y-82858069D01*
X126307779Y-82636590D01*
X126309280Y-82575165D01*
X126309324Y-82573365D01*
X126309324Y-82573361D01*
X126309406Y-82570000D01*
X126291102Y-82347361D01*
X126236681Y-82130702D01*
X126147604Y-81925840D01*
X126026264Y-81738277D01*
X125875920Y-81573051D01*
X125871869Y-81569852D01*
X125871865Y-81569848D01*
X125704664Y-81437800D01*
X125704660Y-81437798D01*
X125700609Y-81434598D01*
X125690072Y-81428781D01*
X125660946Y-81412703D01*
X131240743Y-81412703D01*
X131241302Y-81416947D01*
X131241302Y-81416951D01*
X131256699Y-81533900D01*
X131278268Y-81697734D01*
X131354129Y-81975036D01*
X131359872Y-81988500D01*
X131440699Y-82177994D01*
X131466923Y-82239476D01*
X131614561Y-82486161D01*
X131794313Y-82710528D01*
X132002851Y-82908423D01*
X132062106Y-82951002D01*
X132230229Y-83071811D01*
X132236317Y-83076186D01*
X132240112Y-83078195D01*
X132240113Y-83078196D01*
X132261869Y-83089715D01*
X132490392Y-83210712D01*
X132760373Y-83309511D01*
X133041264Y-83370755D01*
X133069841Y-83373004D01*
X133264282Y-83388307D01*
X133264291Y-83388307D01*
X133266739Y-83388500D01*
X133422271Y-83388500D01*
X133424407Y-83388354D01*
X133424418Y-83388354D01*
X133632548Y-83374165D01*
X133632554Y-83374164D01*
X133636825Y-83373873D01*
X133641020Y-83373004D01*
X133641022Y-83373004D01*
X133777584Y-83344723D01*
X133918342Y-83315574D01*
X134189343Y-83219607D01*
X134444812Y-83087750D01*
X134448313Y-83085289D01*
X134448317Y-83085287D01*
X134585491Y-82988879D01*
X134680023Y-82922441D01*
X134890622Y-82726740D01*
X135072713Y-82504268D01*
X135222927Y-82259142D01*
X135258549Y-82177994D01*
X135336757Y-81999830D01*
X135338483Y-81995898D01*
X135342800Y-81980745D01*
X135411868Y-81738277D01*
X135417244Y-81719406D01*
X135449148Y-81495230D01*
X135457146Y-81439036D01*
X135457146Y-81439034D01*
X135457751Y-81434784D01*
X135457783Y-81428781D01*
X135459235Y-81151583D01*
X135459235Y-81151576D01*
X135459257Y-81147297D01*
X135421732Y-80862266D01*
X135345871Y-80584964D01*
X135275294Y-80419500D01*
X135234763Y-80324476D01*
X135234761Y-80324472D01*
X135233077Y-80320524D01*
X135112459Y-80118986D01*
X135087643Y-80077521D01*
X135087640Y-80077517D01*
X135085439Y-80073839D01*
X134905687Y-79849472D01*
X134697149Y-79651577D01*
X134463683Y-79483814D01*
X134448950Y-79476013D01*
X134348359Y-79422753D01*
X134209608Y-79349288D01*
X134056573Y-79293285D01*
X133943658Y-79251964D01*
X133943656Y-79251963D01*
X133939627Y-79250489D01*
X133658736Y-79189245D01*
X133627685Y-79186801D01*
X133435718Y-79171693D01*
X133435709Y-79171693D01*
X133433261Y-79171500D01*
X133277729Y-79171500D01*
X133275593Y-79171646D01*
X133275582Y-79171646D01*
X133067452Y-79185835D01*
X133067446Y-79185836D01*
X133063175Y-79186127D01*
X133058980Y-79186996D01*
X133058978Y-79186996D01*
X133004504Y-79198277D01*
X132781658Y-79244426D01*
X132510657Y-79340393D01*
X132506848Y-79342359D01*
X132270136Y-79464535D01*
X132255188Y-79472250D01*
X132251687Y-79474711D01*
X132251683Y-79474713D01*
X132156204Y-79541817D01*
X132019977Y-79637559D01*
X132006536Y-79650049D01*
X131834409Y-79810000D01*
X131809378Y-79833260D01*
X131627287Y-80055732D01*
X131477073Y-80300858D01*
X131475347Y-80304791D01*
X131475346Y-80304792D01*
X131380657Y-80520500D01*
X131361517Y-80564102D01*
X131360342Y-80568229D01*
X131360341Y-80568230D01*
X131338045Y-80646500D01*
X131282756Y-80840594D01*
X131242249Y-81125216D01*
X131242227Y-81129505D01*
X131242226Y-81129512D01*
X131240765Y-81408417D01*
X131240743Y-81412703D01*
X125660946Y-81412703D01*
X125658819Y-81411529D01*
X125608848Y-81361097D01*
X125594076Y-81291654D01*
X125619192Y-81225248D01*
X125646544Y-81198641D01*
X125821578Y-81073792D01*
X125829450Y-81067139D01*
X125980302Y-80916812D01*
X125986980Y-80908965D01*
X126111253Y-80736020D01*
X126116563Y-80727183D01*
X126210920Y-80536267D01*
X126214719Y-80526672D01*
X126276627Y-80322910D01*
X126278805Y-80312837D01*
X126280236Y-80301962D01*
X126278025Y-80287778D01*
X126264867Y-80284000D01*
X123629475Y-80284000D01*
X123615944Y-80287973D01*
X123614507Y-80297966D01*
X123644815Y-80432446D01*
X123647894Y-80442275D01*
X123687121Y-80538879D01*
X123694217Y-80609520D01*
X123661995Y-80672784D01*
X123600685Y-80708584D01*
X123529753Y-80705554D01*
X123481283Y-80675378D01*
X123225405Y-80419500D01*
X123191379Y-80357188D01*
X123188500Y-80330405D01*
X123188500Y-77456695D01*
X123583501Y-77456695D01*
X123583798Y-77461848D01*
X123583798Y-77461851D01*
X123589261Y-77556590D01*
X123596360Y-77679715D01*
X123597497Y-77684761D01*
X123597498Y-77684767D01*
X123614600Y-77760653D01*
X123645472Y-77897639D01*
X123729516Y-78104616D01*
X123732215Y-78109020D01*
X123843541Y-78290689D01*
X123843543Y-78290692D01*
X123846237Y-78295088D01*
X123992500Y-78463938D01*
X124164376Y-78606632D01*
X124237695Y-78649476D01*
X124238205Y-78649774D01*
X124286929Y-78701412D01*
X124300000Y-78771195D01*
X124273269Y-78836967D01*
X124232812Y-78870327D01*
X124224707Y-78874546D01*
X124215988Y-78880036D01*
X124045683Y-79007905D01*
X124037976Y-79014748D01*
X123890840Y-79168717D01*
X123884354Y-79176727D01*
X123764348Y-79352649D01*
X123759250Y-79361623D01*
X123669588Y-79554783D01*
X123666025Y-79564470D01*
X123610639Y-79764183D01*
X123612162Y-79772607D01*
X123624542Y-79776000D01*
X126264594Y-79776000D01*
X126278125Y-79772027D01*
X126279430Y-79762947D01*
X126237464Y-79595875D01*
X126234144Y-79586124D01*
X126149222Y-79390814D01*
X126144355Y-79381739D01*
X126028676Y-79202926D01*
X126022386Y-79194757D01*
X125879056Y-79037240D01*
X125871523Y-79030215D01*
X125704389Y-78898222D01*
X125695806Y-78892520D01*
X125658852Y-78872120D01*
X125608881Y-78821687D01*
X125594109Y-78752245D01*
X125619225Y-78685839D01*
X125646577Y-78659232D01*
X125670047Y-78642491D01*
X125826110Y-78531173D01*
X125832537Y-78524769D01*
X125980685Y-78377137D01*
X125984346Y-78373489D01*
X126043844Y-78290689D01*
X126111685Y-78196277D01*
X126114703Y-78192077D01*
X126144288Y-78132217D01*
X126211386Y-77996453D01*
X126211387Y-77996451D01*
X126213680Y-77991811D01*
X126278620Y-77778069D01*
X126307779Y-77556590D01*
X126309406Y-77490000D01*
X126291102Y-77267361D01*
X126236681Y-77050702D01*
X126147604Y-76845840D01*
X126108156Y-76784862D01*
X126029072Y-76662617D01*
X126029070Y-76662614D01*
X126026264Y-76658277D01*
X125875920Y-76493051D01*
X125871869Y-76489852D01*
X125871865Y-76489848D01*
X125704664Y-76357800D01*
X125704660Y-76357798D01*
X125700609Y-76354598D01*
X125659303Y-76331796D01*
X125609334Y-76281364D01*
X125594562Y-76211921D01*
X125619678Y-76145516D01*
X125647030Y-76118909D01*
X125690853Y-76087650D01*
X125826110Y-75991173D01*
X125984346Y-75833489D01*
X125988719Y-75827404D01*
X126111685Y-75656277D01*
X126114703Y-75652077D01*
X126125206Y-75630827D01*
X126211386Y-75456453D01*
X126211387Y-75456451D01*
X126213680Y-75451811D01*
X126278620Y-75238069D01*
X126307779Y-75016590D01*
X126307861Y-75013240D01*
X126309324Y-74953365D01*
X126309324Y-74953361D01*
X126309406Y-74950000D01*
X126291102Y-74727361D01*
X126236681Y-74510702D01*
X126147604Y-74305840D01*
X126056131Y-74164444D01*
X126029072Y-74122617D01*
X126029070Y-74122614D01*
X126026264Y-74118277D01*
X126012681Y-74103349D01*
X125879048Y-73956488D01*
X125847996Y-73892642D01*
X125856391Y-73822143D01*
X125901567Y-73767375D01*
X125928011Y-73753706D01*
X126034547Y-73713767D01*
X126042955Y-73710615D01*
X126159511Y-73623261D01*
X126246865Y-73506705D01*
X126297995Y-73370316D01*
X126304750Y-73308134D01*
X126304750Y-71511866D01*
X126297995Y-71449684D01*
X126246865Y-71313295D01*
X126159511Y-71196739D01*
X126042955Y-71109385D01*
X125906566Y-71058255D01*
X125844384Y-71051500D01*
X124048116Y-71051500D01*
X123985934Y-71058255D01*
X123849545Y-71109385D01*
X123732989Y-71196739D01*
X123645635Y-71313295D01*
X123594505Y-71449684D01*
X123587750Y-71511866D01*
X123587750Y-73308134D01*
X123594505Y-73370316D01*
X123645635Y-73506705D01*
X123732989Y-73623261D01*
X123849545Y-73710615D01*
X123857954Y-73713767D01*
X123857955Y-73713768D01*
X123966701Y-73754535D01*
X124023466Y-73797176D01*
X124048166Y-73863738D01*
X124032959Y-73933087D01*
X124013566Y-73959568D01*
X123891735Y-74087057D01*
X123886879Y-74092138D01*
X123883965Y-74096410D01*
X123883964Y-74096411D01*
X123829735Y-74175908D01*
X123760993Y-74276680D01*
X123718823Y-74367528D01*
X123679895Y-74451392D01*
X123666938Y-74479305D01*
X123607239Y-74694570D01*
X123583501Y-74916695D01*
X123583798Y-74921848D01*
X123583798Y-74921851D01*
X123589261Y-75016590D01*
X123596360Y-75139715D01*
X123597497Y-75144761D01*
X123597498Y-75144767D01*
X123614895Y-75221962D01*
X123645472Y-75357639D01*
X123729516Y-75564616D01*
X123772612Y-75634943D01*
X123837405Y-75740675D01*
X123846237Y-75755088D01*
X123992500Y-75923938D01*
X124164376Y-76066632D01*
X124234845Y-76107811D01*
X124237695Y-76109476D01*
X124286419Y-76161114D01*
X124299490Y-76230897D01*
X124272759Y-76296669D01*
X124232305Y-76330027D01*
X124219857Y-76336507D01*
X124215724Y-76339610D01*
X124215721Y-76339612D01*
X124191497Y-76357800D01*
X124041215Y-76470635D01*
X123886879Y-76632138D01*
X123883966Y-76636408D01*
X123883964Y-76636411D01*
X123843564Y-76695635D01*
X123760993Y-76816680D01*
X123666938Y-77019305D01*
X123607239Y-77234570D01*
X123583501Y-77456695D01*
X123188500Y-77456695D01*
X123188500Y-75643768D01*
X123189027Y-75632585D01*
X123190702Y-75625092D01*
X123188562Y-75557001D01*
X123188500Y-75553044D01*
X123188500Y-75525144D01*
X123187996Y-75521153D01*
X123187063Y-75509311D01*
X123185923Y-75473036D01*
X123185674Y-75465111D01*
X123180021Y-75445652D01*
X123176012Y-75426293D01*
X123175846Y-75424983D01*
X123173474Y-75406203D01*
X123170558Y-75398837D01*
X123170556Y-75398831D01*
X123157200Y-75365098D01*
X123153355Y-75353868D01*
X123143230Y-75319017D01*
X123143230Y-75319016D01*
X123141019Y-75311407D01*
X123130705Y-75293966D01*
X123122008Y-75276213D01*
X123117472Y-75264758D01*
X123114552Y-75257383D01*
X123088563Y-75221612D01*
X123082047Y-75211692D01*
X123077498Y-75204000D01*
X123059542Y-75173638D01*
X123045221Y-75159317D01*
X123032380Y-75144283D01*
X123025132Y-75134307D01*
X123020472Y-75127893D01*
X122986407Y-75099712D01*
X122977626Y-75091722D01*
X122423647Y-74537742D01*
X122416113Y-74529463D01*
X122412000Y-74522982D01*
X122362348Y-74476356D01*
X122359507Y-74473602D01*
X122339770Y-74453865D01*
X122336573Y-74451385D01*
X122327551Y-74443680D01*
X122323398Y-74439780D01*
X122295321Y-74413414D01*
X122288375Y-74409595D01*
X122288372Y-74409593D01*
X122277566Y-74403652D01*
X122261047Y-74392801D01*
X122260583Y-74392441D01*
X122245041Y-74380386D01*
X122237772Y-74377241D01*
X122237768Y-74377238D01*
X122204463Y-74362826D01*
X122193813Y-74357609D01*
X122155060Y-74336305D01*
X122135437Y-74331267D01*
X122116734Y-74324863D01*
X122105420Y-74319967D01*
X122105419Y-74319967D01*
X122098145Y-74316819D01*
X122090322Y-74315580D01*
X122090312Y-74315577D01*
X122054476Y-74309901D01*
X122042856Y-74307495D01*
X122007711Y-74298472D01*
X122007710Y-74298472D01*
X122000030Y-74296500D01*
X121979776Y-74296500D01*
X121960065Y-74294949D01*
X121943784Y-74292370D01*
X121943783Y-74292370D01*
X121940057Y-74291780D01*
X121940152Y-74291179D01*
X121878080Y-74270812D01*
X121833297Y-74215721D01*
X121823500Y-74167008D01*
X121823500Y-64361781D01*
X121843502Y-64293660D01*
X121883197Y-64254637D01*
X122008120Y-64177332D01*
X122014348Y-64173478D01*
X122139305Y-64048303D01*
X122171075Y-63996764D01*
X122223846Y-63949271D01*
X122293918Y-63937847D01*
X122359042Y-63966121D01*
X122377418Y-63985045D01*
X122383604Y-63992920D01*
X122513082Y-64105275D01*
X122551421Y-64165027D01*
X122556500Y-64200439D01*
X122556500Y-66532832D01*
X122546909Y-66581050D01*
X122497162Y-66701150D01*
X122481500Y-66820115D01*
X122481501Y-67159884D01*
X122497162Y-67278850D01*
X122498148Y-67281230D01*
X122498148Y-67343590D01*
X122496571Y-67349473D01*
X122488334Y-67412040D01*
X122490546Y-67426221D01*
X122520749Y-67434895D01*
X122520334Y-67436341D01*
X122566858Y-67450002D01*
X122598699Y-67479295D01*
X122650985Y-67547434D01*
X122656013Y-67553987D01*
X122662563Y-67559013D01*
X122662566Y-67559016D01*
X122721240Y-67604038D01*
X122763108Y-67661376D01*
X122767329Y-67732247D01*
X122732564Y-67794150D01*
X122669852Y-67827431D01*
X122644536Y-67830000D01*
X122504086Y-67830000D01*
X122490315Y-67834044D01*
X122488286Y-67847583D01*
X122496572Y-67910533D01*
X122500810Y-67926348D01*
X122555753Y-68058993D01*
X122563941Y-68073176D01*
X122651344Y-68187080D01*
X122662920Y-68198656D01*
X122776824Y-68286059D01*
X122791007Y-68294247D01*
X122923649Y-68349189D01*
X122939469Y-68353428D01*
X122972040Y-68357716D01*
X122986222Y-68355505D01*
X122990000Y-68342348D01*
X122990000Y-67854500D01*
X123010002Y-67786379D01*
X123063658Y-67739886D01*
X123115999Y-67728500D01*
X123189998Y-67728500D01*
X123264000Y-67728499D01*
X123332120Y-67748501D01*
X123378613Y-67802156D01*
X123390000Y-67854499D01*
X123390000Y-68341965D01*
X123394044Y-68355736D01*
X123407583Y-68357765D01*
X123440533Y-68353428D01*
X123456348Y-68349190D01*
X123588993Y-68294247D01*
X123603176Y-68286059D01*
X123717080Y-68198656D01*
X123728656Y-68187080D01*
X123816059Y-68073176D01*
X123824247Y-68058993D01*
X123879190Y-67926350D01*
X123883428Y-67910532D01*
X123891666Y-67847960D01*
X123889454Y-67833779D01*
X123876296Y-67830000D01*
X123735465Y-67830000D01*
X123667344Y-67809998D01*
X123620851Y-67756342D01*
X123610747Y-67686068D01*
X123640241Y-67621488D01*
X123658761Y-67604038D01*
X123717432Y-67559017D01*
X123717433Y-67559016D01*
X123723987Y-67553987D01*
X123729014Y-67547436D01*
X123729016Y-67547434D01*
X123781300Y-67479296D01*
X123838638Y-67437429D01*
X123868102Y-67432294D01*
X123889685Y-67425956D01*
X123891714Y-67412417D01*
X123883429Y-67349475D01*
X123881852Y-67343591D01*
X123881852Y-67281230D01*
X123882838Y-67278850D01*
X123898500Y-67159885D01*
X123898499Y-66820116D01*
X123882838Y-66701150D01*
X123833091Y-66581050D01*
X123823500Y-66532832D01*
X123823500Y-64199807D01*
X123843502Y-64131686D01*
X123876601Y-64097037D01*
X123912720Y-64071416D01*
X123912724Y-64071413D01*
X123917611Y-64067946D01*
X124063881Y-63915150D01*
X124067130Y-63910119D01*
X124067135Y-63910112D01*
X124085033Y-63882393D01*
X124138789Y-63836016D01*
X124209085Y-63826063D01*
X124273602Y-63855696D01*
X124289970Y-63872909D01*
X124380262Y-63987857D01*
X124388499Y-63996506D01*
X124539123Y-64127212D01*
X124548847Y-64134147D01*
X124721467Y-64234010D01*
X124732331Y-64238984D01*
X124920727Y-64304407D01*
X124921716Y-64304648D01*
X124932008Y-64303180D01*
X124936000Y-64289615D01*
X124936000Y-64285402D01*
X125444000Y-64285402D01*
X125447973Y-64298933D01*
X125457399Y-64300288D01*
X125546537Y-64278806D01*
X125557832Y-64274917D01*
X125739382Y-64192371D01*
X125749724Y-64186424D01*
X125912397Y-64071032D01*
X125921425Y-64063239D01*
X126059342Y-63919169D01*
X126066738Y-63909804D01*
X126174921Y-63742259D01*
X126180417Y-63731655D01*
X126254961Y-63546688D01*
X126258355Y-63535230D01*
X126296857Y-63338072D01*
X126297934Y-63329209D01*
X126298000Y-63326500D01*
X126298000Y-63222115D01*
X126293525Y-63206876D01*
X126292135Y-63205671D01*
X126284452Y-63204000D01*
X125462115Y-63204000D01*
X125446876Y-63208475D01*
X125445671Y-63209865D01*
X125444000Y-63217548D01*
X125444000Y-64285402D01*
X124936000Y-64285402D01*
X124936000Y-62677885D01*
X125444000Y-62677885D01*
X125448475Y-62693124D01*
X125449865Y-62694329D01*
X125457548Y-62696000D01*
X126279885Y-62696000D01*
X126295124Y-62691525D01*
X126296329Y-62690135D01*
X126298000Y-62682452D01*
X126298000Y-62625168D01*
X126297715Y-62619192D01*
X126283529Y-62470506D01*
X126281270Y-62458772D01*
X126225128Y-62267401D01*
X126220698Y-62256325D01*
X126129381Y-62079022D01*
X126122931Y-62068976D01*
X125999738Y-61912143D01*
X125991501Y-61903494D01*
X125840877Y-61772788D01*
X125831153Y-61765853D01*
X125658533Y-61665990D01*
X125647669Y-61661016D01*
X125459273Y-61595593D01*
X125458284Y-61595352D01*
X125447992Y-61596820D01*
X125444000Y-61610385D01*
X125444000Y-62677885D01*
X124936000Y-62677885D01*
X124936000Y-61614598D01*
X124932027Y-61601067D01*
X124922601Y-61599712D01*
X124833463Y-61621194D01*
X124822168Y-61625083D01*
X124640618Y-61707629D01*
X124630276Y-61713576D01*
X124467603Y-61828968D01*
X124458575Y-61836761D01*
X124320658Y-61980831D01*
X124313259Y-61990200D01*
X124295582Y-62017577D01*
X124241828Y-62063955D01*
X124171532Y-62073909D01*
X124107015Y-62044278D01*
X124090644Y-62027063D01*
X124083193Y-62017577D01*
X123996396Y-61907080D01*
X123991865Y-61903148D01*
X123991862Y-61903145D01*
X123841167Y-61772379D01*
X123836637Y-61768448D01*
X123831451Y-61765448D01*
X123831447Y-61765445D01*
X123658742Y-61665533D01*
X123653546Y-61662527D01*
X123453729Y-61593139D01*
X123447794Y-61592278D01*
X123447792Y-61592278D01*
X123250336Y-61563648D01*
X123250333Y-61563648D01*
X123244396Y-61562787D01*
X123033101Y-61572567D01*
X122920466Y-61599712D01*
X122833299Y-61620719D01*
X122833297Y-61620720D01*
X122827466Y-61622125D01*
X122822008Y-61624607D01*
X122822004Y-61624608D01*
X122730990Y-61665990D01*
X122634913Y-61709674D01*
X122462389Y-61832054D01*
X122458247Y-61836381D01*
X122458241Y-61836386D01*
X122371194Y-61927317D01*
X122309639Y-61962694D01*
X122238730Y-61959175D01*
X122180979Y-61917879D01*
X122173032Y-61906491D01*
X122138478Y-61850652D01*
X122013303Y-61725695D01*
X122007072Y-61721854D01*
X121868968Y-61636725D01*
X121868966Y-61636724D01*
X121862738Y-61632885D01*
X121754005Y-61596820D01*
X121701389Y-61579368D01*
X121701387Y-61579368D01*
X121694861Y-61577203D01*
X121688025Y-61576503D01*
X121688022Y-61576502D01*
X121644969Y-61572091D01*
X121590400Y-61566500D01*
X120789600Y-61566500D01*
X120786354Y-61566837D01*
X120786350Y-61566837D01*
X120690692Y-61576762D01*
X120690688Y-61576763D01*
X120683834Y-61577474D01*
X120677298Y-61579655D01*
X120677296Y-61579655D01*
X120613117Y-61601067D01*
X120516054Y-61633450D01*
X120365652Y-61726522D01*
X120240695Y-61851697D01*
X120236855Y-61857927D01*
X120236854Y-61857928D01*
X120199900Y-61917879D01*
X120147885Y-62002262D01*
X120092203Y-62170139D01*
X120081500Y-62274600D01*
X120081500Y-63625400D01*
X120092474Y-63731166D01*
X120148450Y-63898946D01*
X120241522Y-64049348D01*
X120366697Y-64174305D01*
X120372927Y-64178145D01*
X120372928Y-64178146D01*
X120496616Y-64254389D01*
X120544110Y-64307162D01*
X120556500Y-64361649D01*
X120556500Y-74095500D01*
X120536498Y-74163621D01*
X120482842Y-74210114D01*
X120430500Y-74221500D01*
X120179173Y-74221501D01*
X120160116Y-74221501D01*
X120156031Y-74222039D01*
X120156027Y-74222039D01*
X120049337Y-74236084D01*
X120049335Y-74236084D01*
X120041150Y-74237162D01*
X119893124Y-74298476D01*
X119891777Y-74299510D01*
X119865952Y-74310049D01*
X119864071Y-74310532D01*
X119856203Y-74311526D01*
X119848835Y-74314443D01*
X119848828Y-74314445D01*
X119815098Y-74327800D01*
X119803868Y-74331645D01*
X119787828Y-74336305D01*
X119761407Y-74343981D01*
X119754584Y-74348016D01*
X119743966Y-74354295D01*
X119726213Y-74362992D01*
X119718568Y-74366019D01*
X119707383Y-74370448D01*
X119693705Y-74380386D01*
X119671612Y-74396437D01*
X119661695Y-74402951D01*
X119623638Y-74425458D01*
X119618033Y-74431062D01*
X119609315Y-74439780D01*
X119594282Y-74452620D01*
X119577893Y-74464528D01*
X119561539Y-74484297D01*
X119549712Y-74498593D01*
X119541722Y-74507374D01*
X119320242Y-74728853D01*
X119311963Y-74736387D01*
X119305482Y-74740500D01*
X119258856Y-74790152D01*
X119256101Y-74792994D01*
X119236365Y-74812730D01*
X119233885Y-74815927D01*
X119226182Y-74824947D01*
X119195914Y-74857179D01*
X119192095Y-74864125D01*
X119192093Y-74864128D01*
X119186152Y-74874934D01*
X119175301Y-74891453D01*
X119162886Y-74907459D01*
X119159741Y-74914728D01*
X119159738Y-74914732D01*
X119145326Y-74948037D01*
X119140109Y-74958687D01*
X119118805Y-74997440D01*
X119116834Y-75005115D01*
X119116834Y-75005116D01*
X119113767Y-75017062D01*
X119107363Y-75035766D01*
X119099319Y-75054355D01*
X119098080Y-75062178D01*
X119098077Y-75062188D01*
X119092401Y-75098024D01*
X119089995Y-75109644D01*
X119082275Y-75139715D01*
X119079000Y-75152470D01*
X119079000Y-75172724D01*
X119077449Y-75192434D01*
X119074280Y-75212443D01*
X119075026Y-75220335D01*
X119078441Y-75256461D01*
X119079000Y-75268319D01*
X119079000Y-75665069D01*
X119058998Y-75733190D01*
X119019304Y-75772212D01*
X118998311Y-75785203D01*
X118874383Y-75909347D01*
X118870542Y-75915579D01*
X118870540Y-75915581D01*
X118851260Y-75946859D01*
X118798489Y-75994353D01*
X118728417Y-76005777D01*
X118663293Y-75977503D01*
X118623793Y-75918510D01*
X118618000Y-75880744D01*
X118618000Y-60324000D01*
X118638002Y-60255879D01*
X118691658Y-60209386D01*
X118744000Y-60198000D01*
X147956000Y-60198000D01*
X148024121Y-60218002D01*
G37*
%TD.AperFunction*%
%TA.AperFunction,Conductor*%
G36*
X133279777Y-87981002D02*
G01*
X133300751Y-87997905D01*
X134555845Y-89252999D01*
X134589871Y-89315311D01*
X134592750Y-89342094D01*
X134592750Y-89856502D01*
X134592943Y-89858950D01*
X134592943Y-89858958D01*
X134595177Y-89887336D01*
X134595688Y-89893831D01*
X134607524Y-89934570D01*
X134639836Y-90045790D01*
X134642105Y-90053601D01*
X134655174Y-90075700D01*
X134722759Y-90189980D01*
X134722761Y-90189983D01*
X134726797Y-90196807D01*
X134732405Y-90202415D01*
X134737261Y-90208675D01*
X134735754Y-90209844D01*
X134764871Y-90263167D01*
X134767750Y-90289950D01*
X134767750Y-90731233D01*
X134767223Y-90742416D01*
X134765548Y-90749909D01*
X134765797Y-90757835D01*
X134765797Y-90757836D01*
X134767688Y-90817986D01*
X134767750Y-90821945D01*
X134767750Y-90849856D01*
X134768247Y-90853790D01*
X134768247Y-90853791D01*
X134768255Y-90853856D01*
X134769188Y-90865693D01*
X134770577Y-90909889D01*
X134776228Y-90929339D01*
X134780237Y-90948700D01*
X134782776Y-90968797D01*
X134785695Y-90976168D01*
X134785695Y-90976170D01*
X134799054Y-91009912D01*
X134802899Y-91021142D01*
X134808670Y-91041007D01*
X134815232Y-91063593D01*
X134819265Y-91070412D01*
X134819267Y-91070417D01*
X134825543Y-91081028D01*
X134834238Y-91098776D01*
X134841698Y-91117617D01*
X134846360Y-91124033D01*
X134846360Y-91124034D01*
X134867686Y-91153387D01*
X134874202Y-91163307D01*
X134884755Y-91181150D01*
X134896708Y-91201362D01*
X134911029Y-91215683D01*
X134923869Y-91230716D01*
X134935778Y-91247107D01*
X134967997Y-91273761D01*
X134969855Y-91275298D01*
X134978634Y-91283288D01*
X135265162Y-91569816D01*
X135299188Y-91632128D01*
X135300989Y-91642465D01*
X135308412Y-91698850D01*
X135328159Y-91746524D01*
X135366461Y-91838993D01*
X135369726Y-91846876D01*
X135374752Y-91853426D01*
X135457750Y-91961589D01*
X135467263Y-91973987D01*
X135473813Y-91979013D01*
X135473816Y-91979016D01*
X135530819Y-92022755D01*
X135594375Y-92071524D01*
X135742400Y-92132838D01*
X135750588Y-92133916D01*
X135857271Y-92147961D01*
X135861365Y-92148500D01*
X136031229Y-92148500D01*
X136201134Y-92148499D01*
X136260118Y-92140734D01*
X136330265Y-92151674D01*
X136365657Y-92176561D01*
X137164817Y-92975722D01*
X137926348Y-93737253D01*
X137933888Y-93745539D01*
X137938000Y-93752018D01*
X137943777Y-93757443D01*
X137987651Y-93798643D01*
X137990493Y-93801398D01*
X138010230Y-93821135D01*
X138013427Y-93823615D01*
X138022447Y-93831318D01*
X138054679Y-93861586D01*
X138061625Y-93865405D01*
X138061628Y-93865407D01*
X138072434Y-93871348D01*
X138088953Y-93882199D01*
X138104959Y-93894614D01*
X138112228Y-93897759D01*
X138112232Y-93897762D01*
X138145537Y-93912174D01*
X138156195Y-93917395D01*
X138170615Y-93925322D01*
X138192834Y-93937537D01*
X138225768Y-93963639D01*
X138228934Y-93967155D01*
X138259653Y-94031162D01*
X138250891Y-94101615D01*
X138224396Y-94140563D01*
X138048526Y-94316434D01*
X137986214Y-94350459D01*
X137933233Y-94350586D01*
X137896944Y-94342872D01*
X137896939Y-94342872D01*
X137890487Y-94341500D01*
X137834595Y-94341500D01*
X137766474Y-94321498D01*
X137745500Y-94304595D01*
X137446654Y-94005749D01*
X137412628Y-93943437D01*
X137409749Y-93916654D01*
X137409749Y-93840116D01*
X137407576Y-93823608D01*
X137395166Y-93729337D01*
X137395166Y-93729335D01*
X137394088Y-93721150D01*
X137347661Y-93609064D01*
X137335934Y-93580752D01*
X137335933Y-93580750D01*
X137332774Y-93573124D01*
X137235237Y-93446013D01*
X137228687Y-93440987D01*
X137228684Y-93440984D01*
X137171681Y-93397245D01*
X137108125Y-93348476D01*
X136960100Y-93287162D01*
X136951912Y-93286084D01*
X136845222Y-93272038D01*
X136845221Y-93272038D01*
X136841135Y-93271500D01*
X136671271Y-93271500D01*
X136501366Y-93271501D01*
X136497281Y-93272039D01*
X136497277Y-93272039D01*
X136427757Y-93281191D01*
X136382400Y-93287162D01*
X136380650Y-93287887D01*
X136321848Y-93287886D01*
X136320100Y-93287162D01*
X136311916Y-93286085D01*
X136311914Y-93286084D01*
X136205222Y-93272038D01*
X136205221Y-93272038D01*
X136201135Y-93271500D01*
X136031271Y-93271500D01*
X135861366Y-93271501D01*
X135857281Y-93272039D01*
X135857277Y-93272039D01*
X135750587Y-93286084D01*
X135750585Y-93286084D01*
X135742400Y-93287162D01*
X135622300Y-93336909D01*
X135574082Y-93346500D01*
X134624120Y-93346500D01*
X134555999Y-93326498D01*
X134509506Y-93272842D01*
X134506138Y-93264730D01*
X134460017Y-93141703D01*
X134456865Y-93133295D01*
X134369511Y-93016739D01*
X134252955Y-92929385D01*
X134116566Y-92878255D01*
X134054384Y-92871500D01*
X133058116Y-92871500D01*
X132995934Y-92878255D01*
X132859545Y-92929385D01*
X132742989Y-93016739D01*
X132655635Y-93133295D01*
X132604505Y-93269684D01*
X132597750Y-93331866D01*
X132597750Y-94628134D01*
X132604505Y-94690316D01*
X132655635Y-94826705D01*
X132742989Y-94943261D01*
X132859545Y-95030615D01*
X132995934Y-95081745D01*
X133058116Y-95088500D01*
X134054384Y-95088500D01*
X134116566Y-95081745D01*
X134252955Y-95030615D01*
X134369511Y-94943261D01*
X134456865Y-94826705D01*
X134506138Y-94695270D01*
X134548780Y-94638506D01*
X134615341Y-94613806D01*
X134624120Y-94613500D01*
X135574082Y-94613500D01*
X135622300Y-94623091D01*
X135742400Y-94672838D01*
X135750588Y-94673916D01*
X135857271Y-94687961D01*
X135861365Y-94688500D01*
X136031229Y-94688500D01*
X136201134Y-94688499D01*
X136260118Y-94680734D01*
X136330265Y-94691674D01*
X136365657Y-94716561D01*
X136847878Y-95198782D01*
X136881904Y-95261094D01*
X136884092Y-95274703D01*
X136892014Y-95350069D01*
X136896919Y-95396738D01*
X136901458Y-95439928D01*
X136960473Y-95621556D01*
X136963776Y-95627278D01*
X136963777Y-95627279D01*
X136989941Y-95672596D01*
X137055960Y-95786944D01*
X137060378Y-95791851D01*
X137060379Y-95791852D01*
X137172009Y-95915830D01*
X137183747Y-95928866D01*
X137338248Y-96041118D01*
X137344276Y-96043802D01*
X137344278Y-96043803D01*
X137414546Y-96075088D01*
X137512712Y-96118794D01*
X137601260Y-96137616D01*
X137634231Y-96144624D01*
X137696705Y-96178353D01*
X137731026Y-96240502D01*
X137726298Y-96311341D01*
X137697129Y-96356966D01*
X136697954Y-97356141D01*
X136635642Y-97390167D01*
X136564827Y-97385102D01*
X136507991Y-97342555D01*
X136499740Y-97330046D01*
X136489155Y-97311712D01*
X136455290Y-97253056D01*
X136381038Y-97170590D01*
X136331925Y-97116045D01*
X136331924Y-97116044D01*
X136327503Y-97111134D01*
X136210643Y-97026230D01*
X136178344Y-97002763D01*
X136178343Y-97002762D01*
X136173002Y-96998882D01*
X136166974Y-96996198D01*
X136166972Y-96996197D01*
X136004569Y-96923891D01*
X136004568Y-96923891D01*
X135998538Y-96921206D01*
X135905138Y-96901353D01*
X135818194Y-96882872D01*
X135818189Y-96882872D01*
X135811737Y-96881500D01*
X135620763Y-96881500D01*
X135614311Y-96882872D01*
X135614306Y-96882872D01*
X135527362Y-96901353D01*
X135433962Y-96921206D01*
X135427932Y-96923891D01*
X135427931Y-96923891D01*
X135265528Y-96996197D01*
X135265526Y-96996198D01*
X135259498Y-96998882D01*
X135254157Y-97002762D01*
X135254156Y-97002763D01*
X135221857Y-97026230D01*
X135104997Y-97111134D01*
X135100582Y-97116037D01*
X135095670Y-97120460D01*
X135094545Y-97119211D01*
X135041236Y-97152051D01*
X135008050Y-97156500D01*
X134624120Y-97156500D01*
X134555999Y-97136498D01*
X134509506Y-97082842D01*
X134506138Y-97074730D01*
X134460017Y-96951703D01*
X134456865Y-96943295D01*
X134369511Y-96826739D01*
X134252955Y-96739385D01*
X134116566Y-96688255D01*
X134054384Y-96681500D01*
X133058116Y-96681500D01*
X132995934Y-96688255D01*
X132859545Y-96739385D01*
X132742989Y-96826739D01*
X132655635Y-96943295D01*
X132604505Y-97079684D01*
X132597750Y-97141866D01*
X132597750Y-98438134D01*
X132604505Y-98500316D01*
X132655635Y-98636705D01*
X132742989Y-98753261D01*
X132832612Y-98820430D01*
X132851618Y-98834674D01*
X132894133Y-98891533D01*
X132899159Y-98962352D01*
X132865099Y-99024645D01*
X132802768Y-99058635D01*
X132776053Y-99061500D01*
X132361263Y-99061500D01*
X132350079Y-99060973D01*
X132342591Y-99059299D01*
X132334668Y-99059548D01*
X132274533Y-99061438D01*
X132270575Y-99061500D01*
X132242644Y-99061500D01*
X132238729Y-99061995D01*
X132238725Y-99061995D01*
X132238667Y-99062003D01*
X132238638Y-99062006D01*
X132226796Y-99062939D01*
X132182610Y-99064327D01*
X132165244Y-99069372D01*
X132163158Y-99069978D01*
X132143806Y-99073986D01*
X132136735Y-99074880D01*
X132123703Y-99076526D01*
X132116334Y-99079443D01*
X132116332Y-99079444D01*
X132082597Y-99092800D01*
X132071369Y-99096645D01*
X132028907Y-99108982D01*
X132022085Y-99113016D01*
X132022079Y-99113019D01*
X132011468Y-99119294D01*
X131993718Y-99127990D01*
X131982256Y-99132528D01*
X131982251Y-99132531D01*
X131974883Y-99135448D01*
X131957470Y-99148099D01*
X131939125Y-99161427D01*
X131929207Y-99167943D01*
X131910519Y-99178995D01*
X131891137Y-99190458D01*
X131876813Y-99204782D01*
X131861781Y-99217621D01*
X131845393Y-99229528D01*
X131817212Y-99263593D01*
X131809222Y-99272373D01*
X129579845Y-101501750D01*
X129517533Y-101535776D01*
X129446718Y-101530711D01*
X129389882Y-101488164D01*
X129365071Y-101421644D01*
X129364750Y-101412655D01*
X129364750Y-98945148D01*
X129384752Y-98877027D01*
X129438408Y-98830534D01*
X129508682Y-98820430D01*
X129551258Y-98834628D01*
X129552366Y-98835234D01*
X129559545Y-98840615D01*
X129695934Y-98891745D01*
X129758116Y-98898500D01*
X130754384Y-98898500D01*
X130816566Y-98891745D01*
X130952955Y-98840615D01*
X131069511Y-98753261D01*
X131156865Y-98636705D01*
X131207995Y-98500316D01*
X131214750Y-98438134D01*
X131214750Y-97141866D01*
X131207995Y-97079684D01*
X131156865Y-96943295D01*
X131069511Y-96826739D01*
X130952955Y-96739385D01*
X130816566Y-96688255D01*
X130754384Y-96681500D01*
X130155845Y-96681500D01*
X130087724Y-96661498D01*
X130066749Y-96644595D01*
X129467336Y-96045181D01*
X129433311Y-95982869D01*
X129431510Y-95972531D01*
X129431451Y-95972077D01*
X129424088Y-95916150D01*
X129423363Y-95914400D01*
X129423364Y-95855598D01*
X129424088Y-95853850D01*
X129432897Y-95786944D01*
X129439212Y-95738973D01*
X129439212Y-95738970D01*
X129439750Y-95734885D01*
X129440108Y-95734932D01*
X129463754Y-95670366D01*
X129475974Y-95656180D01*
X130006749Y-95125405D01*
X130069061Y-95091379D01*
X130095844Y-95088500D01*
X130754384Y-95088500D01*
X130816566Y-95081745D01*
X130952955Y-95030615D01*
X131069511Y-94943261D01*
X131156865Y-94826705D01*
X131207995Y-94690316D01*
X131214750Y-94628134D01*
X131214750Y-93331866D01*
X131207995Y-93269684D01*
X131156865Y-93133295D01*
X131069511Y-93016739D01*
X130952955Y-92929385D01*
X130952299Y-92929139D01*
X130905093Y-92881825D01*
X130889750Y-92821567D01*
X130889750Y-92004360D01*
X130909752Y-91936239D01*
X130915787Y-91927657D01*
X130930288Y-91908759D01*
X130987625Y-91866892D01*
X131058496Y-91862670D01*
X131120399Y-91897434D01*
X131153680Y-91960146D01*
X131156250Y-91985463D01*
X131156250Y-92125914D01*
X131160294Y-92139685D01*
X131173833Y-92141714D01*
X131236783Y-92133428D01*
X131252598Y-92129190D01*
X131385243Y-92074247D01*
X131399426Y-92066059D01*
X131513330Y-91978656D01*
X131524906Y-91967080D01*
X131612309Y-91853176D01*
X131620497Y-91838993D01*
X131675439Y-91706351D01*
X131679678Y-91690531D01*
X131683966Y-91657960D01*
X131681755Y-91643778D01*
X131668598Y-91640000D01*
X131180750Y-91640000D01*
X131112629Y-91619998D01*
X131066136Y-91566342D01*
X131054750Y-91514001D01*
X131054749Y-91366001D01*
X131074751Y-91297880D01*
X131128406Y-91251387D01*
X131180749Y-91240000D01*
X131668215Y-91240000D01*
X131681986Y-91235956D01*
X131684015Y-91222417D01*
X131679678Y-91189467D01*
X131675440Y-91173652D01*
X131620497Y-91041007D01*
X131612309Y-91026824D01*
X131524906Y-90912920D01*
X131513330Y-90901344D01*
X131399426Y-90813941D01*
X131385243Y-90805753D01*
X131252600Y-90750810D01*
X131236782Y-90746572D01*
X131130184Y-90732538D01*
X131121974Y-90732000D01*
X131075750Y-90732000D01*
X131007629Y-90711998D01*
X130961136Y-90658342D01*
X130949750Y-90606000D01*
X130949750Y-90294950D01*
X130969752Y-90226829D01*
X130986655Y-90205855D01*
X130995703Y-90196807D01*
X130999739Y-90189983D01*
X130999741Y-90189980D01*
X131067326Y-90075700D01*
X131080395Y-90053601D01*
X131082665Y-90045790D01*
X131114976Y-89934570D01*
X131126812Y-89893831D01*
X131127324Y-89887336D01*
X131129557Y-89858958D01*
X131129557Y-89858950D01*
X131129750Y-89856502D01*
X131129750Y-89853984D01*
X131413251Y-89853984D01*
X131413445Y-89858920D01*
X131415680Y-89887336D01*
X131417980Y-89899931D01*
X131460357Y-90045790D01*
X131466602Y-90060221D01*
X131543161Y-90189678D01*
X131552801Y-90202104D01*
X131659146Y-90308449D01*
X131671572Y-90318089D01*
X131801029Y-90394648D01*
X131815460Y-90400893D01*
X131949855Y-90439939D01*
X131963956Y-90439899D01*
X131967250Y-90432630D01*
X131967250Y-90426878D01*
X132475250Y-90426878D01*
X132479223Y-90440409D01*
X132487121Y-90441544D01*
X132627040Y-90400893D01*
X132641471Y-90394648D01*
X132770928Y-90318089D01*
X132783354Y-90308449D01*
X132889699Y-90202104D01*
X132899339Y-90189678D01*
X132975898Y-90060221D01*
X132982143Y-90045790D01*
X133024519Y-89899935D01*
X133026820Y-89887333D01*
X133029057Y-89858916D01*
X133029250Y-89853986D01*
X133029250Y-89474615D01*
X133024775Y-89459376D01*
X133023385Y-89458171D01*
X133015702Y-89456500D01*
X132493365Y-89456500D01*
X132478126Y-89460975D01*
X132476921Y-89462365D01*
X132475250Y-89470048D01*
X132475250Y-90426878D01*
X131967250Y-90426878D01*
X131967250Y-89474615D01*
X131962775Y-89459376D01*
X131961385Y-89458171D01*
X131953702Y-89456500D01*
X131431366Y-89456500D01*
X131416127Y-89460975D01*
X131414922Y-89462365D01*
X131413251Y-89470048D01*
X131413251Y-89853984D01*
X131129750Y-89853984D01*
X131129750Y-88699500D01*
X131149752Y-88631379D01*
X131203408Y-88584886D01*
X131255750Y-88573500D01*
X131287250Y-88573500D01*
X131355371Y-88593502D01*
X131401864Y-88647158D01*
X131413250Y-88699500D01*
X131413250Y-88930385D01*
X131417725Y-88945624D01*
X131419115Y-88946829D01*
X131426798Y-88948500D01*
X133011134Y-88948500D01*
X133026373Y-88944025D01*
X133027578Y-88942635D01*
X133029249Y-88934952D01*
X133029249Y-88551017D01*
X133029055Y-88546080D01*
X133026820Y-88517664D01*
X133024520Y-88505069D01*
X132982143Y-88359210D01*
X132975898Y-88344779D01*
X132899339Y-88215322D01*
X132889699Y-88202896D01*
X132862898Y-88176095D01*
X132828872Y-88113783D01*
X132833937Y-88042968D01*
X132876484Y-87986132D01*
X132943004Y-87961321D01*
X132951993Y-87961000D01*
X133211656Y-87961000D01*
X133279777Y-87981002D01*
G37*
%TD.AperFunction*%
%TA.AperFunction,Conductor*%
G36*
X123738645Y-88303502D02*
G01*
X123777957Y-88343665D01*
X123846237Y-88455088D01*
X123992500Y-88623938D01*
X124164376Y-88766632D01*
X124234845Y-88807811D01*
X124237695Y-88809476D01*
X124286419Y-88861114D01*
X124299490Y-88930897D01*
X124272759Y-88996669D01*
X124232305Y-89030027D01*
X124219857Y-89036507D01*
X124215724Y-89039610D01*
X124215721Y-89039612D01*
X124045350Y-89167530D01*
X124041215Y-89170635D01*
X123886879Y-89332138D01*
X123883965Y-89336410D01*
X123883964Y-89336411D01*
X123881175Y-89340500D01*
X123760993Y-89516680D01*
X123666938Y-89719305D01*
X123607239Y-89934570D01*
X123583501Y-90156695D01*
X123583798Y-90161848D01*
X123583798Y-90161851D01*
X123592004Y-90304168D01*
X123596360Y-90379715D01*
X123597497Y-90384761D01*
X123597498Y-90384767D01*
X123629703Y-90527668D01*
X123625167Y-90598520D01*
X123595881Y-90644464D01*
X120577747Y-93662598D01*
X120569461Y-93670138D01*
X120562982Y-93674250D01*
X120557557Y-93680027D01*
X120516357Y-93723901D01*
X120513602Y-93726743D01*
X120493865Y-93746480D01*
X120491385Y-93749677D01*
X120483682Y-93758697D01*
X120453414Y-93790929D01*
X120449595Y-93797875D01*
X120449593Y-93797878D01*
X120443652Y-93808684D01*
X120432801Y-93825203D01*
X120420386Y-93841209D01*
X120418489Y-93845594D01*
X120367618Y-93893092D01*
X120311059Y-93906500D01*
X120171537Y-93906501D01*
X120160116Y-93906501D01*
X120156031Y-93907039D01*
X120156027Y-93907039D01*
X120049337Y-93921084D01*
X120049335Y-93921084D01*
X120041150Y-93922162D01*
X119893124Y-93983476D01*
X119891777Y-93984510D01*
X119865952Y-93995049D01*
X119864071Y-93995532D01*
X119856203Y-93996526D01*
X119848835Y-93999443D01*
X119848828Y-93999445D01*
X119815098Y-94012800D01*
X119803868Y-94016645D01*
X119769017Y-94026770D01*
X119761407Y-94028981D01*
X119754584Y-94033016D01*
X119743966Y-94039295D01*
X119726213Y-94047992D01*
X119722213Y-94049576D01*
X119707383Y-94055448D01*
X119682875Y-94073254D01*
X119671612Y-94081437D01*
X119661695Y-94087951D01*
X119623638Y-94110458D01*
X119618033Y-94116062D01*
X119609315Y-94124780D01*
X119594282Y-94137620D01*
X119577893Y-94149528D01*
X119572841Y-94155635D01*
X119549712Y-94183593D01*
X119541722Y-94192374D01*
X119320242Y-94413853D01*
X119311963Y-94421387D01*
X119305482Y-94425500D01*
X119265249Y-94468344D01*
X119258856Y-94475152D01*
X119256101Y-94477994D01*
X119236365Y-94497730D01*
X119233885Y-94500927D01*
X119226182Y-94509947D01*
X119195914Y-94542179D01*
X119192095Y-94549125D01*
X119192093Y-94549128D01*
X119186152Y-94559934D01*
X119175301Y-94576453D01*
X119162886Y-94592459D01*
X119159741Y-94599728D01*
X119159738Y-94599732D01*
X119145326Y-94633037D01*
X119140109Y-94643687D01*
X119118805Y-94682440D01*
X119116834Y-94690115D01*
X119116834Y-94690116D01*
X119113767Y-94702062D01*
X119107363Y-94720766D01*
X119099319Y-94739355D01*
X119098080Y-94747178D01*
X119098077Y-94747188D01*
X119092401Y-94783024D01*
X119089995Y-94794644D01*
X119081957Y-94825954D01*
X119079000Y-94837470D01*
X119079000Y-94857724D01*
X119077449Y-94877434D01*
X119074280Y-94897443D01*
X119075026Y-94905335D01*
X119078441Y-94941461D01*
X119079000Y-94953319D01*
X119079000Y-95350069D01*
X119058998Y-95418190D01*
X119019304Y-95457212D01*
X118998311Y-95470203D01*
X118874383Y-95594347D01*
X118870542Y-95600579D01*
X118870540Y-95600581D01*
X118851260Y-95631859D01*
X118798489Y-95679353D01*
X118728417Y-95690777D01*
X118663293Y-95662503D01*
X118623793Y-95603510D01*
X118618000Y-95565744D01*
X118618000Y-90489113D01*
X118638002Y-90420992D01*
X118691658Y-90374499D01*
X118761932Y-90364395D01*
X118826512Y-90393889D01*
X118851144Y-90422810D01*
X118875203Y-90461689D01*
X118999347Y-90585617D01*
X119148671Y-90677661D01*
X119155619Y-90679966D01*
X119155620Y-90679966D01*
X119308634Y-90730719D01*
X119308636Y-90730719D01*
X119315165Y-90732885D01*
X119418769Y-90743500D01*
X119710234Y-90743500D01*
X120006230Y-90743499D01*
X120111129Y-90732616D01*
X120117660Y-90730437D01*
X120117665Y-90730436D01*
X120270578Y-90679420D01*
X120277526Y-90677102D01*
X120426689Y-90584797D01*
X120550617Y-90460653D01*
X120552614Y-90457413D01*
X120609352Y-90417186D01*
X120680275Y-90413953D01*
X120741687Y-90449578D01*
X120749066Y-90458078D01*
X120755782Y-90466552D01*
X120869479Y-90580051D01*
X120880890Y-90589063D01*
X121017654Y-90673365D01*
X121030832Y-90679509D01*
X121183740Y-90730227D01*
X121197106Y-90733093D01*
X121290601Y-90742672D01*
X121297016Y-90743000D01*
X121315385Y-90743000D01*
X121330624Y-90738525D01*
X121331829Y-90737135D01*
X121333500Y-90729452D01*
X121333500Y-90724884D01*
X121841500Y-90724884D01*
X121845975Y-90740123D01*
X121847365Y-90741328D01*
X121855048Y-90742999D01*
X121877933Y-90742999D01*
X121884452Y-90742662D01*
X121979170Y-90732834D01*
X121992564Y-90729942D01*
X122145365Y-90678964D01*
X122158543Y-90672790D01*
X122295149Y-90588256D01*
X122306550Y-90579220D01*
X122420051Y-90465521D01*
X122429063Y-90454110D01*
X122513365Y-90317346D01*
X122519509Y-90304168D01*
X122570227Y-90151260D01*
X122573093Y-90137894D01*
X122582672Y-90044399D01*
X122583000Y-90037984D01*
X122583000Y-89807115D01*
X122578525Y-89791876D01*
X122577135Y-89790671D01*
X122569452Y-89789000D01*
X121859615Y-89789000D01*
X121844376Y-89793475D01*
X121843171Y-89794865D01*
X121841500Y-89802548D01*
X121841500Y-90724884D01*
X121333500Y-90724884D01*
X121333500Y-89407000D01*
X121353502Y-89338879D01*
X121407158Y-89292386D01*
X121459500Y-89281000D01*
X122564884Y-89281000D01*
X122580123Y-89276525D01*
X122581328Y-89275135D01*
X122582999Y-89267452D01*
X122582999Y-89032067D01*
X122582662Y-89025548D01*
X122572834Y-88930830D01*
X122569942Y-88917436D01*
X122518964Y-88764635D01*
X122512790Y-88751457D01*
X122428256Y-88614851D01*
X122419220Y-88603450D01*
X122314260Y-88498673D01*
X122280181Y-88436391D01*
X122285184Y-88365571D01*
X122327681Y-88308698D01*
X122394180Y-88283829D01*
X122403278Y-88283500D01*
X123670524Y-88283500D01*
X123738645Y-88303502D01*
G37*
%TD.AperFunction*%
%TA.AperFunction,Conductor*%
G36*
X138003035Y-90293955D02*
G01*
X138054091Y-90343289D01*
X138070370Y-90412394D01*
X138060964Y-90453779D01*
X138025812Y-90538646D01*
X138021572Y-90554469D01*
X138017284Y-90587040D01*
X138019495Y-90601222D01*
X138032652Y-90605000D01*
X138520500Y-90605000D01*
X138588621Y-90625002D01*
X138635114Y-90678658D01*
X138646500Y-90730999D01*
X138646501Y-90878999D01*
X138626499Y-90947120D01*
X138572844Y-90993613D01*
X138520501Y-91005000D01*
X138033035Y-91005000D01*
X138019264Y-91009044D01*
X138017235Y-91022583D01*
X138021572Y-91055533D01*
X138025810Y-91071348D01*
X138080753Y-91203993D01*
X138088941Y-91218176D01*
X138176344Y-91332080D01*
X138187920Y-91343656D01*
X138301824Y-91431059D01*
X138316007Y-91439247D01*
X138448650Y-91494190D01*
X138464468Y-91498428D01*
X138527040Y-91506666D01*
X138541221Y-91504454D01*
X138545000Y-91491296D01*
X138545000Y-91350465D01*
X138565002Y-91282344D01*
X138618658Y-91235851D01*
X138688932Y-91225747D01*
X138753512Y-91255241D01*
X138770962Y-91273761D01*
X138815713Y-91332080D01*
X138821013Y-91338987D01*
X138827563Y-91344013D01*
X138827566Y-91344016D01*
X138895704Y-91396300D01*
X138937571Y-91453638D01*
X138942706Y-91483102D01*
X138949044Y-91504685D01*
X138962583Y-91506714D01*
X139025525Y-91498429D01*
X139031409Y-91496852D01*
X139093770Y-91496852D01*
X139096150Y-91497838D01*
X139104342Y-91498917D01*
X139104344Y-91498917D01*
X139211028Y-91512962D01*
X139215115Y-91513500D01*
X139384979Y-91513500D01*
X139554884Y-91513499D01*
X139559059Y-91512949D01*
X139559085Y-91512953D01*
X139563087Y-91512691D01*
X139563146Y-91513587D01*
X139629206Y-91523891D01*
X139682303Y-91571021D01*
X139701500Y-91637872D01*
X139701500Y-92563425D01*
X139681498Y-92631546D01*
X139627842Y-92678039D01*
X139557568Y-92688143D01*
X139501439Y-92665361D01*
X139353344Y-92557763D01*
X139353343Y-92557762D01*
X139348002Y-92553882D01*
X139341974Y-92551198D01*
X139341972Y-92551197D01*
X139179569Y-92478891D01*
X139179568Y-92478891D01*
X139173538Y-92476206D01*
X139080137Y-92456353D01*
X138993194Y-92437872D01*
X138993189Y-92437872D01*
X138986737Y-92436500D01*
X138795763Y-92436500D01*
X138789311Y-92437872D01*
X138789306Y-92437872D01*
X138702362Y-92456353D01*
X138608962Y-92476206D01*
X138602935Y-92478889D01*
X138602927Y-92478892D01*
X138583002Y-92487764D01*
X138512636Y-92497199D01*
X138448338Y-92467094D01*
X138442657Y-92461753D01*
X137446654Y-91465750D01*
X137412628Y-91403438D01*
X137409749Y-91376655D01*
X137409749Y-91300116D01*
X137407410Y-91282344D01*
X137395166Y-91189337D01*
X137395166Y-91189335D01*
X137394088Y-91181150D01*
X137356152Y-91089563D01*
X137335934Y-91040752D01*
X137335933Y-91040750D01*
X137332774Y-91033124D01*
X137327749Y-91026575D01*
X137323617Y-91019419D01*
X137325966Y-91018063D01*
X137305187Y-90964319D01*
X137304750Y-90953831D01*
X137304750Y-90574500D01*
X137324752Y-90506379D01*
X137378408Y-90459886D01*
X137430750Y-90448500D01*
X137517752Y-90448500D01*
X137520200Y-90448307D01*
X137520208Y-90448307D01*
X137548671Y-90446067D01*
X137548676Y-90446066D01*
X137555081Y-90445562D01*
X137669247Y-90412394D01*
X137707238Y-90401357D01*
X137707240Y-90401356D01*
X137714851Y-90399145D01*
X137858057Y-90314453D01*
X137863667Y-90308843D01*
X137867327Y-90306004D01*
X137933412Y-90280056D01*
X138003035Y-90293955D01*
G37*
%TD.AperFunction*%
%TA.AperFunction,Conductor*%
G36*
X121783621Y-82951002D02*
G01*
X121830114Y-83004658D01*
X121841500Y-83057000D01*
X121841500Y-84374884D01*
X121845975Y-84390123D01*
X121847365Y-84391328D01*
X121855048Y-84392999D01*
X121877933Y-84392999D01*
X121884452Y-84392662D01*
X121979170Y-84382834D01*
X121992564Y-84379942D01*
X122145365Y-84328964D01*
X122158543Y-84322790D01*
X122295149Y-84238256D01*
X122306550Y-84229220D01*
X122420051Y-84115521D01*
X122429063Y-84104110D01*
X122513365Y-83967346D01*
X122519509Y-83954169D01*
X122548170Y-83867758D01*
X122588600Y-83809398D01*
X122654164Y-83782161D01*
X122724046Y-83794694D01*
X122748079Y-83810341D01*
X122758605Y-83819049D01*
X122767384Y-83827038D01*
X123596028Y-84655682D01*
X123630054Y-84717994D01*
X123628350Y-84778448D01*
X123607239Y-84854570D01*
X123606691Y-84859700D01*
X123606690Y-84859704D01*
X123603183Y-84892522D01*
X123583501Y-85076695D01*
X123583798Y-85081848D01*
X123583798Y-85081851D01*
X123596062Y-85294547D01*
X123596360Y-85299715D01*
X123597497Y-85304761D01*
X123597498Y-85304767D01*
X123609885Y-85359729D01*
X123645472Y-85517639D01*
X123729516Y-85724616D01*
X123846237Y-85915088D01*
X123992500Y-86083938D01*
X124164376Y-86226632D01*
X124233205Y-86266852D01*
X124237695Y-86269476D01*
X124286419Y-86321114D01*
X124299490Y-86390897D01*
X124272759Y-86456669D01*
X124232305Y-86490027D01*
X124219857Y-86496507D01*
X124215724Y-86499610D01*
X124215721Y-86499612D01*
X124054924Y-86620342D01*
X124041215Y-86630635D01*
X123984460Y-86690026D01*
X123900499Y-86777886D01*
X123886879Y-86792138D01*
X123883965Y-86796410D01*
X123883964Y-86796411D01*
X123771345Y-86961504D01*
X123716434Y-87006507D01*
X123667257Y-87016500D01*
X121179699Y-87016500D01*
X121119257Y-87000304D01*
X121116875Y-86998476D01*
X121109247Y-86995316D01*
X120976479Y-86940322D01*
X120968850Y-86937162D01*
X120954304Y-86935247D01*
X120853972Y-86922038D01*
X120853971Y-86922038D01*
X120849885Y-86921500D01*
X120680021Y-86921500D01*
X120510116Y-86921501D01*
X120506031Y-86922039D01*
X120506027Y-86922039D01*
X120436507Y-86931191D01*
X120391150Y-86937162D01*
X120389400Y-86937887D01*
X120330598Y-86937886D01*
X120328850Y-86937162D01*
X120320666Y-86936085D01*
X120320664Y-86936084D01*
X120213972Y-86922038D01*
X120213971Y-86922038D01*
X120209885Y-86921500D01*
X120040021Y-86921500D01*
X119870116Y-86921501D01*
X119866031Y-86922039D01*
X119866027Y-86922039D01*
X119759337Y-86936084D01*
X119759335Y-86936084D01*
X119751150Y-86937162D01*
X119692383Y-86961504D01*
X119610752Y-86995316D01*
X119610750Y-86995317D01*
X119603124Y-86998476D01*
X119476013Y-87096013D01*
X119470987Y-87102563D01*
X119470984Y-87102566D01*
X119427244Y-87159569D01*
X119378476Y-87223125D01*
X119317162Y-87371150D01*
X119314079Y-87394570D01*
X119313529Y-87398745D01*
X119284806Y-87463672D01*
X119277702Y-87471393D01*
X118987747Y-87761348D01*
X118979461Y-87768888D01*
X118972982Y-87773000D01*
X118967557Y-87778777D01*
X118926357Y-87822651D01*
X118923602Y-87825493D01*
X118903865Y-87845230D01*
X118901385Y-87848427D01*
X118893682Y-87857447D01*
X118863414Y-87889679D01*
X118859595Y-87896625D01*
X118859593Y-87896628D01*
X118854413Y-87906050D01*
X118804067Y-87956107D01*
X118734649Y-87970999D01*
X118668201Y-87945996D01*
X118625818Y-87889038D01*
X118618000Y-87845346D01*
X118618000Y-84139113D01*
X118638002Y-84070992D01*
X118691658Y-84024499D01*
X118761932Y-84014395D01*
X118826512Y-84043889D01*
X118851144Y-84072810D01*
X118875203Y-84111689D01*
X118999347Y-84235617D01*
X119148671Y-84327661D01*
X119155619Y-84329966D01*
X119155620Y-84329966D01*
X119308634Y-84380719D01*
X119308636Y-84380719D01*
X119315165Y-84382885D01*
X119418769Y-84393500D01*
X119710234Y-84393500D01*
X120006230Y-84393499D01*
X120111129Y-84382616D01*
X120117660Y-84380437D01*
X120117665Y-84380436D01*
X120270578Y-84329420D01*
X120277526Y-84327102D01*
X120426689Y-84234797D01*
X120550617Y-84110653D01*
X120552614Y-84107413D01*
X120609352Y-84067186D01*
X120680275Y-84063953D01*
X120741687Y-84099578D01*
X120749066Y-84108078D01*
X120755782Y-84116552D01*
X120869479Y-84230051D01*
X120880890Y-84239063D01*
X121017654Y-84323365D01*
X121030832Y-84329509D01*
X121183740Y-84380227D01*
X121197106Y-84383093D01*
X121290601Y-84392672D01*
X121297016Y-84393000D01*
X121315385Y-84393000D01*
X121330624Y-84388525D01*
X121331829Y-84387135D01*
X121333500Y-84379452D01*
X121333500Y-83057000D01*
X121353502Y-82988879D01*
X121407158Y-82942386D01*
X121459500Y-82931000D01*
X121715500Y-82931000D01*
X121783621Y-82951002D01*
G37*
%TD.AperFunction*%
%TA.AperFunction,Conductor*%
G36*
X121783621Y-76601002D02*
G01*
X121830114Y-76654658D01*
X121841500Y-76707000D01*
X121841500Y-78024884D01*
X121845975Y-78040123D01*
X121871670Y-78062388D01*
X121871403Y-78062696D01*
X121884601Y-78069903D01*
X121918622Y-78132217D01*
X121921500Y-78158993D01*
X121921500Y-80520500D01*
X121901498Y-80588621D01*
X121847842Y-80635114D01*
X121795500Y-80646500D01*
X121427168Y-80646500D01*
X121378950Y-80636909D01*
X121374617Y-80635114D01*
X121258850Y-80587162D01*
X121250662Y-80586084D01*
X121143972Y-80572038D01*
X121143971Y-80572038D01*
X121139885Y-80571500D01*
X120970021Y-80571500D01*
X120800116Y-80571501D01*
X120796031Y-80572039D01*
X120796027Y-80572039D01*
X120727837Y-80581016D01*
X120681150Y-80587162D01*
X120679400Y-80587887D01*
X120620598Y-80587886D01*
X120618850Y-80587162D01*
X120610666Y-80586085D01*
X120610664Y-80586084D01*
X120503972Y-80572038D01*
X120503971Y-80572038D01*
X120499885Y-80571500D01*
X120330021Y-80571500D01*
X120160116Y-80571501D01*
X120156031Y-80572039D01*
X120156027Y-80572039D01*
X120049337Y-80586084D01*
X120049335Y-80586084D01*
X120041150Y-80587162D01*
X119893124Y-80648476D01*
X119891777Y-80649510D01*
X119865952Y-80660049D01*
X119864071Y-80660532D01*
X119856203Y-80661526D01*
X119848835Y-80664443D01*
X119848828Y-80664445D01*
X119815098Y-80677800D01*
X119803868Y-80681645D01*
X119769017Y-80691770D01*
X119761407Y-80693981D01*
X119754584Y-80698016D01*
X119743966Y-80704295D01*
X119726213Y-80712992D01*
X119718568Y-80716019D01*
X119707383Y-80720448D01*
X119700968Y-80725109D01*
X119671612Y-80746437D01*
X119661695Y-80752951D01*
X119623638Y-80775458D01*
X119609317Y-80789779D01*
X119594284Y-80802619D01*
X119577893Y-80814528D01*
X119552816Y-80844841D01*
X119549712Y-80848593D01*
X119541722Y-80857374D01*
X118987742Y-81411353D01*
X118979463Y-81418887D01*
X118972982Y-81423000D01*
X118926357Y-81472651D01*
X118923602Y-81475493D01*
X118903865Y-81495230D01*
X118901385Y-81498427D01*
X118893682Y-81507447D01*
X118863414Y-81539679D01*
X118859595Y-81546625D01*
X118859593Y-81546628D01*
X118854413Y-81556050D01*
X118804067Y-81606107D01*
X118734649Y-81620999D01*
X118668201Y-81595996D01*
X118625818Y-81539038D01*
X118618000Y-81495346D01*
X118618000Y-77789113D01*
X118638002Y-77720992D01*
X118691658Y-77674499D01*
X118761932Y-77664395D01*
X118826512Y-77693889D01*
X118851144Y-77722810D01*
X118875203Y-77761689D01*
X118999347Y-77885617D01*
X119148671Y-77977661D01*
X119155619Y-77979966D01*
X119155620Y-77979966D01*
X119308634Y-78030719D01*
X119308636Y-78030719D01*
X119315165Y-78032885D01*
X119418769Y-78043500D01*
X119710234Y-78043500D01*
X120006230Y-78043499D01*
X120111129Y-78032616D01*
X120117660Y-78030437D01*
X120117665Y-78030436D01*
X120270578Y-77979420D01*
X120277526Y-77977102D01*
X120426689Y-77884797D01*
X120550617Y-77760653D01*
X120552614Y-77757413D01*
X120609352Y-77717186D01*
X120680275Y-77713953D01*
X120741687Y-77749578D01*
X120749066Y-77758078D01*
X120755782Y-77766552D01*
X120869479Y-77880051D01*
X120880890Y-77889063D01*
X121017654Y-77973365D01*
X121030832Y-77979509D01*
X121183740Y-78030227D01*
X121197106Y-78033093D01*
X121290601Y-78042672D01*
X121297016Y-78043000D01*
X121315385Y-78043000D01*
X121330624Y-78038525D01*
X121331829Y-78037135D01*
X121333500Y-78029452D01*
X121333500Y-76707000D01*
X121353502Y-76638879D01*
X121407158Y-76592386D01*
X121459500Y-76581000D01*
X121715500Y-76581000D01*
X121783621Y-76601002D01*
G37*
%TD.AperFunction*%
%TD*%
M02*
